<svg width="24" height="24" viewBox="0 0 24 24" fill="none" xmlns="http://www.w3.org/2000/svg">
<path d="M14.3428 17.0451V17.1884C14.2973 17.7672 14.0561 18.3059 13.6672 18.6972C13.2783 19.0885 12.7703 19.3038 12.2441 19.3003H11.7543C11.2319 19.3007 10.7281 19.0854 10.3421 18.6966C9.95603 18.3079 9.71556 17.7738 9.6679 17.1993V17.0559C9.64301 16.7599 9.72379 16.4647 9.89302 16.2334C10.0623 16.0021 10.3066 15.8529 10.574 15.8175C11.5273 15.6912 12.4908 15.6912 13.4441 15.8175C13.7083 15.8548 13.9493 16.0033 14.1167 16.232C14.2842 16.4608 14.3652 16.7521 14.3428 17.0451V17.0451ZM23.242 1.15071C23.7318 2.32157 24.4224 4.60649 23.6608 6.78866C23.2169 8.00995 22.3952 9.01789 21.3417 9.63333C21.7727 12.0805 22.2845 15.6715 20.8152 18.7325C19.8641 19.0388 18.9282 19.3998 18.0112 19.8141C17.7931 20.6057 17.4231 21.3361 16.9264 21.9557C16.4026 22.6018 15.7608 23.1181 15.0432 23.4704C14.3256 23.8228 13.5486 24.0032 12.7633 24H11.2327C10.4474 24.0032 9.67037 23.8228 8.9528 23.4704C8.23522 23.1181 7.59341 22.6018 7.06963 21.9557C6.57208 21.3364 6.20123 20.6059 5.98233 19.8141C5.067 19.4 4.1327 19.0389 3.18326 18.7325C1.71393 15.6715 2.22819 12.0805 2.6592 9.63333C1.60453 9.01753 0.781896 8.00858 0.337658 6.78596C-0.423944 4.60649 0.273987 2.31886 0.756416 1.15071C0.938151 0.703487 1.26636 0.348719 1.67517 0.157626C2.08397 -0.0334674 2.54311 -0.0467412 2.96041 0.120469C3.93996 0.507149 5.03706 1.40219 5.73744 2.03494C7.68646 0.978939 9.82823 0.428632 11.9992 0.426027V0.426027C14.1692 0.428202 16.3101 0.977572 18.2586 2.03223C18.959 1.39949 20.0561 0.504445 21.0332 0.117765C21.4514 -0.0508451 21.9119 -0.0379968 22.3219 0.153717C22.7319 0.34543 23.0607 0.701733 23.242 1.15071ZM8.19367 10.4499C8.46151 10.4499 8.72334 10.3622 8.94604 10.1979C9.16874 10.0336 9.34232 9.80009 9.44482 9.52685C9.54732 9.25361 9.57413 8.95295 9.52188 8.66288C9.46963 8.37281 9.34065 8.10637 9.15126 7.89724C8.96186 7.68812 8.72056 7.5457 8.45787 7.488C8.19517 7.4303 7.92288 7.45991 7.67543 7.57309C7.42797 7.68627 7.21647 7.87793 7.06767 8.12384C6.91886 8.36975 6.83944 8.65886 6.83944 8.95461C6.83944 9.3512 6.98212 9.73154 7.23608 10.012C7.49005 10.2924 7.83451 10.4499 8.19367 10.4499V10.4499ZM15.9027 17.7969L15.5844 14.9252C15.5172 14.3683 15.3364 13.8356 15.0556 13.3672C14.7747 12.8988 14.4012 12.5069 13.9632 12.2211C13.3714 11.8291 12.6943 11.622 12.0041 11.622C11.314 11.622 10.6368 11.8291 10.045 12.2211C9.60703 12.5069 9.23354 12.8988 8.95271 13.3672C8.67188 13.8356 8.49105 14.3683 8.42387 14.9252L8.09572 17.7969C8.04714 18.2376 8.08498 18.6847 8.20667 19.1079C8.32836 19.5311 8.53105 19.9204 8.80099 20.2494C9.10719 20.6249 9.48205 20.9244 9.90081 21.1281C10.3196 21.3318 10.7727 21.4351 11.2303 21.4311H12.7633C13.2209 21.4351 13.674 21.3318 14.0928 21.1281C14.5115 20.9244 14.8864 20.6249 15.1926 20.2494C15.4634 19.9208 15.667 19.5317 15.7895 19.1085C15.9121 18.6853 15.9507 18.238 15.9027 17.7969V17.7969ZM17.1615 8.9519C17.1615 8.65615 17.082 8.36704 16.9332 8.12114C16.7844 7.87523 16.5729 7.68357 16.3255 7.57039C16.078 7.45721 15.8057 7.4276 15.543 7.4853C15.2804 7.54299 15.039 7.68541 14.8497 7.89454C14.6603 8.10367 14.5313 8.37011 14.479 8.66018C14.4268 8.95025 14.4536 9.25091 14.5561 9.52415C14.6586 9.79738 14.8322 10.0309 15.0549 10.1952C15.2776 10.3595 15.5394 10.4472 15.8072 10.4472C16.1656 10.4465 16.509 10.289 16.7624 10.0093C17.0158 9.7295 17.1584 9.35026 17.159 8.95461L17.1615 8.9519Z" fill="#A086F7"/>
</svg>