<svg width="14" height="15" viewBox="0 0 14 15" fill="none" xmlns="http://www.w3.org/2000/svg">
<path d="M8.01759 7.23719L11.7748 3.18326L12.3937 3.79983C12.5263 3.93855 12.7326 3.9848 12.9094 3.90772C13.0862 3.84607 13.2041 3.67651 13.2335 3.47613L13.5577 0.578261C13.5724 0.424119 13.5282 0.254563 13.4103 0.146663C13.2925 0.0387642 13.1451 -0.0228926 12.9978 0.0079358L10.213 0.454947C10.0215 0.485776 9.87411 0.624503 9.81518 0.809474C9.75624 0.994444 9.80044 1.21024 9.94779 1.33356L10.5666 1.95012L7.38402 5.38749L5.5717 3.53778C5.42435 3.38364 5.23281 3.30657 5.02653 3.29116C4.79078 3.27574 4.5403 3.36823 4.36348 3.5532L0.223145 8.02331C-0.086275 8.39325 -0.0715407 8.94816 0.252614 9.28728C0.34102 9.37976 0.44416 9.44142 0.562034 9.48766C0.606237 9.50307 0.665174 9.51849 0.724112 9.5339C0.768315 9.5339 0.812518 9.54932 0.85672 9.54932C1.07774 9.54932 1.28402 9.45683 1.44609 9.28728L4.99706 5.43373L6.80938 7.26802C7.14827 7.60713 7.69344 7.59172 8.01759 7.23719Z" fill="#A086F7"/>
<path d="M3.83265 11.2603H1.34258C1.07737 11.2603 0.871094 11.4761 0.871094 11.7535V14.0656C0.871094 14.3431 1.07737 14.5589 1.34258 14.5589H3.83265C4.09786 14.5589 4.30414 14.3431 4.30414 14.0656V11.7535C4.30414 11.4915 4.09786 11.2603 3.83265 11.2603Z" fill="#A086F7"/>
<path d="M8.68036 9.19458H6.19025C5.92503 9.19458 5.71875 9.41038 5.71875 9.68783V14.0655C5.71875 14.3429 5.92503 14.5587 6.19025 14.5587H8.68036C8.94557 14.5587 9.15186 14.3429 9.15186 14.0655V9.67242C9.15186 9.41038 8.94557 9.19458 8.68036 9.19458Z" fill="#A086F7"/>
<path d="M13.529 7.11389H11.0389C10.7737 7.11389 10.5674 7.32969 10.5674 7.60714V14.0657C10.5674 14.3431 10.7737 14.5589 11.0389 14.5589H13.529C13.7942 14.5589 14.0005 14.3431 14.0005 14.0657V7.60714C14.0005 7.32969 13.7942 7.11389 13.529 7.11389Z" fill="#A086F7"/>
</svg>
