<svg width="24" height="24" viewBox="0 0 24 24" fill="none" xmlns="http://www.w3.org/2000/svg">
<circle cx="12" cy="12" r="12" fill="#A086F7"/>
<line x1="5.625" y1="6.625" x2="5.625" y2="18.375" stroke="white" stroke-width="1.25" stroke-linecap="round" stroke-linejoin="round"/>
<line x1="5.625" y1="18.375" x2="18.375" y2="18.375" stroke="white" stroke-width="1.25" stroke-linecap="round" stroke-linejoin="round"/>
<path d="M13.9906 10.3321L16.7269 8.68435L16.989 9.1167C17.0442 9.21297 17.1549 9.26981 17.267 9.25457C17.3768 9.24778 17.4689 9.17287 17.5151 9.06756L18.1253 7.5291C18.1563 7.44688 18.1561 7.34722 18.1047 7.27009C18.0534 7.19297 17.9785 7.13669 17.89 7.13108L16.2375 6.95082C16.1238 6.93847 16.0194 6.99199 15.9587 7.08435C15.898 7.17671 15.8915 7.30171 15.9573 7.39178L16.2194 7.82414L13.9011 9.22177L13.14 7.93145C13.0786 7.82449 12.9808 7.75301 12.8655 7.71307C12.7334 7.66862 12.5771 7.68106 12.4492 7.75542L9.43348 9.57274C9.20283 9.72821 9.12975 10.0345 9.26468 10.2699C9.30148 10.334 9.3512 10.3836 9.41158 10.4269C9.43451 10.4421 9.46583 10.4596 9.49715 10.477C9.52234 10.4837 9.54527 10.4989 9.57046 10.5057C9.6964 10.5394 9.82753 10.5203 9.94478 10.4521L12.5341 8.88264L13.2975 10.1645C13.4409 10.4021 13.7538 10.4769 13.9906 10.3321Z" fill="white"/>
<path d="M12.0094 12.0854L9.27313 13.7331L9.01101 13.3008C8.95582 13.2045 8.84506 13.1477 8.73299 13.1629C8.62318 13.1697 8.53111 13.2446 8.48489 13.3499L7.87468 14.8884C7.84365 14.9706 7.84395 15.0703 7.89527 15.1474C7.9466 15.2245 8.02151 15.2808 8.11 15.2864L9.76255 15.4667C9.87622 15.479 9.98056 15.4255 10.0413 15.3331C10.102 15.2408 10.1085 15.1158 10.0427 15.0257L9.78057 14.5933L12.0989 13.1957L12.86 14.486C12.9214 14.593 13.0192 14.6645 13.1345 14.7044C13.2666 14.7489 13.4229 14.7364 13.5508 14.6621L16.5665 12.8447C16.7972 12.6893 16.8702 12.3829 16.7353 12.1476C16.6985 12.0834 16.6488 12.0339 16.5884 11.9906C16.5655 11.9754 16.5342 11.9579 16.5028 11.9405C16.4777 11.9337 16.4547 11.9185 16.4295 11.9118C16.3036 11.878 16.1725 11.8972 16.0552 11.9654L13.4659 13.5348L12.7025 12.253C12.5591 12.0154 12.2462 11.9406 12.0094 12.0854Z" fill="white"/>
</svg>
