<svg width="24" height="24" viewBox="0 0 19 18" fill="none" xmlns="http://www.w3.org/2000/svg">
<path d="M5.08798 15H2.91202C2.68026 15 2.5 15.1963 2.5 15.4486V17.5514C2.5 17.8037 2.68026 18 2.91202 18H5.08798C5.31974 18 5.5 17.8037 5.5 17.5514V15.4486C5.5 15.2103 5.31974 15 5.08798 15Z" fill="#A086F7"/>
<path d="M9.08798 11H6.91202C6.68026 11 6.5 11.2816 6.5 11.6437V17.3563C6.5 17.7184 6.68026 18 6.91202 18H9.08798C9.31974 18 9.5 17.7184 9.5 17.3563V11.6236C9.5 11.2816 9.31974 11 9.08798 11Z" fill="#A086F7"/>
<path d="M17.088 15H14.912C14.6803 15 14.5 15.1207 14.5 15.2759V17.7241C14.5 17.8793 14.6803 18 14.912 18H17.088C17.3197 18 17.5 17.8793 17.5 17.7241V15.2672C17.5 15.1207 17.3197 15 17.088 15Z" fill="#A086F7"/>
<path d="M13.088 13H10.912C10.6803 13 10.5 13.1449 10.5 13.3313V17.6687C10.5 17.8551 10.6803 18 10.912 18H13.088C13.3197 18 13.5 17.8551 13.5 17.6687V13.3313C13.5 13.1449 13.3197 13 13.088 13Z" fill="#A086F7"/>
<path d="M10.9865 9.18138L10.9861 9.18164C10.6195 9.40579 10.1351 9.28968 9.91359 8.92271C9.91355 8.92265 9.91351 8.92258 9.91347 8.92251L8.61965 6.75004L8.58143 6.68586L8.51756 6.72458L4.12966 9.38419C4.12947 9.3843 4.12927 9.38441 4.12908 9.38452C3.94654 9.49045 3.74472 9.51928 3.55158 9.46753C3.53721 9.46368 3.52243 9.45713 3.50103 9.44737L3.49909 9.44648C3.48217 9.43876 3.46053 9.42888 3.43683 9.42162C3.38623 9.39342 3.3394 9.36713 3.30519 9.34456C3.2097 9.27585 3.13403 9.19954 3.07839 9.1025C2.86983 8.73877 2.98168 8.26294 3.34011 8.02019L8.44976 4.94103C8.64741 4.82633 8.88975 4.80706 9.09374 4.8756C9.27525 4.93855 9.42513 5.04948 9.51861 5.2125L9.5186 5.21251L9.51907 5.2133L10.8093 7.40045L10.8473 7.4649L10.9114 7.42627L14.841 5.0572L14.9047 5.01884L14.8662 4.95531L14.4219 4.22244L14.4221 4.2223L14.4183 4.21712C14.3279 4.09345 14.3338 3.91565 14.4227 3.78047C14.5113 3.6458 14.6619 3.56932 14.8253 3.58709L17.6265 3.89264L17.6264 3.89271L17.6298 3.89293C17.7496 3.90051 17.858 3.97734 17.9368 4.09566C18.0072 4.20155 18.0105 4.344 17.9642 4.46692C17.9642 4.4671 17.9641 4.46728 17.964 4.46745L16.9306 7.07279C16.8611 7.23035 16.7268 7.33497 16.5739 7.34442L16.5739 7.34422L16.5685 7.34496C16.4092 7.36661 16.2505 7.28554 16.1715 7.14783L16.1715 7.14782L16.1706 7.14628L15.7263 6.41341L15.688 6.35022L15.6247 6.38834L10.9865 9.18138Z" fill="#A086F7" stroke="#A086F7" stroke-width="0.148225"/>
<path d="M4.59206 10.2231L2.63885 7.37033L1.50017 10.1711L4.59206 10.2231Z" fill="#A086F7" stroke="#A086F7" stroke-linecap="round" stroke-linejoin="round"/>
</svg>