<svg width="24" height="24" viewBox="0 0 24 24" fill="none" xmlns="http://www.w3.org/2000/svg">
<path fill-rule="evenodd" clip-rule="evenodd" d="M12.7253 0.121535C12.9838 0.0322829 13.2752 -0.0146922 13.5338 0.00409759C14.3046 0.0651654 15.0003 0.577187 15.2635 1.36166L16.1002 3.81373L18.441 3.03396C19.4845 2.68634 20.6032 3.26413 20.951 4.30696C21.3035 5.3498 20.7536 6.46779 19.7101 6.8154L17.3411 7.59518L18.9298 12.2973L21.3834 11.4894C22.4269 11.1418 23.5456 11.6867 23.8934 12.7295C24.246 13.7723 23.696 14.9185 22.6525 15.2708L20.1989 16.107L20.9792 18.4463C21.327 19.4844 20.7536 20.6071 19.7101 20.9547C18.6666 21.3023 17.5479 20.7574 17.2001 19.7146L16.4198 17.3471L11.71 18.9348L12.5232 21.3869C12.8663 22.4297 12.3258 23.5477 11.2776 23.8953C10.2341 24.243 9.08719 23.698 8.73936 22.6552L7.90269 20.2031L5.56189 20.9782C4.5184 21.3305 3.3997 20.7527 3.04718 19.7099C2.69935 18.6671 3.24459 17.5491 4.28808 17.2015L6.65708 16.4217L5.06835 11.7195L2.61474 12.5275C1.57125 12.8751 0.452555 12.3302 0.104725 11.2874C-0.243104 10.2445 0.302142 9.09367 1.34563 8.74606L3.80394 7.90991L3.02367 5.57058C2.67114 4.52774 3.24929 3.40975 4.29278 3.06214C5.33627 2.71453 6.45497 3.25943 6.80279 4.30227L7.58306 6.66978L12.3164 5.08204L11.4797 2.62997C11.1319 1.58714 11.6771 0.469146 12.7253 0.121535ZM15.1507 13.5656L13.562 8.86349L8.85217 10.4512L10.4409 15.1534L15.1507 13.5656Z" fill="#163150"/>
</svg>
