<svg width="24" height="23" viewBox="0 0 24 23" fill="none" xmlns="http://www.w3.org/2000/svg">
<path fill-rule="evenodd" clip-rule="evenodd" d="M12.75 1.5C13.082 1.19141 13.5312 1 14 1C14.4688 1 14.8691 1.1875 15.1562 1.42188C15.3513 1.58107 15.5093 1.75648 15.6611 1.92486C15.7327 2.00438 15.803 2.08232 15.875 2.15625C16.2637 2.55469 16.6562 2.89844 17.5469 2.98438C17.7871 1.85547 18.8027 1 20 1C21.375 1 22.5 2.125 22.5 3.5C22.5 4.875 21.375 6 20 6C18.7871 6 17.7695 5.11914 17.5469 3.96875C16.3477 3.85742 15.627 3.32617 15.1562 2.84375C15.079 2.76481 15.007 2.68923 14.9394 2.61827L14.9394 2.61825L14.9394 2.61824C14.7761 2.44692 14.6385 2.30256 14.5156 2.20312C14.3418 2.0625 14.2305 2 14 2C13.7695 2 13.6113 2.05859 13.4375 2.21875C13.2637 2.37891 13.082 2.6582 12.9375 3.04688C12.6816 3.73438 12.5469 4.77344 12.5156 6.01562C14.9004 6.0957 17.0977 6.7168 18.8594 7.73438C19.3926 7.23438 20.0723 6.98438 20.75 6.98438C21.4551 6.98438 22.1621 7.25586 22.7031 7.79688C23.7871 8.88086 23.7871 10.6191 22.7031 11.7031L22.5781 11.8281C22.8438 12.5176 23 13.2441 23 14C23 16.2637 21.7168 18.293 19.7188 19.7188C17.7207 21.1445 14.9961 22 12 22C9.00391 22 6.2793 21.1445 4.28125 19.7188C2.2832 18.293 1 16.2637 1 14C1 13.2441 1.15625 12.5176 1.42188 11.8281L1.29688 11.7031C0.212891 10.6191 0.212891 8.88086 1.29688 7.79688C1.83789 7.25586 2.54492 6.98438 3.25 6.98438C3.92773 6.98438 4.60742 7.23438 5.14062 7.73438C6.91016 6.71094 9.11719 6.08984 11.5156 6.01562C11.543 4.69727 11.6777 3.57031 12 2.70312C12.1816 2.2168 12.418 1.80859 12.75 1.5ZM21.5 3.5C21.5 2.66602 20.834 2 20 2C19.166 2 18.5 2.66602 18.5 3.5C18.5 4.33398 19.166 5 20 5C20.834 5 21.5 4.33398 21.5 3.5ZM12 7C14.8047 7 17.3379 7.80664 19.1406 9.09375C20.9434 10.3809 22 12.1133 22 14C22 15.8867 20.9434 17.6191 19.1406 18.9062C17.3379 20.1934 14.8047 21 12 21C9.19531 21 6.66211 20.1934 4.85938 18.9062C3.05664 17.6191 2 15.8867 2 14C2 12.1133 3.05664 10.3809 4.85938 9.09375C6.66211 7.80664 9.19531 7 12 7ZM4.26562 8.29688C3.95703 8.07422 3.60156 7.96875 3.25 7.96875C2.80469 7.96875 2.35742 8.14258 2 8.5C1.33008 9.16992 1.29102 10.1484 1.875 10.8594C2.44336 9.88477 3.26367 9.01562 4.26562 8.29688ZM20.75 7.96875C21.1953 7.96875 21.6426 8.14258 22 8.5C22.6699 9.16992 22.709 10.1484 22.125 10.8594C21.5566 9.88477 20.7363 9.01562 19.7344 8.29688C20.043 8.07422 20.3984 7.96875 20.75 7.96875ZM6 12.5C6 11.4004 6.90039 10.5 8 10.5C9.09961 10.5 10 11.4004 10 12.5C10 13.5996 9.09961 14.5 8 14.5C6.90039 14.5 6 13.5996 6 12.5ZM16 10.5C14.9004 10.5 14 11.4004 14 12.5C14 13.5996 14.9004 14.5 16 14.5C17.0996 14.5 18 13.5996 18 12.5C18 11.4004 17.0996 10.5 16 10.5ZM9 12.5C9 11.9414 8.55859 11.5 8 11.5C7.44141 11.5 7 11.9414 7 12.5C7 13.0586 7.44141 13.5 8 13.5C8.55859 13.5 9 13.0586 9 12.5ZM16 11.5C16.5586 11.5 17 11.9414 17 12.5C17 13.0586 16.5586 13.5 16 13.5C15.4414 13.5 15 13.0586 15 12.5C15 11.9414 15.4414 11.5 16 11.5ZM16.5 16.4375C16.5254 16.4297 16.5508 16.4258 16.5781 16.4219C16.7871 16.4102 16.9805 16.5293 17.0645 16.7207C17.1484 16.9121 17.1035 17.1367 16.9531 17.2812C16.9531 17.2812 16.5684 17.8359 15.7656 18.3438C14.9629 18.8516 13.7207 19.3438 12 19.3438C10.2793 19.3438 9.03711 18.8516 8.23438 18.3438C7.43164 17.8359 7.04688 17.2812 7.04688 17.2812C6.94727 17.1465 6.92188 16.9727 6.97852 16.8164C7.03516 16.6582 7.16602 16.541 7.32813 16.5C7.5332 16.4531 7.74609 16.541 7.85938 16.7188C7.85938 16.7188 8.12109 17.082 8.78125 17.5C9.44141 17.918 10.4707 18.3438 12 18.3438C13.5293 18.3438 14.5586 17.918 15.2188 17.5C15.8789 17.082 16.1406 16.7188 16.1406 16.7188C16.209 16.5723 16.3418 16.4688 16.5 16.4375Z" fill="#163150"/>
<path d="M12.75 1.5L12.5798 1.31688V1.31688L12.75 1.5ZM15.1562 1.42188L15.3143 1.22821V1.22821L15.1562 1.42188ZM15.6611 1.92486L15.8468 1.7575V1.7575L15.6611 1.92486ZM15.875 2.15625L15.696 2.33074L15.696 2.33082L15.875 2.15625ZM17.5469 2.98438L17.5229 3.23322L17.745 3.25465L17.7914 3.03641L17.5469 2.98438ZM17.5469 3.96875L17.7923 3.92124L17.7567 3.73715L17.57 3.71982L17.5469 3.96875ZM15.1562 2.84375L15.3352 2.66916L15.335 2.66893L15.1562 2.84375ZM14.9394 2.61827L15.1204 2.44575L15.1162 2.44149L14.9394 2.61827ZM14.9394 2.61825L15.1162 2.44144L15.1123 2.43776L14.9394 2.61825ZM14.9394 2.61824L14.7582 2.79089L14.7664 2.79874L14.9394 2.61824ZM14.5156 2.20312L14.3584 2.39749V2.39749L14.5156 2.20312ZM13.4375 2.21875L13.2681 2.03489V2.03489L13.4375 2.21875ZM12.9375 3.04688L13.1718 3.13407L13.1718 3.13401L12.9375 3.04688ZM12.5156 6.01562L12.2657 6.00934L12.2595 6.25716L12.5072 6.26548L12.5156 6.01562ZM18.8594 7.73438L18.7343 7.95086L18.895 8.04367L19.0304 7.91674L18.8594 7.73438ZM22.5781 11.8281L22.4013 11.6513L22.2864 11.7663L22.3448 11.918L22.5781 11.8281ZM4.28125 19.7188L4.42647 19.5152L4.28125 19.7188ZM1.42188 11.8281L1.65516 11.918L1.71361 11.7663L1.59865 11.6513L1.42188 11.8281ZM1.29688 11.7031L1.47365 11.5263L1.29688 11.7031ZM1.29688 7.79688L1.47365 7.97365L1.29688 7.79688ZM5.14062 7.73438L4.96962 7.91674L5.10506 8.04375L5.26579 7.95079L5.14062 7.73438ZM11.5156 6.01562L11.5234 6.26551L11.7606 6.25816L11.7656 6.02081L11.5156 6.01562ZM12 2.70312L11.7658 2.61565L11.7657 2.61604L12 2.70312ZM4.26562 8.29688L4.41135 8.50001L4.69371 8.29746L4.4119 8.09414L4.26562 8.29688ZM2 8.5L1.82322 8.32322L2 8.5ZM1.875 10.8594L1.68182 11.0181L1.90992 11.2958L2.09096 10.9853L1.875 10.8594ZM22.125 10.8594L21.909 10.9853L22.0901 11.2958L22.3182 11.0181L22.125 10.8594ZM19.7344 8.29688L19.5881 8.09414L19.3063 8.29746L19.5887 8.50001L19.7344 8.29688ZM16.5781 16.4219L16.5641 16.1723L16.5534 16.1729L16.5428 16.1744L16.5781 16.4219ZM16.5 16.4375L16.5484 16.6828L16.5611 16.6803L16.5735 16.6764L16.5 16.4375ZM16.9531 17.2812L16.7799 17.101L16.7619 17.1183L16.7477 17.1388L16.9531 17.2812ZM8.23438 18.3438L8.36803 18.1325H8.36803L8.23438 18.3438ZM7.04688 17.2812L7.25239 17.1387L7.24792 17.1327L7.04688 17.2812ZM6.97852 16.8164L7.21355 16.9016L7.21388 16.9007L6.97852 16.8164ZM7.32813 16.5L7.2724 16.2562L7.2668 16.2576L7.32813 16.5ZM7.85938 16.7188L7.64856 16.8531L7.65238 16.8591L7.65653 16.8649L7.85938 16.7188ZM8.78125 17.5L8.64752 17.7112H8.64752L8.78125 17.5ZM16.1406 16.7188L16.3435 16.8649L16.3572 16.8458L16.3672 16.8245L16.1406 16.7188ZM14 0.75C13.4639 0.75 12.9549 0.968275 12.5798 1.31688L12.9202 1.68312C13.2092 1.41454 13.5986 1.25 14 1.25V0.75ZM15.3143 1.22821C14.9914 0.964594 14.5368 0.75 14 0.75V1.25C14.4007 1.25 14.7469 1.41041 14.9982 1.61554L15.3143 1.22821ZM15.8468 1.7575C15.6965 1.5907 15.5263 1.40127 15.3143 1.22821L14.9982 1.61554C15.1762 1.76086 15.3222 1.92227 15.4753 2.09222L15.8468 1.7575ZM16.054 1.98176C15.986 1.91194 15.919 1.83769 15.8468 1.7575L15.4753 2.09221C15.5464 2.17106 15.6199 2.25271 15.696 2.33074L16.054 1.98176ZM17.5709 2.73553C17.1556 2.69546 16.8695 2.59691 16.6461 2.47009C16.4201 2.34178 16.245 2.17747 16.054 1.98168L15.696 2.33082C15.8937 2.53346 16.1092 2.74025 16.3993 2.90491C16.692 3.07106 17.0476 3.18736 17.5229 3.23322L17.5709 2.73553ZM20 0.75C18.6824 0.75 17.5667 1.69031 17.3024 2.93234L17.7914 3.03641C18.0076 2.02063 18.9231 1.25 20 1.25V0.75ZM22.75 3.5C22.75 1.98693 21.5131 0.75 20 0.75V1.25C21.2369 1.25 22.25 2.26307 22.25 3.5H22.75ZM20 6.25C21.5131 6.25 22.75 5.01307 22.75 3.5H22.25C22.25 4.73693 21.2369 5.75 20 5.75V6.25ZM17.3014 4.01626C17.5462 5.28068 18.6638 6.25 20 6.25V5.75C18.9104 5.75 17.9929 4.9576 17.7923 3.92124L17.3014 4.01626ZM14.9773 3.01834C15.4779 3.5314 16.2508 4.0995 17.5238 4.21768L17.57 3.71982C16.4445 3.61534 15.776 3.12095 15.3352 2.66916L14.9773 3.01834ZM14.7584 2.79073C14.8259 2.86157 14.899 2.93829 14.9775 3.01857L15.335 2.66893C15.2591 2.59133 15.1881 2.51689 15.1204 2.4458L14.7584 2.79073ZM14.7626 2.79503L14.7626 2.79505L15.1162 2.44149L15.1161 2.44148L14.7626 2.79503ZM14.7664 2.79874L14.7664 2.79875L15.1123 2.43776L15.1123 2.43775L14.7664 2.79874ZM14.3584 2.39749C14.4659 2.48443 14.5909 2.61495 14.7584 2.79071L15.1203 2.44578C14.9613 2.27889 14.8112 2.1207 14.6729 2.00876L14.3584 2.39749ZM14 2.25C14.0909 2.25 14.1415 2.26204 14.1815 2.27902C14.2263 2.29797 14.2752 2.33019 14.3584 2.39749L14.6729 2.00876C14.5822 1.93544 14.4886 1.86609 14.3766 1.81864C14.2599 1.76921 14.1396 1.75 14 1.75V2.25ZM13.6069 2.40261C13.6767 2.33833 13.7334 2.30337 13.7873 2.28264C13.8414 2.26183 13.9064 2.25 14 2.25V1.75C13.8631 1.75 13.7338 1.76747 13.6077 1.816C13.4814 1.8646 13.3722 1.93902 13.2681 2.03489L13.6069 2.40261ZM13.1718 3.13401C13.3077 2.76854 13.4711 2.52769 13.6069 2.40261L13.2681 2.03489C13.0562 2.23012 12.8563 2.54786 12.7032 2.95974L13.1718 3.13401ZM12.7655 6.02191C12.7966 4.78677 12.9308 3.7816 13.1718 3.13407L12.7032 2.95968C12.4325 3.68715 12.2971 4.76011 12.2657 6.00934L12.7655 6.02191ZM18.9844 7.51789C17.1839 6.47788 14.9459 5.84709 12.524 5.76577L12.5072 6.26548C14.8549 6.34432 17.0114 6.95571 18.7343 7.95086L18.9844 7.51789ZM20.75 6.73438C20.0108 6.73438 19.2694 7.00719 18.6884 7.55201L19.0304 7.91674C19.5158 7.46156 20.1338 7.23438 20.75 7.23438V6.73438ZM22.8799 7.6201C22.2905 7.03074 21.5193 6.73438 20.75 6.73438V7.23438C21.3909 7.23438 22.0337 7.48098 22.5263 7.97365L22.8799 7.6201ZM22.8799 11.8799C24.0615 10.6983 24.0615 8.80171 22.8799 7.6201L22.5263 7.97365C23.5127 8.96 23.5127 10.54 22.5263 11.5263L22.8799 11.8799ZM22.7549 12.0049L22.8799 11.8799L22.5263 11.5263L22.4013 11.6513L22.7549 12.0049ZM23.25 14C23.25 13.2092 23.0864 12.4521 22.8114 11.7382L22.3448 11.918C22.6011 12.583 22.75 13.2791 22.75 14H23.25ZM19.864 19.9223C21.9095 18.4626 23.25 16.3646 23.25 14H22.75C22.75 16.1628 21.5241 18.1233 19.5735 19.5152L19.864 19.9223ZM12 22.25C15.0416 22.25 17.8185 21.3819 19.864 19.9223L19.5735 19.5152C17.6229 20.9072 14.9505 21.75 12 21.75V22.25ZM4.13603 19.9223C6.18148 21.3819 8.95836 22.25 12 22.25V21.75C9.04945 21.75 6.37712 20.9072 4.42647 19.5152L4.13603 19.9223ZM0.75 14C0.75 16.3646 2.09054 18.4626 4.13603 19.9223L4.42647 19.5152C2.47587 18.1233 1.25 16.1628 1.25 14H0.75ZM1.18859 11.7382C0.913557 12.4521 0.75 13.2092 0.75 14H1.25C1.25 13.2791 1.39894 12.583 1.65516 11.918L1.18859 11.7382ZM1.1201 11.8799L1.2451 12.0049L1.59865 11.6513L1.47365 11.5263L1.1201 11.8799ZM1.1201 7.6201C-0.0615171 8.80171 -0.0615171 10.6983 1.1201 11.8799L1.47365 11.5263C0.487298 10.54 0.487298 8.96 1.47365 7.97365L1.1201 7.6201ZM3.25 6.73438C2.48071 6.73438 1.70946 7.03074 1.1201 7.6201L1.47365 7.97365C1.96633 7.48098 2.60914 7.23438 3.25 7.23438V6.73438ZM5.31163 7.55201C4.73064 7.00719 3.98924 6.73438 3.25 6.73438V7.23438C3.86623 7.23438 4.48421 7.46156 4.96962 7.91674L5.31163 7.55201ZM11.5079 5.76574C9.07218 5.84112 6.8241 6.47191 5.01546 7.51796L5.26579 7.95079C6.99621 6.94997 9.1622 6.33857 11.5234 6.26551L11.5079 5.76574ZM11.7657 2.61604C11.4287 3.52289 11.2932 4.68336 11.2657 6.01044L11.7656 6.02081C11.7927 4.71117 11.9268 3.61773 12.2343 2.79021L11.7657 2.61604ZM12.5798 1.31688C12.21 1.66056 11.9558 2.10697 11.7658 2.61565L12.2342 2.7906C12.4075 2.32662 12.6259 1.95663 12.9202 1.68312L12.5798 1.31688ZM20 2.25C20.6959 2.25 21.25 2.80409 21.25 3.5H21.75C21.75 2.52794 20.9721 1.75 20 1.75V2.25ZM18.75 3.5C18.75 2.80409 19.3041 2.25 20 2.25V1.75C19.0279 1.75 18.25 2.52794 18.25 3.5H18.75ZM20 4.75C19.3041 4.75 18.75 4.19591 18.75 3.5H18.25C18.25 4.47206 19.0279 5.25 20 5.25V4.75ZM21.25 3.5C21.25 4.19591 20.6959 4.75 20 4.75V5.25C20.9721 5.25 21.75 4.47206 21.75 3.5H21.25ZM19.2859 8.89029C17.4356 7.56921 14.85 6.75 12 6.75V7.25C14.7593 7.25 17.2402 8.04407 18.9954 9.29721L19.2859 8.89029ZM22.25 14C22.25 12.0122 21.1358 10.2111 19.2859 8.89029L18.9954 9.29721C20.7509 10.5506 21.75 12.2144 21.75 14H22.25ZM19.2859 19.1097C21.1358 17.7889 22.25 15.9878 22.25 14H21.75C21.75 15.7856 20.7509 17.4494 18.9954 18.7028L19.2859 19.1097ZM12 21.25C14.85 21.25 17.4356 20.4308 19.2859 19.1097L18.9954 18.7028C17.2402 19.9559 14.7593 20.75 12 20.75V21.25ZM4.71411 19.1097C6.56441 20.4308 9.14997 21.25 12 21.25V20.75C9.24065 20.75 6.75981 19.9559 5.00464 18.7028L4.71411 19.1097ZM1.75 14C1.75 15.9878 2.86419 17.7889 4.71411 19.1097L5.00464 18.7028C3.24909 17.4494 2.25 15.7856 2.25 14H1.75ZM4.71411 8.89029C2.86419 10.2111 1.75 12.0122 1.75 14H2.25C2.25 12.2144 3.24909 10.5506 5.00464 9.29721L4.71411 8.89029ZM12 6.75C9.14997 6.75 6.56441 7.56921 4.71411 8.89029L5.00464 9.29721C6.75981 8.04407 9.24065 7.25 12 7.25V6.75ZM3.25 8.21875C3.55125 8.21875 3.85509 8.30895 4.11935 8.49961L4.4119 8.09414C4.05897 7.83949 3.65187 7.71875 3.25 7.71875V8.21875ZM2.17678 8.67678C2.48758 8.36598 2.87136 8.21875 3.25 8.21875V7.71875C2.73801 7.71875 2.22727 7.91918 1.82322 8.32322L2.17678 8.67678ZM2.06818 10.7007C1.56591 10.0892 1.59773 9.25583 2.17678 8.67678L1.82322 8.32322C1.06243 9.08402 1.01612 10.2076 1.68182 11.0181L2.06818 10.7007ZM4.1199 8.09374C3.09336 8.83013 2.24744 9.72446 1.65904 10.7334L2.09096 10.9853C2.63928 10.0451 3.43399 9.20112 4.41135 8.50001L4.1199 8.09374ZM22.1768 8.32322C21.7727 7.91918 21.262 7.71875 20.75 7.71875V8.21875C21.1286 8.21875 21.5124 8.36598 21.8232 8.67678L22.1768 8.32322ZM22.3182 11.0181C22.9839 10.2076 22.9376 9.08402 22.1768 8.32322L21.8232 8.67678C22.4023 9.25583 22.4341 10.0892 21.9318 10.7007L22.3182 11.0181ZM19.5887 8.50001C20.566 9.20112 21.3607 10.0451 21.909 10.9853L22.341 10.7334C21.7526 9.72446 20.9066 8.83013 19.8801 8.09374L19.5887 8.50001ZM20.75 7.71875C20.3481 7.71875 19.941 7.83949 19.5881 8.09414L19.8807 8.49961C20.1449 8.30895 20.4487 8.21875 20.75 8.21875V7.71875ZM8 10.25C6.76232 10.25 5.75 11.2623 5.75 12.5H6.25C6.25 11.5385 7.03846 10.75 8 10.75V10.25ZM10.25 12.5C10.25 11.2623 9.23768 10.25 8 10.25V10.75C8.96154 10.75 9.75 11.5385 9.75 12.5H10.25ZM8 14.75C9.23768 14.75 10.25 13.7377 10.25 12.5H9.75C9.75 13.4615 8.96154 14.25 8 14.25V14.75ZM5.75 12.5C5.75 13.7377 6.76232 14.75 8 14.75V14.25C7.03846 14.25 6.25 13.4615 6.25 12.5H5.75ZM14.25 12.5C14.25 11.5385 15.0385 10.75 16 10.75V10.25C14.7623 10.25 13.75 11.2623 13.75 12.5H14.25ZM16 14.25C15.0385 14.25 14.25 13.4615 14.25 12.5H13.75C13.75 13.7377 14.7623 14.75 16 14.75V14.25ZM17.75 12.5C17.75 13.4615 16.9615 14.25 16 14.25V14.75C17.2377 14.75 18.25 13.7377 18.25 12.5H17.75ZM16 10.75C16.9615 10.75 17.75 11.5385 17.75 12.5H18.25C18.25 11.2623 17.2377 10.25 16 10.25V10.75ZM8 11.75C8.42052 11.75 8.75 12.0795 8.75 12.5H9.25C9.25 11.8033 8.69666 11.25 8 11.25V11.75ZM7.25 12.5C7.25 12.0795 7.57948 11.75 8 11.75V11.25C7.30334 11.25 6.75 11.8033 6.75 12.5H7.25ZM8 13.25C7.57948 13.25 7.25 12.9205 7.25 12.5H6.75C6.75 13.1967 7.30334 13.75 8 13.75V13.25ZM8.75 12.5C8.75 12.9205 8.42052 13.25 8 13.25V13.75C8.69666 13.75 9.25 13.1967 9.25 12.5H8.75ZM17.25 12.5C17.25 11.8033 16.6967 11.25 16 11.25V11.75C16.4205 11.75 16.75 12.0795 16.75 12.5H17.25ZM16 13.75C16.6967 13.75 17.25 13.1967 17.25 12.5H16.75C16.75 12.9205 16.4205 13.25 16 13.25V13.75ZM14.75 12.5C14.75 13.1967 15.3033 13.75 16 13.75V13.25C15.5795 13.25 15.25 12.9205 15.25 12.5H14.75ZM16 11.25C15.3033 11.25 14.75 11.8033 14.75 12.5H15.25C15.25 12.0795 15.5795 11.75 16 11.75V11.25ZM16.5428 16.1744C16.5161 16.1782 16.4728 16.1843 16.4265 16.1986L16.5735 16.6764C16.578 16.6751 16.5855 16.6734 16.6135 16.6694L16.5428 16.1744ZM17.2934 16.6203C17.1676 16.3336 16.8776 16.1547 16.5641 16.1723L16.5921 16.6715C16.6967 16.6656 16.7933 16.725 16.8355 16.8212L17.2934 16.6203ZM17.1264 17.4615C17.3522 17.2445 17.4196 16.9079 17.2934 16.6203L16.8355 16.8212C16.8773 16.9164 16.8549 17.0289 16.7799 17.101L17.1264 17.4615ZM15.8993 18.555C16.32 18.2889 16.6319 18.01 16.8396 17.7963C16.9436 17.6894 17.0217 17.5986 17.0746 17.5333C17.1011 17.5007 17.1213 17.4745 17.1352 17.4558C17.1422 17.4465 17.1476 17.4391 17.1515 17.4337C17.1534 17.431 17.155 17.4288 17.1562 17.4271C17.1568 17.4263 17.1572 17.4256 17.1576 17.425C17.1578 17.4247 17.158 17.4245 17.1582 17.4243C17.1582 17.4242 17.1583 17.4241 17.1584 17.424C17.1584 17.4239 17.1584 17.4239 17.1585 17.4239C17.1585 17.4238 17.1585 17.4237 16.9531 17.2812C16.7477 17.1388 16.7477 17.1387 16.7478 17.1387C16.7478 17.1386 16.7478 17.1386 16.7478 17.1386C16.7479 17.1385 16.7479 17.1385 16.7479 17.1384C16.748 17.1383 16.748 17.1383 16.748 17.1383C16.7481 17.1383 16.748 17.1384 16.7478 17.1386C16.7475 17.1391 16.7468 17.14 16.7457 17.1415C16.7436 17.1445 16.74 17.1495 16.7348 17.1563C16.7246 17.17 16.7085 17.1911 16.6863 17.2184C16.642 17.273 16.5737 17.3526 16.4812 17.4478C16.2958 17.6384 16.014 17.8908 15.632 18.1325L15.8993 18.555ZM12 19.5938C13.7706 19.5938 15.0588 19.0867 15.8993 18.555L15.632 18.1325C14.867 18.6164 13.6708 19.0938 12 19.0938V19.5938ZM8.10072 18.555C8.9412 19.0867 10.2294 19.5938 12 19.5938V19.0938C10.3292 19.0938 9.13302 18.6164 8.36803 18.1325L8.10072 18.555ZM7.04688 17.2812C6.84146 17.4237 6.8415 17.4238 6.84154 17.4239C6.84155 17.4239 6.8416 17.4239 6.84163 17.424C6.84169 17.4241 6.84176 17.4242 6.84183 17.4243C6.84198 17.4245 6.84216 17.4247 6.84236 17.425C6.84275 17.4256 6.84324 17.4263 6.84383 17.4271C6.845 17.4288 6.84656 17.431 6.8485 17.4337C6.85239 17.4391 6.85782 17.4465 6.86479 17.4558C6.87875 17.4745 6.89892 17.5007 6.92538 17.5333C6.97827 17.5986 7.0564 17.6894 7.16035 17.7963C7.36811 18.01 7.68001 18.2889 8.10072 18.555L8.36803 18.1325C7.98601 17.8908 7.70416 17.6384 7.51885 17.4478C7.42626 17.3526 7.35803 17.273 7.3137 17.2184C7.29154 17.1911 7.27538 17.17 7.26516 17.1563C7.26005 17.1495 7.25643 17.1445 7.25428 17.1415C7.25321 17.14 7.25251 17.1391 7.25218 17.1386C7.25201 17.1384 7.25194 17.1383 7.25196 17.1383C7.25197 17.1383 7.252 17.1383 7.25206 17.1384C7.25209 17.1385 7.25212 17.1385 7.25216 17.1386C7.25218 17.1386 7.25221 17.1386 7.25222 17.1387C7.25226 17.1387 7.25229 17.1388 7.04688 17.2812ZM6.74348 16.7312C6.65813 16.9667 6.69677 17.2282 6.84583 17.4298L7.24792 17.1327C7.19776 17.0648 7.18562 16.9787 7.21355 16.9016L6.74348 16.7312ZM7.2668 16.2576C7.02516 16.3188 6.82827 16.4944 6.74315 16.7321L7.21388 16.9007C7.24205 16.822 7.30687 16.7633 7.38945 16.7424L7.2668 16.2576ZM8.0702 16.5844C7.90045 16.3181 7.58114 16.1857 7.27242 16.2563L7.38383 16.7437C7.48527 16.7205 7.59174 16.764 7.64856 16.8531L8.0702 16.5844ZM8.91498 17.2888C8.60004 17.0894 8.3829 16.9048 8.24654 16.7729C8.17833 16.707 8.13027 16.6541 8.10026 16.6192C8.08525 16.6017 8.07475 16.5887 8.06849 16.5807C8.06537 16.5767 8.0633 16.574 8.06227 16.5727C8.06175 16.572 8.06149 16.5716 8.06148 16.5716C8.06148 16.5716 8.06154 16.5717 8.06166 16.5718C8.06172 16.5719 8.0618 16.572 8.06189 16.5722C8.06194 16.5722 8.06199 16.5723 8.06204 16.5724C8.06207 16.5724 8.06211 16.5725 8.06213 16.5725C8.06217 16.5726 8.06222 16.5726 7.85938 16.7188C7.65653 16.8649 7.65658 16.8649 7.65663 16.865C7.65665 16.865 7.6567 16.8651 7.65673 16.8652C7.6568 16.8653 7.65688 16.8654 7.65695 16.8655C7.65711 16.8657 7.65728 16.8659 7.65747 16.8662C7.65785 16.8667 7.6583 16.8673 7.65881 16.868C7.65983 16.8694 7.66112 16.8711 7.66268 16.8732C7.6658 16.8774 7.67001 16.8829 7.67533 16.8896C7.68597 16.9032 7.70107 16.9218 7.72091 16.9449C7.7606 16.9911 7.81923 17.0552 7.89897 17.1324C8.05851 17.2866 8.3023 17.4927 8.64752 17.7112L8.91498 17.2888ZM12 18.0938C10.5209 18.0938 9.53757 17.683 8.91498 17.2888L8.64752 17.7112C9.34525 18.153 10.4206 18.5938 12 18.5938V18.0938ZM15.085 17.2888C14.4624 17.683 13.4791 18.0938 12 18.0938V18.5938C13.5794 18.5938 14.6548 18.153 15.3525 17.7112L15.085 17.2888ZM16.1406 16.7188C15.9378 16.5726 15.9378 16.5726 15.9379 16.5725C15.9379 16.5725 15.9379 16.5724 15.938 16.5724C15.938 16.5723 15.9381 16.5722 15.9381 16.5722C15.9382 16.572 15.9383 16.5719 15.9383 16.5718C15.9385 16.5717 15.9385 16.5716 15.9385 16.5716C15.9385 16.5716 15.9382 16.572 15.9377 16.5727C15.9367 16.574 15.9346 16.5767 15.9315 16.5807C15.9253 16.5887 15.9148 16.6017 15.8997 16.6192C15.8697 16.6541 15.8217 16.707 15.7535 16.7729C15.6171 16.9048 15.4 17.0894 15.085 17.2888L15.3525 17.7112C15.6977 17.4927 15.9415 17.2866 16.101 17.1324C16.1808 17.0552 16.2394 16.9911 16.2791 16.9449C16.2989 16.9218 16.314 16.9032 16.3247 16.8896C16.33 16.8829 16.3342 16.8774 16.3373 16.8732C16.3389 16.8711 16.3402 16.8694 16.3412 16.868C16.3417 16.8673 16.3421 16.8667 16.3425 16.8662C16.3427 16.8659 16.3429 16.8657 16.343 16.8655C16.3431 16.8654 16.3432 16.8653 16.3433 16.8652C16.3433 16.8651 16.3434 16.865 16.3434 16.865C16.3434 16.8649 16.3435 16.8649 16.1406 16.7188ZM16.4516 16.1922C16.2155 16.2389 16.0163 16.3939 15.9141 16.613L16.3672 16.8245C16.4016 16.7506 16.4681 16.6986 16.5484 16.6828L16.4516 16.1922Z" fill="#163150"/>
</svg>
