<svg width="27" height="21" viewBox="0 0 27 21" fill="none" xmlns="http://www.w3.org/2000/svg">
<path d="M21.2105 2.51404L20.8504 2.86088L21.0383 3.05597L21.3043 3.00517L21.2105 2.51404ZM24.3363 1.35087L24.8114 1.50681L25.2192 0.264316L24.0865 0.917771L24.3363 1.35087ZM22.227 3.98002L21.9753 3.54798L21.542 3.80042L21.7957 4.23298L22.227 3.98002ZM22.2368 3.99684L21.8056 4.2498L21.9711 4.53209L22.2961 4.49332L22.2368 3.99684ZM25 3.24943L25.412 3.53278L26.3945 2.10424L24.8022 2.79023L25 3.24943ZM22.5428 5.73198L22.2555 5.32272L22.0302 5.48086L22.0433 5.75582L22.5428 5.73198ZM1 17.8443L1.05891 17.3478L0.734846 18.2682L1 17.8443ZM8.2903 15.8592L8.5936 16.2567L9.73614 15.3849L8.29921 15.3593L8.2903 15.8592ZM3.68915 12.5283L3.77946 12.0366L2.94963 11.8842L3.21441 12.6852L3.68915 12.5283ZM5.91447 12.4442L6.04333 12.9273L6.01029 11.9535L5.91447 12.4442ZM1.96464 7.681L2.2033 7.24164L1.46464 6.84041V7.681H1.96464ZM4.1949 8.28181L4.17858 8.78154L5.96977 8.84006L4.46758 7.86271L4.1949 8.28181ZM2.67023 1.87718L3.0538 1.55644L2.60251 1.01676L2.24121 1.62039L2.67023 1.87718ZM12.8199 6.88793L12.7956 7.38734L13.4611 7.41978L13.3062 6.77168L12.8199 6.88793ZM20.7492 2.93461L21.1103 2.58881L21.109 2.58744L20.7492 2.93461ZM13.4342 6.75095L12.947 6.86338L12.9476 6.86599L13.4342 6.75095ZM13.6217 7.54402L13.5972 8.04342L14.2613 8.07595L14.1083 7.42898L13.6217 7.54402ZM12.7878 7.50316L12.8123 7.00376L12.8119 7.00374L12.7878 7.50316ZM2.84293 3.0043L3.20336 2.65776L2.62717 2.05846L2.36787 2.84835L2.84293 3.0043ZM4.54523 7.76992L4.27252 8.189L4.27252 8.18901L4.54523 7.76992ZM6.38076 8.96433L6.36498 9.46408L8.15219 9.52049L6.65346 8.54525L6.38076 8.96433ZM4.1727 8.89464L4.18847 8.39488L4.18709 8.39484L4.1727 8.89464ZM2.69737 8.65191L2.8416 8.17316L2.01657 7.92461L2.21015 8.76424L2.69737 8.65191ZM6.03783 11.841L6.13388 11.3503L6.13385 11.3503L6.03783 11.841ZM8.65296 12.3529L8.78157 12.8361L8.74901 11.8622L8.65296 12.3529ZM6.07977 13.0378L6.20793 13.5211L6.20838 13.521L6.07977 13.0378ZM4.70559 13.2277L4.69786 12.7277L3.81546 12.7414L4.28072 13.4913L4.70559 13.2277ZM8.30016 15.244L8.29054 15.7439L8.29137 15.7439L8.30016 15.244ZM10.0765 15.2752L10.3797 15.6728L11.5231 14.8006L10.0853 14.7753L10.0765 15.2752ZM8.67763 16.3423L8.37439 15.9447L8.37385 15.9451L8.67763 16.3423ZM3.55345 18.4403L3.49161 17.9441L3.37008 18.9055L3.55345 18.4403ZM21.9112 5.75841L22.4108 5.73964L22.4107 5.73612L21.9112 5.75841ZM21.8964 5.42676L21.6084 5.01801L21.3847 5.17564L21.3969 5.44906L21.8964 5.42676ZM22.1727 5.2321L21.8851 4.82309L21.8847 4.82335L22.1727 5.2321ZM23.1053 4.48229L23.4432 4.85084L24.773 3.6316L23.0053 3.99239L23.1053 4.48229ZM22.3133 4.60726L22.2556 4.1106L22.2536 4.11085L22.3133 4.60726ZM21.8742 4.66013L21.4311 4.89184L21.5911 5.19782L21.9339 5.15655L21.8742 4.66013ZM21.6743 4.27802L21.2313 4.5097L21.2313 4.50973L21.6743 4.27802ZM21.4054 3.76372L21.1398 3.34009L20.7481 3.58567L20.9623 3.9954L21.4054 3.76372ZM21.9038 3.4513L21.6515 3.01963L21.6448 3.02354L21.6382 3.02767L21.9038 3.4513ZM22.824 2.71831L23.1898 3.05915L22.6605 2.24582L22.824 2.71831ZM21.3314 3.11725L21.2385 2.62595L21.2351 2.62661L21.3314 3.11725ZM20.9885 3.18454L20.6273 3.53034L20.8164 3.72784L21.0848 3.67519L20.9885 3.18454ZM17.616 0.5C14.6335 0.5 12.1916 2.86007 12.1916 5.79686H13.1916C13.1916 3.43692 15.1609 1.5 17.616 1.5V0.5ZM21.5707 2.1672C20.5804 1.13891 19.1707 0.5 17.616 0.5V1.5C18.8934 1.5 20.0446 2.02425 20.8504 2.86088L21.5707 2.1672ZM24.0865 0.917771C23.1839 1.43847 22.1806 1.81977 21.1167 2.02291L21.3043 3.00517C22.4806 2.78054 23.5892 2.35915 24.5862 1.78397L24.0865 0.917771ZM22.4787 4.41205C23.607 3.75468 24.407 2.73882 24.8114 1.50681L23.8613 1.19494C23.5305 2.20275 22.8847 3.01815 21.9753 3.54798L22.4787 4.41205ZM22.6681 3.74387L22.6583 3.72705L21.7957 4.23298L21.8056 4.2498L22.6681 3.74387ZM24.8022 2.79023C23.9682 3.14949 23.1143 3.38858 22.1776 3.50036L22.2961 4.49332C23.3331 4.36957 24.2801 4.10399 25.1978 3.70863L24.8022 2.79023ZM22.83 6.14123C23.8414 5.43136 24.7174 4.54263 25.412 3.53278L24.588 2.96608C23.9602 3.87882 23.1685 4.68197 22.2555 5.32272L22.83 6.14123ZM23.0576 6.35201C23.0576 6.13737 23.0524 5.92274 23.0422 5.70813L22.0433 5.75582C22.0528 5.95457 22.0576 6.15329 22.0576 6.35201H23.0576ZM8.54688 20.5C17.9256 20.5 23.0576 12.9197 23.0576 6.35201H22.0576C22.0576 12.4638 17.2817 19.5 8.54688 19.5V20.5ZM0.734846 18.2682C2.99064 19.6792 5.67016 20.5 8.54688 20.5V19.5C5.86274 19.5 3.36627 18.7347 1.26515 17.4204L0.734846 18.2682ZM2.17434 17.4116C1.79523 17.4116 1.4227 17.3909 1.05891 17.3478L0.941092 18.3408C1.34704 18.389 1.75905 18.4116 2.17434 18.4116V17.4116ZM7.98699 15.4617C6.38699 16.6826 4.36887 17.4116 2.17434 17.4116V18.4116C4.5933 18.4116 6.82353 17.6073 8.5936 16.2567L7.98699 15.4617ZM3.21441 12.6852C3.91031 14.7907 5.91318 16.3169 8.28138 16.3591L8.29921 15.3593C6.35491 15.3246 4.72621 14.0727 4.16389 12.3714L3.21441 12.6852ZM4.61678 12.1124C4.32902 12.1124 4.05086 12.0864 3.77946 12.0366L3.59883 13.0201C3.9294 13.0808 4.26801 13.1124 4.61678 13.1124V12.1124ZM5.78562 11.9611C5.41358 12.0603 5.0227 12.1124 4.61678 12.1124V13.1124C5.10887 13.1124 5.58642 13.0492 6.04333 12.9273L5.78562 11.9611ZM1.46464 7.74108C1.46464 10.3176 3.34477 12.4519 5.81866 12.935L6.01029 11.9535C3.97924 11.5569 2.46464 9.81247 2.46464 7.74108H1.46464ZM1.46464 7.681V7.74108H2.46464V7.681H1.46464ZM4.21123 7.78208C3.48056 7.75821 2.7992 7.56532 2.2033 7.24164L1.72598 8.12037C2.45738 8.51765 3.29082 8.75254 4.17858 8.78154L4.21123 7.78208ZM1.50411 4.29003C1.50411 6.1325 2.46689 7.75404 3.92222 8.70091L4.46758 7.86271C3.27818 7.08886 2.50411 5.77365 2.50411 4.29003H1.50411ZM2.24121 1.62039C1.77176 2.4047 1.50411 3.31742 1.50411 4.29003H2.50411C2.50411 3.50347 2.72001 2.76757 3.09925 2.13397L2.24121 1.62039ZM12.8442 6.38853C8.89352 6.19599 5.39367 4.35461 3.0538 1.55644L2.28666 2.19793C4.80205 5.20598 8.56043 7.18094 12.7956 7.38734L12.8442 6.38853ZM12.1916 5.79686C12.1916 6.21139 12.2407 6.61569 12.3336 7.00419L13.3062 6.77168C13.2313 6.45843 13.1916 6.13215 13.1916 5.79686H12.1916ZM17.616 2.11523C18.6666 2.11523 19.6759 2.54225 20.3893 3.28177L21.109 2.58744C20.2041 1.64951 18.9337 1.11523 17.616 1.11523V2.11523ZM13.8232 5.79686C13.8232 3.77836 15.5135 2.11523 17.616 2.11523V1.11523C14.9865 1.11523 12.8232 3.20115 12.8232 5.79686H13.8232ZM13.9214 6.63851C13.8578 6.36272 13.8232 6.07843 13.8232 5.79686H12.8232C12.8232 6.15937 12.8676 6.51914 12.947 6.86338L13.9214 6.63851ZM14.1083 7.42898L13.9208 6.63591L12.9476 6.86599L13.1351 7.65906L14.1083 7.42898ZM12.7634 8.00256L13.5972 8.04342L13.6462 7.04462L12.8123 7.00376L12.7634 8.00256ZM2.48249 3.35084C5.15702 6.13263 8.8475 7.81383 12.7638 8.00258L12.8119 7.00374C9.14921 6.82721 5.69988 5.25441 3.20336 2.65776L2.48249 3.35084ZM3.13569 4.29003C3.13569 3.90472 3.19834 3.52472 3.31799 3.16025L2.36787 2.84835C2.21613 3.31059 2.13569 3.79576 2.13569 4.29003H3.13569ZM4.81794 7.35084C3.76007 6.66243 3.13569 5.51831 3.13569 4.29003H2.13569C2.13569 5.86393 2.9373 7.32011 4.27252 8.189L4.81794 7.35084ZM6.65346 8.54525L4.81794 7.35084L4.27252 8.18901L6.10805 9.38342L6.65346 8.54525ZM4.15692 9.39439L6.36498 9.46408L6.39653 8.46458L4.18847 8.39489L4.15692 9.39439ZM2.55314 9.13066C3.07157 9.28684 3.61107 9.37867 4.15831 9.39443L4.18709 8.39484C3.73268 8.38176 3.28041 8.30537 2.8416 8.17316L2.55314 9.13066ZM6.13385 11.3503C4.64352 11.0587 3.50507 9.92967 3.18459 8.53958L2.21015 8.76424C2.61993 10.5416 4.06701 11.9648 5.94181 12.3317L6.13385 11.3503ZM8.74901 11.8622L6.13388 11.3503L5.94178 12.3317L8.55691 12.8436L8.74901 11.8622ZM6.20838 13.521L8.78157 12.8361L8.52435 11.8697L5.95116 12.5546L6.20838 13.521ZM4.71332 13.7276C5.22053 13.7198 5.72478 13.6492 6.20793 13.5211L5.95161 12.5545C5.5466 12.6619 5.12322 12.7212 4.69786 12.7277L4.71332 13.7276ZM8.30979 14.7441C6.97978 14.7185 5.79002 14.0271 5.13046 12.9641L4.28072 13.4913C5.12117 14.8459 6.62548 15.7118 8.29054 15.7439L8.30979 14.7441ZM10.0853 14.7753L8.30896 14.7441L8.29137 15.7439L10.0677 15.7752L10.0853 14.7753ZM8.98088 16.7398L10.3797 15.6728L9.77324 14.8777L8.37439 15.9447L8.98088 16.7398ZM3.6153 18.9365C5.57324 18.6924 7.40594 17.9445 8.98141 16.7394L8.37385 15.9451C6.93946 17.0423 5.2738 17.722 3.49161 17.9441L3.6153 18.9365ZM8.54688 18.8848C6.88724 18.8848 5.25704 18.5744 3.73683 17.9751L3.37008 18.9055C5.00777 19.5511 6.76243 19.8848 8.54688 19.8848V18.8848ZM21.4235 6.35201C21.4235 12.5151 16.6129 18.8848 8.54688 18.8848V19.8848C17.2275 19.8848 22.4235 13.003 22.4235 6.35201H21.4235ZM21.4115 5.77718C21.4188 5.9702 21.4235 6.16068 21.4235 6.35201H22.4235C22.4235 6.14441 22.4184 5.94075 22.4108 5.73964L21.4115 5.77718ZM21.3969 5.44906L21.4117 5.78071L22.4107 5.73612L22.3959 5.40447L21.3969 5.44906ZM21.8847 4.82335L21.6084 5.01801L22.1843 5.83552L22.4607 5.64085L21.8847 4.82335ZM22.7674 4.11374C22.4898 4.36824 22.1957 4.60468 21.8851 4.82309L22.4603 5.64112C22.8059 5.3981 23.1336 5.13467 23.4432 4.85084L22.7674 4.11374ZM22.371 5.10392C22.6523 5.07125 22.9305 5.02827 23.2052 4.97219L23.0053 3.99239C22.7619 4.04205 22.5122 4.08079 22.2556 4.1106L22.371 5.10392ZM21.9339 5.15655L22.3731 5.10368L22.2536 4.11085L21.8144 4.16372L21.9339 5.15655ZM21.2313 4.50973L21.4311 4.89184L22.3172 4.42842L22.1174 4.0463L21.2313 4.50973ZM20.9623 3.9954L21.2313 4.5097L22.1174 4.04634L21.8485 3.53204L20.9623 3.9954ZM21.6382 3.02767L21.1398 3.34009L21.671 4.18736L22.1694 3.87494L21.6382 3.02767ZM22.4582 2.37748C22.2261 2.62661 21.9563 2.84149 21.6515 3.01963L22.1561 3.88298C22.5421 3.65737 22.8891 3.38199 23.1898 3.05915L22.4582 2.37748ZM21.4243 3.60854C21.9577 3.50767 22.4796 3.36663 22.9876 3.19081L22.6605 2.24582C22.1964 2.40645 21.7216 2.53458 21.2385 2.62596L21.4243 3.60854ZM21.0848 3.67519L21.4277 3.6079L21.2351 2.62661L20.8922 2.6939L21.0848 3.67519ZM20.388 3.2804L20.6273 3.53034L21.3496 2.83875L21.1103 2.58881L20.388 3.2804Z" fill="#163150"/>
</svg>
