<svg width="25" height="25" viewBox="0 0 25 25" fill="none" xmlns="http://www.w3.org/2000/svg">
<path fill-rule="evenodd" clip-rule="evenodd" d="M3.7381 1C2.23241 1 1 2.25608 1 3.7907V21.6512C1 23.1858 2.23241 24.4419 3.7381 24.4419H12.9556C13.0148 24.4518 13.0751 24.4518 13.1343 24.4419H16.2414C16.3005 24.4518 16.3608 24.4518 16.42 24.4419H21.2619C22.7676 24.4419 24 23.1858 24 21.6512V3.7907C24 2.25608 22.7676 1 21.2619 1H3.7381ZM3.7381 2.11628H21.2619C22.1756 2.11628 22.9048 2.85945 22.9048 3.7907V21.6512C22.9048 22.5824 22.1756 23.3256 21.2619 23.3256H16.881V15.5116H18.973L19.7399 11.6047H16.881V10.4884C16.881 10.1772 16.91 10.1529 17.0125 10.085C17.115 10.0172 17.4318 9.93023 17.9762 9.93023H19.619V6.78743L19.3067 6.6359C19.3067 6.6359 18.0488 6.02326 16.3333 6.02326C15.1012 6.02326 14.089 6.5236 13.4412 7.34884C12.7935 8.17407 12.5 9.27907 12.5 10.4884V11.6047H10.8571V15.5116H12.5V23.3256H3.7381C2.8244 23.3256 2.09524 22.5824 2.09524 21.6512V3.7907C2.09524 2.85945 2.8244 2.11628 3.7381 2.11628ZM18.5238 7.53089C18.1883 7.39542 17.4719 7.13953 16.3333 7.13953C15.375 7.13953 14.7444 7.4764 14.2969 8.04651C13.8494 8.61662 13.5952 9.46512 13.5952 10.4884V12.7209H11.9524V14.3953H13.5952V23.3256H15.7857V14.3953H18.0746L18.4029 12.7209H15.7857V10.4884C15.7857 9.96455 15.9904 9.43015 16.4157 9.14862C16.841 8.86709 17.346 8.81395 17.9762 8.81395H18.5238V7.53089Z" fill="#163150"/>
<path d="M12.9556 24.4419L12.9889 24.2446L12.9724 24.2419H12.9556V24.4419ZM13.1343 24.4419V24.2419H13.1175L13.101 24.2446L13.1343 24.4419ZM16.2414 24.4419L16.2746 24.2446L16.2581 24.2419H16.2414V24.4419ZM16.42 24.4419V24.2419H16.4032L16.3867 24.2446L16.42 24.4419ZM16.881 23.3256H16.681V23.5256H16.881V23.3256ZM16.881 15.5116V15.3116H16.681V15.5116H16.881ZM18.973 15.5116V15.7116H19.1376L19.1693 15.5501L18.973 15.5116ZM19.7399 11.6047L19.9362 11.6432L19.983 11.4047H19.7399V11.6047ZM16.881 11.6047H16.681V11.8047H16.881V11.6047ZM17.0125 10.085L17.1229 10.2518H17.1229L17.0125 10.085ZM19.619 9.93023V10.1302H19.819V9.93023H19.619ZM19.619 6.78743H19.819V6.66217L19.7064 6.60749L19.619 6.78743ZM19.3067 6.6359L19.2192 6.81571L19.2194 6.81584L19.3067 6.6359ZM13.4412 7.34884L13.2839 7.22535H13.2839L13.4412 7.34884ZM12.5 11.6047V11.8047H12.7V11.6047H12.5ZM10.8571 11.6047V11.4047H10.6571V11.6047H10.8571ZM10.8571 15.5116H10.6571V15.7116H10.8571V15.5116ZM12.5 15.5116H12.7V15.3116H12.5V15.5116ZM12.5 23.3256V23.5256H12.7V23.3256H12.5ZM18.5238 7.53089H18.7238V7.39596L18.5987 7.34543L18.5238 7.53089ZM13.5952 12.7209V12.9209H13.7952V12.7209H13.5952ZM11.9524 12.7209V12.5209H11.7524V12.7209H11.9524ZM11.9524 14.3953H11.7524V14.5953H11.9524V14.3953ZM13.5952 14.3953H13.7952V14.1953H13.5952V14.3953ZM13.5952 23.3256H13.3952V23.5256H13.5952V23.3256ZM15.7857 23.3256V23.5256H15.9857V23.3256H15.7857ZM15.7857 14.3953V14.1953H15.5857V14.3953H15.7857ZM18.0746 14.3953V14.5953H18.2392L18.2709 14.4338L18.0746 14.3953ZM18.4029 12.7209L18.5992 12.7594L18.646 12.5209H18.4029V12.7209ZM15.7857 12.7209H15.5857V12.9209H15.7857V12.7209ZM16.4157 9.14862L16.3053 8.98185L16.3053 8.98185L16.4157 9.14862ZM18.5238 8.81395V9.01395H18.7238V8.81395H18.5238ZM1.2 3.7907C1.2 2.36294 2.34644 1.2 3.7381 1.2V0.8C2.11838 0.8 0.8 2.14923 0.8 3.7907H1.2ZM1.2 21.6512V3.7907H0.8V21.6512H1.2ZM3.7381 24.2419C2.34644 24.2419 1.2 23.0789 1.2 21.6512H0.8C0.8 23.2926 2.11838 24.6419 3.7381 24.6419V24.2419ZM12.9556 24.2419H3.7381V24.6419H12.9556V24.2419ZM13.101 24.2446C13.0639 24.2509 13.026 24.2509 12.9889 24.2446L12.9224 24.6391C13.0035 24.6527 13.0863 24.6527 13.1675 24.6391L13.101 24.2446ZM16.2414 24.2419H13.1343V24.6419H16.2414V24.2419ZM16.3867 24.2446C16.3496 24.2509 16.3117 24.2509 16.2746 24.2446L16.2081 24.6391C16.2893 24.6527 16.3721 24.6527 16.4532 24.6391L16.3867 24.2446ZM21.2619 24.2419H16.42V24.6419H21.2619V24.2419ZM23.8 21.6512C23.8 23.0789 22.6536 24.2419 21.2619 24.2419V24.6419C22.8816 24.6419 24.2 23.2926 24.2 21.6512H23.8ZM23.8 3.7907V21.6512H24.2V3.7907H23.8ZM21.2619 1.2C22.6536 1.2 23.8 2.36294 23.8 3.7907H24.2C24.2 2.14923 22.8816 0.8 21.2619 0.8V1.2ZM3.7381 1.2H21.2619V0.8H3.7381V1.2ZM21.2619 1.91628H3.7381V2.31628H21.2619V1.91628ZM23.1048 3.7907C23.1048 2.7526 22.2896 1.91628 21.2619 1.91628V2.31628C22.0616 2.31628 22.7048 2.9663 22.7048 3.7907H23.1048ZM23.1048 21.6512V3.7907H22.7048V21.6512H23.1048ZM21.2619 23.5256C22.2896 23.5256 23.1048 22.6893 23.1048 21.6512H22.7048C22.7048 22.4756 22.0616 23.1256 21.2619 23.1256V23.5256ZM16.881 23.5256H21.2619V23.1256H16.881V23.5256ZM16.681 15.5116V23.3256H17.081V15.5116H16.681ZM18.973 15.3116H16.881V15.7116H18.973V15.3116ZM19.5437 11.5661L18.7768 15.4731L19.1693 15.5501L19.9362 11.6432L19.5437 11.5661ZM16.881 11.8047H19.7399V11.4047H16.881V11.8047ZM16.681 10.4884V11.6047H17.081V10.4884H16.681ZM16.9021 9.91826C16.8509 9.95218 16.7659 10.0057 16.7211 10.1251C16.6862 10.218 16.681 10.3384 16.681 10.4884H17.081C17.081 10.4126 17.0828 10.3599 17.0863 10.3219C17.0898 10.2833 17.0944 10.2688 17.0955 10.2658C17.0958 10.2651 17.0951 10.2671 17.093 10.2703C17.0909 10.2735 17.0889 10.2756 17.0882 10.2762C17.088 10.2765 17.0897 10.2748 17.0956 10.2704C17.1019 10.2658 17.1099 10.2604 17.1229 10.2518L16.9021 9.91826ZM17.9762 9.73023C17.6938 9.73023 17.4659 9.75274 17.2915 9.78565C17.1242 9.81725 16.9874 9.86183 16.9021 9.91826L17.1229 10.2518C17.1402 10.2404 17.213 10.2075 17.3657 10.1787C17.5115 10.1512 17.7142 10.1302 17.9762 10.1302V9.73023ZM19.619 9.73023H17.9762V10.1302H19.619V9.73023ZM19.419 6.78743V9.93023H19.819V6.78743H19.419ZM19.2194 6.81584L19.5317 6.96737L19.7064 6.60749L19.394 6.45596L19.2194 6.81584ZM16.3333 6.22326C17.1678 6.22326 17.892 6.37236 18.4077 6.52169C18.6653 6.59628 18.8701 6.6707 19.0096 6.72607C19.0794 6.75375 19.1327 6.77664 19.1682 6.79238C19.1859 6.80025 19.1992 6.80633 19.2077 6.81031C19.212 6.81231 19.2151 6.81378 19.217 6.81469C19.218 6.81515 19.2186 6.81546 19.219 6.81563C19.2192 6.81572 19.2193 6.81577 19.2193 6.81578C19.2193 6.81579 19.2193 6.81578 19.2193 6.81577C19.2193 6.81577 19.2192 6.81575 19.2192 6.81575C19.2192 6.81573 19.2192 6.81571 19.3067 6.6359C19.3943 6.45609 19.3943 6.45607 19.3942 6.45604C19.3942 6.45603 19.3941 6.456 19.3941 6.45597C19.394 6.45592 19.3938 6.45587 19.3937 6.4558C19.3934 6.45566 19.3931 6.45549 19.3926 6.45528C19.3918 6.45486 19.3906 6.4543 19.3891 6.4536C19.3862 6.45219 19.382 6.45022 19.3766 6.44773C19.3659 6.44274 19.3505 6.43566 19.3305 6.42677C19.2904 6.409 19.2321 6.38403 19.1572 6.35428C19.0072 6.29478 18.7903 6.21604 18.519 6.13747C17.9768 5.98048 17.2144 5.82326 16.3333 5.82326V6.22326ZM13.5985 7.47232C14.2056 6.69889 15.158 6.22326 16.3333 6.22326V5.82326C15.0444 5.82326 13.9723 6.34832 13.2839 7.22535L13.5985 7.47232ZM12.7 10.4884C12.7 9.30884 12.9865 8.25211 13.5985 7.47232L13.2839 7.22535C12.6005 8.09604 12.3 9.2493 12.3 10.4884H12.7ZM12.7 11.6047V10.4884H12.3V11.6047H12.7ZM10.8571 11.8047H12.5V11.4047H10.8571V11.8047ZM11.0571 15.5116V11.6047H10.6571V15.5116H11.0571ZM12.5 15.3116H10.8571V15.7116H12.5V15.3116ZM12.7 23.3256V15.5116H12.3V23.3256H12.7ZM3.7381 23.5256H12.5V23.1256H3.7381V23.5256ZM1.89524 21.6512C1.89524 22.6893 2.71037 23.5256 3.7381 23.5256V23.1256C2.93843 23.1256 2.29524 22.4756 2.29524 21.6512H1.89524ZM1.89524 3.7907V21.6512H2.29524V3.7907H1.89524ZM3.7381 1.91628C2.71037 1.91628 1.89524 2.7526 1.89524 3.7907H2.29524C2.29524 2.9663 2.93843 2.31628 3.7381 2.31628V1.91628ZM16.3333 7.33953C17.4393 7.33953 18.1299 7.58752 18.4489 7.71634L18.5987 7.34543C18.2467 7.20331 17.5044 6.93954 16.3333 6.93954V7.33953ZM14.4542 8.17C14.8608 7.65192 15.4315 7.33953 16.3333 7.33953V6.93954C15.3185 6.93954 14.6279 7.30087 14.1396 7.92302L14.4542 8.17ZM13.7952 10.4884C13.7952 9.49476 14.0424 8.69459 14.4542 8.17L14.1396 7.92302C13.6563 8.53866 13.3952 9.43547 13.3952 10.4884H13.7952ZM13.7952 12.7209V10.4884H13.3952V12.7209H13.7952ZM11.9524 12.9209H13.5952V12.5209H11.9524V12.9209ZM12.1524 14.3953V12.7209H11.7524V14.3953H12.1524ZM13.5952 14.1953H11.9524V14.5953H13.5952V14.1953ZM13.7952 23.3256V14.3953H13.3952V23.3256H13.7952ZM15.7857 23.1256H13.5952V23.5256H15.7857V23.1256ZM15.5857 14.3953V23.3256H15.9857V14.3953H15.5857ZM18.0746 14.1953H15.7857V14.5953H18.0746V14.1953ZM18.2067 12.6824L17.8783 14.3569L18.2709 14.4338L18.5992 12.7594L18.2067 12.6824ZM15.7857 12.9209H18.4029V12.5209H15.7857V12.9209ZM15.5857 10.4884V12.7209H15.9857V10.4884H15.5857ZM16.3053 8.98185C15.8067 9.31193 15.5857 9.92138 15.5857 10.4884H15.9857C15.9857 10.0077 16.1742 9.54838 16.5261 9.31538L16.3053 8.98185ZM17.9762 8.61395C17.3417 8.61395 16.7836 8.66517 16.3053 8.98185L16.5261 9.31539C16.8983 9.06901 17.3503 9.01395 17.9762 9.01395V8.61395ZM18.5238 8.61395H17.9762V9.01395H18.5238V8.61395ZM18.3238 7.53089V8.81395H18.7238V7.53089H18.3238Z" fill="#163150"/>
</svg>
