<svg viewBox="0 0 148 39" fill="none" xmlns="http://www.w3.org/2000/svg">
<path d="M19.2726 33.0804C27.1366 33.0804 33.5116 26.7054 33.5116 18.8415C33.5116 10.9775 27.1366 4.60254 19.2726 4.60254C11.4087 4.60254 5.03369 10.9775 5.03369 18.8415C5.03369 26.7054 11.4087 33.0804 19.2726 33.0804Z" fill="white"/>
<path d="M19.3118 2.13184C15.8931 2.13184 12.5512 3.1456 9.70869 5.04492C6.86615 6.94425 4.65066 9.64383 3.34238 12.8023C2.0341 15.9608 1.6918 19.4362 2.35875 22.7892C3.0257 26.1422 4.67196 29.2222 7.08934 31.6396C9.50672 34.0569 12.5867 35.7032 15.9397 36.3702C19.2927 37.0371 22.7681 36.6948 25.9266 35.3865C29.0851 34.0782 31.7847 31.8628 33.684 29.0202C35.5833 26.1777 36.5971 22.8358 36.5971 19.4171C36.5971 14.8327 34.7759 10.4362 31.5343 7.19456C28.2927 3.95295 23.8962 2.13184 19.3118 2.13184ZM25.5626 25.0681L21.1154 29.5742C20.8848 29.8087 20.6098 29.995 20.3064 30.1221C20.0031 30.2493 19.6774 30.3147 19.3485 30.3147C19.0196 30.3147 18.694 30.2493 18.3906 30.1221C18.0872 29.995 17.8122 29.8087 17.5816 29.5742L13.1229 25.0738C12.654 24.5966 12.3912 23.9544 12.3912 23.2853C12.3912 22.6163 12.654 21.974 13.1229 21.4968C13.2664 21.3508 13.4376 21.2349 13.6264 21.1557C13.8151 21.0766 14.0178 21.0358 14.2225 21.0358C14.4272 21.0358 14.6299 21.0766 14.8186 21.1557C15.0074 21.2349 15.1786 21.3508 15.3221 21.4968L17.5744 23.7736C17.805 24.0081 18.08 24.1944 18.3834 24.3215C18.6868 24.4487 19.0124 24.5142 19.3413 24.5142C19.6703 24.5142 19.9959 24.4487 20.2992 24.3215C20.6026 24.1944 20.8776 24.0081 21.1082 23.7736L23.3577 21.4939C23.5012 21.3479 23.6723 21.232 23.8611 21.1528C24.0499 21.0737 24.2526 21.0329 24.4573 21.0329C24.662 21.0329 24.8646 21.0737 25.0534 21.1528C25.2422 21.232 25.4133 21.3479 25.5568 21.4939C26.0253 21.9702 26.2883 22.6111 26.2894 23.2791C26.2904 23.9471 26.0295 24.5889 25.5626 25.0666V25.0681ZM30.2399 17.8637C30.103 18.0057 29.9393 18.1191 29.7582 18.1972C29.5771 18.2752 29.3823 18.3165 29.1851 18.3185C28.9879 18.3205 28.7923 18.2832 28.6096 18.2089C28.427 18.1345 28.261 18.0245 28.1213 17.8853L25.9725 15.7121C25.7478 15.4882 25.4807 15.3114 25.1869 15.1918C24.8932 15.0723 24.5785 15.0124 24.2613 15.0158C23.9442 15.0191 23.6308 15.0856 23.3396 15.2113C23.0484 15.337 22.7852 15.5195 22.5652 15.748L20.3747 17.9644C20.2146 18.1285 20.0193 18.2539 19.8034 18.3311C19.5876 18.4084 19.357 18.4354 19.1292 18.4103C18.7819 18.381 18.4567 18.2278 18.213 17.9788L16.0642 15.8055C15.8395 15.5817 15.5724 15.4048 15.2787 15.2853C14.9849 15.1657 14.6702 15.1059 14.353 15.1092C14.0359 15.1126 13.7225 15.1791 13.4313 15.3048C13.1401 15.4305 12.8769 15.613 12.6569 15.8415L10.4722 18.0622C10.3354 18.2042 10.1716 18.3176 9.99053 18.3956C9.80944 18.4737 9.61461 18.515 9.41742 18.517C9.22022 18.519 9.0246 18.4817 8.84195 18.4073C8.65931 18.333 8.4933 18.223 8.3536 18.0838C7.90456 17.6195 7.65617 16.9972 7.66209 16.3514C7.66801 15.7055 7.92776 15.0879 8.38524 14.6319L12.7116 10.2509C12.9313 10.0222 13.1944 9.83951 13.4855 9.71354C13.7766 9.58757 14.0899 9.52083 14.4071 9.51722C14.7243 9.5136 15.039 9.57318 15.3329 9.69248C15.6268 9.81179 15.894 9.98842 16.1189 10.2121L19.3392 13.4683L22.6156 10.1488C22.8355 9.92026 23.0988 9.73781 23.39 9.61209C23.6812 9.48637 23.9945 9.41989 24.3117 9.41655C24.6288 9.4132 24.9435 9.47304 25.2373 9.59259C25.5311 9.71214 25.7981 9.88899 26.0228 10.1128L30.2715 14.409C30.721 14.8733 30.9697 15.4959 30.9637 16.1421C30.9578 16.7883 30.6978 17.4063 30.2399 17.8623V17.8637Z" fill="#006077"/>
<path d="M60.0712 13.8581L55.2803 20.024C55.2661 20.0423 55.248 20.057 55.2274 20.0672C55.2067 20.0775 55.184 20.0828 55.1609 20.083H54.5755C54.5526 20.083 54.5299 20.0779 54.5093 20.0679C54.4886 20.0579 54.4704 20.0434 54.4561 20.0255L49.6652 13.9085C49.6456 13.8838 49.6189 13.8658 49.5886 13.857C49.5583 13.8481 49.5261 13.8489 49.4963 13.8591C49.4665 13.8694 49.4406 13.8886 49.4221 13.9142C49.4037 13.9398 49.3937 13.9704 49.3934 14.002V25.4737C49.3934 25.5141 49.3773 25.5529 49.3487 25.5815C49.3202 25.6101 49.2814 25.6261 49.2409 25.6261H47.2906C47.2502 25.6261 47.2114 25.6101 47.1828 25.5815C47.1542 25.5529 47.1382 25.5141 47.1382 25.4737L47.1655 9.47571C47.1655 9.45556 47.1695 9.43562 47.1773 9.41703C47.185 9.39844 47.1964 9.38157 47.2107 9.36739C47.225 9.35321 47.242 9.34201 47.2606 9.33444C47.2793 9.32686 47.2993 9.32306 47.3194 9.32325H48.7232C48.7462 9.32341 48.769 9.3288 48.7896 9.33901C48.8103 9.34923 48.8284 9.364 48.8425 9.38222L54.7625 16.9936C54.7768 17.0118 54.795 17.0266 54.8158 17.0367C54.8366 17.0469 54.8594 17.0521 54.8826 17.0521C54.9057 17.0521 54.9286 17.0469 54.9494 17.0367C54.9702 17.0266 54.9884 17.0118 55.0027 16.9936L60.8996 9.38222C60.9139 9.36381 60.9322 9.34892 60.9532 9.3387C60.9741 9.32848 60.9971 9.32319 61.0204 9.32325H62.4213C62.4602 9.32546 62.4968 9.34249 62.5236 9.37084C62.5503 9.3992 62.5652 9.43672 62.5652 9.47571V25.4737C62.5652 25.5141 62.5491 25.5529 62.5205 25.5815C62.4919 25.6101 62.4531 25.6261 62.4127 25.6261H60.494C60.4536 25.6261 60.4148 25.6101 60.3862 25.5815C60.3576 25.5529 60.3416 25.5141 60.3416 25.4737V13.9516C60.3409 13.9205 60.3308 13.8902 60.3124 13.865C60.2941 13.8398 60.2684 13.8208 60.239 13.8106C60.2095 13.8004 60.1776 13.7995 60.1476 13.808C60.1176 13.8165 60.0909 13.834 60.0712 13.8581Z" fill="#006077"/>
<path d="M69.0632 29.8631H67.0827C67.0572 29.8646 67.0317 29.8593 67.0089 29.8476C66.9862 29.836 66.9669 29.8185 66.9531 29.797C66.9394 29.7755 66.9316 29.7507 66.9306 29.7251C66.9296 29.6996 66.9354 29.6742 66.9475 29.6517L69.0761 25.0334C69.0853 25.0141 69.0901 24.9929 69.0901 24.9715C69.0901 24.9501 69.0853 24.929 69.0761 24.9097L64.3097 14.4232C64.298 14.4007 64.2924 14.3755 64.2936 14.3502C64.2948 14.3249 64.3026 14.3003 64.3164 14.279C64.3301 14.2577 64.3492 14.2403 64.3718 14.2288C64.3943 14.2172 64.4196 14.2119 64.4449 14.2132H66.5591C66.5898 14.2112 66.6203 14.219 66.6462 14.2356C66.6721 14.2521 66.692 14.2766 66.703 14.3053L69.952 22.2273C70.0759 22.473 70.1498 22.7409 70.1692 23.0155H70.2785C70.292 22.748 70.3463 22.4841 70.4396 22.233V22.2215L73.6873 14.311C73.6983 14.2823 73.7181 14.2579 73.744 14.2413C73.7699 14.2248 73.8004 14.2169 73.8311 14.219H75.7857C75.8109 14.2175 75.8361 14.2227 75.8587 14.2341C75.8813 14.2455 75.9005 14.2626 75.9143 14.2837C75.9282 14.3049 75.9362 14.3293 75.9376 14.3545C75.939 14.3798 75.9338 14.405 75.9223 14.4275L69.1984 29.7725C69.1876 29.7995 69.169 29.8226 69.1448 29.8388C69.1207 29.8549 69.0922 29.8634 69.0632 29.8631Z" fill="#006077"/>
<path d="M91.4412 23.8371C91.464 23.8655 91.4752 23.9014 91.4725 23.9377C91.4698 23.974 91.4535 24.008 91.4268 24.0327L91.3016 24.1578C91.099 24.3378 90.8858 24.5054 90.663 24.6598C90.326 24.9055 89.9668 25.1193 89.5901 25.2984C89.1016 25.5149 88.5915 25.6788 88.0684 25.7874C87.4175 25.9341 86.7522 26.0069 86.085 26.0046C83.6764 26.0046 81.7107 25.1895 80.1881 23.5595C78.6654 21.9295 77.9046 19.9096 77.9055 17.5C77.9055 15.0732 78.6616 13.0447 80.1737 11.4147C81.6858 9.78464 83.6558 8.96961 86.0836 8.96961C87.1039 8.95997 88.1174 9.13741 89.0738 9.49314C89.9799 9.83737 90.6137 10.1816 90.9752 10.5258L91.421 10.9501C91.449 10.9746 91.4664 11.0089 91.4696 11.0459C91.4728 11.0829 91.4616 11.1197 91.4383 11.1486L90.3236 12.6257C90.3114 12.644 90.2952 12.6593 90.2762 12.6704C90.2571 12.6814 90.2358 12.688 90.2139 12.6895C90.1919 12.691 90.1699 12.6875 90.1495 12.6792C90.1292 12.6709 90.111 12.658 90.0964 12.6415L90.0345 12.5854C89.953 12.5126 89.7766 12.3812 89.5052 12.1914C89.2351 12.0022 88.9536 11.8297 88.6624 11.675C88.3037 11.4959 87.9252 11.3593 87.5348 11.268C87.0685 11.1496 86.5891 11.0901 86.108 11.0911C84.3869 11.0911 82.974 11.7071 81.8694 12.9393C80.7648 14.1714 80.2125 15.6931 80.2125 17.5043C80.2125 19.2974 80.7648 20.81 81.8694 22.0421C82.974 23.2742 84.3869 23.8903 86.108 23.8903C86.853 23.8932 87.5913 23.75 88.2813 23.4689C88.9659 23.1899 89.4621 22.9152 89.7699 22.6448L89.7799 22.6361L90.0877 22.3283C90.1024 22.3122 90.1205 22.2995 90.1407 22.2914C90.1609 22.2832 90.1827 22.2798 90.2045 22.2813C90.2262 22.2828 90.2474 22.2893 90.2663 22.3002C90.2852 22.3111 90.3013 22.3261 90.3135 22.3442L91.4412 23.8371Z" fill="#006077"/>
<path d="M99.6511 15.8569C99.6511 15.895 99.6359 15.9316 99.6089 15.9586C99.582 15.9855 99.5454 16.0007 99.5072 16.0007H98.4515C98.0608 15.9942 97.6731 16.07 97.3135 16.2231C96.954 16.3762 96.6307 16.6033 96.3646 16.8895C96.08 17.1823 95.857 17.5292 95.7087 17.9096C95.5605 18.29 95.4901 18.6964 95.5016 19.1045V25.4746C95.5016 25.5128 95.4865 25.5494 95.4595 25.5763C95.4325 25.6033 95.3959 25.6185 95.3578 25.6185H93.4334C93.3952 25.6185 93.3587 25.6033 93.3317 25.5763C93.3047 25.5494 93.2896 25.5128 93.2896 25.4746V14.3639C93.2896 14.3258 93.3047 14.2892 93.3317 14.2622C93.3587 14.2353 93.3952 14.2201 93.4334 14.2201H94.8127C94.8508 14.2201 94.8874 14.2353 94.9144 14.2622C94.9414 14.2892 94.9565 14.3258 94.9565 14.3639L95.0155 16.1474H95.1507C95.4122 15.5441 95.8597 15.0401 96.4279 14.7091C97.0393 14.3563 97.7357 14.1777 98.4415 14.1928H99.4972C99.5353 14.1928 99.5719 14.2079 99.5989 14.2349C99.6259 14.2619 99.641 14.2985 99.641 14.3366L99.6511 15.8569Z" fill="#006077"/>
<path d="M105.55 29.8628H103.572C103.546 29.8647 103.52 29.8596 103.497 29.848C103.474 29.8365 103.454 29.8188 103.44 29.797C103.426 29.7752 103.419 29.7501 103.418 29.7242C103.417 29.6983 103.423 29.6726 103.436 29.6499L105.57 25.0345C105.579 25.015 105.584 24.9936 105.584 24.9719C105.584 24.9502 105.579 24.9289 105.57 24.9094L100.805 14.4243C100.793 14.4017 100.787 14.3762 100.788 14.3505C100.789 14.3248 100.797 14.2999 100.811 14.2783C100.825 14.2567 100.844 14.2393 100.867 14.2278C100.89 14.2163 100.916 14.2111 100.942 14.2129H103.053C103.084 14.2109 103.114 14.219 103.14 14.2358C103.166 14.2527 103.186 14.2774 103.197 14.3064L106.433 22.2284C106.577 22.5549 106.78 22.8167 106.78 23.0166H106.636C106.636 22.8167 106.818 22.5549 106.923 22.2284L110.172 14.3064C110.183 14.2774 110.203 14.2527 110.229 14.2358C110.255 14.219 110.285 14.2109 110.316 14.2129H112.268C112.294 14.2099 112.32 14.214 112.344 14.2248C112.368 14.2357 112.388 14.2529 112.403 14.2745C112.418 14.2961 112.427 14.3213 112.428 14.3475C112.43 14.3736 112.424 14.3997 112.412 14.4229L105.686 29.7722C105.676 29.7994 105.657 29.8227 105.632 29.8388C105.608 29.855 105.579 29.8634 105.55 29.8628Z" fill="#006077"/>
<path d="M115.744 24.1845V29.7132C115.744 29.7514 115.729 29.788 115.702 29.8149C115.675 29.8419 115.638 29.8571 115.6 29.8571H113.666C113.627 29.8571 113.591 29.8419 113.564 29.8149C113.537 29.788 113.522 29.7514 113.522 29.7132V14.3625C113.522 14.3243 113.537 14.2878 113.564 14.2608C113.591 14.2338 113.627 14.2187 113.666 14.2187H115.147C115.185 14.2187 115.222 14.2338 115.249 14.2608C115.276 14.2878 115.291 14.3243 115.291 14.3625L115.304 15.8712H115.415C115.439 15.8717 115.463 15.8658 115.485 15.8543C115.507 15.8427 115.525 15.8258 115.538 15.8051L115.63 15.6613C115.761 15.4957 115.905 15.3413 116.062 15.1996C116.301 14.9704 116.565 14.7697 116.85 14.6012C117.222 14.3964 117.62 14.2411 118.032 14.1396C118.55 14.0009 119.085 13.9323 119.621 13.9353C120.337 13.9193 121.047 14.0579 121.703 14.3417C122.36 14.6254 122.947 15.0475 123.426 15.5793C124.44 16.6752 124.947 18.1198 124.947 19.9128C124.947 21.6694 124.445 23.1048 123.44 24.219C122.977 24.7546 122.402 25.1819 121.756 25.4707C121.11 25.7595 120.408 25.9028 119.701 25.8903C119.175 25.8943 118.65 25.8349 118.139 25.7134C117.742 25.6297 117.362 25.4841 117.011 25.2819C116.768 25.1308 116.537 24.9626 116.318 24.7785C116.172 24.6613 116.041 24.5265 115.928 24.3772L115.919 24.3643L115.814 24.1816L115.744 24.1845ZM116.64 22.9217C116.981 23.308 117.406 23.6103 117.883 23.8051C118.36 24 118.876 24.0821 119.39 24.045C120.16 24.0116 120.892 23.6998 121.45 23.1676C122.283 22.3641 122.699 21.2816 122.699 19.92C122.699 18.7243 122.369 17.7372 121.708 16.9586C121.406 16.5855 121.023 16.2864 120.587 16.084C120.152 15.8816 119.676 15.7813 119.196 15.7907C118.714 15.7824 118.237 15.8788 117.796 16.0732C117.356 16.2677 116.963 16.5555 116.644 16.9169C115.956 17.6686 115.612 18.6692 115.612 19.9186C115.612 21.1679 115.956 22.169 116.644 22.9217H116.64Z" fill="#006077"/>
<path d="M127.614 14.0621V10.8878C127.614 10.8478 127.63 10.8094 127.658 10.781C127.687 10.7527 127.725 10.7368 127.765 10.7368H129.689C129.729 10.7368 129.768 10.7527 129.796 10.781C129.825 10.8094 129.84 10.8478 129.84 10.8878V14.0621C129.84 14.1022 129.856 14.1406 129.885 14.1689C129.913 14.1972 129.951 14.2131 129.991 14.2131H132.949C132.989 14.2131 133.027 14.229 133.055 14.2574C133.084 14.2857 133.1 14.3241 133.1 14.3642V15.8269C133.1 15.8669 133.084 15.9053 133.055 15.9337C133.027 15.962 132.989 15.9779 132.949 15.9779H129.993C129.953 15.9779 129.914 15.9938 129.886 16.0221C129.858 16.0505 129.842 16.0889 129.842 16.1289V22.2804C129.842 23.4215 130.369 23.992 131.424 23.992C131.678 23.9891 131.93 23.9479 132.172 23.8697C132.385 23.8095 132.591 23.723 132.783 23.6123L132.856 23.5749C132.875 23.5656 132.895 23.5602 132.916 23.559C132.936 23.5578 132.957 23.5609 132.977 23.568C132.996 23.5752 133.014 23.5862 133.029 23.6005C133.044 23.6148 133.056 23.632 133.064 23.6511L133.639 24.9772C133.653 25.0075 133.657 25.0419 133.649 25.0744C133.641 25.107 133.621 25.1357 133.594 25.1556C133.497 25.2271 133.395 25.2925 133.289 25.3512C133.055 25.4737 132.81 25.5734 132.557 25.6489C132.022 25.8242 131.461 25.9055 130.898 25.8891C129.818 25.8555 129.009 25.5396 128.47 24.9412C127.894 24.3074 127.607 23.4291 127.607 22.3063V16.1217C127.607 16.0817 127.591 16.0433 127.563 16.0149C127.534 15.9866 127.496 15.9707 127.456 15.9707H125.674C125.634 15.9707 125.595 15.9548 125.567 15.9265C125.539 15.8982 125.523 15.8597 125.523 15.8197V14.3656C125.523 14.3255 125.539 14.2871 125.567 14.2588C125.595 14.2305 125.634 14.2146 125.674 14.2146H127.463C127.483 14.2146 127.503 14.2106 127.521 14.2029C127.539 14.1953 127.556 14.184 127.57 14.1698C127.584 14.1557 127.595 14.1388 127.603 14.1203C127.61 14.1019 127.614 14.0821 127.614 14.0621Z" fill="#006077"/>
<path d="M144.168 24.2666C143.046 25.353 141.669 25.8962 140.039 25.8962C138.391 25.8962 137.014 25.353 135.91 24.2666C134.805 23.1803 134.253 21.7492 134.253 19.9734C134.253 18.1803 134.81 16.7267 135.924 15.6125C137.038 14.4983 138.411 13.9412 140.041 13.9412C140.807 13.9247 141.57 14.0657 142.28 14.3554C142.99 14.645 143.633 15.0773 144.17 15.6255C145.293 16.7483 145.854 18.1971 145.854 19.9719C145.854 21.7468 145.292 23.1783 144.168 24.2666ZM142.586 22.9722C143.275 22.2205 143.619 21.2108 143.619 19.9432C143.619 18.6967 143.275 17.6822 142.586 16.8998C142.274 16.5278 141.883 16.23 141.441 16.028C140.999 15.826 140.518 15.7248 140.032 15.7319C139.546 15.7248 139.064 15.8241 138.621 16.0229C138.177 16.2216 137.783 16.5151 137.465 16.8825C136.768 17.6496 136.419 18.6684 136.419 19.9389C136.419 21.2093 136.763 22.219 137.452 22.9679C137.778 23.3233 138.175 23.6071 138.617 23.8012C139.059 23.9953 139.536 24.0955 140.019 24.0955C140.502 24.0955 140.979 23.9953 141.421 23.8012C141.863 23.6071 142.26 23.3233 142.586 22.9679V22.9722Z" fill="#006077"/>
</svg>
