<svg width="24" height="24" viewBox="0 0 24 24" fill="none" xmlns="http://www.w3.org/2000/svg">
<mask id="mask0" mask-type="alpha" maskUnits="userSpaceOnUse" x="5" y="6" width="14" height="12">
<path fill-rule="evenodd" clip-rule="evenodd" d="M14.9317 11L11.3553 7.83893C10.8815 7.42013 10.8937 6.73289 11.3553 6.31409C11.8291 5.8953 12.5945 5.8953 13.0683 6.31409L18.6446 11.243C19.1185 11.6617 19.1185 12.3383 18.6446 12.757L13.0683 17.6859C12.5945 18.1047 11.8291 18.1047 11.3553 17.6859C11.1278 17.4853 11 17.2129 11 16.9289C11 16.6448 11.1278 16.3724 11.3553 16.1718L14.9438 13H6C5.44772 13 5 12.5523 5 12C5 11.4477 5.44772 11 6 11H14.9317Z" fill="white"/>
</mask>
<g mask="url(#mask0)">
<rect width="24" height="24" fill="#1EB8E7"/>
</g>
</svg>
