<svg xmlns="http://www.w3.org/2000/svg" viewBox="0 0 1447.32 1447.32"><defs><style>.cls-1{fill:#303B72;}</style></defs><title>Giveth Logo icon blackAsset 3</title><g id="Layer_2"  dataName="Layer 2"><g id="Layer_1-2"  dataName="Layer 1"><g id="Layer_4_Image"  dataName="Layer 4 Image"><path class="cls-1" d="M1447.32,741.5c-1.42,20.34-1.92,40.81-4.41,61-26.4,214.4-126.4,386.2-301.94,512-131.13,94-279.13,137.87-440.33,132.29C514.23,1440.38,353.52,1371,218.76,1242c-1.24-1.19-1.21-5.94,0-7.21Q470.88,982.27,723.47,730.26A22.69,22.69,0,0,1,738,724.32q354.69-.44,709.37-.25Z"/><path class="cls-1" d="M741.26,0c19.88,1.51,39.8,2.39,59.61,4.53q174,18.86,320.5,114.88a22.33,22.33,0,0,1,1.9,1.6l-61.74,61.61c-13.44,13.41-26.79,26.91-40.39,40.15a6.27,6.27,0,0,1-5.85.51Q867.8,138.43,697.77,145.23c-253.61,10.22-474.7,189.83-535.51,436.12-37.64,152.6-16.7,297.57,60.81,434.4.74,1.3.78,4.17-.11,5q-50.47,50.84-101.29,101.42c-.33.33-.74.6-1.51,1.22-3.19-4.94-6.4-9.72-9.42-14.6C27.15,973.67-9.75,826.81,2.19,668.29,27.08,338.76,272.36,68.79,598.74,11.46c33-5.79,66.75-7.26,100.14-10.73L705.7,0Z"/><path class="cls-1" d="M1108.11,436.82a130.15,130.15,0,1,1,38.22,92.38A130.45,130.45,0,0,1,1108.11,436.82Z"/></g></g></g></svg>