<svg width="160" height="160" viewBox="0 0 160 160" fill="none" xmlns="http://www.w3.org/2000/svg">
<circle cx="80" cy="80" r="80" fill="#EC932E"/>
<path d="M38.3283 89.6758C39.5758 90.4332 44.2062 95.5994 43.832 101.213C46.406 121.036 26.2846 125.757 22.2218 108.723C21.9099 106.339 21.901 100.142 24.3604 94.4208C21.5757 92.8391 16.4342 88.2857 18.1451 82.7253C17.4545 81.9233 15.9931 79.2233 15.6723 74.8392C16.5857 74.6164 19.602 74.6521 24.3604 76.5768C24.9173 76.0867 26.8465 75.0531 30.1079 74.8392C30.4866 74.1709 32.2465 72.2194 36.2564 69.76C37.2143 70.4729 38.7826 73.1818 37.3925 78.3144C40.8677 81.1213 41.2021 86.401 38.3283 89.6758Z" fill="#BB5D06"/>
<path d="M13.423 102.683C16.9425 106.871 22.2884 109.887 26.902 104.813C31.5157 99.7387 34.5933 98.8171 28.9827 106.57C23.3721 114.322 14.8884 111.118 9.53463 107.949C4.18088 104.781 9.02364 97.4482 13.423 102.683Z" fill="#BB5D06"/>
<path d="M38.9488 86.6454C41.0965 87.6681 47.0666 86.7519 49.7832 86.166" stroke="#BB5D06" stroke-width="0.64" stroke-linecap="round" stroke-linejoin="round"/>
<path d="M39.3039 85.5937C42.0352 85.816 44.0042 85.2125 44.957 84.8314" stroke="#BB5D06" stroke-width="0.64" stroke-linecap="round" stroke-linejoin="round"/>
<path d="M39.4596 84.3763C41.9654 84.4786 45.1699 83.2471 46.459 82.6185" stroke="#BB5D06" stroke-width="0.64" stroke-linecap="round" stroke-linejoin="round"/>
<path d="M23.1876 90.4051C21.8604 92.3792 16.2563 94.632 13.6201 95.5116" stroke="#BB5D06" stroke-width="0.64" stroke-linecap="round" stroke-linejoin="round"/>
<path d="M22.3467 89.6808C20.1096 91.2634 18.1079 91.7471 17.0938 91.9045" stroke="#BB5D06" stroke-width="0.64" stroke-linecap="round" stroke-linejoin="round"/>
<path d="M21.5914 88.7129C19.4873 90.0773 16.1023 90.65 14.6729 90.7657" stroke="#BB5D06" stroke-width="0.64" stroke-linecap="round" stroke-linejoin="round"/>
<path d="M36.1836 79.9302C36.966 82.8521 36.288 84.5217 32.6355 84.5739C31.5918 81.4433 33.1575 80.1911 36.1836 79.9302Z" fill="#EC932E"/>
<path d="M35.7202 84.4513C35.7333 83.4947 35.4843 81.2984 34.3833 80.1663L32.9682 80.4808C33.5055 81.3718 34.5407 83.5235 34.3833 85.0016L35.7202 84.4513Z" fill="#BB5D06"/>
<path d="M29.1201 85.2983C28.8592 82.1677 26.1982 81.646 24.1633 82.846C24.9564 86.5193 27.7983 86.0114 29.1201 85.2983Z" fill="#EC932E"/>
<path d="M27.7383 86.0724C27.8874 85.1274 27.9535 82.9181 27.0249 81.6407L25.5794 81.7506C25.9844 82.7091 26.7028 84.9862 26.3367 86.4268L27.7383 86.0724Z" fill="#BB5D06"/>
<path d="M29.334 100.466C23.9315 100.589 24.0103 104.035 26.0808 108.981" stroke="#BB5D06" stroke-width="1.4144" stroke-linecap="round" stroke-linejoin="round"/>
<path d="M22.7692 122.799C21.9544 122.77 21.1424 122.743 20.3305 122.743C24.3934 137.384 32.1883 148.911 51.9354 147.852L66.8793 155.061L81.4805 158.485L106.481 152.232L111.34 149.701L142.83 129.909C142.83 129.909 138.598 131.76 136.263 132.252C139.969 128.412 143.213 124.575 145.194 119.683L145.022 119.761C143.863 120.285 142.7 120.811 141.53 121.318C143.769 113.921 145.117 107.324 142.898 99.8785C141.839 101.624 140.99 103.451 140.137 105.29L140.136 105.29L140.136 105.291C140.034 105.511 139.932 105.731 139.829 105.952C139.715 105.011 139.51 104.082 139.216 103.173C137.164 104.146 134.708 104.508 132.123 104.439C122.82 104.193 118.165 101.046 113.371 97.8066C111.172 96.3206 108.944 94.815 106.226 93.5607L107.118 98.6846C107.206 98.8908 107.248 99.1102 107.243 99.3307C107.239 100.137 106.967 100.914 106.481 101.669L104.56 89.9923C101.217 88.3438 105.153 83.765 99.2706 83.5709C98.9248 83.5602 98.5794 83.5503 98.2337 83.5404L98.2334 83.5404L98.2329 83.5404C97.7228 83.5258 97.2121 83.5112 96.6982 83.4938C92.0825 83.3422 87.3003 82.9779 81.3761 80.1354C80.6961 81.0167 80.0341 81.9256 79.3698 82.8378L79.3697 82.8379C77.5965 85.2726 75.806 87.731 73.608 89.7504C72.1418 84.8392 69.9263 81.106 65.8519 77.7583C67.1807 83.2489 67.9469 88.4928 68.7471 93.9695L68.7471 93.9695L68.8884 94.9355C67.7123 93.3206 66.4302 91.7695 65.0489 90.2902C64.4006 91.04 63.8057 91.8377 63.2109 92.6354C62.399 89.6972 61.1232 87.1738 58.9551 84.8313C60.419 91.0688 57.0415 96.1414 53.742 101.097L53.742 101.097C52.6643 102.715 51.595 104.322 50.7053 105.952C48.2042 101.365 44.7692 98.2752 40.2606 95.4008C41.4587 97.6397 42.1654 100.063 42.3424 102.54C40.7436 100.992 31.1898 102.717 29.8175 101.003C28.4659 103.39 27.6275 105.944 26.785 108.51L26.7849 108.51C26.4224 109.614 26.0592 110.721 25.6539 111.817C23.7885 110.243 21.7044 108.89 19.4531 107.792C22.7156 112.631 23.3075 117.138 22.7692 122.799Z" fill="#BB5D06"/>
<path fill-rule="evenodd" clip-rule="evenodd" d="M80.4676 159.999C124.65 159.74 160.256 123.713 159.998 79.5314C159.739 35.3494 123.712 -0.257377 79.5305 0.00140164C35.3485 0.26018 -0.258353 36.2866 0.00042508 80.4686C0.259203 124.651 36.2856 160.257 80.4676 159.999ZM15.4003 58.9724C16.4078 56.9751 17.5597 54.6915 18.8163 51.974C23.0306 42.8605 29.3857 40.8563 35.0101 39.0825C39.4497 37.6823 43.434 36.4258 45.5508 31.9297C50.3492 21.7377 55.2793 27.2584 53.0197 30.1797C50.7602 33.101 54.5916 41.2807 62.2544 35.7302C66.4479 32.6926 74.5345 35.6351 82.5186 38.5402C89.1236 40.9436 95.6585 43.3214 99.861 42.2668C107.048 40.4632 106.416 35.5173 105.929 31.7006C105.786 30.5881 105.656 29.5715 105.736 28.7566C106.088 25.1462 115.253 22.9333 115.253 32.9495C115.253 39.0445 118.43 39.6192 122.426 40.3423C124.996 40.8075 127.906 41.3341 130.528 43.4315C130.684 43.556 130.842 43.6821 131.002 43.8099C137.732 49.1826 148.203 57.5426 145.333 73.0141C143.722 81.7019 145.257 84.223 146.758 86.6888C147.994 88.7185 149.207 90.7108 148.623 96.0745C147.942 102.334 144.521 105.198 141.024 108.126C137.884 110.755 134.682 113.435 133.348 118.669C132.777 120.91 132.355 122.96 131.972 124.825C130.462 132.166 129.542 136.635 122.421 138.585C119.707 139.328 115.713 141.405 111.064 143.823C100.417 149.359 86.3396 156.68 76.3611 153.842C69.4408 151.874 64.9576 148.956 61.008 146.386C56.7762 143.631 53.1569 141.276 47.8086 140.914C37.4687 140.216 27.5987 134.975 25.2487 125.424C22.8987 115.874 21.3712 109.818 14.5562 102.247C10.7727 98.0443 12.6007 95.5386 14.4524 93.0004C15.936 90.9667 17.4348 88.9123 16.0748 85.9475C8.93387 71.7915 10.3619 68.9606 15.4003 58.9724Z" fill="#BB5D06"/>
<path d="M70.886 157.763C61.5855 157.763 58.1532 150.962 57.5996 147.561C62.7093 146.011 72.9286 142.486 82.2125 138.201C83.8849 137.429 94.3096 144.621 99.4391 140.918C104.569 137.215 103.704 131.067 95.1478 129.53C95.7625 123.445 101.625 124.121 102.116 124.244C102.608 124.367 104.576 125.496 106 131.428C107.423 137.359 109.322 136.173 121.896 140.918C117.151 137.597 118.575 131.665 121.896 129.53C124.585 130.716 131.481 133.089 137.555 133.089C131.386 137.913 117.436 148.036 110.982 149.934C102.916 152.306 82.5115 157.763 70.886 157.763Z" fill="#A24E00"/>
<path d="M97.1264 131.507C94.6381 131.554 91.9632 132.558 89.5962 132.409C89.5962 132.375 87.954 132.054 87.9633 130.309C87.9533 129.697 88.1267 129.096 88.461 128.583C89.8358 126.512 93.9041 126.316 96.3208 126.593L100.031 127.852C100.317 128.067 100.559 128.336 100.744 128.642C101.282 131.112 99.5027 131.98 97.1264 131.507Z" fill="white"/>
<path d="M102.312 123.731C100.89 125.168 99.9135 126.571 99.6585 128.586C99.1173 130.499 96.4517 129.7 96.349 128.425C96.3024 125.348 96.7471 123.7 97.5496 122.042L102.312 123.731Z" fill="#FFD167"/>
<path d="M97.1264 131.507C94.6381 131.554 91.9632 132.558 89.5962 132.409C89.5962 132.375 87.954 132.054 87.9633 130.309C87.9533 129.697 88.1267 129.096 88.461 128.583L88.5948 128.652C90.2339 131.65 93.1824 129.355 95.6769 129.386C96.4856 129.386 97.4562 129.778 98.3084 129.787C99.481 129.802 99.932 129.003 100.526 128.328C100.606 128.426 100.679 128.53 100.744 128.639C101.282 131.112 99.5027 131.98 97.1264 131.507Z" fill="#DAEBED"/>
<path d="M102.31 123.731C100.888 125.168 99.9117 126.571 99.6566 128.586C99.5773 128.926 99.3806 129.227 99.1012 129.436C98.8218 129.644 98.4776 129.748 98.1294 129.728C98.1543 128.502 98.4653 127.112 98.4716 125.818C98.4716 124.107 97.8651 123.725 97.8682 122.947C97.8682 122.674 98.1202 122.481 98.4498 122.363L102.31 123.731Z" fill="#FFBF4A"/>
<path d="M97.5485 122.042C96.5003 124.204 96.3293 125.983 96.348 128.425C96.4537 129.703 99.1193 130.496 99.6574 128.586C99.9125 126.568 100.902 125.165 102.31 123.731" stroke="#163050" stroke-width="1.47925" stroke-linecap="round" stroke-linejoin="round"/>
<path d="M80.1977 99.1281L79.5445 102.49C79.5069 102.709 79.3975 102.908 79.2334 103.057C79.0694 103.206 78.8603 103.295 78.6395 103.312C78.4155 103.277 78.1914 103.246 77.9644 103.221C77.7127 103.133 77.4953 102.968 77.3434 102.749C77.1914 102.53 77.1127 102.269 77.1185 102.002L77.3236 99.1685C78.2629 99.4516 79.2667 99.4374 80.1977 99.1281Z" fill="#C8B1FF"/>
<path d="M82.301 85.3462L82.3508 85.6572C81.4955 90.5374 80.7739 94.6181 80.7956 94.5808C80.0678 94.4222 79.2716 94.3133 78.7615 93.8965C78.6014 93.7638 78.4749 93.5952 78.3923 93.4045C78.3096 93.2137 78.273 93.0061 78.2856 92.7986C78.351 91.9774 78.8921 85.9558 78.8766 85.8656L82.301 85.3462Z" fill="#C8B1FF"/>
<path d="M86.0083 92.9603L85.9523 92.9416C84.4593 92.9416 82.8263 93.6849 81.548 94.786C81.299 94.6935 81.0432 94.6207 80.7829 94.5683C80.7829 94.5154 80.7238 94.9104 81.3209 91.5201L81.5636 91.5637C83.1254 90.3132 85.0373 89.5795 87.0347 89.4642C87.1467 89.5016 87.1498 89.1532 86.0083 92.9603Z" fill="white"/>
<path d="M119.572 93.5294L119.261 93.5605L107.103 87.8468L100.773 90.3942L100.462 90.3538C101.722 92.0178 100.167 94.6522 97.8839 94.6056C97.5542 94.6104 97.2276 94.5426 96.9272 94.4068C96.6268 94.271 96.36 94.0706 96.1458 93.8199C95.9317 93.5693 95.7755 93.2744 95.6882 92.9565C95.601 92.6385 95.585 92.3053 95.6413 91.9805C95.7128 91.5508 95.8774 91.1419 96.1235 90.7825C96.3696 90.4231 96.6912 90.1218 97.0659 89.8997L87.9619 88.6929L87.5482 88.2014L87.4829 88.2512C86.36 91.6539 85.1408 95.6476 84.3352 99.1374C83.5856 102.409 81.6884 108.705 81.6729 112.108C81.6729 113.952 82.6058 115.529 84.0366 116.879C88.7674 121.283 98.9664 123.118 99.6942 123.411C104.406 125.33 111.541 128.263 116.596 128.328C128.347 128.484 123.392 118.375 128.045 105.582L128.157 105.445C124.359 102.36 120.453 98.3784 119.572 93.5294ZM107.831 93.0535C107.953 92.3502 108.319 91.7126 108.865 91.2533C109.412 90.794 110.103 90.5426 110.817 90.5435C111.145 90.5396 111.47 90.6079 111.769 90.7438C112.068 90.8797 112.333 91.0798 112.546 91.3298C112.759 91.5797 112.914 91.8735 113.001 92.1903C113.087 92.507 113.103 92.8389 113.047 93.1624C112.925 93.8652 112.559 94.5025 112.013 94.9617C111.468 95.421 110.777 95.6727 110.064 95.6725C109.735 95.6774 109.41 95.6097 109.11 95.4742C108.81 95.3387 108.544 95.1387 108.331 94.8885C108.118 94.6383 107.962 94.3441 107.876 94.0269C107.789 93.7097 107.774 93.3774 107.831 93.0535ZM97.4547 104.282C103.171 104.385 102.991 102.926 105.918 102.979C107.884 103.016 109.517 104.36 109.504 106.453C109.504 109.414 107.032 112.471 102.201 112.391C98.6927 112.331 93.5387 110.717 93.5543 107.299C93.5667 105.193 95.321 104.241 97.4609 104.282H97.4547Z" fill="#02BAEC"/>
<path d="M119.573 93.5294L119.262 93.5605L107.104 87.8468L100.774 90.3942L100.463 90.3538C101.707 92.0022 100.183 94.6522 97.8845 94.6056C97.5549 94.6104 97.2283 94.5426 96.9279 94.4068C96.6275 94.271 96.3606 94.0706 96.1465 93.8199C95.9323 93.5693 95.7761 93.2744 95.6889 92.9565C95.6017 92.6385 95.5857 92.3053 95.642 91.9805C95.713 91.5506 95.8774 91.1416 96.1235 90.7821C96.3697 90.4226 96.6915 90.1214 97.0665 89.8997L87.9625 88.6929L87.5488 88.2014C87.4555 88.2761 87.5489 88.077 87.0855 89.4828C86.8926 90.0831 86.6997 90.6897 86.5068 91.3087C87.779 93.8654 87.8475 93.9618 88.426 93.8747L93.9375 93.0504C94.9577 92.8949 96.9047 96.6149 97.7943 96.7331C97.7943 96.7331 106.018 97.4795 108.939 98.0332C109.837 98.2057 110.766 98.1272 111.623 97.8061C113.489 97.1032 116.248 95.9399 116.248 95.9399C116.621 95.7875 116.397 95.7222 121.318 98.0488C120.47 96.6591 119.879 95.1283 119.573 93.5294Z" fill="#009BE2"/>
<path d="M127.321 82.1487V81.9465L121.644 71.1567L113.791 71.5517L105.601 61.9625L89.4677 61.0481L84.3979 68.5503L79.9128 67.9873L75.2939 80.043C75.3717 80.1892 76.1431 81.7133 78.2924 85.9527L84.8241 84.9884L87.9656 88.7208L97.0696 89.9277C98.2981 89.1812 99.7444 89.4207 100.466 90.3818L100.777 90.4222L107.107 87.8748L119.252 93.5886L119.564 93.5574C118.537 87.9246 121.791 82.5935 127.321 82.1487ZM103.682 73.5859L109.352 75.8285L103.312 77.3183L103.682 73.5859ZM90.4507 72.6746L90.7275 76.3759L84.6561 74.4661L90.4507 72.6746ZM89.5611 85.8375L90.9266 81.959L97.5018 82.693L98.5998 87.2061L89.5611 85.8375Z" fill="#FFD167"/>
<path d="M135.874 78.1892C135.874 80.0554 134.885 82.5935 134.154 84.2917L134.085 84.4037C131.946 83.0352 129.927 82.158 128.313 82.1207C127.977 82.1207 127.653 82.1207 127.333 82.1487V81.9465L122.947 73.6107L123.171 73.4957C128.586 72.7119 135.902 72.7337 135.874 78.1892Z" fill="#02BAEC"/>
<path d="M148.931 101.15C148.729 99.3676 146.642 96.4843 145.509 95.0753C143.532 92.5845 141.34 90.2719 138.959 88.1641C136.427 85.9153 131.699 82.1985 128.3 82.1207C122.99 81.9994 119.398 86.2295 119.373 91.4114C119.308 104.605 141.917 112.002 141.886 117.812C141.866 118.519 141.649 119.206 141.26 119.797C140.871 120.388 140.325 120.858 139.684 121.156C144.197 121.096 144.57 115.299 145.876 112.055C148.25 106.195 149.348 104.811 148.931 101.15ZM129.6 99.1654C126.023 99.3178 122.907 96.1857 122.757 92.2574C122.608 88.4285 125.354 85.455 128.785 85.5328C132.107 85.6043 134.953 88.528 135.242 92.1391C135.535 95.8373 133.056 99.0192 129.6 99.1654Z" fill="#009BE2"/>
<path d="M143.753 92.7332L143.647 92.8296C142.183 91.1857 140.625 89.6279 138.981 88.1641L138.997 88.1455C139.541 86.6369 140.051 85.035 140.132 83.6478H140.297C146.042 83.794 145.958 87.4643 143.753 92.7332Z" fill="#007DE2"/>
<path d="M122.512 91.0629C122.583 98.4811 126.496 101.343 130.431 101.417C134.032 101.486 136.779 98.9477 136.798 95.4361C136.813 92.3693 134.228 86.8858 131.071 86.8173C128.397 86.7582 123.33 88.9665 122.512 91.0629Z" fill="#007DE2"/>
<path d="M140.458 83.679H140.287H140.122C140.143 83.4005 140.143 83.1209 140.122 82.8423C140.878 82.8019 142.663 82.3291 144.246 82.3633C146.828 82.4224 148.626 83.9558 148.601 86.92C148.601 89.7193 147.086 93.1406 146.001 95.461L145.873 95.5574C145.207 94.6834 144.455 93.7721 143.646 92.8608L143.752 92.7643C145.907 87.5794 146.05 83.7941 140.458 83.679Z" fill="#007DE2"/>
<path d="M140.131 83.312C140.131 84.8392 139.509 86.693 138.987 88.1455L138.971 88.1641C137.442 86.7862 135.809 85.529 134.085 84.4037C134.756 82.9588 135.283 81.4513 135.659 79.9031C135.817 79.9435 135.621 79.9031 136.281 79.9031C138.679 79.9715 140.144 80.9264 140.131 83.312Z" fill="#007DE2"/>
<path d="M139.697 121.156C139.529 121.156 139.354 121.156 139.171 121.156C139.392 118.804 139.364 116.369 139.482 114.54L139.665 114.229C141.043 115.51 141.899 116.717 141.892 117.837C141.869 118.539 141.651 119.22 141.263 119.806C140.876 120.392 140.333 120.859 139.697 121.156Z" fill="#007DE2"/>
<path d="M129.601 99.1653C125.735 99.3302 122.541 95.7066 122.759 91.5729C122.964 87.5917 126.292 84.9012 129.831 85.6633C132.684 86.2511 134.982 88.9261 135.24 92.1515C135.536 95.8372 133.057 99.0191 129.601 99.1653Z" fill="#FFD167"/>
<path d="M133.395 109.405L133.299 109.538C132.727 114.649 133.405 127.578 126.126 126.365C125.341 126.212 124.569 125.995 123.819 125.718H123.529C126.195 121.927 124.851 114.4 128.052 105.601L128.164 105.464C129.884 106.87 131.675 108.179 133.395 109.405Z" fill="#007DE2"/>
<path d="M137.811 112.751C136.878 118.515 137.79 125.532 130.319 125.429H130.045L129.858 125.354C133.174 122.316 132.835 113.691 133.298 109.544L133.395 109.411C135.015 110.571 136.555 111.656 137.864 112.686L137.811 112.751Z" fill="#007DE2"/>
<path d="M133.7 128.953C131.078 128.919 128.223 127.51 126.123 126.428V126.365C126.781 126.5 127.462 126.479 128.111 126.302C128.759 126.125 129.357 125.799 129.855 125.348L130.042 125.423H130.316C137.781 125.526 136.848 118.509 137.809 112.745L137.862 112.674C138.53 113.196 139.14 113.703 139.669 114.198L139.485 114.509C139.14 119.613 139.933 129.034 133.7 128.953Z" fill="#007DE2"/>
<path d="M126.325 57.8475L121.647 71.1567L113.793 71.5517L105.604 61.9625L122.085 54.2955L126.325 57.8475Z" fill="#FF9B4A"/>
<path d="M126.251 138.11C126.251 139.099 125.408 140.073 123.763 140.054C121.486 140.029 116.69 137.308 116.699 135.277C116.699 134.49 117.1 133.768 117.439 133.034L117.545 132.994C118.049 134.073 118.721 134.549 119.931 134.359C120.796 134.228 121.175 133.485 121.278 132.54H121.312C123.004 133.942 126.264 136.138 126.251 138.11Z" fill="white"/>
<path d="M122.086 54.2955L105.604 61.9625L89.4707 61.0481L97.7442 58.538L106.693 58.6656L122.086 54.2955Z" fill="#FFD167"/>
<path d="M119.94 134.378C117.262 134.782 117.383 131.924 115.999 128.344C115.999 128.291 118.581 128.592 120.789 127.787C120.814 128.586 122.425 133.983 119.94 134.378Z" fill="#FFD167"/>
<path d="M110.816 90.5436C111.145 90.5397 111.47 90.608 111.769 90.7439C112.068 90.8798 112.333 91.0799 112.546 91.3299C112.759 91.5798 112.914 91.8736 113 92.1904C113.087 92.5071 113.103 92.839 113.047 93.1625C112.925 93.8656 112.56 94.5031 112.014 94.9625C111.468 95.4218 110.777 95.6734 110.064 95.6726C109.735 95.6775 109.409 95.6098 109.11 95.4743C108.81 95.3388 108.544 95.1388 108.331 94.8886C108.118 94.6384 107.962 94.3442 107.876 94.027C107.789 93.7098 107.774 93.3774 107.83 93.0536C107.953 92.3506 108.32 91.7133 108.866 91.2541C109.412 90.7949 110.103 90.5433 110.816 90.5436Z" fill="#163050"/>
<path d="M109.374 105.451C109.465 105.779 109.509 106.119 109.505 106.459C109.505 109.42 107.032 112.478 102.202 112.397C98.6964 112.338 93.5394 110.727 93.5549 107.305C93.5429 106.903 93.6203 106.502 93.7817 106.133C93.943 105.764 94.1843 105.436 94.488 105.172C94.8488 105.172 102.012 107.75 109.256 105.483L109.374 105.451Z" fill="#163050"/>
<path d="M109.375 105.451C107.129 106.151 104.784 106.476 102.432 106.416C99.7404 106.34 97.0689 105.922 94.4824 105.172C95.204 104.549 96.2771 104.266 97.4559 104.288C103.173 104.391 102.995 102.932 105.919 102.985C107.518 103.01 108.945 103.918 109.375 105.451Z" fill="white"/>
<path d="M109.34 75.8285L103.3 77.3184L103.667 73.5859L109.34 75.8285Z" fill="#163050"/>
<path d="M100.468 90.3538C101.712 92.0054 100.188 94.6522 97.8897 94.6056C97.5601 94.6104 97.2335 94.5426 96.9331 94.4068C96.6327 94.271 96.3658 94.0706 96.1517 93.8199C95.9376 93.5693 95.7813 93.2744 95.6941 92.9565C95.6069 92.6385 95.5909 92.3053 95.6472 91.9805C95.7183 91.5506 95.8827 91.1416 96.1288 90.7821C96.3749 90.4226 96.6967 90.1214 97.0717 89.8997L100.468 90.3538Z" fill="#163050"/>
<path d="M100.469 90.3538L97.0723 89.8997C98.304 89.1532 99.7471 89.3958 100.469 90.3538Z" fill="#163050"/>
<path d="M97.4895 82.693L98.5875 87.2093L89.5488 85.8376L90.9112 81.959L97.4895 82.693Z" fill="#163050"/>
<path d="M97.7433 58.538L89.4698 61.0481L78.7422 52.4635L97.7433 58.538Z" fill="#FFBF4A"/>
<path d="M90.4381 72.6746L90.7149 76.3759L84.6436 74.4692L90.4381 72.6746Z" fill="#163050"/>
<path d="M89.4712 61.0481L84.4075 68.5502L79.9255 67.9903L77.3408 55.5023L78.7436 52.4635L89.4712 61.0481Z" fill="#FFBF4A"/>
<path opacity="0.5" d="M145.889 112.055C144.583 115.299 144.21 121.096 139.697 121.156C140.338 120.858 140.884 120.388 141.273 119.797C141.662 119.206 141.879 118.519 141.899 117.812C141.899 115.828 139.068 113.579 137.457 112.363C137.988 111.675 138.464 110.947 138.882 110.185C140.104 107.84 139.958 105.165 141.118 102.87C142.546 100.042 144.913 98.3505 145.522 95.0691C146.645 96.4719 148.729 99.3613 148.944 101.144C149.345 104.811 148.25 106.192 145.889 112.055Z" fill="#007DE2"/>
<path d="M119.941 134.378C118.264 134.633 117.68 133.594 117.142 131.952C117.742 131.516 118.467 130.844 118.619 128.421C118.6 128.372 118.582 128.325 118.566 128.275C119.319 128.202 120.061 128.038 120.775 127.787C120.815 128.586 122.426 133.983 119.941 134.378Z" fill="#FFBF4A"/>
<path d="M126.146 137.457C123.605 135.339 122.015 135.006 118.706 134.754C118.563 134.59 118.487 134.378 118.495 134.16C118.938 134.396 119.45 134.468 119.941 134.362C120.806 134.231 121.185 133.488 121.288 132.543H121.322C122.986 133.93 125.592 135.709 126.146 137.457Z" fill="#DAEBED"/>
<path d="M81.1281 85.5452L80.2229 91.1781C80.1628 91.5514 79.9868 91.8962 79.7201 92.1641C79.4533 92.432 79.1091 92.6093 78.7361 92.671L77.2432 100.351L77.8994 100.926C78.2496 101.226 78.472 101.649 78.5215 102.108L78.6459 103.312L79.8496 102.904L82.5806 85.2L81.1281 85.5452Z" fill="#A183FF"/>
<path d="M82.4816 96.1204C82.4816 97.7347 81.3308 99.1499 79.0602 99.3552C76.4506 99.5791 74.5472 97.6694 74.5596 95.0816C74.5697 94.6164 74.6801 94.1589 74.8834 93.7404C75.0868 93.3219 75.3782 92.9522 75.7377 92.6568C76.0972 92.3614 76.5164 92.1473 76.9664 92.0289C77.4164 91.9106 77.8866 91.8909 78.3449 91.9712L78.2734 92.7737C78.2607 92.9812 78.2973 93.1888 78.38 93.3796C78.4627 93.5704 78.5891 93.739 78.7492 93.8717C79.9031 94.8265 82.4909 94.1889 82.4816 96.1204Z" fill="white"/>
<path d="M82.4822 96.1202C82.4822 97.7345 81.3313 99.1497 79.0608 99.355C78.1257 99.4672 77.1812 99.244 76.3953 98.7252C75.6093 98.2063 75.0328 97.4254 74.7686 96.5215C74.8251 96.45 74.8854 96.3814 74.949 96.3162L74.9769 96.2944C77.0329 97.3706 78.6347 96.8543 79.1479 94.5619C79.4559 94.4953 79.7675 94.4465 80.0811 94.4158C81.3345 94.705 82.4884 94.7952 82.4822 96.1202Z" fill="#DAEBED"/>
<path d="M86.5381 91.2247C86.3619 91.797 86.1857 92.3755 86.0094 92.9603L85.9534 92.9416C84.4604 92.9416 82.8275 93.6849 81.5491 94.786C81.3061 94.6957 81.0566 94.6239 80.8027 94.5714C80.7145 94.3761 80.6709 94.1636 80.6751 93.9493C80.6766 93.6165 80.802 93.296 81.0267 93.0504H81.0516C83.7016 91.6197 85.857 91.1842 86.3173 91.1842C86.3926 91.1854 86.4672 91.1991 86.5381 91.2247Z" fill="#DAEBED"/>
<path d="M119.573 93.5293L119.262 93.5605L107.104 87.8467L100.774 90.3941L100.463 90.3537C99.7384 89.3926 98.2859 89.1562 97.0666 89.8996L87.9626 88.6928L84.8212 84.9604L78.2894 85.9245L75.3408 80.1238L83.1167 80.413L89.5365 85.825L98.5752 87.1936L107.265 83.0786L119.421 92.4812C119.464 92.842 119.511 93.1903 119.573 93.5293Z" fill="#FFBF4A"/>
<path d="M119.573 93.5294L119.262 93.5605L114.656 91.3833C114.273 85.0631 118.479 80.3913 126.317 79.9932L127.337 81.934V82.1362C121.788 82.5935 118.547 87.9246 119.573 93.5294Z" fill="#FFBF4A"/>
<path opacity="0.4" d="M124.552 123.56C123.899 125.619 122.795 127.043 120.789 127.771C115.084 129.855 105.679 125.861 99.7006 123.417C98.9758 123.121 88.7738 121.286 84.043 116.885C86.0491 114.674 91.147 113.153 93.685 113.196C95.4978 113.255 97.2802 113.678 98.926 114.44C106.245 117.656 107.862 125.448 117.467 125.578C119.979 125.647 122.453 124.942 124.552 123.56Z" fill="#009BE2"/>
<path d="M129.601 99.1654C125.735 99.3303 122.541 95.7067 122.759 91.573C127.39 100.217 137.1 92.4533 129.57 85.6385H129.819C132.671 86.2264 134.97 88.9013 135.228 92.1267C135.536 95.8373 133.057 99.0193 129.601 99.1654Z" fill="#FFBF4A"/>
<path d="M100.031 127.846C100.316 128.062 100.558 128.33 100.743 128.636C101.182 130.63 100.121 131.644 98.2208 131.619C93.6797 131.563 92.1463 132.533 89.5958 132.403C88.4419 132.048 87.9598 131.215 87.9629 130.306C87.9785 127.177 91.6953 126.456 94.8398 126.499C95.3375 126.499 95.8352 126.537 96.3204 126.589" stroke="#163050" stroke-width="1.47925" stroke-linecap="round" stroke-linejoin="round"/>
<path d="M87.4893 88.2512C83.2313 101.184 81.9063 112.332 81.9063 112.577C81.8752 118.761 89.1223 119.224 96.7458 122.219C103.884 125.062 114.528 130.054 120.789 127.765C127.1 125.479 124.083 116.496 128.051 105.591" stroke="#163050" stroke-width="1.47925" stroke-linecap="round" stroke-linejoin="round"/>
<path d="M134.163 84.301C134.894 82.6027 135.873 80.0491 135.883 78.1985C135.911 72.7429 128.595 72.7212 123.171 73.505" stroke="#163050" stroke-width="1.47925" stroke-linecap="round" stroke-linejoin="round"/>
<path d="M135.718 79.9186C138.545 79.8253 140.262 80.8144 140.113 83.651C140.032 85.0351 139.522 86.6401 138.977 88.1486" stroke="#163050" stroke-width="1.47925" stroke-linecap="round" stroke-linejoin="round"/>
<path d="M140.288 83.679C146.042 83.8096 145.958 87.4798 143.753 92.7487" stroke="#163050" stroke-width="1.47925" stroke-linecap="round" stroke-linejoin="round"/>
<path d="M140.291 82.8019C141.467 82.6278 142.91 82.3043 144.238 82.3323C146.82 82.3914 148.617 83.9248 148.593 86.889C148.593 89.6883 147.078 93.1097 145.992 95.43" stroke="#163050" stroke-width="1.47925" stroke-linecap="round" stroke-linejoin="round"/>
<path d="M123.817 125.718C124.806 126.048 125.858 126.424 126.928 126.437C133.357 126.527 132.722 114.792 133.31 109.538" stroke="#163050" stroke-width="1.47925" stroke-linecap="round" stroke-linejoin="round"/>
<path d="M130.045 125.423H130.319C137.784 125.526 136.85 118.509 137.812 112.745" stroke="#163050" stroke-width="1.47925" stroke-linecap="round" stroke-linejoin="round"/>
<path d="M126.123 126.428C134.145 130.561 138.322 130.16 139.187 121.14C139.407 118.789 139.379 116.353 139.498 114.524" stroke="#163050" stroke-width="1.47925" stroke-linecap="round" stroke-linejoin="round"/>
<path d="M139.687 121.159C139.718 121.128 141.886 120.173 141.899 117.812C141.93 112.002 119.321 104.618 119.386 91.4113C119.411 86.2326 123 81.9994 128.312 82.1207C131.712 82.1985 136.44 85.9153 138.972 88.1641C141.496 90.398 143.807 92.8628 145.873 95.5263C147.622 97.8093 148.785 99.859 148.931 101.15C149.348 104.811 148.25 106.192 145.889 112.055C144.514 115.476 144.191 121.51 139.171 121.14H139.14" stroke="#163050" stroke-width="1.47925" stroke-linecap="round" stroke-linejoin="round"/>
<path d="M135.24 92.1391C134.951 88.5311 132.105 85.6074 128.783 85.5327C125.361 85.455 122.606 88.4285 122.755 92.2573C122.907 96.1857 126.024 99.3178 129.598 99.1654C133.056 99.0192 135.535 95.8373 135.24 92.1391Z" stroke="#163050" stroke-width="1.47925" stroke-linecap="round" stroke-linejoin="round"/>
<path d="M94.4802 105.165C94.1765 105.43 93.9354 105.758 93.774 106.127C93.6126 106.496 93.5351 106.897 93.5471 107.299C93.5471 110.72 98.6886 112.332 102.194 112.391C107.024 112.472 109.485 109.414 109.497 106.453C109.497 104.372 107.892 103.032 105.911 102.979C102.987 102.926 103.164 104.385 97.4475 104.282C96.2749 104.26 95.2018 104.54 94.4802 105.165Z" stroke="#163050" stroke-width="1.47925" stroke-linecap="round" stroke-linejoin="round"/>
<path d="M94.4824 105.165C94.8432 105.165 102.006 107.744 109.25 105.476" stroke="#163050" stroke-width="1.47925" stroke-linecap="round" stroke-linejoin="round"/>
<path d="M115.999 128.328C117.383 131.908 117.265 134.767 119.94 134.362C122.428 133.983 120.814 128.586 120.789 127.771" stroke="#163050" stroke-width="1.47925" stroke-linecap="round" stroke-linejoin="round"/>
<path d="M117.447 133.037C117.108 133.771 116.71 134.493 116.707 135.28C116.707 137.311 121.494 140.032 123.771 140.057C125.407 140.076 126.259 139.102 126.259 138.113C126.259 136.16 123.205 134.104 121.329 132.549" stroke="#163050" stroke-width="1.47925" stroke-linecap="round" stroke-linejoin="round"/>
<path d="M87.0355 89.4642C85.0382 89.5795 83.1262 90.3132 81.5645 91.5637" stroke="#163050" stroke-width="1.47925" stroke-linecap="round" stroke-linejoin="round"/>
<path d="M85.9531 92.9417C84.4602 92.9417 82.8272 93.6819 81.5488 94.7861" stroke="#163050" stroke-width="1.47925" stroke-linecap="round" stroke-linejoin="round"/>
<path d="M78.7492 93.8841C79.9031 94.8172 82.4816 94.1951 82.4816 96.1204C82.4805 96.8019 82.257 97.4645 81.8449 98.0074C81.4329 98.5503 80.8548 98.9438 80.1986 99.1281C77.2998 100.086 74.5472 98.2416 74.5596 95.0846C74.5697 94.6194 74.6801 94.1619 74.8834 93.7434C75.0867 93.3249 75.3782 92.9553 75.7377 92.6599C76.0972 92.3645 76.5163 92.1503 76.9663 92.032C77.4163 91.9136 77.8866 91.8939 78.3449 91.9743" stroke="#163050" stroke-width="1.47925" stroke-linecap="round" stroke-linejoin="round"/>
<path d="M78.8711 85.8966C78.8711 86.0552 78.2677 92.8638 78.2739 92.7861C78.2613 92.9936 78.2978 93.2012 78.3805 93.392C78.4632 93.5827 78.5897 93.7513 78.7497 93.884C78.8424 93.9654 78.9474 94.0315 79.0608 94.0799" stroke="#163050" stroke-width="1.47925" stroke-linecap="round" stroke-linejoin="round"/>
<path d="M80.7891 94.5465L82.3505 85.6447" stroke="#163050" stroke-width="1.47925" stroke-linecap="round" stroke-linejoin="round"/>
<path d="M77.3236 99.1685L77.1184 102.002C77.0904 103.43 79.2614 103.868 79.5444 102.49L80.1976 99.1281" stroke="#163050" stroke-width="1.47925" stroke-linecap="round" stroke-linejoin="round"/>
<path d="M127.32 81.9465L121.644 71.1568L126.325 57.8476L122.086 54.2956L106.689 58.6501L97.7408 58.5226L78.7428 52.4449L77.3401 55.4869L79.9216 67.9718L75.3027 80.0275L78.3012 85.9371L84.8329 84.9729L87.9744 88.7053L100.78 90.4067L107.109 87.8593L119.255 93.5731" stroke="#163050" stroke-width="1.47925" stroke-linecap="round" stroke-linejoin="round"/>
<path d="M78.7422 52.4635L89.4698 61.0481L84.4061 68.5502L79.9241 67.9904" stroke="#163050" stroke-width="1.47925" stroke-linecap="round" stroke-linejoin="round"/>
<path d="M122.085 54.2955L105.604 61.9625L113.793 71.5517L121.647 71.1567" stroke="#163050" stroke-width="1.47925" stroke-linecap="round" stroke-linejoin="round"/>
<path d="M105.604 61.9626L89.4707 61.0481L97.7442 58.5381" stroke="#163050" stroke-width="1.47925" stroke-linecap="round" stroke-linejoin="round"/>
<path d="M97.4893 82.693L104.03 67.5861" stroke="#163050" stroke-width="1.47925" stroke-linecap="round" stroke-linejoin="round"/>
<path d="M90.3701 63.8257L90.9113 81.959" stroke="#163050" stroke-width="1.47925" stroke-linecap="round" stroke-linejoin="round"/>
<path d="M90.9112 81.959L89.5488 85.8376L98.5875 87.2093L97.4895 82.693L90.9112 81.959Z" stroke="#163050" stroke-width="1.47925" stroke-linecap="round" stroke-linejoin="round"/>
<path d="M103.667 73.5859L103.3 77.3184L109.34 75.8285L103.667 73.5859Z" stroke="#163050" stroke-width="1.47925" stroke-linecap="round" stroke-linejoin="round"/>
<path d="M90.4381 72.6746L84.6436 74.4692L90.7149 76.3759L90.4381 72.6746Z" stroke="#163050" stroke-width="1.47925" stroke-linecap="round" stroke-linejoin="round"/>
<path d="M77.8477 80.4255H83.129L84.8242 84.9729" stroke="#163050" stroke-width="1.47925" stroke-linecap="round" stroke-linejoin="round"/>
<path d="M88.0836 97.2401C87.4616 99.3116 86.8208 101.377 86.2578 103.461" stroke="white" stroke-width="1.31526" stroke-linecap="round" stroke-linejoin="round"/>
<path d="M85.7197 105.542C85.67 105.934 85.6109 106.325 85.5518 106.717" stroke="white" stroke-width="1.31526" stroke-linecap="round" stroke-linejoin="round"/>
<path fill-rule="evenodd" clip-rule="evenodd" d="M80.4676 159.999C124.65 159.74 160.256 123.713 159.998 79.5314C159.739 35.3494 123.712 -0.257377 79.5305 0.00140164C35.3485 0.26018 -0.258353 36.2866 0.00042508 80.4686C0.259203 124.651 36.2856 160.257 80.4676 159.999ZM11.1244 53.4891C12.1987 51.3407 13.4268 48.8843 14.7667 45.9612C19.26 36.158 26.0359 34.002 32.0328 32.094C36.7663 30.5879 41.0145 29.2363 43.2715 24.4C48.3877 13.4366 53.6442 19.3751 51.235 22.5175C48.8259 25.6599 52.911 34.4586 61.0812 28.4881C65.5525 25.2206 74.1746 28.3857 82.6873 31.5107C89.7298 34.096 96.6974 36.6537 101.178 35.5193C108.842 33.5792 108.168 28.2591 107.648 24.1535C107.496 22.9568 107.357 21.8633 107.442 20.9868C107.818 17.1031 117.59 14.7227 117.59 25.4969C117.59 32.0531 120.976 32.6714 125.237 33.4492C127.978 33.9496 131.081 34.5161 133.876 36.7721C134.042 36.906 134.211 37.0417 134.381 37.1791C141.557 42.9585 152.721 51.9511 149.662 68.5934C147.944 77.9388 149.58 80.6506 151.181 83.303C152.499 85.4863 153.792 87.6294 153.17 93.399C152.444 100.132 148.796 103.213 145.067 106.363C141.719 109.19 138.306 112.073 136.883 117.703C136.274 120.114 135.824 122.319 135.415 124.325C133.805 132.222 132.825 137.028 125.232 139.126C122.338 139.926 118.08 142.16 113.123 144.76C101.771 150.716 86.7613 158.59 76.1221 155.538C68.7435 153.421 63.9635 150.283 59.7523 147.517C55.2403 144.555 51.3813 142.021 45.6789 141.632C34.6542 140.88 24.1306 135.243 21.625 124.97C19.1194 114.697 17.4907 108.182 10.2245 100.039C6.19034 95.5179 8.13946 92.8224 10.1138 90.0922C11.6956 87.9046 13.2937 85.6947 11.8435 82.5056C4.22977 67.2784 5.75235 64.2332 11.1244 53.4891Z" fill="#FFBF4A"/>
<path d="M70.2477 29.9396C70.1795 31.0815 68.7985 31.4291 67.9258 31.4808C67.774 30.7524 67.5772 30.0383 67.4055 29.3174L67.2697 29.1973C67.8254 28.8208 68.45 28.5832 69.0151 28.6884C69.6258 28.8088 70.285 29.2811 70.2477 29.9396Z" fill="#BB5D06"/>
<path d="M81.481 25.0184C82.2908 25.1623 83.0453 26.3327 83.3138 27.4717C82.1359 27.5117 80.9675 27.6974 79.8352 28.0245L79.5748 27.9834C79.7946 26.4732 80.3644 24.8235 81.481 25.0184Z" fill="#BB5D06"/>
<path d="M92.6036 35.0751C92.5962 35.1219 92.778 35.1026 90.3377 34.6053C90.3373 34.5902 90.3397 34.5752 90.3447 34.561C90.4707 32.0728 91.9598 30.0425 93.393 28.1475C93.7703 30.6085 93.2269 32.7321 92.6036 35.0751Z" fill="#BB5D06"/>
<path d="M63.4161 38.6053C63.2496 39.8625 60.9096 39.9466 60.4654 39.8365C59.2396 39.5389 59.071 37.9541 58.5463 35.8861C58.0219 36.2836 57.4669 36.6389 56.9189 36.5097C55.7714 36.2405 55.0335 34.1201 55.1024 32.5514C55.1635 31.1336 55.629 30.4492 59.3846 29.4599L61.0418 28.8837C61.5936 28.5999 62.3812 28.2252 62.9784 28.3462C64.1812 28.5868 65.041 31.7937 64.9868 32.8471C64.8782 34.8365 62.6121 33.9291 62.5403 35.3132C62.5036 36.0359 63.5176 37.4047 63.4161 38.6053Z" fill="white"/>
<path d="M71.8863 33.1064L71.8443 33.0518C72.8209 32.1387 73.5861 30.9253 73.67 29.5831C73.7857 27.7176 72.358 25.2002 69.4373 24.6698C66.8282 24.1938 63.885 25.3781 61.9111 27.1317C62.0727 27.4828 62.2255 27.8386 62.3695 28.1993L62.368 28.3619C62.5684 28.315 62.7762 28.3096 62.9787 28.3462C64.1815 28.5868 65.0413 31.7937 64.9871 32.8471C64.8785 34.8365 62.6123 33.929 62.5406 35.3132C62.5039 36.0358 63.5178 37.4046 63.4163 38.6053L63.5465 38.6259C65.0625 39.164 66.8369 40.2126 68.2632 39.2904C68.2915 38.908 68.3191 38.5308 68.3548 38.1522C68.4972 38.5856 68.8551 39.4452 69.2046 39.5297C69.2203 39.5322 72.9454 39.3946 74.2484 37.8846C73.5452 36.2516 72.7568 34.6567 71.8863 33.1064ZM67.9354 31.4794C67.7835 30.751 67.5867 30.0369 67.415 29.316L67.2792 29.1959C67.7867 28.8545 68.4256 28.5764 69.0245 28.687C69.6234 28.7976 70.2945 29.2797 70.2556 29.9486C70.1812 31.0789 68.8084 31.4251 67.9354 31.4794Z" fill="white"/>
<path d="M84.5616 31.6763L84.2541 31.545C87.3584 30.9972 88.3486 31.519 88.6018 28.2931C88.6379 27.7776 88.6241 27.2598 88.5604 26.747C88.2035 23.6835 86.2547 19.9552 82.7515 19.4128C78.7579 18.7824 75.7581 21.9643 74.5787 26.3595C72.8161 32.8425 75.5417 36.7041 79.9068 37.6681C82.8255 38.313 84.5574 37.6018 86.7447 35.7298C86.1842 34.2938 85.3085 32.9789 84.5616 31.6763ZM79.8364 28.0246L79.576 27.9835C79.7992 26.4685 80.3639 24.8179 81.4857 25.0137C82.2955 25.1576 83.0499 26.328 83.3183 27.467C82.1391 27.5083 80.9695 27.6956 79.8364 28.0246Z" fill="white"/>
<path d="M99.6834 25.1223C99.9063 21.5634 98.8274 20.4031 95.2641 19.9206C92.3667 19.5299 90.893 20.9889 89.8965 23.0756C89.3723 24.2655 88.932 25.4906 88.5786 26.7418L88.5604 26.739C88.6241 27.2518 88.6379 27.7696 88.6018 28.2851C88.3591 31.5127 87.3584 30.9892 84.2541 31.537L84.5616 31.6683C85.3085 32.9709 86.1843 34.2858 86.7447 35.7218C85.2758 36.9814 83.9826 37.7699 82.2525 37.8783L82.2578 37.9458C81.9595 38.5555 81.7758 39.2148 81.716 39.8909C81.6317 41.7773 84.1502 42.2522 85.9895 42.652C86.6567 42.8398 87.3667 42.8069 88.0136 42.558C88.2899 41.3823 88.7099 39.1272 90.0812 39.4157C90.632 39.5267 91.9974 40.3773 91.9438 41.3587C91.8836 42.4672 90.6134 44.1744 92.8031 44.6535C93.04 44.6909 93.2822 44.7292 93.4815 44.7847C93.6809 44.8402 94.0327 44.9438 94.5459 45.0568C98.72 45.9799 99.341 30.5702 99.6834 25.1223ZM90.3364 34.6051C90.336 34.5901 90.3384 34.5751 90.3434 34.5609C90.4694 32.0726 91.9586 30.0424 93.3917 28.1474C93.7716 30.6088 93.2385 32.7179 92.6075 35.0758C92.5897 35.121 92.7725 35.1124 90.3364 34.6051Z" fill="white"/>
<path d="M112.488 34.8308C111.563 34.6581 110.579 34.2627 109.728 34.2137C104.951 44.6795 107.406 46.844 102.334 45.1682C100.305 44.4983 99.2084 43.6528 98.6536 43.1277C96.491 41.0572 98.656 40.9481 101.948 30.3386L101.492 30.0132C99.4609 29.7992 97.808 29.1647 97.9923 27.1526C98.1013 25.9718 99.3375 20.0006 102.12 20.4105C104.185 20.7152 104.88 21.38 108.174 21.8627C109.712 22.0921 112.495 22.3447 113.465 22.4872C116.01 22.8675 118.919 24.1485 118.632 26.6888C118.483 28.1274 116.295 35.5465 112.488 34.8308Z" fill="white"/>
<path d="M99.3788 22.0057C98.2398 23.5416 96.7104 25.5735 96.2137 27.4188C95.7433 29.1643 96.1941 30.7537 98.784 31.6215C99.9064 28.7542 97.2553 29.1869 98.23 25.5812C98.4897 24.6296 99.3691 22.5245 99.3078 22.5068C99.3289 22.3394 99.3551 22.1728 99.3788 22.0057Z" fill="#DAEBED"/>
<path d="M65.8121 36.5904C65.6233 37.5274 65.5887 38.4891 65.7096 39.4373C64.9715 39.2113 64.2314 38.8624 63.5468 38.6182L63.4167 38.5977C63.519 37.3918 62.503 36.036 62.5409 35.3055C62.6127 33.9214 64.8788 34.8288 64.9874 32.8394C65.0425 31.7808 64.1818 28.5791 62.9791 28.3385C62.7765 28.3019 62.5687 28.3073 62.3683 28.3542L62.3698 28.1917C62.2243 27.8289 62.0716 27.4731 61.9114 27.1241C62.7025 26.4237 63.5932 25.8449 64.5545 25.4067C67.4233 27.0096 68.4359 29.8404 67.7631 32.4798C67.3489 34.1061 66.2097 35.0522 65.8121 36.5904Z" fill="#DAEBED"/>
<path d="M76.1808 30.2546C75.8893 31.3746 75.1934 32.2333 74.2783 32.3343C73.8261 30.4832 74.077 28.2015 74.579 26.3569C76.0095 27.1831 76.672 28.3603 76.1808 30.2546Z" fill="#DAEBED"/>
<path d="M90.1676 34.669C89.4643 37.2983 86.0663 41.3806 82.1046 41.0887C81.8271 40.7567 81.6879 40.3306 81.7161 39.8987C81.776 39.2226 81.9596 38.5633 82.258 37.9537L82.2526 37.8861C83.9827 37.7777 85.2759 36.9893 86.7448 35.7296C86.1844 34.2937 85.3113 32.9792 84.5617 31.6762L84.2543 31.5449C87.3585 30.997 88.3488 31.5189 88.6019 28.2929C88.6381 27.7774 88.6242 27.2597 88.5606 26.7468C88.6346 26.7345 89.1262 24.7015 89.8975 23.0783C89.9318 23.1477 89.9667 23.2146 90.0041 23.2819C91.022 25.1662 91.8272 27.452 91.2605 29.5718C91.0648 30.304 90.7307 31.0011 90.5354 31.7307C90.2403 32.8394 90.4576 33.5755 90.1676 34.669Z" fill="#DAEBED"/>
<path d="M79.7361 33.0196C81.7329 33.6232 83.7842 34.0293 85.8604 34.2319C85.3535 33.3354 84.889 32.4242 84.399 31.5224C82.7642 31.331 81.1853 32.2905 79.7361 33.0196Z" fill="#DAEBED"/>
<path d="M104.433 30.1037C103.48 33.0693 101.826 35.7611 99.6106 37.9502C99.5138 37.7954 99.4268 37.6347 99.3504 37.4689C100.348 35.1416 101.218 32.7618 101.957 30.3399C102.761 30.1132 103.6 30.0332 104.433 30.1037Z" fill="#DAEBED"/>
<path d="M59.4647 35.2065C58.7116 35.6667 57.7986 36.7179 56.9189 36.5097C55.7714 36.2405 55.0335 34.1201 55.1024 32.5514C55.1635 31.1336 55.629 30.4492 59.3846 29.4599L61.0418 28.8837C61.5936 28.5999 62.3812 28.2252 62.9784 28.3462C64.1812 28.5868 65.041 31.7937 64.9868 32.8471C64.8782 34.8365 62.6121 33.9291 62.5403 35.3132C62.5032 36.0385 63.5202 37.4051 63.4161 38.6053C63.2496 39.8625 60.9096 39.9466 60.4654 39.8365C59.1345 39.5117 59.0092 37.5681 58.526 35.7948" stroke="#163050" stroke-width="1.85197" stroke-linecap="round" stroke-linejoin="round"/>
<path d="M69.9197 34.3356C71.7339 33.5254 73.544 31.6605 73.67 29.5778C73.7857 27.7123 72.358 25.195 69.4373 24.6645C66.8282 24.1886 63.885 25.3729 61.9111 27.1265C62.0727 27.4775 62.2255 27.8334 62.3695 28.1941" stroke="#163050" stroke-width="1.85197" stroke-linecap="round" stroke-linejoin="round"/>
<path d="M63.5469 38.6182C65.0629 39.1564 66.8373 40.2049 68.2636 39.2827C68.2919 38.9003 68.3195 38.5231 68.3552 38.1445C68.4976 38.5779 68.8555 39.4376 69.205 39.5221C69.2206 39.5246 72.9458 39.3869 74.2488 37.8769C73.5441 36.2464 72.7543 34.6539 71.8828 33.1061" stroke="#163050" stroke-width="1.85197" stroke-linecap="round" stroke-linejoin="round"/>
<path d="M67.4064 29.3175C67.5781 30.0383 67.7723 30.752 67.9267 31.4808C68.7994 31.4292 70.1804 31.0815 70.2486 29.9396C70.2858 29.2811 69.6267 28.8088 69.0176 28.678C68.0914 28.4944 67.0221 29.2675 66.3734 29.9629" stroke="#163050" stroke-width="1.85197" stroke-linecap="round" stroke-linejoin="round"/>
<path d="M79.8328 32.8616C86.4888 30.0808 88.253 32.7313 88.6015 28.293C88.6376 27.7775 88.6238 27.2597 88.5601 26.7469C88.2032 23.6835 86.2544 19.9551 82.7512 19.4127C77.8418 18.6511 74.4349 23.6178 74.0589 29.5486C73.7707 34.0952 76.3689 36.8881 79.9053 37.6758C82.8266 38.3211 84.5559 37.6095 86.7432 35.7375C86.1827 34.3016 85.3096 32.987 84.5601 31.684" stroke="#163050" stroke-width="1.85197" stroke-linecap="round" stroke-linejoin="round"/>
<path d="M79.3919 30.2945C79.4545 29.3572 79.4557 28.7917 79.5719 27.9882C79.795 26.4732 80.3598 24.8227 81.4815 25.0184C82.2913 25.1623 83.0458 26.3327 83.3143 27.4717C82.1364 27.5117 80.968 27.6974 79.8357 28.0245" stroke="#163050" stroke-width="1.85197" stroke-linecap="round" stroke-linejoin="round"/>
<path d="M99.4038 29.5662C98.9305 36.2661 97.8525 45.7817 94.5567 45.0586C94.0409 44.9451 93.6902 44.8337 93.4922 44.7864C92.7386 44.6248 91.4699 44.5659 91.536 43.2849C91.5709 42.6581 91.9212 41.9609 91.9546 41.3605C92.0081 40.3791 90.6428 39.5285 90.092 39.4175C88.7194 39.1368 88.2995 41.3919 88.0244 42.5598C87.3775 42.8087 86.6675 42.8416 86.0003 42.6538C82.4714 41.8859 80.7875 41.2279 82.2686 37.9476" stroke="#163050" stroke-width="1.85197" stroke-linecap="round" stroke-linejoin="round"/>
<path d="M88.5786 26.7445C89.7295 23.0546 90.8392 19.3208 95.2593 19.9199C97.6288 20.2406 98.8998 20.8602 99.4224 22.2822" stroke="#163050" stroke-width="1.85197" stroke-linecap="round" stroke-linejoin="round"/>
<path d="M95.1824 35.6262C93.3504 35.281 92.0066 34.9541 90.3397 34.5949C90.3393 34.5798 90.3416 34.5648 90.3466 34.5506C90.4726 32.0624 91.9618 30.0321 93.395 28.1371C93.7774 30.5989 93.2341 32.7225 92.6107 35.0655" stroke="#163050" stroke-width="1.85197" stroke-linecap="round" stroke-linejoin="round"/>
<path d="M101.962 30.322C98.668 40.9259 96.503 41.051 98.6634 43.1184C99.2104 43.6424 100.315 44.4891 102.344 45.159C107.416 46.8348 104.961 44.6703 109.738 34.2045C110.582 34.2631 111.575 34.6493 112.498 34.8216C116.302 35.5369 118.492 28.1182 118.654 26.6734C118.943 24.1283 116.031 22.8521 113.487 22.4718C112.519 22.3189 109.734 22.0767 108.196 21.8473C104.903 21.3568 104.207 20.6998 102.141 20.3952C99.3591 19.9853 98.1228 25.9564 98.0137 27.1372C97.8291 29.1519 99.4896 29.7717 101.514 29.9978C102.563 30.1128 103.612 30.0943 104.304 30.1208" stroke="#163050" stroke-width="1.85197" stroke-linecap="round" stroke-linejoin="round"/>
<path d="M52.202 149.81C44.6734 149.169 39.0671 146.286 41.1495 142.121C45.8743 146.238 54.9149 145.741 62.4862 145.464C67.3014 150.962 74.3911 153.758 81.9197 156C76.954 157.442 56.2066 155.416 52.202 149.81Z" fill="#EC932E"/>
<path opacity="0.4" d="M38.6367 53.8505C39.0758 54.7637 39.437 55.7124 39.7164 56.6863C39.4139 55.7202 39.0533 54.7732 38.6367 53.8505Z" fill="#503A7D"/>
<path d="M27.2077 54.3098L27.2572 54.3827C26.0574 55.145 25.6191 56.522 26.8169 58.3267L26.5308 58.4856C25.5223 59.1084 24.0619 59.4938 23.1975 58.8073C22.735 58.4428 22.4922 57.7941 22.6281 56.8175L22.6084 56.3923C21.1708 55.7456 20.9377 54.504 23.1717 53.0706L23.4252 53.1032C23.8811 50.4541 26.0045 51.9459 27.2077 54.3098ZM30.5918 53.721C28.6771 53.5413 26.3991 54.2141 26.1301 56.0184C26.009 56.836 26.3651 57.647 26.8193 58.3352C29.0905 61.7509 36.0875 65.2397 37.0639 65.3322C37.4065 65.3703 37.757 65.3224 38.0801 65.1931C38.4031 65.0638 38.6873 64.8578 38.904 64.5958L39.0672 64.5142C39.5312 65.4503 40.6426 67.4818 41.7398 67.5866C42.275 67.6392 42.8732 67.3804 43.5498 66.6532L43.6298 66.5445C44.0286 66.8131 44.4952 66.9825 44.9882 67.0375C46.2408 67.1472 46.9118 66.3646 47.0791 65.1833C47.2984 63.6594 46.854 61.4939 44.6686 61.1132L44.7573 60.7444C44.6516 59.283 43.9168 58.791 42.9255 58.6979C42.1472 58.6236 41.2098 58.796 40.159 58.9564C40.018 55.3235 32.0101 53.8556 30.5918 53.721Z" fill="#6DF3C3"/>
<path d="M27.2072 54.3099L27.2567 54.3828C28.1615 53.8091 29.4543 53.6137 30.5913 53.7211C32.0096 53.8557 40.0174 55.3236 40.1528 58.9445C42.4509 58.592 44.5615 58.1363 44.751 60.7325L44.6623 61.1012C46.8477 61.4819 47.2922 63.6474 47.0728 65.1713C46.9671 65.9208 46.6609 66.5114 46.1313 66.8151C46.0095 66.2949 46.3632 65.372 45.8953 64.6785C44.6575 62.853 39.0368 60.8506 38.7356 60.8222C38.3542 60.7863 37.9893 60.837 37.9364 61.2026C37.8305 61.943 38.7311 63.5563 38.5868 64.5466C38.5208 64.9979 38.2241 65.1802 37.8295 65.1411C35.1529 64.8847 41.0405 63.3421 26.6097 55.6329C26.4047 55.9223 26.1798 56.1991 25.9367 56.4616C25.1354 56.1269 24.3075 54.2018 22.4879 54.03C22.4005 54.0135 22.3096 54.0161 22.222 54.0373C22.1344 54.0586 22.0523 54.0981 21.9819 54.1529C21.9114 54.2076 21.8545 54.2762 21.8153 54.3535C21.7761 54.4308 21.7557 54.5149 21.7555 54.5994C21.578 55.7881 22.3443 56.3056 23.4797 56.4158C24.0787 56.4782 24.707 56.4344 25.2169 56.4485C24.0351 56.7272 23.2469 57.4488 23.2152 58.5812C23.2072 58.7202 23.1893 58.8323 23.1943 58.815C22.7318 58.4505 22.489 57.8019 22.6248 56.8253L22.605 56.3999C21.1675 55.7533 20.9344 54.5117 23.1684 53.0783L23.4219 53.1109C23.8806 50.4542 26.004 51.946 27.2072 54.3099Z" fill="#48D1A0"/>
<path d="M38.898 64.5833C38.6813 64.8453 38.3971 65.0513 38.0741 65.1806C37.751 65.3099 37.4005 65.3579 37.0579 65.3197C36.0838 65.2266 29.0868 61.7378 26.8133 58.3227C25.608 56.5087 26.0685 55.1324 27.2535 54.3787C28.1583 53.805 29.4512 53.6096 30.5882 53.717C32.0065 53.8516 40.0143 55.3195 40.1496 58.9404C42.4477 58.5879 44.5585 58.1322 44.7479 60.7283" stroke="#163050" stroke-width="1.12" stroke-linecap="round" stroke-linejoin="round"/>
<path d="M42.0857 61.0478C42.8226 61.0607 43.9375 60.9645 44.6623 61.1016C46.8477 61.4823 47.2921 63.6478 47.0728 65.1717C46.9112 66.356 46.2345 67.1447 44.9819 67.0259C43.4372 66.8761 42.3869 65.4638 41.5405 64.3028" stroke="#163050" stroke-width="1.12" stroke-linecap="round" stroke-linejoin="round"/>
<path d="M43.5442 66.6432C42.8676 67.3704 42.2693 67.6291 41.7341 67.5765C39.8939 67.4012 37.5905 61.4279 37.707 60.6641C37.7428 60.4064 37.8512 60.16 38.0207 59.9506" stroke="#163050" stroke-width="1.12" stroke-linecap="round" stroke-linejoin="round"/>
<path d="M26.5299 58.4856C24.4811 59.7492 22.2778 59.321 22.6272 56.8175" stroke="#163050" stroke-width="1.12" stroke-linecap="round" stroke-linejoin="round"/>
<path d="M24.1111 56.7997C21.2546 56.3788 20.4818 54.7941 23.1711 53.0708" stroke="#163050" stroke-width="1.12" stroke-linecap="round" stroke-linejoin="round"/>
<path d="M23.3485 54.4663C23.3341 54.011 23.3624 53.5541 23.4331 53.1006C23.8799 50.4539 26.0033 51.9458 27.2066 54.3096" stroke="#163050" stroke-width="1.12" stroke-linecap="round" stroke-linejoin="round"/>
<path d="M28.1211 57.7041C28.453 58.3139 28.9146 58.8499 29.4782 59.2801" stroke="white" stroke-width="0.764047" stroke-linecap="round" stroke-linejoin="round"/>
<path d="M57.8942 77.408L57.7931 77.4422C57.2897 75.7942 55.8223 74.8374 53.3269 75.6543L53.2336 75.2686C52.8315 73.8891 52.8528 72.0583 53.934 71.27C54.5093 70.8473 55.3456 70.7731 56.4429 71.2472L56.9461 71.3614C58.1659 69.8905 59.6919 70.019 60.6453 73.0923L60.5254 73.3779C63.4736 74.766 61.0448 76.7653 57.8942 77.408ZM57.4894 81.5522C58.3177 79.373 58.2671 76.494 56.2457 75.5971C55.3296 75.1916 54.267 75.3458 53.3162 75.6543C48.5917 77.2052 42.2559 84.2542 41.8325 85.3652C41.6773 85.7532 41.6202 86.1782 41.667 86.5974C41.7137 87.0166 41.8627 87.4152 42.0988 87.753L42.1415 87.9701C40.8978 88.21 38.1653 88.8526 37.6886 90.1008C37.4542 90.7091 37.5635 91.4917 38.1947 92.5171L38.2958 92.6456C37.8532 93.0249 37.5047 93.5154 37.2811 94.0737C36.7485 95.5018 37.4463 96.5386 38.7726 97.1155C40.4823 97.8638 43.1561 98.0438 44.3066 95.6132L44.7088 95.8359C46.4505 96.1844 47.2627 95.4846 47.6915 94.3564C48.0297 93.471 48.131 92.32 48.2828 91.0405C52.5732 92.0487 56.8742 83.1659 57.4894 81.5522Z" fill="#FF9FBF"/>
<path d="M57.8942 77.4087L57.793 77.4429C58.1712 78.6854 57.9821 80.2591 57.4894 81.5529C56.8742 83.1667 52.5732 92.0494 48.2988 91.0383C47.9685 93.8374 47.8194 96.4507 44.7248 95.8338L44.3226 95.611C43.1721 98.0416 40.4983 97.8617 38.7885 97.1134C37.9469 96.7478 37.3556 96.1994 37.1719 95.4825C37.819 95.5082 38.7831 96.2194 39.7446 95.8967C42.2773 95.0398 46.4319 89.1189 46.5624 88.7762C46.7275 88.342 46.786 87.8994 46.3759 87.7194C45.545 87.3567 43.3691 87.888 42.2586 87.3996C41.7526 87.1768 41.6354 86.7712 41.8085 86.3228C42.9723 83.2781 42.8738 90.6555 56.5413 76.2833C56.2694 75.9503 56.0185 75.5982 55.7903 75.2294C56.4401 74.4011 58.9569 74.0555 59.7452 71.9848C59.7926 71.888 59.819 71.781 59.8224 71.6717C59.8258 71.5625 59.8062 71.4538 59.7649 71.3538C59.7237 71.2539 59.662 71.1652 59.5843 71.0944C59.5066 71.0237 59.4149 70.9726 59.3163 70.9451C57.9847 70.3539 57.1326 71.0822 56.6372 72.3732C56.3709 73.053 56.2191 73.8013 56.038 74.3926C56.0939 72.9216 55.5053 71.7677 54.1924 71.365C54.0326 71.3107 53.9074 71.2536 53.9261 71.2651C54.5013 70.8424 55.3375 70.7681 56.4348 71.2422L56.9381 71.3564C58.1579 69.8855 59.6839 70.014 60.6374 73.0873L60.5175 73.3729C63.4736 74.7667 61.0447 76.7661 57.8942 77.4087Z" fill="#E76892"/>
<path d="M42.1157 87.751C41.8795 87.4132 41.7306 87.0146 41.6838 86.5954C41.6371 86.1762 41.6942 85.7512 41.8494 85.3632C42.2728 84.255 48.6086 77.206 53.3331 75.6522C55.8418 74.8296 57.3012 75.8122 57.7993 77.4402C58.1774 78.6826 57.9883 80.2564 57.4956 81.5502C56.8804 83.164 52.5794 92.0466 48.305 91.0356C47.9748 93.8346 47.8256 96.448 44.731 95.8311" stroke="#163050" stroke-width="1.22301" stroke-linecap="round" stroke-linejoin="round"/>
<path d="M45.2172 92.6178C44.9642 93.4747 44.7165 94.8085 44.3224 95.6111C43.1719 98.0417 40.4981 97.8618 38.7883 97.1135C37.4567 96.5422 36.7536 95.4968 37.2969 94.0716C37.9707 92.3151 39.9601 91.5439 41.59 90.9298" stroke="#163050" stroke-width="1.22301" stroke-linecap="round" stroke-linejoin="round"/>
<path d="M38.2085 92.515C37.5773 91.4896 37.4681 90.7071 37.7025 90.0987C38.5015 88.0051 46.2247 87.2425 47.0796 87.6252C47.3691 87.7503 47.622 87.9565 47.812 88.2222" stroke="#163050" stroke-width="1.22301" stroke-linecap="round" stroke-linejoin="round"/>
<path d="M53.2337 75.2693C52.4188 72.4674 53.6306 70.0312 56.4429 71.2479" stroke="#163050" stroke-width="1.22301" stroke-linecap="round" stroke-linejoin="round"/>
<path d="M55.9854 72.9872C57.3995 69.7855 59.5008 69.3942 60.6459 73.0929" stroke="#163050" stroke-width="1.22301" stroke-linecap="round" stroke-linejoin="round"/>
<path d="M58.9572 72.8502C59.4939 72.9804 60.0187 73.1611 60.5257 73.3901C63.4739 74.7667 61.0451 76.7661 57.8945 77.4087" stroke="#163050" stroke-width="1.22301" stroke-linecap="round" stroke-linejoin="round"/>
<path d="M53.6342 77.3801C52.8145 77.571 52.0391 77.9372 51.3545 78.4569" stroke="white" stroke-width="1.08743" stroke-linecap="round" stroke-linejoin="round"/>
<path d="M61.5765 59.7958C61.3101 60.4756 60.5484 60.7955 59.7921 60.4556C58.4125 59.8387 56.5777 55.7286 55.4671 53.5551L55.1688 53.7236C54.9569 53.8008 54.7408 53.8637 54.5216 53.9121C51.1394 54.6518 47.2937 52.1327 49.2991 48.651C50.0981 47.2058 51.8185 45.8263 53.9038 45.335H53.9277C54.4587 45.2135 55.0039 45.1799 55.5444 45.2351C55.9209 45.2682 56.2903 45.3645 56.6389 45.5207C59.7202 46.9116 59.9626 50.4847 57.5098 52.524L57.2434 52.8096C59.6243 55.403 62.1357 58.3192 61.5765 59.7958Z" fill="#02BAEC"/>
<path d="M55.5368 45.2293C54.9963 45.1735 54.4511 45.2072 53.9203 45.3293C53.8553 45.3401 53.7911 45.3563 53.7284 45.3779C53.1539 45.5215 52.5978 45.7392 52.072 46.0262C50.4342 46.8831 48.5885 48.8309 48.751 50.7646C45.1583 45.1522 51.4142 40.4824 55.5502 45.0522L55.5368 45.2293Z" fill="#02BAEC"/>
<path d="M55.5364 45.229C54.996 45.1731 54.4508 45.2068 53.9199 45.3289C53.8549 45.3397 53.7907 45.356 53.7281 45.3775C53.1536 45.5211 52.5974 45.7388 52.0717 46.0258C50.836 46.6685 49.768 47.848 49.6934 48.0422C49.6934 48.0737 49.8638 47.8795 48.4736 49.0705C49.2726 47.5367 51.4031 45.1689 51.1368 43.3238C51.1368 43.2981 51.1582 43.2753 51.1715 43.2496C52.8494 42.9925 54.3674 43.7551 55.5445 45.0461L55.5364 45.229ZM56.6311 45.5146C56.2818 45.3605 55.9127 45.2642 55.5364 45.229C55.4059 45.229 55.2702 45.2061 55.0784 45.2061C54.6884 45.2035 54.2992 45.2446 53.9172 45.3289C53.8692 45.3489 53.7868 45.3718 53.4698 45.5174C57.1131 47.6938 52.0237 48.5878 51.073 51.104C50.9122 51.564 50.8814 52.0647 50.9847 52.5433C51.088 53.0219 51.3206 53.4572 51.6535 53.7946C51.8239 53.8717 52.3086 54.7143 54.5217 53.9117C55.6252 53.4723 56.6837 52.9125 57.6804 52.2409L58.0293 52.0124C58.3954 51.6057 58.6872 51.129 58.8895 50.6071C59.6059 48.7249 58.9214 46.5571 56.6311 45.5232V45.5146ZM57.2303 52.8007L57.4966 52.515C57.5978 52.4322 57.6909 52.3436 57.7788 52.2579C57.2358 52.1251 56.7019 51.9524 56.1809 51.741C59.4327 56.3109 58.125 59.1071 59.7975 60.4438C60.5725 60.7922 61.3263 60.4438 61.5819 59.784C62.1359 58.3188 59.6245 55.4026 57.2303 52.8092V52.8007Z" fill="#009BE2"/>
<path d="M54.2793 51.4012C56.045 54.2573 58.1302 59.7127 59.792 60.4553C60.5484 60.7952 61.3154 60.4752 61.5764 59.7955C62.3328 57.7962 57.499 53.2091 54.8758 50.2501" stroke="#163050" stroke-width="1.22301" stroke-linecap="round" stroke-linejoin="round"/>
<path d="M55.1692 53.7232C53.8014 54.1987 52.3207 54.138 50.9907 53.5518C49.763 53.0006 48.8602 52.0152 48.7483 50.7642C48.514 47.9594 52.4288 44.8805 55.5367 45.229C55.9126 45.2663 56.2815 45.3625 56.6314 45.5146C59.766 46.9284 59.9043 50.4843 57.5021 52.5179" stroke="#163050" stroke-width="1.22301" stroke-linecap="round" stroke-linejoin="round"/>
<path d="M48.7582 50.7781C45.1416 45.1257 51.4799 40.4959 55.5573 45.0657" stroke="#163050" stroke-width="1.22301" stroke-linecap="round" stroke-linejoin="round"/>
<path d="M51.8294 48.3308C51.1865 48.714 50.6695 49.3005 50.3486 50.0103" stroke="white" stroke-width="1.08743" stroke-linecap="round" stroke-linejoin="round"/>
<path d="M114.223 41.3052C108.797 44.0632 110.014 49.7521 110.455 48.8143C112.703 44.0601 113.996 47.7438 114.476 47.3886C115.808 46.4388 117.076 49.7094 117.361 49.1373C118.319 47.211 119.53 47.1511 120.35 48.3744C120.363 48.3914 120.38 48.4054 120.399 48.4156C120.418 48.4258 120.438 48.4319 120.46 48.4336C120.481 48.4354 120.503 48.4327 120.523 48.4257C120.544 48.4187 120.562 48.4075 120.578 48.393C121.851 47.2022 122.981 49.606 123.24 51.8175C123.245 51.8451 123.257 51.8709 123.276 51.892C123.294 51.913 123.318 51.9286 123.345 51.9371C123.372 51.9455 123.4 51.9465 123.428 51.9398C123.455 51.9332 123.48 51.9192 123.5 51.8995C127.749 47.9193 123.057 41.6017 122.839 42.6526C122.32 45.1355 119.429 45.8317 119.727 45.2317C120.08 44.5206 119.326 43.8744 119.14 44.0451C118.706 44.4533 117.801 44.4924 117.422 43.8926C117.409 43.874 117.393 43.8581 117.374 43.8461C117.355 43.834 117.334 43.826 117.312 43.8227C117.29 43.8193 117.267 43.8206 117.246 43.8265C117.224 43.8325 117.204 43.8428 117.186 43.857C116.222 44.6747 116.944 45.274 116.476 45.116C115.624 44.8302 114.409 43.3834 114.44 41.4275C114.438 41.4029 114.43 41.3793 114.417 41.3585C114.403 41.3378 114.385 41.3206 114.364 41.3085C114.342 41.2964 114.318 41.2898 114.294 41.2892C114.269 41.2886 114.245 41.2941 114.223 41.3052Z" fill="#BB5D06"/>
<path d="M73.1382 7.81811C72.8969 9.45826 71.8733 10.2969 70.7905 10.4101C69.7078 10.5234 68.3992 9.82599 68.374 8.66491C68.3247 6.45944 72.6844 5.34923 73.1382 7.81811Z" fill="#FFBF4A"/>
<path d="M81.7788 9.49121C81.5375 11.1314 80.5139 11.97 79.4312 12.0832C78.3484 12.1965 77.0398 11.4991 77.0146 10.338C76.9653 8.13254 81.3251 7.02233 81.7788 9.49121Z" fill="#FFBF4A"/>
<path d="M84.5696 11.4339C84.5357 11.9339 84.9291 12.5219 84.8802 13.1678C84.8463 13.6678 84.419 13.8563 83.8373 14.0461C82.4879 14.4903 83.1258 13.0787 82.5372 12.3758C82.2805 12.7807 82.1379 13.4186 81.6377 13.5675C81.394 13.6408 80.5416 13.4955 80.17 13.1307C80.116 13.0828 80.0729 13.0238 80.0437 12.9577C80.0145 12.8916 80 12.82 80.001 12.7477L80.0294 12.6488L80.0268 12.6345C80.5054 12.2639 80.8355 11.7356 80.7713 11.2762C80.7613 11.1308 80.706 10.9922 80.6131 10.8799C80.6494 10.8157 80.9601 9.87599 81.4399 8.85988L81.435 8.83277C81.7311 8.56512 81.9257 8.20342 81.9859 7.80886C82.0243 7.81185 81.9902 7.83281 82.1211 7.64472C82.383 7.26855 82.6535 7.01427 82.9009 6.97984C83.41 6.90841 84.3274 7.06677 84.2861 7.72776C84.262 8.08934 83.8463 8.94909 83.7331 9.23607C84.0359 8.94147 84.6518 8.36358 85.0663 8.2877C85.6421 8.18456 85.6021 9.89073 85.5965 9.96087C85.5298 10.875 84.6272 10.5971 84.5696 11.4339Z" fill="#E29A16"/>
<path d="M81.993 7.34497C82.0739 7.99889 81.7127 8.71226 81.2655 8.94547C80.5484 9.32581 80.4784 8.22707 79.2943 8.82274C78.9722 8.97233 78.7108 9.22733 78.5531 9.54561C78.3955 9.8639 78.3512 10.2264 78.4275 10.5733C78.7105 11.8775 80.57 9.86026 80.7694 11.2766C80.8336 11.736 80.5056 12.2672 80.0249 12.6348C78.721 13.6273 76.8066 13.399 76.5263 11.4851C76.1233 8.67459 77.4574 6.84857 79.2365 6.3307C80.3786 5.9977 81.8515 6.19649 81.993 7.34497Z" fill="#E29A16"/>
<path d="M77.3777 7.59393C76.6729 8.49393 76.2915 9.80196 76.5335 11.484C76.5426 11.558 76.5558 11.6315 76.5729 11.7041L76.5356 11.7256C76.2878 12.4285 75.826 13.499 75.1104 13.6864C74.9217 13.7389 74.7231 13.7457 74.5312 13.7062C74.4417 13.6847 74.3575 13.6453 74.2837 13.5903C74.2099 13.5353 74.148 13.4659 74.1018 13.3864L74.0077 13.4032C74.077 13.2917 74.1138 13.1632 74.114 13.0319C74.0989 12.8037 74.0427 12.58 73.948 12.3718C73.9608 11.0919 73.9925 10.0277 74.0527 9.15094C74.4123 8.5053 74.5064 7.74504 74.3151 7.03121L74.3375 7.02721C74.5449 6.18171 74.8707 5.53727 75.7343 5.45995C76.6262 5.38416 77.4258 5.99664 77.4038 7.08715C77.3989 7.39095 77.366 7.57462 77.3777 7.59393Z" fill="#E29A16"/>
<path d="M72.8736 10.4176C73.3318 10.1365 73.7128 9.74582 73.9825 9.28081C74.2521 8.8158 74.4018 8.29103 74.4182 7.75375C74.4241 4.56048 69.0862 5.14617 66.8268 6.98976C67.2252 7.31186 67.3956 7.80323 67.4298 8.51818C67.5234 10.7042 67.1207 11.4612 66.0681 11.6514C65.924 11.6766 65.7782 11.6922 65.632 11.6982L65.6301 11.743C65.7934 14.1437 66.2004 15.3039 68.584 14.714C69.4454 14.5245 70.2198 14.0553 70.7865 13.3795C71.0546 13.6883 71.4031 13.9165 71.7933 14.0388C72.1835 14.161 72.6 14.1725 72.9964 14.0718C73.5016 13.9418 74.1196 13.5595 74.1191 13.0328C74.1164 12.3649 73.2061 10.9869 72.8736 10.4176ZM70.4423 9.6381C70.045 9.69938 69.8082 9.52614 69.7923 8.94125C69.7889 8.79368 69.8431 8.20446 69.8714 7.99523L69.5592 7.97049C70.0202 7.65551 70.5441 7.44431 71.0946 7.35141C71.6062 7.28448 72.042 7.58508 72.0494 8.08589C72.0519 8.89048 71.1069 9.53388 70.4423 9.6381Z" fill="#E29A16"/>
<path d="M74.9589 13.7167C74.5186 13.7857 74.2554 13.6402 74.0981 13.3869L74.004 13.4037C74.0733 13.2922 74.1101 13.1637 74.1103 13.0324C74.0952 12.8042 74.039 12.5805 73.9443 12.3723C73.9571 11.0925 73.9888 10.0282 74.049 9.15145C74.4086 8.5058 74.5027 7.74555 74.3114 7.03172C74.3593 7.00503 74.3019 7.06142 74.436 6.65216C74.576 7.03866 75.0267 7.45843 75.0196 8.56768C75.0143 9.45763 74.6392 10.2492 73.9731 10.9974C74.442 11.7498 75.2299 12.5915 74.9589 13.7167Z" fill="#B67A0C"/>
<path d="M68.6624 9.39195C68.7115 10.7875 69.0925 13.76 67.2345 14.8484C66.0114 14.702 65.7522 13.5861 65.6263 11.7434L65.6282 11.6986C65.7744 11.6926 65.9202 11.677 66.0643 11.6518C67.1171 11.4632 67.5196 10.7046 67.426 8.51859C67.395 7.80305 67.2246 7.31169 66.823 6.99016C67.6287 6.33219 68.7515 5.87259 69.8747 5.64507C68.7201 6.80016 68.6168 8.06167 68.6624 9.39195Z" fill="#B67A0C"/>
<path d="M60.862 12.1292C60.0081 12.3348 58.6268 12.9872 57.5919 13.1743C56.1084 13.44 55.4161 11.7991 55.2644 10.5389C54.8836 7.40168 56.714 6.98657 60.1321 6.70359C65.7937 6.23443 67.3261 6.2596 67.4225 8.52578C67.5161 10.7118 67.1133 11.4688 66.0608 11.659C65.5822 11.7447 65.0448 11.7043 64.6008 11.7163C64.48 12.4937 65.0295 13.9987 65.0812 14.8669C65.1371 15.7855 64.0369 16.3892 63.1441 16.6166C61.5152 17.0351 60.8066 16.4344 60.6683 14.9544C60.589 14.0154 60.7667 12.9299 60.862 12.1292Z" fill="#E29A16"/>
<path d="M69.1281 8.26962C69.7218 7.83402 70.3574 7.44854 71.086 7.35261C71.5975 7.28568 72.0333 7.58627 72.0407 8.08708C72.0512 8.89025 71.1063 9.53363 70.4401 9.63813C70.0428 9.69942 69.8059 9.52619 69.7901 8.9413C69.7854 8.77749 69.8531 8.07061 69.8744 7.95978" stroke="#163050" stroke-width="0.862105" stroke-linecap="round" stroke-linejoin="round"/>
<path d="M70.8639 13.4559C70.6312 13.2325 70.4124 12.9853 70.1943 12.7329" stroke="#163050" stroke-width="0.862105" stroke-linecap="round" stroke-linejoin="round"/>
<path d="M81.052 10.3715C81.1331 10.594 81.8381 14.0798 80.1689 13.1342C80.1156 13.0867 80.0729 13.0284 80.0437 12.9633C80.0144 12.8982 79.9993 12.8276 79.9992 12.7563C80.0068 12.721 80.0165 12.6863 80.0283 12.6523L80.0257 12.6379C80.5043 12.2673 80.8344 11.739 80.7702 11.2797C80.7603 11.1342 80.7049 10.9956 80.6119 10.8833C80.6482 10.8191 80.959 9.87943 81.4388 8.86331L81.434 8.83621C81.73 8.56856 81.9246 8.20686 81.9848 7.81229C82.0232 7.81529 81.9888 7.83464 82.12 7.64815C82.1886 9.04183 81.6221 9.61084 81.052 10.3715Z" fill="#B67A0C"/>
<path d="M81.4388 8.8602C81.1356 9.50224 80.8589 10.2186 80.6215 10.8603" stroke="#163050" stroke-width="0.862105" stroke-linecap="round" stroke-linejoin="round"/>
<path d="M64.6045 11.7091C64.4836 12.4864 65.0331 13.9915 65.0849 14.8597C65.1407 15.7782 64.0405 16.3819 63.1477 16.6093C61.5188 17.0279 60.8103 16.4272 60.6719 14.9472C60.589 14.0154 60.7667 12.9299 60.862 12.1292C60.0081 12.3348 58.6268 12.9872 57.5919 13.1743C56.1084 13.44 55.4161 11.7991 55.2644 10.5389C54.8836 7.40168 56.714 6.98657 60.1321 6.70359C65.7937 6.23443 67.3261 6.2596 67.4225 8.52578C67.5161 10.7118 67.1133 11.4688 66.0608 11.659C65.5891 11.7369 65.0485 11.6971 64.6045 11.7091Z" stroke="#163050" stroke-linecap="round" stroke-linejoin="round"/>
<path d="M61.8817 11.8774C61.4857 11.943 61.0958 12.041 60.7159 12.1702" stroke="#163050" stroke-width="1.28" stroke-linecap="round" stroke-linejoin="round"/>
<path d="M65.6268 11.7434C65.7908 14.1391 66.1795 15.3075 68.5807 14.7144C69.442 14.5249 70.2164 14.0557 70.7831 13.3799C71.0512 13.6887 71.3998 13.9169 71.79 14.0392C72.1802 14.1614 72.5967 14.1729 72.993 14.0723C73.4982 13.9423 74.1163 13.5599 74.1158 13.0332C74.1162 12.3647 73.2059 10.9868 72.8734 10.4174C74.0638 9.71031 74.6746 8.19331 74.3166 7.03093C73.5854 4.6496 68.8721 5.32099 66.8263 6.98801" stroke="#163050" stroke-linecap="round" stroke-linejoin="round"/>
<path d="M74.3373 7.02053C74.611 5.9014 75.0553 5.51395 75.7342 5.45326C76.5322 5.38606 77.4283 5.90383 77.4036 7.08043C77.4005 7.20117 77.3901 7.3726 77.3713 7.58011" stroke="#163050" stroke-linecap="round" stroke-linejoin="round"/>
<path d="M73.9496 12.383C73.9482 11.6029 73.9835 10.2927 74.0563 9.10908" stroke="#163050" stroke-linecap="round" stroke-linejoin="round"/>
<path d="M76.5369 11.7253C76.1891 12.7244 75.7221 13.5275 75.1118 13.6862C74.923 13.7386 74.7244 13.7454 74.5325 13.706C74.443 13.6845 74.3589 13.645 74.2851 13.59C74.2113 13.5351 74.1494 13.4657 74.1032 13.3861" stroke="#163050" stroke-linecap="round" stroke-linejoin="round"/>
<path d="M78.4282 10.5733C78.3519 10.2264 78.3963 9.86389 78.5539 9.54561C78.7115 9.22733 78.9729 8.97232 79.2951 8.82273C80.4759 8.22763 80.5491 9.32581 81.2663 8.94547C81.7162 8.70024 82.0738 7.9941 81.9938 7.34497C81.8522 6.19649 80.3794 5.9977 79.2436 6.32955C77.4645 6.84742 76.1304 8.67344 76.5334 11.484C76.7995 13.3461 78.6813 13.6592 80.032 12.6337C80.5127 12.266 80.8407 11.7348 80.7765 11.2755C80.5716 9.86504 78.7112 11.8775 78.4282 10.5733Z" stroke="#163050" stroke-linecap="round" stroke-linejoin="round"/>
<path d="M80.0358 12.6478C80.024 12.6818 80.0143 12.7166 80.0067 12.7518C79.9821 13.3867 81.3313 13.667 81.6442 13.5665C82.1444 13.4176 82.2917 12.7788 82.5436 12.3748C83.1321 13.0777 82.4943 14.4892 83.8438 14.045C84.4255 13.8552 84.8516 13.6603 84.8866 13.1668C84.935 12.5177 84.544 11.9341 84.5761 11.4329C84.6342 10.5993 85.5362 10.874 85.603 9.95983C85.6085 9.88969 85.6483 8.18192 85.0727 8.28666C84.658 8.36094 84.0376 8.94128 83.7395 9.23503C83.8528 8.94804 84.2636 8.08915 84.2925 7.72672C84.3378 7.06009 83.4164 6.90736 82.9074 6.97879C82.6246 7.01791 82.3133 7.33874 82.0158 7.81019" stroke="#163050" stroke-linecap="round" stroke-linejoin="round"/>
<path d="M70.9749 17.1864L71.1415 19.9328L70.6053 18.0338C70.5026 17.625 70.3015 17.2813 69.9794 17.0741C69.6521 16.8636 69.2576 16.831 68.848 16.9329C68.4734 17.0261 68.0884 17.1934 67.8176 17.4702C67.5302 17.7641 67.3905 18.1655 67.5076 18.6418L68.1865 21.6732L68.1864 21.6732L68.1884 21.6812C68.2467 21.9158 68.3596 22.1144 68.5476 22.2443C68.7311 22.3711 68.9381 22.3991 69.1181 22.3934C69.2965 22.3877 69.4815 22.3476 69.6489 22.305C69.7273 22.285 69.8073 22.263 69.8843 22.2417C69.891 22.2399 69.8976 22.2381 69.9042 22.2362C69.981 22.2151 70.0552 22.1948 70.1287 22.1762C70.4642 22.1381 70.7348 22.0727 70.9416 21.966C71.1666 21.85 71.3228 21.6804 71.3908 21.4556C71.4108 21.3897 71.4216 21.3234 71.426 21.2584C71.6043 21.4447 71.8643 21.5498 72.142 21.5197L72.5561 21.4748C73.0561 21.4205 73.3994 20.9533 73.3114 20.4661C73.3282 20.5326 73.3438 20.5904 73.3587 20.6413C73.489 21.0878 73.9494 21.2133 74.2844 21.1299L74.6328 21.0432C74.7719 21.0109 74.9185 20.9585 75.0281 20.854C75.1644 20.7239 75.1977 20.5599 75.1778 20.4191C75.163 20.314 75.1173 20.2184 75.095 20.1718C75.0939 20.1695 75.0928 20.1673 75.0918 20.1652C75.0609 20.1002 75.0531 20.0822 75.0501 20.0703L75.042 20.0375L75.0276 20.0067L74.6508 19.1998C74.5538 18.8434 74.356 18.5942 74.1142 18.4379C74.1162 18.4352 74.1181 18.4325 74.1201 18.4297C74.2711 18.2169 74.3374 17.9525 74.2618 17.6341L74.1951 17.2471L74.1929 17.2345L74.1898 17.2221C74.0907 16.8238 73.886 16.4547 73.5698 16.2108C73.2438 15.9592 72.8253 15.8622 72.3636 15.9771L72.3365 15.9838L72.3108 15.9947L71.4971 16.3416C71.1619 16.4844 70.9528 16.8227 70.9749 17.1864ZM69.75 20.6256C69.7481 20.6261 69.7463 20.6265 69.7444 20.627L69.2161 18.5031C69.2301 18.5005 69.2445 18.4977 69.259 18.4944L69.7871 20.6171C69.7749 20.6197 69.7625 20.6225 69.75 20.6256Z" fill="#E29A16" stroke="#163050" stroke-width="0.7"/>
<path d="M53.6262 145.928C57.3746 149.091 65.7287 148.699 73.5767 142.518C77.9008 141.854 82.2691 139.165 85.1888 134.177C87.15 130.935 88.254 126.671 88.2856 122.223C88.333 115.732 86.1883 110.652 81.6776 107.593C85.3469 124.823 37.2661 120.828 33.2298 114.385C32.9944 114.892 32.8111 115.422 32.6826 115.966C31.1895 119.43 29.7725 123.618 29.7599 127.563C29.7377 135.385 33.9764 142.43 38.9806 142.506H39.0564C39.0564 142.506 42.6182 148.709 53.6262 145.928Z" fill="#905FF4"/>
<path d="M46.4616 133.804C45.8802 133.886 45.2874 133.793 44.7598 133.535C41.4068 131.953 42.7038 125.889 44.8516 125.943C45.1769 125.966 45.4903 126.075 45.7595 126.259C49.0967 128.202 48.9384 133.326 46.4616 133.804Z" fill="#905FF4"/>
<path d="M88.3199 122.223C88.2914 126.67 87.1843 130.935 85.2231 134.177C82.3034 139.165 77.9319 141.854 73.6109 142.518C66.3355 148.623 58.0859 148.993 53.6606 145.928L53.6194 146.017C48.7955 146.52 42.7823 147.364 39.0908 142.499C34.849 142.423 31.2967 137.631 30.1484 131.637C31.7016 131.808 33.3275 135.259 34.3397 132.111C34.637 131.162 35.4815 131.093 35.8516 131.966C37.2023 135.154 41.634 139.611 45.025 130.637C51.4178 147.87 80.7882 141.512 74.0221 118.038C76.8152 115.039 79.3489 112.366 80.3485 107.343L80.2853 107.252L80.3612 107.15C85.8177 108.495 88.3357 115.144 88.3199 122.223Z" fill="#7A51D0"/>
<path d="M73.8926 118.627C75.5691 120.863 77.138 123.321 77.4385 126.81" stroke="#163050" stroke-width="1.21182" stroke-linecap="round" stroke-linejoin="round"/>
<path d="M80.0117 107.15C85.4493 108.495 87.9671 115.144 87.9482 122.223C87.9446 123.897 87.7793 125.566 87.4547 127.208C85.9933 134.569 80.4229 141.307 72.7363 142.493" stroke="#163050" stroke-width="1.21182" stroke-linecap="round" stroke-linejoin="round"/>
<path d="M76.952 136.692C71.1475 147.2 60.5444 150.271 53.6581 145.928C51.7317 144.828 50.4347 142.79 49.4668 140.276" stroke="#163050" stroke-width="1.21182" stroke-linecap="round" stroke-linejoin="round"/>
<path d="M53.6165 146.014C48.7926 146.517 42.7761 147.361 39.0878 142.493C37.9989 140.989 37.2086 139.29 36.7598 137.489" stroke="#163050" stroke-width="1.21182" stroke-linecap="round" stroke-linejoin="round"/>
<path d="M39.2091 142.493H39.0129C33.9834 142.407 29.7574 135.357 29.7922 127.55C29.7922 123.02 31.6901 118.155 33.3729 114.47" stroke="#163050" stroke-width="1.21182" stroke-linecap="round" stroke-linejoin="round"/>
<path d="M33.9792 120.654C32.9943 122.755 32.4251 125.027 32.3027 127.344" stroke="#7A51D0" stroke-width="1.07748" stroke-linecap="round" stroke-linejoin="round"/>
<path d="M59.4243 99.312C58.685 98.4035 57.7131 97.7126 56.6122 97.3129C55.6031 97.8443 56.0651 99.4638 56.7009 100.384C56.4459 100.378 56.1907 100.394 55.9385 100.432C55.9973 100.485 56.0522 100.542 56.103 100.603C56.6818 100.603 57.1658 101.023 57.5327 101.469L57.3936 101.178C57.498 100.131 58.3109 99.2234 59.4243 99.312Z" fill="white"/>
<path d="M52.2377 101.355C51.9364 100.931 51.7809 100.421 51.7946 99.9003C51.8083 99.3801 51.9904 98.8784 52.3136 98.4705C52.7353 97.9335 53.2684 97.4943 53.8762 97.1831C53.1391 98.0625 52.7216 99.1791 53.2182 100.213C53.4669 100.032 53.7536 99.9092 54.0566 99.8544C54.3595 99.7997 54.671 99.8143 54.9675 99.8971C54.3729 98.6319 54.6513 97.6133 55.48 96.987C55.3693 96.9585 55.2585 96.9301 55.1414 96.9111C55.2405 96.8266 55.3463 96.7505 55.4578 96.6833C52.7501 96.9332 50.7509 99.5682 50.7383 102.061C50.7376 102.379 50.8124 102.692 50.9565 102.975C51.099 103.259 51.3085 103.505 51.5671 103.69C51.5513 103.627 51.5417 103.566 51.5291 103.5C51.6353 102.749 51.8753 102.022 52.2377 101.355Z" fill="white"/>
<path d="M60.7753 104.772C60.3831 104.889 60.0288 105.234 59.7473 105.926C59.4025 105.439 59.0766 104.734 59.1557 104.139C59.2849 103.798 59.5141 103.504 59.8132 103.295C60.1123 103.086 60.4675 102.972 60.8323 102.969C60.7662 102.223 60.5859 101.492 60.2977 100.802C59.2444 100.486 58.3334 101.485 58.2954 102.532C58.2172 102.464 58.1442 102.39 58.0771 102.311C59.0767 104.079 59.722 106.641 60.1586 107.856L60.2534 107.891C60.0383 107.233 60.5539 105.964 60.7753 104.772Z" fill="white"/>
<path d="M53.8669 97.1926C53.2605 97.5059 52.7278 97.9448 52.3043 98.4801C51.9827 98.8894 51.802 99.3917 51.7889 99.912C51.7757 100.432 51.931 100.943 52.2315 101.368C52.4683 100.922 52.8023 100.535 53.2089 100.236C52.7123 99.1792 53.1425 98.072 53.8669 97.1926Z" fill="#FF7D5D"/>
<path d="M56.1758 96.677C56.6096 96.7092 57.0361 96.8062 57.4411 96.9648C57.0557 96.7492 56.6164 96.6493 56.1758 96.677Z" fill="#FF7D5D"/>
<path d="M54.967 99.8972C55.33 99.9921 55.6637 100.176 55.938 100.432C56.1903 100.394 56.4454 100.378 56.7004 100.384C56.0678 99.4639 55.6027 97.8538 56.6118 97.3129C56.2423 97.1807 55.864 97.075 55.4795 96.9966C54.6444 97.6102 54.3723 98.6319 54.967 99.8972Z" fill="#FF7D5D"/>
<path d="M58.0764 102.295C57.918 102.008 57.7359 101.735 57.5322 101.479C57.6766 101.774 57.8597 102.048 58.0764 102.295Z" fill="#FF7D5D"/>
<path d="M61.8002 101.795C61.5324 101.139 61.17 100.525 60.7246 99.9731C61.0742 100.524 61.3911 101.096 61.6736 101.684L61.8002 101.795Z" fill="#FF7D5D"/>
<path d="M58.2956 102.516C58.3336 101.476 59.2446 100.46 60.298 100.783C60.0795 100.253 59.7876 99.7572 59.4312 99.3088C58.3209 99.2203 57.508 100.128 57.4131 101.188C57.4574 101.289 57.5049 101.384 57.5492 101.476C57.7539 101.731 57.9359 102.004 58.0931 102.292C58.1564 102.37 58.224 102.445 58.2956 102.516Z" fill="#FF7D5D"/>
<path d="M63.1889 105.819L63.4167 106.021C63.2428 105.46 63.0183 104.916 62.7461 104.395C62.8884 104.816 63.0149 105.24 63.1889 105.819Z" fill="#FF7D5D"/>
<path d="M60.8321 102.956C60.4674 102.958 60.1119 103.071 59.8126 103.279C59.5133 103.488 59.2841 103.782 59.1555 104.123C59.0764 104.718 59.4023 105.426 59.7471 105.91C60.0349 105.233 60.3797 104.889 60.7751 104.756C60.8888 104.163 60.9081 103.555 60.8321 102.956Z" fill="#FF7D5D"/>
<path d="M55.9383 100.432C55.7508 100.467 55.5709 100.534 55.4069 100.631C55.2353 100.403 55.0879 100.157 54.9672 99.8974C54.6705 99.8163 54.3594 99.8026 54.0567 99.8574C53.754 99.9121 53.4674 100.034 53.2179 100.214C53.5438 100.821 54.072 101.296 54.711 101.555C54.4833 101.891 54.2965 102.253 54.1543 102.634C53.7646 102.56 53.3935 102.41 53.063 102.191C52.7315 101.972 52.4484 101.688 52.2311 101.356C51.864 102.025 51.6197 102.754 51.5098 103.51C51.5141 103.573 51.5269 103.636 51.5478 103.696C51.8968 103.954 52.316 104.1 52.7497 104.114C54.5907 104.146 54.5306 100.574 56.0964 100.603C56.0477 100.542 55.9948 100.485 55.9383 100.432Z" fill="white"/>
<path d="M52.2373 101.355C52.4543 101.688 52.7361 101.973 53.0659 102.194C53.3943 102.416 53.7647 102.569 54.1542 102.643C54.2954 102.266 54.4812 101.907 54.7078 101.574C54.0692 101.313 53.5405 100.839 53.2114 100.233C52.8069 100.529 52.4741 100.913 52.2373 101.355Z" fill="#FF7D5D"/>
<path d="M55.4231 100.622C55.5871 100.524 55.7671 100.457 55.9546 100.422C55.6803 100.166 55.3464 99.9826 54.9834 99.8877C55.104 100.147 55.2514 100.393 55.4231 100.622Z" fill="#FF7D5D"/>
<path d="M63.1882 105.819C62.5555 105.262 61.5876 104.519 60.7747 104.768C60.5501 105.964 60.0377 107.226 60.2528 107.872C61.439 108.289 62.6126 108.754 63.7577 109.2L63.9126 108.802C63.7259 107.897 63.4887 106.875 63.1882 105.819Z" fill="white"/>
<path d="M55.4811 96.987C55.6812 96.8298 55.915 96.7215 56.1643 96.6707C55.9254 96.6485 55.685 96.6485 55.4462 96.6707C55.3345 96.7375 55.2287 96.8137 55.1299 96.8984L55.4811 96.987Z" fill="white"/>
<path opacity="0.3" d="M55.4811 96.987C55.6812 96.8298 55.915 96.7215 56.1643 96.6707C55.9254 96.6485 55.685 96.6485 55.4462 96.6707C55.3345 96.7375 55.2287 96.8137 55.1299 96.8984L55.4811 96.987Z" fill="#163050"/>
<path d="M56.6123 97.3128C57.7132 97.7126 58.6851 98.4034 59.4244 99.3119C59.9267 99.3569 60.3922 99.5937 60.7245 99.973C59.8293 98.5654 58.738 97.4424 57.4284 96.949L57.8271 97.1388C57.4139 97.0879 56.9946 97.148 56.6123 97.3128Z" fill="white"/>
<path opacity="0.3" d="M56.6123 97.3128C57.7132 97.7126 58.6851 98.4034 59.4244 99.3119C59.9267 99.3569 60.3922 99.5937 60.7245 99.973C59.8293 98.5654 58.738 97.4424 57.4284 96.949L57.8271 97.1388C57.4139 97.0879 56.9946 97.148 56.6123 97.3128Z" fill="#163050"/>
<path d="M60.8327 102.956C61.7216 102.956 62.3194 103.62 62.7306 104.398C62.424 103.474 62.0638 102.567 61.6519 101.684C61.2534 101.305 60.7893 101 60.2822 100.786C60.5754 101.477 60.7611 102.209 60.8327 102.956Z" fill="white"/>
<g opacity="0.3">
<path opacity="0.3" d="M56.1033 100.603C54.5375 100.577 54.5975 104.149 52.7566 104.117C52.3229 104.1 51.9044 103.953 51.5546 103.696C51.5546 103.636 51.5293 103.576 51.5166 103.51C51.6271 102.754 51.8714 102.025 52.2379 101.356C52.4549 101.688 52.7367 101.973 53.0665 102.194C53.3949 102.416 53.7653 102.569 54.1548 102.643C54.296 102.266 54.4818 101.907 54.7084 101.574C54.0698 101.313 53.5411 100.839 53.212 100.233C53.4605 100.05 53.7472 99.9255 54.0504 99.8688C54.3532 99.8149 54.6641 99.8279 54.9614 99.9068C55.0838 100.166 55.2321 100.412 55.4042 100.641C55.567 100.541 55.7475 100.473 55.9357 100.441C55.9953 100.491 56.0513 100.545 56.1033 100.603ZM63.1888 105.822C62.5562 105.265 61.5883 104.522 60.7753 104.772C60.5507 105.967 60.0383 107.23 60.2534 107.875C61.4396 108.292 62.6131 108.757 63.7614 109.2L63.9132 108.805C63.7297 107.897 63.4893 106.875 63.1888 105.819V105.822ZM60.8323 102.956C61.7212 102.956 62.319 103.62 62.7302 104.399C62.4264 103.473 62.0662 102.566 61.6515 101.684C61.253 101.305 60.7889 101 60.2818 100.786C60.5751 101.477 60.7608 102.209 60.8323 102.956Z" fill="#50B0FF"/>
</g>
<path d="M56.6128 97.3128C56.995 97.148 57.4144 97.0879 57.8275 97.1388C57.3122 96.8679 56.7448 96.7105 56.1636 96.677C55.914 96.7266 55.6798 96.8351 55.4805 96.9933C55.8651 97.0728 56.2434 97.1796 56.6128 97.3128Z" fill="#FF7D5D"/>
<path opacity="0.3" d="M56.6128 97.3128C56.995 97.148 57.4144 97.0879 57.8275 97.1388C57.3122 96.8679 56.7448 96.7105 56.1636 96.677C55.914 96.7266 55.6798 96.8351 55.4805 96.9933C55.8651 97.0728 56.2434 97.1796 56.6128 97.3128Z" fill="#163050"/>
<path d="M59.4248 99.3119C59.7792 99.7611 60.0698 100.257 60.2884 100.786C60.795 101.001 61.2589 101.305 61.6581 101.684C61.3756 101.096 61.0587 100.524 60.7091 99.973C60.3799 99.5983 59.921 99.3621 59.4248 99.3119Z" fill="#FF7D5D"/>
<path d="M60.8324 102.956C60.8957 103.561 60.8765 104.172 60.7754 104.772C61.5852 104.522 62.5436 105.262 63.1889 105.822C63.0212 105.243 62.8979 104.816 62.7461 104.398C62.3159 103.614 61.7118 102.969 60.8324 102.956Z" fill="#FF7D5D"/>
<path d="M53.2093 100.214C53.5375 100.821 54.0664 101.295 54.7055 101.555C54.4778 101.891 54.291 102.253 54.1488 102.633C53.7591 102.56 53.388 102.41 53.0575 102.191C52.726 101.972 52.443 101.688 52.2256 101.356C52.4654 100.907 52.8013 100.517 53.2093 100.214ZM55.4015 100.622C55.5655 100.524 55.7453 100.457 55.9328 100.422C55.658 100.167 55.3245 99.9833 54.9617 99.8878C55.0824 100.144 55.2298 100.387 55.4015 100.612V100.622ZM59.4186 99.3026C59.773 99.7519 60.0636 100.248 60.2822 100.777C60.7888 100.992 61.2528 101.296 61.6519 101.675C61.3706 101.086 61.0537 100.514 60.7029 99.9637C60.3741 99.5934 59.9178 99.3607 59.425 99.312L59.4186 99.3026ZM60.8263 102.947C60.8896 103.552 60.8704 104.162 60.7693 104.762C61.5791 104.512 62.5375 105.253 63.1828 105.812C63.0152 105.234 62.8919 104.807 62.74 104.389C62.3161 103.614 61.712 102.969 60.8327 102.956L60.8263 102.947Z" fill="#DF5141"/>
<path d="M81.6768 107.527C79.7789 106.347 74.0852 102.782 67.414 103.949C68.4217 104.804 69.2856 105.816 69.973 106.945C76.0084 104.506 80.7279 108.868 80.7279 110.677C80.7279 113.319 73.8226 115.64 71.5546 116.156C67.3892 117.067 63.1337 117.503 58.8701 117.453C54.3119 117.453 37.1357 117.241 37.1357 112.363C37.1357 111.493 38.0624 110.674 40.321 110.095C40.3431 109.463 40.3463 108.798 40.3463 108.15C40.3463 107.568 40.3463 106.983 40.3463 106.401C36.3417 108.172 33.5897 110.216 33.2323 113.287C32.8306 114.17 33.3809 118.032 50.6457 119.364C67.9105 120.695 78.9597 118.557 82.4993 112.597C83.3439 111.19 83.5242 108.672 81.6768 107.527Z" fill="#905FF4"/>
<path d="M65.9121 110.149L65.6939 109.918C65.0612 109.697 64.4127 109.453 63.7611 109.2L63.9129 108.805C63.6189 107.345 63.2398 105.905 62.7773 104.49C64.0588 104.221 65.3562 104.035 66.6617 103.933C66.6617 103.993 66.6807 104.057 66.687 104.12L66.6649 104.256C67.3415 104.383 67.9781 104.669 68.5221 105.091C69.0661 105.513 69.5019 106.058 69.7934 106.682L69.8977 106.926C68.2622 107.552 66.8672 108.681 65.9121 110.149Z" fill="#FFD167"/>
<path d="M57.9092 117.187C54.8129 117.229 51.7168 117.099 48.6348 116.798L48.6981 116.166C50.1247 111.851 56.9223 112.901 57.9092 117.061V117.187Z" fill="#02BAEC"/>
<path d="M46.6772 113.034C47.7463 115.321 48.1796 116.956 46.5031 116.558C41.831 115.925 37.2666 114.66 37.2666 112.227C37.2775 111.915 37.3514 111.608 37.4841 111.324C37.6167 111.041 37.8053 110.788 38.0384 110.579L38.1365 110.674C41.3566 109.671 44.5705 110.25 46.4336 113.024L46.6772 113.034Z" fill="#6DF3C3"/>
<path d="M65.4119 116.586L65.4372 116.836C62.7738 117.083 60.1483 117.152 57.9119 117.187V117.045C57.1812 113.97 53.2177 112.553 50.6365 113.882L50.3202 113.439C48.9316 111.525 48.4666 108.821 50.2728 107.318C53.591 104.62 61.8184 108.583 65.6965 109.934L65.9148 110.165C64.6685 112.139 64.6116 114.41 65.4119 116.586Z" fill="#FF9FBF"/>
<path d="M50.6437 113.866C50.1848 114.098 49.777 114.42 49.4445 114.812C49.112 115.204 48.8615 115.659 48.7078 116.15L48.6444 116.782C47.939 116.716 47.2178 116.634 46.5029 116.536C46.5645 112.488 47.0609 108.458 47.9834 104.516C48.2048 104.572 47.7556 104.228 50.2166 107.233L50.2704 107.296C48.4547 108.795 48.9324 111.509 50.3147 113.42L50.6437 113.866Z" fill="#FF9FBF"/>
<path d="M47.9874 104.512C47.9589 104.538 47.6045 106.16 47.4116 107.141C47.0584 109.09 46.8093 111.056 46.6651 113.031L46.4309 113.009C45.1657 111.111 43.1634 110.137 40.7372 110.203C40.7372 110.054 40.712 109.048 40.712 108.805C40.7089 108.058 40.7991 107.315 40.9807 106.591C41.8949 103.127 45.1721 102.624 47.7121 104.455L47.9874 104.512Z" fill="#FF9FBF"/>
<path d="M48.2291 104.357C49.3647 104.19 50.4972 104.016 51.6391 103.892L51.6929 103.788C52.0124 103.987 52.3794 104.096 52.7557 104.104C52.9809 104.103 53.2024 104.047 53.4005 103.94C53.5986 103.833 53.7673 103.679 53.8914 103.491L53.9451 103.528C55.2104 103.528 57.1747 103.424 58.3736 103.484L58.6899 103.544C59.351 105.126 59.8287 106.926 60.1577 107.827C57.3899 106.844 52.5659 105.43 50.2694 107.29C50.0417 107.027 48.8459 105.556 48.0963 104.538L47.9824 104.509C47.9824 104.509 48.0362 104.31 48.0362 104.297L48.2291 104.357Z" fill="#905FF4"/>
<path d="M46.6772 113.034C47.9424 115.697 48.3093 117.326 46.5031 116.558C41.831 115.925 37.2666 114.66 37.2666 112.227C37.2775 111.915 37.3514 111.608 37.4841 111.325C37.6167 111.041 37.8053 110.788 38.0384 110.579L38.1365 110.674C38.2946 110.624 38.4528 110.579 38.6173 110.535C38.6711 110.712 38.7279 110.886 38.7912 111.054C39.8857 114.018 42.6598 114.065 44.0168 111.313C44.2277 111.275 44.4271 111.244 44.6147 111.218C45.3391 111.689 45.9583 112.303 46.4336 113.025L46.6772 113.034Z" fill="#48D1A0"/>
<path d="M65.4122 116.586L65.4375 116.836C62.7741 117.083 60.1486 117.152 57.9123 117.187V117.045C56.9222 112.895 50.137 111.826 48.704 116.15L48.6409 116.782C47.9323 116.716 47.2143 116.634 46.4994 116.536C48.1664 116.871 47.8025 115.311 46.6733 113.015L46.4393 112.993C45.174 111.095 43.1717 110.121 40.7455 110.187C40.7455 110.076 40.7139 109.004 40.7455 108.457H40.796C43.1052 108.602 45.4523 107.252 47.4388 107.138C48.3181 107.093 48.8812 107.286 49.7227 107.426C50.33 108.868 49.8302 111.221 53.626 111.278C54.1543 111.278 54.6857 111.259 55.2076 111.278C56.9379 111.304 58.8991 111.655 60.7211 111.68C63.2327 111.721 64.7953 110.813 65.7126 110.526C64.6719 112.427 64.653 114.521 65.4122 116.586Z" fill="#E76892"/>
<path d="M57.9098 117.187C55.0594 117.226 52.2089 117.12 49.3691 116.871C49.6935 116.732 50.0388 116.647 50.3909 116.621C54.7687 116.273 54.6612 114.818 55.2717 113.948C55.916 114.234 56.4878 114.661 56.9449 115.198C57.4021 115.734 57.733 116.367 57.9131 117.048L57.9098 117.187Z" fill="#009BE2"/>
<path d="M72.6316 112.797L72.2648 112.604V112.876H72.1667C72.1726 113.153 72.1609 113.429 72.1318 113.705C73.0368 113.726 73.9303 113.499 74.7143 113.046C75.4983 112.593 76.1425 111.934 76.5762 111.139C75.3141 111.37 73.7419 111.471 72.6316 112.797Z" fill="white"/>
<path d="M68.0765 108.005C69.1298 107.483 70.1864 107.967 70.3224 109.959V111.225C70.373 112.316 70.8095 112.841 72.2487 112.863V112.591C72.1571 112.312 72.1091 112.021 72.1065 111.728C72.1065 109.589 75.1178 109.374 73.552 106.183C71.1132 106.208 68.6427 107.113 66.9473 108.821C67.2823 108.496 67.6626 108.221 68.0765 108.005Z" fill="white"/>
<path d="M72.2604 112.604L72.6274 112.797C73.7409 111.471 75.3129 111.37 76.5782 111.136C77.641 109.086 76.1766 107.732 74.4653 106.23C74.1654 106.206 73.8645 106.197 73.5637 106.205C75.3161 109.776 71.3399 109.621 72.2604 112.604Z" fill="#FF9FBF"/>
<path d="M72.1182 111.743V111.939C72.1213 111.879 72.1182 111.81 72.1182 111.743Z" fill="#FF9FBF"/>
<path d="M72.2608 112.604C72.1911 112.388 72.1465 112.165 72.1279 111.939C72.1465 112.165 72.1911 112.388 72.2608 112.604Z" fill="#FF9FBF"/>
<path d="M72.1346 113.701C72.163 113.5 72.1724 113.297 72.163 113.094V112.873C70.7775 112.832 70.3822 112.272 70.3347 111.237V110.842C70.3347 110.526 70.3347 110.301 70.3347 109.959C70.1987 107.973 69.1422 107.482 68.0888 108.004C67.1958 108.523 66.4499 109.261 65.922 110.149C65.0341 111.57 64.6965 113.267 64.973 114.919C66.5388 112.525 69.5882 113.66 72.1346 113.701Z" fill="#FF9FBF"/>
<path d="M68.0752 108.004C68.7363 107.688 69.4069 107.761 69.8276 108.321C69.4069 107.758 68.7395 107.679 68.0752 108.004Z" fill="#FF9FBF"/>
<path d="M70.2328 109.282C70.1669 108.941 70.03 108.618 69.8311 108.333C70.03 108.618 70.1669 108.941 70.2328 109.282Z" fill="#FF9FBF"/>
<path d="M70.9707 112.598C71.3413 112.789 71.7526 112.887 72.1696 112.885C71.752 112.892 71.3395 112.793 70.9707 112.598Z" fill="#FF9FBF"/>
<path d="M78.4039 107.669C78.6 108.074 78.6987 108.519 78.6918 108.969C78.6918 110.579 77.7428 110.918 76.563 111.136C76.1292 111.931 75.485 112.59 74.701 113.043C73.917 113.495 73.0235 113.723 72.1186 113.701C71.6536 117.058 66.058 111.721 65.2197 116.036C65.2703 116.219 65.3335 116.4 65.4 116.586L65.4284 116.836C72.1217 116.204 79.0745 114.584 80.8364 110.472L80.9945 110.121C80.2416 109.194 79.3707 108.37 78.4039 107.669Z" fill="white"/>
<path opacity="0.3" d="M78.4039 107.669C78.6 108.074 78.6987 108.519 78.6918 108.969C78.6918 110.579 77.7428 110.918 76.563 111.136C76.1292 111.931 75.485 112.59 74.701 113.043C73.917 113.495 73.0235 113.723 72.1186 113.701C71.6536 117.058 66.058 111.721 65.2197 116.036C65.2703 116.219 65.3335 116.4 65.4 116.586L65.4284 116.836C72.1217 116.204 79.0745 114.584 80.8364 110.472L80.9945 110.121C80.2416 109.194 79.3707 108.37 78.4039 107.669Z" fill="#50B0FF"/>
<path d="M76.5778 111.136C77.7735 110.918 78.6971 110.579 78.7066 108.969C78.7124 108.519 78.6128 108.074 78.4156 107.669C77.263 106.831 75.899 106.331 74.4775 106.227C76.1793 107.739 77.6406 109.09 76.5778 111.136Z" fill="#FF9FBF"/>
<path d="M76.5778 111.136C77.7735 110.918 78.6971 110.579 78.7066 108.969C78.7124 108.519 78.6128 108.074 78.4156 107.669C77.263 106.831 75.899 106.331 74.4775 106.227C76.1793 107.739 77.6406 109.09 76.5778 111.136Z" fill="#E76892"/>
<path d="M72.1339 113.701C69.5875 113.66 66.5382 112.525 64.9756 114.919C65.0332 115.298 65.1198 115.671 65.2349 116.036C66.0668 111.724 71.6689 117.057 72.1339 113.701Z" fill="#FF9FBF"/>
<path d="M72.1339 113.701C69.5875 113.66 66.5382 112.525 64.9756 114.919C65.0332 115.298 65.1198 115.671 65.2349 116.036C66.0668 111.724 71.6689 117.057 72.1339 113.701Z" fill="#E76892"/>
<path d="M40.0591 109.494C38.6958 109.871 37.2786 110.801 37.2754 112.211C37.2596 115.46 45.4175 116.491 48.644 116.798C51.7249 117.098 54.8201 117.228 57.9154 117.187C64.4601 117.133 78.2675 116.513 80.8519 110.472" stroke="#163050" stroke-width="1.21182" stroke-linecap="round" stroke-linejoin="round"/>
<path d="M35.9697 108.893C34.6633 110.124 33.5974 111.902 33.5879 113.692C33.5658 118.87 54.3733 119.753 59.5673 119.825C80.7798 120.116 84.9332 111.329 82.6968 108.469C78.1607 102.962 70.5405 102.738 63.4423 103.956" stroke="#163050" stroke-width="1.21182" stroke-linecap="round" stroke-linejoin="round"/>
<path d="M35.8779 108.938C37.3045 107.989 38.6616 106.986 40.5152 106.508" stroke="#163050" stroke-width="1.21182" stroke-linecap="round" stroke-linejoin="round"/>
<path d="M40.7458 110.149C40.7299 109.026 40.654 107.872 40.9957 106.59C41.913 103.111 45.4589 102.703 47.9831 104.522" stroke="#163050" stroke-width="1.21182" stroke-linecap="round" stroke-linejoin="round"/>
<path d="M38.1426 110.652C45.8671 108.22 47.5785 115.397 47.8884 116.314" stroke="#163050" stroke-width="1.21182" stroke-linecap="round" stroke-linejoin="round"/>
<path d="M48.0938 104.55C48.7707 105.468 49.4886 106.353 50.213 107.239" stroke="#163050" stroke-width="1.21182" stroke-linecap="round" stroke-linejoin="round"/>
<path d="M50.318 113.426C49.5517 112.425 49.1221 111.207 49.0907 109.947C49.074 109.444 49.1715 108.944 49.3758 108.484C49.5802 108.025 49.8861 107.617 50.2706 107.293C52.5576 105.436 57.3847 106.844 60.1589 107.831C62.0252 108.485 63.9136 109.273 65.6945 109.909" stroke="#163050" stroke-width="1.21182" stroke-linecap="round" stroke-linejoin="round"/>
<path d="M48.708 116.15C50.1315 111.845 56.9323 112.873 57.9161 117.045" stroke="#163050" stroke-width="1.21182" stroke-linecap="round" stroke-linejoin="round"/>
<path d="M66.9492 108.846C64.9754 110.836 64.3079 113.591 65.415 116.586" stroke="#163050" stroke-width="1.21182" stroke-linecap="round" stroke-linejoin="round"/>
<path d="M80.7816 110.336C79.7156 107.805 76.8624 106.255 73.8606 106.205C71.33 106.164 68.7362 107.053 66.9521 108.843" stroke="#163050" stroke-width="1.21182" stroke-linecap="round" stroke-linejoin="round"/>
<path d="M69.7935 106.685C69.1008 105.29 67.7469 104.246 66.2159 104.221C65.1165 104.293 64.0625 104.687 63.1855 105.354" stroke="#163050" stroke-width="1.21182" stroke-linecap="round" stroke-linejoin="round"/>
<path d="M63.913 108.805C62.964 104.183 60.6518 96.7529 55.9575 96.6643C52.9936 96.6106 50.7382 99.4164 50.7256 102.067C50.732 102.604 50.9461 103.117 51.323 103.499C51.6999 103.882 52.2103 104.103 52.7469 104.117C54.5879 104.149 54.5278 100.574 56.0967 100.603C58.2319 100.64 59.4973 106.04 60.152 107.84" stroke="#163050" stroke-width="1.21182" stroke-linecap="round" stroke-linejoin="round"/>
<path d="M66.7471 109.042C67.2943 108.511 68.0693 107.799 68.8285 107.812C70.0242 107.831 70.3469 109.2 70.3406 110.409V110.829C70.3406 111.908 70.4323 112.809 72.1752 112.851H72.3429" stroke="#163050" stroke-width="1.21182" stroke-linecap="round" stroke-linejoin="round"/>
<path d="M73.564 106.201C75.3228 109.788 71.3498 109.611 72.2608 112.604" stroke="#163050" stroke-width="1.21182" stroke-linecap="round" stroke-linejoin="round"/>
<path d="M78.5151 107.928C78.6388 108.261 78.7019 108.614 78.7017 108.969C78.6827 112.278 74.792 110.212 72.6221 112.797" stroke="#163050" stroke-width="1.21182" stroke-linecap="round" stroke-linejoin="round"/>
<path d="M65.1943 116.26C65.9029 111.351 72.1534 117.583 72.1534 113.236V113.094" stroke="#163050" stroke-width="1.21182" stroke-linecap="round" stroke-linejoin="round"/>
<path d="M48.2305 104.357C49.3661 104.19 50.4986 104.016 51.6405 103.892" stroke="#163050" stroke-width="1.21182" stroke-linecap="round" stroke-linejoin="round"/>
<path d="M53.9463 103.541C55.2116 103.541 57.1759 103.437 58.3748 103.497" stroke="#163050" stroke-width="1.21182" stroke-linecap="round" stroke-linejoin="round"/>
<path d="M41.1875 121.796C40.8577 122.286 40.6835 122.863 40.6877 123.454C40.6721 123.762 40.7198 124.07 40.828 124.358C40.9361 124.647 41.1024 124.911 41.3165 125.133C41.5305 125.355 41.7879 125.531 42.0725 125.649C42.3572 125.768 42.6632 125.827 42.9716 125.823H42.9906C42.8565 126.084 42.6506 126.301 42.3974 126.449C42.1441 126.597 41.8539 126.669 41.5608 126.658C41.2266 126.662 40.8949 126.598 40.5864 126.469C40.2779 126.34 39.9991 126.15 39.767 125.909C39.535 125.669 39.3545 125.383 39.2371 125.07C39.1196 124.757 39.0676 124.423 39.084 124.089C39.084 122.644 40.0139 121.315 41.0704 121.745L41.1875 121.796Z" fill="#7A51D0"/>
<path d="M41.1882 121.796C43.1273 122.622 43.6177 124.665 42.9913 125.823H42.9723C42.6639 125.827 42.358 125.768 42.0733 125.65C41.7886 125.531 41.5313 125.355 41.3172 125.133C41.1032 124.911 40.9368 124.647 40.8287 124.359C40.7205 124.07 40.6728 123.762 40.6884 123.454C40.6842 122.863 40.8585 122.286 41.1882 121.796Z" fill="#163050"/>
<path d="M41.4062 123.283C33.8998 110.596 34.052 102.249 37.9675 97.6446M70.9728 103.162C64.8421 96.3324 55.5618 92.7424 47.9438 93.2534" stroke="#163050" stroke-width="1.21182" stroke-linecap="round" stroke-linejoin="round"/>
<path d="M38.8283 124.242C38.5175 121.814 40.1101 120.649 41.6443 121.717C42.2592 122.099 43.528 123.197 43.6834 124.533C43.9747 127.349 41.6443 126.999 41.3334 126.98C41.0225 126.961 39.139 126.669 38.8283 124.242Z" stroke="#163050" stroke-width="1.21182"/>
<path d="M68.2066 127.034C69.8391 128.573 68.9565 130.849 67.3704 130.849C66.7211 130.803 66.1157 130.504 65.6848 130.016C65.5853 129.91 64.7625 129.124 64.6662 129.021C63.7704 128.026 63.0072 128.155 62.1312 129.051L61.7994 129.383C60.2034 130.454 59.5498 127.571 58.0367 128.079L56.8023 128.503H56.7592C56.0956 128.696 55.5846 129.409 54.9574 130.056C54.6719 129.974 54.4128 129.818 54.2052 129.605C53.9976 129.393 53.8488 129.13 53.7733 128.842C53.6977 128.555 53.698 128.252 53.7741 127.965C53.8502 127.678 53.9996 127.415 54.2076 127.203C54.4333 126.961 54.7784 126.609 55.2695 126.084C56.0857 125.218 57.0447 124.021 58.0965 123.871C58.8988 124.306 59.6204 124.875 60.2299 125.554C61.0628 124.681 62.2606 123.427 63.3954 123.417C63.986 123.452 64.5498 123.676 65.0047 124.054C65.9802 124.754 67.2311 126.104 68.2066 127.034Z" fill="#1C3A5F"/>
<path d="M65.3395 133.215L65.3065 133.232C65.1074 133.627 64.8816 133.802 64.3441 134.34C62.8808 135.803 61.5968 136.948 59.8316 135.933C59.1394 135.477 58.5091 134.934 57.9568 134.317C57.6769 134.067 57.4203 133.793 57.1903 133.497C57.0419 133.269 56.9539 133.008 56.9341 132.737C56.9144 132.466 56.9637 132.194 57.0775 131.948H57.2169C58.783 131.948 59.3836 133.855 60.2696 133.859C60.7905 133.859 61.4708 133.109 61.8291 132.727C63.2426 131.204 64.9447 131.961 65.3395 133.215Z" fill="#1C3A5F"/>
<path d="M58.0333 128.095C59.5463 127.588 60.2001 130.471 61.7961 129.399C61.0993 130.106 60.8471 130.282 60.1371 130.282C58.9459 130.282 58.3385 128.477 57.1142 128.48C57.01 128.48 56.9064 128.493 56.8057 128.52L58.0333 128.095Z" fill="#6C38D8"/>
<path d="M65.3396 133.215C65.4466 133.587 65.4441 133.982 65.3323 134.353C65.2205 134.724 65.0041 135.055 64.7092 135.306C63.5744 136.397 62.0547 138.249 60.3127 138.229C58.6371 138.206 57.2037 136.43 55.9992 135.242C54.7947 134.055 55.6443 132.054 57.0876 131.924C56.9738 132.171 56.9243 132.443 56.9441 132.714C56.9638 132.985 57.052 133.246 57.2004 133.474C57.4304 133.77 57.687 134.044 57.9669 134.293C58.5192 134.911 59.1493 135.454 59.8416 135.909C61.6068 136.925 62.8909 135.78 64.3542 134.317C64.8917 133.779 65.1173 133.603 65.3164 133.208L65.3396 133.215Z" fill="#6C38D8"/>
<path d="M58.1 123.871C57.0482 124.021 56.0893 125.219 55.273 126.085C54.7819 126.609 54.4368 126.961 54.2112 127.203C54.0032 127.415 53.8539 127.678 53.7778 127.965C53.7016 128.253 53.7012 128.555 53.7768 128.842C53.8524 129.13 54.0013 129.393 54.2089 129.605C54.4165 129.818 54.6756 129.974 54.9611 130.056C54.8583 130.162 54.7554 130.265 54.6293 130.365C52.7214 132.064 50.5979 129.164 52.2171 127.508C52.5091 127.199 53.5443 126.111 54.0752 125.537C54.855 124.684 55.8636 123.603 57.0084 123.589C57.3891 123.598 57.7626 123.695 58.1 123.871Z" fill="#6C38D8"/>
<path d="M56.8066 128.507H56.7568" stroke="#163050" stroke-width="0.995424" stroke-linecap="round" stroke-linejoin="round"/>
<path d="M61.8052 129.376L62.137 129.044C63.0163 128.149 63.7762 128.009 64.6721 129.015C64.7683 129.124 65.5911 129.91 65.6907 130.01C66.1216 130.498 66.7269 130.797 67.3763 130.843M56.7983 128.504C56.899 128.477 57.0026 128.464 57.1068 128.464C58.3311 128.464 58.9385 130.265 60.1296 130.265C60.8464 130.265 61.0985 130.09 61.7887 129.383M67.3696 130.849C68.9557 130.849 69.8383 128.573 68.2058 127.034C67.2303 126.088 65.9826 124.754 65.0071 124.047C64.5523 123.669 63.9886 123.446 63.398 123.41C62.2632 123.41 61.0753 124.675 60.2325 125.547C59.623 124.868 58.9012 124.299 58.0989 123.865C57.7635 123.694 57.3936 123.602 57.0173 123.596C55.8726 123.596 54.8638 124.691 54.084 125.544C53.5564 126.118 52.5179 127.203 52.2259 127.515C50.6066 129.174 52.7302 132.071 54.6381 130.372C54.7476 130.272 54.8505 130.169 54.9699 130.063C55.597 129.416 56.1048 128.703 56.7717 128.51H56.7916M58.0925 123.885C57.0406 124.034 56.0817 125.232 55.2655 126.098C54.7744 126.622 54.4292 126.974 54.2036 127.216C53.9956 127.429 53.8464 127.691 53.7702 127.979C53.6941 128.266 53.6937 128.568 53.7693 128.856C53.8448 129.143 53.9938 129.406 54.2013 129.619C54.4089 129.832 54.6681 129.987 54.9536 130.07M56.7685 128.514H56.7882L58.0226 128.089C59.5357 127.581 60.1893 130.465 61.7853 129.393M64.7087 135.306C65.0036 135.055 65.22 134.724 65.3318 134.353C65.4436 133.983 65.4461 133.587 65.3391 133.215C64.9442 131.961 63.2422 131.204 61.8287 132.708C61.4703 133.089 60.79 133.842 60.2691 133.839C59.3832 133.839 58.7825 131.934 57.2164 131.928H57.0771C55.6337 132.047 54.8043 134.055 55.9888 135.246C57.1734 136.437 58.6433 138.209 60.3023 138.232C62.0377 138.252 63.564 136.401 64.6988 135.309M57.0768 131.948C56.963 132.195 56.9137 132.466 56.9334 132.737C56.9532 133.008 57.0412 133.27 57.1896 133.497C57.4196 133.793 57.6762 134.068 57.9561 134.317C58.5084 134.934 59.1387 135.478 59.8309 135.933C61.5961 136.948 62.8801 135.803 64.3434 134.34C64.8809 133.803 65.1067 133.627 65.3058 133.232" stroke="#163050" stroke-width="0.995424" stroke-linecap="round" stroke-linejoin="round"/>
</svg>
