<svg width="1201" height="202" viewBox="0 0 1201 202" fill="none" xmlns="http://www.w3.org/2000/svg">
<rect height="202" width="1201" y="0" x="0" fill="#2B325C"/>
<path d="M915.23 33.6713C943.992 55.0389 946.065 46.7656 959.161 57.4C969.411 65.7178 970.65 81.542 980.622 89.6495C1004.89 109.355 1014.86 68.0649 1038.85 87.5368C1045.16 92.6557 1045.8 103.553 1047.88 114.792C1050.04 126.363 1055.24 146.472 1069.69 158.191C1081.01 167.384 1102.32 172.056 1114.03 162.267C1124.21 153.766 1124.69 138.3 1134.86 129.772C1143.91 122.114 1162.88 132.109 1171.49 124.956C1175.2 121.875 1176.05 116.297 1176.15 110.561C1176.52 82.3165 1241.33 120.956 1260.28 113.241C1269.9 109.323 1249.61 85.2387 1248.59 73.4425C1247.56 61.65 1257.46 56.4321 1251.58 42.4807C1245.61 28.3131 1210.61 12.1579 1222.64 -1.80839L1203.16 10.5471L1166.89 -34.8826L1134.64 -43.8455L1100.19 -96.6404L1055.76 -99.3912L997.452 -174.046C980.415 -178.463 962.324 -182.397 951.872 -170.268C938.998 -155.327 944.964 -124.067 939.653 -106.37C938.206 -101.546 935.719 -97.3309 932.273 -93.8629C920.824 -82.2294 941.321 -61 935.988 -43.445C930.656 -25.8899 899.87 -39.7685 892.717 -32.5558C890.838 -30.6368 888.151 -29.1301 886.191 -27.1612C878.152 -19.0623 886.469 12.3036 915.23 33.6713Z" fill="#163050"/>
<path d="M357.243 72.1398C427.775 88.7954 425 71.7686 457.841 81.0329C483.541 88.2737 498.515 116.673 523.529 123.746C584.378 140.916 569.828 56.2409 629.993 73.1904C645.805 77.6483 655.724 97.3745 668.595 116.58C681.863 136.347 707.633 169.529 743.843 179.731C772.241 187.737 815.568 179.347 829.479 151.786C841.576 127.846 830.081 98.7351 842.129 74.756C852.82 53.2792 896.055 56.6536 906.324 36.4722C910.74 27.7815 907.845 16.7417 903.437 6.00967C881.522 -46.7555 1032.84 -26.8888 1061.85 -56.3861C1076.58 -71.3678 1019.6 -99.853 1008.26 -120.946C996.914 -142.028 1011.13 -159.649 989.025 -180.851C966.591 -202.385 888.644 -204.362 899.812 -239.94L873.519 -201.389L769.779 -256.727L702.701 -247.549L596.429 -318.018L511.707 -287.549L343.616 -379.516C308.435 -374.076 271.682 -366.896 261.983 -335.997C250.036 -297.936 286.151 -244.653 290.458 -207.529C291.633 -197.41 290.389 -187.589 286.767 -178.388C274.817 -147.612 329.888 -124.595 334.042 -87.7177C338.196 -50.8408 269.901 -51.965 262.39 -32.8397C260.437 -27.7709 256.653 -22.8204 254.59 -17.5944C246.145 3.88613 286.711 55.4843 357.243 72.1398Z" fill="#374179"/>
<path d="M461.724 7.93186C404.09 43.4874 401.533 27.5714 375.142 45.465C354.487 59.4597 349.579 89.0552 329.483 102.699C280.586 135.857 268.534 56.4848 220.179 89.2458C207.472 97.8588 204.489 118.274 198.736 139.097C192.797 160.535 179.725 197.554 150.623 217.271C127.801 232.74 86.9098 238.069 66.4515 217.73C48.6697 200.066 50.2832 170.865 32.5325 153.153C16.7237 137.259 -20.62 152.994 -35.6731 138.125C-42.1502 131.72 -42.8369 121.077 -42.0909 110.262C-38.2087 57.0146 -166.535 119.227 -200.946 101.618C-218.423 92.6749 -176.298 50.6256 -172.457 28.5794C-168.608 6.54074 -186.404 -4.89572 -173.054 -30.209C-159.508 -55.9153 -90.9729 -80.6405 -111.361 -108.897L-76.6849 -82.4617L-1.00424 -162.105L61.1805 -173.735L134.648 -267.542L218.752 -265.493L340.7 -396.581C373.499 -402.125 408.205 -406.59 425.912 -382.05C447.723 -351.82 431.402 -293.929 438.523 -259.741C440.463 -250.422 444.461 -242.08 450.384 -234.989C470.051 -211.22 428.001 -174.58 435.186 -140.656C442.37 -106.732 502.598 -127.856 514.895 -113.111C518.12 -109.192 522.935 -105.917 526.304 -101.891C540.123 -85.3327 519.359 -27.6237 461.724 7.93186Z" fill="#163050"/>
<path d="M860.352 23.955C903.916 -5.49944 977.49 -18.8891 990.779 -60.3997C978.032 -124.017 988.047 -114.254 928.814 -147.291C881.428 -173.722 867.508 -213.589 866.471 -230.218L849.229 -176.361L724.496 -242.785L667.79 -222.146L545.199 -306.12L447.999 -277.269C406.488 -286.671 371.444 -279.219 363.568 -254.617C360.918 -246.34 360.685 -237.235 357.985 -228.8C339.085 -169.762 359.806 -242.865 308.38 -82.2301C295.559 -42.1807 210.334 -20.0809 325.799 17.028C340 20.4999 364.965 21.2463 379.12 21.3665C433.424 21.8015 507.108 12.128 568.102 27.5194C700.773 60.9977 617.339 151.868 682.541 168.321C730.248 180.359 735.12 121.688 758.376 107.432C868.006 40.2705 822.999 49.1988 860.352 23.955Z" fill="#4E5BAA" fill-opacity="0.6"/>
<path d="M1061.03 -39.4074L980.463 -65.939L961.514 -44.9742L990.502 22.8534L966.704 44.5626L975.896 99.1622L953.85 110.035L963.825 159.603L928.751 149.342L928.574 168.877L895.627 159.869L911.899 231.848L904.125 170.952L941.431 185.383L945.181 167.444L972.141 173.886L972.433 123.579L1000.43 111.133L984.405 53.1643L1022.62 38.1674L1011.01 -30.4946L1061.03 -39.4074Z" fill="#163050"/>
<path fill-rule="evenodd" clip-rule="evenodd" d="M1121.27 170.473C1118.8 155.735 1129.68 140.865 1132.78 138.535C1130.9 136.776 1129.41 134.712 1128.33 132.475C1127.24 132.813 1126.02 133.073 1124.73 133.272C1122.3 133.647 1119.52 133.822 1116.7 133.868C1111.06 133.959 1105.18 133.535 1101.49 133.114C1101.02 133.061 1100.69 132.64 1100.74 132.173C1100.79 131.707 1101.21 131.372 1101.68 131.425C1105.32 131.839 1111.12 132.258 1116.67 132.168C1119.45 132.123 1122.15 131.951 1124.47 131.592C1125.66 131.409 1126.72 131.181 1127.64 130.906C1127.42 130.339 1127.23 129.763 1127.06 129.18C1120.85 129.949 1116.18 128.993 1113.75 128.291C1113.3 128.161 1113.04 127.689 1113.17 127.238C1113.3 126.788 1113.77 126.528 1114.22 126.658C1116.46 127.304 1120.81 128.206 1126.64 127.518C1126.53 126.969 1126.43 126.416 1126.36 125.86C1123.49 125.982 1120.42 125.629 1117.62 125.103C1114.11 124.442 1110.97 123.495 1109.14 122.818C1108.7 122.655 1108.48 122.166 1108.64 121.726C1108.8 121.286 1109.29 121.061 1109.73 121.224C1111.47 121.869 1114.52 122.79 1117.94 123.433C1120.65 123.942 1123.55 124.27 1126.21 124.166C1125.92 118.431 1127.89 112.58 1132.27 108.263C1127.25 95.0638 1130.68 87.4926 1133.02 85.3569C1144.27 90.8029 1149.43 95.4979 1150.61 97.1646C1159.28 96.8728 1164.65 99.0976 1166.25 100.246C1178.32 93.9094 1186.29 93.0225 1188.76 93.3713C1189.06 105.042 1185.91 112.562 1184.3 114.863C1187.01 121.323 1185.94 127.607 1183.32 133.004C1184.57 133.3 1185.84 133.538 1187.09 133.727C1190.53 134.248 1193.71 134.384 1195.57 134.35C1196.04 134.342 1196.42 134.715 1196.43 135.184C1196.44 135.654 1196.07 136.041 1195.6 136.05C1193.65 136.085 1190.37 135.944 1186.83 135.407C1185.42 135.193 1183.96 134.915 1182.51 134.556C1182.17 135.165 1181.81 135.76 1181.44 136.342C1184.95 137.557 1187.81 137.902 1189.53 137.997C1190 138.023 1190.36 138.423 1190.33 138.892C1190.31 139.361 1189.91 139.72 1189.44 139.694C1187.52 139.589 1184.34 139.195 1180.46 137.797C1180 138.449 1179.52 139.08 1179.03 139.688C1180.94 140.642 1183.12 141.552 1185.4 142.391C1190.62 144.308 1196.23 145.827 1199.8 146.637C1200.26 146.74 1200.55 147.196 1200.44 147.653C1200.34 148.111 1199.88 148.398 1199.43 148.294C1195.8 147.472 1190.11 145.934 1184.82 143.986C1182.36 143.083 1179.98 142.086 1177.91 141.025C1175.52 143.761 1173 145.953 1170.94 147.405C1177.78 159.766 1179.95 173.519 1180.31 181.246C1188.85 181.155 1196.57 174.339 1202.02 166.367C1212.27 151.376 1227 169.482 1213.68 179.262C1204.63 185.911 1191.76 192.984 1179.14 190.858C1169.04 229.938 1119.75 221.012 1121.27 170.473Z" fill="#323B71"/>
<path fill-rule="evenodd" clip-rule="evenodd" d="M1139.43 117.264C1138.65 122.038 1139.14 125.479 1141.74 127.294C1141.7 124.458 1142.14 120.296 1144.1 117.636C1142.73 117.357 1141.16 117.242 1139.43 117.264ZM1150.08 128.664C1148.26 128.819 1146.7 128.795 1145.38 128.601C1145.32 125.387 1146.6 121.432 1147.62 118.991C1150.2 120.686 1151.19 123.744 1150.08 128.664ZM1172.13 121.835C1171.57 126.801 1169.37 129.144 1166.86 130.055C1166.44 127.037 1167.06 123.262 1167.68 120.759C1169.15 120.796 1170.68 121.163 1172.13 121.835ZM1159.61 129.659C1159.55 125.719 1161.05 123.169 1163.25 121.847C1162.5 124.847 1162.85 128.365 1163.3 130.516C1161.91 130.429 1160.62 130.079 1159.61 129.659Z" fill="#4E5BAA"/>
<path d="M723.829 23.6084C698.523 27.3082 695.734 51.5924 698.751 48.4512C714.082 32.5382 714.284 48.94 716.673 48.1702C723.252 46.1758 723.91 60.8998 725.815 59.005C732.211 52.6197 737.116 54.0072 738.737 59.9778C738.767 60.0631 738.815 60.1413 738.876 60.2073C738.938 60.2734 739.013 60.3257 739.096 60.3614C739.179 60.3972 739.269 60.4154 739.359 60.4149C739.45 60.4144 739.539 60.3951 739.622 60.3584C746.289 57.3255 747.56 68.4126 745.623 77.5653C745.606 77.6821 745.621 77.8014 745.667 77.9103C745.713 78.0191 745.787 78.1134 745.883 78.1829C745.978 78.2525 746.091 78.2947 746.208 78.3049C746.326 78.3151 746.444 78.2932 746.55 78.2412C768.809 68.0953 758.607 36.6447 756.327 40.5361C750.929 49.7258 738.485 48.6187 740.476 46.629C742.835 44.2712 740.698 40.6857 739.732 41.1169C737.453 42.1588 733.799 41.1007 733.094 38.2037C733.07 38.1126 733.026 38.0278 732.967 37.9544C732.908 37.881 732.834 37.8207 732.75 37.7775C732.667 37.7344 732.575 37.7094 732.481 37.7039C732.387 37.6984 732.292 37.7126 732.204 37.7457C727.266 39.707 729.339 43.0631 727.684 41.8047C724.678 39.5242 721.782 32.1333 724.528 24.386C724.553 24.2858 724.554 24.1811 724.529 24.0807C724.504 23.9803 724.455 23.8877 724.386 23.8108C724.317 23.7339 724.23 23.6751 724.133 23.6398C724.036 23.6045 723.931 23.5938 723.829 23.6084Z" fill="#374179"/>
</svg>
