<?xml version="1.0" encoding="UTF-8"?>
<svg viewBox="0 0 76 76" version="1.1" xmlns="http://www.w3.org/2000/svg" xmlns:xlink="http://www.w3.org/1999/xlink">
    <!-- Generator: Sketch 63.1 (92452) - https://sketch.com -->
    <title>experience@2x</title>
    <desc>Created with Sketch.</desc>
    <g id="experience" stroke="none" stroke-width="1" fill="none" fill-rule="evenodd">
        <g id="Group-2" transform="translate(6.000000, 7.000000)">
            <g id="Group-3">
                <g id="Group-259-Copy" stroke-linejoin="round">
                    <polyline id="Path" stroke="#FFFFFF" stroke-width="2.30247" stroke-linecap="round" points="32.5 19.9692308 37.1984764 27.442408 45.0294118 30.4307692"></polyline>
                    <path d="M32.4289337,-2.51940002 L19.4231402,15.4500364 L-2.40868977,21.0706076 L11.5742687,39.7841186 L11.3384293,62.1125178 L32.7678495,55.6053431 L54.3695549,64.0390658 L53.6565268,41.521797 L67.3531104,24.0405485 L45.4177064,16.5918389 L32.4289337,-2.51940002 Z" id="Path" stroke="#163150" stroke-width="3" fill="#FFC835" fill-rule="nonzero"></path>
                </g>
                <g id="Group" transform="translate(19.000000, 20.000000)">
                    <path d="M14.5001191,2 C8.1487941,2 3,7.14879388 3,13.5000395 C3,19.8516011 8.1487941,25 14.5001191,25 C20.8512853,25 26,19.8516011 26,13.5000395 C26,10.4500259 24.7888178,7.52498961 22.6323421,5.36830264 C20.4750727,3.21161568 17.550298,2 14.5001191,2 Z" id="Path" fill="#FFFFFF"></path>
                    <path d="M13.999617,0 C6.26791224,0 0,6.26798272 0,14 C0,21.732102 6.26791224,28 13.999617,28 C21.7318324,28 28,21.732102 28,14 C28,10.2869609 26.5248867,6.72600186 23.8989637,4.10048293 C21.2738919,1.47496399 17.7125104,0 13.999617,0 Z M18.8386355,18.3750741 L15.2338433,22.0235533 C14.9086885,22.3505888 14.468623,22.5361349 14.0089801,22.5403711 C13.5484859,22.5361349 13.1084204,22.3505888 12.7832656,22.0235533 L9.19609304,18.3750741 C8.86217096,18.04609 8.67405784,17.5969669 8.67405784,17.1281877 C8.67405784,16.6594086 8.86217096,16.2102008 9.19609304,15.8813014 C9.3754389,15.6969415 9.6215181,15.5928154 9.87866278,15.5925612 C10.1357223,15.5928154 10.3818015,15.6969415 10.5611474,15.8813014 L12.3815036,17.7275269 C12.8122061,18.166822 13.4020812,18.4143862 14.017492,18.4143862 C14.6329028,18.4143862 15.2227779,18.166822 15.6534803,17.7275269 L17.4997127,15.8813014 C17.6793139,15.6969415 17.925308,15.5928154 18.1823676,15.5925612 C18.4394271,15.5928154 18.6854212,15.6969415 18.8650225,15.8813014 C19.197838,16.2113869 19.3842487,16.6611878 19.3825579,17.129967 C19.380844,17.5987461 19.1910285,18.0472761 18.8556594,18.3750741 L18.8386355,18.3750741 Z M22.6272849,12.5387613 C22.4519397,12.7171905 22.2127551,12.8180124 21.9625051,12.8187749 C21.7224693,12.8225875 21.4917967,12.7276116 21.3232609,12.5562992 L19.573213,10.8062357 C19.162088,10.3900703 18.6011534,10.1567398 18.0163854,10.1587732 C17.4103377,10.1574176 16.8298257,10.400322 16.4059328,10.8325002 L14.6558849,12.6262815 C14.4294682,12.8597814 14.0983551,12.9591629 13.780861,12.8887571 C13.5944502,12.8592731 13.4225097,12.7702279 13.2914264,12.635008 L11.5411231,10.8850292 C11.129913,10.4688638 10.5686379,10.2354486 9.98361458,10.237482 C9.37816271,10.2362111 8.79773583,10.4791155 8.37367267,10.9112937 L6.6236248,12.7049903 C6.26050688,13.0573583 5.6831443,13.0573583 5.31994127,12.7049903 C4.69201796,12.0325341 4.69201796,10.9887317 5.31994127,10.3162755 L8.81986679,6.76378887 C9.13446684,6.43954927 9.56687166,6.25646022 10.0185985,6.25629077 C10.4498968,6.25578243 10.8631498,6.42929764 11.1648969,6.73752436 L13.999617,9.62501059 L16.8877067,6.70253325 C17.2026472,6.3791409 17.6342008,6.1962213 18.086183,6.19503516 C18.523695,6.18978226 18.9441832,6.36363636 19.2497606,6.67626875 L22.6885706,10.1762264 C23.2937672,10.8575786 23.2741898,11.8890113 22.6443087,12.5474879 L22.6272849,12.5387613 Z" id="Shape" fill="#007896" fill-rule="nonzero"></path>
                </g>
            </g>
        </g>
        <g id="Group-4" transform="translate(8.009549, 41.225346) rotate(18.000000) translate(-8.009549, -41.225346) translate(0.509549, 35.725346)" opacity="0.4" stroke="#B6BFC7" stroke-linecap="round" stroke-linejoin="round" stroke-width="1.69867">
            <line x1="3.29169121" y1="2.61986061" x2="0.291691212" y2="0.619860611" id="Path-Copy"></line>
            <line x1="14.1407614" y1="10.6649434" x2="6.14076144" y2="4.66494343" id="Path-Copy-2"></line>
        </g>
        <g id="Group-4-Copy" transform="translate(64.880771, 58.839136) rotate(53.000000) translate(-64.880771, -58.839136) translate(55.880771, 52.339136)" opacity="0.4" stroke="#B6BFC7" stroke-linecap="round" stroke-linejoin="round" stroke-width="1.69867">
            <line x1="5.20704772" y1="3.49251464" x2="0.811141186" y2="0.687069571" id="Path-Copy"></line>
            <line x1="17.7940851" y1="12.7097574" x2="7.79408506" y2="5.70975736" id="Path-Copy-2"></line>
        </g>
    </g>
</svg>