<svg width="142" height="141" viewBox="0 0 142 141" fill="none" xmlns="http://www.w3.org/2000/svg">
<g opacity="0.4">
<path opacity="0.4" d="M25 134H50M3 127H58H3ZM127 127H120H127Z" stroke="#B5BFC7" stroke-width="3" stroke-linecap="round" stroke-linejoin="round"/>
</g>
<path opacity="0.4" d="M107 2H121.15C126.149 2 130.944 3.98598 134.479 7.52104C138.014 11.0561 140 15.8507 140 20.85V42" stroke="#B5BFC7" stroke-width="3" stroke-linecap="round" stroke-linejoin="round"/>
<path opacity="0.4" d="M88 2H98" stroke="#B5BFC7" stroke-width="3" stroke-linecap="round" stroke-linejoin="round"/>
<path d="M133 106.15V20.85C133 14.3054 127.695 9 121.15 9L13.85 9C7.30544 9 2 14.3054 2 20.85V106.15C2 112.695 7.30544 118 13.85 118L121.15 118C127.695 118 133 112.695 133 106.15Z" fill="#F2F2F2" stroke="#163050" stroke-width="3" stroke-linecap="round" stroke-linejoin="round"/>
<path opacity="0.2" d="M130.73 113.06C129.633 114.59 128.187 115.836 126.513 116.695C124.838 117.554 122.982 118.001 121.1 118H13.85C12.2935 118.001 10.752 117.696 9.31365 117.101C7.87535 116.506 6.56849 115.633 5.46786 114.532C4.36722 113.432 3.49441 112.125 2.89935 110.686C2.3043 109.248 1.99869 107.707 2 106.15V20.8501C2 24.5001 6 28.5001 6 35.5001V104.15C6 110.7 10.3 114 16.85 114H126.15C127.724 113.998 129.282 113.678 130.73 113.06Z" fill="#163050"/>
<path d="M123 23.83V103.17C123 103.936 122.849 104.694 122.556 105.401C122.263 106.108 121.834 106.751 121.292 107.292C120.751 107.834 120.108 108.263 119.401 108.556C118.694 108.849 117.936 109 117.17 109H17.83C16.2838 109 14.8009 108.386 13.7076 107.292C12.6142 106.199 12 104.716 12 103.17V89.5H8.5V37.5H12V23.83C12 22.2838 12.6142 20.8009 13.7076 19.7076C14.8009 18.6142 16.2838 18 17.83 18H117.17C117.936 18 118.694 18.1508 119.401 18.4438C120.108 18.7368 120.751 19.1662 121.292 19.7076C121.834 20.2489 122.263 20.8916 122.556 21.599C122.849 22.3063 123 23.0644 123 23.83Z" fill="#FFD166"/>
<path opacity="0.8" d="M123 103.17V23.83C123 23.0644 122.849 22.3063 122.556 21.599C122.263 20.8916 121.834 20.2489 121.293 19.7076C120.751 19.1662 120.108 18.7368 119.401 18.4438C118.694 18.1508 117.936 18 117.17 18H17.8201C17.9601 18.83 22.5901 22 28.3601 22H115.05C116.095 22 117.097 22.4151 117.836 23.154C118.575 23.8929 118.99 24.895 118.99 25.94V89.64C118.99 94.4415 120.379 99.1404 122.99 103.17H123Z" fill="white"/>
<path d="M16.8301 36.5H12.8301V23C15.4293 27.0238 16.8177 31.7097 16.8301 36.5Z" fill="#FFAE25"/>
<path d="M118 108.17H18.6501C17.8854 108.171 17.128 108.022 16.4213 107.73C15.7146 107.438 15.0725 107.009 14.5318 106.468C13.9911 105.928 13.5624 105.285 13.2704 104.579C12.9784 103.872 12.8288 103.115 12.8301 102.35V88.5H16.8301V100.23C16.8274 101.269 17.2362 102.267 17.967 103.005C18.6978 103.743 19.6913 104.162 20.7301 104.17H107.42C113.23 104.17 117.86 107.34 118 108.17Z" fill="#FFAE25"/>
<path d="M20.5 34.0302C22.9963 34.0302 25.02 32.0021 25.02 29.5002C25.02 26.9984 22.9963 24.9702 20.5 24.9702C18.0037 24.9702 15.98 26.9984 15.98 29.5002C15.98 32.0021 18.0037 34.0302 20.5 34.0302Z" fill="#FFAE25"/>
<path d="M22.5 30C23.8807 30 25 28.8807 25 27.5C25 26.1193 23.8807 25 22.5 25C21.1193 25 20 26.1193 20 27.5C20 28.8807 21.1193 30 22.5 30Z" fill="white" stroke="#163050" stroke-width="3" stroke-linecap="round" stroke-linejoin="round"/>
<path d="M20.5 105.03C22.9963 105.03 25.02 103.002 25.02 100.5C25.02 97.9984 22.9963 95.9702 20.5 95.9702C18.0037 95.9702 15.98 97.9984 15.98 100.5C15.98 103.002 18.0037 105.03 20.5 105.03Z" fill="#FFAE25"/>
<path d="M22.5 101C23.8807 101 25 99.8807 25 98.5C25 97.1193 23.8807 96 22.5 96C21.1193 96 20 97.1193 20 98.5C20 99.8807 21.1193 101 22.5 101Z" fill="white" stroke="#163050" stroke-width="3" stroke-linecap="round" stroke-linejoin="round"/>
<path d="M110.5 34.0302C112.996 34.0302 115.02 32.0021 115.02 29.5002C115.02 26.9984 112.996 24.9702 110.5 24.9702C108.004 24.9702 105.98 26.9984 105.98 29.5002C105.98 32.0021 108.004 34.0302 110.5 34.0302Z" fill="#FFAE25"/>
<path d="M112.5 30C113.881 30 115 28.8807 115 27.5C115 26.1193 113.881 25 112.5 25C111.119 25 110 26.1193 110 27.5C110 28.8807 111.119 30 112.5 30Z" fill="white" stroke="#163050" stroke-width="3" stroke-linecap="round" stroke-linejoin="round"/>
<path d="M110.5 105.03C112.996 105.03 115.02 103.002 115.02 100.5C115.02 97.9984 112.996 95.9702 110.5 95.9702C108.004 95.9702 105.98 97.9984 105.98 100.5C105.98 103.002 108.004 105.03 110.5 105.03Z" fill="#FFAE25"/>
<path d="M112.5 101C113.881 101 115 99.8807 115 98.5C115 97.1193 113.881 96 112.5 96C111.119 96 110 97.1193 110 98.5C110 99.8807 111.119 101 112.5 101Z" fill="white" stroke="#163050" stroke-width="3" stroke-linecap="round" stroke-linejoin="round"/>
<path d="M109.1 91.3799C108.239 91.3772 107.393 91.157 106.64 90.7399C105.831 90.3092 105.156 89.6645 104.689 88.8762C104.221 88.0879 103.98 87.1863 103.99 86.2699V51.9599C103.99 47.6099 106.18 46.6199 109.85 44.2799L115.4 40.7399C115.566 40.6276 115.753 40.5497 115.95 40.5108C116.146 40.472 116.349 40.473 116.545 40.5137C116.742 40.5545 116.928 40.6342 117.093 40.7481C117.258 40.8621 117.398 41.008 117.506 41.1771C117.613 41.3463 117.686 41.5353 117.719 41.733C117.753 41.9307 117.746 42.1331 117.7 42.3282C117.654 42.5233 117.569 42.7072 117.45 42.8689C117.332 43.0306 117.182 43.167 117.01 43.2699L111.46 46.8099C108.66 48.5999 106.99 48.6399 106.99 51.9599V86.2699C106.99 86.6464 107.091 87.0161 107.283 87.3401C107.475 87.6641 107.751 87.9305 108.081 88.1114C108.411 88.2924 108.784 88.3812 109.16 88.3686C109.537 88.3561 109.903 88.2425 110.22 88.0399L115.4 84.7399C115.566 84.6276 115.753 84.5497 115.95 84.5108C116.146 84.472 116.349 84.473 116.545 84.5137C116.742 84.5545 116.928 84.6342 117.093 84.7481C117.258 84.8621 117.398 85.008 117.506 85.1771C117.613 85.3463 117.686 85.5353 117.719 85.733C117.753 85.9307 117.746 86.1331 117.7 86.3282C117.654 86.5233 117.569 86.7072 117.45 86.8689C117.332 87.0307 117.182 87.167 117.01 87.2699L111.83 90.5699C111.016 91.0946 110.069 91.3757 109.1 91.3799Z" fill="#FFAE25"/>
<path d="M116 42C114.674 42 113.402 42.5268 112.464 43.4645C111.527 44.4021 111 45.6739 111 47V81C111 82.3261 111.527 83.5979 112.464 84.5355C113.402 85.4732 114.674 86 116 86V86" stroke="#163050" stroke-width="3" stroke-linecap="round" stroke-linejoin="round"/>
<path d="M37.51 44.2001C31.2852 50.6912 27.8518 59.363 27.946 68.356C28.0402 77.349 31.6544 85.947 38.0138 92.3063C44.3731 98.6656 52.9711 102.28 61.9641 102.374C70.9571 102.468 79.6289 99.0348 86.12 92.8101L89.45 90.1401C95.9001 83.694 99.5253 74.9496 99.5281 65.8307C99.5309 56.7117 95.9111 47.9651 89.465 41.5151C86.2732 38.3213 82.4836 35.7875 78.3126 34.0583C74.1416 32.3291 69.6709 31.4384 65.1556 31.437C56.0367 31.4342 47.2901 35.054 40.84 41.5001L37.51 44.2001Z" fill="#FFAE25"/>
<path d="M66.82 95.9999C84.946 95.9999 99.64 81.3058 99.64 63.1799C99.64 45.0539 84.946 30.3599 66.82 30.3599C48.694 30.3599 34 45.0539 34 63.1799C34 81.3058 48.694 95.9999 66.82 95.9999Z" fill="white" stroke="#163050" stroke-width="3" stroke-linecap="round" stroke-linejoin="round"/>
<path d="M67.0001 88.6599V84.3398M52.6401 77.8598L49.3401 81.1599L52.6401 77.8598ZM84.7901 45.7098L81.7301 48.7698L84.7901 45.7098ZM52.6401 49.1398L49.3401 45.8398L52.6401 49.1398ZM84.7901 81.2898L81.7301 78.2299L84.7901 81.2898ZM92.6601 63.9998H88.3401H92.6601ZM46.6601 63.9998H42.3401H46.6601ZM67.0001 42.6599V38.3398V42.6599Z" stroke="#163050" stroke-width="3" stroke-linecap="round" stroke-linejoin="round"/>
<path opacity="0.2" d="M51.0601 55.4998C48.0101 58.5498 46.2966 62.6864 46.2966 66.9998C46.2966 71.3131 48.0101 75.4498 51.0601 78.4998C54.1101 81.5498 58.2468 83.2632 62.5601 83.2632C66.8734 83.2632 71.0101 81.5498 74.0601 78.4998L78.9401 73.9298C89.0001 64.2398 65.9401 41.3698 55.9401 50.9298L51.0601 55.4998Z" fill="#163050"/>
<path d="M82.55 61.4599L79.04 53.1099L85.43 55.3799L82.55 61.4599Z" fill="#163050" stroke="#163050" stroke-width="3" stroke-linecap="round" stroke-linejoin="round"/>
<path d="M66.8 77.68C74.8578 77.68 81.39 71.1478 81.39 63.09C81.39 55.0322 74.8578 48.5 66.8 48.5C58.7421 48.5 52.21 55.0322 52.21 63.09C52.21 71.1478 58.7421 77.68 66.8 77.68Z" fill="#007FC6"/>
<path d="M58.6199 61.78L62.4199 57.98L66.7999 62.36L71.1799 57.98L75.0999 61.9" stroke="white" stroke-width="3" stroke-linecap="round" stroke-linejoin="round"/>
<path d="M62.5601 66.6099L66.8001 70.4499L71.1301 66.6099" stroke="white" stroke-width="3" stroke-linecap="round" stroke-linejoin="round"/>
<path d="M66.9399 49.5C69.61 49.5 72.2201 50.2918 74.4401 51.7752C76.6602 53.2586 78.3905 55.367 79.4123 57.8338C80.4341 60.3006 80.7014 63.015 80.1805 65.6337C79.6596 68.2525 78.3739 70.6579 76.4859 72.5459C74.5979 74.434 72.1924 75.7197 69.5737 76.2406C66.9549 76.7615 64.2405 76.4942 61.7737 75.4724C59.3069 74.4506 57.1985 72.7203 55.7151 70.5002C54.2317 68.2801 53.4399 65.67 53.4399 63C53.4399 59.4196 54.8623 55.9858 57.394 53.4541C59.9257 50.9223 63.3595 49.5 66.9399 49.5ZM66.9399 46.5C63.6766 46.5 60.4864 47.4677 57.773 49.2808C55.0596 51.0938 52.9448 53.6707 51.6959 56.6857C50.4471 59.7007 50.1203 63.0183 50.757 66.219C51.3936 69.4197 52.9651 72.3597 55.2727 74.6673C57.5803 76.9748 60.5203 78.5463 63.721 79.183C66.9216 79.8196 70.2392 79.4929 73.2542 78.244C76.2692 76.9952 78.8461 74.8803 80.6592 72.1669C82.4722 69.4535 83.4399 66.2634 83.4399 63C83.4347 58.6256 81.6946 54.4318 78.6014 51.3386C75.5082 48.2454 71.3144 46.5053 66.9399 46.5Z" fill="#163050"/>
<path d="M33.1001 124.11H20.8901L19.3501 118.14H34.6401L33.1001 124.11Z" fill="white"/>
<path opacity="0.3" d="M23.9301 124.11H20.8901L19.3501 118.14H31.1601L23.9301 124.11Z" fill="#163050"/>
<path d="M33.1001 124.11H20.8901L19.3501 118.14H34.6401L33.1001 124.11Z" stroke="#163050" stroke-width="3" stroke-linecap="round" stroke-linejoin="round"/>
<path d="M117.2 124.11H105L103.45 118.14H118.74L117.2 124.11Z" fill="white"/>
<path opacity="0.3" d="M108.03 124.11H105L103.45 118.14H115.26L108.03 124.11Z" fill="#163050"/>
<path d="M117.2 124.11H105L103.45 118.14H118.74L117.2 124.11Z" stroke="#163050" stroke-width="3" stroke-linecap="round" stroke-linejoin="round"/>
<path d="M18.5 71C18.5 71.3978 18.342 71.7794 18.0607 72.0607C17.7794 72.342 17.3978 72.5 17 72.5H12.5V89.5H7.5V35.5H12.5V51.5H17C17.3978 51.5 17.7794 51.658 18.0607 51.9393C18.342 52.2206 18.5 52.6022 18.5 53C18.5 53.3978 18.342 53.7794 18.0607 54.0607C17.7794 54.342 17.3978 54.5 17 54.5H12.5V69.5H17C17.3978 69.5 17.7794 69.658 18.0607 69.9393C18.342 70.2206 18.5 70.6022 18.5 71Z" fill="#FFAE25"/>
<path d="M12 34.33V23.83C12 22.2838 12.6142 20.8009 13.7076 19.7076C14.8009 18.6142 16.2838 18 17.83 18H117.18C118.726 18 120.209 18.6142 121.302 19.7076C122.396 20.8009 123.01 22.2838 123.01 23.83V103.18C123.01 104.726 122.396 106.209 121.302 107.302C120.209 108.396 118.726 109.01 117.18 109.01H17.82C16.2738 109.01 14.7909 108.396 13.6976 107.302C12.6042 106.209 11.99 104.726 11.99 103.18V89.67L12 34.33ZM16.99 35H7.98999V89H16.99V35Z" stroke="#163050" stroke-width="3" stroke-linecap="round" stroke-linejoin="round"/>
<path d="M127.5 131.5H92.5V138.5H127.5V131.5Z" fill="#E3EDFF"/>
<path d="M122.5 104.5H87.5V111.5H122.5V104.5Z" fill="#E3EDFF"/>
<path d="M125.5 97.5H90.5V104.5H125.5V97.5Z" fill="#E3EDFF"/>
<path d="M131.5 125.5H96.5V132.5H131.5V125.5Z" fill="#FFD166"/>
<path d="M122.5 118.5H87.5V125.5H122.5V118.5Z" fill="#FFD166"/>
<path d="M128.5 110.5H93.5V117.5H128.5V110.5Z" fill="#FFD166"/>
<path d="M129.5 89.5H94.5V96.5H129.5V89.5Z" fill="#FFD166"/>
<path opacity="0.2" d="M110.5 131.5H92.5V138.5H110.5V131.5Z" fill="#003C77"/>
<path opacity="0.2" d="M105.5 104.5H87.5V111.5H105.5V104.5Z" fill="#003C77"/>
<path opacity="0.2" d="M108.5 97.5H90.5V104.5H108.5V97.5Z" fill="#003C77"/>
<path d="M114.5 125.5H96.5V132.5H114.5V125.5Z" fill="#FFAA00"/>
<path d="M105.5 118.5H87.5V125.5H105.5V118.5Z" fill="#FFAA00"/>
<path d="M111.5 110.5H93.5V117.5H111.5V110.5Z" fill="#FFAA00"/>
<path d="M112.5 89.5H94.5V96.5H112.5V89.5Z" fill="#FFAE25"/>
<path d="M127 139H92V132H127V139ZM122 104H87V111H122V104ZM125 97H90V104H125V97ZM131 125H96V132H131V125ZM122 118H87V125H122V118ZM128 111H93V118H128V111ZM129 90H94V97H129V90Z" stroke="#163150" stroke-width="3" stroke-linecap="round" stroke-linejoin="round"/>
<path d="M99.86 122.01C99.7576 126.51 97.8746 130.786 94.624 133.9C91.3733 137.014 87.0204 138.711 82.52 138.62C81.6037 138.596 80.6908 138.499 79.79 138.33C75.8609 137.56 72.3298 135.427 69.8189 132.309C67.308 129.19 65.9784 125.285 66.0645 121.282C66.1505 117.279 67.6467 113.435 70.2893 110.427C72.9319 107.419 76.5514 105.441 80.51 104.84C81.4174 104.711 82.3336 104.654 83.25 104.67C87.7502 104.772 92.0261 106.655 95.1399 109.906C98.2537 113.157 99.9512 117.51 99.86 122.01Z" fill="#E3EDFF" stroke="#163150" stroke-width="3" stroke-linecap="round" stroke-linejoin="round"/>
<path opacity="0.2" d="M99.86 122.01C99.7576 126.51 97.8747 130.786 94.624 133.9C91.3734 137.014 87.0204 138.711 82.52 138.62C81.6037 138.596 80.6908 138.499 79.79 138.33C77.3485 136.251 75.4004 133.654 74.0871 130.728C72.7738 127.802 72.1282 124.621 72.1971 121.414C72.2661 118.208 73.0478 115.057 74.4856 112.19C75.9235 109.324 77.9813 106.813 80.51 104.84C81.4174 104.711 82.3336 104.654 83.25 104.67C87.7502 104.772 92.0261 106.655 95.1399 109.906C98.2537 113.157 99.9512 117.51 99.86 122.01Z" fill="#003C77"/>
<path d="M111.48 122.246C111.686 112.661 104.082 104.723 94.4968 104.518C84.9113 104.312 76.974 111.915 76.7682 121.501C76.5623 131.086 84.1661 139.024 93.7515 139.23C103.337 139.435 111.274 131.832 111.48 122.246Z" fill="url(#paint0_radial)" stroke="#163150" stroke-width="3" stroke-linecap="round" stroke-linejoin="round"/>
<path d="M83.73 119.7C84.1383 117.725 85.0848 115.902 86.4649 114.432C87.8449 112.962 89.6047 111.903 91.5495 111.371C93.4944 110.839 95.5485 110.855 97.4846 111.418C99.4207 111.981 101.163 113.068 102.52 114.56L94.59 121.56L105.31 122.56C105.233 124.066 104.845 125.54 104.17 126.889C103.496 128.238 102.549 129.433 101.389 130.398C100.23 131.363 98.8831 132.077 97.4339 132.495C95.9848 132.914 94.4647 133.027 92.9694 132.829C91.4742 132.631 90.0362 132.125 88.7461 131.344C87.456 130.562 86.3418 129.522 85.4738 128.288C84.6057 127.055 84.0026 125.655 83.7025 124.177C83.4024 122.699 83.4117 121.174 83.73 119.7Z" fill="#FFC835" stroke="#FFAE25" stroke-width="3" stroke-linecap="round" stroke-linejoin="round"/>
<defs>
<radialGradient id="paint0_radial" cx="0" cy="0" r="1" gradientUnits="userSpaceOnUse" gradientTransform="translate(86.4441 114.781) rotate(-88.77) scale(14.1703)">
<stop offset="0.06" stop-color="#FFEA80"/>
<stop offset="0.11" stop-color="#FFE77D"/>
<stop offset="0.47" stop-color="#FFD76C"/>
<stop offset="0.73" stop-color="#FFD166"/>
</radialGradient>
</defs>
</svg>
