<svg width="20" height="24" viewBox="0 0 20 24" fill="none" xmlns="http://www.w3.org/2000/svg">
<g clip-path="url(#clip0_17604_68752)">
<path fill-rule="evenodd" clip-rule="evenodd" d="M1.42773 7.20605H15.1618V12.0595C15.1618 15.2061 12.6162 17.7569 9.47591 17.7569H7.11365C3.9734 17.7569 1.42773 15.2061 1.42773 12.0595V7.20605Z" fill="#E3EDFF"/>
<path fill-rule="evenodd" clip-rule="evenodd" d="M3.25895 8.58226V12.4815C3.25895 15.395 5.61605 17.7569 8.52368 17.7569H7.15027C3.98789 17.7443 1.43023 15.1733 1.42773 12.0044V7.20605L3.25895 8.58226Z" fill="#C4D1E5"/>
<path fill-rule="evenodd" clip-rule="evenodd" d="M1.42773 7.20605H15.1618V12.0595C15.1618 15.2061 12.6162 17.7569 9.47591 17.7569H7.11365C3.9734 17.7569 1.42773 15.2061 1.42773 12.0595V7.20605Z" stroke="#163150" stroke-width="1.35342" stroke-linecap="round" stroke-linejoin="round"/>
<path fill-rule="evenodd" clip-rule="evenodd" d="M15.1618 6.97764C15.1568 7.86229 14.4424 8.5782 13.5595 8.58321H3.03004C2.14511 8.58321 1.42773 7.86437 1.42773 6.97764C1.43274 6.09299 2.14719 5.37708 3.03004 5.37207H13.5595C14.4424 5.37708 15.1568 6.09299 15.1618 6.97764Z" fill="#E3EDFF"/>
<path d="M4.63086 7.66524V5.34863H9.20889L5.54646 7.6423L4.63086 7.66524ZM13.558 5.37156H11.4979V7.66524H12.4135L14.8994 6.10554C14.6074 5.64663 14.1011 5.36961 13.558 5.37156Z" fill="#C4D1E5"/>
<path d="M13.5563 5.37207H3.0333C2.14657 5.37207 1.42773 6.09091 1.42773 6.97764C1.42773 7.86437 2.14657 8.58321 3.0333 8.58321H13.5563C14.443 8.58321 15.1618 7.86437 15.1618 6.97764C15.1618 6.09091 14.443 5.37207 13.5563 5.37207Z" stroke="#163150" stroke-width="1.35342" stroke-linecap="round" stroke-linejoin="round"/>
<path d="M6.4346 12.2517H5.11613C4.85091 12.2492 4.63581 12.0357 4.63086 11.77V10.4443C4.63334 10.1768 4.84916 9.9605 5.11613 9.95801H6.4346C6.70158 9.9605 6.91739 10.1768 6.91987 10.4443V11.77C6.91493 12.0357 6.69982 12.2492 6.4346 12.2517ZM9.66669 11.77V10.4443C9.66421 10.1768 9.44839 9.9605 9.18142 9.95801H7.86295C7.59598 9.9605 7.38016 10.1768 7.37768 10.4443V11.77C7.38016 12.0375 7.59598 12.2538 7.86295 12.2563H9.18142C9.44839 12.2538 9.66421 12.0375 9.66669 11.77ZM12.4135 11.77V10.4443C12.411 10.1768 12.1952 9.9605 11.9282 9.95801H10.6098C10.3428 9.9605 10.127 10.1768 10.1245 10.4443V11.77C10.127 12.0375 10.3428 12.2538 10.6098 12.2563H11.9282C12.1952 12.2538 12.411 12.0375 12.4135 11.77ZM6.91987 14.5224V13.1967C6.91739 12.9292 6.70158 12.7129 6.4346 12.7104H5.11613C4.84916 12.7129 4.63334 12.9292 4.63086 13.1967V14.5224C4.63334 14.7899 4.84916 15.0062 5.11613 15.0087H6.4346C6.70158 15.0062 6.91739 14.7899 6.91987 14.5224ZM9.66669 14.5224V13.1967C9.66421 12.9292 9.44839 12.7129 9.18142 12.7104H7.86295C7.59598 12.7129 7.38016 12.9292 7.37768 13.1967V14.5224C7.38016 14.7899 7.59598 15.0062 7.86295 15.0087H9.18142C9.44839 15.0062 9.66421 14.7899 9.66669 14.5224ZM12.4135 14.5224V13.1967C12.411 12.9292 12.1952 12.7129 11.9282 12.7104H10.6098C10.3428 12.7129 10.127 12.9292 10.1245 13.1967V14.5224C10.127 14.7899 10.3428 15.0062 10.6098 15.0087H11.9282C12.1952 15.0062 12.411 14.7899 12.4135 14.5224Z" fill="#C4D1E5"/>
<path fill-rule="evenodd" clip-rule="evenodd" d="M3.7168 6.89452V5.37152C3.7168 2.838 5.76645 0.78418 8.29483 0.78418C10.8232 0.78418 12.8729 2.838 12.8729 5.37152V6.89452C12.8729 7.06884 12.3601 7.20646 11.7283 7.20646C11.0966 7.20646 10.5838 7.06884 10.5838 6.89452V5.37152C10.5838 4.10476 9.55901 3.07785 8.29483 3.07785C7.03064 3.07785 6.00581 4.10476 6.00581 5.37152V6.89452C6.00581 7.06884 5.49307 7.20646 4.8613 7.20646C4.22954 7.20646 3.7168 7.06884 3.7168 6.89452Z" fill="#E3EDFF"/>
<path fill-rule="evenodd" clip-rule="evenodd" d="M3.7168 6.89452V5.37152C3.7168 2.838 5.76645 0.78418 8.29483 0.78418C10.8232 0.78418 12.8729 2.838 12.8729 5.37152V6.89452C12.8729 7.06884 12.3601 7.20646 11.7283 7.20646C11.0966 7.20646 10.5838 7.06884 10.5838 6.89452V5.37152C10.5838 4.10476 9.55901 3.07785 8.29483 3.07785C7.03064 3.07785 6.00581 4.10476 6.00581 5.37152V6.89452C6.00581 7.06884 5.49307 7.20646 4.8613 7.20646C4.22954 7.20646 3.7168 7.06884 3.7168 6.89452Z" stroke="#163150" stroke-width="1.35342" stroke-linecap="round" stroke-linejoin="round"/>
<path d="M16.0713 14.5469H6.92453C5.65777 14.5469 4.63086 15.5738 4.63086 16.8405C4.63086 18.1073 5.65777 19.1342 6.92453 19.1342H16.0713C17.338 19.1342 18.3649 18.1073 18.3649 16.8405C18.3649 15.5738 17.338 14.5469 16.0713 14.5469Z" fill="#C4D1E5" stroke="#163150" stroke-width="1.35342" stroke-linecap="round" stroke-linejoin="round"/>
<path d="M16.0713 16.3809H6.92453C5.65777 16.3809 4.63086 17.4078 4.63086 18.6745C4.63086 19.9413 5.65777 20.9682 6.92453 20.9682H16.0713C17.338 20.9682 18.3649 19.9413 18.3649 18.6745C18.3649 17.4078 17.338 16.3809 16.0713 16.3809Z" fill="#E3EDFF" stroke="#163150" stroke-width="1.35342" stroke-linecap="round" stroke-linejoin="round"/>
</g>
<path d="M10.7306 20H10.3254C10.28 20 10.2424 19.9897 10.2125 19.9691C10.1836 19.9474 10.1635 19.9201 10.1522 19.8871L10.0192 19.4943H9.16234L9.02934 19.8871C9.01902 19.916 8.99892 19.9423 8.96902 19.966C8.93912 19.9887 8.90251 20 8.85921 20H8.45091L9.32319 17.7466H9.85832L10.7306 20ZM9.28298 19.1385H9.89853L9.69128 18.5214C9.67788 18.4823 9.6619 18.4364 9.64334 18.3838C9.62581 18.3302 9.60828 18.2724 9.59075 18.2106C9.57426 18.2735 9.55724 18.3317 9.53972 18.3853C9.52219 18.439 9.50569 18.4854 9.49022 18.5245L9.28298 19.1385ZM10.914 20V17.7466H11.743C11.8987 17.7466 12.0312 17.761 12.1405 17.7899C12.2498 17.8188 12.339 17.8595 12.4081 17.9121C12.4771 17.9647 12.5272 18.0286 12.5581 18.1039C12.59 18.1791 12.606 18.2632 12.606 18.356C12.606 18.4065 12.5988 18.4555 12.5844 18.5029C12.5699 18.5493 12.5473 18.5931 12.5163 18.6343C12.4854 18.6756 12.4457 18.7132 12.3972 18.7472C12.3488 18.7802 12.2905 18.8091 12.2225 18.8339C12.3709 18.8699 12.4808 18.9287 12.5519 19.0102C12.623 19.0906 12.6586 19.1942 12.6586 19.321C12.6586 19.4169 12.6401 19.5061 12.6029 19.5886C12.5658 19.6711 12.5112 19.7433 12.439 19.8051C12.3679 19.866 12.2797 19.9139 12.1745 19.949C12.0694 19.983 11.9492 20 11.8142 20H10.914ZM11.4368 19.0442V19.6056H11.8049C11.874 19.6056 11.9302 19.5969 11.9735 19.5793C12.0178 19.5618 12.0523 19.5391 12.0771 19.5113C12.1018 19.4834 12.1188 19.452 12.1281 19.4169C12.1374 19.3819 12.142 19.3463 12.142 19.3102C12.142 19.269 12.1364 19.2319 12.125 19.1989C12.1147 19.1659 12.0962 19.138 12.0694 19.1153C12.0436 19.0927 12.009 19.0751 11.9657 19.0628C11.9224 19.0504 11.8678 19.0442 11.8018 19.0442H11.4368ZM11.4368 18.6947H11.709C11.7667 18.6947 11.8188 18.6905 11.8652 18.6823C11.9116 18.674 11.9508 18.6596 11.9827 18.639C12.0157 18.6184 12.0405 18.59 12.057 18.5539C12.0745 18.5178 12.0833 18.4725 12.0833 18.4178C12.0833 18.3642 12.0766 18.3199 12.0632 18.2848C12.0498 18.2487 12.0291 18.2199 12.0013 18.1982C11.9735 18.1766 11.9379 18.1611 11.8946 18.1518C11.8523 18.1425 11.8018 18.1379 11.743 18.1379H11.4368V18.6947ZM14.4581 19.4169C14.4705 19.4169 14.4828 19.4195 14.4952 19.4247C14.5076 19.4288 14.5194 19.4365 14.5308 19.4479L14.738 19.6659C14.6473 19.7845 14.5334 19.8742 14.3962 19.935C14.2601 19.9948 14.0988 20.0247 13.9121 20.0247C13.741 20.0247 13.5874 19.9959 13.4512 19.9381C13.3162 19.8794 13.2012 19.7989 13.1064 19.6969C13.0125 19.5938 12.9404 19.4721 12.8898 19.3319C12.8393 19.1906 12.814 19.0375 12.814 18.8725C12.814 18.7045 12.8429 18.5503 12.9007 18.4101C12.9584 18.2688 13.0388 18.1472 13.1419 18.0451C13.2461 17.943 13.3703 17.8636 13.5147 17.8069C13.659 17.7502 13.8183 17.7219 13.9926 17.7219C14.0771 17.7219 14.1565 17.7296 14.2307 17.745C14.306 17.7595 14.3761 17.7801 14.4411 17.8069C14.506 17.8327 14.5658 17.8641 14.6205 17.9013C14.6751 17.9373 14.7236 17.9776 14.7659 18.0219L14.5896 18.2585C14.5782 18.273 14.5648 18.2864 14.5493 18.2987C14.5339 18.3101 14.5122 18.3157 14.4844 18.3157C14.4658 18.3157 14.4483 18.3116 14.4318 18.3034C14.4153 18.2951 14.3978 18.2853 14.3792 18.274C14.3607 18.2616 14.34 18.2487 14.3173 18.2353C14.2957 18.2209 14.2694 18.208 14.2385 18.1967C14.2086 18.1843 14.173 18.174 14.1318 18.1657C14.0915 18.1575 14.0441 18.1534 13.9895 18.1534C13.8946 18.1534 13.808 18.1704 13.7296 18.2044C13.6513 18.2374 13.5837 18.2853 13.527 18.3482C13.4714 18.4101 13.4275 18.4854 13.3956 18.574C13.3646 18.6627 13.3492 18.7622 13.3492 18.8725C13.3492 18.988 13.3646 19.0906 13.3956 19.1803C13.4275 19.27 13.4703 19.3458 13.5239 19.4077C13.5786 19.4685 13.642 19.5149 13.7142 19.5468C13.7863 19.5788 13.8637 19.5948 13.9462 19.5948C13.9936 19.5948 14.0369 19.5927 14.0761 19.5886C14.1153 19.5834 14.1513 19.5752 14.1843 19.5639C14.2184 19.5525 14.2503 19.5381 14.2802 19.5206C14.3112 19.502 14.3421 19.4793 14.373 19.4525C14.3854 19.4422 14.3988 19.4339 14.4132 19.4278C14.4277 19.4205 14.4426 19.4169 14.4581 19.4169Z" fill="#163150"/>
<defs>
<clipPath id="clip0_17604_68752">
<rect width="18.3797" height="24" fill="white" transform="translate(0.681641)"/>
</clipPath>
</defs>
</svg>
