<svg width="32" height="32" viewBox="0 0 32 32" fill="none" xmlns="http://www.w3.org/2000/svg">
<path d="M16 31C24.2843 31 31 24.2843 31 16C31 7.71573 24.2843 1 16 1C7.71573 1 1 7.71573 1 16C1 24.2843 7.71573 31 16 31Z" stroke="white" stroke-width="2"/>
<path fill-rule="evenodd" clip-rule="evenodd" d="M21.2143 12.6352L15.4883 20.9685C15.3206 21.2123 15.056 21.3727 14.7633 21.4091C14.7206 21.4154 14.6779 21.4175 14.6352 21.4175C14.3852 21.4175 14.1425 21.3268 13.9518 21.1591L10.3529 18.1175C9.92267 17.7393 9.87996 17.081 10.257 16.6487C10.6352 16.2143 11.2893 16.1737 11.7195 16.5498L14.4435 18.8216L19.5081 11.4508C19.8341 10.9768 20.4779 10.857 20.9498 11.1852C21.4206 11.5123 21.5393 12.1612 21.2143 12.6352Z" fill="white"/>
</svg>
