<svg xmlns="http://www.w3.org/2000/svg" width="26" height="25" viewBox="0 0 26 25">
    <defs>
        <radialGradient id="a" cx="50.022%" cy="50.026%" r="50.752%" fx="50.022%" fy="50.026%" gradientTransform="matrix(.98472 0 0 1 .008 0)">
            <stop offset="6%" stop-color="#FFEA80"/>
            <stop offset="11%" stop-color="#FFE77D"/>
            <stop offset="47%" stop-color="#FFD76C"/>
            <stop offset="73%" stop-color="#FFD166"/>
        </radialGradient>
        <radialGradient id="b" cx="49.536%" cy="50.605%" r="55.646%" fx="49.536%" fy="50.605%" gradientTransform="matrix(.83186 0 0 1 .083 0)">
            <stop offset="6%" stop-color="#FFEA80"/>
            <stop offset="11%" stop-color="#FFE77D"/>
            <stop offset="47%" stop-color="#FFD76C"/>
            <stop offset="73%" stop-color="#FFD166"/>
        </radialGradient>
    </defs>
    <g fill="none" fill-rule="evenodd">
        <path fill="#1EB8E7" stroke="#163150" stroke-linecap="round" stroke-linejoin="round" stroke-width="1.371" d="M10.806 21.151H3.949c-1.515 0-2.743-1.211-2.743-2.705V4.24c0-1.495 1.228-2.706 2.743-2.706h7.467a3.638 3.638 0 0 1 2.613 1.089l1.947 1.989a3.54 3.54 0 0 1 1.015 2.476V9.65l-6.172 3.383-.013 8.117z"/>
        <path fill="#163150" stroke="#163150" stroke-linecap="round" stroke-linejoin="round" stroke-width="1.371" d="M14.131 2.738l1.722 1.759a.67.67 0 0 1 .141.737.686.686 0 0 1-.635.413h-2.407V3.21a.676.676 0 0 1 .427-.63.692.692 0 0 1 .752.157z"/>
        <path fill="#007FC6" fill-rule="nonzero" d="M3.057 6.797a1.903 1.903 0 0 1-.651-1.488 1.815 1.815 0 0 1 .651-1.475 2.497 2.497 0 0 1 1.68-.555 2.497 2.497 0 0 1 1.68.555c.435.364.675.906.652 1.468a1.903 1.903 0 0 1-.652 1.488c-.471.383-1.07.58-1.68.555a2.498 2.498 0 0 1-1.68-.548zm.892-1.488a.672.672 0 0 0 .219.54.816.816 0 0 0 .562.197.81.81 0 0 0 .576-.196.705.705 0 0 0 .213-.541.672.672 0 0 0-.213-.521.922.922 0 0 0-1.138 0 .673.673 0 0 0-.24.52h.02zm1.062 5.858l-.946-.643L9.551 3.28l.926.677-5.466 7.21zm3.155-.555a1.902 1.902 0 0 1-.652-1.495 1.816 1.816 0 0 1 .652-1.468 2.47 2.47 0 0 1 1.68-.555 2.47 2.47 0 0 1 1.68.555c.434.364.675.906.651 1.468.02.57-.22 1.117-.651 1.495a2.47 2.47 0 0 1-1.68.555 2.47 2.47 0 0 1-1.7-.562l.02.007zm.891-1.495a.672.672 0 0 0 .22.548.816.816 0 0 0 .562.196.81.81 0 0 0 .576-.196.712.712 0 0 0 .212-.548.672.672 0 0 0-.212-.52.922.922 0 0 0-1.138 0 .672.672 0 0 0-.234.52h.014z" opacity=".7"/>
        <path fill="url(#a)" d="M4.766 15.309c.005 2.902 1.7 5.545 4.355 6.794a7.73 7.73 0 0 0 8.093-.94 7.486 7.486 0 0 0 2.637-7.607l-7.405 1.435 3.874-6.15a7.73 7.73 0 0 0-7.693-.087 7.519 7.519 0 0 0-3.868 6.561l.007-.006z" transform="translate(1 1.5)"/>
        <path fill="#FFC835" stroke="#FFAE25" stroke-linecap="round" stroke-linejoin="round" stroke-width="1.097" d="M18.712 15.47c.652 2.499-.575 5.105-2.933 6.225-2.357 1.12-5.188.44-6.762-1.62a5.356 5.356 0 0 1 .29-6.86c1.742-1.926 4.62-2.37 6.875-1.06l-2.915 4.173 5.445-.859z"/>
        <path stroke="#163150" stroke-linecap="round" stroke-linejoin="round" stroke-width="1.371" d="M5.766 16.809c.005 2.902 1.7 5.545 4.355 6.794a7.73 7.73 0 0 0 8.093-.94 7.486 7.486 0 0 0 2.637-7.607l-7.405 1.435 3.874-6.15a7.73 7.73 0 0 0-7.693-.087 7.519 7.519 0 0 0-3.868 6.561l.007-.006z"/>
        <path fill="url(#b)" d="M24 10.824a7.55 7.55 0 0 0-3.518-4.736l-3.874 6.15L24 10.823z" transform="translate(1 1.5)"/>
        <path fill="#FFC835" stroke="#FFAE25" stroke-linecap="round" stroke-linejoin="round" stroke-width="1.097" d="M22.84 12.756a5.42 5.42 0 0 0-2.53-3.314l-1.996 3.72 4.526-.406z"/>
        <path stroke="#163150" stroke-linecap="round" stroke-linejoin="round" stroke-width="1.371" d="M25 12.324a7.55 7.55 0 0 0-3.518-4.736l-3.874 6.15L25 12.323z"/>
    </g>
</svg>
