<svg width="26" height="21" viewBox="0 0 26 21" fill="none" xmlns="http://www.w3.org/2000/svg">
<g id="icn-announcement">
<g id="Group 21">
<path id="Rectangle 8" d="M6.07031 18.986V15.9636L11.0242 17.1562L10.9192 18.9868C10.9191 18.9901 10.9185 18.9913 10.9183 18.9918L10.9183 18.9918C10.9178 18.9928 10.9167 18.9945 10.9149 18.9963C10.913 18.998 10.9112 18.999 10.9102 18.9994L10.9102 18.9994C10.9097 18.9996 10.9085 19.0001 10.9052 19.0001H6.0844C6.08211 19.0001 6.08092 18.9999 6.0805 18.9998L6.07922 18.9994C6.07826 18.999 6.07644 18.998 6.07444 18.996C6.07244 18.994 6.07142 18.9921 6.07101 18.9912L6.07061 18.9899C6.07053 18.9895 6.07031 18.9883 6.07031 18.986Z" stroke="white" stroke-width="2"/>
<path id="Triangle 3" fill-rule="evenodd" clip-rule="evenodd" d="M1.30891 7.83517L21.2731 1.09575C21.7341 0.894798 22.1079 1.02056 22.1079 1.37557C22.1079 1.37557 24.7985 7.22473 24.7985 10.1607C24.7985 13.0816 22.1079 18.9461 22.1079 18.9461C22.1079 19.3016 21.7324 19.4261 21.2731 19.2259C21.2731 19.2259 1.67044 13.9466 1.30891 13.7759C0.947368 13.6051 0.849586 8.03536 1.30891 7.83517Z" stroke="white" stroke-width="2"/>
</g>
<path id="Line" d="M21.451 1.50879C21.451 1.50879 18.5264 6.22114 18.5264 10.1755C18.5264 14.1299 21.451 18.8423 21.451 18.8423" stroke="white" stroke-width="2" stroke-linecap="square"/>
</g>
</svg>
