<svg width="21" height="24" viewBox="0 0 21 24" fill="none" xmlns="http://www.w3.org/2000/svg">
<g clip-path="url(#clip0_17604_68734)">
<path d="M20.2162 6.05926V16.9712C20.2176 17.6566 19.9467 18.3143 19.4633 18.799C18.9799 19.2837 18.3239 19.5553 17.6402 19.5539H8.3025C7.61889 19.5553 6.96286 19.2837 6.47947 18.799C5.99608 18.3143 5.72515 17.6566 5.72657 16.9712V3.30438C5.72657 2.61941 5.99797 1.96249 6.48105 1.47814C6.96413 0.993785 7.61932 0.72168 8.3025 0.72168H14.9355C15.848 0.723107 16.7217 1.09137 17.3612 1.744L19.2502 3.68102C19.8688 4.31736 20.2154 5.17063 20.2162 6.05926Z" fill="#E3EDFF"/>
<path d="M17.5718 1.71178L19.1818 3.39053C19.3496 3.57853 19.3928 3.84731 19.2925 4.07867C19.1921 4.31002 18.9665 4.46157 18.7149 4.46666H17.5343C16.9415 4.46666 16.461 3.98486 16.461 3.39053V2.16375C16.458 1.89825 16.6174 1.65799 16.8628 1.55815C17.1082 1.45831 17.3895 1.51926 17.5718 1.71178Z" fill="#163150" stroke="#163150" stroke-width="1.14553" stroke-linecap="round" stroke-linejoin="round"/>
<path fill-rule="evenodd" clip-rule="evenodd" d="M20.2162 6.05926V16.9712C20.2176 17.6566 19.9467 18.3143 19.4633 18.799C18.9799 19.2837 18.3239 19.5553 17.6402 19.5539H8.3025C7.61889 19.5553 6.96286 19.2837 6.47947 18.799C5.99608 18.3143 5.72515 17.6566 5.72657 16.9712V3.30438C5.72657 2.61941 5.99797 1.96249 6.48105 1.47814C6.96413 0.993785 7.61932 0.72168 8.3025 0.72168H14.9355C15.848 0.723107 16.7217 1.09137 17.3612 1.744L19.2502 3.68102C19.8688 4.31736 20.2154 5.17063 20.2162 6.05926Z" stroke="#163150" stroke-width="1.14553" stroke-linecap="round" stroke-linejoin="round"/>
<path opacity="0.15" d="M17.9139 8.65296H14.5652C14.5652 8.72829 14.5652 8.809 14.5921 8.88971C15.1804 8.98338 15.7177 9.28029 16.1108 9.72909H17.9139V10.8052H16.6904C16.749 11.019 16.7779 11.2399 16.7762 11.4616V11.763H17.9139V12.8391H16.7762V13.9152H17.9139V14.9913H16.7762V16.245C16.7842 17.389 16.5347 18.5201 16.0464 19.5541H8.3025C7.61889 19.5555 6.96286 19.2839 6.47947 18.7992C5.99608 18.3146 5.72515 17.6568 5.72657 16.9714V3.48218C6.51233 3.17931 7.34802 3.02779 8.18981 3.03559C11.0392 2.97537 13.5704 4.85002 14.3506 7.59836H17.9139V8.65296Z" fill="#163150"/>
<path d="M0.667969 12.0205H15.0073V17.1751C15.0073 20.5625 12.2733 23.3109 8.89484 23.3198H7.32782C3.64882 23.3169 0.667969 20.3258 0.667969 16.6371V12.0205Z" fill="#E3EDFF"/>
<path opacity="0.25" d="M2.57845 13.6347V17.6702C2.50311 19.1678 3.05456 20.6291 4.09984 21.7016C5.14513 22.7742 6.58941 23.3607 8.0845 23.3198H6.66774C3.35123 23.3198 0.667969 20.834 0.667969 17.1106V12.0205L2.57845 13.6347Z" fill="white"/>
<path fill-rule="evenodd" clip-rule="evenodd" d="M0.667969 12.0205H15.0073V17.1751C15.0073 20.5625 12.2733 23.3109 8.89484 23.3198H7.32782C3.64882 23.3169 0.667969 20.3258 0.667969 16.6371V12.0205Z" stroke="#163150" stroke-width="1.14553" stroke-linecap="round" stroke-linejoin="round"/>
<path d="M15.006 11.7514C15.0107 12.2403 14.8348 12.7137 14.5122 13.0804C14.2142 13.4217 13.784 13.6178 13.3316 13.6185H2.34097C1.36195 13.5578 0.614673 12.7173 0.666614 11.7352C0.661882 11.2463 0.837744 10.7729 1.16033 10.4062C1.45835 10.0649 1.88854 9.86887 2.34097 9.86816H13.3477C13.9365 9.87672 14.4736 10.2069 14.7484 10.7291C14.9236 11.0407 15.0125 11.3937 15.006 11.7514Z" fill="#E3EDFF"/>
<path d="M4.01562 12.5585V9.86816H8.80256L4.97623 12.5585H4.01562ZM13.348 9.86816H11.2014V12.5585H12.1566L14.754 10.7291C14.4784 10.2052 13.9387 9.87476 13.348 9.86816Z" fill="#C4D1E5"/>
<path d="M13.1402 9.86816H2.55119C1.51111 9.86816 0.667969 10.7113 0.667969 11.7514C0.667969 12.7915 1.51111 13.6346 2.55119 13.6346H13.1402C14.1803 13.6346 15.0234 12.7915 15.0234 11.7514C15.0234 10.7113 14.1803 9.86816 13.1402 9.86816Z" stroke="#163150" stroke-width="1.14553" stroke-linecap="round" stroke-linejoin="round"/>
<path d="M2.57617 11.6445V9.86891C2.57617 6.89727 4.97884 4.48828 7.94269 4.48828C9.36598 4.48828 10.731 5.05517 11.7374 6.06423C12.7438 7.07329 13.3092 8.44188 13.3092 9.86891V11.6445C13.3092 11.8436 12.7082 12.0104 11.9676 12.0104C11.227 12.0104 10.6259 11.849 10.6259 11.6445V9.86891C10.6259 8.38309 9.42461 7.17859 7.94269 7.17859C6.46077 7.17859 5.25943 8.38309 5.25943 9.86891V11.6445C5.25943 11.8436 4.65838 12.0104 3.9178 12.0104C3.19869 12.0212 2.57617 11.8597 2.57617 11.6445Z" fill="#E3EDFF"/>
<path fill-rule="evenodd" clip-rule="evenodd" d="M2.57617 11.6445V9.86891C2.57617 6.89727 4.97884 4.48828 7.94269 4.48828C9.36598 4.48828 10.731 5.05517 11.7374 6.06423C12.7438 7.07329 13.3092 8.44188 13.3092 9.86891V11.6445C13.3092 11.8436 12.7082 12.0104 11.9676 12.0104C11.227 12.0104 10.6259 11.849 10.6259 11.6445V9.86891C10.6259 8.38309 9.42461 7.17859 7.94269 7.17859C6.46077 7.17859 5.25943 8.38309 5.25943 9.86891V11.6445C5.25943 11.8436 4.65838 12.0104 3.9178 12.0104C3.19869 12.0212 2.57617 11.8597 2.57617 11.6445Z" stroke="#163150" stroke-width="1.14553" stroke-linecap="round" stroke-linejoin="round"/>
<path opacity="0.4" d="M10.1234 17.1054C10.1325 17.6986 9.77304 18.2349 9.22185 18.4506V20.6028C9.22185 20.8611 9.02866 20.5275 8.78717 20.5275C8.54567 20.5275 8.35248 20.8611 8.35248 20.6028V18.4506C7.79731 18.236 7.43501 17.6965 7.44554 17.1C7.44554 16.3571 8.0462 15.7549 8.78717 15.7549C9.52813 15.7549 10.1288 16.3571 10.1288 17.1L10.1234 17.1054Z" fill="white"/>
<path d="M9.38268 17.0251C9.38229 17.5976 9.02052 18.1072 8.4811 18.2949V20.2912C8.4811 20.5319 8.28648 20.727 8.04641 20.727C7.80634 20.727 7.61172 20.5319 7.61172 20.2912V18.3003C6.96313 18.0807 6.5835 17.4066 6.73087 16.7363C6.87824 16.066 7.50532 15.6145 8.18591 15.6886C8.8665 15.7627 9.38228 16.3387 9.38268 17.0251Z" fill="#163150"/>
</g>
<defs>
<clipPath id="clip0_17604_68734">
<rect width="20.8921" height="24" fill="white"/>
</clipPath>
</defs>
</svg>
