<svg width="16" height="25" viewBox="0 0 16 25" fill="none" xmlns="http://www.w3.org/2000/svg">
<path d="M8.682 8.7578V12.0182C8.682 12.364 8.6649 12.7041 8.6307 13.0385C8.5965 13.3691 8.5509 13.7206 8.4939 14.093H7.542C7.485 13.7206 7.4394 13.3691 7.4052 13.0385C7.371 12.7041 7.3539 12.364 7.3539 12.0182V8.7578H8.682ZM7.1373 16.2248C7.1373 16.107 7.1582 15.9949 7.2 15.8885C7.2456 15.7821 7.3064 15.6909 7.3824 15.6149C7.4622 15.5389 7.5553 15.4781 7.6617 15.4325C7.7681 15.3869 7.8821 15.3641 8.0037 15.3641C8.1215 15.3641 8.2336 15.3869 8.34 15.4325C8.4464 15.4781 8.5376 15.5389 8.6136 15.6149C8.6896 15.6909 8.7504 15.7821 8.796 15.8885C8.8416 15.9949 8.8644 16.107 8.8644 16.2248C8.8644 16.3464 8.8416 16.4604 8.796 16.5668C8.7504 16.6694 8.6896 16.7587 8.6136 16.8347C8.5376 16.9107 8.4464 16.9696 8.34 17.0114C8.2336 17.057 8.1215 17.0798 8.0037 17.0798C7.8821 17.0798 7.7681 17.057 7.6617 17.0114C7.5553 16.9696 7.4622 16.9107 7.3824 16.8347C7.3064 16.7587 7.2456 16.6694 7.2 16.5668C7.1582 16.4604 7.1373 16.3464 7.1373 16.2248Z" fill="#DD4242"/>
<path fill-rule="evenodd" clip-rule="evenodd" d="M8 20.2381C11.866 20.2381 15 17.0401 15 13.0952C15 9.15036 11.866 5.95239 8 5.95239C4.13401 5.95239 1 9.15036 1 13.0952C1 17.0401 4.13401 20.2381 8 20.2381Z" stroke="#DD544E" stroke-width="1.2"/>
</svg>
