<?xml version="1.0" encoding="UTF-8"?>
<svg width="171px" height="170px" viewBox="0 0 171 170" version="1.1" xmlns="http://www.w3.org/2000/svg" xmlns:xlink="http://www.w3.org/1999/xlink">
    <!-- Generator: sketchtool 53.2 (72643) - https://sketchapp.com -->
    <title>772B41BB-2AAF-4B9A-B2E9-6EC13EABF405</title>
    <desc>Created with sketchtool.</desc>
    <g id="Lock-/-Unlock-Wallet" stroke="none" stroke-width="1" fill="none" fill-rule="evenodd">
        <g id="GAU---Unlock---Mobile" transform="translate(-102.000000, -131.000000)">
            <g id="icn-unlock-wallet" transform="translate(105.000000, 135.000000)">
                <path d="M164.415625,129.696875 L164.415625,90.990625 C164.377772,82.2844829 157.309349,75.2467927 148.603125,75.246875 L130.625,75.246875 C121.918858,75.2847281 114.881168,82.3531506 114.88125,91.059375 L114.88125,103.640625 C114.900206,112.3602 121.974154,119.418771 130.69375,119.41875 L150.35625,119.41875 C156.891642,119.061934 162.772714,123.3613 164.415625,129.696875 Z" id="Path" stroke="#163150" stroke-width="6.875" fill="#0C9FE1" stroke-linecap="round" stroke-linejoin="round"></path>
                <path d="M42.28125,147.984375 L148.84375,147.984375 L148.84375,68.921875 C148.391465,63.424662 144.028463,59.0616603 138.53125,58.609375 L56.03125,58.609375 C49.15625,58.609375 42.28125,62.046875 42.28125,68.921875 L42.28125,147.984375 Z" id="Path" stroke="#163150" stroke-width="6.875" fill="#0C9FE1" stroke-linecap="round" stroke-linejoin="round"></path>
                <path d="M42.28125,65.484375 C42.0468473,69.1980137 43.4200596,72.8332356 46.0512245,75.4644005 C48.6823894,78.0955654 52.3176113,79.4687777 56.03125,79.234375 L138.53125,79.234375 C144.022101,79.7003723 148.377753,84.0560235 148.84375,89.546875 L148.84375,151.421875 C148.337446,156.893902 144.003277,161.228071 138.53125,161.734375 L56.03125,161.734375 C48.592724,161.371726 42.6438987,155.422901 42.28125,147.984375 L42.28125,65.484375 Z" id="Path" fill="#1EB8E7"></path>
                <path d="M42.28125,65.484375 C42.0468473,69.1980137 43.4200596,72.8332356 46.0512245,75.4644005 C48.6823894,78.0955654 52.3176113,79.4687777 56.03125,79.234375 L138.53125,79.234375 C144.022101,79.7003723 148.377753,84.0560235 148.84375,89.546875 L148.84375,151.421875 C148.337446,156.893902 144.003277,161.228071 138.53125,161.734375 L56.03125,161.734375 C48.592724,161.371726 42.6438987,155.422901 42.28125,147.984375 L42.28125,65.484375 Z" id="Path" stroke="#163150" stroke-width="6.875" stroke-linecap="round" stroke-linejoin="round"></path>
                <path d="M164.415625,93.396875 L164.415625,132.06875 C164.377772,140.774892 157.309349,147.812582 148.603125,147.8125 L122.99375,147.8125 C114.287608,147.774647 107.249918,140.706224 107.25,132 L107.25,119.453125 C107.306439,110.749195 114.358468,103.712497 123.0625,103.675 L150.5625,103.675 C157.022248,103.93164 162.788348,99.653566 164.415625,93.396875 Z" id="Path" fill="#1EB8E7"></path>
                <path d="M148.878125,120.3125 C163.728125,129.078125 150.49375,151.559375 135.575,142.759375 L124.059375,137.9125 L135.265625,113.1625 L148.878125,120.3125 Z" id="Path" fill="#0C9FE1"></path>
                <circle id="Oval" stroke="#163150" stroke-width="6.85055027" fill="#B3C1D6" stroke-linecap="round" stroke-linejoin="round" transform="translate(129.522937, 125.679125) rotate(-58.543177) translate(-129.522937, -125.679125) " cx="129.522937" cy="125.679125" r="9.04272636"></circle>
                <path d="M164.415625,93.396875 L164.415625,132.06875 C164.377772,140.774892 157.309349,147.812582 148.603125,147.8125 L122.99375,147.8125 C114.287608,147.774647 107.249918,140.706224 107.25,132 L107.25,119.453125 C107.306439,110.749195 114.358468,103.712497 123.0625,103.675 L150.5625,103.675 C157.022248,103.93164 162.788348,99.653566 164.415625,93.396875 Z" id="Path" stroke="#163150" stroke-width="6.875" stroke-linecap="round" stroke-linejoin="round"></path>
                <path d="M62.90625,66.584375 L62.90625,34.375 C62.90625,15.3902117 78.2964617,4.82947016e-15 97.28125,1.77635684e-15 L97.28125,1.77635684e-15 C116.266038,1.39888101e-14 131.65625,15.3902117 131.65625,34.375 L131.65625,45.821875 C131.65625,47.09375 127.80625,48.159375 123.0625,48.159375 L123.0625,48.159375 C118.31875,48.159375 114.46875,47.09375 114.46875,45.821875 L114.46875,34.375 C114.46875,24.8826059 106.773644,17.1875 97.28125,17.1875 L97.28125,17.1875 C87.7888559,17.1875 80.09375,24.8826059 80.09375,34.375 L80.09375,66.446875 C80.09375,67.71875 76.24375,68.784375 71.5,68.784375 L71.5,68.784375 C66.75625,68.921875 62.90625,67.85625 62.90625,66.584375 Z" id="Path" fill="#E3EDFF"></path>
                <path d="M62.90625,66.584375 L62.90625,34.375 C62.90625,15.3902117 78.2964617,4.82947016e-15 97.28125,1.77635684e-15 L97.28125,1.77635684e-15 C116.266038,1.39888101e-14 131.65625,15.3902117 131.65625,34.375 L131.65625,45.821875 C131.65625,47.09375 127.80625,48.159375 123.0625,48.159375 L123.0625,48.159375 C118.31875,48.159375 114.46875,47.09375 114.46875,45.821875 L114.46875,34.375 C114.46875,24.8826059 106.773644,17.1875 97.28125,17.1875 L97.28125,17.1875 C87.7888559,17.1875 80.09375,24.8826059 80.09375,34.375 L80.09375,66.446875 C80.09375,67.71875 76.24375,68.784375 71.5,68.784375 L71.5,68.784375 C66.75625,68.921875 62.90625,67.85625 62.90625,66.584375 Z" id="Path" stroke="#163150" stroke-width="6.875" stroke-linecap="round" stroke-linejoin="round"></path>
                <ellipse id="Oval" stroke="#163150" stroke-width="6.875" fill="#B3C1D6" stroke-linecap="round" stroke-linejoin="round" cx="123.0625" cy="68.971875" rx="8.59375" ry="1"></ellipse>
                <path d="M61.11875,117.046875 C56.0961881,102.840925 41.569692,94.3194441 26.7190028,96.8674196 C11.8683136,99.415395 1.01309528,112.291689 1.01309528,127.359375 C1.01309528,142.427061 11.8683136,155.303355 26.7190028,157.85133 C41.569692,160.399306 56.0961881,151.877825 61.11875,137.671875 L70.365625,137.671875 L76.65625,131.346875 L82.946875,137.671875 L93.84375,137.671875 L93.84375,117.046875 L61.11875,117.046875 Z M31.96875,141.109375 C13.75,141.109375 13.784375,113.609375 31.96875,113.609375 L31.96875,141.109375 Z" id="Shape" stroke="#163150" stroke-width="6.875" fill="#FFD166" fill-rule="nonzero" stroke-linecap="round" stroke-linejoin="round"></path>
                <path d="M93.84375,106.734375 L93.84375,147.984375" id="Path" stroke="#163150" stroke-width="6.875" fill="#E3EDFF" stroke-linecap="round" stroke-linejoin="round"></path>
            </g>
        </g>
    </g>
</svg>