<svg width="21" height="24" viewBox="0 0 21 24" fill="none" xmlns="http://www.w3.org/2000/svg">
<g clip-path="url(#clip0_17604_68717)">
<path d="M20.0534 3.03348V8.32591C20.1165 10.6522 19.787 12.9724 19.0786 15.1886L18.9772 15.4653C18.6349 16.4146 18.1869 17.3222 17.6418 18.1708C17.546 18.3177 17.4445 18.4589 17.3431 18.6114C15.9215 20.5977 14.0503 22.2179 11.8831 23.339C11.5845 23.1865 11.3197 23.0227 11.021 22.8589C6.85136 20.4245 5.04826 17.3914 4.29885 14.443C4.19179 14.042 4.11291 13.6466 4.03402 13.2568C3.79891 11.829 3.6933 10.3828 3.71848 8.93592C3.71848 8.73258 3.71848 8.5349 3.71848 8.3711V3.03348C6.31773 2.64905 8.86194 1.95505 11.2971 0.966218C11.6972 0.79677 11.8888 0.689453 11.8888 0.689453C13.0959 1.26545 14.3541 1.72686 15.6471 2.06763C17.0964 2.47325 18.5675 2.79572 20.0534 3.03348Z" fill="#E3EDFF"/>
<path d="M18.9708 15.4602C18.6285 16.4095 18.1805 17.3171 17.6353 18.1658C17.5396 18.3126 17.4381 18.4538 17.3367 18.6063C15.9145 20.5907 14.0434 22.2089 11.8767 23.3283C11.5781 23.1758 11.3132 23.012 11.0146 22.8482C6.85057 20.4251 5.04748 17.3863 4.29807 14.4436C4.19101 14.0425 4.11212 13.6472 4.03324 13.2574C5.21652 12.5006 6.28711 11.8736 6.28711 11.8736L6.58574 11.8115L3.74023 8.9365C3.74023 8.73316 3.74023 8.54112 3.74023 8.37167V3.03406C6.33761 2.64935 8.87991 1.95535 11.3132 0.966797C12.0288 1.23227 13.0036 1.58811 13.0036 1.61635C15.4265 3.03406 16.6944 7.89157 15.2575 10.727L18.9708 15.4602Z" fill="#C4D1E5"/>
<path opacity="0.4" d="M12.0313 22.3221C3.92298 18.0803 5.12317 12.8726 5.12317 8.3483V3.06152" stroke="white" stroke-width="0.564827"/>
<path fill-rule="evenodd" clip-rule="evenodd" d="M20.0534 8.3485C20.0534 12.7541 19.4055 19.2553 11.8832 23.3334C3.78051 19.0915 3.71289 12.7485 3.71289 8.3485V3.03348C9.23487 2.11282 11.8832 0.689453 11.8832 0.689453C11.8832 0.689453 14.6273 2.17495 20.0534 3.03348V8.3485Z" stroke="#163150" stroke-width="1.12965" stroke-linecap="round" stroke-linejoin="round"/>
<path d="M19.6312 18.9269L13.1231 10.4828C15.9405 5.03219 9.14506 -1.06794 3.93298 2.97622C-1.08188 6.86223 2.53558 15.0353 8.71682 13.5385L10.2269 15.6001L11.9793 15.8034L11.7595 17.5374L12.6555 18.6953L14.3853 18.9156L14.1656 20.6496L14.9206 21.6268L18.3803 21.7002L19.6312 18.9269ZM5.50506 9.43219C3.32444 6.60805 7.58989 3.30382 9.76487 6.1336L5.50506 9.43219Z" fill="#E3EDFF" stroke="#163150" stroke-width="1.12965" stroke-linecap="round" stroke-linejoin="round"/>
<path opacity="0.6" d="M11.7422 11.4609L17.4219 18.8263" stroke="#C4D1E5" stroke-width="0.564827"/>
<path opacity="0.4" d="M11.2559 11.8389L16.93 19.2042L11.2559 11.8389Z" fill="#163150"/>
<path opacity="0.5" d="M10.6156 6.68164L5.77539 10.4321" stroke="#C4D1E5" stroke-width="0.564827"/>
</g>
<defs>
<clipPath id="clip0_17604_68717">
<rect width="19.7895" height="24" fill="white" transform="translate(0.892578)"/>
</clipPath>
</defs>
</svg>
