<svg viewBox="0 0 30 28" fill="none" xmlns="http://www.w3.org/2000/svg">
<path d="M9 3.80974L15 0.755859L21 3.80974L15 6.86362L9 3.80974Z" fill="white"/>
<path d="M9 3.80981L15 6.8637V13.9894L9 10.9355V3.80981Z" fill="#0C9FE1"/>
<path d="M21 3.80981L15 6.8637V13.9894L21 10.9355V3.80981Z" fill="#00D7FF"/>
<path d="M1 17.0612L7 14.0073L13 17.0612L7 20.1151L1 17.0612Z" fill="white"/>
<path d="M1 17.0613L7 20.1152V27.2409L1 24.187V17.0613Z" fill="#0C9FE1"/>
<path d="M13 17.0613L7 20.1152V27.2409L13 24.187V17.0613Z" fill="#00D7FF"/>
<path d="M17 17.0612L23 14.0073L29 17.0612L23 20.1151L17 17.0612Z" fill="white"/>
<path d="M17 17.0613L23 20.1152V27.2409L17 24.187V17.0613Z" fill="#0C9FE1"/>
<path d="M29 17.0613L23 20.1152V27.2409L29 24.187V17.0613Z" fill="#00D7FF"/>
<path fill-rule="evenodd" clip-rule="evenodd" d="M16.3608 0.326391C15.5058 -0.108797 14.4942 -0.108797 13.6392 0.326391L9.63919 2.36231C8.63339 2.87424 8 3.90734 8 5.03592V6.89946H5C4.44772 6.89946 4 7.34718 4 7.89946V14.4121L1.63919 15.6137C0.63339 16.1256 0 17.1587 0 18.2873V22.9606C0 24.0892 0.633388 25.1223 1.63919 25.6342L5.63918 27.6702C6.4942 28.1054 7.50579 28.1054 8.36081 27.6702L12.3608 25.6342C13.3098 25.1512 13.9272 24.2043 13.994 23.151L16.006 23.151C16.0728 24.2043 16.6902 25.1512 17.6392 25.6342L21.6392 27.6702C22.4942 28.1054 23.5058 28.1054 24.3608 27.6702L28.3608 25.6342C29.3666 25.1223 30 24.0892 30 22.9606V18.2873C30 17.1587 29.3666 16.1256 28.3608 15.6137L25 13.9031V7.89946C25 7.34718 24.5523 6.89946 24 6.89946H22V5.03592C22 3.90734 21.3666 2.87424 20.3608 2.36231L16.3608 0.326391ZM5.43473 15.926C5.44698 15.9201 5.45909 15.9139 5.47106 15.9075L6.5464 15.3602C6.8314 15.2151 7.1686 15.2151 7.45361 15.3602L11.4536 17.3961C11.7889 17.5667 12 17.9111 12 18.2873V21.151L10 21.151C9.44771 21.151 9 21.5987 9 22.151C9 22.7033 9.44772 23.151 10 23.151L11.9818 23.151C11.9238 23.45 11.7313 23.7105 11.4536 23.8518L7.4536 25.8878C7.1686 26.0328 6.8314 26.0328 6.54639 25.8878L2.5464 23.8518C2.21113 23.6812 2 23.3368 2 22.9606V18.2873C2 17.9111 2.21113 17.5667 2.5464 17.3961L5.43473 15.926ZM6 13.4229V8.89946H8V9.70925C8 10.8378 8.63339 11.8709 9.63919 12.3829L13.6392 14.4188C14.4942 14.854 15.5058 14.854 16.3608 14.4188L20.3608 12.3829C21.3666 11.8709 22 10.8378 22 9.70925V8.89946H23V13.2514C22.5333 13.2514 22.0667 13.3602 21.6392 13.5778L17.6392 15.6137C16.6334 16.1256 16 17.1587 16 18.2873V21.151L14 21.151V18.2873C14 17.1587 13.3666 16.1256 12.3608 15.6137L8.36082 13.5778C7.62338 13.2024 6.76947 13.1508 6 13.4229ZM10 8.89946V9.70925C10 10.0854 10.2111 10.4298 10.5464 10.6005L14.5464 12.6364C14.8314 12.7814 15.1686 12.7814 15.4536 12.6364L19.4536 10.6005C19.7889 10.4298 20 10.0854 20 9.70925V7.89946V5.03592C20 4.65973 19.7889 4.31536 19.4536 4.14472L15.4536 2.1088C15.1686 1.96373 14.8314 1.96373 14.5464 2.1088L10.5464 4.14472C10.2111 4.31536 10 4.65973 10 5.03592V6.89946H11.5C12.0523 6.89946 12.5 7.34718 12.5 7.89946C12.5 8.45175 12.0523 8.89946 11.5 8.89946H10ZM18 22.9606V22.151V18.2873C18 17.9111 18.2111 17.5667 18.5464 17.3961L22.5464 15.3602C22.6889 15.2877 22.8444 15.2514 23 15.2514V16.5521C23 17.1044 23.4477 17.5521 24 17.5521C24.5523 17.5521 25 17.1044 25 16.5521V16.1473L27.4536 17.3961C27.7889 17.5667 28 17.9111 28 18.2873V22.9606C28 23.3368 27.7889 23.6812 27.4536 23.8518L23.4536 25.8878C23.1686 26.0328 22.8314 26.0328 22.5464 25.8878L18.5464 23.8518C18.2111 23.6812 18 23.3368 18 22.9606Z" fill="#163050"/>
</svg>
