<svg width="24" height="24" viewBox="0 0 24 24" fill="none" xmlns="http://www.w3.org/2000/svg">
<path fill-rule="evenodd" clip-rule="evenodd" d="M19.2381 11.0694C18.9236 11.339 18.4501 11.3026 18.1805 10.9881L17.5714 10.2774L17.5714 16.125C17.5714 18.0513 16.1964 19.5 14.4107 19.5C12.625 19.5 11.25 18.0513 11.25 16.125L11.25 7.875C11.25 6.69468 10.4664 6 9.58927 6C8.71215 6 7.92856 6.69468 7.92856 7.875L7.92856 13.7226L8.53769 13.0119C8.80725 12.6974 9.28073 12.661 9.59522 12.9306C9.90972 13.2001 9.94614 13.6736 9.67657 13.9881L7.748 16.2381C7.60551 16.4043 7.3975 16.5 7.17856 16.5C6.95961 16.5 6.7516 16.4043 6.60911 16.2381L4.68054 13.9881C4.41098 13.6736 4.4474 13.2001 4.76189 12.9306C5.07639 12.661 5.54986 12.6974 5.81943 13.0119L6.42856 13.7226L6.42856 7.875C6.42856 5.94872 7.80359 4.5 9.58927 4.5C11.375 4.5 12.75 5.94872 12.75 7.875L12.75 16.125C12.75 17.3053 13.5336 18 14.4107 18C15.2878 18 16.0714 17.3053 16.0714 16.125L16.0714 10.2774L15.4623 10.9881C15.1927 11.3026 14.7192 11.339 14.4048 11.0694C14.0903 10.7999 14.0538 10.3264 14.3234 10.0119L16.252 7.76191C16.3945 7.59567 16.6025 7.5 16.8214 7.5C17.0404 7.5 17.2484 7.59567 17.3909 7.76191L19.3194 10.0119C19.589 10.3264 19.5526 10.7999 19.2381 11.0694Z" fill="#1EB8E7"/>
</svg>
