<svg xmlns="http://www.w3.org/2000/svg" fill="none" viewBox="0.5 0.5 84.18 70.37">
<g filter="url(#filter0_i_20601_85051)">
<path fill-rule="evenodd" clip-rule="evenodd" d="M42.5902 12C30.5603 12 19.0275 16.7581 10.5277 25.2204C8.5708 27.1687 5.40499 27.1617 3.45668 25.2048C1.50837 23.2479 1.51535 20.0821 3.47227 18.1337C13.8507 7.80095 27.9223 2 42.5902 2C57.2581 2 71.3297 7.80094 81.7082 18.1337C83.6651 20.082 83.6721 23.2479 81.7238 25.2048C79.7755 27.1617 76.6097 27.1687 74.6527 25.2204C66.153 16.758 54.6202 12 42.5902 12ZM42.5902 32.8381C36.1113 32.8381 29.9022 35.4007 25.3276 39.9551C23.3707 41.9034 20.2049 41.8965 18.2566 39.9395C16.3083 37.9826 16.3153 34.8168 18.2722 32.8685C24.7255 26.4436 33.4734 22.8381 42.5902 22.8381C51.7071 22.8381 60.455 26.4436 66.9083 32.8685C68.8652 34.8168 68.8722 37.9826 66.9239 39.9395C64.9756 41.8964 61.8098 41.9034 59.8528 39.9551C55.2783 35.4007 49.0691 32.8381 42.5902 32.8381ZM42.5902 68.522C48.9204 68.522 54.052 63.4129 54.052 57.1106C54.052 50.8083 48.9204 45.6993 42.5902 45.6993C36.2601 45.6993 31.1285 50.8083 31.1285 57.1106C31.1285 63.4129 36.2601 68.522 42.5902 68.522Z" fill="#1EB8E7"/>
</g>
<path d="M10.5277 25.2204L11.586 26.2834L10.5277 25.2204ZM3.47227 18.1337L4.53059 19.1967H4.53059L3.47227 18.1337ZM42.5902 2L42.5902 0.5L42.5902 2ZM81.7082 18.1337L80.6499 19.1967L81.7082 18.1337ZM81.7238 25.2048L80.6608 24.1465L80.6608 24.1465L81.7238 25.2048ZM74.6527 25.2204L73.5944 26.2834V26.2834L74.6527 25.2204ZM25.3276 39.9551L24.2693 38.8921L25.3276 39.9551ZM18.2566 39.9395L19.3196 38.8812L18.2566 39.9395ZM18.2722 32.8685L17.2139 31.8055L18.2722 32.8685ZM42.5902 22.8381L42.5902 21.3381L42.5902 22.8381ZM66.9083 32.8685L65.85 33.9315V33.9315L66.9083 32.8685ZM66.9239 39.9395L67.9869 40.9978V40.9978L66.9239 39.9395ZM59.8528 39.9551L60.9112 38.8921L59.8528 39.9551ZM11.586 26.2834C19.804 18.1016 30.956 13.5 42.5902 13.5L42.5902 10.5C30.1646 10.5 18.251 15.4145 9.46941 24.1574L11.586 26.2834ZM2.39368 26.2631C4.92648 28.8071 9.04205 28.8162 11.586 26.2834L9.46941 24.1574C8.09956 25.5212 5.88349 25.5163 4.51967 24.1465L2.39368 26.2631ZM2.41396 17.0707C-0.130046 19.6036 -0.139123 23.7191 2.39368 26.2631L4.51967 24.1465C3.15586 22.7766 3.16075 20.5606 4.53059 19.1967L2.41396 17.0707ZM42.5902 0.5C27.5266 0.500001 13.0742 6.45738 2.41395 17.0707L4.53059 19.1967C14.6273 9.14452 28.318 3.5 42.5902 3.5L42.5902 0.5ZM82.7665 17.0707C72.1062 6.45738 57.6538 0.499999 42.5902 0.5L42.5902 3.5C56.8624 3.5 70.5532 9.14451 80.6499 19.1967L82.7665 17.0707ZM82.7868 26.2631C85.3196 23.7191 85.3105 19.6035 82.7665 17.0707L80.6499 19.1967C82.0197 20.5605 82.0246 22.7766 80.6608 24.1465L82.7868 26.2631ZM73.5944 26.2834C76.1384 28.8162 80.254 28.8071 82.7868 26.2631L80.6608 24.1465C79.297 25.5163 77.0809 25.5212 75.7111 24.1574L73.5944 26.2834ZM42.5902 13.5C54.2245 13.5 65.3765 18.1016 73.5944 26.2834L75.7111 24.1574C66.9295 15.4145 55.0159 10.5 42.5902 10.5L42.5902 13.5ZM26.386 41.0181C30.6787 36.7442 36.507 34.3381 42.5902 34.3381V31.3381C35.7156 31.3381 29.1257 34.0571 24.2693 38.8921L26.386 41.0181ZM17.1936 40.9978C19.7264 43.5418 23.842 43.5509 26.386 41.0181L24.2693 38.8921C22.8995 40.2559 20.6834 40.2511 19.3196 38.8812L17.1936 40.9978ZM17.2139 31.8055C14.6699 34.3383 14.6608 38.4538 17.1936 40.9978L19.3196 38.8812C17.9558 37.5114 17.9606 35.2953 19.3305 33.9315L17.2139 31.8055ZM42.5902 21.3381C33.0777 21.3381 23.949 25.1 17.2139 31.8055L19.3305 33.9315C25.502 27.7872 33.8691 24.3381 42.5902 24.3381L42.5902 21.3381ZM67.9666 31.8055C61.2315 25.1 52.1028 21.3381 42.5902 21.3381L42.5902 24.3381C51.3114 24.3381 59.6785 27.7871 65.85 33.9315L67.9666 31.8055ZM67.9869 40.9978C70.5197 38.4538 70.5106 34.3383 67.9666 31.8055L65.85 33.9315C67.2198 35.2953 67.2247 37.5114 65.8609 38.8812L67.9869 40.9978ZM58.7945 41.0181C61.3385 43.5509 65.4541 43.5418 67.9869 40.9978L65.8609 38.8812C64.4971 40.251 62.281 40.2559 60.9112 38.8921L58.7945 41.0181ZM42.5902 34.3381C48.6734 34.3381 54.5017 36.7442 58.7945 41.0181L60.9112 38.8921C56.0548 34.0571 49.4648 31.3381 42.5902 31.3381V34.3381ZM52.552 57.1106C52.552 62.5783 48.0982 67.022 42.5902 67.022V70.022C49.7426 70.022 55.552 64.2476 55.552 57.1106H52.552ZM42.5902 47.1993C48.0982 47.1993 52.552 51.643 52.552 57.1106H55.552C55.552 49.9737 49.7426 44.1993 42.5902 44.1993V47.1993ZM32.6285 57.1106C32.6285 51.643 37.0822 47.1993 42.5902 47.1993V44.1993C35.4379 44.1993 29.6285 49.9737 29.6285 57.1106H32.6285ZM42.5902 67.022C37.0822 67.022 32.6285 62.5783 32.6285 57.1106H29.6285C29.6285 64.2476 35.4379 70.022 42.5902 70.022V67.022Z" fill="#005268"/>
<g filter="url(#filter1_i_20601_85051)">
<path fill-rule="evenodd" clip-rule="evenodd" d="M79.863 46.9061C81.8199 44.9578 81.8199 41.7989 79.863 39.8506L75.9485 35.9534C73.9916 34.0051 70.8188 34.0051 68.8619 35.9534L63.8106 40.9824L58.7593 35.9534C56.8024 34.0051 53.6296 34.0051 51.6727 35.9534L47.7583 39.8506C45.8013 41.7989 45.8013 44.9578 47.7583 46.9061L52.8095 51.9351L47.7582 56.9642C45.8013 58.9125 45.8013 62.0713 47.7582 64.0196L51.6727 67.9168C53.6296 69.8651 56.8024 69.8651 58.7593 67.9168L63.8106 62.8878L68.8619 67.9168C70.8188 69.8651 73.9916 69.8651 75.9485 67.9168L79.863 64.0196C81.8199 62.0713 81.8199 58.9125 79.863 56.9642L74.8117 51.9351L79.863 46.9061Z" fill="#E3EDFF"/>
</g>
<path d="M79.863 39.8506L80.926 38.7923L79.863 39.8506ZM75.9485 35.9534L74.8855 37.0117L75.9485 35.9534ZM68.8619 35.9534L67.7989 34.8951L67.7989 34.8951L68.8619 35.9534ZM63.8106 40.9824L62.7476 42.0408C63.3347 42.6253 64.2865 42.6253 64.8736 42.0408L63.8106 40.9824ZM52.8095 51.9351L53.8725 52.9934C54.1544 52.7127 54.3128 52.3321 54.3128 51.9351C54.3128 51.5382 54.1544 51.1575 53.8725 50.8768L52.8095 51.9351ZM47.7582 56.9642L46.6952 55.9058L46.6952 55.9058L47.7582 56.9642ZM47.7582 64.0196L48.8212 62.9613L48.8212 62.9613L47.7582 64.0196ZM51.6727 67.9168L50.6097 68.9751L50.6097 68.9751L51.6727 67.9168ZM63.8106 62.8878L64.8736 61.8295C64.2865 61.245 63.3347 61.245 62.7476 61.8295L63.8106 62.8878ZM74.8117 51.9351L73.7487 50.8768C73.1616 51.4613 73.1616 52.4089 73.7487 52.9934L74.8117 51.9351ZM78.8 40.9089C80.1698 42.2728 80.1698 44.4839 78.8 45.8478L80.926 47.9644C83.47 45.4316 83.47 41.3251 80.926 38.7923L78.8 40.9089ZM74.8855 37.0117L78.8 40.9089L80.926 38.7923L77.0115 34.8951L74.8855 37.0117ZM69.9249 37.0117C71.2947 35.6479 73.5157 35.6479 74.8855 37.0117L77.0115 34.8951C74.4675 32.3623 70.3429 32.3623 67.7989 34.8951L69.9249 37.0117ZM64.8736 42.0408L69.9249 37.0117L67.7989 34.8951L62.7476 39.9241L64.8736 42.0408ZM57.6963 37.0117L62.7476 42.0408L64.8736 39.9241L59.8223 34.8951L57.6963 37.0117ZM52.7357 37.0117C54.1055 35.6479 56.3265 35.6479 57.6963 37.0117L59.8223 34.8951C57.2783 32.3623 53.1537 32.3623 50.6097 34.8951L52.7357 37.0117ZM48.8213 40.9089L52.7357 37.0117L50.6097 34.8951L46.6953 38.7923L48.8213 40.9089ZM48.8213 45.8478C47.4514 44.4839 47.4514 42.2728 48.8213 40.9089L46.6953 38.7923C44.1513 41.3251 44.1513 45.4316 46.6953 47.9644L48.8213 45.8478ZM53.8725 50.8768L48.8213 45.8478L46.6953 47.9644L51.7465 52.9934L53.8725 50.8768ZM48.8212 58.0225L53.8725 52.9934L51.7465 50.8768L46.6952 55.9058L48.8212 58.0225ZM48.8212 62.9613C47.4514 61.5975 47.4514 59.3863 48.8212 58.0225L46.6952 55.9058C44.1512 58.4386 44.1512 62.5451 46.6952 65.0779L48.8212 62.9613ZM52.7357 66.8585L48.8212 62.9613L46.6952 65.0779L50.6097 68.9751L52.7357 66.8585ZM57.6963 66.8585C56.3265 68.2223 54.1055 68.2223 52.7357 66.8585L50.6097 68.9751C53.1537 71.5079 57.2783 71.5079 59.8223 68.9751L57.6963 66.8585ZM62.7476 61.8295L57.6963 66.8585L59.8223 68.9751L64.8736 63.9461L62.7476 61.8295ZM69.9249 66.8585L64.8736 61.8295L62.7476 63.9461L67.7989 68.9751L69.9249 66.8585ZM74.8855 66.8585C73.5157 68.2223 71.2947 68.2223 69.9249 66.8585L67.7989 68.9751C70.3429 71.5079 74.4675 71.5079 77.0115 68.9751L74.8855 66.8585ZM78.8 62.9613L74.8855 66.8585L77.0115 68.9751L80.926 65.0779L78.8 62.9613ZM78.8 58.0225C80.1698 59.3863 80.1698 61.5975 78.8 62.9613L80.926 65.0779C83.47 62.5451 83.47 58.4386 80.926 55.9058L78.8 58.0225ZM73.7487 52.9934L78.8 58.0225L80.926 55.9058L75.8747 50.8768L73.7487 52.9934ZM78.8 45.8478L73.7487 50.8768L75.8747 52.9934L80.926 47.9644L78.8 45.8478Z" fill="#005268"/>
<defs>
<filter id="filter0_i_20601_85051" x="0.5" y="0.5" width="84.1805" height="69.522" filterUnits="userSpaceOnUse" color-interpolation-filters="sRGB">
<feFlood flood-opacity="0" result="BackgroundImageFix"/>
<feBlend mode="normal" in="SourceGraphic" in2="BackgroundImageFix" result="shape"/>
<feColorMatrix in="SourceAlpha" type="matrix" values="0 0 0 0 0 0 0 0 0 0 0 0 0 0 0 0 0 0 127 0" result="hardAlpha"/>
<feOffset dx="6" dy="-2"/>
<feComposite in2="hardAlpha" operator="arithmetic" k2="-1" k3="1"/>
<feColorMatrix type="matrix" values="0 0 0 0 0.364716 0 0 0 0 0.833443 0 0 0 0 0.97487 0 0 0 1 0"/>
<feBlend mode="normal" in2="shape" result="effect1_innerShadow_20601_85051"/>
</filter>
<filter id="filter1_i_20601_85051" x="44.7872" y="32.9955" width="38.0467" height="37.8793" filterUnits="userSpaceOnUse" color-interpolation-filters="sRGB">
<feFlood flood-opacity="0" result="BackgroundImageFix"/>
<feBlend mode="normal" in="SourceGraphic" in2="BackgroundImageFix" result="shape"/>
<feColorMatrix in="SourceAlpha" type="matrix" values="0 0 0 0 0 0 0 0 0 0 0 0 0 0 0 0 0 0 127 0" result="hardAlpha"/>
<feOffset dx="5" dy="5"/>
<feComposite in2="hardAlpha" operator="arithmetic" k2="-1" k3="1"/>
<feColorMatrix type="matrix" values="0 0 0 0 1 0 0 0 0 1 0 0 0 0 1 0 0 0 1 0"/>
<feBlend mode="normal" in2="shape" result="effect1_innerShadow_20601_85051"/>
</filter>
</defs>
</svg>