<svg xmlns="http://www.w3.org/2000/svg" width="198" height="171" viewBox="0 0 198 171">
    <g fill="none" fill-rule="evenodd" stroke="#005268" stroke-width="5.42">
        <path fill="#077493" d="M17.904 2.836L3.173 51.02l177.424 54.244 14.73-48.183L17.905 2.836zm136.193 85.875c-9.143-2.795-14.334-12.384-11.568-21.43s12.43-14.092 21.574-11.297c9.143 2.796 14.333 12.384 11.568 21.43-2.766 9.046-12.43 14.092-21.574 11.297z"/>
        <path fill="#1EB8E7" d="M40.861 26.797l-5.257 17.196L108.31 66.22l5.257-17.196-72.706-22.228zM7.817 123.61l23.654 44.487 141.57-75.274c12.285-6.532 16.949-21.786 10.417-34.071-6.532-12.285-21.786-16.948-34.07-10.417L7.816 123.61zm159.484-34.85c-9.333 4.963-20.884 1.526-25.791-7.704-4.908-9.23-1.298-20.728 8.035-25.69 9.333-4.963 20.883-1.526 25.791 7.704 4.908 9.23 1.298 20.728-8.035 25.69z"/>
    </g>
</svg>
