<svg viewBox="0 0 32 26" xmlns="http://www.w3.org/2000/svg">
  <g id="icons vector_5 copy 8">
    <path
      id="Path"
      fill-rule="evenodd"
      clip-rule="evenodd"
      d="M23.2961 12.1959H25.6896L28.2135 8.92667L27.4505 8.10938H23.1592L23.2961 12.1959Z"
      fill="#2287B4"
    />
    <g id="Path_2">
      <path
        fill-rule="evenodd"
        clip-rule="evenodd"
        d="M27.6527 8.41435L30.0201 10.5614C30.5259 11.0674 30.5259 11.8846 30.0201 12.3906L28.9701 13.4349C28.7255 13.6785 28.3935 13.8154 28.0473 13.8154C27.7011 13.8154 27.3691 13.6785 27.1245 13.4349L26.3875 12.676C25.8818 12.17 25.8818 11.3528 26.3875 10.8468L27.5745 9.71814C27.8721 9.45754 27.9731 9.03911 27.8268 8.67254C27.6806 8.30598 27.3186 8.07027 26.9223 8.08354H23.394"
        fill="#1EB8E7"
      />
      <path
        d="M27.6527 8.41435L30.0201 10.5614C30.5259 11.0674 30.5259 11.8846 30.0201 12.3906L28.9701 13.4349C28.7255 13.6785 28.3935 13.8154 28.0473 13.8154C27.7011 13.8154 27.3691 13.6785 27.1245 13.4349L26.3875 12.676C25.8818 12.17 25.8818 11.3528 26.3875 10.8468L27.5745 9.71814C27.8721 9.45754 27.9731 9.03911 27.8268 8.67254C27.6806 8.30598 27.3186 8.07027 26.9223 8.08354H23.394"
        stroke="#163150"
        stroke-width="1.31017"
        stroke-linecap="round"
        stroke-linejoin="round"
      />
    </g>
    <path
      id="Path_3"
      d="M23.6484 12.1896H26.0745"
      stroke="#163150"
      stroke-width="1.31017"
      stroke-linecap="round"
      stroke-linejoin="round"
    />
    <g id="Path_4">
      <path
        fill-rule="evenodd"
        clip-rule="evenodd"
        d="M8.39384 16.2177H22.0895C22.8099 16.2177 23.3938 15.6369 23.3938 14.9204V5.83935C23.3938 5.12287 22.8099 4.54205 22.0895 4.54205H9.04602C8.28616 4.53608 7.59917 4.99074 7.31123 5.69016L5.60254 8.408"
        fill="#2287B4"
      />
      <path
        d="M8.39384 16.2177H22.0895C22.8099 16.2177 23.3938 15.6369 23.3938 14.9204V5.83935C23.3938 5.12287 22.8099 4.54205 22.0895 4.54205H9.04602C8.28616 4.53608 7.59917 4.99074 7.31123 5.69016L5.60254 8.408"
        stroke="#163150"
        stroke-width="1.31017"
        stroke-linecap="round"
        stroke-linejoin="round"
      />
    </g>
    <path
      id="Oval"
      fill-rule="evenodd"
      clip-rule="evenodd"
      d="M16.6768 15.2703C20.6389 15.2703 23.8508 12.0758 23.8508 8.13514C23.8508 4.19451 20.6389 1 16.6768 1C12.7148 1 9.50293 4.19451 9.50293 8.13514C9.50293 12.0758 12.7148 15.2703 16.6768 15.2703Z"
      fill="url(#paint0_radial)"
      stroke="#163150"
      stroke-width="1.31017"
      stroke-linecap="round"
      stroke-linejoin="round"
    />
    <path
      id="Path_5"
      fill-rule="evenodd"
      clip-rule="evenodd"
      d="M11.9551 8.32991C11.8273 6.56043 12.7101 4.86965 14.239 3.9559C15.7679 3.04216 17.6833 3.06053 19.1942 4.00343L17.4725 7.57099L21.3073 7.02613C21.6845 8.75308 21.0578 10.5447 19.6844 11.6659C18.3109 12.7872 16.422 13.0492 14.7925 12.3445C13.163 11.6399 12.0674 10.0871 11.9551 8.32343V8.32991Z"
      fill="#FFC835"
      stroke="#FFAE25"
      stroke-width="1.04814"
      stroke-linecap="round"
      stroke-linejoin="round"
    />
    <path
      id="Path_6"
      fill-rule="evenodd"
      clip-rule="evenodd"
      d="M20.4136 16.6585L15.5614 24.3514C15.3774 24.6433 15.0843 24.8504 14.7466 24.927C14.409 25.0037 14.0545 24.9436 13.7614 24.7601L2.23098 17.5536L1.61142 17.1644C1.31799 16.9814 1.10979 16.6899 1.03271 16.354C0.955638 16.0182 1.01602 15.6657 1.20055 15.3742L7.57229 5.26172C7.33928 5.60911 7.25771 6.03556 7.34618 6.44378C7.43466 6.85199 7.68564 7.20715 8.04185 7.42821L8.31576 7.59685L20.0092 14.8682C20.3016 15.0522 20.5084 15.3443 20.5843 15.68C20.6601 16.0158 20.5987 16.3678 20.4136 16.6585Z"
      fill="#1EB8E7"
    />
    <path
      id="Path_7"
      fill-rule="evenodd"
      clip-rule="evenodd"
      d="M9.03968 7.90848L2.6549 17.8652L1.61142 17.1517C1.31799 16.9687 1.10979 16.6772 1.03271 16.3413C0.955638 16.0055 1.01602 15.653 1.20055 15.3615L7.57229 5.24902C7.33928 5.59641 7.25771 6.02286 7.34618 6.43108C7.43466 6.8393 7.68564 7.19445 8.04185 7.41551L9.03968 7.90848Z"
      fill="#0C9FE1"
    />
    <path
      id="Path_8"
      d="M7.57229 5.26172L1.20055 15.3742C1.01602 15.6657 0.955638 16.0182 1.03271 16.354C1.10979 16.6899 1.31799 16.9814 1.61142 17.1644L13.7614 24.7536C14.0537 24.9377 14.4076 24.9988 14.7452 24.9234C15.0828 24.8479 15.3764 24.6422 15.5614 24.3514L20.4136 16.665C20.5987 16.3742 20.6601 16.0223 20.5843 15.6865C20.5084 15.3508 20.3016 15.0587 20.0092 14.8747L8.04185 7.42821C7.68564 7.20715 7.43466 6.85199 7.34618 6.44378C7.25771 6.03556 7.33928 5.60911 7.57229 5.26172V5.26172"
      stroke="#163150"
      stroke-width="1.31017"
      stroke-linecap="round"
      stroke-linejoin="round"
    />
    <path
      id="Path_9"
      fill-rule="evenodd"
      clip-rule="evenodd"
      d="M16.3504 20.7769C15.9946 21.3485 15.3565 21.6849 14.6811 21.6569C14.0058 21.629 13.398 21.241 13.0912 20.642C12.7843 20.0429 12.8261 19.3259 13.2004 18.766L13.8069 17.4688L17.1852 19.3369L16.3504 20.7769Z"
      fill="#0C9FE1"
    />
    <path
      id="Oval_2"
      fill-rule="evenodd"
      clip-rule="evenodd"
      d="M15.3722 19.9081C16.0926 19.9081 16.6766 19.3273 16.6766 18.6108C16.6766 17.8943 16.0926 17.3135 15.3722 17.3135C14.6518 17.3135 14.0679 17.8943 14.0679 18.6108C14.0679 19.3273 14.6518 19.9081 15.3722 19.9081Z"
      fill="#B3C1D6"
      stroke="#163150"
      stroke-width="1.31017"
      stroke-linecap="round"
      stroke-linejoin="round"
    />
  </g>
  <defs>
    <radialGradient
      id="paint0_radial"
      cx="0"
      cy="0"
      r="1"
      gradientUnits="userSpaceOnUse"
      gradientTransform="translate(20.3083 3.79542) scale(5.8558 5.82415)"
    >
      <stop offset="0.06" stop-color="#FFEA80" />
      <stop offset="0.11" stop-color="#FFE77D" />
      <stop offset="0.47" stop-color="#FFD76C" />
      <stop offset="0.73" stop-color="#FFD166" />
    </radialGradient>
  </defs>
</svg>
