<svg xmlns="http://www.w3.org/2000/svg" width="202" height="161" viewBox="0 0 202 161">
    <g fill="none" fill-rule="evenodd">
        <g transform="translate(43 71)">
            <path stroke="#005268" stroke-width="4.641" d="M39.058 60.236C45.316 74.819 52.66 83.38 61.09 85.92c12.644 3.812 28.93-2.32 32.653-20.913 3.724-18.593 3.724-29.186 9.73-36.027 4.005-4.56 8.29-7.113 12.858-7.657"/>
            <rect width="30.52" height="13.441" x="20.429" y="41.575" fill="#1EB8E7" stroke="#005268" stroke-width="4.641" rx="2.32" transform="rotate(71 35.69 48.296)"/>
            <path fill="#1EB8E7" stroke="#005268" stroke-width="4.641" d="M117.68 19.389l.472 2.431 5.637-1.096 1.63 8.385 29.965-5.825-3.868-19.899L121.55 9.21l1.766 9.083-5.636 1.096z"/>
            <path fill="#005268" d="M150.795 7.914l5.578-1.08 2.604 13.339-5.577 1.08z"/>
        </g>
        <circle cx="55.5" cy="55.5" r="52.79" fill="#077493" stroke="#005268" stroke-width="5.42"/>
        <path fill="#1EB8E7" stroke="#005268" stroke-width="5.42" d="M22.352 41.52l6.61 23.053L81.86 49.405l-6.61-23.053L22.351 41.52z"/>
        <path fill="#005268" stroke="#005268" stroke-width="5.42" d="M31.352 71.52l1.924 6.711 23.098-6.623-1.925-6.711-23.097 6.623zM61.352 62.975l1.924 6.712 23.098-6.624-1.925-6.711-23.097 6.623z"/>
    </g>
</svg>
