<svg xmlns="http://www.w3.org/2000/svg" width="194" height="174" viewBox="0 0 194 174">
    <g fill="none" fill-rule="evenodd">
        <path stroke="#005268" stroke-width="4.641" d="M74.058 144.236c6.258 14.583 13.602 23.144 22.032 25.685 12.644 3.812 28.93-2.32 32.653-20.913 3.724-18.593 3.724-29.186 9.73-36.027 4.005-4.56 8.29-7.113 12.858-7.657"/>
        <path fill="#1EB8E7" stroke="#005268" stroke-width="4.641" d="M60.024 111.867l2.451 7.118-3.108 1.07 9.936 28.857 12.709-4.376-9.937-28.857-3.108 1.07-2.45-7.117-6.493 2.235zM152.68 103.389l.472 2.431 5.637-1.096 1.63 8.385 29.965-5.825-3.868-19.899-29.966 5.825 1.766 9.083-5.636 1.096z"/>
        <g stroke="#005268" stroke-width="4.641">
            <path fill="#1EB8E7" d="M14.333 13.048C5.84 15.484.929 24.343 3.364 32.836L19.61 89.492a15.998 15.998 0 0 0 5.707 8.333l17.105 12.982a15.998 15.998 0 0 0 14.08 2.635l9.963-2.856a15.998 15.998 0 0 0 10.545-9.697l7.626-20.073a15.998 15.998 0 0 0 .423-10.092L68.814 14.07C66.378 5.576 57.519.665 49.026 3.1l-34.693 9.948z"/>
            <path fill="#077493" d="M12.94 30.855a1.75 1.75 0 0 0-1.2 2.166l12.796 44.626a1.75 1.75 0 0 0 2.165 1.2l46.704-13.392a1.75 1.75 0 0 0 1.2-2.166L61.809 18.663a1.75 1.75 0 0 0-2.165-1.2L12.94 30.855z"/>
        </g>
        <path fill="#005268" d="M185.795 91.914l5.578-1.08 2.604 13.339-5.577 1.08z"/>
    </g>
</svg>
