<svg width="38" height="33" viewBox="0 0 38 33" fill="none" xmlns="http://www.w3.org/2000/svg">
<path d="M19.051 0.175537C18.1237 0.175537 17.3124 0.648572 16.8101 1.43692L1 28.6369C0.536364 29.4253 0.536364 30.4504 1 31.2387C1.46364 32.0271 2.31361 32.5395 3.24088 32.5001H34.6599C35.5872 32.5001 36.4372 32.0271 36.9008 31.2387C37.3644 30.4504 37.3644 29.4253 36.9008 28.6369L21.2919 1.43692C20.7896 0.648572 19.9783 0.175537 19.051 0.175537ZM19.051 2.89031C19.3987 2.89031 19.785 3.12672 19.9396 3.40263L34.3199 28.6369C34.4744 28.9128 34.4744 29.3464 34.3199 29.6224C34.1653 29.8983 33.779 30.135 33.4313 30.135H4.6086C4.26087 30.135 3.87454 29.8983 3.72 29.6224C3.56545 29.3464 3.56545 28.9128 3.72 28.6369L10.9412 16.0198L18.1624 3.40263C18.3169 3.0873 18.7033 2.89031 19.051 2.89031ZM19.4008 10.5001C18.319 10.5001 18.5 10.9318 18.5 12.0355V19.1747C18.5 20.0419 18.65 20.5001 19.5 20.5001C20.35 20.5001 20.5 20.0419 20.5 19.1747V12.0355C20.5 10.9318 20.4826 10.5001 19.4008 10.5001ZM19.5 22.5001C18.4182 22.5001 18 22.8011 18 23.9048C18 25.0085 18.4182 25.5001 19.5 25.5001C20.5818 25.5001 20.9008 25.0085 20.9008 23.9048C20.9008 22.8011 20.5818 22.5001 19.5 22.5001Z" fill="white"/>
</svg>
