<svg width="24" height="20" viewBox="0 0 24 20" fill="none" xmlns="http://www.w3.org/2000/svg">
<path d="M14.0002 18.1L17.0002 13.7L12.7002 9.79995L16.7002 5.19995L17.5002 8.39995H22.4002" stroke="white" stroke-width="2" stroke-miterlimit="10" stroke-linecap="round" stroke-linejoin="round"/>
<path d="M4.1001 13.3001L8.70009 14.4001L10.3001 12.6001" stroke="white" stroke-width="2" stroke-miterlimit="10" stroke-linecap="round" stroke-linejoin="round"/>
<path d="M8.8999 5.99995L11.7999 2.19995L13.5999 3.19995" stroke="white" stroke-width="2" stroke-miterlimit="10" stroke-linecap="round" stroke-linejoin="round"/>
<path opacity="0.3" d="M7.20019 2.30005H3.2002" stroke="white" stroke-width="2" stroke-miterlimit="10" stroke-linecap="round" stroke-linejoin="round"/>
<path opacity="0.3" d="M5.4 6H1" stroke="white" stroke-width="2" stroke-miterlimit="10" stroke-linecap="round" stroke-linejoin="round"/>
<path opacity="0.3" d="M8.3999 9.3999H6.8999" stroke="white" stroke-width="2" stroke-miterlimit="10" stroke-linecap="round" stroke-linejoin="round"/>
<path d="M19.5001 2.8C19.9972 2.8 20.4001 2.39706 20.4001 1.9C20.4001 1.40294 19.9972 1 19.5001 1C19.0031 1 18.6001 1.40294 18.6001 1.9C18.6001 2.39706 19.0031 2.8 19.5001 2.8Z" stroke="white" stroke-width="2" stroke-miterlimit="10" stroke-linecap="round" stroke-linejoin="round"/>
<path opacity="0.3" d="M9.7 18.3999H9.5" stroke="white" stroke-width="2" stroke-miterlimit="10" stroke-linecap="round" stroke-linejoin="round"/>
</svg>
