<svg xmlns="http://www.w3.org/2000/svg" width="18" height="18" viewBox="0 0 18 18">
    <path fill="#FFFFFF" fill-rule="evenodd" d="M9 18c-4.962 0-9-4.037-9-9s4.038-9 9-9 9 4.037 9 9-4.038 9-9 9zM9 1.125C4.657 1.125 1.125 4.657 1.125 9c0 4.342 3.532 7.875 7.875 7.875 4.342 0 7.875-3.533 7.875-7.875 0-4.343-3.533-7.875-7.875-7.875zm1.675 8.088c-1.176.953-1.115 2.036-1.115 2.047a.563.563 0 1 1-1.12.1c-.006-.069-.128-1.68 1.526-3.02.526-.427.722-.82.722-1.451 0-.974-.758-1.767-1.688-1.767A1.67 1.67 0 0 0 7.314 6.81a.563.563 0 0 1-1.125 0A2.782 2.782 0 0 1 9 3.997c1.55 0 2.813 1.297 2.813 2.892 0 .97-.352 1.687-1.138 2.324zm-1.287 3.888a.572.572 0 0 1 .169.399.567.567 0 0 1-.563.563.591.591 0 0 1-.399-.164.566.566 0 0 1 0-.798c.208-.209.59-.209.793 0z"/>
</svg>
