<svg width="32" height="32" viewBox="0 0 32 32" fill="none" xmlns="http://www.w3.org/2000/svg">
<path d="M16 31C24.2843 31 31 24.2843 31 16C31 7.71573 24.2843 1 16 1C7.71573 1 1 7.71573 1 16C1 24.2843 7.71573 31 16 31Z" stroke="white" stroke-width="2"/>
<path d="M17.085 9.3865V14.8205C17.085 15.1055 17.0787 15.3842 17.066 15.6565C17.0597 15.9288 17.047 16.2043 17.028 16.483C17.009 16.7553 16.9837 17.0372 16.952 17.3285C16.9267 17.6135 16.895 17.9207 16.857 18.25H15.7075C15.6695 17.9207 15.6347 17.6135 15.603 17.3285C15.5777 17.0372 15.5555 16.7553 15.5365 16.483C15.5175 16.2043 15.5017 15.9288 15.489 15.6565C15.4827 15.3842 15.4795 15.1055 15.4795 14.8205V9.3865H17.085ZM15.071 21.955C15.071 21.7903 15.0995 21.6352 15.1565 21.4895C15.2198 21.3438 15.3022 21.2172 15.4035 21.1095C15.5112 21.0018 15.6378 20.9163 15.7835 20.853C15.9292 20.7897 16.0843 20.758 16.249 20.758C16.4137 20.758 16.5688 20.7897 16.7145 20.853C16.8602 20.9163 16.9868 21.0018 17.0945 21.1095C17.2022 21.2172 17.2845 21.3438 17.3415 21.4895C17.4048 21.6352 17.4365 21.7903 17.4365 21.955C17.4365 22.126 17.4048 22.2843 17.3415 22.43C17.2845 22.5693 17.2022 22.6928 17.0945 22.8005C16.9868 22.9082 16.8602 22.9905 16.7145 23.0475C16.5688 23.1108 16.4137 23.1425 16.249 23.1425C16.0843 23.1425 15.9292 23.1108 15.7835 23.0475C15.6378 22.9905 15.5112 22.9082 15.4035 22.8005C15.3022 22.6928 15.2198 22.5693 15.1565 22.43C15.0995 22.2843 15.071 22.126 15.071 21.955Z" fill="white"/>
</svg>
