<svg width="12" height="12" viewBox="0 0 12 12" fill="none" xmlns="http://www.w3.org/2000/svg">
<path d="M6 11.625C9.1066 11.625 11.625 9.1066 11.625 6C11.625 2.8934 9.1066 0.375 6 0.375C2.8934 0.375 0.375 2.8934 0.375 6C0.375 9.1066 2.8934 11.625 6 11.625Z" stroke="#A682FF" stroke-width="0.75"/>
<path d="M6.4755 4.89119V8.5H5.84138V4.89119H6.4755ZM6.618 3.75831C6.618 3.82006 6.60494 3.87825 6.57881 3.93287C6.55506 3.98512 6.52181 4.03262 6.47906 4.07537C6.43869 4.11575 6.39119 4.14781 6.33656 4.17156C6.28194 4.19531 6.22375 4.20719 6.162 4.20719C6.10025 4.20719 6.04206 4.19531 5.98744 4.17156C5.93519 4.14781 5.88769 4.11575 5.84494 4.07537C5.80456 4.03262 5.7725 3.98512 5.74875 3.93287C5.725 3.87825 5.71313 3.82006 5.71313 3.75831C5.71313 3.69656 5.725 3.63837 5.74875 3.58375C5.7725 3.52675 5.80456 3.47806 5.84494 3.43769C5.88769 3.39494 5.93519 3.36169 5.98744 3.33794C6.04206 3.31419 6.10025 3.30231 6.162 3.30231C6.22375 3.30231 6.28194 3.31419 6.33656 3.33794C6.39119 3.36169 6.43869 3.39494 6.47906 3.43769C6.52181 3.47806 6.55506 3.52675 6.57881 3.58375C6.60494 3.63837 6.618 3.69656 6.618 3.75831Z" fill="#A682FF"/>
</svg>
