<svg xmlns="http://www.w3.org/2000/svg" viewBox="0 0 60 60">
    <g fill="none" fill-rule="evenodd" transform="translate(1 3)">
        <ellipse cx="33.677" cy="23.549" fill="#9AA7B1" stroke="#163150" stroke-linecap="round" stroke-linejoin="round" stroke-width="2.468" rx="13.118" ry="12.984"/>
        <path fill="#1EB8E7" d="M30.654 42.787l-4.27-4.227L12.18 52.62l-1.21-11.763 8.873-8.77-4.368-4.336 20.732-5.497z"/>
        <path fill="#0C9FE1" d="M11.588 47.636l13.574-13.277a1.752 1.752 0 0 1 1.69-.44l1.309.354a1.746 1.746 0 0 0 2.036-.916l5.356-10.993-4.9 20.386-4.738-3.872L12.18 52.62l-.592-4.983z" opacity=".7"/>
        <path stroke="#163150" stroke-linecap="round" stroke-linejoin="round" stroke-width="2.468" d="M30.654 42.787l-4.27-4.227L10.97 53.816v-12.96l8.872-8.77-4.368-4.335 20.732-5.497zM.407 51.386l6.33-6.266"/>
        <ellipse cx="39.539" cy="18.053" fill="#CBD1D6" stroke="#163150" stroke-linecap="round" stroke-linejoin="round" stroke-width="2.468" rx="13.426" ry="13.289"/>
        <path stroke="#FFD166" stroke-linecap="round" stroke-linejoin="round" stroke-width="2.468" d="M3.591 28.41s22.09-21.399 24.1-23.207c7.174-6.478 18.296-5.975 24.842 1.124 6.54 7.097 6.417 16.966-1.135 24.587-1.16 1.222-22.077 20.667-22.077 20.667"/>
        <ellipse cx="39.539" cy="18.053" fill="#CBD1D6" stroke="#9AA7B1" stroke-linecap="round" stroke-linejoin="round" stroke-width="1.974" rx="8.305" ry="8.22"/>
        <path stroke="#9AA7B1" stroke-linejoin="round" stroke-width="1.974" d="M35.516 18.053h8.046"/>
        <path stroke="#FFD166" stroke-linecap="round" stroke-linejoin="round" stroke-width="2.468" d="M.728 40.54l10.329-10.224"/>
    </g>
</svg>
