<svg width="24" height="29" viewBox="0 0 24 29" fill="none" xmlns="http://www.w3.org/2000/svg">
<path fill-rule="evenodd" clip-rule="evenodd" d="M9.13485 0.000106479C9.03109 -0.00168673 8.92818 0.0191889 8.83331 0.0612678C8.73845 0.103347 8.65391 0.165607 8.58559 0.243729L5.66674 3.49111C5.54901 3.62212 5.48391 3.79204 5.48398 3.96817C5.48405 4.14431 5.54929 4.31419 5.66713 4.4451L8.8766 8.00837C8.93858 8.08039 9.01433 8.13931 9.0994 8.18165C9.18446 8.22399 9.27713 8.2489 9.37195 8.25493C9.46678 8.26097 9.56186 8.248 9.6516 8.21678C9.74135 8.18556 9.82395 8.13673 9.89456 8.07315C9.96517 8.00956 10.0224 7.9325 10.0628 7.8465C10.1032 7.76051 10.126 7.6673 10.1299 7.57236C10.1338 7.47742 10.1187 7.38267 10.0855 7.29365C10.0523 7.20464 10.0016 7.12316 9.93642 7.05399L7.81047 4.69388H17.2786C20.98 4.69388 22.5737 6.91434 22.5737 9.10453C22.5737 11.2947 20.98 13.5148 17.2786 13.5148H6.71511C2.41281 13.5148 0.00363041 16.404 4.06735e-06 19.3256C-0.00360837 22.2473 2.39921 25.1385 6.68983 25.1385H16.2219L14.3727 27.1957C14.3098 27.2653 14.2613 27.3467 14.2299 27.4351C14.1985 27.5235 14.1849 27.6172 14.1897 27.7109C14.1946 27.8046 14.2179 27.8964 14.2583 27.9811C14.2988 28.0658 14.3555 28.1416 14.4253 28.2043C14.495 28.267 14.5765 28.3154 14.665 28.3466C14.7535 28.3777 14.8472 28.3912 14.9409 28.3861C15.0346 28.381 15.1263 28.3574 15.2109 28.3168C15.2955 28.2762 15.3712 28.2192 15.4337 28.1493L18.3526 24.902C18.4703 24.7709 18.5353 24.601 18.5352 24.4248C18.535 24.2487 18.4697 24.0788 18.3518 23.9479L15.1424 20.3847C15.0804 20.3127 15.0046 20.2537 14.9196 20.2114C14.8345 20.169 14.7418 20.1441 14.647 20.1381C14.5522 20.132 14.4571 20.145 14.3673 20.1762C14.2776 20.2075 14.195 20.2563 14.1244 20.3199C14.0538 20.3835 13.9966 20.4605 13.9562 20.5465C13.9157 20.6325 13.8929 20.7257 13.889 20.8207C13.8851 20.9156 13.9002 21.0104 13.9335 21.0994C13.9667 21.1884 14.0174 21.2699 14.0825 21.3391L16.2196 23.7118H6.68988C3.00735 23.7118 1.42362 21.5045 1.42631 19.3276C1.42902 17.1508 3.01903 14.9414 6.71515 14.9414H17.2786C21.5882 14.9414 24 12.0381 24 9.10453C24 6.17094 21.5882 3.26721 17.2786 3.26721H7.78602L9.64663 1.19732C9.74004 1.09623 9.8022 0.970278 9.82562 0.834644C9.84903 0.699009 9.83271 0.559501 9.77861 0.432937C9.72451 0.306374 9.63495 0.198163 9.52072 0.121363C9.4065 0.0445625 9.2725 0.00245062 9.13488 0.000106479H9.13485Z" fill="white"/>
</svg>
