<svg xmlns="http://www.w3.org/2000/svg" width="52" height="54" viewBox="0 0 52 54">
    <defs>
        <radialGradient id="a" cx="75.264%" cy="19.61%" r="40.813%" fx="75.264%" fy="19.61%">
            <stop offset="6%" stop-color="#FFEA80"/>
            <stop offset="11%" stop-color="#FFE77D"/>
            <stop offset="47%" stop-color="#FFD76C"/>
            <stop offset="73%" stop-color="#FFD166"/>
        </radialGradient>
    </defs>
    <g fill="none" fill-rule="evenodd" transform="translate(1 2)">
        <path fill="#1EB8E7" fill-rule="nonzero" d="M39.695 5.076v8.949c0 14.741-4.67 25.136-17.683 32.227C7.195 38.202 4.33 28.56 4.33 14.086v-9.01c9.183-1.518 15.854-4.02 17.598-5.003h.085l.159.073c4.573 2.283 12.341 4.08 17.524 4.93z"/>
        <path stroke="#163150" stroke-linecap="round" stroke-linejoin="round" stroke-width="2.439" d="M39.695 5.076v8.949c0 14.644-4.585 25.075-17.683 32.215C7.646 38.432 4.33 29.24 4.33 14.086v-9.01A81.332 81.332 0 0 0 22.171.109c4.573 2.32 12.341 4.117 17.524 4.967z"/>
        <path fill="#003C77" fill-rule="nonzero" d="M39.622 18.627c0 .486 0 .972-.098 1.482a32.793 32.793 0 0 1-.256 2.428c0 .45-.134.899-.207 1.372-.085.45-.17.911-.268 1.372-.098.462-.195.875-.305 1.312v.121c-.244.923-.537 1.87-.878 2.805l-.22.571c-.17.461-.366.923-.573 1.396-.207.474-.427.923-.67 1.385a28.217 28.217 0 0 1-1.635 2.756l-.646.899c-.33.437-.67.874-1.037 1.323l-.56.656a31.274 31.274 0 0 1-2.537 2.538c-.354.316-.708.62-1.086.91-.378.292-.756.608-1.22.9-.792.594-1.646 1.213-2.548 1.723-.451.28-.915.559-1.39.826-.476.267-.976.547-1.488.814l-.805-.425c-.366-.17-.72-.377-1.06-.559a48.812 48.812 0 0 1-1.94-1.141l-.39-.255-.732-.437-.268-.17-.451-.328-.171-.122-.67-.498-.66-.51-.133-.109-.086-.133-.585-.498-.72-.632c-.39-.364-.768-.716-1.11-1.08a21.974 21.974 0 0 1-1.841-2.053l-.622-.692c-.5-.668-.951-1.335-1.366-2.015-.158-.268-.329-.547-.475-.826a21.467 21.467 0 0 1-.732-1.42c-.473-.93-.88-1.892-1.22-2.879a25.415 25.415 0 0 1-.72-2.525 26.708 26.708 0 0 1-.475-2.502c0-.376-.122-.765-.158-1.214-.037-.45-.073-.607-.098-.899a44.486 44.486 0 0 1-.17-2.428V18.14v-2.598a20.453 20.453 0 0 1 11.865-8.075c8.959-2.318 18.382 1.5 23.171 9.386l-.476 1.215.72.558z" opacity=".2"/>
        <path fill="#E3EDFF" fill-rule="nonzero" stroke="#163150" stroke-linecap="round" stroke-linejoin="round" stroke-width="2.439" d="M33.427 33.393a13.444 13.444 0 0 1-9.488 3.914 13.444 13.444 0 0 1-9.488-3.914c-.51-.513-.98-1.065-1.402-1.652a13.314 13.314 0 0 1 1.414-17.23c4.644-4.625 11.969-5.221 17.305-1.409a13.328 13.328 0 0 1 5.59 10.844c0 3.543-1.414 6.942-3.931 9.447z"/>
        <path fill="#003C77" fill-rule="nonzero" d="M33.427 33.393a13.444 13.444 0 0 1-9.488 3.914 13.444 13.444 0 0 1-9.488-3.914c-.51-.513-.98-1.065-1.402-1.652a16.957 16.957 0 0 1 4.912-13.748c3.63-3.614 8.7-5.41 13.807-4.89.59.42 1.144.887 1.659 1.396a13.328 13.328 0 0 1 3.931 9.447c0 3.543-1.414 6.942-3.931 9.447z" opacity=".2"/>
        <path stroke="#B5BFC7" stroke-linecap="round" stroke-linejoin="round" stroke-width="2.439" d="M49.463 31.766c-.06.656-.154 1.308-.28 1.955M43.841 16.271a19.293 19.293 0 0 1 5.354 10.03" opacity=".4"/>
        <circle cx="30.043" cy="30.013" r="13.386" fill="url(#a)" fill-rule="nonzero" stroke="#163150" stroke-linecap="round" stroke-linejoin="round" stroke-width="2.439" transform="rotate(-45 30.043 30.013)"/>
        <path fill="#FFC835" fill-rule="nonzero" stroke="#FFAE25" stroke-linecap="round" stroke-linejoin="round" stroke-width="1.951" d="M21.024 30.673a8.815 8.815 0 0 1 4.078-8.284 8.898 8.898 0 0 1 9.264-.143L29.89 29.53l8.537-1.748a8.793 8.793 0 0 1-2.834 8.729 8.883 8.883 0 0 1-9.09 1.495A8.82 8.82 0 0 1 21 30.649l.024.024z"/>
        <path stroke="#B5BFC7" stroke-linecap="round" stroke-linejoin="round" stroke-width="2.439" d="M2.439 35.93a32.224 32.224 0 0 1-1.756-4.152M17.073 50.356A40.063 40.063 0 0 1 4.878 39.938" opacity=".4"/>
    </g>
</svg>
