<svg xmlns="http://www.w3.org/2000/svg" width="26" height="32" viewBox="0 0 26 32">
    <path fill="#027796" fill-rule="evenodd" d="M23 32H3c-1.654 0-3-1.346-3-3V14c0-1.654 1.346-3 3-3h2V8c0-4.411 3.589-8 8-8s8 3.589 8 8h-2v3h4c1.654 0 3 1.346 3 3v15c0 1.654-1.346 3-3 3zM19 8c0-3.308-2.691-6-6-6S7 4.692 7 8v3h12V8zm5 6c0-.552-.449-1-1-1H3c-.551 0-1 .448-1 1v15c0 .551.449 1 1 1h20c.551 0 1-.449 1-1V14zm-10 6.722V24a1 1 0 0 1-2 0v-3.278c-.595-.347-1-.985-1-1.722 0-1.102.897-2 2-2s2 .898 2 2c0 .737-.405 1.375-1 1.722z"/>
</svg>
