<svg viewBox="0 0 18 18" fill="none" xmlns="http://www.w3.org/2000/svg">
<path fill-rule="evenodd" clip-rule="evenodd" d="M17.25 18H0.75C0.33525 18 0 17.664 0 17.25V0.75C0 0.336 0.33525 0 0.75 0H17.25C17.6647 0 18 0.336 18 0.75V17.25C18 17.664 17.6647 18 17.25 18ZM16.5 1.5H1.5V16.5H16.5V1.5ZM10.9018 9.53033V8.1589L6.87868 12.182C6.58594 12.4747 6.11129 12.4753 5.81802 12.182C5.52475 11.8887 5.52528 11.4141 5.81802 11.1213L9.8411 7.09824H8.46967C8.05495 7.09824 7.71978 6.76307 7.71978 6.34835C7.71925 5.93416 8.05548 5.59793 8.46967 5.59846H11.6516C11.6538 5.59846 11.6548 5.59952 11.657 5.59952C11.7529 5.60005 11.8484 5.61915 11.9386 5.65627C12.0298 5.69445 12.113 5.74908 12.182 5.81802C12.2509 5.88696 12.3055 5.97022 12.3437 6.06144C12.3814 6.15213 12.4005 6.24759 12.4005 6.34411C12.401 6.3457 12.4021 6.34676 12.4015 6.34835V9.53033C12.4021 9.94452 12.0658 10.2807 11.6517 10.2802C11.2369 10.2802 10.9018 9.94505 10.9018 9.53033Z"/>
</svg>
