<svg viewBox="0 0 48 48" fill="none" xmlns="http://www.w3.org/2000/svg">
<circle cx="24" cy="24" r="24" fill="white"/>
<path fill-rule="evenodd" clip-rule="evenodd" d="M16.9368 28.09C16.7397 28.237 16.5651 28.4118 16.4194 28.6093C16.1096 29.0263 15.9269 29.5433 15.9276 30.1022C15.9278 30.2776 15.9463 30.4493 15.9808 30.6141C16.0317 30.8584 16.1181 31.0892 16.2344 31.3016C16.6043 31.9768 17.2762 32.4621 18.0686 32.5773C18.1884 32.595 18.3105 32.604 18.4351 32.6037C18.5598 32.6036 18.6819 32.5944 18.8016 32.5764C19.2194 32.5149 19.6035 32.3502 19.9269 32.1083C20.1241 31.9623 20.2985 31.7872 20.4443 31.5898C20.7547 31.1729 20.9374 30.6558 20.9367 30.0961C20.936 29.5368 20.7521 29.02 20.4414 28.6039C20.2946 28.4074 20.1196 28.2328 19.9227 28.0864C19.5057 27.7766 18.9887 27.594 18.4292 27.5946C17.8695 27.5953 17.3531 27.7793 16.9368 28.09Z" fill="#2FBCB2"/>
<path fill-rule="evenodd" clip-rule="evenodd" d="M16.9368 28.09C16.7397 28.237 16.5651 28.4118 16.4194 28.6093C16.1096 29.0263 15.9269 29.5433 15.9276 30.1022C15.9278 30.2776 15.9463 30.4493 15.9808 30.6141C16.0317 30.8584 16.1181 31.0892 16.2344 31.3016C16.6043 31.9768 17.2762 32.4621 18.0686 32.5773C18.1884 32.595 18.3105 32.6039 18.4351 32.6037C18.5598 32.6036 18.6819 32.5944 18.8016 32.5764C19.2194 32.5149 19.6035 32.3502 19.9269 32.1083C20.1241 31.9623 20.2985 31.7872 20.4443 31.5898C20.7547 31.1729 20.9374 30.6558 20.9367 30.0961C20.936 29.5368 20.7521 29.02 20.4414 28.6039C20.2946 28.4074 20.1196 28.2328 19.9227 28.0864C19.5057 27.7766 18.9887 27.594 18.4292 27.5946C17.8695 27.5953 17.3531 27.7793 16.9368 28.09Z" stroke="#36BDB2" stroke-width="0.5"/>
<path fill-rule="evenodd" clip-rule="evenodd" d="M19.3046 30.3669L20.779 31.8378L22.459 33.5137L22.5766 33.631L24.0005 35.0516L23.3971 35.6565L18.7011 30.9718C18.9539 30.8297 19.163 30.6193 19.3046 30.3669Z" fill="#2FBCB2"/>
<path fill-rule="evenodd" clip-rule="evenodd" d="M19.3046 30.3669L20.779 31.8378L22.459 33.5137L22.5766 33.631L24.0005 35.0516L23.3971 35.6565L18.7011 30.9718C18.9539 30.8297 19.163 30.6193 19.3046 30.3669Z" stroke="#36BDB2" stroke-width="0.5"/>
<path fill-rule="evenodd" clip-rule="evenodd" d="M13.4672 24.5429L13.7946 24.8696L17.1373 28.2042C16.8846 28.3463 16.6753 28.5567 16.5339 28.8097L12.863 25.1477L13.4672 24.5429Z" fill="#2FBCB2"/>
<path fill-rule="evenodd" clip-rule="evenodd" d="M13.4672 24.5429L13.7946 24.8696L17.1373 28.2042C16.8846 28.3463 16.6753 28.5567 16.5339 28.8097L12.863 25.1477L13.4672 24.5429Z" stroke="#36BDB2" stroke-width="0.5"/>
<path fill-rule="evenodd" clip-rule="evenodd" d="M16.5244 30.3488C16.6779 30.6322 16.9169 30.8628 17.2055 31.0084L15.8696 31.5016L14.1411 32.1399L14.0486 32.1736L11.6014 33.0772L11.3055 32.2751L13.5582 31.4439L13.8593 31.3323L15.5736 30.6997L16.5244 30.3488Z" fill="#2FBCB2"/>
<path fill-rule="evenodd" clip-rule="evenodd" d="M16.5244 30.3488C16.6779 30.6322 16.9169 30.8628 17.2055 31.0084L15.8696 31.5016L14.1411 32.1399L14.0486 32.1736L11.6014 33.0772L11.3055 32.2751L13.5582 31.4439L13.8593 31.3323L15.5736 30.6997L16.5244 30.3488Z" stroke="#36BDB2" stroke-width="0.5"/>
<path fill-rule="evenodd" clip-rule="evenodd" d="M19.4152 30.1251L19.4367 30.1842L19.3848 30.2035C19.3961 30.1779 19.406 30.1515 19.4152 30.1251Z" fill="#2FBCB2"/>
<path fill-rule="evenodd" clip-rule="evenodd" d="M19.4152 30.1251L19.4367 30.1842L19.3848 30.2035C19.3961 30.1779 19.406 30.1515 19.4152 30.1251Z" stroke="#36BDB2" stroke-width="0.5"/>
<path fill-rule="evenodd" clip-rule="evenodd" d="M18.8609 31.2255L18.8685 37.5386L18.0134 37.5396L18.0059 31.2265L18.8609 31.2255Z" fill="#2FBCB2"/>
<path fill-rule="evenodd" clip-rule="evenodd" d="M18.8609 31.2255L18.8685 37.5386L18.0134 37.5396L18.0059 31.2265L18.8609 31.2255Z" stroke="#36BDB2" stroke-width="0.5"/>
<path fill-rule="evenodd" clip-rule="evenodd" d="M23.3837 24.531L23.9886 25.1343L22.5589 26.5673L20.7756 28.355L19.5082 29.6255C19.5088 29.6128 19.5088 29.5992 19.5088 29.5863C19.5084 29.2542 19.4062 28.9467 19.2327 28.6919L20.1707 27.7515L23.3837 24.531Z" fill="#2FBCB2"/>
<path fill-rule="evenodd" clip-rule="evenodd" d="M23.3837 24.531L23.9886 25.1343L22.5589 26.5673L20.7756 28.355L19.5082 29.6255C19.5088 29.6128 19.5088 29.5992 19.5088 29.5863C19.5084 29.2542 19.4062 28.9467 19.2327 28.6919L20.1707 27.7515L23.3837 24.531Z" stroke="#36BDB2" stroke-width="0.5"/>
<path fill-rule="evenodd" clip-rule="evenodd" d="M18.4381 34.7603C19.3432 34.7593 20.0777 35.492 20.0787 36.3971C20.0799 37.3022 19.3471 38.0367 18.4421 38.0377C17.537 38.0389 16.8025 37.306 16.8013 36.4011C16.8003 35.4961 17.533 34.7615 18.4381 34.7603Z" fill="#2FBCB2"/>
<path fill-rule="evenodd" clip-rule="evenodd" d="M18.4381 34.7603C19.3432 34.7593 20.0777 35.492 20.0787 36.3971C20.0799 37.3022 19.3471 38.0367 18.4421 38.0377C17.537 38.0389 16.8025 37.306 16.8013 36.4011C16.8003 35.4961 17.533 34.7615 18.4381 34.7603Z" stroke="#36BDB2" stroke-width="0.5"/>
<path fill-rule="evenodd" clip-rule="evenodd" d="M23.4758 23.2601C24.4594 23.2588 25.2579 24.0554 25.2591 25.0391C25.2602 26.0229 24.4638 26.8213 23.48 26.8224C22.4962 26.8237 21.6978 26.0271 21.6967 25.0435C21.6955 24.0597 22.492 23.2613 23.4758 23.2601Z" fill="#2FBCB2"/>
<path fill-rule="evenodd" clip-rule="evenodd" d="M23.4758 23.2601C24.4594 23.2588 25.2579 24.0554 25.2591 25.0391C25.2602 26.0229 24.4638 26.8213 23.48 26.8224C22.4962 26.8237 21.6978 26.0271 21.6967 25.0435C21.6955 24.0597 22.492 23.2613 23.4758 23.2601Z" stroke="#36BDB2" stroke-width="0.5"/>
<path fill-rule="evenodd" clip-rule="evenodd" d="M13.6993 23.7178C14.6044 23.7168 15.3389 24.4495 15.34 25.3546C15.3411 26.2597 14.6083 26.9942 13.7033 26.9954C12.7982 26.9964 12.0636 26.2636 12.0626 25.3585C12.0615 24.4535 12.7942 23.719 13.6993 23.7178Z" fill="#2FBCB2"/>
<path fill-rule="evenodd" clip-rule="evenodd" d="M13.6993 23.7178C14.6044 23.7168 15.3389 24.4495 15.34 25.3546C15.3411 26.2597 14.6083 26.9942 13.7033 26.9954C12.7982 26.9964 12.0636 26.2636 12.0626 25.3585C12.0615 24.4535 12.7942 23.719 13.6993 23.7178Z" stroke="#36BDB2" stroke-width="0.5"/>
<path fill-rule="evenodd" clip-rule="evenodd" d="M12.5043 30.6187C13.4094 30.6177 14.1439 31.3504 14.145 32.2554C14.1461 33.1605 13.4133 33.8951 12.5083 33.8961C11.6032 33.8972 10.8687 33.1645 10.8677 32.2594C10.8665 31.3544 11.5992 30.6198 12.5043 30.6187Z" fill="#2FBCB2"/>
<path fill-rule="evenodd" clip-rule="evenodd" d="M12.5043 30.6187C13.4094 30.6177 14.1439 31.3504 14.145 32.2554C14.1461 33.1605 13.4133 33.8951 12.5083 33.8961C11.6032 33.8972 10.8687 33.1645 10.8677 32.2594C10.8665 31.3544 11.5992 30.6198 12.5043 30.6187Z" stroke="#36BDB2" stroke-width="0.5"/>
<path fill-rule="evenodd" clip-rule="evenodd" d="M23.1412 17.8248C23.079 17.587 22.9821 17.3597 22.8538 17.1505C22.5833 16.7071 22.1722 16.3439 21.654 16.1351C21.4912 16.0696 21.3252 16.0223 21.1594 15.9925C20.9138 15.9483 20.6675 15.9418 20.427 15.9701C19.6624 16.0599 18.9605 16.501 18.5568 17.1924C18.4955 17.2968 18.4415 17.4069 18.395 17.5223C18.3484 17.6379 18.3111 17.7548 18.2829 17.8724C18.1834 18.2828 18.1922 18.7006 18.2952 19.0911C18.3568 19.3285 18.4536 19.556 18.582 19.7651C18.8523 20.2092 19.2632 20.5723 19.7822 20.7815C20.3012 20.9905 20.849 21.0135 21.3515 20.8813C21.5885 20.8189 21.816 20.7222 22.0255 20.5944C22.469 20.324 22.8322 19.9131 23.0412 19.3941C23.2503 18.8751 23.2734 18.3273 23.1412 17.8248Z" fill="#2FBCB2"/>
<path fill-rule="evenodd" clip-rule="evenodd" d="M23.1412 17.8248C23.079 17.587 22.9821 17.3597 22.8538 17.1505C22.5833 16.7071 22.1722 16.3439 21.654 16.1351C21.4912 16.0696 21.3252 16.0223 21.1594 15.9925C20.9138 15.9483 20.6675 15.9418 20.427 15.9701C19.6624 16.0599 18.9605 16.501 18.5568 17.1924C18.4955 17.2968 18.4415 17.4069 18.395 17.5223C18.3484 17.6379 18.3111 17.7548 18.2829 17.8724C18.1834 18.2828 18.1922 18.7006 18.2952 19.0911C18.3568 19.3285 18.4536 19.556 18.582 19.7651C18.8523 20.2092 19.2632 20.5723 19.7822 20.7815C20.3012 20.9905 20.849 21.0135 21.3515 20.8813C21.5885 20.8189 21.816 20.7222 22.0255 20.5944C22.469 20.324 22.8322 19.9131 23.0412 19.3941C23.2503 18.8751 23.2734 18.3273 23.1412 17.8248Z" stroke="#36BDB2" stroke-width="0.5"/>
<path fill-rule="evenodd" clip-rule="evenodd" d="M27.7306 15.9376L27.305 16.1187L22.9607 17.968C22.9236 17.6804 22.807 17.4077 22.6254 17.1816L27.3962 15.1508L27.7306 15.9376Z" fill="#2FBCB2"/>
<path fill-rule="evenodd" clip-rule="evenodd" d="M27.7306 15.9376L27.305 16.1187L22.9607 17.968C22.9236 17.6804 22.807 17.4077 22.6254 17.1816L27.3962 15.1508L27.7306 15.9376Z" stroke="#36BDB2" stroke-width="0.5"/>
<path fill-rule="evenodd" clip-rule="evenodd" d="M26.6084 11.8705L26.605 11.969L26.549 13.8106L26.5231 14.6579L27.3783 14.6569L27.4034 13.8368L27.4593 12.0104L27.4688 11.6893L27.5423 9.28941L26.6879 9.26318L26.6084 11.8705Z" fill="#2FBCB2"/>
<path fill-rule="evenodd" clip-rule="evenodd" d="M26.6084 11.8705L26.605 11.969L26.549 13.8106L26.5231 14.6579L27.3783 14.6569L27.4034 13.8368L27.4593 12.0104L27.4688 11.6893L27.5423 9.28941L26.6879 9.26318L26.6084 11.8705Z" stroke="#36BDB2" stroke-width="0.5"/>
<path fill-rule="evenodd" clip-rule="evenodd" d="M20.1483 17.8028L18.9833 11.5981L19.8237 11.4403L20.9886 17.6449L20.1483 17.8028Z" fill="#2FBCB2"/>
<path fill-rule="evenodd" clip-rule="evenodd" d="M20.1483 17.8028L18.9833 11.5981L19.8237 11.4403L20.9886 17.6449L20.1483 17.8028Z" stroke="#36BDB2" stroke-width="0.5"/>
<path fill-rule="evenodd" clip-rule="evenodd" d="M24.0248 25.1357L23.2387 25.4703L22.4458 23.6078L21.4568 21.2845L20.7539 19.6333C20.7655 19.6387 20.7782 19.6438 20.79 19.6486C21.0979 19.7727 21.4214 19.7931 21.7228 19.7278L22.2431 20.9498L24.0248 25.1357Z" fill="#2FBCB2"/>
<path fill-rule="evenodd" clip-rule="evenodd" d="M24.0248 25.1357L23.2387 25.4703L22.4458 23.6078L21.4568 21.2845L20.7539 19.6333C20.7655 19.6387 20.7782 19.6438 20.79 19.6486C21.0979 19.7727 21.4214 19.7931 21.7228 19.7278L22.2431 20.9498L24.0248 25.1357Z" stroke="#36BDB2" stroke-width="0.5"/>
<path fill-rule="evenodd" clip-rule="evenodd" d="M19.9163 14.2501C19.0269 14.4171 18.1704 13.8315 18.0034 12.942C17.8364 12.0524 18.422 11.196 19.3116 11.029C20.201 10.8619 21.0575 11.4476 21.2245 12.3372C21.3915 13.2267 20.8059 14.0831 19.9163 14.2501Z" fill="#2FBCB2"/>
<path fill-rule="evenodd" clip-rule="evenodd" d="M19.9163 14.2501C19.0269 14.4171 18.1704 13.8315 18.0034 12.942C17.8364 12.0524 18.422 11.196 19.3116 11.029C20.201 10.8619 21.0575 11.4476 21.2245 12.3372C21.3915 13.2267 20.8059 14.0831 19.9163 14.2501Z" stroke="#36BDB2" stroke-width="0.5"/>
<path fill-rule="evenodd" clip-rule="evenodd" d="M20.067 19.0644L13.9264 20.5303L13.7279 19.6987L19.8685 18.2328L20.067 19.0644Z" fill="#2FBCB2"/>
<path fill-rule="evenodd" clip-rule="evenodd" d="M20.067 19.0644L13.9264 20.5303L13.7279 19.6987L19.8685 18.2328L20.067 19.0644Z" stroke="#36BDB2" stroke-width="0.5"/>
<path fill-rule="evenodd" clip-rule="evenodd" d="M16.5293 19.4693C16.7395 20.3496 16.1962 21.2336 15.3159 21.4436C14.4356 21.6539 13.5516 21.1105 13.3415 20.2302C13.1313 19.35 13.6745 18.4661 14.5549 18.2559C15.4352 18.0457 16.3191 18.589 16.5293 19.4693Z" fill="#2FBCB2"/>
<path fill-rule="evenodd" clip-rule="evenodd" d="M16.5293 19.4693C16.7395 20.3496 16.1962 21.2336 15.3159 21.4436C14.4356 21.6539 13.5516 21.1105 13.3415 20.2302C13.1313 19.35 13.6745 18.4661 14.5549 18.2559C15.4352 18.0457 16.3191 18.589 16.5293 19.4693Z" stroke="#36BDB2" stroke-width="0.5"/>
<path fill-rule="evenodd" clip-rule="evenodd" d="M25.1686 25.6975C24.8011 26.6099 23.7633 27.0516 22.8508 26.6841C21.9384 26.3165 21.4967 25.2788 21.8642 24.3663C22.2318 23.4538 23.2696 23.0121 24.182 23.3797C25.0944 23.7472 25.5362 24.785 25.1686 25.6975Z" fill="#2FBCB2"/>
<path fill-rule="evenodd" clip-rule="evenodd" d="M25.1686 25.6975C24.8011 26.6099 23.7633 27.0516 22.8508 26.6841C21.9384 26.3165 21.4967 25.2788 21.8642 24.3663C22.2318 23.4538 23.2696 23.0121 24.182 23.3797C25.0944 23.7472 25.5362 24.785 25.1686 25.6975Z" stroke="#36BDB2" stroke-width="0.5"/>
<path fill-rule="evenodd" clip-rule="evenodd" d="M28.5917 11.308C28.2536 12.1475 27.2989 12.5538 26.4595 12.2157C25.6199 11.8776 25.2135 10.9228 25.5517 10.0834C25.8899 9.24388 26.8446 8.83748 27.6841 9.17574C28.5236 9.51387 28.9299 10.4686 28.5917 11.308Z" fill="#2FBCB2"/>
<path fill-rule="evenodd" clip-rule="evenodd" d="M28.5917 11.308C28.2536 12.1475 27.2989 12.5538 26.4595 12.2157C25.6199 11.8776 25.2135 10.9228 25.5517 10.0834C25.8899 9.24388 26.8446 8.83748 27.6841 9.17574C28.5236 9.51387 28.9299 10.4686 28.5917 11.308Z" stroke="#36BDB2" stroke-width="0.5"/>
<path fill-rule="evenodd" clip-rule="evenodd" d="M34.3164 17.2257L34.2632 17.3087L33.2774 18.8652L32.8237 19.5814L33.5603 20.0159L33.9993 19.3227L34.9775 17.7794L35.1491 17.5078L36.4344 15.4796L35.7122 15.0221L34.3164 17.2257Z" fill="#2FBCB2"/>
<path fill-rule="evenodd" clip-rule="evenodd" d="M34.3164 17.2257L34.2632 17.3087L33.2774 18.8652L32.8237 19.5814L33.5603 20.0159L33.9993 19.3227L34.9775 17.7794L35.1491 17.5078L36.4344 15.4796L35.7122 15.0221L34.3164 17.2257Z" stroke="#36BDB2" stroke-width="0.5"/>
<path fill-rule="evenodd" clip-rule="evenodd" d="M29.0923 29.5722C29.3097 29.687 29.5426 29.7693 29.7836 29.816C30.2933 29.9163 30.8386 29.8588 31.3428 29.6177C31.5011 29.5423 31.6482 29.4516 31.7821 29.3497C31.9808 29.1985 32.1519 29.0212 32.2937 28.8249C32.7442 28.2007 32.8933 27.3852 32.6565 26.6204C32.6209 26.5046 32.5764 26.3905 32.5227 26.278C32.4689 26.1656 32.408 26.0593 32.3404 25.959C32.1051 25.6083 31.7911 25.3325 31.4337 25.1444C31.217 25.0294 30.984 24.9471 30.7431 24.9004C30.2332 24.7995 29.6877 24.8571 29.1829 25.0984C28.6782 25.3396 28.2908 25.7279 28.0487 26.1875C27.9345 26.4045 27.8521 26.6375 27.8047 26.8781C27.7044 27.3879 27.7619 27.9331 28.0032 28.438C28.2444 28.9429 28.6327 29.3303 29.0923 29.5722Z" fill="#2FBCB2"/>
<path fill-rule="evenodd" clip-rule="evenodd" d="M29.0923 29.5722C29.3097 29.687 29.5426 29.7693 29.7836 29.816C30.2933 29.9163 30.8386 29.8588 31.3428 29.6177C31.5011 29.5423 31.6482 29.4516 31.7821 29.3497C31.9808 29.1985 32.1519 29.0212 32.2937 28.8249C32.7442 28.2007 32.8933 27.3852 32.6565 26.6204C32.6209 26.5046 32.5764 26.3905 32.5227 26.278C32.4689 26.1656 32.408 26.0593 32.3404 25.959C32.1051 25.6083 31.7911 25.3325 31.4337 25.1444C31.217 25.0294 30.984 24.9471 30.7431 24.9004C30.2332 24.7995 29.6877 24.8571 29.1829 25.0984C28.6782 25.3396 28.2908 25.7279 28.0487 26.1875C27.9345 26.4045 27.8521 26.6375 27.8047 26.8781C27.7044 27.3879 27.7619 27.9331 28.0032 28.438C28.2444 28.9429 28.6327 29.3303 29.0923 29.5722Z" stroke="#36BDB2" stroke-width="0.5"/>
<path fill-rule="evenodd" clip-rule="evenodd" d="M30.1298 26.4553L30.8235 24.4915L31.6137 22.2541L31.6691 22.0973L32.339 20.201L33.1446 20.4856L30.9354 26.74C30.6984 26.5728 30.4184 26.4745 30.1298 26.4553Z" fill="#2FBCB2"/>
<path fill-rule="evenodd" clip-rule="evenodd" d="M30.1298 26.4553L30.8235 24.4915L31.6137 22.2541L31.6691 22.0973L32.339 20.201L33.1446 20.4856L30.9354 26.74C30.6984 26.5728 30.4184 26.4745 30.1298 26.4553Z" stroke="#36BDB2" stroke-width="0.5"/>
<path fill-rule="evenodd" clip-rule="evenodd" d="M32.2643 20.9452L30.6924 19.5789L28.9015 18.0223L28.776 17.9132L27.258 16.5938L27.8185 15.949L32.8249 20.3004C32.5824 20.4594 32.3882 20.6838 32.2643 20.9452Z" fill="#2FBCB2"/>
<path fill-rule="evenodd" clip-rule="evenodd" d="M32.2644 20.9452L30.6924 19.5789L28.9015 18.0223L28.776 17.9132L27.258 16.5938L27.8185 15.949L32.8249 20.3004C32.5824 20.4594 32.3882 20.6838 32.2644 20.9452Z" stroke="#36BDB2" stroke-width="0.5"/>
<path fill-rule="evenodd" clip-rule="evenodd" d="M28.4178 28.7267C28.3696 28.6083 28.3073 28.4923 28.243 28.3763L24.8977 30.554L24.5101 30.8064L24.976 31.5233L28.5995 29.1641C28.5281 29.0142 28.4711 28.8576 28.4178 28.7267Z" fill="#2FBCB2"/>
<path fill-rule="evenodd" clip-rule="evenodd" d="M28.4178 28.7267C28.3696 28.6083 28.3073 28.4923 28.243 28.3763L24.8977 30.554L24.5101 30.8064L24.976 31.5233L28.5995 29.1641C28.5281 29.0142 28.4711 28.8576 28.4178 28.7267Z" stroke="#36BDB2" stroke-width="0.5"/>
<path fill-rule="evenodd" clip-rule="evenodd" d="M31.2654 29.1589C31.5091 28.9479 31.6828 28.6649 31.7629 28.3516L32.5323 29.5501L33.5276 31.1007L33.5803 31.1838L34.9894 33.379L34.27 33.8407L32.9733 31.8198L32.7996 31.5497L31.8128 30.0118L31.2654 29.1589Z" fill="#2FBCB2"/>
<path fill-rule="evenodd" clip-rule="evenodd" d="M31.2654 29.1589C31.5091 28.9479 31.6828 28.6649 31.7629 28.3516L32.5323 29.5501L33.5276 31.1007L33.5803 31.1838L34.9894 33.379L34.27 33.8407L32.9733 31.8198L32.7996 31.5497L31.8128 30.0118L31.2654 29.1589Z" stroke="#36BDB2" stroke-width="0.5"/>
<path fill-rule="evenodd" clip-rule="evenodd" d="M30.4252 26.383L30.4783 26.3493L30.5082 26.396C30.4808 26.3904 30.4528 26.3864 30.4252 26.383Z" fill="#2FBCB2"/>
<path fill-rule="evenodd" clip-rule="evenodd" d="M30.4252 26.383L30.4783 26.3493L30.5082 26.396C30.4808 26.3904 30.4528 26.3864 30.4252 26.383Z" stroke="#36BDB2" stroke-width="0.5"/>
<path fill-rule="evenodd" clip-rule="evenodd" d="M31.0956 26.4866L36.7916 23.7643L37.1603 24.5358L31.4643 27.258L31.0956 26.4866Z" fill="#2FBCB2"/>
<path fill-rule="evenodd" clip-rule="evenodd" d="M31.0956 26.4866L36.7916 23.7643L37.1603 24.5358L31.4643 27.258L31.0956 26.4866Z" stroke="#36BDB2" stroke-width="0.5"/>
<path fill-rule="evenodd" clip-rule="evenodd" d="M23.1064 25.283L23.391 24.4774L25.2996 25.1516L27.6806 25.9927L29.3726 26.5903C29.3608 26.5953 29.3484 26.6011 29.3369 26.6066C29.0373 26.7498 28.8037 26.9745 28.6481 27.2406L27.3959 26.7983L23.1064 25.283Z" fill="#2FBCB2"/>
<path fill-rule="evenodd" clip-rule="evenodd" d="M23.1064 25.283L23.391 24.4774L25.2996 25.1516L27.6806 25.9927L29.3726 26.5903C29.3608 26.5953 29.3484 26.6011 29.3369 26.6066C29.0373 26.7498 28.8037 26.9745 28.6481 27.2406L27.3959 26.7983L23.1064 25.283Z" stroke="#36BDB2" stroke-width="0.5"/>
<path fill-rule="evenodd" clip-rule="evenodd" d="M34.4685 25.3483C34.0781 24.5318 34.4237 23.5534 35.2404 23.1631C36.0569 22.7729 37.0353 23.1184 37.4255 23.935C37.8158 24.7516 37.4702 25.7299 36.6537 26.1202C35.837 26.5105 34.8588 26.1649 34.4685 25.3483Z" fill="#2FBCB2"/>
<path fill-rule="evenodd" clip-rule="evenodd" d="M34.4685 25.3483C34.0781 24.5318 34.4237 23.5534 35.2404 23.1631C36.0569 22.7729 37.0353 23.1184 37.4255 23.935C37.8158 24.7516 37.4702 25.7299 36.6537 26.1202C35.837 26.5105 34.8588 26.1649 34.4685 25.3483Z" stroke="#36BDB2" stroke-width="0.5"/>
<path fill-rule="evenodd" clip-rule="evenodd" d="M21.9199 25.7464C21.4957 24.8589 21.8713 23.7954 22.7589 23.3712C23.6465 22.947 24.7099 23.3227 25.134 24.2102C25.5583 25.0978 25.1826 26.1613 24.2951 26.5854C23.4075 27.0097 22.3441 26.634 21.9199 25.7464Z" fill="#2FBCB2"/>
<path fill-rule="evenodd" clip-rule="evenodd" d="M21.9199 25.7464C21.4957 24.8589 21.8713 23.7954 22.7589 23.3712C23.6465 22.947 24.7099 23.3227 25.134 24.2102C25.5583 25.0978 25.1826 26.1613 24.2951 26.5854C23.4075 27.0097 22.3441 26.634 21.9199 25.7464Z" stroke="#36BDB2" stroke-width="0.5"/>
<path fill-rule="evenodd" clip-rule="evenodd" d="M23.7516 30.4079C23.9388 29.5225 24.8083 28.9563 25.6937 29.1434C26.5793 29.3306 27.1453 30.2001 26.9582 31.0856C26.771 31.9711 25.9015 32.5372 25.016 32.35C24.1305 32.1629 23.5644 31.2933 23.7516 30.4079Z" fill="#2FBCB2"/>
<path fill-rule="evenodd" clip-rule="evenodd" d="M23.7516 30.4079C23.9388 29.5225 24.8083 28.9563 25.6937 29.1434C26.5793 29.3306 27.1453 30.2001 26.9582 31.0856C26.771 31.9711 25.9015 32.5372 25.016 32.35C24.1305 32.1629 23.5644 31.2933 23.7516 30.4079Z" stroke="#36BDB2" stroke-width="0.5"/>
<path fill-rule="evenodd" clip-rule="evenodd" d="M32.3942 33.0261C32.1983 32.1424 32.7558 31.2674 33.6393 31.0715C34.523 30.8757 35.398 31.4331 35.5939 32.3168C35.7899 33.2003 35.2323 34.0754 34.3486 34.2714C33.4651 34.4672 32.59 33.9097 32.3942 33.0261Z" fill="#2FBCB2"/>
<path fill-rule="evenodd" clip-rule="evenodd" d="M32.3942 33.0261C32.1983 32.1424 32.7558 31.2674 33.6393 31.0715C34.523 30.8757 35.398 31.4331 35.5939 32.3168C35.7899 33.2003 35.2323 34.0754 34.3486 34.2714C33.4651 34.4672 32.59 33.9097 32.3942 33.0261Z" stroke="#36BDB2" stroke-width="0.5"/>
<path fill-rule="evenodd" clip-rule="evenodd" d="M22.3229 27.1424C22.5403 27.2572 22.7732 27.3395 23.0142 27.3861C23.5239 27.4864 24.0692 27.429 24.5734 27.1879C24.7317 27.1123 24.8788 27.0218 25.0127 26.9198C25.2114 26.7686 25.3825 26.5914 25.5243 26.395C25.9748 25.7707 26.1239 24.9554 25.8871 24.1905C25.8515 24.0748 25.807 23.9606 25.7533 23.8481C25.6995 23.7358 25.6386 23.6295 25.571 23.529C25.3357 23.1784 25.0217 22.9025 24.6643 22.7146C24.4476 22.5995 24.2146 22.5172 23.9737 22.4706C23.4638 22.3696 22.9183 22.4271 22.4135 22.6684C21.9088 22.9097 21.5214 23.2979 21.2793 23.7575C21.1651 23.9747 21.0827 24.2076 21.0353 24.4483C20.935 24.9581 20.9925 25.5033 21.2338 26.0082C21.475 26.5131 21.8632 26.9003 22.3229 27.1424Z" fill="#2FBCB2"/>
<path fill-rule="evenodd" clip-rule="evenodd" d="M22.3229 27.1424C22.5403 27.2572 22.7732 27.3395 23.0142 27.3861C23.5239 27.4864 24.0692 27.429 24.5734 27.1879C24.7317 27.1123 24.8788 27.0218 25.0127 26.9198C25.2114 26.7686 25.3825 26.5914 25.5243 26.395C25.9748 25.7707 26.1239 24.9554 25.8871 24.1905C25.8515 24.0748 25.807 23.9606 25.7533 23.8481C25.6995 23.7358 25.6386 23.6295 25.571 23.529C25.3357 23.1784 25.0217 22.9025 24.6643 22.7146C24.4476 22.5995 24.2146 22.5172 23.9737 22.4706C23.4638 22.3696 22.9183 22.4271 22.4135 22.6684C21.9088 22.9097 21.5214 23.2979 21.2793 23.7575C21.1651 23.9747 21.0827 24.2076 21.0353 24.4483C20.935 24.9581 20.9925 25.5033 21.2338 26.0082C21.475 26.5131 21.8632 26.9003 22.3229 27.1424Z" stroke="#36BDB2" stroke-width="0.5"/>
<path fill-rule="evenodd" clip-rule="evenodd" d="M23.7881 33.6317C24.6932 33.6306 25.4277 34.3633 25.4287 35.2684C25.4299 36.1734 24.697 36.908 23.7921 36.9091C22.887 36.9101 22.1525 36.1774 22.1513 35.2723C22.1503 34.3673 22.883 33.6327 23.7881 33.6317Z" fill="#2FBCB2"/>
<path fill-rule="evenodd" clip-rule="evenodd" d="M23.7881 33.6317C24.6932 33.6306 25.4277 34.3633 25.4287 35.2684C25.4299 36.1734 24.697 36.908 23.7921 36.9091C22.887 36.9101 22.1525 36.1774 22.1513 35.2723C22.1503 34.3673 22.883 33.6327 23.7881 33.6317Z" stroke="#36BDB2" stroke-width="0.5"/>
<path fill-rule="evenodd" clip-rule="evenodd" d="M28.5325 16.255C28.1943 17.0944 27.2396 17.5008 26.4002 17.1627C25.5607 16.8245 25.1543 15.8698 25.4924 15.0304C25.8307 14.1909 26.7853 13.7845 27.6248 14.1227C28.4643 14.4608 28.8706 15.4154 28.5325 16.255Z" fill="#2FBCB2"/>
<path fill-rule="evenodd" clip-rule="evenodd" d="M28.5325 16.255C28.1943 17.0944 27.2396 17.5008 26.4002 17.1627C25.5607 16.8245 25.1543 15.8698 25.4924 15.0304C25.8307 14.1909 26.7853 13.7845 27.6248 14.1227C28.4643 14.4608 28.8706 15.4154 28.5325 16.255Z" stroke="#36BDB2" stroke-width="0.5"/>
<path fill-rule="evenodd" clip-rule="evenodd" d="M34.2591 21.0572C33.921 21.8966 32.9663 22.303 32.1269 21.9649C31.2873 21.6268 30.881 20.672 31.2191 19.8326C31.5573 18.9931 32.5121 18.5867 33.3515 18.925C34.191 19.263 34.5973 20.2177 34.2591 21.0572Z" fill="#2FBCB2"/>
<path fill-rule="evenodd" clip-rule="evenodd" d="M34.2591 21.0572C33.921 21.8966 32.9663 22.303 32.1269 21.9649C31.2873 21.6268 30.881 20.672 31.2191 19.8326C31.5573 18.9931 32.5121 18.5867 33.3515 18.925C34.191 19.263 34.5973 20.2177 34.2591 21.0572Z" stroke="#36BDB2" stroke-width="0.5"/>
<path fill-rule="evenodd" clip-rule="evenodd" d="M37.9022 15.5037C37.564 16.3431 36.6093 16.7495 35.7699 16.4113C34.9304 16.0732 34.524 15.1185 34.8621 14.2791C35.2003 13.4395 36.1549 13.0331 36.9945 13.3714C37.834 13.7094 38.2403 14.6641 37.9022 15.5037Z" fill="#2FBCB2"/>
<path fill-rule="evenodd" clip-rule="evenodd" d="M37.9022 15.5037C37.564 16.3431 36.6093 16.7495 35.7699 16.4113C34.9304 16.0732 34.524 15.1185 34.8621 14.2791C35.2003 13.4395 36.1549 13.0331 36.9945 13.3714C37.834 13.7094 38.2403 14.6641 37.9022 15.5037Z" stroke="#36BDB2" stroke-width="0.5"/>
</svg>
