<svg xmlns="http://www.w3.org/2000/svg" viewBox="0 0 96 96"><title>Asset 1</title><g id="Layer_2" data-name="Layer 2"><g id="Layer_1-2" data-name="Layer 1"><circle cx="48" cy="48" r="48" style="fill:#0e0e21"/><path d="M74.79,59.15l-5.71-9.68a.73.73,0,0,0-1-.25l-3.72,2.42a.75.75,0,0,0-.24,1l3.27,5.53a.38.38,0,0,1-.12.51l-19,12.37a.36.36,0,0,1-.4,0l-19-12.37a.38.38,0,0,1-.12-.51l3.26-5.53a.76.76,0,0,0-.23-1L28,49.22a.74.74,0,0,0-1,.25l-5.71,9.68a1.5,1.5,0,0,0,.47,2L47.21,77.76a1.44,1.44,0,0,0,1.59,0L74.33,61.17A1.51,1.51,0,0,0,74.79,59.15Z" style="fill:#fff"/><path d="M30.93,44.07l3.72,2.42a.73.73,0,0,0,1-.25l12-20.36a.37.37,0,0,1,.63,0l12,20.36a.74.74,0,0,0,1,.25l3.72-2.42a.75.75,0,0,0,.23-1L51,18.73A1.44,1.44,0,0,0,49.69,18H46.31a1.46,1.46,0,0,0-1.27.73L30.69,43.06A.75.75,0,0,0,30.93,44.07Z" style="fill:#2ae7a8"/></g></g></svg>