<svg width="90" height="70" xmlns="http://www.w3.org/2000/svg" viewBox="0 0 36 40" style="margin-right: 14px;"><path d="M35.86,27.44,32.05,21a.48.48,0,0,0-.68-.16l-2.48,1.61a.51.51,0,0,0-.16.67l2.18,3.69a.26.26,0,0,1-.08.34l-12.7,8.25a.24.24,0,0,1-.26,0L5.17,27.13a.27.27,0,0,1-.08-.34L7.27,23.1a.51.51,0,0,0-.16-.67L4.63,20.82A.48.48,0,0,0,4,21L.14,27.44a1,1,0,0,0,.31,1.34l17,11.06a1,1,0,0,0,1.06,0l17-11.06A1,1,0,0,0,35.86,27.44Z" style="fill:#fff"></path><path d="M6.62,17.38,9.1,19a.48.48,0,0,0,.68-.16l8-13.58a.24.24,0,0,1,.42,0l8,13.58a.48.48,0,0,0,.68.16l2.48-1.61a.51.51,0,0,0,.16-.67L20,.48A1,1,0,0,0,19.13,0H16.87A1,1,0,0,0,16,.48L6.46,16.71A.51.51,0,0,0,6.62,17.38Z" style="fill:#2ae7a8"></path></svg>