<svg width="154" height="154" viewBox="0 0 154 154" fill="none" xmlns="http://www.w3.org/2000/svg">
<circle cx="77.0005" cy="76.9995" r="76.9995" fill="url(#paint0_linear_204_349)"/>
<circle cx="77.0005" cy="76.9995" r="76.9995" fill="url(#paint1_linear_204_349)"/>
<path fill-rule="evenodd" clip-rule="evenodd" d="M76.9995 153.999C119.525 153.999 153.999 119.525 153.999 76.9995C153.999 34.4739 119.525 0 76.9995 0C34.4739 0 0 34.4739 0 76.9995C0 119.525 34.4739 153.999 76.9995 153.999ZM76.9994 148.132C114.867 148.132 145.566 117.434 145.566 79.5663C145.566 41.6982 114.867 11 76.9994 11C39.1313 11 8.43316 41.6982 8.43316 79.5663C8.43316 117.434 39.1313 148.132 76.9994 148.132Z" fill="#004DB2"/>
<path opacity="0.2" fill-rule="evenodd" clip-rule="evenodd" d="M107.863 6.43523C100.559 3.23589 92.6631 1.13736 84.3849 0.349487L0.348633 84.3858C1.13651 92.664 3.23504 100.56 6.43437 107.864L107.863 6.43523ZM29.0646 137.263C21.0173 130.854 14.2827 122.866 9.32906 113.769L113.768 9.32991C122.866 14.2835 130.853 21.0181 137.262 29.0654L29.0646 137.263ZM62.2924 152.596C59.2892 152.015 56.3481 151.26 53.4803 150.341L150.34 53.4812C151.259 56.349 152.014 59.2901 152.595 62.2933L62.2924 152.596Z" fill="#EAFDFF"/>
<path fill-rule="evenodd" clip-rule="evenodd" d="M116.751 80.1072C118.918 81.9201 120.534 84.8409 120.851 88.8151C122.404 95.3941 118.713 104.343 112.702 106.337C110.753 107.482 108.505 108.063 106.25 107.815C103.557 110.679 100.589 113.042 97.4394 114.923C106.596 118.082 118.743 124.021 120.472 133.056C122.476 134.623 123.673 136.218 124.338 137.732C111.279 147.926 94.8483 153.999 76.9988 153.999C61.7484 153.999 47.5335 149.566 35.5728 141.917C37.8458 140.69 40.4688 139.837 43.3092 139.375L44.5163 136.798C41.2189 133.811 43.7504 128.336 48.1499 128.92C48.2281 128.748 48.3046 128.575 48.3797 128.402C40.3274 128.092 30.9209 124.324 22.481 120.661C19.8664 119.527 17.375 119.225 15.3316 118.978C14.023 118.819 12.8981 118.683 12.0422 118.364C11.4325 117.409 10.8432 116.439 10.2751 115.455C10.4931 114.119 11.7966 113.155 13.41 112.621C12.651 112.085 11.2424 111.278 8.64663 110.217C8.10969 109.998 7.62094 109.761 7.17969 109.512C6.2679 107.557 5.43577 105.558 4.6875 103.518C5.57961 102.334 7.37226 101.406 9.99851 101.083C20.3503 99.8102 29.9037 103.639 38.5412 107.1C43.0639 108.912 47.3355 110.624 51.3391 111.45C40.2321 102.411 33.8829 87.7987 36.7944 72.9663C41.2745 50.1431 66.5436 34.2295 90.1029 42.5915C102.895 47.1307 116.156 60.6268 116.751 80.1072Z" fill="#004DB2"/>
<path d="M22.7579 63.4378L24.3417 64.0161L24.7094 62.4506L26.6509 62.9075L26.224 64.7192L27.9433 65.3561L27.4571 67.4248L25.7379 66.7879L25.4372 68.058L27.1564 68.6949L26.6678 70.7629L24.9485 70.126L24.5807 71.6916L22.6393 71.2348L23.0661 69.423L21.4817 68.8472L21.1139 70.4128L19.1756 69.954L19.6017 68.1449L17.8825 67.5079L18.3712 65.4399L20.0904 66.0769L20.3886 64.806L18.6693 64.1691L19.1555 62.1004L20.8754 62.7348L21.245 61.1725L23.184 61.6287L22.7579 63.4378ZM22.271 65.5091L21.9728 66.7799L23.5566 67.3582L23.8548 66.0874L22.271 65.5091ZM32.5591 54.2405L28.7429 52.3687L30.8861 55.6932L30.2772 56.9333L26.4645 57.2882L30.1253 59.1149L28.8497 61.6686L20.5178 57.5151L21.6692 55.2088L27.4546 54.7107L24.3378 49.8603L25.4866 47.5532L33.8253 51.6816L32.5591 54.2405ZM34.4301 39.4578L38.2924 46.4615C38.7855 47.3569 39.0015 48.1443 38.9405 48.8236C38.7892 50.4482 37.2421 51.8758 36.1689 52.1021L35.2013 50.0288C35.835 49.8772 36.5282 49.3092 36.4143 48.6859L28.7764 46.4092L30.7214 44.0194L34.6955 45.3123L32.6414 41.6713L34.4301 39.4578ZM42.1446 41.7011C41.2928 41.8949 40.4036 41.8443 39.5793 41.5552C38.755 41.2662 38.0289 40.7503 37.4847 40.0669C34.148 36.0814 38.6497 30.8438 42.7262 31.7616L42.3445 34.3889C41.4351 34.2002 40.6824 34.3554 40.0865 34.8544C39.1095 35.6695 38.9676 36.9127 39.908 38.0348C40.8485 39.1568 42.0943 39.2399 43.0726 38.4197C43.6686 37.9207 43.9535 37.207 43.9274 36.2786L46.5813 36.3647C46.6131 37.1197 46.4556 37.8706 46.123 38.5492C45.7238 39.3265 45.1638 40.01 44.48 40.5541C43.7962 41.0981 43.0043 41.4903 42.1572 41.7046L42.1446 41.7011ZM49.5161 28.0491L50.865 30.3401C49.6123 30.8474 49.034 31.5793 49.7333 32.7626L51.3698 35.5459L48.7902 37.0703L45.0917 30.8035L47.5532 29.3551L47.9501 30.0313C48.1127 29.2373 48.6389 28.5778 49.5286 28.0525L49.5161 28.0491ZM59.4616 23.9808L59.4003 31.9745C59.3935 32.9967 59.1964 33.7885 58.8088 34.3498C57.8825 35.6926 55.834 36.1828 54.7885 35.8515L54.9597 33.5697C55.5864 33.7408 56.4603 33.6007 56.6746 32.9939L51.1303 27.2673L53.9977 26.1351L56.8235 29.2078L56.8158 25.0247L59.4616 23.9808ZM69.4029 28.9656C68.4602 29.7739 66.8179 30.1532 65.8284 29.4883L66.4124 32.5009L63.466 33.0706L61.5955 23.4057L64.3996 22.8621L64.5098 23.4492C64.8429 22.8893 65.4493 22.5238 66.3289 22.3528C70.179 21.6133 71.9341 26.806 69.4155 28.9691L69.4029 28.9656ZM67.3779 27.0608C67.5546 26.725 67.6002 26.3355 67.5058 25.968C67.4543 25.5894 67.2661 25.2427 66.9767 24.9933C66.2359 24.4179 64.8912 24.9055 65.1823 26.4156C65.2308 26.7925 65.4181 27.1378 65.7077 27.3839C65.8359 27.4819 65.9834 27.5518 66.1405 27.5891C66.2976 27.6264 66.4608 27.6302 66.6194 27.6003C66.7781 27.5704 66.9287 27.5074 67.0614 27.4155C67.1941 27.3236 67.306 27.2047 67.3898 27.0667L67.3779 27.0608ZM77.9192 28.5585C77.3544 28.8589 76.7221 29.0094 76.0826 28.9957C74.0612 29.0498 72.8811 28.1219 72.8289 26.1335L72.7763 24.2747L71.7814 24.3034L71.7202 22.1096L72.717 22.0842L72.6606 20.0513L75.658 19.9688L75.7125 21.9985L77.2001 21.9583L77.2647 24.1394L75.7771 24.1796L75.8182 26.0109C75.8291 26.4168 76.0577 26.7091 76.4611 26.6975C76.7015 26.6953 76.9355 26.6194 77.1316 26.4802L77.9192 28.5585ZM80.6411 28.6631C80.0629 28.2913 79.6037 27.7611 79.3185 27.1357C79.0332 26.5102 78.9337 25.8159 79.0319 25.1355C79.1112 24.4535 79.3857 23.8088 79.8225 23.2789C80.2593 22.749 80.8397 22.3565 81.4941 22.1485C82.2156 21.9238 82.9775 21.8595 83.7264 21.9602C84.4754 22.0609 85.1933 22.3241 85.8298 22.7314C86.4066 23.1022 86.8639 23.6318 87.1468 24.2565C87.4298 24.8811 87.5262 25.5742 87.4245 26.2523C87.3485 26.9333 87.0779 27.578 86.6452 28.1093C86.2124 28.6406 85.6358 29.0359 84.9842 29.2481C84.2644 29.4781 83.5025 29.5455 82.7535 29.4454C82.0045 29.3453 81.2871 29.0801 80.653 28.6691L80.6411 28.6631ZM83.923 26.8544C84.1959 26.5884 84.3625 26.2319 84.3913 25.8518C84.4637 25.4784 84.3949 25.0915 84.1981 24.766C83.6784 24.0048 82.2389 24.0176 82.0501 25.5319C81.8612 27.0462 83.2299 27.4712 83.9383 26.8478L83.923 26.8544ZM105.303 26.6182L99.1147 34.1728L95.9907 32.9362L96.4213 27.7612L93.1226 31.8018L89.9984 30.5652L90.6811 20.8101L93.6829 21.9999L93.2469 27.5114L96.7857 23.2253L99.4705 24.288L99.0091 29.863L102.57 25.5152L105.303 26.6182ZM106.685 30.3948L109.179 32.0679L105.132 38.1058L102.638 36.4326L106.685 30.3948ZM109.959 28.208C112.044 29.6046 110.197 32.0454 108.258 30.7456C106.267 29.3908 107.962 26.8544 109.975 28.2014L109.959 28.208ZM116.433 39.04C116.475 39.8051 116.13 40.5915 115.397 41.3994L112.61 44.4682L110.388 42.4502L112.825 39.7645C113.386 39.1495 113.446 38.6422 113.005 38.2424C112.895 38.1353 112.763 38.0539 112.617 38.004C112.472 37.954 112.317 37.9368 112.165 37.9535C111.775 38.0325 111.428 38.2499 111.186 38.5654L108.893 41.0928L106.669 39.0742L111.553 33.6948L113.666 35.6237L113.183 36.1545C113.588 36.1409 113.992 36.209 114.37 36.3545C114.749 36.5001 115.094 36.7201 115.386 37.0017C115.69 37.2515 115.942 37.5602 116.124 37.9093C116.307 38.2584 116.417 38.6407 116.449 39.0334L116.433 39.04ZM117.242 49.8701C116.664 49.5976 116.165 49.1822 115.792 48.663C114.532 47.0777 114.575 45.5724 116.122 44.3423L117.577 43.1842L116.957 42.4038L118.681 41.0408L119.301 41.8212L120.891 40.554L122.762 42.9037L121.169 44.1702L122.098 45.335L120.374 46.698L119.448 45.5338L118.014 46.6759C117.937 46.7212 117.87 46.7828 117.819 46.8562C117.768 46.9296 117.734 47.0133 117.718 47.1013C117.703 47.1894 117.707 47.2797 117.729 47.3662C117.752 47.4526 117.793 47.5331 117.85 47.6021C117.997 47.7937 118.199 47.9357 118.429 48.0089L117.242 49.8701ZM124.044 56.0534L121.527 51.6779C121.346 51.8958 121.247 52.1697 121.245 52.4528C121.295 53.0506 121.574 53.6062 122.023 54.0038C122.235 54.1728 122.471 54.3108 122.722 54.4137L122.136 56.5606C121.116 56.3362 120.25 55.613 119.537 54.3909C117.02 50.0097 121.421 46.8243 124.466 48.8074C125.053 49.2086 125.545 49.7343 125.906 50.347C126.267 50.9596 126.488 51.6442 126.555 52.3522C126.652 53.6796 126.044 54.9362 124.665 55.7282C124.651 55.7488 124.441 55.8563 124.065 56.0457L124.044 56.0534ZM122.756 50.9099L123.921 52.9369C124.142 52.7643 124.292 52.5152 124.34 52.2383C124.388 51.9614 124.331 51.6765 124.181 51.4392C124.056 51.1872 123.841 50.9915 123.579 50.8913C123.316 50.791 123.026 50.7937 122.765 50.8987L122.756 50.9099ZM130.787 61.0715L128.311 62.0184C128.012 60.6956 127.382 60.0124 126.103 60.5072L123.083 61.6652L122.002 58.866L128.782 56.2488L129.81 58.9145L129.079 59.1963C129.855 59.475 130.432 60.0975 130.808 61.0638L130.787 61.0715ZM128.719 76.2412L126.309 76.549L125.352 69.1538L127.263 68.9099L130.788 71.8514C131.194 72.1867 131.627 72.4808 132.146 72.4141C132.558 72.3615 132.837 72.0618 132.756 71.4259C132.72 71.1417 132.604 70.8737 132.422 70.6529C132.239 70.4321 131.998 70.2678 131.725 70.1791L132.596 67.6826C133.301 67.9486 133.912 68.4143 134.356 69.0229C135.234 70.1955 135.497 72.0847 135.137 73.3846C134.82 74.5474 134.002 75.352 132.836 75.5017C131.559 75.6642 130.679 75.1427 129.696 74.2957L128.326 73.1321L128.719 76.2412ZM126.64 79.6359C127.605 78.2306 129.317 77.7541 131.028 77.8585C133.221 77.9783 134.565 78.9401 135.193 80.115C135.537 80.8002 135.696 81.5635 135.654 82.329C135.612 83.0946 135.371 83.8359 134.954 84.4795C133.988 85.8873 132.277 86.3613 130.569 86.2576C128.861 86.1538 127.207 85.5051 126.401 84.0004C126.058 83.3125 125.902 82.5468 125.946 81.7796C125.991 81.0123 126.236 80.2702 126.656 79.6267L126.64 79.6359ZM130.74 83.1131C132.307 83.1999 133.112 82.8906 133.157 82.1852C133.202 81.4799 132.438 81.0831 130.867 80.9949C129.302 80.9086 128.496 81.2179 128.45 81.9229C128.404 82.6278 129.172 83.0214 130.756 83.1039L130.74 83.1131ZM126.358 94.8388L123.992 94.2741L125.725 87.0232L127.598 87.4723L129.843 91.4629C130.101 91.9172 130.412 92.3511 130.92 92.4733C131.32 92.5826 131.692 92.3868 131.841 91.7647C131.908 91.4859 131.895 91.1937 131.802 90.9222C131.709 90.6508 131.542 90.4114 131.318 90.2319L133.02 88.2083C133.584 88.707 133.99 89.3592 134.189 90.0853C134.593 91.4908 134.171 93.3526 133.374 94.4387C132.661 95.4069 131.629 95.8797 130.473 95.6049C129.22 95.3033 128.583 94.5049 127.961 93.3643L127.095 91.7919L126.358 94.8388ZM130.555 102.859L121.917 99.4195L123.079 96.5077L129.52 99.0769L130.114 97.5947L132.311 98.4646L130.555 102.859Z" fill="white"/>
<path fill-rule="evenodd" clip-rule="evenodd" d="M153.999 76.9998C153.999 119.525 119.525 153.999 76.9995 153.999C75.6706 153.999 74.3495 153.966 73.0371 153.899C71.6056 153.827 70.1844 153.715 68.7746 153.565C55.8065 152.189 43.7996 147.593 33.5681 140.592C33.5686 140.592 33.5691 140.592 33.5696 140.591C21.1139 132.068 11.2897 119.981 5.56653 105.799C5.56486 105.798 5.5632 105.796 5.56154 105.794C5.05759 104.545 4.58545 103.28 4.14612 102C4.14661 101.998 4.1471 101.996 4.14758 101.995C1.45923 94.1573 0 85.749 0 76.9998C0 34.4741 34.4739 0.000244141 76.9995 0.000244141C119.525 0.000244141 153.999 34.4741 153.999 76.9998ZM11.8201 98.3427C9.62191 91.6255 8.43316 84.4513 8.43316 76.9995C8.43316 39.1314 39.1313 8.43327 76.9994 8.43327C114.867 8.43327 145.566 39.1314 145.566 76.9995C145.566 98.4067 135.755 117.523 120.385 130.096C118.222 120.564 104.451 114.543 95.2958 111.649C83.5939 116.416 67.0409 116.463 52.7941 109.146C48.3739 108.475 43.6133 106.568 38.5363 104.533C30.4092 101.276 21.4711 97.6946 11.8201 98.3427ZM21.9426 117.873C27.6594 125.561 34.9484 132.011 43.3337 136.746L44.5114 134.232C41.2141 131.245 43.7455 125.769 48.1451 126.353C48.2232 126.181 48.2998 126.009 48.3748 125.836C40.3225 125.525 30.916 121.757 22.4762 118.094C22.2977 118.017 22.1198 117.943 21.9426 117.873Z" fill="url(#paint2_linear_204_349)"/>
<path fill-rule="evenodd" clip-rule="evenodd" d="M49.8845 139.996C49.0003 139.615 48.1257 139.216 47.2612 138.799C45.649 137.333 46.8831 134.61 47.2333 133.837C47.2682 133.761 47.2943 133.703 47.3079 133.668C47.7183 132.617 48.0827 131.665 48.4118 130.805C51.341 123.153 51.4776 122.796 56.3231 124.63L68.3942 129.199C70.8376 130.762 69.956 132.968 67.7693 138.442C67.2833 139.659 66.7329 141.037 66.1401 142.605C65.8348 143.405 65.2332 144.055 64.4615 144.422C61.4371 143.863 58.4823 143.106 55.6111 142.164L49.8845 139.996ZM70.1768 145.231C68.9594 145.11 67.7512 144.958 66.5533 144.775C67.3241 143.944 67.711 142.873 68.1691 141.605C68.2754 141.311 68.3856 141.006 68.5053 140.691C68.4011 142.511 68.8883 143.877 70.5733 144.579C70.5213 144.559 70.4631 144.676 70.3703 144.863C70.3184 144.968 70.2555 145.094 70.1768 145.231ZM72.6981 145.433C72.4256 145.416 72.1536 145.398 71.882 145.378C71.9198 145.307 71.9572 145.235 71.9942 145.161C72.2284 145.253 72.463 145.344 72.6981 145.433ZM92.5704 143.79C88.4085 144.756 84.1012 145.344 79.6869 145.514C75.7753 144.636 72.2708 143.321 71.2573 142.79C69.2398 141.928 70.9892 137.344 73.0772 137.982C75.5749 139.295 83.3484 142.811 90.3108 141.413C90.3338 141.409 90.3726 141.399 90.4244 141.385C91.0789 141.218 93.8039 140.522 92.7733 143.33C92.7143 143.49 92.6465 143.644 92.5704 143.79ZM96.7771 142.67C96.1159 142.869 95.4505 143.058 94.781 143.237C94.8366 142.965 94.8707 142.69 94.8805 142.414L96.7771 142.67ZM104.815 139.688C103.397 140.318 101.954 140.902 100.488 141.436C100.49 140.097 101.618 138.306 104.324 136.317C106.439 134.753 107.316 133.149 108.032 131.841C108.731 130.564 109.276 129.568 110.67 129.166C111.868 128.822 115.345 129.808 118.195 131.814C116.132 133.367 113.979 134.806 111.744 136.122C110.179 135.55 108.652 134.974 110.17 130.99C110.496 130.135 108.927 129.512 108.072 133.189C107.628 135.339 108.416 136.444 109.738 137.259C108.765 137.789 107.778 138.295 106.778 138.779C106.377 138.582 105.908 138.446 105.36 138.392C103.467 138.205 103.885 139.6 104.594 139.661C104.669 139.667 104.743 139.676 104.815 139.688ZM10.1783 100.652C5.37965 101.244 4.84119 103.51 9.41232 105.38C10.2691 105.73 11.2445 106.404 12.2597 107.106C14.1738 108.429 16.2294 109.85 17.8982 109.381C18.6832 109.16 19.7632 110.644 15.2825 111.785C14.5957 111.895 12.2571 112.322 12.4891 113.38C12.7768 113.649 14.0509 113.806 15.5164 113.986C16.2205 114.073 16.9688 114.165 17.673 114.277C20.9754 114.804 23.1098 115.727 26.1115 117.024C28.4259 118.024 31.256 119.247 35.5347 120.683C37.3469 116.7 37.9987 111.097 38.024 106.702L37.4925 106.49C28.641 102.951 19.8988 99.4552 10.1783 100.652ZM37.3714 121.274C39.166 117.216 39.85 111.868 39.9381 107.464C48.7221 110.943 52.5498 112.327 55.3662 112.199C68.3942 120.266 82.316 118.249 94.7826 113.849C98.3252 114.875 100.766 115.75 104.92 117.57C99.1245 119.89 98.0277 126.647 98.8602 132.829C96.1917 131.679 93.3026 131.249 90.3629 131.326C88.8678 131.365 88.8747 133.634 90.4219 133.624C90.7727 133.617 91.1153 133.617 91.4498 133.624C91.4866 135.489 91.4276 137.355 91.2729 139.215C91.1956 139.229 91.0823 139.258 90.9332 139.296C89.3954 139.69 84.0495 141.058 75.1445 136.851L75.1455 136.848C75.2058 136.725 77.917 131.187 72.839 129.246C69.0711 127.804 66.0587 126.632 63.6302 125.687C53.9182 121.907 53.5449 121.762 51.5413 122.589C52.7783 118.517 52.838 118.053 52.2421 117.864C51.7134 117.692 51.6373 117.873 50.6624 120.191C50.3267 120.989 49.8843 122.041 49.2802 123.419C45.3433 123.419 41.1031 122.427 37.3714 121.274ZM100.983 133.932C101.388 134.182 101.772 134.442 102.136 134.713C103.668 133.631 104.7 132.108 105.679 130.663C107.957 127.301 109.953 124.355 117.298 128.331C115.293 123.712 111.155 120.73 107.532 118.823C100.735 119.991 99.7166 127.216 100.983 133.932ZM97.9281 141.282L94.5419 140.823C94.3031 140.368 93.9538 139.981 93.5263 139.697C93.619 138.833 93.7844 136.314 93.743 133.799C96.5096 134.17 98.6749 135.092 100.36 136.227C98.8473 137.782 97.9764 139.569 97.9281 141.282ZM71.3541 130.314C72.5283 130.715 75.8616 131.855 73.7566 136.19C72.178 135.639 70.6017 136.519 69.6534 137.651C69.8888 137.029 70.1077 136.473 70.3061 135.969L70.3068 135.967L70.3069 135.967C71.3663 133.277 71.8417 132.069 71.1264 130.234C71.1874 130.257 71.2645 130.283 71.3541 130.314Z" fill="white"/>
<path fill-rule="evenodd" clip-rule="evenodd" d="M105.8 5.56672C98.272 2.52856 90.1534 0.64599 81.6642 0.138794L73.27 8.53301C74.505 8.4668 75.7487 8.43327 77.0002 8.43327C84.7864 8.43327 92.2694 9.73109 99.2448 12.1222L105.8 5.56672ZM13.0854 98.2816C12.6653 98.2942 12.2438 98.3145 11.821 98.343C9.62273 91.6257 8.43395 84.4514 8.43395 76.9995C8.43395 75.748 8.46748 74.5043 8.53369 73.2693L0.139648 81.6634C0.562634 88.7435 1.94226 95.566 4.15111 102.003C4.58974 103.281 5.06106 104.544 5.56408 105.791L5.56437 105.792C5.56544 105.794 5.56651 105.797 5.56758 105.799L13.0854 98.2816ZM8.31934 111.848L21.2319 98.9351C27.3432 100.045 33.123 102.361 38.5422 104.533L38.5423 104.533C43.6193 106.568 48.3799 108.475 52.8001 109.146C53.1212 109.311 53.4435 109.472 53.7669 109.629L39.1149 124.281C33.5765 122.783 27.8349 120.417 22.4821 118.094C22.3012 118.016 22.1208 117.941 21.9412 117.87C25.2722 122.35 29.137 126.41 33.4416 129.955L27.4534 135.943C19.5678 129.307 13.0326 121.118 8.31934 111.848ZM56.3304 151.193C53.5101 150.409 50.7549 149.469 48.0749 148.381L81.6599 114.796C86.5922 114.39 91.2393 113.304 95.3018 111.649C95.4453 111.695 95.59 111.741 95.7358 111.788L56.3304 151.193ZM148.382 48.0741C149.469 50.7542 150.41 53.5093 151.194 56.3296L144.202 63.3215C143.6 60.348 142.806 57.4443 141.832 54.6239L148.382 48.0741ZM111.848 8.31849C121.119 13.0318 129.308 19.567 135.944 27.4527L129.955 33.441C123.384 25.4607 115.043 18.9917 105.533 14.6338L111.848 8.31849Z" fill="url(#paint3_linear_204_349)"/>
<path d="M120.476 86.9529C120.159 82.9787 118.544 80.0579 116.377 78.2451C115.782 58.7646 102.521 45.2686 89.7285 40.7293C66.1693 32.3674 40.9002 48.281 36.4201 71.1041C31.9483 93.8849 48.2306 117.379 71.1355 119.73C83.0353 120.952 96.6476 118.24 107.076 107.253C109.331 107.501 110.378 105.62 112.327 104.475C118.339 102.481 122.029 93.5319 120.476 86.9529Z" fill="url(#paint4_linear_204_349)"/>
<path opacity="0.6" d="M55.7596 72.898C57.2573 77.7731 57.6812 80.0774 59.8165 80.9781C62.449 82.1197 65.9252 78.6172 68.2305 78.4143C71.9553 78.0365 72.9051 84.4246 68.7735 86.8713C54.7885 94.4072 56.8516 95.7783 50.6179 77.2857C49.0613 72.2764 54.3637 68.344 55.7596 72.898ZM51.7608 62.9475C54.7634 61.4258 58.8357 58.7242 60.2099 63.3728C61.625 68.1919 61.865 71.172 65.3193 69.5679C74.9871 65.2188 74.3626 66.1979 77.5458 75.244C79.3848 80.0673 85.7843 75.7404 84.0366 70.6616C78.7175 55.0719 80.8841 55.7575 66.8864 61.3127C64.8876 54.8469 64.8244 50.496 59.7133 52.6637C50.0753 56.9524 50.0621 57.1412 49.1998 57.9425C47.0697 60.0912 47.2514 65.3778 51.7608 62.9475Z" fill="url(#paint5_linear_204_349)"/>
<path d="M100.613 102.396C101.347 103.137 102.196 103.754 103.129 104.222C97.2377 109.975 89.6913 113.749 81.5446 115.014C89.003 112.951 95.7748 108.444 100.613 102.396ZM98.456 99.2516C89.3736 111.36 73.0282 116.558 56.9413 110.044C70.2427 118.544 89.0365 114.131 99.3685 100.875C99.0204 100.36 98.7151 99.8168 98.456 99.2516ZM105.566 91.3244C108.161 97.0769 115.322 95.1218 118.78 90.2614C119.466 79.7039 108.706 78.6858 105.566 91.3282V91.3244ZM67.527 42.0899C90.9047 36.0213 112.046 52.868 113.816 75.8387C112.006 75.2055 110.016 75.1625 108.071 75.7078C105.741 56.3951 87.0084 41.8015 67.527 42.0899ZM103.225 90.8249C101.344 91.3836 100.496 90.4047 100.235 90.1516C101.471 81.403 109.59 74.8483 115.125 79.8835C112.685 79.3467 110.235 80.2426 108.32 81.8261C105.64 84.0438 104.049 87.464 103.225 90.8249ZM51.4756 50.5863C54.0333 48.359 56.8649 46.4655 59.902 44.9513C80.6618 39.9696 103.896 54.9883 106.223 76.4079C105.705 76.6579 105.207 76.9452 104.732 77.2675C102.387 53.9845 73.7119 36.3326 51.4756 50.5863Z" fill="white"/>
<path opacity="0.2" d="M97.2779 95.8804C88.1573 110.145 67.3402 116.825 47.5062 101.401C45.9791 99.8225 37.4465 87.9194 39.4833 73.9978C47.0882 93.4775 75.7077 106.75 97.0727 93.9596C97.1049 94.6033 97.1735 95.2445 97.2779 95.8804Z" fill="#001D42"/>
<g opacity="0.2">
<path d="M96.1762 81.037C93.2062 87.9731 85.321 84.6989 86.8839 78.2682C89.3097 70.2694 98.6657 73.9763 96.1762 81.037Z" fill="#94E2EE"/>
<path d="M90.339 91.771C89.0519 94.3559 85.5749 92.9926 86.7155 90.0478C88.0046 87.4657 91.4796 88.83 90.339 91.771Z" fill="#94E2EE"/>
</g>
<defs>
<linearGradient id="paint0_linear_204_349" x1="36.8507" y1="10.6333" x2="117.15" y2="144.282" gradientUnits="userSpaceOnUse">
<stop stop-color="#289DFD"/>
<stop offset="1" stop-color="#0B3DF3"/>
</linearGradient>
<linearGradient id="paint1_linear_204_349" x1="36.8507" y1="10.6333" x2="117.15" y2="144.282" gradientUnits="userSpaceOnUse">
<stop stop-color="#3086CD"/>
<stop offset="1" stop-color="#2440A4"/>
</linearGradient>
<linearGradient id="paint2_linear_204_349" x1="36.2998" y1="27.8667" x2="70.5465" y2="161.747" gradientUnits="userSpaceOnUse">
<stop stop-color="#C9EEF2"/>
<stop offset="1" stop-color="#1FC5E4"/>
</linearGradient>
<linearGradient id="paint3_linear_204_349" x1="51.215" y1="37.7271" x2="131.916" y2="120.507" gradientUnits="userSpaceOnUse">
<stop stop-color="white" stop-opacity="0.69"/>
<stop offset="1" stop-color="white" stop-opacity="0"/>
</linearGradient>
<linearGradient id="paint4_linear_204_349" x1="48.7892" y1="18.6129" x2="96.4614" y2="114.516" gradientUnits="userSpaceOnUse">
<stop stop-color="#0065EA"/>
<stop offset="1" stop-color="#004DB2"/>
</linearGradient>
<linearGradient id="paint5_linear_204_349" x1="61.8728" y1="91.4172" x2="68.1066" y2="45.3132" gradientUnits="userSpaceOnUse">
<stop stop-color="#0159CC"/>
<stop offset="1" stop-color="white"/>
</linearGradient>
</defs>
</svg>
