<svg width="62" height="60" viewBox="0 0 62 60" fill="none" xmlns="http://www.w3.org/2000/svg">
<path d="M31 38.25V42.3929" stroke="#163050" stroke-width="2.07143" stroke-miterlimit="10" stroke-linecap="round" stroke-linejoin="round"/>
<path d="M15.982 17.0181H12.8749L9.24986 13.3931H7.69629" stroke="#163150" stroke-width="2.07143" stroke-miterlimit="10" stroke-linecap="round" stroke-linejoin="round"/>
<path d="M10.2861 22.7146H15.4647" stroke="#163150" stroke-width="2.07143" stroke-miterlimit="10" stroke-linecap="round" stroke-linejoin="round"/>
<path d="M5.10756 15.4644C6.25158 15.4644 7.17899 14.537 7.17899 13.393C7.17899 12.2489 6.25158 11.3215 5.10756 11.3215C3.96354 11.3215 3.03613 12.2489 3.03613 13.393C3.03613 14.537 3.96354 15.4644 5.10756 15.4644Z" stroke="#163150" stroke-width="2.07143" stroke-miterlimit="10" stroke-linecap="round" stroke-linejoin="round"/>
<path d="M7.17885 24.7859C8.32287 24.7859 9.25028 23.8585 9.25028 22.7145C9.25028 21.5705 8.32287 20.6431 7.17885 20.6431C6.03483 20.6431 5.10742 21.5705 5.10742 22.7145C5.10742 23.8585 6.03483 24.7859 7.17885 24.7859Z" stroke="#163150" stroke-width="2.07143" stroke-miterlimit="10" stroke-linecap="round" stroke-linejoin="round"/>
<path d="M44.9824 16.5002L48.6074 13.3931H53.2681" stroke="#163150" stroke-width="2.07143" stroke-miterlimit="10" stroke-linecap="round" stroke-linejoin="round"/>
<path d="M44.9824 22.7146H50.161" stroke="#163150" stroke-width="2.07143" stroke-miterlimit="10" stroke-linecap="round" stroke-linejoin="round"/>
<path d="M52.7501 24.7859C53.8942 24.7859 54.8216 23.8585 54.8216 22.7145C54.8216 21.5705 53.8942 20.6431 52.7501 20.6431C51.6061 20.6431 50.6787 21.5705 50.6787 22.7145C50.6787 23.8585 51.6061 24.7859 52.7501 24.7859Z" stroke="#163150" stroke-width="2.07143" stroke-miterlimit="10" stroke-linecap="round" stroke-linejoin="round"/>
<path d="M55.8576 15.4644C57.0016 15.4644 57.929 14.537 57.929 13.393C57.929 12.2489 57.0016 11.3215 55.8576 11.3215C54.7135 11.3215 53.7861 12.2489 53.7861 13.393C53.7861 14.537 54.7135 15.4644 55.8576 15.4644Z" stroke="#163150" stroke-width="2.07143" stroke-miterlimit="10" stroke-linecap="round" stroke-linejoin="round"/>
<path d="M45.7591 13.3652V33.7084C45.7591 36.7601 43.2199 39.2857 40.1517 39.2857H21.8486C18.7804 39.2857 16.2412 36.7601 16.2412 33.7084V7.57737C16.2412 4.52561 18.7804 2 21.8486 2H34.227C36.2372 2 38.1416 2.84187 39.5169 4.2099L43.6431 8.41922C45.0184 9.57679 45.7591 11.471 45.7591 13.3652Z" fill="#FFD267"/>
<path d="M37.985 3.27954L44.5774 10.0687C44.7741 10.2655 44.6757 10.659 44.3806 10.659H39.6577C38.477 10.659 37.4931 9.6751 37.4931 8.49438V3.57474C37.3947 3.18117 37.7882 3.08275 37.985 3.27954Z" fill="#163150" stroke="#163150" stroke-width="2.07143" stroke-miterlimit="10" stroke-linecap="round" stroke-linejoin="round"/>
<path d="M45.7591 13.4136V33.7757C45.7591 36.8259 43.2992 39.2857 40.1507 39.2857H21.8496C18.7994 39.2857 16.2412 36.8259 16.2412 33.7757V7.6084C16.2412 4.55822 18.701 2 21.8496 2H34.3455C36.3134 2 38.1828 2.78715 39.6587 4.16465L43.7912 8.29713C45.0703 9.67463 45.7591 11.5441 45.7591 13.4136Z" stroke="#163150" stroke-width="2.07143" stroke-miterlimit="10" stroke-linecap="round" stroke-linejoin="round"/>
<path d="M25.8213 29.964H30.482M25.8213 17.5354H35.1427H25.8213ZM25.8213 23.7497H35.1427H25.8213Z" stroke="#FFAE25" stroke-width="3.10714" stroke-miterlimit="10" stroke-linecap="round" stroke-linejoin="round"/>
<path d="M2 46.5355V39.979C2 38.371 2.93055 36.9081 4.38706 36.2266L7.45675 34.7903C8.41856 34.3402 9.4675 34.1069 10.5294 34.1069H16.5C18.2161 34.1069 19.6071 35.498 19.6071 37.2141V44.0029C19.6071 45.489 18.8111 46.8613 17.521 47.5991L15.6203 48.6862C14.5243 49.313 13.2836 49.6426 12.0209 49.6426H5.10714C3.39112 49.6426 2 48.2516 2 46.5355Z" fill="#05D5FC"/>
<path d="M14.4289 46.5354C14.4289 47.9854 13.0479 48.6068 12.3574 48.6068L14.4289 49.1247L18.2899 46.1216C18.7945 45.7292 19.0896 45.1258 19.0896 44.4866V35.6604L16.0271 37.3618C15.0406 37.9098 14.4289 38.9486 14.4289 40.077V46.5354Z" fill="#0C9FE1"/>
<path d="M2 46.5355V39.979C2 38.371 2.93055 36.9081 4.38706 36.2266L7.45675 34.7903C8.41856 34.3402 9.4675 34.1069 10.5294 34.1069H16.5C18.2161 34.1069 19.6071 35.498 19.6071 37.2141V44.0029C19.6071 45.489 18.8111 46.8613 17.521 47.5991L15.6203 48.6862C14.5243 49.313 13.2836 49.6426 12.0209 49.6426H5.10714C3.39112 49.6426 2 48.2516 2 46.5355Z" stroke="#163050" stroke-width="2.07143" stroke-miterlimit="10" stroke-linecap="round" stroke-linejoin="round"/>
<path d="M59.9997 46.5355V39.979C59.9997 38.371 59.0691 36.9081 57.6127 36.2266L54.543 34.7903C53.5812 34.3402 52.5322 34.1069 51.4703 34.1069H45.4997C43.7836 34.1069 42.3926 35.498 42.3926 37.2141V44.0029C42.3926 45.489 43.1886 46.8613 44.4787 47.5991L46.3795 48.6862C47.4754 49.313 48.7161 49.6426 49.9788 49.6426H56.8926C58.6087 49.6426 59.9997 48.2516 59.9997 46.5355Z" fill="#05D5FC"/>
<path d="M47.5718 46.5354C47.5718 47.9854 48.9528 48.6068 49.6433 48.6068L47.5718 49.1247L43.7108 46.1216C43.2062 45.7292 42.9111 45.1258 42.9111 44.4866V35.6604L45.9736 37.3618C46.9601 37.9098 47.5718 38.9486 47.5718 40.077V46.5354Z" fill="#0C9FE1"/>
<path d="M59.9997 46.5355V39.979C59.9997 38.371 59.0691 36.9081 57.6127 36.2266L54.543 34.7903C53.5812 34.3402 52.5322 34.1069 51.4703 34.1069H45.4997C43.7836 34.1069 42.3926 35.498 42.3926 37.2141V44.0029C42.3926 45.489 43.1886 46.8613 44.4787 47.5991L46.3795 48.6862C47.4754 49.313 48.7161 49.6426 49.9788 49.6426H56.8926C58.6087 49.6426 59.9997 48.2516 59.9997 46.5355Z" stroke="#163050" stroke-width="2.07143" stroke-miterlimit="10" stroke-linecap="round" stroke-linejoin="round"/>
<path d="M17.5361 42.3931L23.7504 50.1609" stroke="#163050" stroke-width="2.07143" stroke-miterlimit="10" stroke-linecap="round" stroke-linejoin="round"/>
<path d="M45.5004 42.3931L39.2861 50.1609" stroke="#163050" stroke-width="2.07143" stroke-miterlimit="10" stroke-linecap="round" stroke-linejoin="round"/>
<path d="M22.7139 54.8216V46.8729C22.7139 46.2574 22.8967 45.6557 23.2392 45.1442L23.543 44.6905C24.5042 43.2548 26.1183 42.3931 27.846 42.3931H34.1531C35.8809 42.3931 37.495 43.2548 38.4562 44.6905L38.76 45.1442C39.1025 45.6557 39.2853 46.2574 39.2853 46.8729V54.8216C39.2853 56.5376 37.8942 57.9288 36.1782 57.9288H25.821C24.1049 57.9288 22.7139 56.5376 22.7139 54.8216Z" fill="#05D5FC"/>
<path d="M22.7139 54.8216V46.8729C22.7139 46.2574 22.8967 45.6557 23.2392 45.1442L23.8507 44.231C24.6197 43.0824 25.9108 42.3931 27.2931 42.3931H34.7061C36.0884 42.3931 37.3795 43.0824 38.1485 44.231L38.76 45.1442C39.1025 45.6557 39.2853 46.2574 39.2853 46.8729V54.8216C39.2853 56.5376 37.8942 57.9288 36.1782 57.9288H25.821C24.1049 57.9288 22.7139 56.5376 22.7139 54.8216Z" stroke="#163050" stroke-width="2.07143" stroke-miterlimit="10" stroke-linecap="round" stroke-linejoin="round"/>
</svg>
