<svg width="60" height="60" viewBox="0 0 60 60" fill="none" xmlns="http://www.w3.org/2000/svg">
<path d="M37.1289 51.4632V55H22.5439V51.4632C24.3358 51.4632 23.8358 49.5046 24.4192 45.9209H35.2537C35.8371 49.7547 35.337 51.4632 37.1289 51.4632Z" fill="#D8D8D8" stroke="#163050" stroke-width="2" stroke-miterlimit="10" stroke-linecap="round" stroke-linejoin="round"/>
<path d="M56.7143 11.8338V43.2956C56.7143 45.4208 55.0058 47.1293 52.8805 47.1293H6.83376C4.70853 47.1293 3 45.4208 3 43.2956V11.8338C3 9.70853 4.70853 8 6.83376 8H52.8805C55.0058 8 56.7143 9.70853 56.7143 11.8338Z" fill="#05D5FC" stroke="#163050" stroke-width="2" stroke-miterlimit="10" stroke-linecap="round" stroke-linejoin="round"/>
<path d="M9.44912 32.2L14.0491 41.2C15.4491 43.8 19.0491 44.1 20.8491 41.7L28.6491 31L32.8491 34.4C34.4491 35.7 36.7491 35.2 37.7491 33.4L43.9491 21.6L50.4491 24.5L46.0491 11L32.2491 15.1L38.0491 18.7L34.0491 23.2C33.0491 24.3 31.3491 24.4 30.3491 23.4L28.1491 21.4C26.7491 20.1 24.6491 19.8 22.8491 20.7L11.2491 26.8C9.14914 27.8 8.44912 30.2 9.44912 32.2Z" fill="white"/>
<path opacity="0.6" d="M34.4492 29.0001L25.4492 26.0001L10.4492 34.0001L14.0492 41.2001C15.3492 43.8001 19.0492 44.1001 20.8492 41.7001L28.6492 31.0001L32.8492 34.4001C34.4492 35.7001 36.7492 35.2001 37.7492 33.4001L43.9492 21.6001L34.4492 29.0001Z" fill="#E3EDFF"/>
<path d="M9.44912 32.2L14.0491 41.2C15.4491 43.8 19.0491 44.1 20.8491 41.7L28.6491 31L32.8491 34.4C34.4491 35.7 36.7491 35.2 37.7491 33.4L43.9491 21.6L50.4491 24.5L46.0491 11L32.2491 15.1L38.0491 18.7L34.0491 23.2C33.0491 24.3 31.3491 24.4 30.3491 23.4L28.1491 21.4C26.7491 20.1 24.6491 19.8 22.8491 20.7L11.2491 26.8C9.14914 27.8 8.44912 30.2 9.44912 32.2Z" stroke="#163150" stroke-width="2" stroke-miterlimit="10" stroke-linecap="round" stroke-linejoin="round"/>
<path d="M56.7143 40.9204V43.3374C56.7143 45.4626 55.0058 47.1711 52.8805 47.1711H6.83376C4.70853 47.1711 3 45.4626 3 43.3374V40.9204H56.7143Z" fill="#D8D8D8" stroke="#163050" stroke-width="2" stroke-miterlimit="10" stroke-linecap="round" stroke-linejoin="round"/>
<path d="M23.1426 51.6431H36.5712" stroke="#163050" stroke-width="2" stroke-miterlimit="10" stroke-linecap="round" stroke-linejoin="round"/>
<path opacity="0.4" d="M45 4H24M18 4H20H18Z" stroke="#B5BFC7" stroke-width="2" stroke-miterlimit="10" stroke-linecap="round" stroke-linejoin="round"/>
<path opacity="0.4" d="M18 51H13" stroke="#B5BFC7" stroke-width="2" stroke-miterlimit="10" stroke-linecap="round" stroke-linejoin="round"/>
<path d="M33.2331 48.4018C28.8637 45.7883 27.4722 40.1347 30.0589 35.8124C30.3002 35.3889 30.6152 34.9451 30.9238 34.6223C33.7737 31.26 38.7227 30.3398 42.6954 32.665C46.5943 35.0105 48.1525 39.8242 46.4991 43.9304C46.305 44.3807 46.1108 44.831 45.8696 45.2544C43.2358 49.55 37.6293 50.9682 33.2331 48.4018Z" fill="#E3EDFF" stroke="#163150" stroke-width="2" stroke-miterlimit="10" stroke-linecap="round" stroke-linejoin="round"/>
<path opacity="0.2" d="M33.2331 48.4018C28.8636 45.7883 27.4722 40.1348 30.0589 35.8124C30.3001 35.3889 30.6152 34.9452 30.9237 34.6224C34.1394 33.4627 37.7869 33.733 40.9127 35.5758C44.0856 37.4454 45.9773 40.5795 46.4991 43.9304C46.3049 44.3807 46.1108 44.831 45.8695 45.2545C43.2358 49.5501 37.6293 50.9683 33.2331 48.4018Z" fill="#003C77"/>
<path d="M53.1019 50.1357L34.1494 50.2952L34.1868 54.7297L53.1392 54.5701L53.1019 50.1357Z" fill="#E3EDFF"/>
<path d="M55.2356 46.3164L36.2832 46.4759L36.3205 50.9104L55.2729 50.7508L55.2356 46.3164Z" fill="#FFD166"/>
<path d="M50.3245 41.9229L31.3721 42.0824L31.4094 46.5168L50.3618 46.3573L50.3245 41.9229Z" fill="#FFD166"/>
<path opacity="0.2" d="M43.8964 50.2129L34.1494 50.295L34.1868 54.7295L43.9337 54.6474L43.8964 50.2129Z" fill="#003C77"/>
<path d="M46.0301 46.394L36.2832 46.476L36.3205 50.9105L46.0674 50.8284L46.0301 46.394Z" fill="#FFAA00"/>
<path d="M41.119 42.0005L31.3721 42.0825L31.4094 46.517L41.1564 46.4349L41.119 42.0005Z" fill="#FFAA00"/>
<path d="M52.8705 54.889L33.918 55.0486L33.8807 50.6141L52.8331 50.4546L52.8705 54.889ZM54.9618 46.0019L36.0094 46.1614L36.0467 50.5958L54.9991 50.4363L54.9618 46.0019ZM50.051 41.6084L31.0986 41.7679L31.1359 46.2024L50.0883 46.0429L50.051 41.6084Z" stroke="#163150" stroke-width="2" stroke-miterlimit="10" stroke-linecap="round" stroke-linejoin="round"/>
<path d="M26.0877 51.1062C28.8977 55.4862 34.7263 56.7589 39.1062 53.949C43.4862 51.139 44.7589 45.3104 41.9489 40.9304C39.1389 36.5505 33.3103 35.2777 28.9304 38.0877C24.5504 40.8977 23.2777 46.7263 26.0877 51.1062Z" fill="url(#paint0_radial)" stroke="#163150" stroke-width="2" stroke-miterlimit="10" stroke-linecap="round" stroke-linejoin="round"/>
<path d="M31.9801 40.6351C36.5173 38.8823 41.0556 43.0479 39.8019 47.7125L34.3014 46.1587L36.9744 51.328C33.8948 53.0463 29.9234 51.6696 28.586 48.2813C27.4077 45.2413 28.9401 41.8134 31.9801 40.6351Z" fill="#FFC835" stroke="#FFAE25" stroke-width="2" stroke-miterlimit="10" stroke-linecap="round" stroke-linejoin="round"/>
<defs>
<radialGradient id="paint0_radial" cx="0" cy="0" r="1" gradientUnits="userSpaceOnUse" gradientTransform="translate(35.157 38.678) rotate(90.3101) scale(7.68607)">
<stop offset="0.0648649" stop-color="#FFEA80"/>
<stop offset="0.1087" stop-color="#FFE77D"/>
<stop offset="0.4689" stop-color="#FFD76C"/>
<stop offset="0.735" stop-color="#FFD166"/>
</radialGradient>
</defs>
</svg>
