<svg width="25" height="23" viewBox="0 0 25 23" fill="none" xmlns="http://www.w3.org/2000/svg">
<path fill-rule="evenodd" clip-rule="evenodd" d="M21.2598 1.20111C21.5264 1.09334 21.8292 0.998655 22.1543 0.984314C22.4794 0.969972 22.8267 1.03519 23.1816 1.24799C23.5366 1.46083 23.823 1.85636 23.9316 2.26947C24.0403 2.68258 24.0145 3.10121 23.916 3.55072L23.9219 3.52728C23.9219 3.52728 20.5577 20.7981 20.4785 21.2167V21.2187C20.3938 21.6617 20.1947 22.0141 19.875 22.3495C19.5553 22.685 19.0574 22.9999 18.4297 22.9999C17.3725 22.9999 16.8932 22.3421 16.8418 22.2695L13.1914 18.8163L10.1816 21.4199L10.1602 21.4355C10.1602 21.4355 9.80196 21.7578 9.2168 21.7578C9.07955 21.7578 8.92576 21.7269 8.77344 21.6777C8.76058 21.6749 8.74988 21.6729 8.74026 21.6711C8.72127 21.6675 8.70647 21.6648 8.6875 21.6581C8.67939 21.6553 8.67192 21.6511 8.66445 21.6468C8.65796 21.6431 8.65147 21.6394 8.64453 21.6367L8.64062 21.6347C8.57579 21.6084 8.51163 21.5799 8.45312 21.5429C8.30674 21.4503 8.18595 21.3321 8.08203 21.1972C7.8742 20.9275 7.71457 20.5876 7.54688 20.0449C7.31088 19.2819 6.34973 16.3388 6.0512 15.4247C6.02794 15.3534 6.0087 15.2945 5.99414 15.2499C5.9185 15.219 5.79991 15.1705 5.64879 15.1086C4.65658 14.7027 2.26207 13.7229 1.41406 13.3769C1.14475 13.267 0.830339 13.1219 0.533203 12.8281C0.236068 12.5343 0 12.0422 0 11.5468C0 10.9325 0.362329 10.3812 0.703125 10.1152C0.994934 9.88736 1.27229 9.77941 1.40377 9.72824C1.42584 9.71965 1.4438 9.71266 1.45703 9.70697C2.28238 9.35187 3.37284 8.88254 4.61872 8.34631C7.0669 7.29262 10.1152 5.98062 12.9316 4.76947C15.0565 3.85572 17.0484 3.00053 18.5527 2.35541L18.591 2.33901C20.072 1.70391 21.0121 1.30072 21.2598 1.20111ZM21.9657 3.09561C21.9652 3.09172 21.9646 3.08756 21.9668 3.07416C21.8501 3.12183 20.8218 3.55862 19.3418 4.1933C17.8387 4.8379 15.8452 5.69374 13.7207 6.60736C11.0193 7.76903 8.10511 9.02362 5.71152 10.0541C4.34014 10.6444 3.13966 11.1613 2.24805 11.5449L2.23438 11.5507C3.1743 11.9343 5.7472 12.9874 6.61519 13.3426C6.72172 13.3863 6.80257 13.4193 6.85156 13.4394C9.67182 11.7991 15.9634 8.13223 17.3965 7.21869C17.4101 7.21005 17.4251 7.2002 17.4413 7.18959C17.5565 7.11423 17.7311 6.99994 17.8652 6.99994C18.0352 6.99994 18.1113 7.10589 18.1113 7.25189C18.1113 7.36089 18.0446 7.47105 17.7266 7.78705C17.3316 8.18205 10.7754 14.9687 10.7754 14.9687L9.72656 19.1679L13.252 16.121L18.2383 20.8378L18.2578 20.8593C18.2578 20.8593 18.3799 20.912 18.4395 20.9531C18.457 20.9285 18.4744 20.8971 18.4881 20.8726C18.5071 20.8382 18.5189 20.8171 18.5137 20.8456C18.6365 20.1963 21.959 3.14642 21.959 3.14642L21.9609 3.1347L21.9629 3.12299C21.9669 3.10443 21.9664 3.1002 21.9657 3.09561Z" fill="#163150"/>
</svg>
