<svg width="24" height="24" viewBox="0 0 24 24" fill="none" xmlns="http://www.w3.org/2000/svg">
<path fill-rule="evenodd" clip-rule="evenodd" d="M20.5604 14.3415C20.1419 14.606 19.649 14.6388 19.2743 14.4275C18.7984 14.1588 18.5368 13.5296 18.5368 12.6544V10.0361C18.5368 8.77171 18.0369 7.872 17.201 7.62907C15.7844 7.21639 14.719 8.94966 14.3186 9.60058L11.8203 13.6513V8.70029C11.7922 7.56117 11.4222 6.8798 10.7198 6.67434C10.255 6.53854 9.55961 6.59298 8.8841 7.62673L3.28683 16.6144C2.53749 15.1919 2.14686 13.6079 2.14888 12C2.14888 6.58595 6.48761 2.18166 11.8203 2.18166C17.153 2.18166 21.4911 6.58595 21.4911 12C21.4911 12.0094 21.4935 12.0176 21.494 12.0263C21.494 12.0357 21.4923 12.0439 21.4929 12.0533C21.5432 13.1017 21.2037 13.9358 20.5604 14.342V14.3415ZM23.64 12.0006V12V11.9731L23.6394 11.9461C23.6096 5.35258 18.3196 0 11.8197 0C5.30283 0 0 5.38302 0 12C0 18.6164 5.30283 24 11.8203 24C14.8109 24 17.6652 22.8632 19.8562 20.7998C20.2917 20.39 20.3175 19.6999 19.9136 19.2585C19.7215 19.0468 19.4523 18.9212 19.1666 18.9102C18.881 18.8992 18.6029 19.0036 18.3951 19.2C16.6192 20.8817 14.2662 21.8188 11.8203 21.8183C8.96488 21.8183 6.39571 20.5545 4.62381 18.5502L9.67141 10.4453V14.1817C9.67141 15.9764 10.3674 16.5565 10.951 16.7262C11.5352 16.896 12.4279 16.7801 13.3651 15.2581L16.1415 10.7573C16.2304 10.6121 16.3124 10.4868 16.3873 10.3785V12.6544C16.3873 14.3321 17.0593 15.6738 18.2306 16.3346C19.2866 16.9305 20.6142 16.8767 21.696 16.1941C23.0072 15.3659 23.7138 13.8398 23.64 12.0006Z" fill="#163150"/>
</svg>
