<?xml version="1.0" encoding="UTF-8"?>
<svg width="393px" height="642px" viewBox="0 0 393 642" version="1.1" xmlns="http://www.w3.org/2000/svg" xmlns:xlink="http://www.w3.org/1999/xlink">
    <!-- Generator: Sketch 49.1 (51147) - http://www.bohemiancoding.com/sketch -->
    <title>Artboard</title>
    <desc>Created with Sketch.</desc>
    <defs></defs>
    <g id="Artboard" stroke="none" stroke-width="1" fill="none" fill-rule="evenodd">
        <g id="hardware" transform="translate(197.000000, 320.500000) rotate(-90.000000) translate(-197.000000, -320.500000) translate(-124.000000, 124.000000)" fill="#000000" fill-rule="nonzero">
            <path d="M641.5,196 C641.5,199.1 639.8,202.1 637,203.5 L547.9,257 C546.5,257.8 545.1,258.4 543.4,258.4 C542,258.4 540.3,258.1 538.9,257.3 C536.1,255.6 534.4,252.8 534.4,249.5 L534.4,213.9 L295.7,213.9 C321,253.5 336.2,320.8 365.3,320.8 L392,320.8 L392,294 C392,289 395.9,285.1 400.9,285.1 L490,285.1 C495,285.1 498.9,289 498.9,294 L498.9,383.1 C498.9,388.1 495,392 490,392 L400.9,392 C395.9,392 392,388.1 392,383.1 L392,356.4 L365.3,356.4 C289.9,356.4 284.2,213.9 240.6,213.9 L140.3,213.9 C132.2,244.5 104.4,267.4 71.3,267.4 C32,267.3 0,235.3 0,196 C0,156.7 32,124.7 71.3,124.7 C104.4,124.7 132.3,147.5 140.3,178.2 C179.4,178.2 184.2,187.7 214.9,117.8 C255,28.7 273,35.7 323.8,35.7 C331.3,14.8 350.8,0.1 374.2,0.1 C403.7,0.1 427.7,24 427.7,53.6 C427.7,83.2 403.8,107.1 374.2,107.1 C350.8,107.1 331.3,92.3 323.8,71.5 L294,71.5 C264.9,71.5 249.7,138.9 224.4,178.4 L534.5,178.4 L534.5,142.8 C534.5,139.5 536.2,136.7 539,135 C541.8,133.3 545.4,133.6 547.9,135.3 L637,188.8 C639.8,189.9 641.5,192.9 641.5,196 Z" id="Shape"></path>
        </g>
    </g>
</svg>