<svg xmlns="http://www.w3.org/2000/svg" width="75" height="75" viewBox="0 0 75 75">
    <path fill="#282D32" fill-rule="nonzero" d="M36.711 0c-9.039 0-16.354 8.326-16.354 18.615v6.977C17.183 26.246 14 27.118 14 28.25v36.41s0 1.007.994 1.484c3.603 1.661 17.777 7.371 21.033 8.68.42.176.538.176.647.176.155 0 .228 0 .648-.176 3.256-1.309 17.466-7.019 21.07-8.68.92-.436.957-1.443.957-1.443V28.25c0-1.132-3.138-2.045-6.32-2.658v-6.977C53.073 8.326 45.712 0 36.71 0zm0 8.897c5.326 0 8.546 3.665 8.546 9.728v6.064c-5.974-.478-11.072-.478-17.083 0v-6.064c0-6.073 3.22-9.728 8.537-9.728zm-.037 24.72c7.434 0 13.673.654 13.673 1.827V58.16c0 .353-.037.395-.31.52-.265.134-12.679 5.232-12.679 5.232s-.501.176-.647.176c-.155 0-.648-.218-.648-.218s-12.413-5.097-12.678-5.232c-.264-.135-.31-.177-.31-.52V35.404c-.073-1.173 6.166-1.786 13.6-1.786z"/>
</svg>
