<?xml version="1.0" encoding="UTF-8"?>
<svg width="317px" height="331px" viewBox="0 0 317 331" version="1.1" xmlns="http://www.w3.org/2000/svg" xmlns:xlink="http://www.w3.org/1999/xlink">
    <!-- Generator: Sketch 48.1 (47250) - http://www.bohemiancoding.com/sketch -->
    <title>metamask</title>
    <desc>Created with Sketch.</desc>
    <defs></defs>
    <g id="Page-1" stroke="none" stroke-width="1" fill="none" fill-rule="evenodd">
        <g id="metamask" fill-rule="nonzero">
            <g id="Shape">
                <polygon stroke="#BBBBBB" fill="#BBBBBB" points="300 229 280.763485 294 243 283.678788"></polygon>
                <polygon stroke="#BBBBBB" fill="#BBBBBB" points="243 284 279.423237 233.834294 300 229"></polygon>
                <path d="M272,179.716489 L300,229.151839 L279.643454,234 L272,179.716489 Z M272,179.716489 L290.016713,167 L300,229.151839 L272,179.716489 Z" fill="#DDDDDD"></path>
                <path d="M249,142.560976 L301,121 L298.415663,132.810976 L249,142.560976 Z M296.771084,147 L249,142.560976 L298.415663,132.810976 L296.771084,147 Z" stroke="#000000" fill="#000000"></path>
                <path d="M296.851563,146.862549 L290.689098,167 L249,142.498282 L296.851563,146.862549 Z M306.893674,125.979381 L298,132.776632 L300.620458,121 L306.893674,125.979381 Z M296,147.147766 L297.667564,133 L304.734859,138.848797 L296,147.147766 Z" stroke="#000000" fill="#000000"></path>
                <path d="M290.501771,167 L296.750885,146.521729 L303,151.670968 L290.501771,167 Z M290.992432,167.10791 L235.792725,148.983398 L248.977783,141.554199 L290.992432,167.10791 Z" stroke="#000000" fill="#000000"></path>
                <polygon stroke="#000000" fill="#000000" points="261.963379 80.3129883 249 142.452436 236 149"></polygon>
                <polygon stroke="#000000" fill="#000000" points="301 121.351733 248.367188 143.222168 261.624512 80.5117188"></polygon>
                <polygon stroke="#000000" fill="#000000" points="262 81.2691652 317 75 300.998047 121.375"></polygon>
                <polygon fill="#DDDDDD" points="290.681641 166.88501 271.895501 180 235.297607 148.680664"></polygon>
                <polygon stroke="#000000" fill="#000000" points="313.882812 31.1132812 317 75.1660156 261.748047 81.559082"></polygon>
                <polygon stroke="#BBBBBB" fill="#BBBBBB" points="314 31 204.526123 111.583008 203 56.7398213"></polygon>
                <polygon fill="#DDDDDD" points="122 50 203.574427 56.4313725 205.114014 110.804199"></polygon>
                <polygon stroke="#000000" fill="#000000" points="236.105263 149 205 109.87239 262 81"></polygon>
                <polygon stroke="#BBBBBB" fill="#BBBBBB" points="235.673406 149 272.702148 180.192871 220.705078 185.546875"></polygon>
                <polygon stroke="#BBBBBB" fill="#BBBBBB" points="220.5 186.560059 205 110 236 148.993711"></polygon>
                <polygon stroke="#000000" fill="#000000" points="261.821661 81.9235353 205 111 314 31"></polygon>
                <polygon fill="#C0AD9E" points="122.280899 283.05679 148 310 113 278"></polygon>
                <polygon stroke="#999999" fill="#999999" points="243 284 255.077922 237.475513 279.552002 234.016846"></polygon>
                <polygon fill="#E2761B" points="18 153 63 106 23.8038869 147.391597"></polygon>
                <path d="M279.638916,234.052734 L254.892334,237.791992 L272.25025,180.452211 L279.638916,234.052734 Z M204.874875,110.555789 L161.302302,109.130947 L122,50 L204.874875,110.555789 Z" fill="#DDDDDD"></path>
                <polygon stroke="#AAAAAA" fill="#AAAAAA" points="272.860352 178.466309 255.035889 238.403076 253.430664 209.201538"></polygon>
                <polygon stroke="#999999" fill="#999999" points="221 185.534946 272 180 254.07465 209"></polygon>
                <polygon fill="#DDDDDD" points="161 109 205.040527 109.762451 221 186"></polygon>
                <path d="M162.666504,110.812012 L43.8779297,0 L122.686523,49.7369804 L162.666504,110.812012 Z M122.605469,298.883789 L20.4082031,331 L0,252.227539 L122.605469,298.883789 Z" stroke="#BBBBBB" fill="#BBBBBB"></path>
                <polygon stroke="#000000" fill="#000000" points="33 172 71.6265329 142 104 149.441253"></polygon>
                <polygon stroke="#000000" fill="#000000" points="104 150 72 142.487487 89.1344743 71"></polygon>
                <polygon stroke="#000000" fill="#000000" points="24 147.169713 72 142 33.4102142 172"></polygon>
                <polygon stroke="#999999" fill="#999999" points="254 209 234.057554 198.873754 221 185"></polygon>
                <polygon stroke="#000000" fill="#000000" points="24.0253906 147.559082 19.7363281 127.630127 72.6230469 142.035156"></polygon>
                <polygon fill="#000000" points="229.504639 222.02832 233.890869 198.618896 254.018799 208.942871"></polygon>
                <polygon fill="#DDDDDD" points="255 237 230 221.540845 253.676012 209"></polygon>
                <path d="M72.0783081,142.372253 L20.1834513,129.755756 L16,114.651652 L72.0783081,142.372253 Z M89.4462891,70.630127 L72.0721436,142.393555 L16,114.651652 L89.4462891,70.630127 Z M89,71 L161,109.037037 L103.773544,150 L89,71 Z" stroke="#000000" fill="#000000"></path>
                <path d="M102.939453,149.790527 L161.446777,108.118652 L187,187 L102.939453,149.790527 Z M187,187 L107.214355,184.98877 L103.306152,149.833008 L187,187 Z" stroke="#BBBBBB" fill="#BBBBBB"></path>
                <path d="M32.0712891,171.77832 L103.916504,149.303223 L107.426532,185.340426 L32.0712891,171.77832 Z M221,185.81459 L186.509656,187 L161.016793,109 L221,185.81459 Z" fill="#DDDDDD"></path>
                <polygon stroke="#999999" fill="#999999" points="234 198.617391 229.90303 221 221 185"></polygon>
                <polygon stroke="#000000" fill="#000000" points="44 0 161 109 88.697998 71.2009277"></polygon>
                <polygon stroke="#BBBBBB" fill="#BBBBBB" points="0 252.468262 98.902832 247.6875 122.921875 299.431641"></polygon>
                <polygon stroke="#999999" fill="#999999" points="122.545455 299 99 248.383808 148 246"></polygon>
                <path d="M230.672711,221.514124 L256.022229,237.016949 L265.330322,267.536621 L230.672711,221.514124 Z M108.110559,184.655367 L0,252.59887 L33.6414156,172 L108.110559,184.655367 Z M99.0289558,248.485876 L0,252.59887 L108.110559,184.655367 L99.0289558,248.485876 Z M221.749049,185.129944 L228.329102,209.351562 L196.20166,211.189697 L221.749049,185.129944 Z M196.142822,211.310303 L187.238959,186.316384 L221.749049,185.129944 L196.142822,211.310303 Z" stroke="#BBBBBB" fill="#BBBBBB"></path>
                <polygon fill="#FBFBFB" points="148.453925 309.720812 122 299 214 315"></polygon>
                <polygon stroke="#000000" fill="#000000" points="33.5405273 171.776367 18 152.599369 24.121582 146.518799"></polygon>
                <polygon fill="#FFFFFF" points="225.334473 302.741699 214.44873 315.716797 122 299"></polygon>
                <polygon stroke="#BBBBBB" fill="#BBBBBB" points="230.497559 275.182129 122 299 147.263158 246"></polygon>
                <polygon fill="#FFFFFF" points="122 299.011173 224.425587 276.239335 230 275 225.026316 303"></polygon>
                <path d="M16.5367115,114.898062 L13.1118164,53.6879883 L89.7861328,70.8154297 L16.5367115,114.898062 Z M24.1728516,147.156738 L13.6287487,137.309183 L20.7021717,130.023589 L24.1728516,147.156738 Z" stroke="#000000" fill="#000000"></path>
                <polygon stroke="#999999" fill="#999999" points="169 202.545455 186.879395 185.943848 184.428571 225"></polygon>
                <polygon stroke="#999999" fill="#999999" points="186 187 169.392822 203.094971 143 216"></polygon>
                <path d="M264.222892,266.476346 L230,222 L264.222892,266.476346 Z" stroke="#BBBBBB" fill="#BBBBBB"></path>
                <polygon stroke="#999999" fill="#999999" points="143.636727 216 108 185 187 186.677835"></polygon>
                <polygon stroke="#AAAAAA" fill="#AAAAAA" points="184 225 186.960205 185.625732 196.302979 211.109863"></polygon>
                <polygon stroke="#000000" fill="#000000" points="10 119.968586 16.6492537 114 21 129"></polygon>
                <polygon fill="#000000" points="185.06543 225.883789 142.477783 216.035645 168.803089 202"></polygon>
                <polygon stroke="#000000" fill="#000000" points="89 71 13 53.7854749 44.0444674 0"></polygon>
                <polygon fill="#FBFBFB" points="214.661621 314.608398 219.323242 326.847656 148.149902 309.338379"></polygon>
                <polygon fill="#DDDDDD" points="146.878378 247 143 216 184 225.323907"></polygon>
                <polygon stroke="#AAAAAA" fill="#AAAAAA" points="108 185 144.087824 215.460746 147.286621 246.429199"></polygon>
                <path d="M196.127808,211.066406 L228.076046,209.108317 L265,267 L196.127808,211.066406 Z M108.073194,185 L147.60076,246.618956 L98.7451172,248.597656 L108.073194,185 Z" fill="#DDDDDD"></path>
                <polygon stroke="#AAAAAA" fill="#AAAAAA" points="196.217929 211 235 270 183.407227 225.09375"></polygon>
                <polygon stroke="#BBBBBB" fill="#BBBBBB" points="183.709229 224.863281 235.486816 270.005859 228.958496 275.549316"></polygon>
                <path d="M229.403226,275 L147,246.555556 L183.877016,225.064198 L229.403226,275 Z M265.065247,267.038452 L235.010742,270.378784 L195.155273,209.339355 L265.065247,267.038452 Z" fill="#DDDDDD"></path>
                <path d="M272.00824,294.410675 L259.356948,320.362963 L218.346049,327 L272.00824,294.410675 Z M219.55719,327.282715 L214,315.148148 L225.11438,302.943848 L219.55719,327.282715 Z" fill="#FBFBFB"></path>
                <path d="M225.051514,302.968872 L232.809204,299.898437 L219,327 L225.051514,302.968872 Z M219,327 L232.710693,299.850464 L272.031677,294.415588 L219,327 Z" fill="#FBFBFB"></path>
                <polygon fill="#000000" points="265.13369 267 274.98291 272.750488 245 276"></polygon>
                <path d="M244.534709,276.545455 L235,270.340909 L265.137085,267.049438 L244.534709,276.545455 Z M241.146341,281.238636 L277,276.863636 L272.036133,294.474121 L241.146341,281.238636 Z" fill="#000000"></path>
                <path d="M272.066265,294.415274 L232.674699,299.928401 L241.36747,280.789976 L272.066265,294.415274 Z M232.858643,299.856323 L225,303 L229.64389,274.996735 L232.858643,299.856323 Z M229.646622,274.991623 L235.259036,270 L244.73494,276.143198 L229.646622,274.991623 Z M274.82019,272.612183 L277.009399,276.895203 L240.491821,281.35498 L274.82019,272.612183 Z" fill="#000000"></path>
                <path d="M241.280029,281.16687 L244.26709,275.812866 L274.876221,272.649902 L241.280029,281.16687 Z M229.641754,274.986938 L241.410302,281.092219 L232.735346,300 L229.641754,274.986938 Z" fill="#000000"></path>
                <polygon fill="#000000" points="244.553223 276.001831 241.346558 281.346558 229.65329 274.99649"></polygon>
            </g>
        </g>
    </g>
</svg>