<?xml version="1.0" encoding="UTF-8" standalone="no"?>
<!DOCTYPE svg PUBLIC "-//W3C//DTD SVG 1.1//EN" "http://www.w3.org/Graphics/SVG/1.1/DTD/svg11.dtd">
<svg version="1.1" xmlns="http://www.w3.org/2000/svg" xmlns:xlink="http://www.w3.org/1999/xlink" preserveAspectRatio="xMidYMid meet" viewBox="0 0 640 640" width="640" height="640"><defs><path d="M324.85 94.81L327.24 95.05L329.6 95.39L331.93 95.82L334.22 96.34L336.49 96.95L338.71 97.64L340.9 98.42L343.04 99.28L345.15 100.22L347.21 101.24L349.22 102.33L351.19 103.51L353.11 104.75L354.98 106.06L356.79 107.45L358.54 108.9L360.24 110.42L361.88 111.99L363.46 113.64L364.98 115.33L366.43 117.09L367.81 118.91L369.12 120.77L370.37 122.69L371.54 124.66L372.63 126.67L373.65 128.73L374.6 130.84L375.46 132.99L376.23 135.18L376.93 137.4L377.53 139.66L378.05 141.96L378.48 144.29L378.82 146.65L379.06 149.04L379.21 151.45L379.26 153.89L379.21 156.33L379.06 158.75L378.82 161.14L378.48 163.5L378.05 165.83L377.53 168.12L376.93 170.38L376.23 172.61L375.46 174.8L374.6 176.95L373.65 179.05L372.63 181.11L371.54 183.13L370.37 185.1L369.12 187.01L367.81 188.88L366.43 190.69L364.98 192.45L363.46 194.15L361.88 195.79L360.24 197.37L358.54 198.89L356.79 200.34L354.98 201.72L353.11 203.04L351.19 204.28L349.22 205.45L347.21 206.55L345.15 207.57L343.04 208.51L340.9 209.37L338.71 210.15L336.49 210.84L334.22 211.45L331.93 211.97L329.6 212.4L327.24 212.73L324.85 212.98L322.44 213.12L320 213.17L317.56 213.12L315.15 212.98L312.76 212.73L310.4 212.4L308.07 211.97L305.78 211.45L303.51 210.84L301.29 210.15L299.1 209.37L296.96 208.51L294.85 207.57L292.79 206.55L290.78 205.45L288.81 204.28L286.89 203.04L285.02 201.72L283.21 200.34L281.46 198.89L279.76 197.37L278.12 195.79L276.54 194.15L275.02 192.45L273.57 190.69L272.19 188.88L270.88 187.01L269.63 185.1L268.46 183.13L267.37 181.11L266.35 179.05L265.41 176.95L264.54 174.8L263.77 172.61L263.07 170.38L262.47 168.12L261.95 165.83L261.52 163.5L261.18 161.14L260.94 158.75L260.79 156.33L260.74 153.89L260.79 151.45L260.94 149.04L261.18 146.65L261.52 144.29L261.95 141.96L262.47 139.66L263.07 137.4L263.77 135.18L264.54 132.99L265.41 130.84L266.35 128.73L267.37 126.67L268.46 124.66L269.63 122.69L270.88 120.77L272.19 118.91L273.57 117.09L275.02 115.33L276.54 113.64L278.12 111.99L279.76 110.42L281.46 108.9L283.21 107.45L285.02 106.06L286.89 104.75L288.81 103.51L290.78 102.33L292.79 101.24L294.85 100.22L296.96 99.28L299.1 98.42L301.29 97.64L303.51 96.95L305.78 96.34L308.07 95.82L310.4 95.39L312.76 95.05L315.15 94.81L317.56 94.66L320 94.61L322.44 94.66L324.85 94.81ZM316.11 106.63L314.2 106.82L312.31 107.09L310.45 107.43L308.61 107.85L306.8 108.33L305.02 108.89L303.27 109.51L301.55 110.2L299.86 110.95L298.21 111.76L296.6 112.64L295.03 113.57L293.49 114.57L292 115.62L290.55 116.72L289.15 117.88L287.79 119.1L286.48 120.36L285.22 121.67L284 123.03L282.85 124.44L281.74 125.89L280.69 127.38L279.7 128.91L278.76 130.49L277.88 132.1L277.07 133.75L276.32 135.43L275.63 137.15L275.01 138.9L274.46 140.69L273.97 142.5L273.56 144.34L273.21 146.2L272.94 148.09L272.75 150L272.63 151.94L272.59 153.89L272.63 155.85L272.75 157.78L272.94 159.7L273.21 161.59L273.56 163.45L273.97 165.29L274.46 167.1L275.01 168.88L275.63 170.63L276.32 172.35L277.07 174.04L277.88 175.69L278.76 177.3L279.7 178.87L280.69 180.41L281.74 181.9L282.85 183.35L284 184.76L285.22 186.12L286.48 187.43L287.79 188.69L289.15 189.9L290.55 191.06L292 192.17L293.49 193.22L295.03 194.21L296.6 195.15L298.21 196.02L299.86 196.84L301.55 197.59L303.27 198.28L305.02 198.9L306.8 199.45L308.61 199.94L310.45 200.35L312.31 200.7L314.2 200.97L316.11 201.16L318.05 201.28L320 201.32L321.95 201.28L323.89 201.16L325.8 200.97L327.69 200.7L329.55 200.35L331.39 199.94L333.2 199.45L334.98 198.9L336.73 198.28L338.45 197.59L340.14 196.84L341.79 196.02L343.4 195.15L344.97 194.21L346.51 193.22L348 192.17L349.45 191.06L350.85 189.9L352.21 188.69L353.52 187.43L354.78 186.12L356 184.76L357.15 183.35L358.26 181.9L359.31 180.41L360.3 178.87L361.24 177.3L362.12 175.69L362.93 174.04L363.68 172.35L364.37 170.63L364.99 168.88L365.54 167.1L366.03 165.29L366.44 163.45L366.79 161.59L367.06 159.7L367.25 157.78L367.37 155.85L367.41 153.89L367.37 151.94L367.25 150L367.06 148.09L366.79 146.2L366.44 144.34L366.03 142.5L365.54 140.69L364.99 138.9L364.37 137.15L363.68 135.43L362.93 133.75L362.12 132.1L361.24 130.49L360.3 128.91L359.31 127.38L358.26 125.89L357.15 124.44L356 123.03L354.78 121.67L353.52 120.36L352.21 119.1L350.85 117.88L349.45 116.72L348 115.62L346.51 114.57L344.97 113.57L343.4 112.64L341.79 111.76L340.14 110.95L338.45 110.2L336.73 109.51L334.98 108.89L333.2 108.33L331.39 107.85L329.55 107.43L327.69 107.09L325.8 106.82L323.89 106.63L321.95 106.51L320 106.47L318.05 106.51L316.11 106.63Z" id="b1iGhA0GD"></path><path d="M332.64 59.55L338.85 60.18L345 61.06L351.06 62.17L357.03 63.52L362.92 65.1L368.71 66.9L374.39 68.92L379.98 71.15L385.45 73.6L390.81 76.24L396.05 79.09L401.17 82.13L406.15 85.36L411 88.78L415.71 92.37L420.28 96.14L424.69 100.08L428.95 104.18L433.05 108.44L436.99 112.86L440.76 117.43L444.35 122.14L447.76 126.99L450.99 131.98L454.03 137.09L456.88 142.34L459.53 147.7L461.97 153.17L464.2 158.76L466.22 164.45L468.02 170.24L469.6 176.13L470.94 182.11L472.06 188.17L472.93 194.31L473.56 200.53L473.95 206.82L474.07 213.17L474.01 217.62L473.82 222.03L473.51 226.41L473.08 230.76L472.53 235.06L471.86 239.33L471.08 243.56L470.18 247.75L469.16 251.9L468.04 256L466.81 260.05L465.47 264.06L464.02 268.01L462.47 271.91L460.82 275.77L459.06 279.56L457.21 283.3L455.26 286.98L453.21 290.6L451.07 294.16L448.84 297.66L446.52 301.09L444.1 304.45L441.6 307.75L439.02 310.97L436.35 314.13L433.6 317.21L430.76 320.21L427.85 323.14L424.86 325.99L421.8 328.77L418.66 331.46L415.45 334.06L412.17 336.58L408.82 339.02L405.41 341.36L401.93 343.62L398.38 345.78L394.78 347.85L391.11 349.83L391.11 391.02L355.56 426.59L355.56 497.72L391.11 533.29L308.15 640L248.89 580.72L248.89 349.83L245.22 347.85L241.62 345.78L238.07 343.62L234.59 341.36L231.18 339.02L227.83 336.58L224.55 334.06L221.34 331.46L218.2 328.77L215.14 325.99L212.15 323.14L209.24 320.21L206.4 317.21L203.65 314.13L200.98 310.97L198.4 307.75L195.9 304.45L193.48 301.09L191.16 297.66L188.93 294.16L186.79 290.6L184.74 286.98L182.79 283.3L180.94 279.56L179.18 275.77L177.53 271.91L175.98 268.01L174.53 264.06L173.19 260.05L171.96 256L170.84 251.9L169.82 247.75L168.92 243.56L168.14 239.33L167.47 235.06L166.92 230.76L166.49 226.41L166.18 222.03L165.99 217.62L165.93 213.17L166.05 206.82L166.44 200.53L167.07 194.31L167.94 188.17L169.06 182.11L170.4 176.13L171.98 170.24L173.78 164.45L175.8 158.76L178.03 153.17L180.47 147.7L183.12 142.34L185.97 137.09L189.01 131.98L192.24 126.99L195.65 122.14L199.24 117.43L203.01 112.86L206.95 108.44L211.05 104.18L215.31 100.08L219.72 96.14L224.29 92.37L229 88.78L233.85 85.36L238.83 82.13L243.95 79.09L249.19 76.24L254.55 73.6L260.02 71.15L265.61 68.92L271.29 66.9L277.08 65.1L282.97 63.52L288.94 62.17L295 61.06L301.15 60.18L307.36 59.55L313.65 59.17L320 59.04L326.35 59.17L332.64 59.55ZM307.18 343.63L306.7 343.68L306.23 343.75L305.76 343.83L305.3 343.94L304.85 344.06L304.41 344.2L303.97 344.36L303.54 344.53L303.12 344.72L302.71 344.92L302.31 345.14L301.91 345.37L301.53 345.62L301.16 345.89L300.79 346.16L300.44 346.45L300.1 346.76L299.77 347.07L299.46 347.4L299.15 347.74L298.86 348.09L298.59 348.45L298.32 348.83L298.08 349.21L297.84 349.6L297.62 350.01L297.42 350.42L297.23 350.84L297.06 351.27L296.9 351.71L296.76 352.15L296.64 352.61L296.54 353.06L296.45 353.53L296.38 354L296.34 354.48L296.31 354.96L296.3 355.45L296.3 611.37L307.03 622.12L320 605.44L320 355.45L319.99 354.96L319.96 354.48L319.91 354L319.84 353.53L319.76 353.06L319.65 352.61L319.53 352.15L319.39 351.71L319.24 351.27L319.07 350.84L318.88 350.42L318.67 350.01L318.45 349.6L318.22 349.21L317.97 348.83L317.71 348.45L317.43 348.09L317.14 347.74L316.84 347.4L316.52 347.07L316.19 346.76L315.85 346.45L315.5 346.16L315.14 345.89L314.77 345.62L314.38 345.37L313.99 345.14L313.59 344.92L313.18 344.72L312.76 344.53L312.33 344.36L311.89 344.2L311.44 344.06L310.99 343.94L310.53 343.83L310.07 343.75L309.6 343.68L309.12 343.63L308.64 343.6L308.15 343.59L307.66 343.6L307.18 343.63ZM308.35 71.37L302.62 71.96L296.96 72.76L291.37 73.79L285.86 75.04L280.43 76.5L275.09 78.16L269.85 80.03L264.69 82.1L259.64 84.36L254.7 86.8L249.86 89.43L245.14 92.24L240.54 95.23L236.06 98.39L231.71 101.71L227.49 105.19L223.42 108.83L219.48 112.62L215.69 116.55L212.05 120.63L208.57 124.85L205.25 129.2L202.1 133.68L199.12 138.28L196.31 143.01L193.68 147.85L191.23 152.79L188.97 157.85L186.91 163L185.04 168.25L183.38 173.59L181.92 179.02L180.67 184.54L179.64 190.13L178.83 195.79L178.25 201.52L177.9 207.32L177.78 213.17L177.83 217.15L178 221.11L178.27 225.05L178.65 228.96L179.13 232.85L179.72 236.71L180.41 240.54L181.21 244.34L182.1 248.11L183.1 251.85L184.2 255.55L185.39 259.21L186.68 262.83L188.07 266.41L189.55 269.95L191.13 273.45L192.8 276.9L194.56 280.29L196.41 283.64L198.36 286.94L200.39 290.19L202.5 293.38L204.71 296.51L207 299.58L209.37 302.6L211.83 305.55L214.37 308.43L216.99 311.25L219.69 314.01L222.47 316.69L225.32 319.3L228.26 321.84L231.27 324.31L234.35 326.7L237.51 329.01L240.74 331.24L244.04 333.39L247.41 335.45L250.86 337.43L254.36 339.33L260.74 342.64L260.74 575.81L284.44 599.52L284.44 355.45L284.46 354.47L284.52 353.51L284.62 352.55L284.76 351.61L284.93 350.68L285.13 349.76L285.38 348.85L285.65 347.96L285.97 347.09L286.31 346.23L286.69 345.39L287.09 344.56L287.53 343.75L288 342.97L288.5 342.2L289.02 341.45L289.58 340.73L290.16 340.03L290.76 339.35L291.39 338.69L292.05 338.06L292.73 337.45L293.43 336.87L294.16 336.32L294.9 335.79L295.67 335.29L296.46 334.83L297.26 334.39L298.09 333.98L298.93 333.6L299.79 333.26L300.66 332.95L301.55 332.67L302.46 332.43L303.38 332.22L304.31 332.05L305.25 331.91L306.21 331.82L307.17 331.76L308.15 331.74L309.12 331.76L310.09 331.82L311.04 331.91L311.99 332.05L312.92 332.22L313.84 332.43L314.74 332.67L315.63 332.95L316.51 333.26L317.37 333.6L318.21 333.98L319.03 334.39L319.84 334.83L320.63 335.29L321.39 335.79L322.14 336.32L322.86 336.87L323.57 337.45L324.25 338.06L324.9 338.69L325.53 339.35L326.14 340.03L326.72 340.73L327.27 341.45L327.8 342.2L328.3 342.97L328.76 343.75L329.2 344.56L329.61 345.39L329.99 346.23L330.33 347.09L330.64 347.96L330.92 348.85L331.16 349.76L331.37 350.68L331.54 351.61L331.68 352.55L331.77 353.51L331.83 354.47L331.85 355.45L331.85 590.2L375.32 534.28L347.18 506.11L343.7 502.63L343.7 421.68L379.26 386.11L379.26 342.64L385.64 339.33L389.14 337.43L392.59 335.45L395.96 333.39L399.26 331.24L402.49 329.01L405.65 326.7L408.73 324.31L411.74 321.84L414.68 319.3L417.53 316.69L420.31 314.01L423.01 311.25L425.63 308.43L428.17 305.55L430.63 302.6L433 299.58L435.29 296.51L437.5 293.38L439.61 290.19L441.64 286.94L443.59 283.64L445.44 280.29L447.2 276.9L448.87 273.45L450.45 269.95L451.93 266.41L453.32 262.83L454.61 259.21L455.8 255.55L456.9 251.85L457.9 248.11L458.79 244.34L459.59 240.54L460.28 236.71L460.87 232.85L461.35 228.96L461.73 225.05L462 221.11L462.17 217.15L462.22 213.17L462.1 207.32L461.75 201.52L461.17 195.79L460.36 190.13L459.33 184.54L458.08 179.02L456.62 173.59L454.96 168.25L453.09 163L451.03 157.85L448.77 152.79L446.32 147.85L443.69 143.01L440.88 138.28L437.9 133.68L434.75 129.2L431.43 124.85L427.95 120.63L424.31 116.55L420.52 112.62L416.58 108.83L412.51 105.19L408.29 101.71L403.94 98.39L399.46 95.23L394.86 92.24L390.14 89.43L385.3 86.8L380.36 84.36L375.31 82.1L370.15 80.03L364.91 78.16L359.57 76.5L354.14 75.04L348.63 73.79L343.04 72.76L337.38 71.96L331.65 71.37L325.85 71.02L320 70.9L314.15 71.02L308.35 71.37Z" id="dtvuPoKfP"></path><path d="M145.58 11.62L179.82 68.72L180.69 67.87L181.58 67.02L182.47 66.18L183.36 65.35L184.26 64.52L185.16 63.69L186.07 62.87L186.99 62.05L187.91 61.23L188.83 60.42L189.77 59.62L190.7 58.82L191.64 58.03L192.59 57.24L193.55 56.45L194.5 55.67L195.47 54.9L196.44 54.13L197.41 53.36L198.4 52.61L199.38 51.85L200.38 51.1L201.37 50.36L202.38 49.62L203.39 48.89L204.4 48.17L205.43 47.45L206.45 46.73L207.49 46.02L208.53 45.32L209.57 44.62L210.63 43.93L211.68 43.25L212.75 42.57L213.82 41.89L214.89 41.23L215.98 40.57L217.06 39.91L218.16 39.27L219.26 38.63L225.19 48.89L218.49 52.94L212.03 57.22L205.79 61.72L199.79 66.43L194.01 71.35L188.47 76.46L183.17 81.76L178.11 87.25L173.29 92.9L168.71 98.72L164.38 104.7L160.3 110.82L156.46 117.08L152.88 123.47L149.56 129.98L146.49 136.6L143.68 143.33L141.13 150.16L138.85 157.08L136.83 164.07L135.08 171.14L133.6 178.27L132.39 185.46L131.46 192.7L130.81 199.97L130.43 207.27L130.34 214.6L130.53 221.93L131.01 229.28L131.78 236.62L132.83 243.95L134.18 251.25L135.82 258.54L137.77 265.78L140.01 272.98L142.55 280.13L145.39 287.21L148.55 294.23L152.01 301.16L155.78 308.01L145.52 313.95L144.47 312.12L143.44 310.27L142.44 308.42L141.46 306.57L140.49 304.71L139.55 302.84L138.63 300.96L137.74 299.09L136.86 297.2L136.01 295.31L135.17 293.42L134.36 291.52L133.57 289.61L132.8 287.7L132.05 285.79L131.32 283.87L130.61 281.95L129.92 280.02L129.26 278.09L128.61 276.16L127.99 274.22L127.38 272.28L126.8 270.33L126.24 268.38L125.7 266.43L125.17 264.48L124.67 262.52L124.19 260.56L123.73 258.6L123.29 256.63L122.87 254.67L122.47 252.7L122.08 250.73L121.72 248.75L121.38 246.78L121.06 244.8L120.76 242.83L120.48 240.85L120.22 238.87L119.98 236.89L86.63 236.89L62.92 284.31L35.56 284.31L35.56 296.17L0 296.17L0 260.6L35.56 260.6L35.56 272.46L55.6 272.46L79.3 225.03L119.1 225.03L119.03 223.83L118.97 222.64L118.92 221.44L118.88 220.25L118.84 219.05L118.81 217.86L118.78 216.66L118.76 215.47L118.75 214.28L118.75 213.08L118.75 211.89L118.76 210.7L118.78 209.5L118.8 208.31L118.83 207.12L118.87 205.93L118.91 204.74L118.96 203.55L119.02 202.36L119.08 201.18L119.16 199.99L119.24 198.8L119.32 197.62L119.41 196.43L119.51 195.25L119.62 194.06L119.74 192.88L119.86 191.7L119.98 190.52L120.12 189.34L120.26 188.16L120.41 186.98L120.57 185.81L120.73 184.63L120.9 183.46L121.08 182.29L121.26 181.11L121.46 179.94L121.65 178.77L121.86 177.61L79.79 177.61L56.08 142.04L35.56 142.04L35.56 153.89L0 153.89L0 118.32L35.56 118.32L35.56 130.18L62.44 130.18L86.14 165.75L124.44 165.75L124.69 164.77L124.93 163.78L125.18 162.8L125.44 161.82L125.69 160.84L125.96 159.87L126.23 158.89L126.5 157.92L126.78 156.94L127.06 155.97L127.35 155L127.64 154.03L127.94 153.06L128.24 152.1L128.55 151.13L128.86 150.17L129.18 149.21L129.5 148.25L129.83 147.29L130.16 146.34L130.49 145.38L130.83 144.43L131.18 143.48L131.53 142.53L131.88 141.58L132.24 140.63L132.61 139.69L132.98 138.74L133.35 137.8L133.73 136.86L134.12 135.93L134.5 134.99L134.9 134.06L135.3 133.12L135.7 132.19L136.11 131.27L136.52 130.34L136.94 129.42L137.36 128.49L137.79 127.57L137.48 127.81L103.7 82.76L82.96 82.76L82.96 94.61L47.41 94.61L47.41 59.04L82.96 59.04L82.96 70.9L109.63 70.9L143.66 116.27L144.23 115.23L144.81 114.2L145.39 113.16L145.98 112.13L146.57 111.1L147.17 110.08L147.78 109.06L148.39 108.04L149.01 107.02L149.63 106.01L150.26 105L150.9 103.99L151.54 102.99L152.19 101.99L152.84 100.99L153.5 100L154.17 99.01L154.84 98.03L155.52 97.05L156.2 96.07L156.89 95.09L157.59 94.12L158.29 93.16L159 92.19L159.71 91.24L160.43 90.28L161.16 89.33L161.89 88.38L162.63 87.44L163.38 86.5L164.13 85.57L164.89 84.64L165.65 83.71L166.42 82.79L167.2 81.87L167.99 80.96L168.78 80.05L169.57 79.14L170.38 78.24L171.19 77.35L138.87 23.47L35.56 23.47L35.56 35.33L0 35.33L0 -0.24L35.56 -0.24L35.56 11.62L145.58 11.62ZM11.85 284.31L23.7 284.31L23.7 272.46L11.85 272.46L11.85 284.31ZM11.85 142.04L23.7 142.04L23.7 130.18L11.85 130.18L11.85 142.04ZM59.26 82.76L71.11 82.76L71.11 70.9L59.26 70.9L59.26 82.76ZM11.85 23.47L23.7 23.47L23.7 11.62L11.85 11.62L11.85 23.47Z" id="b5eiUcEhtx"></path><path d="M496.56 116.07L497.56 117.92L498.54 119.77L499.51 121.64L500.45 123.5L501.37 125.38L502.26 127.26L503.14 129.14L503.99 131.03L504.83 132.93L505.64 134.83L506.43 136.73L507.2 138.64L507.95 140.56L508.68 142.47L509.39 144.4L510.08 146.32L510.74 148.25L511.39 150.19L512.01 152.13L512.62 154.07L513.2 156.01L513.76 157.96L514.3 159.91L514.83 161.87L515.33 163.83L515.81 165.79L516.27 167.75L516.71 169.71L517.13 171.68L517.53 173.65L517.92 175.62L518.28 177.59L518.62 179.57L518.94 181.55L519.24 183.52L519.52 185.5L519.78 187.48L520.02 189.46L553.37 189.46L577.08 142.04L604.44 142.04L604.44 130.18L640 130.18L640 165.76L604.44 165.76L604.44 153.91L584.4 153.91L560.7 201.33L520.9 201.33L520.97 202.53L521.02 203.72L521.08 204.92L521.12 206.11L521.16 207.31L521.19 208.5L521.21 209.7L521.23 210.89L521.24 212.09L521.25 213.28L521.24 214.47L521.24 215.66L521.22 216.86L521.2 218.05L521.16 219.24L521.13 220.43L521.08 221.62L521.03 222.81L520.97 224L520.91 225.18L520.84 226.37L520.76 227.56L520.67 228.74L520.58 229.93L520.48 231.11L520.37 232.3L520.26 233.48L520.14 234.66L520.01 235.84L519.87 237.02L519.73 238.2L519.58 239.38L519.43 240.55L519.26 241.73L519.09 242.9L518.91 244.07L518.73 245.25L518.53 246.42L518.33 247.59L518.13 248.76L560.7 248.76L584.4 296.18L604.44 296.18L604.44 284.32L640 284.32L640 319.89L604.44 319.89L604.44 308.04L577.08 308.04L553.37 260.61L515.56 260.61L515.31 261.62L515.06 262.62L514.8 263.63L514.54 264.63L514.27 265.63L514 266.63L513.73 267.63L513.44 268.63L513.16 269.63L512.87 270.62L512.57 271.61L512.27 272.61L511.97 273.6L511.66 274.58L511.34 275.57L511.02 276.56L510.69 277.54L510.36 278.52L510.03 279.5L509.69 280.48L509.34 281.46L508.99 282.44L508.64 283.41L508.28 284.38L507.91 285.35L507.54 286.32L507.16 287.29L506.78 288.25L506.4 289.21L506.01 290.18L505.61 291.13L505.21 292.09L504.8 293.05L504.39 294L503.98 294.95L503.56 295.9L503.13 296.85L502.7 297.79L502.26 298.74L501.82 299.68L502.86 299.05L536.69 355.45L557.04 355.45L557.04 343.59L592.59 343.59L592.59 379.16L557.04 379.16L557.04 367.31L529.98 367.31L496.02 310.68L495.45 311.71L494.88 312.73L494.29 313.76L493.71 314.78L493.11 315.79L492.52 316.81L491.91 317.82L491.3 318.82L490.69 319.83L490.07 320.83L489.44 321.83L488.81 322.82L488.17 323.81L487.52 324.8L486.87 325.79L486.22 326.77L485.56 327.75L484.89 328.72L484.22 329.69L483.54 330.66L482.85 331.62L482.16 332.58L481.46 333.54L480.76 334.49L480.05 335.44L479.34 336.38L478.61 337.32L477.89 338.26L477.15 339.19L476.41 340.12L475.67 341.04L474.92 341.96L474.16 342.88L473.39 343.79L472.62 344.7L471.84 345.6L471.06 346.5L470.27 347.39L469.47 348.28L468.67 349.17L501.44 414.73L604.44 414.73L604.44 402.87L640 402.87L640 438.44L604.44 438.44L604.44 426.59L494.12 426.59L459.83 357.98L458.96 358.81L458.08 359.65L457.2 360.48L456.31 361.3L455.42 362.12L454.52 362.94L453.62 363.75L452.71 364.56L451.8 365.37L450.88 366.17L449.96 366.96L449.03 367.75L448.09 368.54L447.15 369.32L446.21 370.09L445.26 370.86L444.3 371.63L443.34 372.39L442.37 373.14L441.4 373.89L440.42 374.64L439.44 375.38L438.45 376.11L437.45 376.84L436.45 377.56L435.45 378.28L434.43 378.99L433.42 379.7L432.39 380.4L431.36 381.09L430.33 381.78L429.29 382.47L428.24 383.14L427.19 383.81L426.13 384.48L425.06 385.14L423.99 385.79L422.91 386.44L421.83 387.08L420.74 387.71L414.81 377.44L421.51 373.4L427.97 369.12L434.21 364.62L440.21 359.91L445.99 354.99L451.53 349.88L456.83 344.58L461.89 339.09L466.71 333.44L471.29 327.62L475.62 321.65L479.7 315.53L483.54 309.27L487.12 302.88L490.44 296.36L493.51 289.74L496.32 283.01L498.87 276.18L501.15 269.26L503.17 262.27L504.92 255.2L506.4 248.07L507.61 240.88L508.54 233.64L509.19 226.37L509.57 219.07L509.66 211.74L509.47 204.41L508.99 197.06L508.22 189.72L507.17 182.39L505.82 175.08L504.18 167.8L502.23 160.56L499.99 153.36L497.45 146.21L494.61 139.13L491.45 132.11L487.99 125.17L484.22 118.32L494.48 112.38L495.53 114.22L496.56 116.07ZM616.3 426.58L628.15 426.58L628.15 414.72L616.3 414.73L616.3 426.58ZM568.89 367.29L580.74 367.29L580.74 355.44L568.89 355.44L568.89 367.29ZM616.3 308.01L628.15 308.01L628.15 296.16L616.3 296.17L616.3 308.01ZM616.3 153.88L628.15 153.88L628.15 142.03L616.3 142.03L616.3 153.88Z" id="asfFVEomc"></path></defs><g><g><g><use xlink:href="#b1iGhA0GD" opacity="1" fill="#000000" fill-opacity="1"></use><g><use xlink:href="#b1iGhA0GD" opacity="1" fill-opacity="0" stroke="#000000" stroke-width="1" stroke-opacity="0"></use></g></g><g><use xlink:href="#dtvuPoKfP" opacity="1" fill="#000000" fill-opacity="1"></use><g><use xlink:href="#dtvuPoKfP" opacity="1" fill-opacity="0" stroke="#000000" stroke-width="0" stroke-opacity="0"></use></g></g><g><use xlink:href="#b5eiUcEhtx" opacity="1" fill="#000000" fill-opacity="1"></use><g><use xlink:href="#b5eiUcEhtx" opacity="1" fill-opacity="0" stroke="#000000" stroke-width="0" stroke-opacity="0"></use></g></g><g><use xlink:href="#asfFVEomc" opacity="1" fill="#000000" fill-opacity="1"></use><g><use xlink:href="#asfFVEomc" opacity="1" fill-opacity="0" stroke="#000000" stroke-width="0" stroke-opacity="0"></use></g></g></g></g></svg>