<svg width="832px" height="832px" viewBox="0 0 832 832" version="1.1" xmlns="http://www.w3.org/2000/svg" xmlns:xlink="http://www.w3.org/1999/xlink">
    <g id="Page-1" stroke="none" stroke-width="1" fill="none" fill-rule="evenodd">
        <g id="parity-signer" fill="#000000" fill-rule="nonzero">
            <path d="M764.560113,405.346164 L618.54298,495.840504 L618.54298,456.10795 L497.25896,456.10795 L712.806034,322.522324 L764.560113,405.346164 Z M776.621671,424.648692 L831.329617,512.199707 L319.811895,831.831454 L263.924777,742.393369 L572.67508,551.044901 L618.54298,551.044901 L618.54298,522.6182 L776.621671,424.648692 Z M251.863219,723.090841 L200.10914,640.267001 L344.073451,551.044901 L529.467929,551.044901 L251.863219,723.090841 Z M580.266488,110.414713 L635.515924,198.832293 L518.588035,271.29853 L320.672425,271.29853 L580.266488,110.414713 Z M568.20493,91.1121848 L277.465275,271.29853 L214.87666,271.29853 L214.87666,310.08792 L55.508039,408.856867 L0.180148145,320.313732 L511.69787,0.681985417 L568.20493,91.1121848 Z M67.5695971,428.159394 L214.87666,336.865617 L214.87666,366.235481 L365.40253,366.235481 L220.388819,456.10795 L215.27845,456.10795 L215.27845,459.275109 L122.819033,516.576974 L67.5695971,428.159394 Z M700.744476,303.219797 L618.14119,354.413308 L618.14119,271.29853 L561.795185,271.29853 L647.577482,218.13482 L700.744476,303.219797 Z M188.047582,620.964473 L134.880591,535.879502 L215.27845,486.052806 L215.27845,551.044901 L300.866301,551.044901 L188.047582,620.964473 Z M454.051809,456.10795 L263.595968,456.10795 L408.609679,366.235481 L599.065524,366.235481 L454.051809,456.10795 Z" id="Combined-Shape"></path>
        </g>
    </g>
</svg>
