<?xml version="1.0" encoding="UTF-8" standalone="no"?>
<svg
   xmlns:dc="http://purl.org/dc/elements/1.1/"
   xmlns:cc="http://creativecommons.org/ns#"
   xmlns:rdf="http://www.w3.org/1999/02/22-rdf-syntax-ns#"
   xmlns:svg="http://www.w3.org/2000/svg"
   xmlns="http://www.w3.org/2000/svg"
   xmlns:sodipodi="http://sodipodi.sourceforge.net/DTD/sodipodi-0.dtd"
   xmlns:inkscape="http://www.inkscape.org/namespaces/inkscape"
   width="217.19"
   height="252"
   viewBox="0 0 217.19 252"
   version="1.1"
   id="svg4200"
   inkscape:version="0.91 r13725"
   sodipodi:docname="safe-t.svg">
  <metadata
     id="metadata4215">
    <rdf:RDF>
      <cc:Work
         rdf:about="">
        <dc:format>image/svg+xml</dc:format>
        <dc:type
           rdf:resource="http://purl.org/dc/dcmitype/StillImage" />
        <dc:title>trezor</dc:title>
      </cc:Work>
    </rdf:RDF>
  </metadata>
  <sodipodi:namedview
     pagecolor="#ffffff"
     bordercolor="#666666"
     borderopacity="1"
     objecttolerance="10"
     gridtolerance="10"
     guidetolerance="10"
     inkscape:pageopacity="0"
     inkscape:pageshadow="2"
     inkscape:window-width="2560"
     inkscape:window-height="1381"
     id="namedview4213"
     showgrid="false"
     inkscape:zoom="1.8294574"
     inkscape:cx="153.14158"
     inkscape:cy="62.034553"
     inkscape:window-x="0"
     inkscape:window-y="0"
     inkscape:window-maximized="1"
     inkscape:current-layer="svg4200" />
  <!-- Generator: Sketch 48.1 (47250) - http://www.bohemiancoding.com/sketch -->
  <title
     id="title4202">trezor</title>
  <desc
     id="desc4204">Created with Sketch.</desc>
  <defs
     id="defs4206">
    <clipPath
       id="presentation_clip_path"
       clipPathUnits="userSpaceOnUse">
      <rect
         x="0"
         y="0"
         width="21000"
         height="29700"
         id="rect7" />
    </clipPath>
  </defs>
  <g
     id="Page-1"
     style="fill:none;fill-rule:evenodd;stroke:none;stroke-width:1"
     transform="translate(0,-6)">
    <g
       id="trezor"
       style="fill:#000000;fill-rule:nonzero">
      <g
         id="path7" />
    </g>
  </g>
  <g
     transform="matrix(0.03542311,0,0,0.03542311,-244.40864,-399.82064)"
     class="SlideGroup"
     id="g49">
    <g
       id="g51">
      <g
         id="id1"
         class="Slide"
         clip-path="url(#presentation_clip_path)">
        <g
           class="Page"
           id="g54">
          <g
             class="com.sun.star.drawing.ClosedBezierShape"
             id="g56">
            <g
               id="id3">
              <rect
                 style="fill:none;stroke:none"
                 class="BoundingBox"
                 x="6900"
                 y="13921"
                 width="6114"
                 height="4480"
                 id="rect59" />
              <path
                 style="fill:#000000;stroke:none"
                 inkscape:connector-curvature="0"
                 d="m 12880,15423 c 256,0 61,638 61,638 l 0,0 c -9,29 -20,53 -35,79 -4,8 -8,14 -13,22 -402,602 -2104,1772 -2705,2173 -7,5 -14,9 -22,14 -60,35 -120,51 -189,51 -70,0 -130,-16 -190,-51 -8,-5 -15,-9 -22,-14 -600,-401 -2303,-1571 -2705,-2173 -4,-8 -8,-14 -12,-21 -22,-37 -35,-71 -45,-112 -95,-400 -117,-879 -96,-1372 l 48,-735 c 0,0 1690,1634 5925,1501 z"
                 id="path61" />
            </g>
          </g>
          <g
             class="com.sun.star.drawing.ClosedBezierShape"
             id="g63">
            <g
               id="id4">
              <rect
                 style="fill:none;stroke:none"
                 class="BoundingBox"
                 x="7033"
                 y="11287"
                 width="5998"
                 height="3839"
                 id="rect66" />
              <path
                 style="fill:#000000;stroke:none"
                 inkscape:connector-curvature="0"
                 d="m 13029,14494 c -77,-1049 -318,-2109 -437,-2592 l 0,0 c -9,-37 -21,-67 -40,-99 -35,-61 -79,-105 -140,-140 -47,-27 -91,-42 -145,-49 -587,-70 -1493,-327 -2283,-327 l -12,0 c -789,0 -1694,256 -2281,327 -55,7 -100,22 -147,49 -61,36 -105,80 -141,141 -19,33 -31,63 -40,99 -83,335 -223,944 -327,1635 l 0,0 c -2,12 -3,23 -3,36 0,45 10,84 33,123 20,34 43,59 76,81 345,234 1322,801 2711,1122 1021,236 2057,283 2745,153 62,-12 113,-31 168,-62 84,-49 145,-109 193,-194 49,-84 71,-167 71,-265 0,-13 0,-24 -1,-38 z m -2621,-1387 0,0 c -21,19 -36,39 -51,64 -25,43 -36,86 -36,136 0,2 0,3 0,5 l 0,687 0,0 c 0,32 -8,58 -23,86 -16,27 -35,46 -62,62 -28,15 -54,23 -86,23 l -235,0 0,0 c -32,0 -58,-8 -85,-23 -27,-16 -47,-35 -62,-62 -16,-28 -23,-54 -23,-86 l 0,-692 0,0 c -1,-50 -13,-92 -38,-136 -16,-28 -34,-49 -58,-70 l 0,0 c -46,-42 -79,-84 -110,-138 -53,-91 -77,-180 -77,-285 0,-105 24,-194 77,-285 52,-91 118,-156 209,-209 91,-53 180,-76 285,-76 105,0 194,23 285,76 91,53 156,118 209,209 52,91 76,180 76,285 0,105 -24,194 -76,285 -33,57 -68,101 -118,144 l -1,0 z"
                 id="path68" />
            </g>
          </g>
        </g>
      </g>
    </g>
  </g>
</svg>
