<svg width="469" height="469" viewBox="0 0 469 469" fill="none" xmlns="http://www.w3.org/2000/svg">
<circle cx="234.5" cy="234.5" r="234.5" fill="#3375BB"/>
<path fill-rule="evenodd" clip-rule="evenodd" d="M227.275 79.3127C231.244 76.2291 236.801 76.2291 240.771 79.3127C286.559 114.884 338.856 114.593 358.516 114.484C359.504 114.478 360.409 114.473 361.227 114.473C364.174 114.473 366.997 115.655 369.064 117.754C371.131 119.853 372.268 122.693 372.22 125.638C371.297 182.534 368.845 223.841 364.085 254.708C359.323 285.593 352.131 306.884 341.154 323.165C330.101 339.558 315.883 349.846 299.307 359.792C293.79 363.103 288.098 366.334 282.113 369.731C269.721 376.764 256.074 384.51 240.128 395.15C236.432 397.617 231.614 397.617 227.918 395.15C211.995 384.526 198.373 376.789 186.007 369.766C180.003 366.355 174.294 363.113 168.762 359.79C152.2 349.841 138.003 339.551 126.973 323.156C116.02 306.874 108.853 285.583 104.108 254.702C99.3652 223.838 96.9244 182.533 96.0014 125.638C95.9537 122.693 97.0907 119.853 99.1574 117.754C101.224 115.655 104.047 114.473 106.994 114.473C107.803 114.473 108.699 114.478 109.678 114.484C129.182 114.593 181.483 114.886 227.275 79.3127ZM118.192 136.459C119.241 187.277 121.636 224.002 125.841 251.367C130.346 280.682 136.809 298.393 145.222 310.898C153.558 323.289 164.462 331.571 180.09 340.958C184.86 343.823 190.161 346.837 195.931 350.117C207.043 356.434 219.891 363.739 234.023 372.869C248.183 363.721 261.055 356.408 272.188 350.083C277.939 346.816 283.226 343.813 287.987 340.956C303.634 331.566 314.561 323.282 322.918 310.888C331.35 298.383 337.833 280.673 342.353 251.361C346.573 223.998 348.979 187.276 350.029 136.459C326.128 136.182 278.25 132.767 234.023 101.65C189.84 132.735 142.019 136.176 118.192 136.459Z" fill="white"/>
<path d="M179.576 222.048H167.793V254H158.329V222.048H146.761V214.74H179.576V222.048Z" fill="white"/>
<path d="M198.181 240.141H193.058V254H183.594V214.74H199.044C203.7 214.74 207.34 215.774 209.965 217.841C212.589 219.909 213.901 222.83 213.901 226.605C213.901 229.337 213.344 231.602 212.23 233.4C211.133 235.197 209.407 236.653 207.052 237.768L215.249 253.596V254H205.111L198.181 240.141ZM193.058 232.833H199.044C200.842 232.833 202.19 232.366 203.089 231.431C204.005 230.478 204.464 229.157 204.464 227.467C204.464 225.778 204.005 224.456 203.089 223.504C202.172 222.533 200.824 222.048 199.044 222.048H193.058V232.833Z" fill="white"/>
<path d="M250.41 214.74V240.437C250.41 243.349 249.79 245.875 248.55 248.014C247.31 250.135 245.53 251.753 243.211 252.868C240.892 253.982 238.151 254.539 234.987 254.539C230.205 254.539 226.44 253.299 223.689 250.818C220.939 248.338 219.537 244.94 219.483 240.626V214.74H229.001V240.815C229.109 245.111 231.104 247.259 234.987 247.259C236.946 247.259 238.43 246.72 239.436 245.641C240.443 244.563 240.946 242.81 240.946 240.383V214.74H250.41Z" fill="white"/>
<path d="M276.593 243.565C276.593 242.181 276.098 241.102 275.109 240.329C274.139 239.556 272.422 238.756 269.959 237.929C267.497 237.103 265.483 236.303 263.919 235.53C258.832 233.031 256.289 229.598 256.289 225.229C256.289 223.054 256.918 221.14 258.176 219.486C259.452 217.814 261.25 216.52 263.569 215.603C265.888 214.669 268.494 214.201 271.388 214.201C274.211 214.201 276.736 214.704 278.965 215.711C281.212 216.718 282.956 218.156 284.196 220.025C285.437 221.877 286.057 223.998 286.057 226.389H276.619C276.619 224.789 276.125 223.549 275.136 222.668C274.166 221.787 272.845 221.347 271.173 221.347C269.483 221.347 268.144 221.724 267.155 222.479C266.184 223.216 265.699 224.16 265.699 225.31C265.699 226.317 266.238 227.234 267.317 228.061C268.395 228.87 270.292 229.714 273.006 230.595C275.721 231.458 277.95 232.393 279.693 233.4C283.936 235.844 286.057 239.215 286.057 243.511C286.057 246.944 284.763 249.641 282.174 251.6C279.586 253.56 276.035 254.539 271.523 254.539C268.342 254.539 265.456 253.973 262.868 252.841C260.297 251.69 258.356 250.126 257.044 248.149C255.749 246.153 255.102 243.862 255.102 241.273H264.594C264.594 243.376 265.133 244.931 266.211 245.938C267.308 246.926 269.079 247.421 271.523 247.421C273.087 247.421 274.319 247.088 275.217 246.423C276.134 245.74 276.593 244.787 276.593 243.565Z" fill="white"/>
<path d="M321.73 222.048H309.947V254H300.483V222.048H288.915V214.74H321.73V222.048Z" fill="white"/>
</svg>
