<svg width="14" height="15" viewBox="0 0 14 15" fill="none" xmlns="http://www.w3.org/2000/svg">
<path d="M8.45708 2.83544L12.2143 6.79385L12.8332 6.19181C12.9658 6.05635 13.1721 6.0112 13.3489 6.08645C13.5257 6.14665 13.6436 6.31222 13.673 6.50788L13.9972 9.33746C14.0119 9.48797 13.9677 9.65353 13.8499 9.75889C13.732 9.86425 13.5846 9.92445 13.4373 9.89435L10.6525 9.45787C10.461 9.42777 10.3136 9.29231 10.2547 9.1117C10.1957 8.93109 10.2399 8.72037 10.3873 8.59997L11.0061 7.99793L7.8235 4.64156L6.01118 6.44767C5.86383 6.59818 5.67229 6.67344 5.466 6.68849C5.23025 6.70354 4.97977 6.61324 4.80296 6.43262L0.6626 2.06784C0.353178 1.70661 0.367912 1.16478 0.692068 0.833656C0.780474 0.74335 0.883615 0.683146 1.00149 0.637993C1.04569 0.622942 1.10463 0.607891 1.16357 0.59284C1.20777 0.59284 1.25197 0.577789 1.29618 0.577789C1.51719 0.577789 1.72347 0.668096 1.88555 0.833656L5.43654 4.5964L7.24886 2.80534C7.58775 2.47421 8.13293 2.48926 8.45708 2.83544Z" fill="#A086F7"/>
<path d="M10.1673 11.5728H12.6574C12.9226 11.5728 13.1289 11.7835 13.1289 12.0544V14.312C13.1289 14.583 12.9226 14.7937 12.6574 14.7937H10.1673C9.90208 14.7937 9.6958 14.583 9.6958 14.312V12.0544C9.6958 11.7985 9.90208 11.5728 10.1673 11.5728Z" fill="#A086F7"/>
<path d="M5.3197 9.55579H7.80976C8.07497 9.55579 8.28125 9.7665 8.28125 10.0374V14.3119C8.28125 14.5828 8.07497 14.7935 7.80976 14.7935H5.3197C5.05448 14.7935 4.84821 14.5828 4.84821 14.3119V10.0224C4.84821 9.7665 5.05448 9.55579 5.3197 9.55579Z" fill="#A086F7"/>
<path d="M0.471011 7.52417H2.96112C3.22634 7.52417 3.43262 7.73488 3.43262 8.0058V14.3121C3.43262 14.5831 3.22634 14.7938 2.96112 14.7938H0.471011C0.205792 14.7938 -0.000488281 14.5831 -0.000488281 14.3121V8.0058C-0.000488281 7.73488 0.205792 7.52417 0.471011 7.52417Z" fill="#A086F7"/>
</svg>
