<?xml version="1.0" encoding="utf-8"?>
<!-- Generator: Adobe Illustrator 22.1.0, SVG Export Plug-In . SVG Version: 6.00 Build 0)  -->
<!DOCTYPE svg PUBLIC "-//W3C//DTD SVG 1.1//EN" "http://www.w3.org/Graphics/SVG/1.1/DTD/svg11.dtd">
<svg version="1.1" id="Layer_1" xmlns="http://www.w3.org/2000/svg" xmlns:xlink="http://www.w3.org/1999/xlink" x="0px" y="0px"
	 viewBox="0 0 650 130" style="enable-background:new 0 0 650 130;" xml:space="preserve">
<style type="text/css">
	.st0{fill:#EBFFFE;}
	.st1{clip-path:url(#SVGID_2_);}
	.st2{fill:none;stroke:#CCCCCC;stroke-miterlimit:10;}
	.st3{fill:#52CACB;}
	.st4{fill:#263238;}
	.st5{fill:#FFFFFF;}
	.st6{fill:#B3B3B3;}
	.st7{fill:url(#SVGID_3_);}
	.st8{fill:#2E3192;}
	.st9{fill:url(#SVGID_4_);}
	.st10{opacity:0.3;}
	.st11{clip-path:url(#SVGID_6_);}
	.st12{fill:none;stroke:#FFFFFF;stroke-width:0.25;stroke-miterlimit:10;}
	.st13{fill:#8CC63F;}
	.st14{fill:url(#SVGID_7_);}
	.st15{fill:url(#SVGID_8_);}
	.st16{clip-path:url(#SVGID_10_);}
	.st17{fill:#36CBFF;}
</style>
<g>
	<g>
		<g>
			<g>
				<path class="st3" d="M38,121.8H11c-2.1-0.5-3.4-1.9-3.7-4.1l6.8-2.5h22.1L38,121.8z M7.5,116l2.2-21.3l1.8-1.6l4.4,4.9
					l-1.6,15.5L7.5,116z M18.8,71l-1.6,15.5l-5.5,4.9l-1.4-1.6l2.2-21.3L18.8,71z M41,69.4H19l-6.3-2.5c0.8-2.2,2.3-3.5,4.5-4.1
					h26.9L41,69.4z M38.2,89l2.9,3.3l-3.6,3.3H16.1l-2.9-3.3l3.7-3.3H38.2z"/>
				<path class="st3" d="M61.6,69.4l-6.3-2.5c0.8-2.2,2.3-3.5,4.5-4.1h26.1c2.1,0.5,3.4,1.9,3.7,4.1l-6.8,2.5H61.6z M69.6,93.1
					l2.9,3.3l-2.2,21.3c-0.8,2.2-2.3,3.5-4.5,4.1l-1.8-6.5l2-18.8L69.6,93.1z M66.9,88.2L68.7,71h6.5l-1.8,17.2l-3.7,3.3L66.9,88.2z
					"/>
				<path class="st3" d="M101,98l-1.8,17.2l-3.1,6.5c-2.1-0.5-3.4-1.9-3.7-4.1l2.4-22.9l1.8-1.6L101,98z M96.6,92.3l-1.4-1.6
					l2.4-22.9c0.8-2.2,2.3-3.5,4.5-4.1l1.8,6.5l-1.8,17.2L96.6,92.3z M123.2,89l2.9,3.3l-3.6,3.3h-21.3l-2.9-3.3L102,89H123.2z
					 M127.7,93.1l1.5,1.6l-2.4,22.9c-0.8,2.2-2.3,3.5-4.5,4.1l-1.8-6.5l1.8-17.2L127.7,93.1z M123.5,86.6l1.8-17.2l3.1-6.5
					c2.1,0.5,3.4,1.9,3.7,4.1l-2.4,22.9l-1.9,1.6L123.5,86.6z"/>
				<path class="st3" d="M156.3,108.7h-6.5l0.7-6.5h6.5L156.3,108.7z M159.1,82.5h-6.5l0.7-6.5h6.5L159.1,82.5z"/>
				<path class="st3" d="M186.1,98l-1.8,17.2l-3.1,6.5c-2.1-0.5-3.4-1.9-3.7-4.1l2.4-22.9l1.8-1.6L186.1,98z M188.9,71l-1.6,15.5
					l-5.5,4.9l-1.4-1.6l2.2-21.3L188.9,71z M208.7,69.4h-19.6l-6.3-2.5c0.8-2.2,2.3-3.5,4.5-4.1h24.5L208.7,69.4z M208.3,89l2.9,3.3
					l-3.6,3.3h-21.3l-2.9-3.3l3.7-3.3H208.3z M212.7,93.1l1.5,1.6l-2.4,22.9c-0.8,2.2-2.3,3.5-4.5,4.1l-1.8-6.5l1.8-17.2L212.7,93.1
					z M208.6,86.6l1.8-17.2l3.1-6.5c2.1,0.5,3.4,1.9,3.7,4.1l-2.4,22.9l-1.9,1.6L208.6,86.6z"/>
				<path class="st3" d="M228.6,98l-1.8,17.2l-3.1,6.5c-2.1-0.5-3.4-1.9-3.7-4.1l2.4-22.9l1.8-1.6L228.6,98z M224.4,91.5l-1.4-1.6
					l2.4-22.9c0.8-2.2,2.3-3.5,4.5-4.1l1.8,6.5l-1.8,17.2L224.4,91.5z M228.5,115.2h19.6l6.3,2.5c-0.8,2.2-2.3,3.5-4.5,4.1h-24.5
					L228.5,115.2z"/>
				<path class="st3" d="M271.2,98l-1.8,17.2l-3.1,6.5c-2.1-0.5-3.4-1.9-3.7-4.1l2.4-22.9l1.8-1.6L271.2,98z M274,71l-1.6,15.5
					l-5.5,4.9l-1.4-1.6l2.2-21.3L274,71z M293.8,69.4h-19.6l-6.3-2.5c0.8-2.2,2.3-3.5,4.5-4.1h24.5L293.8,69.4z M293.4,89l2.9,3.3
					l-3.6,3.3h-21.3l-2.9-3.3l3.7-3.3H293.4z M297.8,93.1l1.5,1.6l-2.4,22.9c-0.8,2.2-2.3,3.5-4.5,4.1l-1.8-6.5l1.8-17.2L297.8,93.1
					z M293.7,86.6l1.8-17.2l3.1-6.5c2.1,0.5,3.4,1.9,3.7,4.1l-2.4,22.9l-1.9,1.6L293.7,86.6z"/>
				<path class="st3" d="M313.7,98l-1.8,17.2l-3.1,6.5c-2.1-0.5-3.4-1.9-3.7-4.1l2.4-22.9l1.8-1.6L313.7,98z M316.6,71l-1.6,15.5
					l-5.5,4.9l-1.4-1.6l2.2-21.3L316.6,71z M336.4,69.4h-19.6l-6.3-2.5c0.8-2.2,2.3-3.5,4.5-4.1h24.5L336.4,69.4z M336,89l2.9,3.3
					l-3.6,3.3H314l-2.9-3.3l3.7-3.3H336z M315.4,97.2h4.9l19.1,21.3c-1.3,2.2-3.6,3.3-6.9,3.3l-17.6-19.6L315.4,97.2z M336.2,86.6
					l1.8-17.2l3.1-6.5c2.1,0.5,3.4,1.9,3.7,4.1l-2.4,22.9l-1.9,1.6L336.2,86.6z"/>
				<path class="st3" d="M356.3,98l-1.8,17.2l-3.1,6.5c-2.1-0.5-3.4-1.9-3.7-4.1l2.4-22.9l1.8-1.6L356.3,98z M359.1,71l-1.6,15.5
					l-5.5,4.9l-1.4-1.6l2.2-21.3L359.1,71z M378.9,69.4h-19.6l-6.3-2.5c0.8-2.2,2.3-3.5,4.5-4.1H382L378.9,69.4z M371.1,89.9
					l-3.7,3.3l-2.9-3.3l2-18.8h6.5L371.1,89.9z M382.9,93.1l1.5,1.6l-2.4,22.9c-0.8,2.2-2.3,3.5-4.5,4.1l-1.8-6.5l1.8-17.2
					L382.9,93.1z M378.8,86.6l1.8-17.2l3.1-6.5c2.1,0.5,3.4,1.9,3.7,4.1L385,89.9l-1.9,1.6L378.8,86.6z"/>
				<path class="st3" d="M411.6,108.7H405l0.7-6.5h6.5L411.6,108.7z M414.3,82.5h-6.5l0.7-6.5h6.5L414.3,82.5z"/>
				<path class="st3" d="M463.4,121.8h-27c-2.1-0.5-3.4-1.9-3.7-4.1l6.8-2.5h22.1L463.4,121.8z M432.9,116l2.2-21.3l1.8-1.6l4.4,4.9
					l-1.6,15.5L432.9,116z M444.2,71l-1.6,15.5l-5.5,4.9l-1.4-1.6l2.2-21.3L444.2,71z M466.5,69.4h-22l-6.3-2.5
					c0.8-2.2,2.3-3.5,4.5-4.1h26.9L466.5,69.4z"/>
				<path class="st3" d="M483.9,98l-1.8,17.2l-3.1,6.5c-2.1-0.5-3.4-1.9-3.7-4.1l2.4-22.9l1.8-1.6L483.9,98z M479.6,91.5l-1.4-1.6
					l2.4-22.9c0.8-2.2,2.3-3.5,4.5-4.1l1.8,6.5l-1.8,17.2L479.6,91.5z M483.7,115.2h19.6l6.3,2.5c-0.8,2.2-2.3,3.5-4.5,4.1h-24.5
					L483.7,115.2z"/>
				<path class="st3" d="M526.4,98l-1.8,17.2l-2.7,2.5l-3.7-4.1l2-18.8l1.8-1.6L526.4,98z M522.2,91.5l-1.4-1.6l2-18.8l4.5-4.1
					l2.2,2.5l-1.8,17.2L522.2,91.5z M547.2,118.5l-3.6,3.3h-18l-2.9-3.3l3.6-3.3h18L547.2,118.5z M549.1,69.4h-18l-2.9-3.3l3.6-3.3
					h18l2.9,3.3L549.1,69.4z M553.1,93.1l1.5,1.6l-2,18.8l-4.5,4.1l-2.2-2.5l1.8-17.2L553.1,93.1z M548.9,86.6l1.8-17.2l2.7-2.5
					l3.7,4.1l-2,18.8l-1.9,1.6L548.9,86.6z"/>
				<path class="st3" d="M591.1,121.8h-27c-2.1-0.5-3.4-1.9-3.7-4.1l6.8-2.5h22.1L591.1,121.8z M560.5,116l2.2-21.3l1.8-1.6L569,98
					l-1.6,15.5L560.5,116z M571.8,71l-1.6,15.5l-5.5,4.9l-1.4-1.6l2.2-21.3L571.8,71z M594.1,69.4h-22l-6.3-2.5
					c0.8-2.2,2.3-3.5,4.5-4.1h26.9L594.1,69.4z"/>
				<path class="st3" d="M611.5,98l-1.8,17.2l-3.1,6.5c-2.1-0.5-3.4-1.9-3.7-4.1l2.4-22.9l1.8-1.6L611.5,98z M607.3,91.5l-1.4-1.6
					l2.4-22.9c0.8-2.2,2.3-3.5,4.5-4.1l1.8,6.5l-1.8,17.2L607.3,91.5z M633.8,89l2.9,3.3l-3.6,3.3h-21.3l-2.9-3.3l3.7-3.3H633.8z
					 M614.8,82.5l21.7-19.6c3.3,0,5.3,1.1,6.2,3.3l-23.5,21.3h-4.9L614.8,82.5z M638.2,93.1l1.5,1.6l-2.4,22.9
					c-0.8,2.2-2.3,3.5-4.5,4.1l-1.8-6.5l1.8-17.2L638.2,93.1z"/>
			</g>
		</g>
	</g>
	<g>
		<g>
			<path class="st4" d="M30.5,33.1H20.1l-1.8,10.6H15l4.9-28h13.7c3.6,0,5.5,2.4,4.9,6l-1,5.5C36.9,30.7,34.1,33.1,30.5,33.1z
				 M35.2,21.8c0.4-2-0.7-3.2-2.6-3.2h-9.8l-2.1,11.6h9.8c2,0,3.5-1.2,3.8-3.2L35.2,21.8z"/>
			<path class="st4" d="M48.9,43.7H44c-3.6,0-5.5-2.4-4.9-6l1.6-8.9c0.6-3.6,3.4-6,7-6h4.9c3.6,0,5.6,2.4,4.9,6l-1.6,8.9
				C55.3,41.3,52.5,43.7,48.9,43.7z M54.4,28.8c0.3-2-0.6-3.2-2.6-3.2h-4.2c-2,0-3.5,1.2-3.8,3.2l-1.6,9c-0.4,2,0.7,3.2,2.7,3.2h4.2
				c2,0,3.4-1.3,3.8-3.2L54.4,28.8z"/>
			<path class="st4" d="M64.2,43.7l-2.8-20.8h3l2.2,17l8.1-17h3.1l2.1,17l8.2-17h3.2L81.1,43.7h-3.5l-2.2-16.1l-7.8,16.1H64.2z"/>
			<path class="st4" d="M108.4,37.1l-0.1,0.6c-0.6,3.6-3.4,6-7,6h-4.9c-3.6,0-5.5-2.4-4.9-6l1.6-8.9c0.6-3.6,3.4-6,7-6h4.9
				c3.6,0,5.6,2.4,4.9,6l-1,5.4H95.2l-0.6,3.5c-0.4,2,0.7,3.2,2.7,3.2h4.2c2,0,3.4-1.3,3.8-3.2l0.1-0.7H108.4z M95.6,31.8h10.6
				l0.5-3c0.3-2-0.6-3.2-2.6-3.2H100c-2,0-3.5,1.2-3.8,3.2L95.6,31.8z"/>
			<path class="st4" d="M126.8,25.6c-2,0-2.9,0.3-3.9,1.2l-5.6,4.7l-2.1,12.2h-3.1l3.6-20.8h2.4l0.1,3.4l-0.3,1.8l3.7-3.1
				c1.6-1.4,3.3-2,5.6-2L126.8,25.6z"/>
			<path class="st4" d="M143.6,37.1l-0.1,0.6c-0.6,3.6-3.4,6-7,6h-4.9c-3.6,0-5.5-2.4-4.9-6l1.6-8.9c0.6-3.6,3.4-6,7-6h4.9
				c3.6,0,5.6,2.4,4.9,6l-1,5.4h-13.7l-0.6,3.5c-0.4,2,0.7,3.2,2.7,3.2h4.2c2,0,3.4-1.3,3.8-3.2l0.1-0.7H143.6z M130.8,31.8h10.6
				l0.5-3c0.3-2-0.6-3.2-2.6-3.2h-4.2c-2,0-3.5,1.2-3.8,3.2L130.8,31.8z"/>
			<path class="st4" d="M161.5,38.5l-3.7,3.2c-1.7,1.5-3.3,2-5,2c-3.6,0-5.5-2.4-4.8-5.9l1.6-8.9c0.6-3.6,3.4-6,7-6h3
				c2.1,0,3.7,0.9,4.3,2.6l2-11.4h3.1l-5.2,29.6h-2.4l-0.1-3.4L161.5,38.5z M163.2,28.6c0.2-1.9-0.7-3.1-2.6-3.1h-4.2
				c-2,0-3.4,1.2-3.8,3.2l-1.6,9c-0.4,2,0.7,3.2,2.6,3.2c1,0,1.8-0.3,2.9-1.2l5.6-4.7L163.2,28.6z"/>
			<path class="st4" d="M186.3,28l3.7-3.2c1.8-1.5,3.3-2,5-2c3.6,0,5.5,2.4,4.9,5.9l-1.6,8.9c-0.6,3.6-3.4,6-7,6h-3
				c-2.3,0-4-1-4.6-2.8l-0.9,2.8h-2.4l5.2-29.6h3.1L186.3,28z M184.6,37.8c-0.3,2,0.6,3.2,2.6,3.2h4.2c2,0,3.5-1.2,3.8-3.2l1.6-9
				c0.4-2-0.7-3.2-2.6-3.2c-1,0-1.8,0.3-2.9,1.2l-5.6,4.8L184.6,37.8z"/>
			<path class="st4" d="M203,51.7l4.5-8h-0.2L203,22.9h3.2l3.6,17.4l9.6-17.4h3.3l-16.1,28.8H203z"/>
			<path class="st4" d="M254.7,24.7l0.5-2.9c0.4-2-0.7-3.2-2.6-3.2h-7.8c-2,0-3.5,1.2-3.8,3.2l-2.8,15.8c-0.4,2,0.7,3.2,2.6,3.2h7.8
				c2,0,3.5-1.3,3.8-3.2l0.5-2.9h3.3l-0.6,3c-0.6,3.6-3.4,6-7,6h-9c-3.6,0-5.5-2.4-4.9-6l2.8-16.1c0.6-3.6,3.4-6,7-6h9
				c3.6,0,5.5,2.4,4.9,6l-0.5,3H254.7z"/>
			<path class="st4" d="M273.6,43.7l2.6-14.9c0.4-2-0.7-3.2-2.6-3.2c-1,0-1.8,0.3-2.9,1.2l-5.6,4.7L263,43.7h-3.1l5.2-29.6h3.1
				L265.7,28l3.7-3.1c1.8-1.5,3.3-2,5-2c3.6,0,5.5,2.4,4.9,5.9l-2.6,14.9H273.6z"/>
			<path class="st4" d="M296.6,25.6c-2,0-2.9,0.3-3.9,1.2l-5.6,4.7L285,43.7h-3.1l3.6-20.8h2.4l0.1,3.4l-0.3,1.8l3.7-3.1
				c1.6-1.4,3.3-2,5.6-2L296.6,25.6z"/>
			<path class="st4" d="M306.3,43.7h-4.9c-3.6,0-5.5-2.4-4.9-6l1.6-8.9c0.6-3.6,3.4-6,7-6h4.9c3.6,0,5.6,2.4,4.9,6l-1.6,8.9
				C312.7,41.3,309.9,43.7,306.3,43.7z M311.8,28.8c0.3-2-0.6-3.2-2.6-3.2H305c-2,0-3.5,1.2-3.8,3.2l-1.6,9c-0.4,2,0.7,3.2,2.7,3.2
				h4.2c2,0,3.4-1.3,3.8-3.2L311.8,28.8z"/>
			<path class="st4" d="M330.8,43.7l2.6-14.9c0.4-2-0.7-3.2-2.6-3.2c-1,0-1.8,0.3-2.9,1.2l-5.6,4.7l-2.1,12.2h-3.1l3.6-20.8h2.4
				l0.1,3.4l-0.3,1.8l3.7-3.1c1.7-1.5,3.3-2,5-2c3.6,0,5.5,2.4,4.9,5.9l-2.6,14.9H330.8z"/>
			<path class="st4" d="M349.6,43.7h-4.9c-3.6,0-5.5-2.4-4.9-6l1.6-8.9c0.6-3.6,3.4-6,7-6h4.9c3.6,0,5.6,2.4,4.9,6l-1.6,8.9
				C356,41.3,353.2,43.7,349.6,43.7z M355.1,28.8c0.3-2-0.6-3.2-2.6-3.2h-4.2c-2,0-3.5,1.2-3.8,3.2l-1.6,9c-0.4,2,0.7,3.2,2.7,3.2
				h4.2c2,0,3.4-1.3,3.8-3.2L355.1,28.8z"/>
			<path class="st4" d="M365.3,15.7h3.3l-4.4,25.1h14.8l-0.5,2.9h-18.1L365.3,15.7z"/>
			<path class="st4" d="M392.1,43.7h-4.9c-3.6,0-5.5-2.4-4.9-6l1.6-8.9c0.6-3.6,3.4-6,7-6h4.9c3.6,0,5.6,2.4,4.9,6l-1.6,8.9
				C398.5,41.3,395.7,43.7,392.1,43.7z M397.6,28.8c0.3-2-0.6-3.2-2.6-3.2h-4.2c-2,0-3.5,1.2-3.8,3.2l-1.6,9c-0.4,2,0.7,3.2,2.7,3.2
				h4.2c2,0,3.4-1.3,3.8-3.2L397.6,28.8z"/>
			<path class="st4" d="M417.1,38.5l-3.7,3.2c-1.8,1.5-3.3,2-5,2c-3.6,0-5.5-2.4-4.8-5.9l1.6-8.9c0.6-3.6,3.4-6,7-6h3
				c2.3,0,4,1,4.5,2.8l0.9-2.8h2.4l-4,22.8c-0.6,3.6-3.5,6-7,6h-5c-3.6,0-5.6-2.4-4.9-6l0.1-0.6h3.1l-0.1,0.7
				c-0.4,2,0.6,3.2,2.6,3.2h4.2c2,0,3.5-1.2,3.8-3.2L417.1,38.5z M418.8,28.8c0.3-2-0.7-3.2-2.6-3.2H412c-2,0-3.4,1.2-3.8,3.2
				l-1.6,9c-0.4,2,0.7,3.2,2.6,3.2c1,0,1.8-0.2,2.9-1.2l5.6-4.7L418.8,28.8z"/>
			<path class="st4" d="M428.2,22.9h3.1l-3.6,20.8h-3.1L428.2,22.9z M429.5,15.4h3.1l-0.8,4.5h-3.1L429.5,15.4z"/>
			<path class="st4" d="M450.5,36.7l-0.2,1c-0.6,3.6-3.4,6-7,6h-4.9c-3.6,0-5.5-2.4-4.9-6l1.6-8.9c0.6-3.6,3.4-6,7-6h4.9
				c3.6,0,5.6,2.4,4.9,6l-0.2,1h-3.1l0.2-1.1c0.3-2-0.6-3.2-2.6-3.2H442c-2,0-3.5,1.2-3.8,3.2l-1.6,9c-0.4,2,0.7,3.2,2.7,3.2h4.2
				c2,0,3.4-1.3,3.8-3.2l0.2-1.1H450.5z"/>
		</g>
	</g>
</g>
<g>
	<g>
		<g>
			<g>
				<path class="st3" d="M38,121.8H11c-2.1-0.5-3.4-1.9-3.7-4.1l6.8-2.5h22.1L38,121.8z M7.5,116l2.2-21.3l1.8-1.6l4.4,4.9
					l-1.6,15.5L7.5,116z M18.8,71l-1.6,15.5l-5.5,4.9l-1.4-1.6l2.2-21.3L18.8,71z M41,69.4H19l-6.3-2.5c0.8-2.2,2.3-3.5,4.5-4.1
					h26.9L41,69.4z M38.2,89l2.9,3.3l-3.6,3.3H16.1l-2.9-3.3l3.7-3.3H38.2z"/>
				<path class="st3" d="M61.6,69.4l-6.3-2.5c0.8-2.2,2.3-3.5,4.5-4.1h26.1c2.1,0.5,3.4,1.9,3.7,4.1l-6.8,2.5H61.6z M69.6,93.1
					l2.9,3.3l-2.2,21.3c-0.8,2.2-2.3,3.5-4.5,4.1l-1.8-6.5l2-18.8L69.6,93.1z M66.9,88.2L68.7,71h6.5l-1.8,17.2l-3.7,3.3L66.9,88.2z
					"/>
				<path class="st3" d="M101,98l-1.8,17.2l-3.1,6.5c-2.1-0.5-3.4-1.9-3.7-4.1l2.4-22.9l1.8-1.6L101,98z M96.6,92.3l-1.4-1.6
					l2.4-22.9c0.8-2.2,2.3-3.5,4.5-4.1l1.8,6.5l-1.8,17.2L96.6,92.3z M123.2,89l2.9,3.3l-3.6,3.3h-21.3l-2.9-3.3L102,89H123.2z
					 M127.7,93.1l1.5,1.6l-2.4,22.9c-0.8,2.2-2.3,3.5-4.5,4.1l-1.8-6.5l1.8-17.2L127.7,93.1z M123.5,86.6l1.8-17.2l3.1-6.5
					c2.1,0.5,3.4,1.9,3.7,4.1l-2.4,22.9l-1.9,1.6L123.5,86.6z"/>
				<path class="st3" d="M156.3,108.7h-6.5l0.7-6.5h6.5L156.3,108.7z M159.1,82.5h-6.5l0.7-6.5h6.5L159.1,82.5z"/>
				<path class="st3" d="M186.1,98l-1.8,17.2l-3.1,6.5c-2.1-0.5-3.4-1.9-3.7-4.1l2.4-22.9l1.8-1.6L186.1,98z M188.9,71l-1.6,15.5
					l-5.5,4.9l-1.4-1.6l2.2-21.3L188.9,71z M208.7,69.4h-19.6l-6.3-2.5c0.8-2.2,2.3-3.5,4.5-4.1h24.5L208.7,69.4z M208.3,89l2.9,3.3
					l-3.6,3.3h-21.3l-2.9-3.3l3.7-3.3H208.3z M212.7,93.1l1.5,1.6l-2.4,22.9c-0.8,2.2-2.3,3.5-4.5,4.1l-1.8-6.5l1.8-17.2L212.7,93.1
					z M208.6,86.6l1.8-17.2l3.1-6.5c2.1,0.5,3.4,1.9,3.7,4.1l-2.4,22.9l-1.9,1.6L208.6,86.6z"/>
				<path class="st3" d="M228.6,98l-1.8,17.2l-3.1,6.5c-2.1-0.5-3.4-1.9-3.7-4.1l2.4-22.9l1.8-1.6L228.6,98z M224.4,91.5l-1.4-1.6
					l2.4-22.9c0.8-2.2,2.3-3.5,4.5-4.1l1.8,6.5l-1.8,17.2L224.4,91.5z M228.5,115.2h19.6l6.3,2.5c-0.8,2.2-2.3,3.5-4.5,4.1h-24.5
					L228.5,115.2z"/>
				<path class="st3" d="M271.2,98l-1.8,17.2l-3.1,6.5c-2.1-0.5-3.4-1.9-3.7-4.1l2.4-22.9l1.8-1.6L271.2,98z M274,71l-1.6,15.5
					l-5.5,4.9l-1.4-1.6l2.2-21.3L274,71z M293.8,69.4h-19.6l-6.3-2.5c0.8-2.2,2.3-3.5,4.5-4.1h24.5L293.8,69.4z M293.4,89l2.9,3.3
					l-3.6,3.3h-21.3l-2.9-3.3l3.7-3.3H293.4z M297.8,93.1l1.5,1.6l-2.4,22.9c-0.8,2.2-2.3,3.5-4.5,4.1l-1.8-6.5l1.8-17.2L297.8,93.1
					z M293.7,86.6l1.8-17.2l3.1-6.5c2.1,0.5,3.4,1.9,3.7,4.1l-2.4,22.9l-1.9,1.6L293.7,86.6z"/>
				<path class="st3" d="M313.7,98l-1.8,17.2l-3.1,6.5c-2.1-0.5-3.4-1.9-3.7-4.1l2.4-22.9l1.8-1.6L313.7,98z M316.6,71l-1.6,15.5
					l-5.5,4.9l-1.4-1.6l2.2-21.3L316.6,71z M336.4,69.4h-19.6l-6.3-2.5c0.8-2.2,2.3-3.5,4.5-4.1h24.5L336.4,69.4z M336,89l2.9,3.3
					l-3.6,3.3H314l-2.9-3.3l3.7-3.3H336z M315.4,97.2h4.9l19.1,21.3c-1.3,2.2-3.6,3.3-6.9,3.3l-17.6-19.6L315.4,97.2z M336.2,86.6
					l1.8-17.2l3.1-6.5c2.1,0.5,3.4,1.9,3.7,4.1l-2.4,22.9l-1.9,1.6L336.2,86.6z"/>
				<path class="st3" d="M356.3,98l-1.8,17.2l-3.1,6.5c-2.1-0.5-3.4-1.9-3.7-4.1l2.4-22.9l1.8-1.6L356.3,98z M359.1,71l-1.6,15.5
					l-5.5,4.9l-1.4-1.6l2.2-21.3L359.1,71z M378.9,69.4h-19.6l-6.3-2.5c0.8-2.2,2.3-3.5,4.5-4.1H382L378.9,69.4z M371.1,89.9
					l-3.7,3.3l-2.9-3.3l2-18.8h6.5L371.1,89.9z M382.9,93.1l1.5,1.6l-2.4,22.9c-0.8,2.2-2.3,3.5-4.5,4.1l-1.8-6.5l1.8-17.2
					L382.9,93.1z M378.8,86.6l1.8-17.2l3.1-6.5c2.1,0.5,3.4,1.9,3.7,4.1L385,89.9l-1.9,1.6L378.8,86.6z"/>
				<path class="st3" d="M411.6,108.7H405l0.7-6.5h6.5L411.6,108.7z M414.3,82.5h-6.5l0.7-6.5h6.5L414.3,82.5z"/>
				<path class="st3" d="M463.4,121.8h-27c-2.1-0.5-3.4-1.9-3.7-4.1l6.8-2.5h22.1L463.4,121.8z M432.9,116l2.2-21.3l1.8-1.6l4.4,4.9
					l-1.6,15.5L432.9,116z M444.2,71l-1.6,15.5l-5.5,4.9l-1.4-1.6l2.2-21.3L444.2,71z M466.5,69.4h-22l-6.3-2.5
					c0.8-2.2,2.3-3.5,4.5-4.1h26.9L466.5,69.4z"/>
				<path class="st3" d="M483.9,98l-1.8,17.2l-3.1,6.5c-2.1-0.5-3.4-1.9-3.7-4.1l2.4-22.9l1.8-1.6L483.9,98z M479.6,91.5l-1.4-1.6
					l2.4-22.9c0.8-2.2,2.3-3.5,4.5-4.1l1.8,6.5l-1.8,17.2L479.6,91.5z M483.7,115.2h19.6l6.3,2.5c-0.8,2.2-2.3,3.5-4.5,4.1h-24.5
					L483.7,115.2z"/>
				<path class="st3" d="M526.4,98l-1.8,17.2l-2.7,2.5l-3.7-4.1l2-18.8l1.8-1.6L526.4,98z M522.2,91.5l-1.4-1.6l2-18.8l4.5-4.1
					l2.2,2.5l-1.8,17.2L522.2,91.5z M547.2,118.5l-3.6,3.3h-18l-2.9-3.3l3.6-3.3h18L547.2,118.5z M549.1,69.4h-18l-2.9-3.3l3.6-3.3
					h18l2.9,3.3L549.1,69.4z M553.1,93.1l1.5,1.6l-2,18.8l-4.5,4.1l-2.2-2.5l1.8-17.2L553.1,93.1z M548.9,86.6l1.8-17.2l2.7-2.5
					l3.7,4.1l-2,18.8l-1.9,1.6L548.9,86.6z"/>
				<path class="st3" d="M591.1,121.8h-27c-2.1-0.5-3.4-1.9-3.7-4.1l6.8-2.5h22.1L591.1,121.8z M560.5,116l2.2-21.3l1.8-1.6L569,98
					l-1.6,15.5L560.5,116z M571.8,71l-1.6,15.5l-5.5,4.9l-1.4-1.6l2.2-21.3L571.8,71z M594.1,69.4h-22l-6.3-2.5
					c0.8-2.2,2.3-3.5,4.5-4.1h26.9L594.1,69.4z"/>
				<path class="st3" d="M611.5,98l-1.8,17.2l-3.1,6.5c-2.1-0.5-3.4-1.9-3.7-4.1l2.4-22.9l1.8-1.6L611.5,98z M607.3,91.5l-1.4-1.6
					l2.4-22.9c0.8-2.2,2.3-3.5,4.5-4.1l1.8,6.5l-1.8,17.2L607.3,91.5z M633.8,89l2.9,3.3l-3.6,3.3h-21.3l-2.9-3.3l3.7-3.3H633.8z
					 M614.8,82.5l21.7-19.6c3.3,0,5.3,1.1,6.2,3.3l-23.5,21.3h-4.9L614.8,82.5z M638.2,93.1l1.5,1.6l-2.4,22.9
					c-0.8,2.2-2.3,3.5-4.5,4.1l-1.8-6.5l1.8-17.2L638.2,93.1z"/>
			</g>
		</g>
	</g>
</g>
</svg>
