<?xml version="1.0" encoding="UTF-8" standalone="no"?>
<svg
   xmlns:dc="http://purl.org/dc/elements/1.1/"
   xmlns:cc="http://creativecommons.org/ns#"
   xmlns:rdf="http://www.w3.org/1999/02/22-rdf-syntax-ns#"
   xmlns:svg="http://www.w3.org/2000/svg"
   xmlns="http://www.w3.org/2000/svg"
   xmlns:xlink="http://www.w3.org/1999/xlink"
   id="svg1766"
   version="1.1"
   viewBox="0 0 366 603"
   height="603px"
   width="366px">
  <metadata
     id="metadata1770">
    <rdf:RDF>
      <cc:Work
         rdf:about="">
        <dc:format>image/svg+xml</dc:format>
        <dc:type
           rdf:resource="http://purl.org/dc/dcmitype/StillImage" />
        <dc:title></dc:title>
      </cc:Work>
    </rdf:RDF>
  </metadata>
  <!-- Generator: sketchtool 53.2 (72643) - https://sketchapp.com -->
  <desc
     id="desc1562">Created with sketchtool.</desc>
  <defs
     id="defs1654">
    <rect
       rx="2.349"
       height="528"
       width="335"
       y="0"
       x="0"
       id="path-1" />
    <filter
       id="filter-2"
       filterUnits="objectBoundingBox"
       height="105.7%"
       width="109.0%"
       y="-2.8%"
       x="-4.5%">
      <feOffset
         id="feOffset1565"
         result="shadowOffsetOuter1"
         in="SourceAlpha"
         dy="0"
         dx="0" />
      <feGaussianBlur
         id="feGaussianBlur1567"
         result="shadowBlurOuter1"
         in="shadowOffsetOuter1"
         stdDeviation="5" />
      <feColorMatrix
         id="feColorMatrix1569"
         result="shadowMatrixOuter1"
         in="shadowBlurOuter1"
         type="matrix"
         values="0 0 0 0 0.196078431   0 0 0 0 0.196078431   0 0 0 0 0.364705882  0 0 0 0.1 0" />
      <feOffset
         id="feOffset1571"
         result="shadowOffsetOuter2"
         in="SourceAlpha"
         dy="3"
         dx="0" />
      <feGaussianBlur
         id="feGaussianBlur1573"
         result="shadowBlurOuter2"
         in="shadowOffsetOuter2"
         stdDeviation="2" />
      <feColorMatrix
         id="feColorMatrix1575"
         result="shadowMatrixOuter2"
         in="shadowBlurOuter2"
         type="matrix"
         values="0 0 0 0 0   0 0 0 0 0   0 0 0 0 0  0 0 0 0.07 0" />
      <feMerge
         id="feMerge1581">
        <feMergeNode
           id="feMergeNode1577"
           in="shadowMatrixOuter1" />
        <feMergeNode
           id="feMergeNode1579"
           in="shadowMatrixOuter2" />
      </feMerge>
    </filter>
    <rect
       rx="1.2"
       height="30"
       width="251.381595"
       y="0"
       x="0"
       id="path-3" />
    <filter
       id="filter-4"
       filterUnits="objectBoundingBox"
       height="115.3%"
       width="101.8%"
       y="-4.3%"
       x="-0.9%">
      <feMorphology
         id="feMorphology1585"
         result="shadowSpreadOuter1"
         in="SourceAlpha"
         operator="dilate"
         radius="0.3" />
      <feOffset
         id="feOffset1587"
         result="shadowOffsetOuter1"
         in="shadowSpreadOuter1"
         dy="1"
         dx="0" />
      <feGaussianBlur
         id="feGaussianBlur1589"
         result="shadowBlurOuter1"
         in="shadowOffsetOuter1"
         stdDeviation="0.5" />
      <feComposite
         id="feComposite1591"
         result="shadowBlurOuter1"
         operator="out"
         in2="SourceAlpha"
         in="shadowBlurOuter1" />
      <feColorMatrix
         id="feColorMatrix1593"
         in="shadowBlurOuter1"
         type="matrix"
         values="0 0 0 0 0.909803922   0 0 0 0 0.917647059   0 0 0 0 0.929411765  0 0 0 0.5 0" />
    </filter>
    <filter
       id="filter-5"
       filterUnits="objectBoundingBox"
       height="118.7%"
       width="102.2%"
       y="-6.0%"
       x="-1.1%">
      <feGaussianBlur
         id="feGaussianBlur1596"
         result="shadowBlurInner1"
         in="SourceAlpha"
         stdDeviation="1" />
      <feOffset
         id="feOffset1598"
         result="shadowOffsetInner1"
         in="shadowBlurInner1"
         dy="1"
         dx="0" />
      <feComposite
         id="feComposite1600"
         result="shadowInnerInner1"
         k3="1"
         k2="-1"
         operator="arithmetic"
         in2="SourceAlpha"
         in="shadowOffsetInner1" />
      <feColorMatrix
         id="feColorMatrix1602"
         in="shadowInnerInner1"
         type="matrix"
         values="0 0 0 0 0.909803922   0 0 0 0 0.917647059   0 0 0 0 0.929411765  0 0 0 0.5 0" />
    </filter>
    <rect
       rx="1.2"
       height="30"
       width="251.381595"
       y="0"
       x="0"
       id="path-6" />
    <filter
       id="filter-7"
       filterUnits="objectBoundingBox"
       height="115.3%"
       width="101.8%"
       y="-4.3%"
       x="-0.9%">
      <feMorphology
         id="feMorphology1606"
         result="shadowSpreadOuter1"
         in="SourceAlpha"
         operator="dilate"
         radius="0.3" />
      <feOffset
         id="feOffset1608"
         result="shadowOffsetOuter1"
         in="shadowSpreadOuter1"
         dy="1"
         dx="0" />
      <feGaussianBlur
         id="feGaussianBlur1610"
         result="shadowBlurOuter1"
         in="shadowOffsetOuter1"
         stdDeviation="0.5" />
      <feComposite
         id="feComposite1612"
         result="shadowBlurOuter1"
         operator="out"
         in2="SourceAlpha"
         in="shadowBlurOuter1" />
      <feColorMatrix
         id="feColorMatrix1614"
         in="shadowBlurOuter1"
         type="matrix"
         values="0 0 0 0 0.909803922   0 0 0 0 0.917647059   0 0 0 0 0.929411765  0 0 0 0.5 0" />
    </filter>
    <filter
       id="filter-8"
       filterUnits="objectBoundingBox"
       height="118.7%"
       width="102.2%"
       y="-6.0%"
       x="-1.1%">
      <feGaussianBlur
         id="feGaussianBlur1617"
         result="shadowBlurInner1"
         in="SourceAlpha"
         stdDeviation="1" />
      <feOffset
         id="feOffset1619"
         result="shadowOffsetInner1"
         in="shadowBlurInner1"
         dy="1"
         dx="0" />
      <feComposite
         id="feComposite1621"
         result="shadowInnerInner1"
         k3="1"
         k2="-1"
         operator="arithmetic"
         in2="SourceAlpha"
         in="shadowOffsetInner1" />
      <feColorMatrix
         id="feColorMatrix1623"
         in="shadowInnerInner1"
         type="matrix"
         values="0 0 0 0 0.909803922   0 0 0 0 0.917647059   0 0 0 0 0.929411765  0 0 0 0.5 0" />
    </filter>
    <path
       id="path-9"
       d="M1.8,0 L255.260465,0 C256.254578,-1.82615513e-16 257.060465,0.80588745 257.060465,1.8 L257.060465,27.9931034 C257.060465,28.987216 256.254578,29.7931034 255.260465,29.7931034 L1.8,29.7931034 C0.80588745,29.7931034 1.16680631e-14,28.987216 1.15463195e-14,27.9931034 L0,1.8 C-1.21743675e-16,0.80588745 0.80588745,1.07079393e-15 1.8,8.8817842e-16 Z" />
    <filter
       id="filter-10"
       filterUnits="objectBoundingBox"
       height="123.5%"
       width="102.7%"
       y="-8.4%"
       x="-1.4%">
      <feOffset
         id="feOffset1627"
         result="shadowOffsetOuter1"
         in="SourceAlpha"
         dy="0"
         dx="0" />
      <feGaussianBlur
         id="feGaussianBlur1629"
         result="shadowBlurOuter1"
         in="shadowOffsetOuter1"
         stdDeviation="0.5" />
      <feColorMatrix
         id="feColorMatrix1631"
         result="shadowMatrixOuter1"
         in="shadowBlurOuter1"
         type="matrix"
         values="0 0 0 0 0.196078431   0 0 0 0 0.196078431   0 0 0 0 0.364705882  0 0 0 0.03 0" />
      <feOffset
         id="feOffset1633"
         result="shadowOffsetOuter2"
         in="SourceAlpha"
         dy="1"
         dx="0" />
      <feGaussianBlur
         id="feGaussianBlur1635"
         result="shadowBlurOuter2"
         in="shadowOffsetOuter2"
         stdDeviation="0.5" />
      <feColorMatrix
         id="feColorMatrix1637"
         result="shadowMatrixOuter2"
         in="shadowBlurOuter2"
         type="matrix"
         values="0 0 0 0 0.196078431   0 0 0 0 0.196078431   0 0 0 0 0.364705882  0 0 0 0.05 0" />
      <feOffset
         id="feOffset1639"
         result="shadowOffsetOuter3"
         in="SourceAlpha"
         dy="1"
         dx="0" />
      <feGaussianBlur
         id="feGaussianBlur1641"
         result="shadowBlurOuter3"
         in="shadowOffsetOuter3"
         stdDeviation="1" />
      <feColorMatrix
         id="feColorMatrix1643"
         result="shadowMatrixOuter3"
         in="shadowBlurOuter3"
         type="matrix"
         values="0 0 0 0 0.196078431   0 0 0 0 0.196078431   0 0 0 0 0.364705882  0 0 0 0.1 0" />
      <feMerge
         id="feMerge1651">
        <feMergeNode
           id="feMergeNode1645"
           in="shadowMatrixOuter1" />
        <feMergeNode
           id="feMergeNode1647"
           in="shadowMatrixOuter2" />
        <feMergeNode
           id="feMergeNode1649"
           in="shadowMatrixOuter3" />
      </feMerge>
    </filter>
  </defs>
  <g
     style="fill:none;fill-rule:evenodd;stroke:none;stroke-width:1"
     transform="translate(6)"
     id="Homepage">
    <g
       transform="translate(-9,-3202)"
       id="Homepage---Mobile">
      <g
         transform="translate(19,3212)"
         id="Group-25">
        <circle
           style="fill:#a682ff;fill-opacity:0.61481096"
           r="82"
           cy="511"
           cx="319"
           id="Oval" />
        <g
           id="Group-22">
          <g
             id="Group-10">
            <g
               id="card">
              <use
                 height="100%"
                 width="100%"
                 y="0"
                 x="0"
                 style="fill:#000000;fill-opacity:1;filter:url(#filter-2)"
                 id="use1657"
                 xlink:href="#path-1" />
              <use
                 height="100%"
                 width="100%"
                 y="0"
                 x="0"
                 style="fill:#ffffff;fill-rule:evenodd"
                 id="use1659"
                 xlink:href="#path-1" />
            </g>
          </g>
          <text
             style="font-weight:bold;font-size:19.20000076px;font-family:Lato-Bold, Lato;fill:#163150"
             font-weight="bold"
             font-size="19.2"
             id="Create-PIN-to-Lock-Y">
            <tspan
               id="tspan1663"
               y="193"
               x="86.523201">Create PIN to Lock</tspan>
            <tspan
               id="tspan1665"
               y="216"
               x="115.424">Your Screen</tspan>
          </text>
          <text
             style="font-weight:normal;font-size:10.80000019px;font-family:Lato-Regular, Lato;fill:#333333"
             line-spacing="16.2"
             font-weight="normal"
             font-size="10.8"
             id="We-want-to-help-you">
            <tspan
               id="tspan1668"
               y="241"
               x="49.049999">We want to help you keep your funds private! This</tspan>
            <tspan
               id="tspan1670"
               y="257.20001"
               x="48.375">screenlock PIN will encrypt your local data to keep</tspan>
            <tspan
               id="tspan1672"
               y="273.39999"
               x="45.496799">funds safe incase someone else uses your computer.</tspan>
          </text>
          <g
             transform="translate(40,299)"
             id="Content">
            <g
               transform="translate(0.4,0.4)"
               id="Network">
              <text
                 style="font-weight:normal;font-size:9px;font-family:Lato-Regular, Lato;fill:#163150"
                 font-weight="normal"
                 font-size="9"
                 id="PIN-(min-8-character">
                <tspan
                   id="tspan1675"
                   y="9"
                   x="0">PIN (min 8 characters)</tspan>
              </text>
              <g
                 transform="translate(0,16.2)"
                 id="dropdown">
                <g
                   id="Rectangle">
                  <use
                     height="100%"
                     width="100%"
                     y="0"
                     x="0"
                     style="fill:#000000;fill-opacity:1;filter:url(#filter-4)"
                     id="use1678"
                     xlink:href="#path-3" />
                  <use
                     height="100%"
                     width="100%"
                     y="0"
                     x="0"
                     style="fill:#ffffff;fill-rule:evenodd"
                     id="use1680"
                     xlink:href="#path-3" />
                  <use
                     height="100%"
                     width="100%"
                     y="0"
                     x="0"
                     style="fill:#000000;fill-opacity:1;filter:url(#filter-5)"
                     id="use1682"
                     xlink:href="#path-3" />
                  <use
                     height="100%"
                     width="100%"
                     y="0"
                     x="0"
                     style="stroke:#e8eaed;stroke-width:0.60000002"
                     id="use1684"
                     xlink:href="#path-3" />
                </g>
              </g>
            </g>
            <g
               transform="translate(0.4,55.4)"
               id="Network-Copy">
              <text
                 style="font-weight:normal;font-size:9px;font-family:Lato-Regular, Lato;fill:#163150"
                 font-weight="normal"
                 font-size="9"
                 id="Confirm-PIN">
                <tspan
                   id="tspan1689"
                   y="9"
                   x="0">Confirm PIN</tspan>
              </text>
              <g
                 transform="translate(0,16.2)"
                 id="g1702">
                <g
                   id="g1700">
                  <use
                     height="100%"
                     width="100%"
                     y="0"
                     x="0"
                     style="fill:#000000;fill-opacity:1;filter:url(#filter-7)"
                     id="use1692"
                     xlink:href="#path-6" />
                  <use
                     height="100%"
                     width="100%"
                     y="0"
                     x="0"
                     style="fill:#ffffff;fill-rule:evenodd"
                     id="use1694"
                     xlink:href="#path-6" />
                  <use
                     height="100%"
                     width="100%"
                     y="0"
                     x="0"
                     style="fill:#000000;fill-opacity:1;filter:url(#filter-8)"
                     id="use1696"
                     xlink:href="#path-6" />
                  <use
                     height="100%"
                     width="100%"
                     y="0"
                     x="0"
                     style="stroke:#e8eaed;stroke-width:0.60000002"
                     id="use1698"
                     xlink:href="#path-6" />
                </g>
              </g>
            </g>
          </g>
          <g
             transform="translate(40,416)"
             id="buttons/primary">
            <g
               id="send">
              <g
                 id="Rectangle-3">
                <use
                   height="100%"
                   width="100%"
                   y="0"
                   x="0"
                   style="fill:#000000;fill-opacity:1;filter:url(#filter-10)"
                   id="use1706"
                   xlink:href="#path-9" />
                <use
                   height="100%"
                   width="100%"
                   y="0"
                   x="0"
                   style="fill:#027796;fill-rule:evenodd"
                   id="use1708"
                   xlink:href="#path-9" />
              </g>
              <text
                 style="font-weight:bold;font-size:10.80000019px;font-family:Lato-Bold, Lato;fill:#ffffff"
                 font-weight="bold"
                 font-size="10.8"
                 id="text">
                <tspan
                   id="tspan1711"
                   y="19.293104"
                   x="101.81913">Create PIN</tspan>
              </text>
            </g>
          </g>
          <text
             style="font-weight:normal;font-size:9.60000038px;font-family:Lato-Regular, Lato"
             font-weight="normal"
             font-size="9.6"
             id="Not-sure-what-Screen">
            <tspan
               style="fill:#163150"
               id="tspan1716"
               y="464"
               x="80.776802">Not sure what Screenlock is?</tspan>
            <tspan
               style="fill:#1eb8e7"
               id="tspan1718"
               y="464"
               x="202.3512">Learn more.</tspan>
          </text>
          <g
             transform="translate(129,66)"
             id="icn-create-pw">
            <path
               style="fill:#1eb8e7"
               id="Path"
               d="M 0.59210526,27.819 H 59.802632 v 20.9484 c 0,13.581566 -10.974915,24.5916 -24.513158,24.5916 H 25.105263 C 11.56702,73.359 0.59210526,62.348966 0.59210526,48.7674 Z" />
            <path
               style="opacity:0.25;fill:#ffffff"
               id="path1722"
               d="m 8.4868421,33.759 v 16.83 c 0,12.575524 10.1619579,22.77 22.6973679,22.77 H 25.263158 C 11.629462,73.304513 0.60286067,62.207228 0.59210526,48.5298 V 27.819 Z" />
            <path
               style="stroke:#163150;stroke-width:3.96000004;stroke-linecap:round;stroke-linejoin:round"
               id="path1724"
               d="M 0.59210526,27.819 H 59.802632 v 20.9484 c 0,13.581566 -10.974915,24.5916 -24.513158,24.5916 H 25.105263 C 11.56702,73.359 0.59210526,62.348966 0.59210526,48.7674 Z" />
            <path
               style="fill:#0c9fe1"
               id="path1726"
               d="m 59.802632,26.829 c -0.02157,3.818336 -3.101739,6.908366 -6.907895,6.93 H 7.5 c -3.8151249,0 -6.90789474,-3.102667 -6.90789474,-6.93 C 0.61367041,23.010664 3.6938435,19.920634 7.5,19.899 h 45.394737 c 3.806156,0.02163 6.886329,3.111664 6.907895,6.93 z" />
            <path
               style="fill:#007fc6;fill-rule:nonzero"
               id="Shape"
               d="M 14.407895,29.799 V 19.8 h 19.736842 l -15.789474,9.9 z m 38.486842,-9.9 -8.881579,-4.5e-5 V 29.799 h 3.947368 l 10.717106,-6.732 c -1.258746,-1.980778 -3.441344,-3.176454 -5.782895,-3.168 z" />
            <rect
               style="stroke:#163150;stroke-width:3.96000004;stroke-linecap:round;stroke-linejoin:round"
               rx="6.9299998"
               height="13.86"
               width="59.210526"
               y="19.899"
               x="0.59210527"
               id="rect1729" />
            <path
               style="fill:#0c9fe1;fill-rule:nonzero"
               id="path1731"
               d="M 22.18421,49.599 H 16.5 C 15.35659,49.588479 14.42922,48.666917 14.407895,47.52 V 41.7978 C 14.418602,40.643143 15.349027,39.709742 16.5,39.699 h 5.68421 c 1.150974,0.01074 2.081398,0.944143 2.092106,2.0988 V 47.52 c -0.02133,1.146917 -0.948696,2.068479 -2.092106,2.079 z M 36.118421,47.52 V 41.7978 C 36.107714,40.643143 35.177289,39.709742 34.026316,39.699 H 28.342105 C 27.191132,39.709742 26.260707,40.643143 26.25,41.7978 V 47.52 c 0.01071,1.154657 0.941132,2.088058 2.092105,2.0988 h 5.684211 c 1.150973,-0.01074 2.081398,-0.944143 2.092105,-2.0988 z m 11.842105,0 V 41.7978 C 47.949819,40.643143 47.019395,39.709742 45.868421,39.699 H 40.18421 c -1.150973,0.01074 -2.081397,0.944143 -2.092105,2.0988 V 47.52 c 0.01071,1.154657 0.941132,2.088058 2.092105,2.0988 h 5.684211 c 1.150974,-0.01074 2.081398,-0.944143 2.092105,-2.0988 z M 24.276316,59.4 V 53.6778 C 24.265608,52.523143 23.335184,51.589742 22.18421,51.579 H 16.5 c -1.150973,0.01074 -2.081398,0.944143 -2.092105,2.0988 V 59.4 c 0.01071,1.154657 0.941132,2.088058 2.092105,2.0988 h 5.68421 c 1.150974,-0.01074 2.081398,-0.944143 2.092106,-2.0988 z m 11.842105,0 V 53.6778 C 36.107714,52.523143 35.177289,51.589742 34.026316,51.579 H 28.342105 C 27.191132,51.589742 26.260707,52.523143 26.25,53.6778 V 59.4 c 0.01071,1.154657 0.941132,2.088058 2.092105,2.0988 h 5.684211 c 1.150973,-0.01074 2.081398,-0.944143 2.092105,-2.0988 z m 11.842105,0 V 53.6778 C 47.949819,52.523143 47.019395,51.589742 45.868421,51.579 H 40.18421 c -1.150973,0.01074 -2.081397,0.944143 -2.092105,2.0988 V 59.4 c 0.01071,1.154657 0.941132,2.088058 2.092105,2.0988 h 5.684211 c 1.150974,-0.01074 2.081398,-0.944143 2.092105,-2.0988 z" />
            <path
               style="fill:#e3edff"
               id="path1733"
               d="M 10.460526,26.4726 V 19.899 c 0,-10.935238 8.836485,-19.8 19.736842,-19.8 v 0 c 10.900357,0 19.736842,8.864762 19.736842,19.8 v 6.5736 c 0,0.7524 -2.210526,1.3464 -4.93421,1.3464 v 0 c -2.723684,0 -4.934211,-0.594 -4.934211,-1.3464 V 19.899 c 0,-5.467619 -4.418242,-9.9 -9.868421,-9.9 v 0 c -5.450178,0 -9.868421,4.432381 -9.868421,9.9 v 6.5736 c 0,0.7524 -2.210526,1.3464 -4.93421,1.3464 v 0 c -2.723684,0 -4.934211,-0.594 -4.934211,-1.3464 z" />
            <path
               style="stroke:#163150;stroke-width:3.96000004;stroke-linecap:round;stroke-linejoin:round"
               id="path1735"
               d="M 10.460526,26.4726 V 19.899 c 0,-10.935238 8.836485,-19.8 19.736842,-19.8 v 0 c 10.900357,0 19.736842,8.864762 19.736842,19.8 v 6.5736 c 0,0.7524 -2.210526,1.3464 -4.93421,1.3464 v 0 c -2.723684,0 -4.934211,-0.594 -4.934211,-1.3464 V 19.899 c 0,-5.467619 -4.418242,-9.9 -9.868421,-9.9 v 0 c -5.450178,0 -9.868421,4.432381 -9.868421,9.9 v 6.5736 c 0,0.7524 -2.210526,1.3464 -4.93421,1.3464 v 0 c -2.723684,0 -4.934211,-0.594 -4.934211,-1.3464 z" />
            <rect
               style="fill:#ffae25;stroke:#163150;stroke-width:3.96000004;stroke-linecap:round;stroke-linejoin:round"
               rx="7.0883999"
               height="19.799999"
               width="59.210526"
               y="59.499001"
               x="14.407895"
               id="rect1737" />
            <rect
               style="fill:#ffd166;stroke:#163150;stroke-width:3.96000004;stroke-linecap:round;stroke-linejoin:round"
               rx="7.0883999"
               height="19.799999"
               width="59.210526"
               y="67.418999"
               x="14.407895"
               id="rect1739" />
            <path
               style="fill:#ffffff;fill-rule:nonzero;stroke:#163150;stroke-width:3.96000004;stroke-linecap:round;stroke-linejoin:round"
               id="path1741"
               d="m 25.440789,74.5272 5.56579,5.5836 m 0,-5.5836 -5.56579,5.5836" />
            <path
               style="fill:#ffffff;fill-rule:nonzero;stroke:#163150;stroke-width:3.96000004;stroke-linecap:round;stroke-linejoin:round"
               id="path1743"
               d="m 41.230263,74.5272 5.56579,5.5836 m 0,-5.5836 -5.56579,5.5836" />
            <path
               style="fill:#ffffff;fill-rule:nonzero;stroke:#163150;stroke-width:3.96000004;stroke-linecap:round;stroke-linejoin:round"
               id="path1745"
               d="M 55.855263,73.359 63.75,81.279 m 0,-7.92 -7.894737,7.92" />
            <path
               style="opacity:0.4;stroke:#b5bfc7;stroke-width:3.96000004;stroke-linecap:round;stroke-linejoin:round"
               id="path1747"
               d="m 20.328947,97.119 v 0 c -8.720285,0 -15.7894733,-7.09181 -15.7894733,-15.84 v 0 m 25.6578943,15.84 h 9.868421" />
            <path
               style="opacity:0.4;stroke:#b5bfc7;stroke-width:3.96000004;stroke-linecap:round;stroke-linejoin:round"
               id="path1749"
               d="m 69.671055,25.839 v 0 c 0.0031,-5.161639 -2.500986,-10.001058 -6.710529,-12.969" />
            <path
               style="opacity:0.4;stroke:#b5bfc7;stroke-width:3.96000004;stroke-linecap:round;stroke-linejoin:round"
               id="path1751"
               d="m 69.671053,43.659 v 7.92 m -3.947369,-3.96 h 7.894737" />
          </g>
        </g>
        <polygon
           style="fill:#ffd166;fill-rule:nonzero"
           points="318,528.94089 318,520.05911 311.94222,520.05911 311.94222,514 303.05778,514 303.05778,520.05911 297,520.05911 297,528.94089 303.05778,528.94089 303.05778,535 311.94222,535 311.94222,528.94089 "
           id="Shape-8" />
        <polygon
           style="fill:#ffd166;fill-rule:nonzero"
           points="324,586 324,575 335,575 335,586 "
           id="Rectangle-path-6" />
        <polygon
           style="fill:#ffd166;fill-rule:nonzero"
           points="330,541 330,530 341,530 341,541 "
           id="Rectangle-path-8" />
      </g>
      <text
         style="font-weight:normal;font-size:16px;font-family:Lato-Regular, Lato;fill:#1b3554"
         line-spacing="20"
         font-weight="normal"
         font-size="16"
         id="Manage-your-informat">
        <tspan
           id="tspan1759"
           y="3166"
           x="59.507999">Manage your information and your</tspan>
        <tspan
           id="tspan1761"
           y="3186"
           x="44.604">cryptocurrency easily and without fear.</tspan>
      </text>
    </g>
  </g>
</svg>
