<svg xmlns="http://www.w3.org/2000/svg" width="250" height="238" viewBox="0 0 250 238">
    <g fill="none" fill-rule="nonzero">
        <path fill="#90DCF3" d="M88.181 7.561h23.297v5.261H88.181z"/>
        <path fill="#1097C0" d="M180.19 20.338V93.1h-.43a3.758 3.758 0 0 0-3.758 3.757v1.418h-24.048a9.835 9.835 0 0 1-1.433-1.413c-.937-1.172-1.648-2.916-2.405-4.76-1.207-2.946-2.57-6.283-5.43-8.568-2.861-2.284-6.393-2.86-9.52-3.382-1.974-.33-3.837-.641-5.205-1.297-1.368-.657-2.69-1.884-4.148-3.202-2.38-2.15-5.076-4.59-8.698-5.411-3.507-.797-6.919.205-9.94 1.087-1.949.571-3.792 1.112-5.36 1.112-1.569 0-3.412-.54-5.366-1.112-3.006-.882-6.443-1.884-9.935-1.087-3.622.821-6.323 3.261-8.697 5.41-1.458 1.319-2.836 2.566-4.149 3.203-1.312.636-3.236.967-5.21 1.297-3.131.501-6.678 1.113-9.52 3.382-2.84 2.27-4.223 5.622-5.43 8.568-.751 1.844-1.468 3.588-2.405 4.766a9.835 9.835 0 0 1-1.433 1.407H23.622v-1.418a3.758 3.758 0 0 0-3.757-3.757h-.431V20.338H180.19zm-9.494 62.837a3.763 3.763 0 0 0-2.86-6.96l-12.7 5.256a3.758 3.758 0 0 0 1.437 7.215 3.832 3.832 0 0 0 1.438-.285l12.685-5.226zm-17.35-22.923a3.758 3.758 0 1 0-5.315-5.312l-6.378 6.384a3.76 3.76 0 0 0 5.316 5.316l6.378-6.388zM132.06 40.47a3.761 3.761 0 0 0-6.944-2.891l-5.255 12.687a3.758 3.758 0 1 0 6.944 2.876l5.255-12.672zm-28.472 4.685v-9.02a3.758 3.758 0 1 0-7.515 0v9.02a3.758 3.758 0 1 0 7.515 0zm-25.821 10.02a3.768 3.768 0 0 0 2.034-4.91L74.544 37.58a3.758 3.758 0 1 0-6.944 2.876l5.256 12.687a3.753 3.753 0 0 0 4.91 2.034zM58 66.64a3.753 3.753 0 0 0 0-5.311l-6.398-6.404a3.757 3.757 0 1 0-5.315 5.312l6.397 6.403a3.757 3.757 0 0 0 5.316 0zM46.558 86.381a3.763 3.763 0 0 0-2.034-4.91l-12.685-5.256a3.765 3.765 0 1 0-2.876 6.96l12.685 5.256c.459.176.947.263 1.438.255a3.763 3.763 0 0 0 3.472-2.305zM176.002 122.653v55.22a33.07 33.07 0 0 0-13.216 22.834H36.874a33.07 33.07 0 0 0-13.217-22.833v-55.221h54.39v21.6a3.758 3.758 0 0 0 3.757 3.758h36.047a3.758 3.758 0 0 0 3.757-3.758v-21.6h54.394z"/>
        <path fill="#90DCF3" d="M99.83 119.541a3.713 3.713 0 1 1-.01 7.425 3.713 3.713 0 0 1 .01-7.425z"/>
        <path fill="#1097C0" d="M114.093 106.013v34.482H85.561v-34.482h28.532zm-3.036 17.246a11.234 11.234 0 1 0-11.227 11.229c6.197-.009 11.219-5.031 11.227-11.23z"/>
        <path fill="#90DCF3" d="M16.142 100.616v73.089a32.808 32.808 0 0 0-8.356-2.09v-70.999h8.356zM78.041 105.792v9.345H23.652v-9.345h1.022zM121.608 105.792h54.394v9.345h-54.394zM191.884 100.616v71a32.703 32.703 0 0 0-8.357 2.089v-73.089h8.357z"/>
        <path fill="#FFCE00" d="M191.884 179.191v21.516H170.34a25.608 25.608 0 0 1 21.543-21.516z"/>
        <path fill="#90DCF3" d="M29.299 200.707H7.786V179.19a25.613 25.613 0 0 1 21.513 21.516z"/>
        <path fill="#FEEF62" d="M142.635 98.276H57.02c.541-1.097 1.002-2.22 1.458-3.327.942-2.304 1.829-4.479 3.161-5.541 1.333-1.062 3.623-1.433 6.067-1.839 2.445-.406 4.905-.817 7.245-1.944s4.133-2.781 5.922-4.394c1.788-1.614 3.617-3.272 5.32-3.663 1.589-.36 3.813.29 6.163.977 2.264.661 4.83 1.413 7.475 1.413 2.645 0 5.21-.752 7.475-1.413 2.35-.686 4.569-1.338 6.162-.972 1.703.386 3.457 1.974 5.316 3.658 1.858 1.683 3.637 3.287 5.926 4.394 2.29 1.107 4.83 1.538 7.24 1.944 2.41.406 4.754.787 6.072 1.839 1.318 1.052 2.22 3.237 3.156 5.536.456 1.108.917 2.26 1.458 3.332z"/>
        <path fill="#005268" d="M199.399 96.858v107.607a3.758 3.758 0 0 1-3.758 3.757H4.008a3.758 3.758 0 0 1-3.757-3.757V96.858a3.758 3.758 0 0 1 3.757-3.757h7.926V16.58a3.758 3.758 0 0 1 3.757-3.758h64.97V3.803A3.758 3.758 0 0 1 84.42.045h30.811a3.758 3.758 0 0 1 3.758 3.758v9.019h64.96a3.758 3.758 0 0 1 3.757 3.758V93.1h7.926a3.757 3.757 0 0 1 3.768 3.758zm-7.515 103.849V179.19a25.608 25.608 0 0 0-21.543 21.516h21.543zm0-29.091v-71h-8.367v73.089a32.703 32.703 0 0 1 8.367-2.09zM180.2 93.1V20.338H19.47V93.1h.43a3.758 3.758 0 0 1 3.758 3.757v1.418h24.048a9.835 9.835 0 0 0 1.433-1.407c.937-1.178 1.654-2.922 2.405-4.766 1.208-2.946 2.57-6.283 5.43-8.568 2.862-2.284 6.394-2.86 9.52-3.382 1.974-.33 3.843-.641 5.21-1.297 1.368-.657 2.69-1.884 4.149-3.202 2.374-2.15 5.075-4.59 8.697-5.411 3.507-.797 6.914.205 9.935 1.087 1.954.571 3.798 1.112 5.366 1.112 1.568 0 3.412-.54 5.36-1.112 3.006-.882 6.448-1.884 9.94-1.087 3.623.821 6.318 3.261 8.698 5.41 1.458 1.319 2.83 2.566 4.148 3.203 1.318.636 3.231.967 5.205 1.297 3.132.501 6.684 1.113 9.52 3.382 2.835 2.27 4.223 5.622 5.43 8.568.757 1.844 1.468 3.588 2.405 4.76a9.84 9.84 0 0 0 1.433 1.413h24.048v-1.418a3.758 3.758 0 0 1 3.758-3.757h.43-.025zm-4.198 84.773v-55.221h-54.394v21.6a3.758 3.758 0 0 1-3.757 3.758H81.804a3.758 3.758 0 0 1-3.758-3.758v-21.6H23.657v55.22a33.07 33.07 0 0 1 13.217 22.834h125.912a33.07 33.07 0 0 1 13.216-22.833zm0-62.737v-9.345h-54.394v9.345h54.394zM57.019 98.277h85.616c-.54-1.098-1.002-2.225-1.458-3.333-.937-2.3-1.828-4.474-3.156-5.536-1.328-1.062-3.627-1.433-6.072-1.839-2.445-.406-4.905-.817-7.24-1.944-2.334-1.127-4.138-2.781-5.926-4.394-1.789-1.614-3.613-3.272-5.316-3.658-1.593-.366-3.813.286-6.162.972-2.265.661-4.83 1.413-7.475 1.413-2.646 0-5.21-.752-7.475-1.413-2.35-.686-4.574-1.338-6.163-.977-1.703.39-3.462 1.98-5.32 3.663-1.859 1.683-3.638 3.287-5.922 4.394-2.285 1.107-4.835 1.538-7.245 1.944-2.41.406-4.75.787-6.067 1.839-1.317 1.052-2.22 3.237-3.161 5.541-.456 1.108-.917 2.255-1.458 3.327zm57.074 42.218v-34.482H85.561v34.482h28.532zm-2.615-127.673V7.56H88.176v5.26h23.302zM78.046 115.137v-9.345H23.657v9.345h54.39zM19.9 200.707h9.399A25.613 25.613 0 0 0 7.786 179.19v21.516H19.9zm-3.758-27.002v-73.089H7.786v71a32.808 32.808 0 0 1 8.356 2.089z"/>
        <path fill="#FEEF62" d="M156.573 91.693a6.764 6.764 0 0 1-2.585-13.028l12.68-5.256a6.776 6.776 0 1 1 5.176 12.527l-12.686 5.256c-.82.332-1.699.502-2.585.5z"/>
        <path fill="#005268" d="M169.259 75.93a3.758 3.758 0 0 1 1.437 7.245l-12.685 5.256a3.758 3.758 0 0 1-2.876-6.945l12.7-5.27c.456-.192.945-.29 1.439-.291l-.015.005zm.015-6.018a9.714 9.714 0 0 0-3.743.746l-12.68 5.256a9.77 9.77 0 0 0 3.722 18.785c1.266 0 2.52-.245 3.693-.722l12.685-5.256a9.77 9.77 0 0 0-3.738-18.8l.06-.01z"/>
        <path fill="#FEEF62" d="M144.289 70.729a6.769 6.769 0 0 1-4.785-11.525l6.378-6.383a6.763 6.763 0 1 1 9.569 9.56l-6.358 6.363a6.718 6.718 0 0 1-4.804 1.985z"/>
        <path fill="#005268" d="M150.691 53.823a3.758 3.758 0 0 1 2.656 6.419l-6.378 6.398a3.757 3.757 0 0 1-5.316-5.311l6.378-6.384a3.742 3.742 0 0 1 2.66-1.107v-.015zm0-5.998a9.704 9.704 0 0 0-6.903 2.856l-6.373 6.379a9.771 9.771 0 0 0 13.817 13.814l6.378-6.384a9.771 9.771 0 0 0-6.909-16.68l-.01.015z"/>
        <path fill="#FEEF62" d="M123.327 58.468a6.764 6.764 0 0 1-6.243-4.179 6.705 6.705 0 0 1 0-5.18l5.256-12.682a6.775 6.775 0 1 1 12.525 5.17l-5.256 12.692a6.753 6.753 0 0 1-6.282 4.179z"/>
        <path fill="#005268" d="M128.582 35.26a3.762 3.762 0 0 1 3.472 5.2l-5.25 12.682a3.763 3.763 0 0 1-4.91 2.034 3.758 3.758 0 0 1-2.034-4.91l5.255-12.687a3.753 3.753 0 0 1 3.472-2.325l-.005.005zm.005-6.019a9.734 9.734 0 0 0-9.018 6.043l-5.25 12.677a9.771 9.771 0 0 0 5.285 12.767h.05c4.975 2.03 10.656-.338 12.716-5.302l5.255-12.691a9.776 9.776 0 0 0-9.018-13.529l-.02.035zM99.83 112.025c6.2.003 11.223 5.03 11.222 11.23 0 6.2-5.026 11.227-11.226 11.228-6.2 0-11.226-5.024-11.229-11.224.006-6.202 5.031-11.228 11.233-11.234zm3.712 11.234a3.718 3.718 0 1 0-7.436-.01 3.718 3.718 0 0 0 7.436.01z"/>
        <path fill="#FEEF62" d="M99.83 51.904a6.774 6.774 0 0 1-6.764-6.764v-9.02a6.764 6.764 0 1 1 13.527 0v9.02a6.774 6.774 0 0 1-6.763 6.764z"/>
        <path fill="#005268" d="M99.83 32.363a3.758 3.758 0 0 1 3.757 3.758v9.019a3.758 3.758 0 1 1-7.515 0v-9.02a3.753 3.753 0 0 1 3.758-3.757zm0-6.013c-5.394.006-9.764 4.377-9.77 9.77v9.02c0 5.396 4.374 9.77 9.77 9.77 5.395 0 9.77-4.374 9.77-9.77v-9.02c-.006-5.393-4.377-9.764-9.77-9.77z"/>
        <path fill="#FEEF62" d="M76.328 58.468a6.738 6.738 0 0 1-6.253-4.184L64.82 41.587a6.765 6.765 0 1 1 12.495-5.18l5.26 12.696a6.78 6.78 0 0 1-3.657 8.839c-.821.342-1.701.52-2.59.526z"/>
        <path fill="#005268" d="M71.067 35.26c1.52.001 2.89.918 3.472 2.324l5.256 12.687a3.768 3.768 0 0 1-2.034 4.91 3.753 3.753 0 0 1-4.91-2.034L67.595 40.46a3.763 3.763 0 0 1 3.472-5.2zm0-6.014a9.77 9.77 0 0 0-9.018 13.529l5.256 12.682c2.057 4.965 7.739 7.336 12.715 5.306h.06c4.972-2.076 7.332-7.78 5.28-12.762l-5.255-12.692a9.75 9.75 0 0 0-9.018-6.012l-.02-.05z"/>
        <path fill="#FEEF62" d="M55.346 70.729a6.743 6.743 0 0 1-4.78-1.975l-6.388-6.393a6.765 6.765 0 1 1 9.57-9.56l6.372 6.383a6.765 6.765 0 0 1-4.78 11.525l.006.02z"/>
        <path fill="#005268" d="M48.963 53.823a3.752 3.752 0 0 1 2.66 1.102l6.378 6.384a3.765 3.765 0 0 1-5.316 5.331l-6.377-6.383a3.758 3.758 0 0 1 2.655-6.414v-.02zm0-5.993a9.77 9.77 0 0 0-6.909 16.68l6.378 6.384A9.769 9.769 0 1 0 62.249 57.08l-6.377-6.383a9.714 9.714 0 0 0-6.914-2.867h.005z"/>
        <path fill="#FEEF62" d="M43.086 91.693c-.878 0-1.747-.17-2.56-.501l-12.71-5.266a6.764 6.764 0 1 1 5.18-12.497l12.685 5.256a6.764 6.764 0 0 1-2.595 13.008z"/>
        <path fill="#005268" d="M30.396 75.93c.494 0 .982.1 1.438.29l12.685 5.256a3.758 3.758 0 0 1-1.433 7.21 3.827 3.827 0 0 1-1.433-.285l-12.69-5.226A3.758 3.758 0 0 1 30.4 75.94l-.005-.01zm.005-6.003a9.77 9.77 0 0 0-3.743 18.8l12.69 5.255a9.77 9.77 0 0 0 7.425-18.073l-12.635-5.26a9.709 9.709 0 0 0-3.742-.747l.005.025z"/>
        <path fill="#005268" d="M33.697 154.324h32.065a5.346 5.346 0 0 0 0-10.687H33.697a5.346 5.346 0 1 0 0 10.687zM64.053 179.051h32.064a5.346 5.346 0 0 0 0-10.687H64.053a5.346 5.346 0 1 0 0 10.687zM131.468 163.9h32.064a5.346 5.346 0 1 0 0-10.688h-32.064a5.346 5.346 0 1 0 0 10.687zM110.09 202.145h32.064a5.346 5.346 0 1 0 0-10.688H110.09a5.346 5.346 0 1 0 0 10.688z" opacity=".5"/>
        <path fill="#005268" d="M247.96 136.854L207 122.394a2.41 2.41 0 0 0-1.603 0l-40.962 14.46a2.415 2.415 0 0 0-1.608 2.275v28.916c0 37.419 5.546 51.107 42.284 69.646a2.4 2.4 0 0 0 2.17 0c36.738-18.539 42.284-32.202 42.284-69.646v-28.916c0-1.02-.642-1.931-1.603-2.275z"/>
        <path fill="#7AD832" d="M206.164 231.52c-29.409-14.996-37.055-24.668-38.518-50.487h-.06c-.181-3.698-.251-7.686-.251-12.025l1.077-27.212 37.752-12.527 37.724 12.527 1.077 27.212c0 4.34-.07 8.327-.25 12.025h-.062c-1.462 25.82-9.08 35.491-38.489 50.486z"/>
        <path fill="#000" d="M206.278 222.588c-33.983-17.327-38.553-24.111-38.553-59.951v4.51c0 35.84 4.57 47.444 38.553 64.77 33.983-17.326 38.552-28.926 38.552-64.77v-4.51c0 35.84-4.57 42.624-38.552 59.95z" opacity=".1"/>
        <path fill="#005268" d="M191.824 165.848c-.001 4.301 1.917 8.378 5.23 11.119l-2.795 19.872a2.41 2.41 0 0 0 2.384 2.745h19.289a2.41 2.41 0 0 0 2.385-2.745l-2.796-19.872a14.456 14.456 0 0 0-12.553-25.184 14.455 14.455 0 0 0-11.144 14.065z"/>
        <path fill="#DFDFE3" d="M215.932 165.848a9.635 9.635 0 0 1-4.324 8.017 2.415 2.415 0 0 0-1.052 2.345l2.605 18.54H199.4l2.605-18.54a2.415 2.415 0 0 0-1.052-2.345 9.636 9.636 0 0 1 7.222-17.466 9.635 9.635 0 0 1 7.758 9.45z"/>
        <path fill="#000" d="M204.043 194.75l2.395-17.037a2.415 2.415 0 0 0-1.052-2.345 9.636 9.636 0 0 1 5.31-17.672c.296 0 .577.06.867.085-4.44-2.926-10.413-1.698-13.34 2.744-2.925 4.441-1.697 10.414 2.744 13.34a2.415 2.415 0 0 1 1.052 2.345l-2.605 18.54h4.63z" opacity=".1"/>
    </g>
</svg>