<svg xmlns="http://www.w3.org/2000/svg" width="278" height="288" viewBox="0 0 278 288">
    <g fill="none" fill-rule="evenodd">
        <g fill-rule="nonzero">
            <path fill="#1097C0" d="M5.23 147.26h39.837V82.533H5.23z"/>
            <path fill="#1097C0" d="M45.067 147.26h59.751V50.168h-59.75zM104.818 147.26h39.833V82.533h-39.833z"/>
            <path fill="#90DCF3" d="M64.982 72.572H60a2.49 2.49 0 0 1-2.49-2.49v-4.978a2.49 2.49 0 0 1 2.49-2.49h4.978a2.49 2.49 0 0 1 2.49 2.49v4.978a2.49 2.49 0 0 1-2.49 2.49M89.882 72.572H84.9a2.49 2.49 0 0 1-2.49-2.49v-4.978a2.49 2.49 0 0 1 2.49-2.49h4.982a2.49 2.49 0 0 1 2.49 2.49v4.978a2.49 2.49 0 0 1-2.49 2.49M64.982 92.49H60A2.49 2.49 0 0 1 57.513 90v-4.978a2.49 2.49 0 0 1 2.49-2.49h4.979a2.49 2.49 0 0 1 2.49 2.49V90a2.49 2.49 0 0 1-2.49 2.49M89.882 92.49H84.9A2.49 2.49 0 0 1 82.41 90v-4.978a2.49 2.49 0 0 1 2.49-2.49h4.982a2.49 2.49 0 0 1 2.49 2.49V90a2.49 2.49 0 0 1-2.49 2.49M64.982 112.41H60a2.49 2.49 0 0 1-2.49-2.492v-4.981a2.49 2.49 0 0 1 2.49-2.49h4.978a2.49 2.49 0 0 1 2.49 2.49v4.977a2.49 2.49 0 0 1-2.49 2.491M89.882 112.41H84.9a2.49 2.49 0 0 1-2.49-2.492v-4.981a2.49 2.49 0 0 1 2.49-2.49h4.982a2.49 2.49 0 0 1 2.49 2.49v4.977a2.49 2.49 0 0 1-2.49 2.491M64.986 147.26H84.9v-22.405H64.986zM17.68 137.305h14.937v-19.918H17.68zM17.68 107.428h14.937V92.49H17.68zM117.264 137.305h14.941v-19.918h-14.94zM117.264 107.428h14.941V92.49h-14.94z"/>
            <path fill="#FEEF62" d="M77.432 42.687c-5.491-.007-9.941-4.456-9.948-9.948a2.479 2.479 0 0 1 4.958 0 4.99 4.99 0 1 0 4.99-4.989 9.947 9.947 0 1 1 9.947-9.947 2.479 2.479 0 0 1-4.958 0 4.99 4.99 0 1 0-4.99 4.99c5.495 0 9.95 4.454 9.95 9.948 0 5.495-4.455 9.95-9.95 9.95v-.004z"/>
            <path fill="#FEEF62" d="M77.432 52.646a2.479 2.479 0 0 1-2.48-2.479V2.866a2.479 2.479 0 1 1 4.959 0v47.301c0 1.37-1.11 2.48-2.48 2.48z"/>
            <path fill="#005268" d="M104.818 149.743h-59.75a2.479 2.479 0 0 1-2.48-2.479V50.16c0-1.369 1.11-2.479 2.48-2.479h59.75c1.37 0 2.48 1.11 2.48 2.48v97.104c0 1.37-1.11 2.48-2.48 2.48zm-57.272-4.961h54.79V52.646h-54.79v92.136z"/>
            <path fill="#005268" d="M144.651 149.743h-39.833a2.479 2.479 0 0 1-2.479-2.479V82.528c0-1.37 1.11-2.48 2.48-2.48h39.832c1.37 0 2.48 1.11 2.48 2.48v64.736c0 1.37-1.11 2.48-2.48 2.48zm-37.354-4.957h34.875V85.01h-34.875V144.786zM45.067 149.743H5.234a2.479 2.479 0 0 1-2.47-2.482V82.524c0-1.37 1.109-2.48 2.478-2.48h39.825c1.37 0 2.48 1.11 2.48 2.48v64.737a2.479 2.479 0 0 1-2.48 2.482zm-37.354-4.957h34.875V85.01H7.713v59.775z"/>
            <path fill="#005268" d="M5.234 85.01h-2.49a2.479 2.479 0 1 1 0-4.957h2.49a2.479 2.479 0 1 1 0 4.958zM147.142 85.01h-2.49a2.479 2.479 0 1 1 0-4.957h2.49a2.479 2.479 0 1 1 0 4.958zM109.796 52.646h-69.71a2.479 2.479 0 1 1 0-4.958h69.71a2.479 2.479 0 0 1 0 4.958zM64.982 75.055H60a4.974 4.974 0 0 1-4.97-4.97v-4.981a4.974 4.974 0 0 1 4.97-4.97h4.978a4.974 4.974 0 0 1 4.97 4.97v4.978a4.974 4.974 0 0 1-4.966 4.973zM60 65.096v4.99h4.99v-4.982L60 65.096zM89.882 75.055H84.9a4.974 4.974 0 0 1-4.97-4.97v-4.981a4.974 4.974 0 0 1 4.97-4.97h4.982a4.974 4.974 0 0 1 4.97 4.97v4.978a4.974 4.974 0 0 1-4.97 4.973zm-4.978-9.959v4.99h4.99v-4.982l-4.99-.008zM64.982 94.97H60A4.974 4.974 0 0 1 55.034 90v-4.978A4.974 4.974 0 0 1 60 80.052h4.978a4.974 4.974 0 0 1 4.97 4.97V90a4.974 4.974 0 0 1-4.966 4.97zM60 85.01V90h4.99v-4.978L60 85.011zM89.882 94.97H84.9A4.974 4.974 0 0 1 79.93 90v-4.978a4.974 4.974 0 0 1 4.97-4.97h4.982a4.974 4.974 0 0 1 4.97 4.97V90a4.974 4.974 0 0 1-4.97 4.97zm-4.978-9.96V90h4.99v-4.978l-4.99-.011zM64.982 114.868H60a4.974 4.974 0 0 1-4.97-4.97v-4.961A4.974 4.974 0 0 1 60 99.97h4.978a4.974 4.974 0 0 1 4.97 4.97v4.977a4.974 4.974 0 0 1-4.966 4.95zM60 104.928v4.99h4.99v-4.981l-4.99-.008zM89.882 114.868H84.9a4.974 4.974 0 0 1-4.97-4.97v-4.961a4.974 4.974 0 0 1 4.97-4.97h4.982a4.974 4.974 0 0 1 4.97 4.97v4.977a4.974 4.974 0 0 1-4.97 4.954zm-4.978-9.959v4.99h4.99v-4.962l-4.99-.028zM84.9 149.743H64.982a2.479 2.479 0 0 1-2.48-2.479v-22.409c0-1.369 1.11-2.479 2.48-2.479H84.9c1.37 0 2.479 1.11 2.479 2.48v22.405a2.479 2.479 0 0 1-2.479 2.482zm-17.44-4.957h14.961v-17.448H67.464v17.448h-.003zM74.94 42.687c-5.49-.007-9.94-4.456-9.947-9.948a2.479 2.479 0 1 1 4.958 0 4.99 4.99 0 1 0 4.99-4.989c-5.494 0-9.948-4.454-9.948-9.947 0-5.494 4.454-9.948 9.948-9.948 5.494 0 9.947 4.454 9.947 9.948a2.479 2.479 0 0 1-4.958 0 4.99 4.99 0 1 0-4.99 4.99c5.496 0 9.95 4.454 9.95 9.948 0 5.495-4.454 9.95-9.95 9.95v-.004z"/>
            <path fill="#005268" d="M74.94 52.646a2.479 2.479 0 0 1-2.478-2.479V2.866a2.479 2.479 0 1 1 4.958 0v47.301c0 1.37-1.11 2.48-2.48 2.48zM32.617 139.784H17.68a2.479 2.479 0 0 1-2.479-2.479v-19.918c0-1.37 1.11-2.48 2.48-2.48h14.936c1.37 0 2.48 1.11 2.48 2.48v19.918c0 1.37-1.11 2.48-2.48 2.48zm-12.458-4.958h9.98v-14.96h-9.98v14.96zM32.617 109.907H17.68a2.479 2.479 0 0 1-2.479-2.48V92.492c0-1.37 1.11-2.48 2.48-2.48h14.936c1.37 0 2.48 1.11 2.48 2.48v14.937c0 1.369-1.11 2.479-2.48 2.479zm-12.458-4.958h9.98v-9.98h-9.98v9.98zM132.201 139.784h-14.937a2.479 2.479 0 0 1-2.478-2.479v-19.918c0-1.37 1.11-2.48 2.478-2.48h14.937c1.37 0 2.48 1.11 2.48 2.48v19.918c0 1.37-1.11 2.48-2.48 2.48zm-12.458-4.958h9.98v-14.96h-9.98v14.96zM132.201 109.907h-14.937a2.479 2.479 0 0 1-2.478-2.48V92.492c0-1.37 1.11-2.48 2.478-2.48h14.937c1.37 0 2.48 1.11 2.48 2.48v14.937c0 1.369-1.11 2.479-2.48 2.479zm-12.458-4.958h9.98v-9.98h-9.98v9.98z"/>
        </g>
        <path fill="#1097C0" d="M179.643 52l83.867 54.464-117.642 181.153L62 233.153z"/>
        <path stroke="#005268" stroke-linecap="round" stroke-width="5" d="M180.5 48.5l-124 190"/>
        <g transform="translate(128 130)">
            <path fill="#DFDFE3" fill-rule="nonzero" d="M74.029 124.498H43.826l2.947-13.84h24.31zM1.837 23.008h114.181v87.65H1.837z"/>
            <path fill="#1097C0" fill-rule="nonzero" stroke="#005268" stroke-width="2.765" d="M3.679 24.853h110.498V94.48H3.679z"/>
            <ellipse cx="58.928" cy="101.617" fill="#005268" fill-rule="nonzero" rx="3.131" ry="3.137"/>
            <path fill="#FFF" fill-rule="nonzero" d="M19.701 25.961H97.97v55.097H19.701z"/>
            <path fill="#005268" fill-rule="nonzero" d="M117.864 112.504V21.163H0v91.34h44.567l-2.21 10.15h-3.683v3.69H79.19v-3.69h-3.683l-2.21-10.15h44.567zm-71.823 10.149l2.21-10.15h21.363l2.21 10.15H46.04zm-42.358-97.8h14.18v58.818h81.953V24.853h14.365v83.96H3.683v-83.96z"/>
            <path fill="#005268" fill-rule="nonzero" d="M41.985 99.771h3.683v3.691h-3.683zM72.187 99.771h3.683v3.691h-3.683z"/>
            <path fill="#193651" fill-rule="nonzero" d="M32.408 36.663h36.096v3.691H32.408zM74.213 36.663h11.234v3.691H74.213zM46.405 49.765h39.043v3.691H46.405zM32.408 49.765h8.103v3.691h-8.103z"/>
            <path fill="#7AD832" fill-rule="nonzero" d="M18.428 14.448h80.818v67.917H18.428z"/>
            <path fill="#F9F9F9" fill-rule="nonzero" d="M24.945 20.978h67.784v54.855H24.945zM18.428 1.389h80.818v13.06H18.428z"/>
            <path fill="#005268" fill-rule="nonzero" d="M17.123.08v83.591h83.425V.081H17.123zm80.82 80.98H19.73V15.754h78.212V81.06zM19.73 13.148V2.694h78.212v10.454H19.73z"/>
            <path fill="#005268" fill-rule="nonzero" d="M24.945 6.613h2.606v2.611h-2.606zM32.636 6.613h2.606v2.611h-2.606zM40.327 6.613h2.606v2.611h-2.606z"/>
            <path stroke="#000" stroke-width="2.074" d="M32.638 37.24h27.993v16.271H32.638zM46.635 26.699h39.043v4.583H46.635zM32.638 26.699h8.103v4.583h-8.103z"/>
            <g fill-rule="nonzero" transform="translate(90.47 67.352)">
                <path fill="#005268" stroke="#005268" d="M57.602 27.075c-.536 0-1.07-.054-1.596-.16.251-1.157.376-2.34.371-3.524a3.686 3.686 0 0 0-3.676-3.465 3.686 3.686 0 0 0-3.677 3.465c0 2.018 1.612 3.921 3.914 5.06a10.643 10.643 0 0 1-1.211 2.109c-2.993-4.96-8.808-8.74-15.907-10.19a8.591 8.591 0 0 0 2.532-3.154 8.57 8.57 0 0 0 8.169-7.55A8.58 8.58 0 0 0 40.369.39a8.558 8.558 0 0 0-10.111 4.624 8.52 8.52 0 0 0-7.712 5.71 8.545 8.545 0 0 0 2.48 9.282c-4.11.563-7.975 1.908-11.225 3.935a8.507 8.507 0 0 0-5.214-1.78c-.677 0-1.225.55-1.225 1.227a8.528 8.528 0 0 0 1.473 4.768 16.31 16.31 0 0 0-3.407 6.28H4.91a4.9 4.9 0 0 0-3.472 1.438A4.92 4.92 0 0 0 0 39.353a7.825 7.825 0 0 0 3.697 6.673l8.557 5.342v6.4c0 .678.548 1.228 1.224 1.228h4.901c.464 0 .888-.263 1.096-.679l1.45-2.906a32.562 32.562 0 0 0 16.964 0l1.45 2.906c.209.416.633.678 1.096.679h4.915c.677 0 1.225-.55 1.225-1.228v-6.5c4.682-3.46 7.353-8.209 7.353-13.147a14.162 14.162 0 0 0-.995-5.137 12.971 12.971 0 0 0 2.334-3.706c.767.168 1.55.25 2.335.246.677 0 1.225-.55 1.225-1.228 0-.678-.548-1.228-1.225-1.228v.007zm-3.914-1.017c-1.363-.776-2.203-1.846-2.203-2.667a1.227 1.227 0 1 1 2.452 0c0 .897-.086 1.793-.258 2.673l.01-.006z"/>
                <ellipse cx="37.995" cy="8.659" fill="#FFCE00" rx="6.126" ry="6.138"/>
                <path fill="#FFCA28" d="M24.517 13.57a6.12 6.12 0 0 1 5.011-6.011 8.46 8.46 0 0 0-.11 1.098 8.58 8.58 0 0 0 .202 1.82c-.126.188-.197.409-.202.636v4.91a1.227 1.227 0 1 0 2.451 0v-1.37a8.555 8.555 0 0 0 3.861 2.257 6.085 6.085 0 0 1-6.858 2.547 6.102 6.102 0 0 1-4.355-5.887z"/>
                <path fill="#FFCE00" d="M24.517 13.57a6.12 6.12 0 0 1 5.011-6.011 8.46 8.46 0 0 0-.11 1.098 8.58 8.58 0 0 0 .202 1.82c-.126.188-.197.409-.202.636v4.91a1.227 1.227 0 1 0 2.451 0v-1.37a8.555 8.555 0 0 0 3.861 2.257 6.085 6.085 0 0 1-6.858 2.547 6.102 6.102 0 0 1-4.355-5.887z"/>
                <path fill="#FFA21A" d="M31.87 14.654v1.37a1.227 1.227 0 1 1-2.452 0v-4.91c.005-.228.076-.449.202-.637a8.59 8.59 0 0 1-.202-1.82c.013-.368.05-.735.11-1.098-.733.14-1.435.41-2.072.8a8.496 8.496 0 0 0-.492 2.754 8.657 8.657 0 0 0 5.928 8.152 6.099 6.099 0 0 0 2.833-2.355 8.558 8.558 0 0 1-3.856-2.256z" opacity=".39"/>
                <path fill="#005268" d="M37.995 12.34c.677 0 1.225-.55 1.225-1.227v-4.91a1.227 1.227 0 1 0-2.452 0v4.91a1.228 1.228 0 0 0 1.227 1.227z"/>
                <path fill="#FDD1B0" d="M44.66 49.626a1.23 1.23 0 0 0-.528 1.01v5.905h-2.925l-1.573-3.148a1.22 1.22 0 0 0-1.464-.623 29.939 29.939 0 0 1-17.495 0 1.224 1.224 0 0 0-1.464.623l-1.573 3.148h-2.923v-5.854c0-.424-.219-.818-.578-1.042l-9.135-5.702a5.38 5.38 0 0 1-2.532-4.59 2.456 2.456 0 0 1 2.443-2.448h1.489c.586 0 1.09-.415 1.202-.991.46-2.418 1.754-4.78 3.713-6.83.44-.46.456-1.18.037-1.659a6.144 6.144 0 0 1-1.382-2.636 6.113 6.113 0 0 1 2.871 1.58 1.218 1.218 0 0 0 1.542.134c4.107-2.791 9.439-4.33 15.033-4.33 12.161 0 22.056 7.15 22.056 15.962.002 4.352-2.422 8.437-6.814 11.491z"/>
                <path fill="#1097C0" d="M44.66 49.626a1.23 1.23 0 0 0-.528 1.01v5.905h-2.925l-1.573-3.148a1.22 1.22 0 0 0-1.464-.623 29.939 29.939 0 0 1-17.495 0 1.224 1.224 0 0 0-1.464.623l-1.573 3.148h-2.923v-5.854c0-.424-.219-.818-.578-1.042l-9.135-5.702a5.38 5.38 0 0 1-2.532-4.59 2.456 2.456 0 0 1 2.443-2.448h1.489c.586 0 1.09-.415 1.202-.991.46-2.418 1.754-4.78 3.713-6.83.44-.46.456-1.18.037-1.659a6.144 6.144 0 0 1-1.382-2.636 6.113 6.113 0 0 1 2.871 1.58 1.218 1.218 0 0 0 1.542.134c4.107-2.791 9.439-4.33 15.033-4.33 12.161 0 22.056 7.15 22.056 15.962.002 4.352-2.422 8.437-6.814 11.491z"/>
                <path fill="#005268" d="M12.263 31.985c-.992 0-1.886.599-2.265 1.517a2.46 2.46 0 0 0 .531 2.677 2.448 2.448 0 0 0 2.672.532 2.457 2.457 0 0 0-.938-4.726z"/>
                <path fill="#FFF" d="M11.317 29.063c-.23.247-.43.512-.647.768 4.715-2.484 10.82-3.995 17.523-3.995 9.118 0 17.164 2.791 22.042 7.051-2.993-6.227-11.188-10.735-20.817-10.735-5.587 0-10.926 1.537-15.033 4.33-.48.33-1.125.274-1.542-.134a6.113 6.113 0 0 0-2.87-1.58 6.144 6.144 0 0 0 1.38 2.637 1.229 1.229 0 0 1-.036 1.658z" opacity=".2"/>
                <path fill="#000" d="M27.58 50.401c-6.625 0-12.709-1.252-17.573-3.337l4.132 2.578c.36.224.578.619.578 1.043v5.854h2.917l1.572-3.148c.269-.54.89-.805 1.464-.623a29.939 29.939 0 0 0 17.496 0 1.22 1.22 0 0 1 1.464.623l1.577 3.15h2.919v-5.905c0-.402.196-.78.527-1.01a17.428 17.428 0 0 0 4.737-4.781C44.107 48.242 36.305 50.4 27.58 50.4z" opacity=".1"/>
                <path fill="#005268" d="M38.377 25.908c-5.129-1.687-12.79-1.687-17.919 0a1.227 1.227 0 0 0 .765 2.334c4.643-1.527 11.74-1.527 16.39 0a1.225 1.225 0 0 0 1.595-.973 1.227 1.227 0 0 0-.83-1.361z"/>
            </g>
            <path fill="#FFF" d="M76.11 54.6c-4.362 0-7.897 3.544-7.897 7.916s3.535 7.916 7.897 7.916c4.361 0 7.897-3.544 7.897-7.916 0-2.1-.832-4.113-2.313-5.598A7.887 7.887 0 0 0 76.11 54.6z"/>
            <path fill="#007896" fill-rule="nonzero" d="M75.896 53.316c-4.95 0-8.964 4.023-8.964 8.986 0 4.963 4.014 8.986 8.964 8.986 4.951 0 8.965-4.023 8.965-8.986a8.997 8.997 0 0 0-2.626-6.354 8.953 8.953 0 0 0-6.339-2.632zm3.099 11.794l-2.309 2.342a1.12 1.12 0 0 1-.784.331 1.12 1.12 0 0 1-.784-.331L72.82 65.11a1.125 1.125 0 0 1 0-1.6.61.61 0 0 1 .874 0l1.165 1.184a1.466 1.466 0 0 0 2.095 0l1.182-1.185a.61.61 0 0 1 .874 0 1.125 1.125 0 0 1-.005 1.601h-.011zm2.426-3.746a.599.599 0 0 1-.426.18.56.56 0 0 1-.41-.169l-1.12-1.123a1.393 1.393 0 0 0-.997-.416c-.388 0-.76.155-1.03.433l-1.121 1.151a.599.599 0 0 1-.56.169.56.56 0 0 1-.314-.163l-1.12-1.123a1.393 1.393 0 0 0-.998-.416c-.388 0-.76.155-1.031.432l-1.12 1.152a.598.598 0 0 1-.835 0 1.125 1.125 0 0 1 0-1.534l2.24-2.28c.202-.208.479-.325.768-.325.276 0 .541.11.734.308l1.815 1.854 1.85-1.876c.201-.208.478-.325.767-.326.28-.003.55.109.745.31l2.202 2.246c.387.437.375 1.099-.028 1.522l-.011-.006z"/>
        </g>
    </g>
</svg>