<?xml version="1.0" encoding="UTF-8"?>
<svg width="129px" height="170px" viewBox="0 0 129 170" version="1.1" xmlns="http://www.w3.org/2000/svg" xmlns:xlink="http://www.w3.org/1999/xlink">
    <!-- Generator: sketchtool 53.2 (72643) - https://sketchapp.com -->
    <title>4FBCFCD9-6341-4ABD-AD1C-C7692052E1E0</title>
    <desc>Created with sketchtool.</desc>
    <g id="Lock-/-Unlock-Wallet" stroke="none" stroke-width="1" fill="none" fill-rule="evenodd">
        <g id="GAU---Create-Password" transform="translate(-655.000000, -251.000000)">
            <g id="icn-create-pw" transform="translate(658.000000, 255.000000)">
                <path d="M0.986842105,46.365 L99.6710526,46.365 L99.6710526,81.279 C99.6710526,103.914943 81.3795283,122.265 58.8157895,122.265 L41.8421053,122.265 C19.2783665,122.265 0.986842105,103.914943 0.986842105,81.279 L0.986842105,46.365 Z" id="Path" fill="#1EB8E7"></path>
                <path d="M14.1447368,56.265 L14.1447368,84.315 C14.1447368,105.274206 31.0813335,122.265 51.9736842,122.265 L42.1052632,122.265 C19.3824367,122.174187 1.00476778,103.678713 0.986842105,80.883 L0.986842105,46.365 L14.1447368,56.265 Z" id="Path" fill="#FFFFFF" opacity="0.25"></path>
                <path d="M0.986842105,46.365 L99.6710526,46.365 L99.6710526,81.279 C99.6710526,103.914943 81.3795283,122.265 58.8157895,122.265 L41.8421053,122.265 C19.2783665,122.265 0.986842105,103.914943 0.986842105,81.279 L0.986842105,46.365 Z" id="Path" stroke="#163150" stroke-width="6.6" stroke-linecap="round" stroke-linejoin="round"></path>
                <path d="M99.6710526,44.715 C99.6351107,51.0788938 94.501489,56.2289431 88.1578947,56.265 L12.5,56.265 C6.14145847,56.265 0.986842105,51.0938889 0.986842105,44.715 C1.02278401,38.3511062 6.15640574,33.2010569 12.5,33.165 L88.1578947,33.165 C94.501489,33.2010569 99.6351107,38.3511062 99.6710526,44.715 L99.6710526,44.715 Z" id="Path" fill="#0C9FE1"></path>
                <path d="M24.0131579,49.665 L24.0131579,33 L56.9078947,33 L30.5921053,49.5 L24.0131579,49.665 Z M88.1578947,33.165 L73.3552632,33.1649258 L73.3552632,49.665 L79.9342105,49.665 L97.7960526,38.445 C95.6981426,35.143703 92.0604803,33.1509096 88.1578947,33.165 L88.1578947,33.165 Z" id="Shape" fill="#007FC6" fill-rule="nonzero"></path>
                <rect id="Rectangle" stroke="#163150" stroke-width="6.6" stroke-linecap="round" stroke-linejoin="round" x="0.986842105" y="33.165" width="98.6842105" height="23.1" rx="11.55"></rect>
                <path d="M36.9736842,82.665 L27.5,82.665 C25.5943173,82.6474646 24.0486995,81.1115288 24.0131579,79.2 L24.0131579,69.663 C24.0310036,67.7385723 25.5817108,66.1829028 27.5,66.165 L36.9736842,66.165 C38.8919734,66.1829028 40.4426806,67.7385723 40.4605263,69.663 L40.4605263,79.2 C40.4249847,81.1115288 38.8793669,82.6474646 36.9736842,82.665 L36.9736842,82.665 Z M60.1973684,79.2 L60.1973684,69.663 C60.1795227,67.7385723 58.6288155,66.1829028 56.7105263,66.165 L47.2368421,66.165 C45.3185529,66.1829028 43.7678457,67.7385723 43.75,69.663 L43.75,79.2 C43.7678457,81.1244277 45.3185529,82.6800972 47.2368421,82.698 L56.7105263,82.698 C58.6288155,82.6800972 60.1795227,81.1244277 60.1973684,79.2 L60.1973684,79.2 Z M79.9342105,79.2 L79.9342105,69.663 C79.9163648,67.7385723 78.3656576,66.1829028 76.4473684,66.165 L66.9736842,66.165 C65.055395,66.1829028 63.5046878,67.7385723 63.4868421,69.663 L63.4868421,79.2 C63.5046878,81.1244277 65.055395,82.6800972 66.9736842,82.698 L76.4473684,82.698 C78.3656576,82.6800972 79.9163648,81.1244277 79.9342105,79.2 L79.9342105,79.2 Z M40.4605263,99 L40.4605263,89.463 C40.4426806,87.5385723 38.8919734,85.9829028 36.9736842,85.965 L27.5,85.965 C25.5817108,85.9829028 24.0310036,87.5385723 24.0131579,89.463 L24.0131579,99 C24.0310036,100.924428 25.5817108,102.480097 27.5,102.498 L36.9736842,102.498 C38.8919734,102.480097 40.4426806,100.924428 40.4605263,99 L40.4605263,99 Z M60.1973684,99 L60.1973684,89.463 C60.1795227,87.5385723 58.6288155,85.9829028 56.7105263,85.965 L47.2368421,85.965 C45.3185529,85.9829028 43.7678457,87.5385723 43.75,89.463 L43.75,99 C43.7678457,100.924428 45.3185529,102.480097 47.2368421,102.498 L56.7105263,102.498 C58.6288155,102.480097 60.1795227,100.924428 60.1973684,99 L60.1973684,99 Z M79.9342105,99 L79.9342105,89.463 C79.9163648,87.5385723 78.3656576,85.9829028 76.4473684,85.965 L66.9736842,85.965 C65.055395,85.9829028 63.5046878,87.5385723 63.4868421,89.463 L63.4868421,99 C63.5046878,100.924428 65.055395,102.480097 66.9736842,102.498 L76.4473684,102.498 C78.3656576,102.480097 79.9163648,100.924428 79.9342105,99 Z" id="Shape" fill="#0C9FE1" fill-rule="nonzero"></path>
                <path d="M17.4342105,44.121 L17.4342105,33.165 C17.4342105,14.9396033 32.1616859,0.165 50.3289474,0.165 L50.3289474,0.165 C68.4962089,0.165 83.2236842,14.9396033 83.2236842,33.165 L83.2236842,44.121 C83.2236842,45.375 79.5394737,46.365 75,46.365 L75,46.365 C70.4605263,46.365 66.7763158,45.375 66.7763158,44.121 L66.7763158,33.165 C66.7763158,24.0523016 59.4125781,16.665 50.3289474,16.665 L50.3289474,16.665 C41.2453166,16.665 33.8815789,24.0523016 33.8815789,33.165 L33.8815789,44.121 C33.8815789,45.375 30.1973684,46.365 25.6578947,46.365 L25.6578947,46.365 C21.1184211,46.365 17.4342105,45.375 17.4342105,44.121 Z" id="Path" fill="#E3EDFF"></path>
                <path d="M17.4342105,44.121 L17.4342105,33.165 C17.4342105,14.9396033 32.1616859,0.165 50.3289474,0.165 L50.3289474,0.165 C68.4962089,0.165 83.2236842,14.9396033 83.2236842,33.165 L83.2236842,44.121 C83.2236842,45.375 79.5394737,46.365 75,46.365 L75,46.365 C70.4605263,46.365 66.7763158,45.375 66.7763158,44.121 L66.7763158,33.165 C66.7763158,24.0523016 59.4125781,16.665 50.3289474,16.665 L50.3289474,16.665 C41.2453166,16.665 33.8815789,24.0523016 33.8815789,33.165 L33.8815789,44.121 C33.8815789,45.375 30.1973684,46.365 25.6578947,46.365 L25.6578947,46.365 C21.1184211,46.365 17.4342105,45.375 17.4342105,44.121 Z" id="Path" stroke="#163150" stroke-width="6.6" stroke-linecap="round" stroke-linejoin="round"></path>
                <rect id="Rectangle" stroke="#163150" stroke-width="6.6" fill="#FFAE25" stroke-linecap="round" stroke-linejoin="round" x="24.0131579" y="99.165" width="98.6842105" height="33" rx="11.814"></rect>
                <rect id="Rectangle" stroke="#163150" stroke-width="6.6" fill="#FFD166" stroke-linecap="round" stroke-linejoin="round" x="24.0131579" y="112.365" width="98.6842105" height="33" rx="11.814"></rect>
                <path d="M42.4013158,124.212 L51.6776316,133.518 M51.6776316,124.212 L42.4013158,133.518" id="Shape" stroke="#163150" stroke-width="6.6" fill="#FFFFFF" fill-rule="nonzero" stroke-linecap="round" stroke-linejoin="round"></path>
                <path d="M68.7171053,124.212 L77.9934211,133.518 M77.9934211,124.212 L68.7171053,133.518" id="Shape" stroke="#163150" stroke-width="6.6" fill="#FFFFFF" fill-rule="nonzero" stroke-linecap="round" stroke-linejoin="round"></path>
                <path d="M93.0921053,122.265 L106.25,135.465 M106.25,122.265 L93.0921053,135.465" id="Shape" stroke="#163150" stroke-width="6.6" fill="#FFFFFF" fill-rule="nonzero" stroke-linecap="round" stroke-linejoin="round"></path>
                <path d="M33.8815789,161.865 L33.8815789,161.865 C19.3477697,161.865 7.56578947,150.045317 7.56578947,135.465 L7.56578947,135.465 M50.3289474,161.865 L66.7763158,161.865" id="Shape" stroke="#B5BFC7" stroke-width="6.6" opacity="0.4" stroke-linecap="round" stroke-linejoin="round"></path>
                <path d="M116.118426,43.065 L116.118426,43.065 C116.123536,34.462269 111.950116,26.3965697 104.934211,21.45" id="Path" stroke="#B5BFC7" stroke-width="6.6" opacity="0.4" stroke-linecap="round" stroke-linejoin="round"></path>
                <path d="M116.118421,72.765 L116.118421,85.965 M109.539474,79.365 L122.697368,79.365" id="Shape" stroke="#B5BFC7" stroke-width="6.6" opacity="0.4" stroke-linecap="round" stroke-linejoin="round"></path>
            </g>
        </g>
    </g>
</svg>