<svg xmlns="http://www.w3.org/2000/svg" width="94" height="114" viewBox="0 0 94 114">
    <g fill="none" fill-rule="evenodd">
        <path fill="#1EB8E7" fill-rule="nonzero" d="M91.01 14.415v25.139a98.307 98.307 0 0 1-4.63 32.597l-.482 1.315a63.863 63.863 0 0 1-6.344 12.851c-.455.698-.936 1.368-1.418 2.093A73.333 73.333 0 0 1 52.2 110.866c-1.419-.725-2.677-1.503-4.095-2.28C28.3 97.021 19.736 82.614 16.176 68.61c-.509-1.905-.884-3.783-1.258-5.634a114.106 114.106 0 0 1-1.5-20.525V14.415a156.57 156.57 0 0 0 36-9.82c1.9-.805 2.81-1.315 2.81-1.315A101.549 101.549 0 0 0 70.08 9.827a187.686 187.686 0 0 0 20.93 4.588z"/>
        <path fill="#0C9FE1" fill-rule="nonzero" d="M85.87 73.439a63.836 63.836 0 0 1-6.342 12.851c-.455.698-.937 1.369-1.419 2.093a73.305 73.305 0 0 1-25.935 22.43c-1.418-.725-2.676-1.503-4.095-2.281C28.3 97.022 19.735 82.588 16.176 68.61c-.509-1.905-.884-3.783-1.258-5.634 5.62-3.596 10.706-6.574 10.706-6.574l1.418-.295-13.516-13.656V14.415a156.49 156.49 0 0 0 35.972-9.82c3.399 1.261 8.03 2.951 8.03 3.085 11.508 6.735 17.53 29.808 10.705 43.276L85.87 73.44z"/>
        <path stroke="#FFF" stroke-width="2.683" d="M52.897 106.037C14.382 85.887 20.083 61.15 20.083 39.66V14.549" opacity=".4"/>
        <path stroke="#163150" stroke-linecap="round" stroke-linejoin="round" stroke-width="5.366" d="M91.01 39.661c0 20.927-3.078 51.807-38.81 71.178C13.714 90.69 13.393 60.561 13.393 39.661V14.415C39.622 10.04 52.201 3.28 52.201 3.28s13.034 7.057 38.809 11.135V39.66z"/>
        <path fill="#FFD166" fill-rule="nonzero" stroke="#163150" stroke-linecap="round" stroke-linejoin="round" stroke-width="5.366" d="M89.002 89.912L58.09 49.802c13.382-25.89-18.896-54.865-43.653-35.656-23.82 18.459-6.638 57.28 22.723 50.171l7.173 9.793 8.324.966-1.044 8.236 4.256 5.5 8.216 1.047-1.043 8.236 3.586 4.642 16.434.348 5.941-13.173zm-67.099-45.1c-10.358-13.414 9.903-29.11 20.234-15.668L21.903 44.812z"/>
        <path stroke="#FFF" stroke-width="2.683" d="M51.532 54.444L78.51 89.429" opacity=".6"/>
        <path fill="#163150" fill-rule="nonzero" d="M49.23 56.241l26.952 34.986" opacity=".4"/>
        <path stroke="#FFF" stroke-width="2.683" d="M46.179 31.746L23.188 49.561" opacity=".5"/>
    </g>
</svg>
