<svg width="163" height="123" viewBox="0 0 163 123" fill="none" xmlns="http://www.w3.org/2000/svg">
<path d="M44 2H51M2 102H161H2ZM84 121H152H84ZM50 121H76H50ZM10 56V43V56ZM136.43 23.33C140.532 24.1263 144.229 26.3249 146.888 29.5489C149.546 32.7729 151 36.8214 151 41V53L136.43 23.33ZM60 2H88.09C93.82 2 97.98 4.64 101.21 8L60 2Z" stroke="#E1E5E9" stroke-width="3" stroke-linecap="round" stroke-linejoin="round"/>
<path d="M145 41V101C145 104.183 143.736 107.235 141.485 109.485C139.235 111.736 136.183 113 133 113H28C24.8174 113 21.7652 111.736 19.5147 109.485C17.2643 107.235 16 104.183 16 101V20C16 16.8174 17.2643 13.7652 19.5147 11.5147C21.7652 9.26428 24.8174 8 28 8H88.09C101 8 102.88 29 113.47 29H133C136.183 29 139.235 30.2643 141.485 32.5147C143.736 34.7652 145 37.8174 145 41Z" fill="#F2F2F2"/>
<path opacity="0.1" d="M136.43 112.5C135.318 112.835 134.162 113.004 133 113H28C24.8174 113 21.7652 111.736 19.5147 109.485C17.2643 107.235 16 104.183 16 101V20C16 14 20.42 8 29.07 8C26.5937 8.73861 24.422 10.2568 22.878 12.3288C21.3339 14.4008 20.4999 16.9159 20.5 19.5V100.5C20.5 103.683 21.7643 106.735 24.0147 108.985C26.2652 111.236 29.3174 112.5 32.5 112.5H136.43Z" fill="#163050"/>
<path d="M145 41V101C145.001 102.579 144.691 104.142 144.087 105.601C143.483 107.059 142.597 108.384 141.48 109.5C141.828 108.366 142.003 107.186 142 106V48C142 41.37 136.63 32 130 32H110.47C99.88 32 98 11 85.09 11H27.5C19.5 11 16.5 15.5 16.5 16.5C17.2501 14.0401 18.7706 11.8862 20.8375 10.3558C22.9044 8.82548 25.4082 7.99962 27.98 8H88.09C101 8 102.88 29 113.47 29H133C136.183 29 139.235 30.2643 141.485 32.5147C143.736 34.7652 145 37.8174 145 41Z" fill="white"/>
<path d="M145 41V101C145 104.183 143.736 107.235 141.485 109.485C139.235 111.736 136.183 113 133 113H28C24.8174 113 21.7652 111.736 19.5147 109.485C17.2643 107.235 16 104.183 16 101V20C16 16.8174 17.2643 13.7652 19.5147 11.5147C21.7652 9.26428 24.8174 8 28 8H88.09C101 8 102.88 29 113.47 29H133C136.183 29 139.235 30.2643 141.485 32.5147C143.736 34.7652 145 37.8174 145 41Z" stroke="#163050" stroke-width="3" stroke-linecap="round" stroke-linejoin="round"/>
<g opacity="0.1">
<path opacity="0.1" d="M64.43 22.5002L58.5 45.5002C58 46.7502 53.28 50.8802 52.32 51.2502C49.15 52.4702 44.64 49.3702 46.58 45.2502L56.38 18.8402L56.44 18.7202C57.44 16.5402 63.5 13.4902 63.5 13.4902C63.5 13.4902 65.83 19.3602 64.43 22.5002Z" fill="#163050"/>
<path opacity="0.1" d="M43.8801 39.1603C47.9901 43.2803 41.7701 49.5203 37.6401 45.3903L28.8201 36.5703C28.4092 36.1622 28.0831 35.6769 27.8605 35.1423C27.638 34.6077 27.5234 34.0343 27.5234 33.4553C27.5234 32.8762 27.638 32.3028 27.8605 31.7682C28.0831 31.2336 28.4092 30.7483 28.8201 30.3403L37.6301 21.5003C38.9101 20.2203 44.1801 17.1303 45.5001 17.5003C48.4101 18.2703 46.7101 24.9003 43.8601 27.7503L38.1701 33.5003L43.8801 39.1603Z" fill="#163050"/>
<path opacity="0.1" d="M82.21 36.5702L73.38 45.3902C69.23 49.5402 63.03 43.2302 67.15 39.1602L72.86 33.5002L67.16 27.7902C66.7484 27.4113 66.4168 26.9538 66.1849 26.4447C65.9529 25.9356 65.8252 25.3852 65.8094 24.826C65.7935 24.2668 65.8898 23.7101 66.0926 23.1887C66.2954 22.6673 66.6005 22.1917 66.99 21.7902C67.99 20.7202 72.04 17.3602 73.5 17.5402C74.38 17.6502 72.59 20.7502 73.4 21.5402L82.21 30.3602C83.0314 31.1848 83.4925 32.3013 83.4925 33.4652C83.4925 34.629 83.0314 35.7455 82.21 36.5702Z" fill="#163050"/>
</g>
<path d="M54.5802 47.0002C54.0883 46.9997 53.6046 46.8745 53.1742 46.6364C52.7439 46.3982 52.3809 46.0548 52.1192 45.6384C51.8575 45.2219 51.7057 44.7459 51.6779 44.2548C51.6501 43.7637 51.7472 43.2736 51.9602 42.8302L61.7902 16.3702C62.03 15.8764 62.4037 15.46 62.8686 15.1682C63.3336 14.8765 63.8712 14.7213 64.4202 14.7202C64.8534 14.7213 65.2807 14.8204 65.6702 15.0102C66.3663 15.3431 66.9017 15.9389 67.1586 16.6665C67.4155 17.3941 67.3729 18.194 67.0402 18.8902L57.2102 45.3502C56.9704 45.844 56.5967 46.2605 56.1317 46.5522C55.6667 46.8439 55.1291 46.9992 54.5802 47.0002ZM74.2702 42.1802C73.6877 42.1873 73.1165 42.0194 72.6305 41.6983C72.1445 41.3771 71.7661 40.9175 71.5442 40.379C71.3223 39.8404 71.2671 39.2476 71.3859 38.6773C71.5046 38.107 71.7918 37.5855 72.2102 37.1802L78.9802 30.5002L72.2202 23.7402C71.687 23.1914 71.3914 22.4548 71.3974 21.6897C71.4034 20.9246 71.7104 20.1926 72.2521 19.6522C72.7938 19.1119 73.5265 18.8066 74.2916 18.8024C75.0567 18.7983 75.7927 19.0957 76.3402 19.6302L85.1502 28.4502C85.6943 28.9957 85.9998 29.7347 85.9998 30.5052C85.9998 31.2757 85.6943 32.0147 85.1502 32.5602L76.3202 41.3802C75.7707 41.9104 75.0337 42.2016 74.2702 42.1902V42.1802ZM44.7602 42.1802C44.3776 42.1819 43.9986 42.1077 43.6449 41.9618C43.2913 41.8158 42.9702 41.6012 42.7002 41.3302L33.8802 32.5002C33.3361 31.9547 33.0305 31.2157 33.0305 30.4452C33.0305 29.6747 33.3361 28.9357 33.8802 28.3902L42.6902 19.5702C42.9546 19.2773 43.2759 19.0412 43.6345 18.8763C43.993 18.7115 44.3814 18.6212 44.7759 18.6112C45.1704 18.6011 45.5629 18.6714 45.9294 18.8177C46.2959 18.9641 46.6288 19.1835 46.9078 19.4625C47.1869 19.7416 47.4063 20.0745 47.5526 20.441C47.699 20.8075 47.7693 21.2 47.7592 21.5945C47.7491 21.989 47.6589 22.3774 47.4941 22.7359C47.3292 23.0945 47.0931 23.4158 46.8002 23.6802L40.0902 30.5002L46.8602 37.2602C47.2786 37.6655 47.5657 38.187 47.6844 38.7573C47.8032 39.3276 47.748 39.9204 47.5261 40.459C47.3042 40.9975 46.9258 41.4571 46.4398 41.7783C45.9538 42.0994 45.3826 42.2673 44.8002 42.2602L44.7602 42.1802Z" fill="#FFD166" stroke="#163050" stroke-width="3" stroke-linecap="round" stroke-linejoin="round"/>
<path opacity="0.1" d="M135 76.75V106.96C134.995 109.03 134.548 111.076 133.69 112.96H21.6301C30.5501 112.96 30.7801 105.73 30.7801 96.81V76.71C30.7801 72.8643 32.3078 69.1762 35.0271 66.4569C37.7464 63.7376 41.4345 62.21 45.2801 62.21H120.49C122.398 62.2086 124.288 62.584 126.051 63.3146C127.814 64.0453 129.416 65.1167 130.764 66.4675C132.112 67.8183 133.18 69.422 133.907 71.1865C134.634 72.951 135.005 74.8416 135 76.75Z" fill="#163050"/>
<path d="M28.5 113C28.8 113 29.1 113 29.39 113C29.5231 113.011 29.6569 113.011 29.79 113L30.48 112.92L31.04 112.82L31.32 112.76L31.57 112.7H31.68C31.93 112.64 32.16 112.58 32.39 112.5L32.6 112.43C32.89 112.34 33.18 112.24 33.46 112.13H33.56C33.83 112.02 34.1 111.91 34.36 111.77L34.46 111.71C34.5923 111.655 34.7194 111.588 34.84 111.51C34.9321 111.471 35.0222 111.428 35.11 111.38C36.1767 110.768 37.1557 110.015 38.02 109.14L38.39 108.75C38.8205 108.281 39.215 107.779 39.57 107.25C39.73 107.02 39.88 106.78 40.02 106.54C40.19 106.26 40.33 105.98 40.48 105.7C40.6259 105.414 40.7561 105.12 40.87 104.82C41.0213 104.468 41.1516 104.108 41.26 103.74C41.34 103.47 41.42 103.2 41.48 102.92C41.54 102.64 41.61 102.33 41.66 102.02C41.6706 101.954 41.6706 101.886 41.66 101.82C41.66 101.52 41.75 101.22 41.77 100.92C41.79 100.62 41.77 100.18 41.77 99.8002V67.2202C41.7672 64.8925 42.3703 62.6041 43.52 60.5802L43.6 60.4602C43.6817 60.3085 43.7718 60.1616 43.87 60.0201L43.97 59.8502C43.9974 59.8083 44.0275 59.7682 44.06 59.7302C44.093 59.6603 44.1369 59.5962 44.19 59.5402C44.3157 59.3457 44.4526 59.1588 44.6 58.9802C44.71 58.8302 44.83 58.6801 44.97 58.5201L45.05 58.4302C45.23 58.2202 45.42 58.0202 45.61 57.8302L46.16 57.2902L46.24 57.2202C46.45 57.0302 46.68 56.8402 46.91 56.6602L47.13 56.4802C47.29 56.3702 47.43 56.2602 47.59 56.1602H47.66L47.83 56.0502C47.99 55.9402 48.15 55.8402 48.32 55.7402C48.49 55.6402 48.89 55.4201 49.18 55.2701C49.47 55.1201 49.57 55.0802 49.77 54.9902C50.0951 54.84 50.4291 54.7098 50.77 54.6002C50.9599 54.5268 51.1535 54.4634 51.35 54.4102C51.9227 54.2388 52.5078 54.1118 53.1 54.0302L53.45 53.9702L54.04 53.9102C54.39 53.9102 54.74 53.9102 55.1 53.9102H131.4C133.16 53.9102 134.902 54.2568 136.528 54.9302C138.154 55.6036 139.631 56.5906 140.875 57.8349C142.12 59.0792 143.107 60.5564 143.78 62.1822C144.453 63.808 144.8 65.5504 144.8 67.3102V99.6002C144.8 99.9802 144.8 100.35 144.8 100.72C144.691 102.064 144.374 103.383 143.86 104.63C142.863 107.108 141.148 109.23 138.934 110.723C136.72 112.217 134.11 113.013 131.44 113.01" fill="#1EB8E7"/>
<path opacity="0.3" d="M141.09 85.4998V67.9098C141.09 62.2898 135.41 57.7298 129.79 57.7298H51.3901C48.9801 57.7298 45.5901 59.4798 43.6401 60.5898C44.8128 58.5323 46.5094 56.822 48.5574 55.6329C50.6055 54.4437 52.9319 53.8182 55.3001 53.8198H131.6C135.154 53.8198 138.562 55.2316 141.075 57.7446C143.588 60.2576 145 63.6659 145 67.2198V99.5998C141.75 95.6298 141.09 90.6498 141.09 85.4998Z" fill="white"/>
<path d="M52.5102 54.3799C49.1602 55.4999 46.9402 58.9299 46.9402 68.9899V104.63H40.9402C41.4544 103.383 41.7716 102.064 41.8802 100.72C41.8802 100.35 41.8802 99.9799 41.8802 99.5999V67.2199C41.9002 58.1899 45.8102 55.4999 52.5102 54.3799Z" fill="#0C9FE1"/>
<path d="M131.6 113C134.269 113.004 136.879 112.209 139.092 110.717C141.305 109.225 143.022 107.105 144.02 104.63H40.92C39.9092 107.093 38.1907 109.201 35.9817 110.687C33.7727 112.174 31.1725 112.972 28.51 112.98L131.6 113Z" fill="#0C9FE1"/>
<path d="M28.5 113C28.8 113 29.1 113 29.39 113C29.5231 113.011 29.6569 113.011 29.79 113L30.48 112.92L31.04 112.82L31.32 112.76L31.57 112.7H31.68C31.93 112.64 32.16 112.58 32.39 112.5L32.6 112.43C32.89 112.34 33.18 112.24 33.46 112.13H33.56C33.83 112.02 34.1 111.91 34.36 111.77L34.46 111.71C34.5923 111.655 34.7194 111.588 34.84 111.51C34.9321 111.471 35.0222 111.428 35.11 111.38C36.1767 110.768 37.1557 110.015 38.02 109.14L38.39 108.75C38.8217 108.285 39.2163 107.787 39.57 107.26C39.73 107.03 39.88 106.79 40.02 106.55C40.19 106.27 40.33 105.99 40.48 105.71C40.6259 105.424 40.7561 105.13 40.87 104.83C41.0213 104.478 41.1516 104.118 41.26 103.75C41.34 103.48 41.42 103.21 41.48 102.93C41.54 102.65 41.61 102.34 41.66 102.03C41.6706 101.964 41.6706 101.896 41.66 101.83C41.66 101.53 41.75 101.23 41.77 100.93C41.79 100.63 41.77 100.19 41.77 99.8102V67.2202C41.7672 64.8924 42.3703 62.6041 43.52 60.5802L43.6 60.4602C43.6817 60.3085 43.7718 60.1616 43.87 60.0201L43.97 59.8502C43.9974 59.8083 44.0275 59.7682 44.06 59.7302C44.093 59.6603 44.1369 59.5962 44.19 59.5402C44.3157 59.3457 44.4526 59.1588 44.6 58.9802C44.71 58.8302 44.83 58.6801 44.97 58.5201L45.05 58.4302C45.23 58.2202 45.42 58.0202 45.61 57.8302L46.16 57.2902L46.24 57.2202C46.45 57.0302 46.68 56.8402 46.91 56.6602L47.13 56.4802C47.29 56.3702 47.43 56.2602 47.59 56.1602H47.66L47.83 56.0502C47.99 55.9402 48.15 55.8402 48.32 55.7402C48.49 55.6402 48.89 55.4201 49.18 55.2701C49.47 55.1201 49.57 55.0802 49.77 54.9902C50.0951 54.84 50.4291 54.7098 50.77 54.6002C50.9599 54.5268 51.1535 54.4634 51.35 54.4102C51.9227 54.2388 52.5078 54.1118 53.1 54.0302L53.45 53.9702L54.04 53.9102C54.39 53.9102 54.74 53.9102 55.1 53.9102H131.4C133.16 53.9102 134.902 54.2568 136.528 54.9302C138.154 55.6036 139.631 56.5906 140.875 57.8349C142.12 59.0792 143.107 60.5564 143.78 62.1822C144.453 63.808 144.8 65.5504 144.8 67.3102V99.6002C144.8 99.9802 144.8 100.35 144.8 100.72C144.519 104.07 142.99 107.191 140.515 109.466C138.04 111.74 134.801 113.002 131.44 113H28.5Z" stroke="#163050" stroke-width="3" stroke-miterlimit="10"/>
<path d="M28.5 113C30.8097 112.996 33.0795 112.397 35.09 111.26C34.7437 111.873 34.3456 112.455 33.9 113H28.5Z" stroke="#163050" stroke-width="3" stroke-miterlimit="10"/>
<path d="M94.57 113H95.92C97.241 112.999 98.5452 112.704 99.738 112.136C100.931 111.569 101.982 110.743 102.816 109.718C103.65 108.694 104.246 107.497 104.559 106.214C104.873 104.93 104.897 103.594 104.63 102.3L100.84 89.3799C111.59 82.7899 106.91 66.5899 94.84 66.1099C82.29 65.6099 76.84 81.9099 87.25 89.0499L82.65 105.17C82.0063 107.429 80.6437 109.416 78.7688 110.831C76.8938 112.246 74.6088 113.011 72.26 113.01L94.57 113Z" fill="#DCDEE1"/>
<path d="M96.27 104.01C96.6129 104.803 96.7479 105.67 96.6624 106.53C96.5768 107.389 96.2734 108.213 95.7809 108.922C95.2884 109.632 94.623 110.205 93.8477 110.586C93.0724 110.967 92.2127 111.144 91.35 111.1L89.21 111H78.47C80.4795 109.586 81.9414 107.524 82.61 105.16L87.21 89.0498C85.5011 87.9234 84.1034 86.3848 83.1456 84.576C82.1879 82.7672 81.7011 80.7463 81.73 78.6998C83.6618 77.4767 85.9268 76.886 88.21 77.0098C99.05 77.4398 103.21 91.9498 93.62 97.8498L96.27 104.01Z" fill="#F2F2F2"/>
<path d="M104.63 102.3C104.899 103.594 104.876 104.932 104.563 106.216C104.25 107.5 103.655 108.698 102.821 109.722C101.986 110.747 100.934 111.573 99.7404 112.14C98.5466 112.707 97.2415 113.001 95.92 113H72.22C74.5675 112.996 76.8502 112.229 78.7242 110.815C80.5981 109.401 81.9618 107.417 82.61 105.16L87.21 89.0502C85.5011 87.9238 84.1034 86.3852 83.1456 84.5764C82.1879 82.7676 81.7011 80.7467 81.73 78.7002C81.716 77.002 82.0482 75.3188 82.7062 73.7533C83.3643 72.1877 84.3345 70.7727 85.5576 69.5946C86.7806 68.4164 88.231 67.4998 89.82 66.9008C91.4091 66.3017 93.1035 66.0327 94.8 66.1102C106.91 66.5902 111.59 82.8002 100.8 89.3802L104.63 102.3Z" stroke="#163050" stroke-width="3" stroke-miterlimit="10"/>
</svg>
