<svg xmlns="http://www.w3.org/2000/svg" viewBox="0 0 108.43 97.38"><path d="M41.27,81.94q5.26,12.32,12.34,14.45c7.08,2.15,16.2-1.3,18.29-11.76S74,68.21,77.35,64.36c2.24-2.56,4.64-4,7.2-4.3" transform="translate(0 -0.91)" style="fill:none;stroke:#005268;stroke-width:2.5989999771118164px"/><path d="M33.4,63.78l1.37,4-1.75.6,5.57,16.16,7.16-2.46L40.18,65.91l-1.74.6-1.38-4L33.4,63.78ZM85.3,59l.27,1.38,3.15-.61.92,4.72,16.78-3.27L104.24,50,87.46,53.23l1,5.11L85.3,59Z" transform="translate(0 -0.91)" style="fill:#1eb8e7;stroke:#005268;stroke-width:2.5989999771118164px;fill-rule:evenodd"/><path d="M7.79,8.13A9,9,0,0,0,1.64,19.21L10.8,51.15A9,9,0,0,0,14,55.81l9.61,7.32a9,9,0,0,0,7.9,1.49L37,63A9,9,0,0,0,43,57.58l4.26-11.3a8.86,8.86,0,0,0,.23-5.64L38.3,8.7A9,9,0,0,0,27.22,2.56L7.79,8.13Z" transform="translate(0 -0.91)" style="fill:#1eb8e7;stroke:#005268;stroke-width:2.5989999771118164px;fill-rule:evenodd"/><path d="M7,18.15a1,1,0,0,0-.67,1.21h0l7.2,25.12a1,1,0,0,0,1.21.67h0l26.16-7.5a1,1,0,0,0,.67-1.21L34.38,11.32a1,1,0,0,0-1.21-.67L7,18.15Z" transform="translate(0 -0.91)" style="fill:#077493;stroke:#005268;stroke-width:2.5989999771118164px;fill-rule:evenodd"/><path d="M103.85,52.51l3.12-.6,1.46,7.5L105.3,60Z" transform="translate(0 -0.91)" style="fill:#005268;fill-rule:evenodd"/></svg>
