<svg width="22" height="22" viewBox="0 0 22 22" fill="none" xmlns="http://www.w3.org/2000/svg">
<path fill-rule="evenodd" clip-rule="evenodd" d="M21.0833 22H0.916667C0.40975 22 0 21.5893 0 21.0833V0.916667C0 0.410667 0.40975 0 0.916667 0H21.0833C21.5903 0 22 0.410667 22 0.916667V21.0833C22 21.5893 21.5903 22 21.0833 22ZM20.1667 1.83333H1.83333V20.1667H20.1667V1.83333ZM13.3244 11.6482V9.97198L8.40728 14.8891C8.04948 15.2469 7.46936 15.2475 7.11091 14.8891C6.75247 14.5306 6.75312 13.9505 7.11091 13.5927L12.028 8.67562H10.3518C9.84494 8.67562 9.43529 8.26597 9.43529 7.75909C9.43464 7.25286 9.84559 6.84192 10.3518 6.84257H14.2409C14.2435 6.84257 14.2448 6.84386 14.2474 6.84386C14.3647 6.84451 14.4814 6.86784 14.5916 6.91322C14.7031 6.95989 14.8048 7.02665 14.8891 7.11091C14.9734 7.19518 15.0401 7.29694 15.0868 7.40843C15.1328 7.51927 15.1561 7.63594 15.1561 7.75391C15.1568 7.75585 15.1581 7.75715 15.1574 7.75909V11.6482C15.1581 12.1544 14.7471 12.5654 14.2409 12.5647C13.734 12.5647 13.3244 12.1551 13.3244 11.6482Z" fill="#1EB8E7"/>
</svg>
