<svg xmlns="http://www.w3.org/2000/svg" width="24" height="24" viewBox="0 0 24 24">
    <path fill="#007A99" fill-rule="evenodd" d="M22.5 19.51h-3.063v3.74a.75.75 0 0 1-.75.75h-13.5c-.414 0-.687-.33-.687-.745V19.51h-3c-.827 0-1.5-.674-1.5-1.501V7.499c0-.828.673-1.502 1.5-1.502h3V.752A.75.75 0 0 1 5.25 0h13.5a.75.75 0 0 1 .75.752v5.245h3c.827 0 1.5.674 1.5 1.502v10.51c0 .827-.673 1.501-1.5 1.501zm-16.563-.758l.002.008-.002.007v3.73L18 22.505v-3.446a.747.747 0 0 1 0-.597v-4.206L5.937 14.24v4.511zM18 1.502H6v4.495h12V1.502zm4.5 5.997h-3.71c-.014.001-.026.009-.04.009H5.25c-.014 0-.026-.008-.04-.009H1.5v10.51h3v-4.504c0-.416.273-.766.687-.766h13.5a.75.75 0 0 1 .75.75v4.52H22.5V7.499zM18 9.76a.75.75 0 0 1 .75-.75h.75a.75.75 0 1 1 0 1.5h-.75a.75.75 0 0 1-.75-.75z"/>
</svg>
