<svg xmlns="http://www.w3.org/2000/svg" width="51" height="49" viewBox="0 0 51 49">
    <g fill="none" fill-rule="evenodd">
        <path fill="#CFDBEE" fill-rule="nonzero" stroke="#163150" stroke-linecap="round" stroke-linejoin="round" stroke-width="2.222" d="M30.589 7.938v13.429c-.004 2.62-2.006 4.798-4.6 5.002h-9.845l-6.666 6.714V26.37h-2.8c-2.747-.006-4.972-2.247-4.978-5.014V7.927C1.706 5.16 3.931 2.92 6.678 2.914h18.889c2.746.006 4.971 2.247 4.977 5.013l.045.011z"/>
        <path fill="#FFF" fill-rule="nonzero" stroke="#163150" stroke-linecap="round" stroke-linejoin="round" stroke-width="2.222" d="M41.7 16.353V34.84c0 2.769-2.229 5.013-4.978 5.013h-13.91l-6.668 6.715v-6.715h-2.8c-2.746-.006-4.971-2.247-4.977-5.013V21.411c.006-2.766 2.23-5.007 4.977-5.013h11.834l5.41-3.458 3.334-2.137 7.778 5.55z"/>
        <path fill="#003C77" fill-rule="nonzero" d="M41.7 29.726a8.871 8.871 0 0 0-1.033 8.203 4.977 4.977 0 0 1-3.945 1.958h-12.51c.396-1.458.594-2.964.588-4.476h-8.422a1.115 1.115 0 0 1-1.111-1.12c0-.617.497-1.118 1.11-1.118h8.267a13.603 13.603 0 0 1 0-2.238h-8.266a1.115 1.115 0 0 1-1.111-1.12c0-.618.497-1.119 1.11-1.119h8.7c.226-.774.528-1.524.9-2.238h-9.6a1.115 1.115 0 0 1-1.11-1.119c0-.618.497-1.119 1.11-1.119H27.49c.522-.682 1.111-1.287 1.6-1.846H20.2a1.837 1.837 0 0 1-1.744-1.51v-2.239-2.238h-2.223c1.023-6.01 6.078-12.31 12.223-13.429a10.432 10.432 0 0 1 2.222 5.014l3.333 2.82 7.778 5.595-.089 13.339z" opacity=".2"/>
        <path fill="#1EB8E7" fill-rule="nonzero" stroke="#163150" stroke-linecap="round" stroke-linejoin="round" stroke-width="2.222" d="M35.278 18.323c.1-1.869-1.911-3.089-3.567-3.089a3.055 3.055 0 0 0-2.387.929 3.102 3.102 0 0 0-.857 2.428h-7.911c-.156-7.676 4.944-11.09 11.11-11.19C38.99 7.2 43.89 12.213 43.89 18.121c0 7.476-6.989 8.953-6.667 15.018h-8.889c-.81-7.979 6.534-9.109 6.945-14.816zm3.1 23.768c0-3.09-2.488-5.595-5.556-5.595s-5.555 2.505-5.555 5.595 2.487 5.596 5.555 5.596c3.064-.007 5.545-2.51 5.545-5.596h.01z"/>
        <path stroke="#B5BFC7" stroke-linecap="round" stroke-linejoin="round" stroke-width="2.222" d="M47.978 10.747A15.571 15.571 0 0 0 36.71 2.052M49.244 20.225c.162-.908.244-1.83.245-2.753 0-.522-.026-1.037-.078-1.544" opacity=".4"/>
    </g>
</svg>
