<svg xmlns="http://www.w3.org/2000/svg" width="16" height="18" viewBox="0 0 16 18">
    <g fill="#007A99" fill-rule="evenodd">
        <path d="M3.284 3.567a6.8 6.8 0 0 1 9.044-.246l-2.07.081a.488.488 0 0 0-.464.514.49.49 0 0 0 .481.478h.018l3.179-.121a.488.488 0 0 0 .463-.496V3.74v-.022l-.117-3.24a.488.488 0 0 0-.5-.478.488.488 0 0 0-.463.515l.075 2.031A7.694 7.694 0 0 0 8.34.736C6.23.624 4.204 1.37 2.64 2.832.487 4.842-.426 7.898.259 10.808a.482.482 0 0 0 .58.363.498.498 0 0 0 .353-.598c-.598-2.557.2-5.242 2.092-7.006zM15.767 7.182a.481.481 0 0 0-.581-.364.498.498 0 0 0-.353.6c.602 2.556-.2 5.241-2.092 7.004a6.81 6.81 0 0 1-4.657 1.848 6.814 6.814 0 0 1-4.444-1.65l2.096-.194a.491.491 0 0 0 .434-.54.482.482 0 0 0-.523-.448l-3.168.294a.491.491 0 0 0-.435.54l.285 3.266a.486.486 0 0 0 .477.451c.015 0 .029 0 .043-.003a.491.491 0 0 0 .435-.54l-.171-1.988a7.724 7.724 0 0 0 4.975 1.808c1.963 0 3.83-.742 5.298-2.109 2.153-2.01 3.065-5.062 2.38-7.975z"/>
    </g>
</svg>
