<svg xmlns="http://www.w3.org/2000/svg" width="130" height="99" viewBox="0 0 130 99">
    <defs>
        <linearGradient id="a" x1="17.388%" x2="82.47%" y1="37.558%" y2="91.315%">
            <stop offset="0%" stop-opacity=".1"/>
            <stop offset="100%" stop-opacity="0"/>
        </linearGradient>
        <linearGradient id="b" x1="22.076%" x2="120.535%" y1="-21.98%" y2="77.938%">
            <stop offset="0%" stop-opacity=".1"/>
            <stop offset="100%" stop-opacity="0"/>
        </linearGradient>
    </defs>
    <g fill="none" fill-rule="nonzero">
        <path fill="#005268" d="M123.782 33.547V11.134c0-6.041-4.825-10.954-10.759-10.954H34.224C28.29.18.051 18.677.051 24.719v63.096c0 6.041 4.825 10.954 10.76 10.954h102.212c5.934 0 10.76-4.913 10.76-10.955V65.401a8.193 8.193 0 0 0 5.379-7.71V41.258a8.193 8.193 0 0 0-5.38-7.712z"/>
        <path fill="#1EB8E7" d="M113.423 93.58H10.626c-2.983 0-5.41-2.474-5.41-5.513V26.992c0-3.039 25.657-21.623 28.639-21.623h79.568c2.982 0 5.41 2.474 5.41 5.513v22.053h-16.231c-8.95 0-16.231 7.419-16.231 16.54 0 9.12 7.28 16.539 16.23 16.539h16.232v22.053c0 3.039-2.428 5.513-5.41 5.513z"/>
        <path fill="#1EB8E7" d="M123.997 56.683a2.59 2.59 0 0 1-2.582 2.595H103.34c-5.697 0-10.33-4.654-10.33-10.378s4.633-10.378 10.33-10.378h18.075a2.59 2.59 0 0 1 2.582 2.595v15.566z"/>
        <path fill="url(#a)" d="M106.215 59.281h13.407l-13.407-14.597-6.518 7.342z"/>
        <ellipse cx="103.34" cy="48.9" fill="#005268" rx="5.164" ry="5.189"/>
        <path fill="url(#b)" d="M118.655 88.391c.05-.301.178-.575.178-.89V65.69h-16.168c-3.592 0-6.881-1.23-9.568-3.243l-.086-.001 25.644 25.944z"/>
        <path d="M123.782 33.547V11.134c0-6.041-4.825-10.954-10.759-10.954H10.811C4.875.18.05 5.093.05 11.134v76.68c0 6.042 4.825 10.955 10.76 10.955h102.212c5.934 0 10.76-4.913 10.76-10.955V65.401a8.193 8.193 0 0 0 5.379-7.71V41.258a8.193 8.193 0 0 0-5.38-7.712z"/>
        <circle cx="79" cy="41" r="4" fill="#005268"/>
        <circle cx="45" cy="41" r="4" fill="#005268"/>
        <path fill="#005268" stroke="#005268" d="M46 56.965C50.233 52.322 55.567 50 62 50s11.767 2.322 16 6.965c-.155.047-.268.047-.337 0-5.23-3.543-10.434-5.53-15.663-5.53-5.23 0-10.55 1.986-15.78 5.53-.07.047-.143.047-.22 0z"/>
        <path fill="#E3EDFF" stroke="#005268" stroke-width="2" d="M40.814 48.507c1.47 2.594 2.186 4.22 2.186 5.16a3 3 0 0 1-6 0c0-.927.677-2.553 2.063-5.14l.857-1.6.894 1.58z"/>
        <path fill="#005268" d="M37.528 1L15.256 11.388 1 28.518h28.528a8 8 0 0 0 8-8V1z"/>
        <path fill="#1EB8E7" d="M33.47 5c-5.644 2.046-10.66 4.64-15.05 7.781-4.39 3.142-8.862 6.78-13.42 10.913h23.47a5 5 0 0 0 5-5V5z"/>
    </g>
</svg>
