<svg width="19" height="24" viewBox="0 0 19 24" fill="none" xmlns="http://www.w3.org/2000/svg">
<path fill-rule="evenodd" clip-rule="evenodd" d="M5.02445 7.25581H10.3604C10.8542 7.25581 11.2539 6.84934 11.2539 6.3458C11.2539 5.84227 10.8542 5.43579 10.3604 5.43579H5.02445C4.53065 5.43579 4.13095 5.84227 4.13095 6.3458C4.13095 6.84934 4.53065 7.25581 5.02445 7.25581ZM5.02445 11.0718H13.8892C14.3824 11.0718 14.7827 10.6593 14.7827 10.1618C14.7827 9.65824 14.3824 9.25177 13.8892 9.25177H5.02445C4.53065 9.25177 4.13095 9.65824 4.13095 10.1618C4.13095 10.6593 4.53065 11.0718 5.02445 11.0718ZM13.9321 14.8817H5.06734C4.57413 14.8817 4.17384 14.4752 4.17384 13.9717C4.17384 13.4682 4.57413 13.0617 5.06734 13.0617H13.9321C14.4259 13.0617 14.8256 13.4682 14.8256 13.9717C14.8256 14.4752 14.4259 14.8817 13.9321 14.8817ZM5.02445 18.6977H13.8892C14.3824 18.6977 14.7827 18.2851 14.7827 17.7877C14.7827 17.2841 14.3824 16.8777 13.8892 16.8777H5.02445C4.53065 16.8777 4.13095 17.2841 4.13095 17.7877C4.13095 18.2851 4.53065 18.6977 5.02445 18.6977ZM2.08484 1.82002C1.92341 1.82002 1.787 1.95956 1.787 2.12336V21.8766C1.787 22.0404 1.92341 22.18 2.08484 22.18H16.9152C17.0766 22.18 17.213 22.0404 17.213 21.8766V2.12336C17.213 1.95956 17.0766 1.82002 16.9152 1.82002H2.08484ZM16.9152 24H2.08484C0.935198 24 0 23.0475 0 21.8766V2.12336C0 0.952477 0.935198 0 2.08484 0H16.9152C18.0648 0 19 0.952477 19 2.12336V21.8766C19 23.0475 18.0648 24 16.9152 24Z" fill="#163150"/>
</svg>
