<?xml version="1.0" encoding="UTF-8"?>
<svg width="94px" height="114px" viewBox="0 0 94 114" version="1.1" xmlns="http://www.w3.org/2000/svg" xmlns:xlink="http://www.w3.org/1999/xlink">
    <!-- Generator: sketchtool 53.2 (72643) - https://sketchapp.com -->
    <title>F0739086-BD8C-4061-9ABD-93792C7F5EB2</title>
    <desc>Created with sketchtool.</desc>
    <g id="Unlock-/-Lock-/-Create-Wallet" stroke="none" stroke-width="1" fill="none" fill-rule="evenodd">
        <g id="GAU---04---Unlock---Keystore-File" transform="translate(-799.000000, -281.000000)">
            <g id="icn-lock-safety" transform="translate(800.000000, 282.000000)">
                <path d="M90.0097059,13.4146341 L90.0097059,38.5536585 C90.309646,49.6034217 88.7441631,60.6245189 85.3794118,71.1512195 L84.8976471,72.4658537 C83.2716771,76.9749082 81.1438314,81.2858649 78.5544118,85.3170732 C78.0994118,86.0146341 77.6176471,86.6853659 77.1358824,87.4097561 C70.3830126,96.8447085 61.4949874,104.5405 51.2008824,109.865854 C49.7823529,109.141463 48.5244118,108.363415 47.1058824,107.585366 C27.3,96.0219512 18.7352941,81.6146341 15.1755882,67.6097561 C14.6670588,65.704878 14.2923529,63.8268293 13.9176471,61.9756098 C12.800889,55.1935391 12.2992318,48.3240125 12.4188235,41.4512195 C12.4188235,40.4853659 12.4188235,39.5463415 12.4188235,38.7682927 L12.4188235,13.4146341 C24.7652822,11.5885599 36.8502368,8.29208193 48.4173529,3.59512195 C50.3176471,2.7902439 51.2276471,2.2804878 51.2276471,2.2804878 C56.9614078,5.01647892 62.9381922,7.20816291 69.0797059,8.82682927 C75.9637411,10.7535095 82.9517427,12.2852624 90.0097059,13.4146341 L90.0097059,13.4146341 Z" id="Path" fill="#1EB8E7" fill-rule="nonzero"></path>
                <path d="M84.8708824,72.4390244 C83.2451221,76.9481686 81.117265,81.2591483 78.5276471,85.2902439 C78.0726471,85.9878049 77.5908824,86.6585366 77.1091176,87.3829268 C70.3538321,96.8087865 61.4658795,104.495321 51.1741176,109.812195 C49.7555882,109.087805 48.4976471,108.309756 47.0791176,107.531707 C27.3,96.0219512 18.7352941,81.5878049 15.1755882,67.6097561 C14.6670588,65.704878 14.2923529,63.8268293 13.9176471,61.9756098 C19.5382353,58.3804878 24.6235294,55.402439 24.6235294,55.402439 L26.0420588,55.1073171 L12.5258824,41.4512195 C12.5258824,40.4853659 12.5258824,39.5731707 12.5258824,38.7682927 L12.5258824,13.4146341 C24.8633959,11.5872277 36.9393344,8.29075823 48.4976471,3.59512195 C51.8967647,4.85609756 56.5270588,6.54634146 56.5270588,6.6804878 C68.0358824,13.4146341 74.0579412,36.4878049 67.2329412,49.9560976 L84.8708824,72.4390244 Z" id="Path" fill="#0C9FE1" fill-rule="nonzero"></path>
                <path d="M51.8967647,105.036585 C13.3823529,84.8878049 19.0832353,60.1512195 19.0832353,38.6609756 L19.0832353,13.5487805" id="Path" stroke="#FFFFFF" stroke-width="2.68292683" opacity="0.4"></path>
                <path d="M90.0097059,38.6609756 C90.0097059,59.5878049 86.9317647,90.4682927 51.2008824,109.839024 C12.7132353,89.6902439 12.3920588,59.5609756 12.3920588,38.6609756 L12.3920588,13.4146341 C38.6214706,9.04146341 51.2008824,2.2804878 51.2008824,2.2804878 C51.2008824,2.2804878 64.2352941,9.33658537 90.0097059,13.4146341 L90.0097059,38.6609756 Z" id="Path" stroke="#163150" stroke-width="5.36585366" stroke-linecap="round" stroke-linejoin="round"></path>
                <path d="M88.0023529,88.9121951 L57.0891176,48.802439 C70.4714706,22.9121951 38.1932353,-6.06341463 13.4358824,13.1463415 C-10.3847059,31.604878 6.79823529,70.4268293 36.1591176,63.3170732 L43.3320588,73.1097561 L51.6558824,74.0756098 L50.6120588,82.3121951 L54.8676471,87.8121951 L63.0844118,88.8585366 L62.0405882,97.095122 L65.6270588,101.736585 L82.0605882,102.085366 L88.0023529,88.9121951 Z M20.9032353,43.8121951 C10.5452941,30.397561 30.8061765,14.702439 41.1373529,28.1439024 L20.9032353,43.8121951 Z" id="Shape" stroke="#163150" stroke-width="5.36585366" fill="#FFD166" fill-rule="nonzero" stroke-linecap="round" stroke-linejoin="round"></path>
                <path d="M50.5317647,53.4439024 L77.5105882,88.4292683" id="Path" stroke="#FFFFFF" stroke-width="2.68292683" opacity="0.6"></path>
                <path d="M48.23,55.2414634 L75.1820588,90.2268293" id="Path" fill="#163150" fill-rule="nonzero" opacity="0.4"></path>
                <path d="M45.1788235,30.7463415 L22.1879412,48.5609756" id="Path" stroke="#FFFFFF" stroke-width="2.68292683" opacity="0.5"></path>
            </g>
        </g>
    </g>
</svg>