<svg xmlns="http://www.w3.org/2000/svg" width="99" height="87" viewBox="0 0 99 87">
    <g fill="none" fill-rule="evenodd" stroke="#005268" stroke-width="2.71" transform="rotate(17 27.427 30.272)">
        <path fill="#077493" d="M1.355 8.798v25.193H94.12V8.798H1.355zM79.03 29.95c-4.78 0-8.664-3.826-8.664-8.555 0-4.73 3.883-8.556 8.664-8.556 4.78 0 8.664 3.826 8.664 8.556 0 4.73-3.884 8.555-8.664 8.555z"/>
        <rect width="38.014" height="8.991" x="15.835" y="16.899" fill="#1097C0" rx=".903"/>
        <path fill="#1097C0" d="M14.187 68.021l17.814 17.814 56.688-56.688c4.919-4.92 4.919-12.895 0-17.814-4.92-4.92-12.895-4.92-17.814 0L14.187 68.021zM85.35 28.044c-3.737 3.737-9.762 3.782-13.458.086-3.696-3.696-3.65-9.721.086-13.459 3.737-3.737 9.763-3.782 13.459-.086 3.696 3.696 3.65 9.722-.087 13.459z"/>
    </g>
</svg>
