<svg xmlns="http://www.w3.org/2000/svg" width="500.5" height="462.39" viewBox="0 0 500.5 462.39"><title>Untitled-1</title><path d="M9.05,265H80.94V148.24H9.05Z" style="fill:#25b9e6"/><path d="M80.94,265H188.76V89.83H80.94Zm179.7-77.1L210.57,265H188.76V148.23h71.88v39.71Z" style="fill:#25b9e6"/><path d="M116.87,130.26h-9a4.49,4.49,0,0,1-4.49-4.49v-9a4.49,4.49,0,0,1,4.49-4.49h9a4.49,4.49,0,0,1,4.49,4.49v9a4.49,4.49,0,0,1-4.49,4.49m44.94,0h-9a4.49,4.49,0,0,1-4.5-4.49v-9a4.49,4.49,0,0,1,4.5-4.49h9a4.49,4.49,0,0,1,4.49,4.49v9a4.49,4.49,0,0,1-4.49,4.49M116.87,166.2h-9a4.48,4.48,0,0,1-4.48-4.49v-9a4.5,4.5,0,0,1,4.49-4.5h9a4.51,4.51,0,0,1,4.5,4.5v9a4.5,4.5,0,0,1-4.5,4.49m44.94,0h-9a4.49,4.49,0,0,1-4.5-4.49v-9a4.5,4.5,0,0,1,4.5-4.5h9a4.5,4.5,0,0,1,4.49,4.5v9a4.49,4.49,0,0,1-4.49,4.49m-44.94,36h-9a4.49,4.49,0,0,1-4.49-4.49h0v-9a4.49,4.49,0,0,1,4.49-4.49h9a4.49,4.49,0,0,1,4.49,4.49v9a4.49,4.49,0,0,1-4.49,4.5h0m44.94,0h-9a4.49,4.49,0,0,1-4.5-4.49h0v-9a4.49,4.49,0,0,1,4.5-4.49h9a4.49,4.49,0,0,1,4.49,4.49v9a4.49,4.49,0,0,1-4.49,4.5h0M116.88,265h35.94V224.61H116.88Zm-85.36-18h27V211.13H31.52Zm0-53.91h27v-27H31.52Zm206.66,29.37-15.94,24.54h-11V211.13h27Zm-27-29.37h27v-27h-27Z" style="fill:#e4ecf7"/><path d="M139.34,76.33a18,18,0,0,1-18-17.95,4.47,4.47,0,0,1,8.94,0,9,9,0,1,0,9-9h0a18,18,0,1,1,17.95-18h0a4.48,4.48,0,0,1-8.95,0,9,9,0,1,0-9,9h0a18,18,0,0,1,0,35.91Z" style="fill:#ffd168"/><path d="M139.34,94.3a4.48,4.48,0,0,1-4.48-4.47h0V4.47a4.48,4.48,0,0,1,8.95,0V89.83a4.48,4.48,0,0,1-4.47,4.48Z" style="fill:#ffd168"/><path d="M188.76,269.52H80.94a4.48,4.48,0,0,1-4.48-4.47h0V89.82a4.49,4.49,0,0,1,4.48-4.48H188.76a4.48,4.48,0,0,1,4.47,4.48V265.05a4.47,4.47,0,0,1-4.47,4.47Zm-103.35-9h98.87V94.3H85.41Z" style="fill:#055369"/><path d="M207.66,269.52h-18.9a4.49,4.49,0,0,1-4.48-4.48V148.23a4.48,4.48,0,0,1,4.48-4.48h71.88a4.47,4.47,0,0,1,4.47,4.48v32.83l-8.95,13.77V152.7H193.23V260.57h20.24l-5.81,8.95Zm-126.72,0H9.06A4.48,4.48,0,0,1,4.6,265V148.22a4.48,4.48,0,0,1,4.47-4.48H80.94a4.48,4.48,0,0,1,4.47,4.48V265a4.48,4.48,0,0,1-4.47,4.48Zm-67.41-8.95H76.46V152.7H13.53V260.57Z" style="fill:#055369"/><path d="M9.06,152.7H4.56a4.47,4.47,0,1,1-.18-8.94H9.06a4.48,4.48,0,0,1,0,9h0Zm256.07,0h-4.49a4.47,4.47,0,1,1-.18-8.94h4.67a4.48,4.48,0,1,1,0,9h0ZM197.74,94.3H72a4.47,4.47,0,1,1,0-8.94H197.74a4.47,4.47,0,1,1,0,8.94Zm-80.87,40.44h-9a9,9,0,0,1-9-9v-9a9,9,0,0,1,9-9h9a9,9,0,0,1,9,9v9A9,9,0,0,1,116.87,134.74Zm-9-18v9h9v-9Zm53.93,18h-9a9,9,0,0,1-9-9v-9a9,9,0,0,1,9-9h9a9,9,0,0,1,9,9v9A9,9,0,0,1,161.81,134.74Zm-9-18v9h9v-9Zm-35.95,53.91h-9a9,9,0,0,1-9-9v-9a9,9,0,0,1,9-9h9a9,9,0,0,1,9,9v9A9,9,0,0,1,116.87,170.68Zm-9-18v9h9v-9l-9,0Zm53.93,18h-9a9,9,0,0,1-9-9v-9a9,9,0,0,1,9-9h9a9,9,0,0,1,9,9v9A9,9,0,0,1,161.81,170.68Zm-9-18v9h9v-9l-9,0Zm-35.95,53.88h-9a9,9,0,0,1-9-9v-9a9,9,0,0,1,9-9h9a9,9,0,0,1,9,9v9a9,9,0,0,1-9,8.93Zm-9-17.93v9h9v-9Zm53.93,17.93h-9a9,9,0,0,1-9-9v-9a9,9,0,0,1,9-9h9a9,9,0,0,1,9,9v9A9,9,0,0,1,161.81,206.58Zm-9-18v9h9v-9Zm0,80.91H116.87a4.47,4.47,0,0,1-4.47-4.47h0V224.61a4.48,4.48,0,0,1,4.47-4.48h35.95a4.48,4.48,0,0,1,4.47,4.48V265a4.48,4.48,0,0,1-4.47,4.48Zm-31.48-8.95h27V229.09h-27v31.48h0Zm13.5-184.24a18,18,0,0,1-18-17.95,4.48,4.48,0,0,1,9,0h0a9,9,0,1,0,9-9h0a18,18,0,1,1,17.95-18,4.47,4.47,0,0,1-8.94,0,9,9,0,1,0-9,9h0a18,18,0,1,1,0,35.91Z" style="fill:#055369"/><path d="M134.84,94.3a4.47,4.47,0,0,1-4.47-4.47V4.47a4.48,4.48,0,0,1,8.95,0h0V89.83a4.49,4.49,0,0,1-4.48,4.48ZM58.47,251.55H31.52A4.48,4.48,0,0,1,27,247.07h0V211.13a4.49,4.49,0,0,1,4.48-4.48h27a4.48,4.48,0,0,1,4.47,4.48v35.94a4.48,4.48,0,0,1-4.47,4.48ZM36,242.6H54v-27H36Zm22.48-45H31.52A4.47,4.47,0,0,1,27,193.16h0V166.21a4.48,4.48,0,0,1,4.48-4.48h27a4.47,4.47,0,0,1,4.47,4.48v26.95a4.47,4.47,0,0,1-4.47,4.47ZM36,188.69H54v-18H36Zm183.34,62.86h-8.11a4.48,4.48,0,0,1-4.47-4.48V211.13a4.48,4.48,0,0,1,4.47-4.48h26.95a4.49,4.49,0,0,1,4.48,4.48v4.52l-9,13.78V215.6h-18v27h9.46l-5.81,9Zm18.84-53.92H211.22a4.46,4.46,0,0,1-4.47-4.47h0V166.21a4.47,4.47,0,0,1,4.47-4.48h26.95a4.48,4.48,0,0,1,4.48,4.48v26.95a4.48,4.48,0,0,1-4.48,4.47Zm-22.48-8.94h18v-18h-18Z" style="fill:#055369"/><path d="M101.56,434.68A5,5,0,0,1,97.38,427L321.14,84.09a5,5,0,1,1,8.38,5.46L105.75,432.41A5,5,0,0,1,101.56,434.68Z" style="fill:#055369"/><path d="M364.18,458.55h-54.5l5.31-25h43.87ZM233.91,275.41H440V433.58h-206Z" style="fill:#e0dfe3"/><path d="M237.23,278.74h199.4V404.38H237.23Z" style="fill:#25b9e6"/><path d="M439.39,407.15H234.46V276H439.39ZM240,401.62H433.86V281.5H240Z" style="fill:#055369"/><ellipse cx="336.93" cy="417.26" rx="5.65" ry="5.66" style="fill:#055369"/><path d="M266.14,280.74H407.38v99.42H266.14Z" style="fill:#fff"/><path d="M443.28,436.91V272.08H230.59V436.9H311l-4,18.32h-6.64v6.66h73.11v-6.66h-6.65l-4-18.32h80.42ZM313.67,455.22l4-18.32h38.55l4,18.32ZM237.24,278.74h25.58V384.88H410.71V278.74h25.92V430.25H237.24Z" style="fill:#055369"/><path d="M306.35,413.93H313v6.66h-6.65Zm54.5,0h6.65v6.66h-6.65Z" style="fill:#055369"/><path d="M289.07,300.05h65.14v6.66H289.07Zm75.44,0h20.27v6.66H364.51Zm-50.18,23.64h70.45v6.66H314.33Zm-25.26,0h14.62v6.66H289.07Z" style="fill:#193651"/><path d="M263.84,260H409.68V382.52H263.84Z" style="fill:#9382bd"/><path d="M275.6,271.75H397.92v99H275.6ZM263.84,236.4H409.68V260H263.84Z" style="fill:#f9f9fa"/><path d="M261.49,234V384.88H412V234H261.49ZM407.33,380.16H266.19V262.32H407.33V380.16ZM266.19,257.62V238.75H407.33v18.87Z" style="fill:#055369"/><path d="M275.6,245.82h4.71v4.72H275.6Zm13.88,0h4.71v4.72h-4.71Zm13.88,0h4.7v4.72h-4.7Z" style="fill:#055369"/><path d="M342.07,332.52H287.41V299h54.66Zm-50.51-4.14h46.37V303.16H291.56Zm95.71-36h-74.6V280h74.6Zm-70.45-4.15h66.3v-4.12h-66.3Zm-10.64,4.15H287.41V280h18.77Zm-14.62-4.15H302v-4.12H291.56Z" style="fill:#010101"/><path d="M497.79,404.29a14.65,14.65,0,0,1-2.88-.29,29.62,29.62,0,0,0,.67-6.36,6.65,6.65,0,0,0-13.27,0c0,3.64,2.91,7.07,7.06,9.13a19.1,19.1,0,0,1-2.18,3.8c-5.4-8.95-15.9-15.77-28.71-18.38a15.52,15.52,0,0,0,4.57-5.69,15.48,15.48,0,1,0-14.6-22,15.4,15.4,0,0,0-9.44,27,51.63,51.63,0,0,0-20.26,7.1,15.38,15.38,0,0,0-9.41-3.21,2.21,2.21,0,0,0-2.21,2.21,15.38,15.38,0,0,0,2.66,8.61,29.41,29.41,0,0,0-6.15,11.33h-.93a8.84,8.84,0,0,0-8.86,8.87,14.08,14.08,0,0,0,6.67,12L416,448.12v11.55a2.21,2.21,0,0,0,2.21,2.22H427a2.22,2.22,0,0,0,2-1.23l2.62-5.24a58.85,58.85,0,0,0,30.61,0l2.61,5.24a2.23,2.23,0,0,0,2,1.23h8.87a2.21,2.21,0,0,0,2.21-2.22V447.94c8.45-6.24,13.27-14.81,13.27-23.72a25.57,25.57,0,0,0-1.8-9.27,23.51,23.51,0,0,0,4.22-6.69,19.81,19.81,0,0,0,4.21.45,2.22,2.22,0,0,0,0-4.44Zm-7.06-1.84c-2.46-1.4-4-3.33-4-4.81a2.22,2.22,0,0,1,4.43-.18v.18a25.16,25.16,0,0,1-.47,4.82Z" style="fill:#055369;stroke:#055369"/><ellipse cx="462.41" cy="371.05" rx="11.05" ry="11.08" style="fill:#ffd168"/><path d="M438.09,379.92a11,11,0,0,1,9-10.85,14.6,14.6,0,0,0-.2,2,15.06,15.06,0,0,0,.37,3.28,2.15,2.15,0,0,0-.37,1.15v8.86a2.21,2.21,0,1,0,4.42.22.81.81,0,0,0,0-.22v-2.47a15.41,15.41,0,0,0,7,4.07,11,11,0,0,1-20.23-6Z" style="fill:#ffcb2a"/><path d="M438.09,379.92a11,11,0,0,1,9-10.85,14.6,14.6,0,0,0-.2,2,15.06,15.06,0,0,0,.37,3.28,2.15,2.15,0,0,0-.37,1.15v8.86a2.21,2.21,0,1,0,4.42.22.81.81,0,0,0,0-.22v-2.47a15.41,15.41,0,0,0,7,4.07,11,11,0,0,1-20.23-6Z" style="fill:#ffd168"/><path d="M451.36,381.87v2.47a2.22,2.22,0,1,1-4.43.18v-9a2.15,2.15,0,0,1,.37-1.15,15.06,15.06,0,0,1-.37-3.28,14.6,14.6,0,0,1,.2-2,11.22,11.22,0,0,0-3.74,1.44,15.35,15.35,0,0,0-.89,5,15.62,15.62,0,0,0,10.7,14.71,11,11,0,0,0,5.11-4.25,15.38,15.38,0,0,1-7-4.07Z" style="fill:#faa220;opacity:0.38999998569488525;isolation:isolate"/><path d="M462.41,377.7a2.22,2.22,0,0,0,2.21-2.22v-8.86a2.22,2.22,0,0,0-4.43-.18v9A2.23,2.23,0,0,0,462.41,377.7Z" style="fill:#055369"/><path d="M474.44,445a2.22,2.22,0,0,0-1,1.82v10.66H468.2l-2.83-5.68a2.21,2.21,0,0,0-2.65-1.13,53.91,53.91,0,0,1-31.57,0,2.22,2.22,0,0,0-2.64,1.13l-2.84,5.68H420.4V446.89a2.25,2.25,0,0,0-1-1.88l-16.49-10.29a9.72,9.72,0,0,1-4.57-8.28,4.45,4.45,0,0,1,4.41-4.42h2.69a2.21,2.21,0,0,0,2.17-1.78,24.77,24.77,0,0,1,6.7-12.33,2.21,2.21,0,0,0,.06-3,11.19,11.19,0,0,1-2.49-4.76A11,11,0,0,1,417,403a2.18,2.18,0,0,0,2.78.24c7.41-5,17-7.81,27.13-7.81,21.95,0,39.8,12.9,39.8,28.8C486.73,432.1,482.36,439.47,474.44,445Z" style="fill:#fdd2b1"/><path d="M474.44,445a2.22,2.22,0,0,0-1,1.82v10.66H468.2l-2.83-5.68a2.21,2.21,0,0,0-2.65-1.13,53.91,53.91,0,0,1-31.57,0,2.22,2.22,0,0,0-2.64,1.13l-2.84,5.68H420.4V446.89a2.25,2.25,0,0,0-1-1.88l-16.49-10.29a9.72,9.72,0,0,1-4.57-8.28,4.45,4.45,0,0,1,4.41-4.42h2.69a2.21,2.21,0,0,0,2.17-1.78,24.77,24.77,0,0,1,6.7-12.33,2.21,2.21,0,0,0,.06-3,11.19,11.19,0,0,1-2.49-4.76A11,11,0,0,1,417,403a2.18,2.18,0,0,0,2.78.24c7.41-5,17-7.81,27.13-7.81,21.95,0,39.8,12.9,39.8,28.8C486.73,432.1,482.36,439.47,474.44,445Z" style="fill:#25b9e6"/><path d="M416,413.15a4.43,4.43,0,1,0,4.09,2.73A4.41,4.41,0,0,0,416,413.15Z" style="fill:#055369"/><path d="M414.27,407.87c-.42.45-.78.93-1.17,1.39,8.51-4.48,19.52-7.21,31.62-7.21,16.45,0,31,5,39.78,12.72-5.41-11.23-20.19-19.37-37.57-19.37-10.08,0-19.72,2.78-27.13,7.82A2.2,2.2,0,0,1,417,403a11,11,0,0,0-5.18-2.85,11.08,11.08,0,0,0,2.49,4.76A2.21,2.21,0,0,1,414.27,407.87Z" style="fill:#fff;opacity:0.20000000298023224;isolation:isolate"/><path d="M443.61,446.38a81.59,81.59,0,0,1-31.71-6l7.46,4.65a2.21,2.21,0,0,1,1,1.88v10.56h5.27l2.83-5.68a2.21,2.21,0,0,1,2.64-1.12,54.11,54.11,0,0,0,31.58,0,2.21,2.21,0,0,1,2.64,1.12l2.84,5.69h5.27V446.8a2.23,2.23,0,0,1,.95-1.82,31.22,31.22,0,0,0,8.55-8.63c-9.53,6.13-23.61,10-39.36,10Z" style="fill:#010101;opacity:0.10000000149011612;isolation:isolate"/><path d="M463.1,402.18c-9.26-3-23.08-3-32.34,0a2.22,2.22,0,0,0,1.38,4.21c8.38-2.75,21.19-2.75,29.58,0a2.2,2.2,0,0,0,2.79-1.4,2.25,2.25,0,0,0,.09-.35,2.23,2.23,0,0,0-1.5-2.46Z" style="fill:#055369"/><path d="M367.93,332.42A14.25,14.25,0,1,0,378,336.6,14.26,14.26,0,0,0,367.93,332.42Z" style="fill:#fff;fill-rule:evenodd"/><path d="M367.55,330.1A16.18,16.18,0,1,0,379,334.85,16.2,16.2,0,0,0,367.55,330.1Zm5.59,21.28L369,355.61a2,2,0,0,1-1.41.6,2.06,2.06,0,0,1-1.42-.6L362,351.38a2,2,0,0,1,0-2.87h0a1.09,1.09,0,0,1,1.55,0l0,0,2.11,2.13a2.64,2.64,0,0,0,3.74,0l0,0,2.13-2.14a1.11,1.11,0,0,1,1.56,0l0,0a2,2,0,0,1,0,2.87v0Zm4.38-6.76a1.08,1.08,0,0,1-.77.33,1,1,0,0,1-.74-.31l-2-2a2.47,2.47,0,0,0-1.8-.75,2.6,2.6,0,0,0-1.86.78l-2,2.07a1.09,1.09,0,0,1-1,.31,1,1,0,0,1-.57-.3l-2-2a2.55,2.55,0,0,0-1.8-.75,2.6,2.6,0,0,0-1.86.78l-2,2.08a1.1,1.1,0,0,1-1.51,0,2,2,0,0,1,0-2.77l4-4.12a2,2,0,0,1,1.39-.58,1.88,1.88,0,0,1,1.32.55l3.28,3.35,3.33-3.39a2,2,0,0,1,1.39-.59,1.88,1.88,0,0,1,1.34.56l4,4.06a2,2,0,0,1,0,2.74Z" style="fill:#067997"/></svg>