<?xml version="1.0" encoding="UTF-8"?>
<svg width="144px" height="171px" viewBox="0 0 144 171" version="1.1" xmlns="http://www.w3.org/2000/svg" xmlns:xlink="http://www.w3.org/1999/xlink">
    <!-- Generator: sketchtool 53.2 (72643) - https://sketchapp.com -->
    <title>79B14051-D0B7-4E9F-BC9E-B7AD99A31F70</title>
    <desc>Created with sketchtool.</desc>
    <g id="Lock-/-Unlock-Wallet" stroke="none" stroke-width="1" fill="none" fill-rule="evenodd">
        <g id="GAU---Forgot-Password" transform="translate(-651.000000, -272.000000)">
            <g id="icn-forgot-password" transform="translate(650.000000, 276.000000)">
                <path d="M111.1,51.5166667 L111.1,90.31 C111.1,115.461048 90.7110475,135.85 65.56,135.85 L46.64,135.85 C45.43,135.85 44.2566667,135.85 42.9733333,135.85 C19.2560298,133.952108 1.00501268,114.102929 1.1,90.31 L1.09963093,51.5166667 L111.1,51.5166667 Z" id="Path" fill="#1EB8E7"></path>
                <path d="M114.766667,70.0333333 L114.766667,86.6433333 C114.766667,111.794381 94.3777142,132.183333 69.2266667,132.183333 L50.3066667,132.183333 C49.0966667,132.183333 47.9233333,132.183333 46.64,132.183333 C43.109369,125.389869 41.2846671,117.839378 41.3233333,110.183333 C41.329294,92.7727498 50.8273048,76.75046 66.0988294,68.3893003 C81.370354,60.0281405 99.9856367,60.6584021 114.656667,70.0333333 L114.766667,70.0333333 Z" id="Path" fill="#007FC6" opacity="0.7"></path>
                <path d="M19.4333333,62.5166667 L19.4333333,93.6833333 C19.4333333,116.97134 38.311993,135.85 61.6,135.85 L50.6,135.85 C25.2716228,135.749097 4.78664781,115.19857 4.76666667,89.87 L4.76666667,51.5166667 L19.4333333,62.5166667 Z" id="Path" fill="#FFFFFF" opacity="0.25"></path>
                <path d="M4.76666667,51.5166667 L114.766667,51.5166667 L114.766667,90.31 C114.766667,115.461048 94.3777142,135.85 69.2266667,135.85 L50.3066667,135.85 C25.1556192,135.85 4.76666667,115.461048 4.76666667,90.31 L4.76666667,51.5166667 Z" id="Path" stroke="#163150" stroke-width="7.34817814" stroke-linecap="round" stroke-linejoin="round"></path>
                <path d="M114.766667,49.6833333 C114.726603,56.7543264 109.004326,62.4766034 101.933333,62.5166667 L17.6,62.5166667 C10.5123457,62.5166667 4.76666667,56.7709876 4.76666667,49.6833333 C4.80672991,42.6123403 10.5290069,36.8900632 17.6,36.85 L101.933333,36.85 C109.004326,36.8900632 114.726603,42.6123403 114.766667,49.6833333 L114.766667,49.6833333 Z" id="Path" fill="#0C9FE1"></path>
                <path d="M30.4333333,55.1833333 L30.4333333,36.6666667 L67.1,36.6666667 L37.7666667,55 L30.4333333,55.1833333 Z M101.933333,36.85 L85.4333333,36.8499175 L85.4333333,55.1833333 L92.7666667,55.1833333 L112.676667,42.7166667 C110.338196,39.0485589 106.283415,36.834344 101.933333,36.85 L101.933333,36.85 Z" id="Shape" fill="#007FC6" fill-rule="nonzero"></path>
                <rect id="Rectangle" stroke="#163150" stroke-width="7.34817814" stroke-linecap="round" stroke-linejoin="round" x="4.76666667" y="36.85" width="110" height="25.6666667" rx="12.8333333"></rect>
                <path d="M44.88,91.85 L34.32,91.85 C32.195799,91.8305163 30.4729503,90.1239209 30.4333333,88 L30.4333333,77.4033333 C30.4532253,75.2650803 32.181747,73.5365587 34.32,73.5166667 L44.88,73.5166667 C47.018253,73.5365587 48.7467747,75.2650803 48.7666667,77.4033333 L48.7666667,88 C48.7270497,90.1239209 47.004201,91.8305163 44.88,91.85 L44.88,91.85 Z M44.88,113.85 C47.004201,113.830516 48.7270497,112.123921 48.7666667,110 L48.7666667,99.4033333 C48.7467747,97.2650803 47.018253,95.5365587 44.88,95.5166667 L34.32,95.5166667 C32.181747,95.5365587 30.4532253,97.2650803 30.4333333,99.4033333 L30.4333333,110 C30.4532253,112.138253 32.181747,113.866775 34.32,113.886667 L44.88,113.85 Z" id="Shape" fill="#0C9FE1" fill-rule="nonzero"></path>
                <path d="M23.1,49.0233333 L23.1,36.85 C23.1,16.5995592 39.5162258,0.183333333 59.7666667,0.183333333 L59.7666667,0.183333333 C80.0171075,0.183333333 96.4333333,16.5995592 96.4333333,36.85 L96.4333333,49.0233333 C96.4333333,50.4166667 92.3266667,51.5166667 87.2666667,51.5166667 L87.2666667,51.5166667 C82.2066667,51.5166667 78.1,50.4166667 78.1,49.0233333 L78.1,36.85 C78.1,26.7247796 69.8918871,18.5166667 59.7666667,18.5166667 L59.7666667,18.5166667 C49.6414463,18.5166667 41.4333333,26.7247796 41.4333333,36.85 L41.4333333,49.0233333 C41.4333333,50.4166667 37.3266667,51.5166667 32.2666667,51.5166667 L32.2666667,51.5166667 C27.2066667,51.5166667 23.1,50.4166667 23.1,49.0233333 Z" id="Path" fill="#E3EDFF"></path>
                <path d="M23.1,49.0233333 L23.1,36.85 C23.1,16.5995592 39.5162258,0.183333333 59.7666667,0.183333333 L59.7666667,0.183333333 C80.0171075,0.183333333 96.4333333,16.5995592 96.4333333,36.85 L96.4333333,49.0233333 C96.4333333,50.4166667 92.3266667,51.5166667 87.2666667,51.5166667 L87.2666667,51.5166667 C82.2066667,51.5166667 78.1,50.4166667 78.1,49.0233333 L78.1,36.85 C78.1,26.7247796 69.8918871,18.5166667 59.7666667,18.5166667 L59.7666667,18.5166667 C49.6414463,18.5166667 41.4333333,26.7247796 41.4333333,36.85 L41.4333333,49.0233333 C41.4333333,50.4166667 37.3266667,51.5166667 32.2666667,51.5166667 L32.2666667,51.5166667 C27.2066667,51.5166667 23.1,50.4166667 23.1,49.0233333 Z" id="Path" stroke="#163150" stroke-width="7.34817814" stroke-linecap="round" stroke-linejoin="round"></path>
                <circle id="Oval" stroke="#163150" stroke-width="7.34817814" fill="#FFD166" stroke-linecap="round" stroke-linejoin="round" cx="74.4333333" cy="106.516667" r="47.6666667"></circle>
                <path d="M135.263333,132.183333 C144.062057,111.21154 141.44348,87.1871359 128.333333,68.6033333" id="Path" stroke="#B5BFC7" stroke-width="7.34817814" opacity="0.4" stroke-linecap="round" stroke-linejoin="round"></path>
                <path d="M109.266667,162.58 C115.187337,158.908194 120.484905,154.316144 124.96,148.976667" id="Path" stroke="#B5BFC7" stroke-width="7.34817814" opacity="0.4" stroke-linecap="round" stroke-linejoin="round"></path>
                <path d="M19.69,143.403333 C24.9037034,151.125028 31.688172,157.659609 39.6,162.58" id="Path" stroke="#B5BFC7" stroke-width="7.34817814" opacity="0.4" stroke-linecap="round" stroke-linejoin="round"></path>
                <path d="M59.7666667,99.1833333 L65.34,103.986667 C65.7689539,104.34862 66.3668572,104.434035 66.88,104.206667 L67.6133333,103.803333 C67.8580705,103.642161 68.1752628,103.642161 68.42,103.803333 C68.6034406,104.040936 68.6034406,104.372398 68.42,104.61 L68.2366667,104.903333 C68.026326,105.201689 67.9348079,105.567761 67.98,105.93 L69.19,113.703333 L74.3966667,117.37 L89.0633333,97.79 L85.3966667,84.37 L67.0633333,84.37 L59.7666667,99.1833333 Z" id="Path" fill="#FFC835"></path>
                <path d="M74.4333333,138.453333 C70.4734549,138.438525 66.9595664,135.91175 65.6850102,132.162568 C64.4104539,128.413387 65.6562784,124.268519 68.7866667,121.843333 C67.1707858,120.259456 66.2591555,118.092683 66.2566667,115.83 C66.2566667,109.486667 71.0233333,105.856667 74.8,102.923333 C78.5766667,99.99 80.19,98.5966667 80.19,96.3966667 C80.19,95.37 80.19,92.3266667 75.3133333,92.3266667 C71.6466667,92.3266667 70.8766667,93.9033333 69.6666667,96.5066667 C68.5560112,100.156335 65.1949045,102.654857 61.38,102.666667 C59.3355954,102.830756 57.3158979,102.131204 55.8109701,100.737752 C54.3060423,99.3443006 53.4534255,97.3843019 53.46,95.3333333 C53.46,86.02 63.4333333,77.8433333 74.8366667,77.8433333 C86.24,77.8433333 97.79,83.6 97.79,96.5066667 C97.79,105.16 91.0066667,110 86.4966667,113.19 C85.1588972,114.013884 83.9274455,114.999045 82.83,116.123333 C82.4529516,116.747823 82.1455569,117.411795 81.9133333,118.103333 C81.4760577,119.448424 80.7783581,120.694316 79.86,121.77 C83.0961918,124.14388 84.4387782,128.329667 83.1871322,132.143016 C81.9354862,135.956364 78.3735035,138.532337 74.36,138.526667 L74.4333333,138.453333 Z" id="Path" fill="#FFC835"></path>
                <path d="M74.8366667,80.6666667 C85.03,80.6666667 95.04,85.36 95.04,96.58 C95.04,106.92 83.1966667,110.916667 80.63,114.656667 C78.7233333,117.333333 79.3466667,121 74.1033333,121 C72.7093063,121.011899 71.3721282,120.448136 70.4074075,119.441773 C69.4426869,118.435409 68.9359018,117.075614 69.0066667,115.683333 C69.0066667,106.186667 82.94,104.06 82.94,96.25 C83.0149545,94.2702153 82.2063527,92.3594796 80.7330319,91.0349075 C79.2597111,89.7103354 77.2740106,89.1088859 75.3133333,89.3933333 C65.12,89.3933333 69.1166667,99.9166667 61.38,99.9166667 C60.0787969,100.027963 58.7889164,99.6005136 57.8116878,98.7341762 C56.8344592,97.8678388 56.2554779,96.6384954 56.21,95.3333333 C56.21,87.5233333 65.12,80.6666667 74.8366667,80.6666667 L74.8366667,80.6666667 Z M74.4333333,122.833333 C78.0379118,122.833333 80.96,125.755422 80.96,129.36 C80.96,132.964578 78.0379118,135.886667 74.4333333,135.886667 C70.8287549,135.886667 67.9066667,132.964578 67.9066667,129.36 C67.9066667,125.755422 70.8287549,122.833333 74.4333333,122.833333 L74.4333333,122.833333 Z M74.8366667,75.1666667 C61.9666667,75.1666667 50.71,84.6266667 50.71,95.4066667 C50.6982455,98.2103693 51.8295777,100.897785 53.8430032,102.84894 C55.8564287,104.800095 58.5780496,105.846468 61.38,105.746667 C66.293443,105.706637 70.6325355,102.533491 72.16,97.8633333 C73.3333333,95.3333333 73.37,95.2233333 75.3133333,95.2233333 C77.2566667,95.2233333 77.44,95.7733333 77.44,96.58 C77.44,97.3866667 74.9466667,99.5133333 73.1133333,100.906667 C69.08,104.06 63.5066667,108.24 63.5066667,116.013333 C63.4961818,118.051816 64.0412542,120.054641 65.0833333,121.806667 C63.3537515,123.878266 62.3835391,126.478435 62.3333333,129.176667 C62.3333333,135.818811 67.7178554,141.203333 74.36,141.203333 C81.0021446,141.203333 86.3866667,135.818811 86.3866667,129.176667 C86.3974447,126.291102 85.354367,123.500869 83.4533333,121.33 C83.843046,120.569425 84.1859075,119.785742 84.48,118.983333 C84.6483647,118.490439 84.8568402,118.012172 85.1033333,117.553333 C86.0182227,116.744369 86.9859148,115.997164 88,115.316667 C92.6566667,112.016667 100.466667,106.443333 100.466667,96.3966667 C100.466667,83.6 90.1266667,74.9833333 74.8,74.9833333 L74.8366667,75.1666667 Z" id="Shape" fill="#FFB335" fill-rule="nonzero"></path>
            </g>
        </g>
    </g>
</svg>