<svg xmlns="http://www.w3.org/2000/svg" width="109" height="100" viewBox="0 0 109 100">
    <g fill="none" fill-rule="evenodd">
        <path stroke="#005268" stroke-width="2.599" d="M40.273 82.945c3.504 8.203 7.617 13.019 12.337 14.448 7.081 2.144 16.201-1.305 18.286-11.763 2.086-10.46 2.086-16.418 5.45-20.266 2.242-2.565 4.642-4 7.2-4.307"/>
        <path fill="#1097C0" stroke="#005268" stroke-width="2.599" d="M84.3 59.954l.267 1.38 3.157-.614.916 4.716 16.781-3.262-2.178-11.204-16.78 3.262.992 5.109-3.156.613z"/>
        <g stroke="#005268" stroke-width="2.599" transform="rotate(-16 33.338 13.507)">
            <path fill="#1097C0" d="M24.27 81.405l.003.16a.16.16 0 0 1 .157-.163l-.16.003zm-6.36.11l-.16.003a.16.16 0 0 1 .163.157l-.003-.16zm-.276-15.814l-.003-.16a.16.16 0 0 1-.156.163l.16-.003zm1.146-2.472l-.036-1.312-1.276 1.334 1.312-.022zm3.917-.069l1.286-.022-1.321-1.264.035 1.286zm1.298 2.43l.16-.003a.16.16 0 0 1-.163-.157l.003.16z"/>
            <path fill="#1097C0" d="M10.258 1.3A8.959 8.959 0 0 0 1.3 10.257v33.227c0 1.928.623 3.805 1.774 5.351l7.218 9.69a8.959 8.959 0 0 0 7.185 3.607h5.776a8.959 8.959 0 0 0 7.184-3.607l7.218-9.69a8.959 8.959 0 0 0 1.774-5.351V10.258A8.959 8.959 0 0 0 30.469 1.3H10.26z"/>
            <rect width="29.169" height="28.095" x="5.779" y="10.712" fill="#077493" rx="2.28"/>
        </g>
        <path fill="#005268" d="M103.845 52.514l3.124-.607 1.458 7.502-3.124.607z"/>
    </g>
</svg>
