<svg xmlns="http://www.w3.org/2000/svg" width="92" height="97" viewBox="0 0 92 97">
    <g fill="none" fill-rule="evenodd" transform="translate(0 .5)">
        <path fill="#0C9FE1" stroke="#163150" stroke-linecap="round" stroke-linejoin="round" stroke-width="4" d="M89.66 63.46v-22.5a9.2 9.2 0 0 0-9.2-9.18H70a9.18 9.18 0 0 0-9.16 9.2v7.3a9.2 9.2 0 0 0 9.2 9.18h11.44a8 8 0 0 1 8.18 6z"/>
        <path fill="#0C9FE1" stroke="#163150" stroke-linecap="round" stroke-linejoin="round" stroke-width="4" d="M12 75.72V27.1c0-2.9 2.4-5.56 6.58-5.56h56.56a5.28 5.28 0 0 1 5.32 5.24l.16 36.98a5.38 5.38 0 0 1-5.26 5.44H18.22A6.3 6.3 0 0 0 12 75.72"/>
        <path fill="#FFD166" d="M43.82 21.64C37.4 20 33.2 18.78 30.44 16.18c-2.76-2.6-4.28-7.08-6-14-1.88 7.4-3.46 12-6.88 14.88-2.72 2.22-6.64 3.04-12.52 4.54 13.28 3.38 16 6.12 19.4 19.4 3.36-13.24 6.1-15.98 19.38-19.36z"/>
        <path fill="#163150" fill-rule="nonzero" d="M24.4 43.04a2 2 0 0 1-2-1.5c-3.22-12.58-5.4-14.76-18-18a2 2 0 0 1 0-3.86c12.58-3.22 14.76-5.4 18-18a2 2 0 0 1 2-1.5 2 2 0 0 1 2 1.5c3.22 12.58 5.4 14.76 18 18a2 2 0 0 1 0 3.86c-12.58 3.22-14.76 5.4-18 18a2 2 0 0 1-2 1.5zM12 21.64A18 18 0 0 1 24.4 34a18 18 0 0 1 12.42-12.4A18 18 0 0 1 24.4 9.18 18 18 0 0 1 12 21.64z"/>
        <path fill="#1EB8E7" d="M80.62 39.6l-.16 36.96a5.3 5.3 0 0 1-5.32 5.26L20 81.58h-2.96a5.3 5.3 0 0 1-5.26-5.3L12 27.66a6.28 6.28 0 0 0 6.28 6.48h1.3l55.86.14a5.28 5.28 0 0 1 5.18 5.32z"/>
        <path fill="#0C9FE1" d="M22.68 34.14l-.52 47.42c-3.38 0-10.22 1.08-10.22-5.3v-48.6c.06 6.7 8.06 6.48 10.74 6.48z"/>
        <path stroke="#163150" stroke-linecap="round" stroke-linejoin="round" stroke-width="4" d="M12 27.64l-.16 47.66a6.12 6.12 0 0 0 6.74 6.52h56.56a5.3 5.3 0 0 0 5.32-5.26l.16-36.98a5.38 5.38 0 0 0-5.26-5.42H18.22A6.3 6.3 0 0 1 12 27.64"/>
        <path fill="#1EB8E7" d="M89.66 42.36v22.5a9.2 9.2 0 0 1-9.2 9.14h-14.9a9.24 9.24 0 0 1-9.16-9.2v-7.3a9.22 9.22 0 0 1 9.2-9.16h16a8 8 0 0 0 8.06-5.98z"/>
        <path fill="#0C9FE1" d="M80.62 58c8.64 5.12.94 18.2-7.74 13.08l-6.7-2.84L72.7 54l7.92 4z"/>
        <circle cx="69.379" cy="61.182" r="5.261" fill="#B3C1D6" stroke="#163150" stroke-linecap="round" stroke-linejoin="round" stroke-width="3.986" transform="rotate(-58.543 69.379 61.182)"/>
        <path stroke="#163150" stroke-linecap="round" stroke-linejoin="round" stroke-width="4" d="M89.66 42.36v22.5a9.2 9.2 0 0 1-9.2 9.14h-14.9a9.24 9.24 0 0 1-9.16-9.2v-7.3a9.22 9.22 0 0 1 9.2-9.16h16a8 8 0 0 0 8.06-5.98z"/>
        <path fill="#FFD166" d="M62.44 81.62c-8.82-2.24-10.64-4-12.9-12.88-1.08 4.24-1.9 7.36-3.6 9.2-1.7 1.84-4.72 2.52-9.28 3.68 8.82 2.26 10.64 4 12.88 12.9 1.06-4.14 1.84-7.18 3.48-9 1.64-1.82 4.74-2.7 9.42-3.9z"/>
        <path fill="#163150" fill-rule="nonzero" d="M49.54 96.52a2 2 0 0 1-2-1.5c-2-8-3.34-9.38-11.44-11.46a2 2 0 0 1 0-3.86c8.1-2 9.38-3.36 11.44-11.46a2 2 0 0 1 2-1.5 2 2 0 0 1 2 1.5c2 8.1 3.36 9.38 11.46 11.46a2 2 0 0 1 0 3.86c-8 2-9.4 3.36-11.46 11.46a2 2 0 0 1-2 1.5zm-6.46-14.9a11.74 11.74 0 0 1 6.46 6.48A11.8 11.8 0 0 1 56 81.62a11.7 11.7 0 0 1-6.46-6.46 11.64 11.64 0 0 1-6.46 6.46z"/>
        <path stroke="#0C9FE1" stroke-linecap="round" stroke-linejoin="round" stroke-width="4" d="M35.44 49.24v15.64m7.82-7.82H27.62"/>
        <path stroke="#B5BFC7" stroke-linecap="round" stroke-linejoin="round" stroke-width="4" d="M55.46 12.58h5.86M2.88 61.7l.04-8.92M14.9 90.32a14.28 14.28 0 0 1-12-14v-4.56M70 12.58h5.18c7.849.011 14.209 6.371 14.22 14.22" opacity=".4"/>
    </g>
</svg>
