<svg xmlns="http://www.w3.org/2000/svg" width="111" height="116" viewBox="0 0 111 116">
    <g fill="none" fill-rule="evenodd">
        <path fill="#DFDFE3" fill-rule="nonzero" d="M69.683 114.073H41.317l2.767-13.493h22.832zM1.85 14.487h107.3v86.093H1.85z"/>
        <path fill="#1EB8E7" fill-rule="nonzero" stroke="#005268" stroke-width="1.492" d="M3.083 15.772H107.3v68.746H3.083z"/>
        <ellipse cx="55.5" cy="91.585" fill="#005268" fill-rule="nonzero" rx="3.083" ry="3.212"/>
        <path fill="#FFF" fill-rule="nonzero" d="M18.5 17.057h73.383v53.969H18.5z"/>
        <path fill="#005268" fill-rule="nonzero" d="M111 102.474V13.202H0v89.272h41.972l-2.081 9.92h-3.47V116h38.157v-3.607H71.11l-2.08-9.919H111zm-67.64 9.92l2.08-9.92h20.12l2.08 9.92H43.36zM3.468 16.808h13.354v57.486h77.18V16.809h13.528v82.058H3.47V16.809z"/>
        <path fill="#005268" fill-rule="nonzero" d="M39.467 89.658h3.7v3.855h-3.7zM67.833 89.658h3.7v3.855h-3.7z"/>
        <path fill="#193651" fill-rule="nonzero" d="M30.833 27.979H64.75v3.855H30.833zM69.683 27.98h10.484v3.854H69.683zM43.783 40.829h36.384v3.855H43.783zM30.833 40.829h7.4v3.855h-7.4z"/>
        <path fill="#A682FF" fill-rule="nonzero" d="M17 6h75.85v66.176H17z"/>
        <path fill="#F9F9F9" fill-rule="nonzero" d="M23.433 12.56H86.95v53.969H23.433z"/>
        <path fill="#F9F9F9" fill-rule="nonzero" d="M17.267.285h75.85v12.85h-75.85z"/>
        <path fill="#005268" fill-rule="nonzero" d="M17 0v75h78V0H17zm76 73H20V14h73v59zM20 12V3h73v9H20z"/>
        <path fill="#005268" fill-rule="nonzero" d="M23.433 6H25.9v2.57h-2.467zM30.833 6H33.3v2.57h-2.467zM38.233 6H40.7v2.57h-2.467z"/>
        <path stroke="#000" stroke-width="1.119" d="M30.833 28.622h25.9v16.062h-25.9zM43.783 18.342h36.384v4.497H43.783zM30.833 18.342h7.4v4.497h-7.4z"/>
        <path fill="#FFF" d="M71.5 46a7.5 7.5 0 1 0 0 15 7.5 7.5 0 0 0 0-15z"/>
        <path fill="#007896" fill-rule="nonzero" d="M71.5 45a8.5 8.5 0 1 0 0 17 8.5 8.5 0 0 0 0-17zm2.938 11.156l-2.189 2.216c-.197.198-.464.31-.744.313a1.063 1.063 0 0 1-.743-.313l-2.179-2.216a1.063 1.063 0 0 1 0-1.514.58.58 0 0 1 .829 0l1.105 1.121a1.392 1.392 0 0 0 1.987 0l1.121-1.12a.58.58 0 0 1 .829 0 1.062 1.062 0 0 1-.006 1.513h-.01zm2.3-3.543a.568.568 0 0 1-.404.17.531.531 0 0 1-.387-.16l-1.063-1.062a1.323 1.323 0 0 0-.946-.393c-.367-.001-.72.146-.977.409l-1.063 1.089a.568.568 0 0 1-.53.16.531.531 0 0 1-.298-.155l-1.063-1.062a1.323 1.323 0 0 0-.945-.393c-.368-.001-.72.146-.978.409l-1.062 1.089a.568.568 0 0 1-.792 0 1.062 1.062 0 0 1 0-1.45l2.125-2.157c.191-.197.454-.308.728-.309.262 0 .513.105.696.293l1.721 1.753 1.753-1.775a1.02 1.02 0 0 1 .728-.308.972.972 0 0 1 .707.292l2.087 2.125c.368.414.356 1.04-.026 1.44l-.01-.005z"/>
    </g>
</svg>
