<svg xmlns="http://www.w3.org/2000/svg" width="62" height="61" viewBox="0 0 62 61">
    <g fill="none" fill-rule="evenodd">
        <path stroke="#B5BFC7" stroke-linecap="round" stroke-linejoin="round" stroke-width="2.667" d="M31.827 58.807a23.27 23.27 0 0 1-3.747.295 24.709 24.709 0 0 1-14.76-5.015m25.187 2.507c1.2-.62 2.342-1.347 3.413-2.172l.147-.12M53.6 10.788a23.82 23.82 0 0 0-5.333-5.525m-4.6-2.682c-.87-.394-1.76-.738-2.667-1.032m-14.667-.175a22.627 22.627 0 0 0-7.826 4.238l-.187.16L13 10.48" opacity=".4"/>
        <path fill="#1EB8E7" fill-rule="nonzero" stroke="#163150" stroke-linecap="round" stroke-linejoin="round" stroke-width="2.667" d="M55.667 24.426l-3.147-.483C51.507 6.94 32.453.879 21.853 9.743L3.667 25.954a4.803 4.803 0 0 0-1.533 4.938 4.77 4.77 0 0 0 3.826 3.456l3.12.523C9.8 51.405 27.667 58.66 38.667 50.158l19.466-17.432a4.818 4.818 0 0 0 1.369-4.932 4.782 4.782 0 0 0-3.835-3.368z"/>
        <path fill="#FFF" fill-rule="nonzero" d="M28.213 48.602C20.467 48.602 12.4 42.488 14 30.85l-4.787-.805a1.198 1.198 0 0 1-.573-2.092l10.733-9.091a1.328 1.328 0 0 1 2 .308L29 31.331a1.2 1.2 0 0 1-.007 1.307c-.26.395-.728.598-1.193.517l-4.827-.805c-1.24 6.785 2.094 13.772 9.334 13.772a14.593 14.593 0 0 0 4.813-.872 13.037 13.037 0 0 1-8.907 3.352zm12.24-8.716l-7.906-12.202a1.145 1.145 0 0 1-.01-1.246 1.13 1.13 0 0 1 1.13-.51l4.96.75c1.146-6.704-2.24-13.623-9.454-13.623-1.642.018-3.27.317-4.813.885a13.144 13.144 0 0 1 9.067-3.46c7.68 0 15.693 5.994 14.266 17.566l4.894.751c.442.063.805.381.93.812.123.432-.017.896-.357 1.186l-10.667 9.32a1.329 1.329 0 0 1-2.04-.229z"/>
    </g>
</svg>
