<svg xmlns="http://www.w3.org/2000/svg" width="60" height="60" viewBox="0 0 60 60">
    <defs>
        <radialGradient id="a" cx="75.31%" cy="19.589%" r="40.853%" fx="75.31%" fy="19.589%" gradientTransform="matrix(.99904 0 0 1 0 0)">
            <stop offset="6%" stop-color="#FFEA80"/>
            <stop offset="11%" stop-color="#FFE77D"/>
            <stop offset="47%" stop-color="#FFD76C"/>
            <stop offset="73%" stop-color="#FFD166"/>
        </radialGradient>
    </defs>
    <g fill="none" fill-rule="evenodd" transform="translate(2 8)">
        <path fill="#2287B4" d="M42.584 20.992h4.468l4.711-6.13-1.424-1.532h-8.01z"/>
        <path fill="#1EB8E7" stroke="#163150" stroke-linecap="round" stroke-linejoin="round" stroke-width="2.446" d="M50.717 13.901l4.419 4.026a2.43 2.43 0 0 1 0 3.43l-1.96 1.958a2.436 2.436 0 0 1-3.446 0l-1.375-1.423a2.43 2.43 0 0 1 0-3.43l2.215-2.116a1.75 1.75 0 0 0-1.217-3.065h-6.586"/>
        <path stroke="#163150" stroke-linecap="round" stroke-linejoin="round" stroke-width="2.446" d="M43.242 20.98h4.528"/>
        <path fill="#2287B4" stroke="#163150" stroke-linecap="round" stroke-linejoin="round" stroke-width="2.446" d="M14.767 28.532h25.565a2.434 2.434 0 0 0 2.435-2.432V9.073a2.434 2.434 0 0 0-2.435-2.432H15.984a3.47 3.47 0 0 0-3.238 2.152l-3.19 5.096"/>
        <ellipse cx="30.228" cy="13.378" fill="url(#a)" stroke="#163150" stroke-linecap="round" stroke-linejoin="round" stroke-width="2.446" rx="13.391" ry="13.378"/>
        <path fill="#FFC835" stroke="#FFAE25" stroke-linecap="round" stroke-linejoin="round" stroke-width="1.957" d="M21.414 13.743a8.827 8.827 0 0 1 4.263-8.201 8.846 8.846 0 0 1 9.25.09l-3.214 6.688 7.158-1.021a8.825 8.825 0 0 1-3.03 8.7 8.845 8.845 0 0 1-9.13 1.272 8.83 8.83 0 0 1-5.297-7.54v.012z"/>
        <path fill="#1EB8E7" d="M37.203 29.36l-9.057 14.424a2.435 2.435 0 0 1-3.36.766L3.263 31.038l-1.157-.73a2.433 2.433 0 0 1-.767-3.357l11.894-18.96a2.892 2.892 0 0 0 .877 4.062l.51.316L36.45 26.003a2.432 2.432 0 0 1 .754 3.356z"/>
        <path fill="#0C9FE1" d="M15.972 12.953L4.054 31.622l-1.948-1.338a2.433 2.433 0 0 1-.767-3.357l11.894-18.96a2.892 2.892 0 0 0 .877 4.061l1.862.925z"/>
        <path stroke="#163150" stroke-linecap="round" stroke-linejoin="round" stroke-width="2.446" d="M13.233 7.99L1.339 26.952a2.43 2.43 0 0 0 .767 3.357l22.68 14.23a2.437 2.437 0 0 0 3.36-.754l9.057-14.412a2.43 2.43 0 0 0-.754-3.357l-22.34-13.962a2.895 2.895 0 0 1-.876-4.062"/>
        <path fill="#0C9FE1" d="M29.62 37.082a3.495 3.495 0 0 1-6.085-.252 3.488 3.488 0 0 1 .204-3.518l1.132-2.432 6.306 3.502-1.558 2.7z"/>
        <ellipse cx="27.793" cy="33.02" fill="#B3C1D6" stroke="#163150" stroke-linecap="round" stroke-linejoin="round" stroke-width="2.446" rx="2.435" ry="2.432"/>
    </g>
</svg>
