<svg xmlns="http://www.w3.org/2000/svg" width="150" height="159" viewBox="0 0 150 159">
    <g fill="none" fill-rule="evenodd">
        <path fill="#DFDFE3" fill-rule="nonzero" d="M93.462 157.848H55.385l3.714-17.283h30.648zM2.308 28.804h145.385v110.609H2.308z"/>
        <path fill="#1EB8E7" fill-rule="nonzero" stroke="#005268" stroke-width="2.5" d="M4.615 31.109h140.77v87.565H4.615z"/>
        <ellipse cx="74.423" cy="128.467" fill="#005268" fill-rule="nonzero" rx="4.038" ry="4.033"/>
        <path fill="#FFF" fill-rule="nonzero" d="M25.385 33.413h99.231v69.13H25.385z"/>
        <path fill="#005268" fill-rule="nonzero" d="M150 141.566V26.5H0v115.066h56.719l-2.813 12.785H49.22V159h51.562v-4.65h-4.687l-2.813-12.784H150zM58.594 154.35l2.812-12.785h27.188l2.812 12.785H58.594zM4.687 31.149h18.047v74.096h104.297V31.149h18.281v105.768H4.688V31.149z"/>
        <path fill="#005268" fill-rule="nonzero" d="M53.077 125.587h4.615v4.609h-4.615zM91.154 125.587h4.615v4.609h-4.615z"/>
        <path fill="#193651" fill-rule="nonzero" d="M40.385 46.087h46.153v4.609H40.385zM94.615 46.087h13.847v4.609H94.615zM58.846 63.37h49.616v4.608H58.846zM41.538 63.37h10.385v4.609H41.538z"/>
        <path fill="#A682FF" fill-rule="nonzero" d="M23.077 18.435h102.692v86.413H23.077z"/>
        <path fill="#F9F9F9" fill-rule="nonzero" d="M31.154 26.5h86.538v69.13H31.154zM23.077 2.304h102.692v16.13H23.077z"/>
        <path fill="#005268" fill-rule="nonzero" d="M21.923 0v106h106.154V0H21.923zm102.838 102.689h-99.52V19.875h99.52v82.814zm-99.52-86.12V3.315h99.52V16.57h-99.52z"/>
        <path fill="#005268" fill-rule="nonzero" d="M31.154 8.065h3.461v3.457h-3.461zM41.538 8.065H45v3.457h-3.462zM50.769 8.065h3.462v3.457h-3.462z"/>
        <path stroke="#000" stroke-width="2.5" d="M41.538 47.239h35.769v20.739H41.538zM58.846 33.413h49.616v5.76H58.846zM41.538 33.413h10.385v5.761H41.538z"/>
        <path fill="#FFF" d="M96.044 68.472c-5.614 0-10.165 4.544-10.165 10.15 0 5.606 4.551 10.15 10.165 10.15 5.614 0 10.165-4.544 10.165-10.15 0-2.692-1.071-5.274-2.977-7.177a10.172 10.172 0 0 0-7.188-2.973z"/>
        <path fill="#007896" fill-rule="nonzero" d="M95.77 66.826c-6.373 0-11.54 5.159-11.54 11.522S89.398 89.87 95.77 89.87c6.372 0 11.538-5.159 11.538-11.522 0-3.056-1.216-5.987-3.38-8.147a11.547 11.547 0 0 0-8.159-3.375zm3.987 15.122l-2.97 3.003c-.268.269-.631.422-1.01.425a1.443 1.443 0 0 1-1.01-.425l-2.957-3.003a1.44 1.44 0 0 1 0-2.052.787.787 0 0 1 1.125 0l1.5 1.52a1.89 1.89 0 0 0 2.697 0l1.522-1.52a.787.787 0 0 1 1.125 0 1.44 1.44 0 0 1-.007 2.052h-.015zm3.123-4.803a.772.772 0 0 1-.548.23.722.722 0 0 1-.527-.215l-1.442-1.44a1.797 1.797 0 0 0-1.284-.533 1.855 1.855 0 0 0-1.327.554l-1.442 1.476a.772.772 0 0 1-.721.216.722.722 0 0 1-.404-.209l-1.442-1.44a1.797 1.797 0 0 0-1.284-.533 1.855 1.855 0 0 0-1.327.555l-1.442 1.476c-.3.29-.775.29-1.075 0a1.439 1.439 0 0 1 0-1.966l2.885-2.923c.26-.267.616-.418.988-.418.355 0 .696.142.945.396l2.336 2.376 2.38-2.405c.26-.266.616-.417.988-.418.36-.004.707.14.96.397l2.833 2.88c.499.56.483 1.41-.036 1.951l-.014-.007z"/>
    </g>
</svg>
