<svg xmlns="http://www.w3.org/2000/svg" width="36" height="36" viewBox="0 0 36 36">
    <path fill="none" fill-rule="evenodd" stroke="#1eb8e7" stroke-width="2" d="M29.774 14.193H33a2 2 0 0 1 2 2v3.614a2 2 0 0 1-2 2h-3.076a12.154 12.154 0 0 1-.785 1.948l2.16 2.16a2 2 0 0 1 0 2.828L28.743 31.3a2 2 0 0 1-2.828 0l-2.16-2.16c-.625.317-1.276.58-1.948.785V33a2 2 0 0 1-2 2h-3.614a2 2 0 0 1-2-2v-3.226a12.166 12.166 0 0 1-1.79-.792l-2.318 2.317a2 2 0 0 1-2.828 0L4.7 28.743a2 2 0 0 1 0-2.828l2.466-2.466a12.15 12.15 0 0 1-.635-1.642H3a2 2 0 0 1-2-2v-3.614a2 2 0 0 1 2-2h3.682c.178-.511.39-1.01.635-1.492l-2.616-2.616a2 2 0 0 1 0-2.828L7.257 4.7a2 2 0 0 1 2.828 0l2.616 2.616c.482-.244.98-.457 1.492-.635V3a2 2 0 0 1 2-2h3.614a2 2 0 0 1 2 2v3.532a12.15 12.15 0 0 1 1.642.635l2.466-2.466a2 2 0 0 1 2.828 0L31.3 7.257a2 2 0 0 1 0 2.828l-2.317 2.317c.311.574.576 1.173.792 1.791zM18 22a4 4 0 1 0 0-8 4 4 0 0 0 0 8z"/>
</svg>
