<svg width="29" height="17" viewBox="0 0 29 17" fill="none" xmlns="http://www.w3.org/2000/svg">
<path id="back-arrow" d="M0.0914402 7.8924C-0.0306015 8.184 -0.0306015 8.5128 0.0914402 8.8056C0.151857 8.9508 0.238857 9.0816 0.350023 9.1908V9.192L7.57344 16.3488C7.80906 16.5816 8.11598 16.698 8.42411 16.698C8.73223 16.698 9.04036 16.5816 9.27598 16.3488C9.74602 15.8832 9.74602 15.1272 9.27598 14.6616L4.10794 9.5412H27.6849C28.3507 9.5412 28.8896 9.0072 28.8896 8.3484C28.8896 7.6896 28.3507 7.1568 27.6849 7.1568H4.10794L9.27598 2.0364C9.74602 1.5708 9.74602 0.8148 9.27598 0.3492C8.80594 -0.1164 8.04348 -0.1164 7.57344 0.3492L0.350023 7.506C0.350023 7.506 0.350023 7.506 0.350023 7.5072C0.238857 7.6164 0.151857 7.7472 0.0914402 7.8924Z" fill="#1EB8E7"/>
</svg>
