<svg width="196" height="171" viewBox="0 0 196 171" fill="none" xmlns="http://www.w3.org/2000/svg">
<path opacity="0.3" d="M1.40114 107.095C-14.234 169.608 104.462 205.391 184.019 122.723C213.601 91.9854 181.286 76.382 163.381 55.2087C105.218 -13.5561 48.3065 -14.8064 35.7984 33.329C22.6274 84.0212 7.73648 81.7519 1.40114 107.095Z" fill="#D3E6F2"/>
<path d="M87.5372 122.317C84.8417 123.136 79.407 123.867 76.6239 124.524C71.8646 125.643 75.198 131.888 83.9161 129.525C86.5741 128.812 90.4641 127.343 92.1339 125.943C93.3034 124.98 93.6975 121.548 87.5372 122.317Z" fill="white" stroke="#163050" stroke-width="1.32644" stroke-linecap="round" stroke-linejoin="round"/>
<path d="M86.6367 104.563C86.6367 108.658 87.2621 116.628 87.0495 122.923C87.0495 124.448 90.3579 124.624 90.3579 123.098C90.3579 123.098 91.8026 109.508 91.8026 105.126C91.8026 100.743 86.6367 100.468 86.6367 104.563Z" fill="#FFD167" stroke="#163050" stroke-width="1.32644" stroke-linecap="round" stroke-linejoin="round"/>
<path d="M108.038 123.379C110.471 124.38 115.506 125.299 118.126 126.505C123.179 128.856 119.321 134.119 110.371 130.769C107.713 129.775 105.856 129.318 104.029 127.562C102.466 126.074 101.878 121.954 108.038 123.379Z" fill="white" stroke="#163050" stroke-width="1.32644" stroke-linecap="round" stroke-linejoin="round"/>
<path d="M104.523 106.132C104.523 110.252 105.724 118.31 105.824 124.655C105.824 126.024 109.133 126.199 109.133 124.83C109.133 124.83 109.708 111.077 109.708 106.701C109.708 102.325 104.523 101.987 104.523 106.132Z" fill="#FFD167" stroke="#163050" stroke-width="1.32644" stroke-linecap="round" stroke-linejoin="round"/>
<path d="M50.008 35.4921C50.008 31.7413 52.8036 28.6844 56.7186 27.9467C70.3087 24.3647 118.94 24.4022 138.109 28.2843C139.995 28.5721 141.713 29.5316 142.948 30.9859C144.182 32.4402 144.849 34.2915 144.826 36.1985C144.826 39.5617 144.826 49.6452 144.826 49.6452V71.8749C113.021 67.8771 80.8295 68.0725 49.0762 72.4563L50.008 35.4921Z" fill="#02BAEC"/>
<path d="M139.465 42.0435V40.2431C139.465 37.1174 136.919 34.4544 133.792 33.9105C115.58 30.1597 78.4815 30.1034 59.8695 33.723C58.8372 33.8713 57.8896 34.3766 57.1915 35.1509C56.4934 35.9253 56.0888 36.9198 56.0482 37.9614V40.9995M50.0068 35.4921C50.0068 31.7413 52.8024 28.6844 56.7174 27.9467C70.3075 24.3647 118.939 24.4022 138.108 28.2843C139.994 28.5721 141.712 29.5316 142.947 30.9859C144.181 32.4402 144.848 34.2915 144.824 36.1985C144.824 39.5617 144.824 53.9898 144.824 53.9898L50.0068 35.4921Z" stroke="#163050" stroke-width="1.32644" stroke-linecap="round" stroke-linejoin="round"/>
<path opacity="0.1" d="M56.0611 37.9926C56.0611 38.0988 70.4016 36.0296 87.9254 35.5983C105.437 34.9732 126.125 35.9609 138.539 37.4299C141.804 37.9676 144.443 39.4241 144.443 46.1381C144.443 46.1381 144.137 42.2747 134.806 41.5433C130.171 41.112 110.603 39.3241 92.2344 39.5929C73.8601 39.5491 56.6927 41.5496 56.7177 41.4683C47.9621 40.8432 48.8564 33.7416 57.6121 34.7356C55.7484 37.2924 56.0611 37.9926 56.0611 37.9926Z" fill="#163050"/>
<path d="M144.807 71.2997C148.909 72.9626 149.81 67.1739 149.81 60.3786C149.81 56.8154 147.696 53.3896 144.807 51.3767V71.2997Z" fill="#0088CC" stroke="#163050" stroke-width="1.32644" stroke-linecap="round" stroke-linejoin="round"/>
<path d="M138.115 109.883C109.146 108.939 85.3185 108.564 56.725 109.545C52.6474 109.714 50.4022 106.689 50.127 103.638C48.032 80.8954 47.9922 58.0104 50.0082 35.2607C50.0082 39.7617 53.3604 41.7371 56.7188 41.5121C83.8147 39.4632 111.031 39.576 138.109 41.8497C139.955 42.0894 141.648 43.0022 142.862 44.4127C144.105 45.7995 144.802 47.5896 144.826 49.4513C144.826 49.4513 145.113 90.4101 144.826 104.007C144.757 107.589 142.155 110.039 138.115 109.883Z" fill="#02BAEC" stroke="#163050" stroke-width="1.32644" stroke-linecap="round" stroke-linejoin="round"/>
<path d="M136.776 106.482C137.329 106.561 137.891 106.518 138.425 106.357C138.959 106.195 139.452 105.92 139.868 105.549C140.285 105.179 140.616 104.722 140.838 104.21C141.06 103.699 141.168 103.145 141.154 102.588M141.154 50.2702C141.13 49.0621 140.676 47.902 139.874 46.9981C139.072 46.0942 137.974 45.5056 136.776 45.3379L141.154 50.2702Z" stroke="#163050" stroke-width="1.32644" stroke-linecap="round" stroke-linejoin="round"/>
<path opacity="0.1" d="M147.14 85.14C147.171 94.9109 114.037 97.3614 113.993 79.5763C113.993 58.7843 141.048 69.6742 147.14 66.5923C147.14 66.5985 147.14 80.0139 147.14 85.14Z" fill="#163050"/>
<path d="M140.667 89.091C137.419 88.841 134.167 88.6326 130.911 88.4659C118.109 87.9846 118.003 67.9615 130.911 68.4616C134.155 68.6241 137.394 68.8325 140.63 69.0867H140.667C145.714 69.4681 149.798 65.6485 149.798 60.3911V80.3954C149.798 85.6528 145.721 89.4786 140.667 89.091Z" fill="#02BAEC" stroke="#163050" stroke-width="1.32644" stroke-linecap="round" stroke-linejoin="round"/>
<path d="M136.208 78.77C136.208 72.1186 126.571 71.5997 126.564 78.2824C126.571 84.8776 136.214 85.3714 136.208 78.77Z" fill="#FFD167" stroke="#163050" stroke-width="1.32644" stroke-linecap="round" stroke-linejoin="round"/>
<path d="M146.464 74.5315V82.1894" stroke="#163050" stroke-width="1.32644" stroke-linecap="round" stroke-linejoin="round"/>
<path d="M48.462 64.7421C38.024 70.3058 36.7357 118.973 55.3415 109.439C51.5891 108.814 50.0255 106.47 49.7128 99.906C48.406 100.131 47.1726 100.667 46.1168 101.469C43.1461 91.9355 44.5533 74.7443 49.5565 70.0558C52.227 67.5552 50.8073 63.4919 48.462 64.7421Z" fill="white" stroke="#163050" stroke-width="1.32644" stroke-linecap="round" stroke-linejoin="round"/>
<path d="M101.86 88.5097C101.86 86.962 101.245 85.4777 100.15 84.3833C99.0551 83.2889 97.5701 82.6741 96.0217 82.6741C94.4734 82.6741 92.9884 83.2889 91.8936 84.3833C90.7987 85.4777 90.1836 86.962 90.1836 88.5097" stroke="#163050" stroke-width="1.32644" stroke-linecap="round" stroke-linejoin="round"/>
<path d="M79.5576 73.6252C79.5576 74.62 79.953 75.5741 80.6567 76.2775C81.3604 76.9809 82.3148 77.3761 83.3101 77.3761C84.3053 77.3761 85.2597 76.9809 85.9634 76.2775C86.6671 75.5741 87.0625 74.62 87.0625 73.6252" stroke="#163050" stroke-width="1.32644" stroke-linecap="round" stroke-linejoin="round"/>
<path d="M78.6201 69.6557L86.5377 66.0049" stroke="#163050" stroke-width="1.32644" stroke-linecap="round" stroke-linejoin="round"/>
<path d="M105.199 73.6252C105.199 74.62 105.595 75.5741 106.298 76.2775C107.002 76.9809 107.956 77.3761 108.952 77.3761C109.947 77.3761 110.901 76.9809 111.605 76.2775C112.309 75.5741 112.704 74.62 112.704 73.6252" stroke="#163050" stroke-width="1.32644" stroke-linecap="round" stroke-linejoin="round"/>
<path d="M105.719 66.1111L113.33 69.5493" stroke="#163050" stroke-width="1.32644" stroke-linecap="round" stroke-linejoin="round"/>
<path d="M111.972 84.659C111.972 82.5773 109.158 79.9705 109.158 79.9705C109.158 79.9705 106.344 82.471 106.344 84.659C106.344 85.4051 106.64 86.1206 107.168 86.6482C107.696 87.1757 108.412 87.4721 109.158 87.4721C109.904 87.4721 110.62 87.1757 111.148 86.6482C111.676 86.1206 111.972 85.4051 111.972 84.659Z" fill="#0088CC" stroke="#163050" stroke-width="1.32644" stroke-linecap="round" stroke-linejoin="round"/>
</svg>
