<svg xmlns="http://www.w3.org/2000/svg" width="60" height="60" viewBox="0 0 60 60">
    <defs>
        <radialGradient id="a" cx="71%" cy="20.304%" r="51.87%" fx="71%" fy="20.304%" gradientTransform="matrix(1 0 0 .99638 0 0)">
            <stop offset="6%" stop-color="#FFEA80"/>
            <stop offset="11%" stop-color="#FFE77D"/>
            <stop offset="47%" stop-color="#FFD76C"/>
            <stop offset="73%" stop-color="#FFD166"/>
        </radialGradient>
    </defs>
    <g fill="none" fill-rule="evenodd" transform="translate(3)">
        <path fill="#1EB8E7" d="M34.877 24.18V3.072a.608.608 0 1 0-1.076-.396L27.703 9.78C10.964.18-.586 12.18 2.798 25.38c2.188-12 12.949-12 17.731-7.2l-5.978 7.2 20.326-1.2z"/>
        <path fill="#0C9FE1" d="M2.595 26.58C.203 12.18 14.993 6.42 26.029 14.316c.738.581.876 1.649.311 2.4l-8.13 10.08-4.412-1.128 6.731-8.712C14.922 12.48 3.79 15.78 2.595 26.58z"/>
        <path fill="#163150" fill-rule="nonzero" d="M34.028 2.856c.462 0 .837.376.837.84V24.18l-20.326 1.2 7.174-8.4a10.808 10.808 0 0 0-7.52-2.58c-5.536 0-11.539 3.24-11.407 11.028C.227 15.456 7.568 6.864 17.468 6.864c3.61.06 7.138 1.082 10.223 2.964l5.704-6.624a.812.812 0 0 1 .633-.3v-.048zm0-1.872a2.734 2.734 0 0 0-2.104.996L27.26 7.404a21.459 21.459 0 0 0-9.78-2.4 17.146 17.146 0 0 0-13.739 6.552 16.632 16.632 0 0 0-2.797 14.4c.218.848.98 1.44 1.853 1.44h.263a1.918 1.918 0 0 0 1.662-1.932 8.49 8.49 0 0 1 2.248-6.348 10.106 10.106 0 0 1 7.245-2.736c1.634-.022 3.25.336 4.723 1.044l-5.787 6.708a1.926 1.926 0 0 0-.285 2.048c.31.68.986 1.117 1.732 1.12h.108l20.326-1.2a1.917 1.917 0 0 0 1.805-1.92V3.696a2.755 2.755 0 0 0-2.75-2.76l-.06.048z"/>
        <path stroke="#163150" stroke-linecap="round" stroke-linejoin="round" stroke-width="1.92" d="M30.262 10.356a27.89 27.89 0 0 0-3.754-2.328"/>
        <ellipse cx="13.953" cy="33.18" fill="#CBD1D6" rx="13.75" ry="13.8"/>
        <path fill="#D2D8DD" d="M18.927 40.644a.941.941 0 0 1-.323 0l-13.152-4.8a.96.96 0 0 1-.287-1.632L15.89 25.2a.954.954 0 0 1 1.555.564l2.39 13.8a.963.963 0 0 1-.209.786.955.955 0 0 1-.735.342l.036-.048z"/>
        <path fill="#9AA7B1" fill-rule="nonzero" d="M16.512 25.872l2.391 13.8-13.152-4.8 10.701-9.012.06.012zm-.06-1.932c-.437.006-.86.163-1.195.444L4.555 33.396a1.924 1.924 0 0 0 .574 3.276l13.153 4.8a1.908 1.908 0 0 0 1.88-.335c.522-.44.772-1.127.654-1.801l-2.391-13.8A1.915 1.915 0 0 0 16.512 24l-.06-.06z"/>
        <path fill="#000" d="M21.426 21.6a32.84 32.84 0 0 0-2.092 11.004h-4.34a1.653 1.653 0 0 0-1.639 1.656v12.72s9.171.804 16.536-9.204c-4.388-3.204-5.775-8.004-5.775-13.8a19.906 19.906 0 0 1-2.69-2.376z" opacity=".1" style="mix-blend-mode:multiply"/>
        <ellipse cx="13.953" cy="33.18" stroke="#163150" stroke-linecap="round" stroke-linejoin="round" stroke-width="2.4" rx="13.75" ry="13.8"/>
        <path stroke="#CBD1D6" stroke-linecap="round" stroke-linejoin="round" stroke-width="2.4" d="M54.008 40.98a20.47 20.47 0 0 1-.694 5.292m-10.067 12.72a20.456 20.456 0 0 0 8.166-7.956"/>
        <path fill="#E3EDFF" d="M22.92 51.78l-5.978 7.2v-22.8h19.13l-4.782 6c4.783 3.6 13.152 4.8 16.536-6 .237.938.4 1.893.49 2.856C49.5 51.012 38.44 60.684 22.921 51.78z"/>
        <path fill="#CFDBEE" d="M22.92 51.78l-5.978 7.2v-22.8h3.587l1.196 10.8.79-.792a2.504 2.504 0 0 1 3.275-.252c4.687 3.504 17.875 11.352 22.514-6.9C49.5 51.012 38.44 60.684 22.921 51.78z"/>
        <path stroke="#163150" stroke-linecap="round" stroke-linejoin="round" stroke-width="1.92" d="M22.92 51.78l-5.978 7.2v-22.8h19.13l-4.782 6c4.783 3.6 13.152 4.8 16.536-6 .237.938.4 1.893.49 2.856C49.5 51.012 38.44 60.684 22.921 51.78z"/>
        <ellipse cx="37.866" cy="27.18" fill="url(#a)" stroke="#163150" stroke-linecap="round" stroke-linejoin="round" stroke-width="2.4" rx="13.75" ry="13.8"/>
        <path fill="#FFC835" stroke="#FFB335" stroke-linecap="round" stroke-linejoin="round" stroke-width="1.92" d="M46.033 24.372a8.747 8.747 0 0 1-1.858 8.93 8.671 8.671 0 0 1-8.772 2.386l1.782-8.472-7.019 4.14a8.739 8.739 0 0 1 .608-9.012 8.667 8.667 0 0 1 8.242-3.628 8.687 8.687 0 0 1 7.017 5.656z"/>
    </g>
</svg>
