<svg width="16" height="24" viewBox="0 0 16 24" fill="none" xmlns="http://www.w3.org/2000/svg">
<path d="M8.52738 10.4303V16H7.18652V10.4303H8.52738ZM8.72823 8.80714C8.72823 8.92295 8.70471 9.03152 8.65766 9.13286C8.61062 9.23419 8.54728 9.32286 8.46766 9.39886C8.39166 9.47486 8.30119 9.53638 8.19623 9.58343C8.09128 9.62686 7.97909 9.64857 7.85966 9.64857C7.74385 9.64857 7.63347 9.62686 7.52852 9.58343C7.42719 9.53638 7.33852 9.47486 7.26252 9.39886C7.18652 9.32286 7.125 9.23419 7.07795 9.13286C7.03452 9.03152 7.01281 8.92295 7.01281 8.80714C7.01281 8.68771 7.03452 8.57552 7.07795 8.47057C7.125 8.36562 7.18652 8.27514 7.26252 8.19914C7.33852 8.12314 7.42719 8.06343 7.52852 8.02C7.63347 7.97295 7.74385 7.94943 7.85966 7.94943C7.97909 7.94943 8.09128 7.97295 8.19623 8.02C8.30119 8.06343 8.39166 8.12314 8.46766 8.19914C8.54728 8.27514 8.61062 8.36562 8.65766 8.47057C8.70471 8.57552 8.72823 8.68771 8.72823 8.80714Z" fill="#FA863F"/>
<path fill-rule="evenodd" clip-rule="evenodd" d="M7.85714 18.8571C11.6442 18.8571 14.7143 15.7871 14.7143 12C14.7143 8.2129 11.6442 5.14285 7.85714 5.14285C4.07005 5.14285 1 8.2129 1 12C1 15.7871 4.07005 18.8571 7.85714 18.8571Z" stroke="#FA863F" stroke-width="1.14286"/>
</svg>
