<?xml version="1.0" encoding="UTF-8"?>
<svg width="126px" height="144px" viewBox="0 0 126 144" version="1.1" xmlns="http://www.w3.org/2000/svg" xmlns:xlink="http://www.w3.org/1999/xlink">
    <!-- Generator: sketchtool 53.2 (72643) - https://sketchapp.com -->
    <title>0EAEF11C-05BE-4E50-AF1D-32B5CD0EE171</title>
    <desc>Created with sketchtool.</desc>
    <g id="Unlock-/-Lock-/-Create-Wallet" stroke="none" stroke-width="1" fill="none" fill-rule="evenodd">
        <g id="GAU---03---Unlock---Keystore-File" transform="translate(-781.000000, -294.000000)">
            <g id="icn-keystore" transform="translate(784.000000, 295.000000)">
                <path d="M119.059459,34.5767442 L119.059459,100.604651 C119.068094,104.752081 117.430717,108.732138 114.509358,111.66482 C111.587999,114.597502 107.623308,116.241226 103.491892,116.232558 L47.0594595,116.232558 C42.928043,116.241226 38.9633527,114.597502 36.0419937,111.66482 C33.1206347,108.732138 31.4832578,104.752081 31.4918919,100.604651 L31.4918919,17.9069767 C31.4918919,13.7621981 33.1320416,9.78717882 36.0515269,6.85637775 C38.9710121,3.92557667 42.9306838,2.27906977 47.0594595,2.27906977 L87.1459459,2.27906977 C92.660358,2.28770757 97.9409769,4.51604038 101.805405,8.46511628 L113.221622,20.1860465 C116.960411,24.0365345 119.054911,29.1996303 119.059459,34.5767442 Z" id="Path" fill="#E3EDFF" fill-rule="nonzero"></path>
                <path d="M103.07027,8.26976744 L112.8,18.427907 C113.814139,19.5655179 114.075333,21.1918991 113.468717,22.5918219 C112.862102,23.9917447 111.498813,24.9087366 109.978378,24.9395349 L102.843243,24.9395349 C99.2608557,24.9395349 96.3567568,22.0241798 96.3567568,18.427907 L96.3567568,11.0046512 C96.3386425,9.39814803 97.3020287,7.94428582 98.7849826,7.34017495 C100.267937,6.73606407 101.968102,7.10487514 103.07027,8.26976744 Z" id="Path" stroke="#163150" stroke-width="6.48648649" fill="#163150" fill-rule="nonzero" stroke-linecap="round" stroke-linejoin="round"></path>
                <path d="M119.059459,34.5767442 L119.059459,100.604651 C119.068094,104.752081 117.430717,108.732138 114.509358,111.66482 C111.587999,114.597502 107.623308,116.241226 103.491892,116.232558 L47.0594595,116.232558 C42.928043,116.241226 38.9633527,114.597502 36.0419937,111.66482 C33.1206347,108.732138 31.4832578,104.752081 31.4918919,100.604651 L31.4918919,17.9069767 C31.4918919,13.7621981 33.1320416,9.78717882 36.0515269,6.85637775 C38.9710121,3.92557667 42.9306838,2.27906977 47.0594595,2.27906977 L87.1459459,2.27906977 C92.660358,2.28770757 97.9409769,4.51604038 101.805405,8.46511628 L113.221622,20.1860465 C116.960411,24.0365345 119.054911,29.1996303 119.059459,34.5767442 Z" id="Path" stroke="#163150" stroke-width="6.48648649" stroke-linecap="round" stroke-linejoin="round"></path>
                <path d="M105.145946,50.2697674 L84.9081081,50.2697674 C84.9081081,50.7255814 84.9081081,51.2139535 85.0702703,51.7023256 C88.6261048,52.2691217 91.8727708,54.0657401 94.2486486,56.7813953 L105.145946,56.7813953 L105.145946,63.2930233 L97.7513514,63.2930233 C98.1054859,64.586793 98.2801054,65.9234278 98.2702703,67.2651163 L98.2702703,69.0883721 L105.145946,69.0883721 L105.145946,75.6 L98.2702703,75.6 L98.2702703,82.1116279 L105.145946,82.1116279 L105.145946,88.6232558 L98.2702703,88.6232558 L98.2702703,96.2093023 C98.3183345,103.131743 96.8106642,109.975942 93.8594595,116.232558 L47.0594595,116.232558 C42.928043,116.241226 38.9633527,114.597502 36.0419937,111.66482 C33.1206347,108.732138 31.4832578,104.752081 31.4918919,100.604651 L31.4918919,18.9813953 C36.2405733,17.1486926 41.2910728,16.2318816 46.3783784,16.2790698 C63.598453,15.9146524 78.8957598,27.2582027 83.6108108,43.8883721 L105.145946,43.8883721 L105.145946,50.2697674 Z" id="Path" fill="#163150" fill-rule="nonzero" opacity="0.15"></path>
                <path d="M0.908108108,70.6511628 L87.5675676,70.6511628 L87.5675676,101.84186 C87.567638,122.338494 71.0444528,138.969412 50.627027,139.023256 L41.1567568,139.023256 C18.9227967,139.005285 0.908100901,120.906192 0.908108108,98.5860465 L0.908108108,70.6511628 Z" id="Path" fill="#1EB8E7" fill-rule="nonzero"></path>
                <path d="M12.4540541,80.4186047 L12.4540541,104.837209 C11.9987476,113.899626 15.3313917,122.74165 21.6485481,129.231634 C27.9657044,135.721617 36.69419,139.270697 45.7297297,139.023256 L37.1675676,139.023256 C17.1243243,139.023256 0.908108108,123.981395 0.908108108,101.451163 L0.908108108,70.6511628 L12.4540541,80.4186047 Z" id="Path" fill="#FFFFFF" fill-rule="nonzero" opacity="0.25"></path>
                <path d="M0.908108108,70.6511628 L87.5675676,70.6511628 L87.5675676,101.84186 C87.567638,122.338494 71.0444528,138.969412 50.627027,139.023256 L41.1567568,139.023256 C18.9227967,139.005285 0.908100901,120.906192 0.908108108,98.5860465 L0.908108108,70.6511628 Z" id="Path" stroke="#163150" stroke-width="6.48648649" stroke-linecap="round" stroke-linejoin="round"></path>
                <path d="M87.5675676,69.0232558 C87.5961687,71.9817615 86.533345,74.8462719 84.5837838,77.0651163 C82.7827524,79.1303232 80.1828586,80.3166736 77.4486486,80.3209302 L11.027027,80.3209302 C5.11037851,79.9539973 0.594201547,74.8681366 0.908108108,68.9255814 C0.87950699,65.9670757 1.94233067,63.1025653 3.89189189,60.8837209 C5.69292327,58.818514 8.29281706,57.6321636 11.027027,57.627907 L77.5459459,57.627907 C81.104221,57.6796669 84.3504817,59.6774251 86.0108108,62.8372093 C87.0696859,64.7230769 87.6071554,66.8588062 87.5675676,69.0232558 L87.5675676,69.0232558 Z" id="Path" fill="#0C9FE1" fill-rule="nonzero"></path>
                <path d="M21.1459459,73.9069767 L21.1459459,57.627907 L50.0756757,57.627907 L26.9513514,73.9069767 L21.1459459,73.9069767 Z M77.5459459,57.627907 L64.572973,57.627907 L64.572973,73.9069767 L70.3459459,73.9069767 L86.0432432,62.8372093 C84.3773777,59.6672621 81.1159107,57.6678066 77.5459459,57.627907 Z" id="Shape" fill="#007FC6" fill-rule="nonzero"></path>
                <rect id="Rectangle" stroke="#163150" stroke-width="6.48648649" stroke-linecap="round" stroke-linejoin="round" x="0.908108108" y="57.627907" width="86.7567568" height="22.7906977" rx="11.3513514"></rect>
                <path d="M12.4540541,68.372093 L12.4540541,57.627907 C12.4540541,39.646543 26.9745487,25.0697674 44.8864865,25.0697674 L44.8864865,25.0697674 C53.4881024,25.0697674 61.7374185,28.4999902 67.8196794,34.6058257 C73.9019403,40.7116613 77.3189189,48.9929515 77.3189189,57.627907 L77.3189189,68.372093 C77.3189189,69.5767442 73.6864865,70.5860465 69.2108108,70.5860465 L69.2108108,70.5860465 C64.7351351,70.5860465 61.1027027,69.6093023 61.1027027,68.372093 L61.1027027,57.627907 C61.1027027,48.637225 53.8424554,41.3488372 44.8864865,41.3488372 L44.8864865,41.3488372 C35.9305176,41.3488372 28.6702703,48.637225 28.6702703,57.627907 L28.6702703,68.372093 C28.6702703,69.5767442 25.0378378,70.5860465 20.5621622,70.5860465 L20.5621622,70.5860465 C16.2162162,70.6511628 12.4540541,69.6744186 12.4540541,68.372093 Z" id="Path" fill="#E3EDFF" fill-rule="nonzero"></path>
                <path d="M12.4540541,68.372093 L12.4540541,57.627907 C12.4540541,39.646543 26.9745487,25.0697674 44.8864865,25.0697674 L44.8864865,25.0697674 C53.4881024,25.0697674 61.7374185,28.4999902 67.8196794,34.6058257 C73.9019403,40.7116613 77.3189189,48.9929515 77.3189189,57.627907 L77.3189189,68.372093 C77.3189189,69.5767442 73.6864865,70.5860465 69.2108108,70.5860465 L69.2108108,70.5860465 C64.7351351,70.5860465 61.1027027,69.6093023 61.1027027,68.372093 L61.1027027,57.627907 C61.1027027,48.637225 53.8424554,41.3488372 44.8864865,41.3488372 L44.8864865,41.3488372 C35.9305176,41.3488372 28.6702703,48.637225 28.6702703,57.627907 L28.6702703,68.372093 C28.6702703,69.5767442 25.0378378,70.5860465 20.5621622,70.5860465 L20.5621622,70.5860465 C16.2162162,70.6511628 12.4540541,69.6744186 12.4540541,68.372093 Z" id="Path" stroke="#163150" stroke-width="6.48648649" stroke-linecap="round" stroke-linejoin="round"></path>
                <path d="M58.0540541,101.418605 C58.1090576,105.007749 55.9364906,108.253266 52.6054054,109.55814 L52.6054054,122.581395 C52.6054054,124.144186 51.4378378,122.125581 49.9783784,122.125581 C48.5189189,122.125581 47.3513514,124.144186 47.3513514,122.581395 L47.3513514,109.55814 C43.996212,108.259745 41.8066731,104.995222 41.8702703,101.386047 C41.8702703,96.8907055 45.5003939,93.2465116 49.9783784,93.2465116 C54.4563628,93.2465116 58.0864865,96.8907055 58.0864865,101.386047 L58.0540541,101.418605 Z" id="Path" fill="#FFFFFF" fill-rule="nonzero" opacity="0.4"></path>
                <path d="M53.5783784,100.930233 C53.5760394,104.394492 51.3897037,107.477677 48.1297297,108.613953 L48.1297297,120.693023 C48.1297297,122.149514 46.9535697,123.330233 45.5027027,123.330233 C44.0518357,123.330233 42.8756757,122.149514 42.8756757,120.693023 L42.8756757,108.646512 C38.9559021,107.317436 36.6616413,103.238842 37.5522453,99.1828507 C38.4428493,95.1268591 42.2326281,92.3945594 46.3457631,92.843028 C50.4588982,93.2914966 53.5759683,96.7768726 53.5783784,100.930233 L53.5783784,100.930233 Z" id="Path" fill="#163150" fill-rule="nonzero"></path>
            </g>
        </g>
    </g>
</svg>