<svg xmlns="http://www.w3.org/2000/svg" width="112" height="98" viewBox="0 0 112 98">
    <g fill="none" fill-rule="evenodd">
        <g fill-rule="nonzero">
            <path fill="#077493" d="M1.904 1.928h97.809V92.46H1.903z"/>
            <path fill="#FFD166" d="M106.7 59.868h3.492v-7.242H106.7v-7.243H75.261v7.243h3.493v7.242H75.26v3.622c-6.04-.004-11.548 3.58-14.17 9.22-2.623 5.64-1.895 12.34 1.87 17.235 3.766 4.896 9.905 7.121 15.793 5.726v.41h31.438v-7.243H106.7v-7.242h3.493v-7.243H106.7V59.868z"/>
            <path fill="#1EB8E7" d="M58.148 83.406H10.637V72.543h5.24V54.436h-5.24V39.951h5.24V21.845h-5.24V10.981H90.98v32.592h-6.987V29.088h3.494v-3.622H80.5v18.107h-3.74c-1.68-13.308-12.662-23.624-25.95-23.624-10.392-.026-19.817 6.318-24.021 16.17-4.205 9.852-2.395 21.35 4.613 29.304 7.009 7.955 17.89 10.864 27.735 7.414a18.686 18.686 0 0 0-.989 10.57z"/>
            <path fill="#7D8694" d="M62.923 66.982c-10.288 6.773-23.894 3.97-30.9-6.368-7.008-10.336-4.942-24.557 4.691-32.296 9.633-7.739 23.432-6.264 31.34 3.35 7.906 9.614 7.13 23.972-1.764 32.61"/>
            <path fill="#005268" d="M14.13 14.603h3.493v3.621H14.13zM83.993 14.603h3.493v3.621h-3.493zM14.13 76.164h3.493v3.621H14.13zM49.062 61.679h3.493v5.432h-3.493zM49.062 27.277h3.493v5.432h-3.493zM31.596 45.383h5.24v3.621h-5.24zM64.781 45.383h5.24v3.621h-5.24zM59.44 58.708l2.468-2.552 3.718 3.84-2.468 2.551zM35.978 34.378l2.468-2.552 3.718 3.84-2.468 2.552zM35.986 59.994l3.706-3.828 2.476 2.56-3.706 3.828zM59.448 35.666l3.706-3.829 2.476 2.56-3.706 3.828zM61.146 45.691l3.227-3.467-4.611-.596c-2.762-4.789-8.574-6.63-13.447-4.26-4.872 2.37-7.22 8.18-5.433 13.444 1.789 5.262 7.132 8.265 12.361 6.947 5.23-1.32 8.646-6.53 7.903-12.057v-.01zM50.81 55.604c-4.48 0-8.112-3.765-8.112-8.41s3.632-8.41 8.112-8.41c4.481 0 8.113 3.765 8.113 8.41 0 2.23-.855 4.37-2.377 5.948-1.522 1.577-3.586 2.463-5.738 2.462h.002z"/>
            <path fill="#FFF" d="M75.26 68.921c-5.787 0-10.479 4.864-10.479 10.864 0 6 4.692 10.864 10.48 10.864 5.787 0 10.479-4.864 10.479-10.864 0-6-4.692-10.864-10.48-10.864zm0 20.413c-5.087 0-9.21-4.275-9.21-9.549 0-5.274 4.123-9.549 9.21-9.549 5.088 0 9.212 4.275 9.212 9.55-.005 5.27-4.126 9.543-9.211 9.548z"/>
            <path fill="#005268" d="M108.446 65.3V61.68h3.493V50.815h-3.493v-7.242h-6.987V.118H.157V94.27h15.72v3.621h15.719v-3.62h33.23c3.486 2.726 7.837 3.986 12.181 3.528v.092h34.932V87.028h-3.493v-3.622h3.493V72.543h-3.493V65.3zm-3.493-18.106v3.621H77.007v-3.621h27.946zm-12.58 36.212h12.58v3.622H91.259c.496-1.163.87-2.377 1.116-3.622h-.002zm-3.175-14.485h15.752v3.622H91.26a18.25 18.25 0 0 0-2.06-3.622h-.002zm-1.714-3.62h-1.792a16.995 16.995 0 0 0-8.687-3.53v-.092h27.945V65.3H87.484zm-24.563 1.68c-10.29 6.77-23.895 3.962-30.899-6.377-7.003-10.34-4.933-24.56 4.702-32.295 9.635-7.735 23.434-6.256 31.338 3.36s7.124 23.974-1.772 32.608a17.637 17.637 0 0 0-3.367 2.705h-.002zm-4.775 16.425h-47.51V72.543h5.24V54.436h-5.24V39.951h5.24V21.845h-5.24V10.981H90.98v32.592h-6.987V29.088h3.494v-3.622H80.5v18.107h-3.74c-1.68-13.308-12.662-23.624-25.95-23.624-10.392-.026-19.817 6.318-24.021 16.17-4.205 9.852-2.395 21.35 4.613 29.304 7.009 7.955 17.89 10.864 27.735 7.414a18.686 18.686 0 0 0-.989 10.57h-.002zM12.381 58.058V68.92H8.888V58.058h3.493zm0-32.592V36.33H8.888V25.466h3.493zm64.624 28.97v3.622h-2.24a27.78 27.78 0 0 0 1.247-3.622h.993zm-3.493 6.166v1.17c-.256.027-.502.077-.756.115.267-.42.518-.85.758-1.285h-.002zM15.874 90.649H3.648V3.739h94.316v39.834h-3.493V7.36H7.14v14.485H5.395v18.106H7.14v14.485H5.395v18.107H7.14v14.485h52.123a18.25 18.25 0 0 0 2.057 3.62H15.874zm45.412-10.864c0-3.72 1.388-7.297 3.873-9.98a26.556 26.556 0 0 0 3.226-2.615c4.966-2.934 11.159-2.416 15.606 1.306v.425h.478c4.844 4.402 6.157 11.666 3.18 17.588-2.978 5.921-9.474 8.965-15.729 7.37-6.255-1.595-10.647-7.416-10.634-14.094zm47.158 14.485h-22.75c1.323-1.03 2.5-2.25 3.493-3.621h19.248l.009 3.621zm0-14.485h-15.72c0-1.216-.118-2.43-.353-3.621h16.073v3.621zM80.498 58.058v-3.622h27.946v3.622H80.498z"/>
            <path fill="#1EB8E7" d="M8.89 25.466h3.493V36.33H8.89zM8.89 58.058h3.493v10.864H8.89z"/>
        </g>
        <path fill="#FFF" d="M50.932 40.261c-3.914 0-7.087 3.285-7.087 7.336s3.173 7.335 7.087 7.335c3.914 0 7.086-3.284 7.086-7.335a7.468 7.468 0 0 0-2.075-5.187 6.967 6.967 0 0 0-5.011-2.149z"/>
        <path fill="#007896" fill-rule="nonzero" d="M50.74 39.072c-4.442 0-8.044 3.728-8.044 8.327 0 4.598 3.602 8.326 8.044 8.326 4.443 0 8.045-3.728 8.045-8.326a8.478 8.478 0 0 0-2.357-5.888 7.908 7.908 0 0 0-5.688-2.44zM53.52 50l-2.07 2.17a.989.989 0 0 1-.705.307.989.989 0 0 1-.704-.307l-2.06-2.17a1.06 1.06 0 0 1-.3-.742c0-.279.107-.546.3-.741a.54.54 0 0 1 .391-.172.54.54 0 0 1 .392.172l1.046 1.098c.248.261.587.408.94.408.354 0 .693-.147.94-.408l1.061-1.098a.54.54 0 0 1 .393-.172.54.54 0 0 1 .392.172c.19.196.298.463.297.742 0 .28-.11.546-.302.74h-.01zm2.178-3.471a.53.53 0 0 1-.383.166.494.494 0 0 1-.367-.156l-1.005-1.04a1.23 1.23 0 0 0-.895-.386 1.27 1.27 0 0 0-.925.4l-1.006 1.068a.526.526 0 0 1-.502.156.497.497 0 0 1-.282-.151l-1.005-1.041a1.23 1.23 0 0 0-.895-.385 1.27 1.27 0 0 0-.925.4l-1.006 1.067a.525.525 0 0 1-.75 0c-.36-.4-.36-1.02 0-1.42l2.012-2.113a.945.945 0 0 1 .689-.302c.248 0 .485.103.658.286l1.63 1.718 1.658-1.739a.95.95 0 0 1 .69-.301c.25-.004.492.1.668.286l1.976 2.081a1.068 1.068 0 0 1-.025 1.41l-.01-.004z"/>
    </g>
</svg>
