<svg width="16" height="16" viewBox="0 0 16 16" fill="none" xmlns="http://www.w3.org/2000/svg">
<path fill-rule="evenodd" clip-rule="evenodd" d="M8 16C3.589 16 0 12.4114 0 7.99975C0 3.58811 3.589 0 8 0C12.411 0 16 3.58811 16 7.99975C16 12.4114 12.411 16 8 16ZM8 0.999531C4.14 0.999531 1 4.13963 1 7.99975C1 11.8594 4.14 15 8 15C11.86 15 15 11.8594 15 7.99975C15 4.13963 11.86 0.999531 8 0.999531ZM9.4885 8.18926C8.4435 9.03578 8.4975 9.99881 8.498 10.0083C8.5225 10.2838 8.319 10.5263 8.044 10.5508C8.029 10.5518 8.014 10.5523 7.9995 10.5523C7.743 10.5523 7.525 10.3568 7.502 10.0968C7.4965 10.0363 7.388 8.60427 8.859 7.41223C9.3265 7.03372 9.5 6.68421 9.5 6.12319C9.5 5.25766 8.827 4.55214 8 4.55214C7.1595 4.55214 6.501 5.21166 6.501 6.05369C6.501 6.3297 6.277 6.55371 6.001 6.55371C5.725 6.55371 5.501 6.3297 5.501 6.05369C5.501 4.65065 6.5985 3.55261 8 3.55261C9.3785 3.55261 10.5 4.70565 10.5 6.12319C10.5 6.98522 10.188 7.62274 9.4885 8.18926ZM8.345 11.6449C8.44 11.7399 8.495 11.8699 8.495 11.9999C8.495 12.1299 8.44 12.2599 8.345 12.3549C8.255 12.4449 8.125 12.4999 7.995 12.4999C7.865 12.4999 7.735 12.4449 7.64 12.3549C7.545 12.2599 7.495 12.1299 7.495 11.9999C7.495 11.8699 7.545 11.7399 7.64 11.6449C7.825 11.4599 8.165 11.4599 8.345 11.6449Z" fill="#B7BFC6"/>
</svg>
