<svg xmlns="http://www.w3.org/2000/svg" width="250" height="211" viewBox="0 0 250 211">
    <g fill="none" fill-rule="evenodd">
        <g fill-rule="nonzero">
            <path fill="#077493" d="M4.25 4.152h218.324v194.919H4.25z"/>
            <path fill="#FEEF6B" d="M238.168 128.9h7.797v-15.593h-7.797V97.713h-70.176v15.594h7.797V128.9h-7.797v7.797a35.084 35.084 0 1 0-27.453 56.96 35.089 35.089 0 0 0 35.25 12.329v.882h70.176v-15.594h-7.797v-15.593h7.797v-15.594h-7.797V128.9z"/>
            <path fill="#1097C0" d="M129.795 179.579H23.743v-23.39h11.696v-38.984H23.743V86.018h11.696V47.034H23.743v-23.39H203.08v70.17h-15.595V62.629h7.798V54.83h-15.595v38.984h-8.348c-3.752-28.654-28.265-50.865-57.924-50.865-23.197-.055-44.234 13.604-53.62 34.817a58.473 58.473 0 0 0 10.299 63.094 58.482 58.482 0 0 0 61.908 15.961 38.904 38.904 0 0 0-2.208 22.757z"/>
            <path fill="#7D8694" d="M140.453 144.216c-22.963 14.583-53.334 8.546-68.975-13.71-15.64-22.255-11.03-52.873 10.473-69.535 21.502-16.662 52.304-13.487 69.953 7.212 17.65 20.699 15.917 51.613-3.936 70.21"/>
            <path fill="#005268" d="M31.54 31.44h7.797v7.797H31.54zM187.485 31.44h7.797v7.797h-7.797zM31.54 163.985h7.797v7.797H31.54zM109.513 132.798h7.797v11.695h-7.797zM109.513 58.729h7.797v11.695h-7.797zM70.526 97.713h11.696v7.797H70.526zM144.6 97.713h11.696v7.797H144.6zM132.693 126.41l5.508-5.511 8.272 8.266-5.508 5.512zM80.32 74.027l5.509-5.512 8.272 8.267-5.508 5.511zM80.335 129.184l8.272-8.27 5.509 5.512-8.272 8.268zM132.706 76.803l8.272-8.27 5.509 5.512-8.272 8.269zM136.486 98.376l7.203-7.466-10.292-1.281c-6.165-10.312-19.138-14.277-30.015-9.174C92.506 85.558 87.264 98.07 91.255 109.4c3.992 11.33 15.918 17.796 27.592 14.957 11.674-2.84 19.298-14.06 17.64-25.958v-.024zm-23.07 21.343c-10.001 0-18.109-8.107-18.109-18.108 0-10 8.108-18.108 18.11-18.108 10 0 18.108 8.108 18.108 18.108a18.107 18.107 0 0 1-18.114 18.108h.005z"/>
            <path fill="#FFF" d="M167.992 148.392c-12.919 0-23.392 10.472-23.392 23.39 0 12.918 10.473 23.39 23.392 23.39 12.92 0 23.392-10.472 23.392-23.39 0-12.918-10.473-23.39-23.392-23.39zm0 43.95c-11.355 0-20.56-9.205-20.56-20.56 0-11.354 9.205-20.559 20.56-20.559 11.355 0 20.56 9.205 20.56 20.56-.01 11.35-9.209 20.548-20.56 20.558z"/>
            <path fill="#005268" d="M242.066 140.595v-7.797h7.798v-23.39h-7.798V93.815h-15.594V.253H.35V202.97h35.088v7.797h35.087v-7.797h74.177a38.637 38.637 0 0 0 27.188 7.597v.2h77.973v-23.39h-7.798v-7.797h7.798v-23.39h-7.798v-15.594zm-7.797-38.984v7.797h-62.378v-7.797h62.378zm-28.08 77.968h28.08v7.797h-30.565a38.368 38.368 0 0 0 2.49-7.797h-.005zm-7.086-31.187h35.161v7.797h-30.56a38.95 38.95 0 0 0-4.596-7.797h-.005zm-3.825-7.797h-4.001a38.71 38.71 0 0 0-19.391-7.597v-.2h62.378v7.797h-38.986zm-54.83 3.62c-22.968 14.575-53.336 8.529-68.97-13.732-15.632-22.26-11.011-52.876 10.496-69.531 21.507-16.656 52.307-13.471 69.95 7.233 17.644 20.704 15.902 51.617-3.956 70.208a39.152 39.152 0 0 0-7.515 5.823h-.005zM129.79 179.58H23.743v-23.39h11.696v-38.984H23.743V86.018h11.696V47.034H23.743v-23.39H203.08v70.17h-15.595V62.629h7.798V54.83h-15.595v38.984h-8.348c-3.752-28.654-28.265-50.865-57.924-50.865-23.197-.055-44.234 13.604-53.62 34.817a58.473 58.473 0 0 0 10.299 63.094 58.482 58.482 0 0 0 61.908 15.961 38.904 38.904 0 0 0-2.208 22.757h-.005zM27.636 125.002v23.39H19.84v-23.39h7.797zm0-70.171v23.39H19.84v-23.39h7.797zm144.25 62.374v7.797h-5a58.386 58.386 0 0 0 2.783-7.797h2.217zm-7.797 13.274v2.52c-.57.058-1.121.165-1.686.248a53.842 53.842 0 0 0 1.69-2.768h-.004zM35.434 195.173H8.144V8.05H218.67v85.765h-7.798V15.847H15.941v31.187h-3.9v38.984h3.9v31.187h-3.9v38.984h3.9v31.187h116.345a38.95 38.95 0 0 0 4.59 7.797H35.434zm101.364-23.39a31.04 31.04 0 0 1 8.645-21.49 58.927 58.927 0 0 0 7.203-5.629 31.01 31.01 0 0 1 34.835 2.812v.916h1.067c10.811 9.478 13.742 25.118 7.097 37.867-6.646 12.749-21.147 19.303-35.109 15.868-13.961-3.434-23.766-15.968-23.738-30.345zm105.263 31.186h-50.78a39.21 39.21 0 0 0 7.798-7.796h42.963l.02 7.796zm0-31.187h-35.087c0-2.619-.265-5.23-.79-7.797h35.877v7.797zm-62.378-46.78v-7.797h62.378v7.797h-62.378z"/>
            <path fill="#1097C0" d="M19.844 54.831h7.797v23.39h-7.797zM19.844 125.002h7.797v23.39h-7.797z"/>
        </g>
        <path fill="#FFF" d="M113.74 85.938c-8.892 0-16.1 7.208-16.1 16.099 0 8.89 7.208 16.098 16.1 16.098 8.89 0 16.098-7.207 16.098-16.098a16.098 16.098 0 0 0-16.099-16.099z"/>
        <path fill="#007896" fill-rule="nonzero" d="M113.304 83.328c-10.093 0-18.275 8.181-18.275 18.274 0 10.092 8.182 18.273 18.275 18.273 10.093 0 18.275-8.181 18.275-18.273a18.273 18.273 0 0 0-18.275-18.274zm6.316 23.984l-4.705 4.763a2.284 2.284 0 0 1-1.6.674 2.284 2.284 0 0 1-1.599-.674l-4.682-4.763a2.284 2.284 0 0 1 0-3.255 1.245 1.245 0 0 1 1.781 0l2.376 2.41a2.993 2.993 0 0 0 4.272 0l2.41-2.41a1.245 1.245 0 0 1 1.782 0 2.284 2.284 0 0 1-.012 3.255h-.023zm4.946-7.618a1.222 1.222 0 0 1-.868.366 1.142 1.142 0 0 1-.834-.343l-2.284-2.284a2.844 2.844 0 0 0-2.033-.845 2.935 2.935 0 0 0-2.102.88l-2.284 2.34a1.222 1.222 0 0 1-1.142.343 1.142 1.142 0 0 1-.64-.331l-2.284-2.284a2.844 2.844 0 0 0-2.034-.845 2.935 2.935 0 0 0-2.101.879l-2.284 2.341c-.475.46-1.228.46-1.702 0a2.284 2.284 0 0 1 0-3.118l4.568-4.637c.411-.423.975-.662 1.565-.662a2.09 2.09 0 0 1 1.496.628l3.701 3.77 3.77-3.816c.41-.422.975-.66 1.564-.662a2.09 2.09 0 0 1 1.52.628l4.488 4.569c.79.889.765 2.235-.057 3.095l-.023-.012z"/>
    </g>
</svg>