<?xml version="1.0" encoding="UTF-8"?>
<svg width="16px" height="16px" viewBox="0 0 16 16" version="1.1" xmlns="http://www.w3.org/2000/svg" xmlns:xlink="http://www.w3.org/1999/xlink">
    <!-- Generator: sketchtool 53.2 (72643) - https://sketchapp.com -->
    <title>E05B9B79-3F0E-4EC4-98F9-2EB3B483C3F4</title>
    <desc>Created with sketchtool.</desc>
    <g id="Unlock-/-Lock-/-Create-Wallet" stroke="none" stroke-width="1" fill="none" fill-rule="evenodd">
        <g id="GAU---03---Unlock---Keystore-File" transform="translate(-742.000000, -734.000000)" fill="#007A99" fill-rule="nonzero">
            <g id="Group-2-Copy" transform="translate(634.000000, 717.000000)">
                <g id="Button-Secondary">
                    <g id="icn-download" transform="translate(108.000000, 17.000000)">
                        <path d="M4.66573913,7.20284615 L7.65217391,10.1749231 L7.65217391,1.38323077 C7.65217391,1.00107692 7.96382609,0.691615385 8.34782609,0.691615385 C8.73182609,0.691615385 9.04347826,1.00107692 9.04347826,1.38323077 L9.04347826,10.1749231 L12.029913,7.20284615 C12.301913,6.93215385 12.7415652,6.93215385 13.0135652,7.20284615 C13.2855652,7.47353846 13.2855652,7.91107692 13.0135652,8.18176923 L8.83965217,12.3349231 C8.77565217,12.3986154 8.69913043,12.4491538 8.61356522,12.4844615 C8.52869565,12.5197692 8.43826087,12.5377692 8.34782609,12.5377692 C8.2573913,12.5377692 8.16695652,12.5197692 8.08208696,12.4844615 C7.99652174,12.4491538 7.92,12.3986154 7.856,12.3349231 L3.68208696,8.18176923 C3.41008696,7.91107692 3.41008696,7.47353846 3.68208696,7.20284615 C3.95408696,6.93215385 4.39373913,6.93215385 4.66573913,7.20284615 Z" id="Shape"></path>
                        <path d="M2.07304348,9.61957873 L2.07304348,14.5503077 L14.5481739,14.5503077 L14.5481739,9.72423077 C14.5481739,9.34346154 14.8584348,9.03469231 15.2410435,9.03469231 C15.6243478,9.03469231 15.9346087,9.34346154 15.9346087,9.72423077 L15.9346087,14.5503077 C15.9346087,15.3111538 15.312,15.9293846 14.5481739,15.9293846 L2.07304348,15.9293846 C1.30921739,15.9293846 0.687304348,15.3111538 0.687304348,14.5503077 L0.687304348,9.61957873 C0.755992301,9.22965445 0.979393116,9.03469231 1.35750679,9.03469231 C1.73562047,9.03469231 1.9741327,9.22965445 2.07304348,9.61957873 Z" id="Path"></path>
                    </g>
                </g>
            </g>
        </g>
    </g>
</svg>