<svg xmlns="http://www.w3.org/2000/svg" width="71" height="81" viewBox="0 0 71 81">
    <g fill="none" fill-rule="evenodd" transform="translate(2 2)">
        <rect width="57.992" height="52.068" x=".131" y=".293" fill="#E3EDFF" fill-rule="nonzero" stroke="#E3EDFF" stroke-width="1.795" rx="5.385"/>
        <path fill="#163150" fill-rule="nonzero" d="M18.079 21.838h39.487v37.705H18.079z" opacity=".15"/>
        <path stroke="#A4B4CA" stroke-linecap="round" stroke-linejoin="round" stroke-width="3.59" d="M.13 12.86h57.437"/>
        <rect width="57.436" height="52.068" x=".131" y=".293" stroke="#163150" stroke-linecap="round" stroke-linejoin="round" stroke-width="3.59" rx="5.385"/>
        <rect width="16.154" height="23.341" x="7.31" y="20.043" fill="#FFF" fill-rule="nonzero" opacity=".3" rx=".897"/>
        <path fill="#FFF" fill-rule="nonzero" d="M49.49 43.384H31.54a.898.898 0 0 1-.897-.898V31.713c0-.496.401-.898.897-.898H49.49c.495 0 .897.402.897.898v10.773a.898.898 0 0 1-.897.898zm0-23.341H31.54a.898.898 0 0 0-.897.897v3.591c0 .496.401.898.897.898H49.49a.898.898 0 0 0 .897-.898v-3.59a.898.898 0 0 0-.897-.898z" opacity=".3"/>
        <rect width="16.154" height="23.341" x="7.31" y="20.043" stroke="#A4B4CA" stroke-linecap="round" stroke-linejoin="round" stroke-width="3.59" rx=".897"/>
        <path stroke="#A4B4CA" stroke-linecap="round" stroke-linejoin="round" stroke-width="3.59" d="M49.49 43.384H31.54a.898.898 0 0 1-.897-.898V31.713c0-.496.401-.898.897-.898H49.49c.495 0 .897.402.897.898v10.773a.898.898 0 0 1-.897.898zm0-23.341H31.54a.898.898 0 0 0-.897.897v3.591c0 .496.401.898.897.898H49.49a.898.898 0 0 0 .897-.898v-3.59a.898.898 0 0 0-.897-.898z"/>
        <path fill="#FFF" fill-rule="nonzero" d="M37.823 55.36a12.05 12.05 0 0 1-1.795 4.003l1.795 1.796.539.592c-.164.24-.344.467-.539.682a15.887 15.887 0 0 1-3.123 2.999l-2.441-2.245a12.275 12.275 0 0 1-4.29 1.796l-.125 3.304a15.377 15.377 0 0 1-4.38.107c-.27 0-.52 0-.79-.107l-.125-3.304a12.275 12.275 0 0 1-4.29-1.796l-2.441 2.245c-1.378-1-2.59-2.212-3.59-3.591l2.244-2.442a12.283 12.283 0 0 1-1.795-4.291l-3.303-.126a15.625 15.625 0 0 1 0-5.17l3.303-.126c.32-1.532.929-2.989 1.795-4.291l-2.244-2.442c1-1.379 2.212-2.591 3.59-3.591l2.441 2.244a12.275 12.275 0 0 1 4.29-1.795l.125-3.304c.27 0 .52 0 .79-.108a15.377 15.377 0 0 1 4.38.108l.125 3.304c1.531.32 2.987.929 4.29 1.795l2.441-2.244a15.869 15.869 0 0 1 3.123 2.98c.195.215.375.443.539.683l-.539.592-1.795 1.796a12.05 12.05 0 0 1 1.795 4.003 1.67 1.67 0 0 1 0 .288l3.303.125c.287 1.712.287 3.46 0 5.171l-3.303.126a1.67 1.67 0 0 1 0 .233z"/>
        <path fill="#FFD166" fill-rule="nonzero" stroke="#163150" stroke-linecap="round" stroke-linejoin="round" stroke-width="3.59" d="M37.895 55.072a12.409 12.409 0 0 1-1.795 4.273l2.262 2.496a15.815 15.815 0 0 1-3.59 3.59l-2.441-2.243a12.4 12.4 0 0 1-4.29 1.795l-.126 3.304c-1.711.28-3.457.28-5.169 0l-.125-3.304a12.4 12.4 0 0 1-4.29-1.796l-2.495 2.245a15.815 15.815 0 0 1-3.59-3.591l2.244-2.442a12.409 12.409 0 0 1-1.795-4.273L9.392 55a16.02 16.02 0 0 1 0-5.17l3.303-.126c.322-1.531.931-2.987 1.795-4.291l-2.244-2.442a15.797 15.797 0 0 1 3.59-3.591l2.44 2.244a12.4 12.4 0 0 1 4.29-1.795l.126-3.304c1.712-.28 3.458-.28 5.17 0l.125 3.304a12.4 12.4 0 0 1 4.29 1.795l2.44-2.244a15.797 15.797 0 0 1 3.59 3.59l-2.243 2.443a12.409 12.409 0 0 1 1.795 4.29l3.303.126a16.02 16.02 0 0 1 0 5.171l-3.267.072z"/>
        <ellipse cx="25.726" cy="52.361" fill="#FFB335" fill-rule="nonzero" stroke="#163150" stroke-linecap="round" stroke-linejoin="round" stroke-width="3.59" rx="6.21" ry="6.212"/>
        <path fill="#1EB8E7" fill-rule="nonzero" stroke="#163150" stroke-linecap="round" stroke-linejoin="round" stroke-width="3.59" d="M66.541 37.997V64.93H32.438V30.815h26.924z"/>
        <path fill="#FFF" fill-rule="nonzero" stroke="#163150" stroke-linecap="round" stroke-linejoin="round" stroke-width="3.59" d="M39.618 30.815h14.359v8.977H39.618z"/>
        <path fill="#163150" fill-rule="nonzero" d="M57.567 52.36l-8.077 8.978-8.077-8.977h3.59v-7.182h8.974v7.182z"/>
        <path stroke="#B5BFC7" stroke-linecap="round" stroke-linejoin="round" stroke-width="3.59" d="M66.541 23.634V9.27M66.541 2.088V.293M15.37 76.564c-.757-.228-1.5-.498-2.226-.808M.813 61.392a21.547 21.547 0 0 0 6.623 10.773" opacity=".4"/>
    </g>
</svg>
