<svg xmlns="http://www.w3.org/2000/svg" width="256" height="240" viewBox="0 0 256 240">
    <g fill="none" fill-rule="evenodd">
        <g fill="#A682FF" fill-rule="nonzero">
            <path d="M72.77 45.725l-8.577-7.543-21.156 18.804 8.577 7.543zM201.314 234.74l51.319-48.332c-19.494-21.789-27.815-30.47-39.447-40.575l-54.957 51.756c10.734 10.954 20.32 19.244 43.085 37.152zM108.648 80.53c25.579 17.588 35.306 13.956 65.467 34.324l-48.758 45.921c-21.529-28.326-17.728-37.505-36.464-61.63l15.532-3.978 4.223-14.637z"/>
        </g>
        <g fill="#9574E5" fill-rule="nonzero">
            <path d="M60.505 55.005l-6.689-7.823-9.171 10.625 6.69 7.823zM198.935 236.206c-22.476-18.005-31.94-26.335-42.519-37.352l27.774-26.65 40.744 39.07-25.999 24.932zM123.942 161.842c-21.255-28.478-17.502-37.707-36-61.962l15.334-3.999.285-.999 45.1 43.251-24.719 23.71z"/>
        </g>
        <g fill="#FFD166" fill-rule="nonzero">
            <path d="M124.1 162.388c6.762 8.981 16.98 20.754 32.79 37.047l54.81-52.053c-17.136-15.021-29.553-24.732-38.97-31.158l-48.63 46.164zM68.745 49.037C85.39 64.844 97.593 74.858 107.441 81.68l-4.213 14.722-15.49 4c-7.207-9.355-17.732-20.956-34.384-36.744l15.391-14.62z"/>
        </g>
        <g fill="#FFD166" fill-rule="nonzero">
            <path d="M45.828 33.64L25.911 20.536l-4.653 2.33 19.917 13.106zM28.044 56.938l-24.01-5.212L.887 56.76l24.01 5.212zM71.988 21.24L60.754.836l-6.207 1.026 11.234 20.402z"/>
        </g>
        <path fill="#424242" fill-rule="nonzero" d="M78.402 46.046l-2.57 2.452c13.768 12.994 25.289 22.666 35.169 29.555 11.903 8.296 20.23 11.737 29.05 15.379 9.213 3.809 18.715 7.74 32.91 17.16l2.628 1.763 3.607 2.467-.035.033c9.053 6.477 19.806 15.167 32.684 26.412l2.66 2.344 2.88 2.537c10.598 9.586 19.343 19.035 36.389 38.338l2.226 2.526L200.449 240l-2.636-2.106c-20.594-16.408-30.388-24.838-40.19-34.73l-2.659-2.749-2.452-2.537c-11.775-12.276-20.878-22.55-27.682-31.2l-.035.034-2.585-3.445-.023-.03-1.837-2.447c-9.794-13.452-13.911-22.495-17.896-31.248-3.84-8.445-7.47-16.42-16.22-27.833-7.224-9.427-17.38-20.427-30.987-33.559l-2.57 2.452L39 57.552 64.733 33l13.67 13.046zm121.594 184.222l45.773-43.658c-16.566-18.708-24.457-27.003-33.721-35.362l-45.38 43.279-3.723 3.552c9.206 9.3 18.41 17.287 37.051 32.19zm-42.174-37.46L206.5 146.36c-13.003-11.346-23.783-20.017-32.75-26.364l-21.776 20.776-21.764 20.788c6.652 8.556 15.748 18.838 27.612 31.248zm-48.451-66.142c3.731 8.184 7.575 16.655 16.402 28.953l41.773-39.856c-12.98-8.493-21.869-12.168-30.49-15.732-8.085-3.348-15.782-6.521-26.051-13.18l-3.326 11.666-12.212 3.17c7.026 9.854 10.383 17.227 13.908 24.975l-.004.004zM90.773 95.46l10.765-2.794 2.928-10.282C94.762 75.408 83.603 65.948 70.5 53.587l-9.926 9.46c12.96 12.499 22.882 23.145 30.204 32.408l-.004.004zM52.681 60.424l15.065-14.378-3.025-2.883-15.065 14.37 3.025 2.89z"/>
        <g fill="#FFD166" fill-rule="nonzero">
            <path d="M176.073 42.205h-7.597v-4.902h-5.18v-7.185h5.18v-4.902h7.597v4.902h5.18v7.185h-5.18zM19.263 156.019h7.596v4.902h5.18v7.189h-5.18v4.898h-7.596v-4.898h-5.18v-7.19h5.18zM102.49 198.625h7.596v4.902h5.18v7.19h-5.18v4.901h-7.596v-4.902h-5.18v-7.189h5.18zM237.784 115.36h-9.094v8.607h9.094zM69.683 139.498h-9.094v8.606h9.094zM213.717 81.46h-9.094v8.607h9.094z"/>
        </g>
        <g fill="#FFF" fill-rule="nonzero">
            <path d="M199.573 224.667l14.135-13.46-5.258-5.007-9.28 8.838-14.224-11.538-4.82 5.388zM224.55 200.782l-6.166-5.485-7.095 6.318 6.166 5.485z"/>
        </g>
        <path fill="#FFF" d="M157.381 146.885c4.766-4.766 12.288-4.97 16.801-.457 4.513 4.513 4.309 12.035-.457 16.8-4.766 4.767-12.288 4.971-16.801.458-2.168-2.167-3.337-5.155-3.251-8.306.086-3.15 1.42-6.206 3.708-8.495z"/>
        <path fill="#007896" fill-rule="nonzero" d="M156.29 145.327c5.409-5.41 13.948-5.643 19.07-.52 5.124 5.123 4.891 13.662-.518 19.072-5.41 5.41-13.949 5.642-19.072.52-2.46-2.46-3.788-5.852-3.69-9.429.097-3.577 1.611-7.045 4.21-9.643zm8.789 15.56l4.94-.105a1.78 1.78 0 0 0 1.199-.515 1.78 1.78 0 0 0 .515-1.199l.092-4.927c.016-.452-.15-.881-.46-1.192-.311-.31-.74-.476-1.192-.46a.97.97 0 0 0-.669.285.97.97 0 0 0-.286.67l-.05 2.496c-.01.593-.26 1.17-.69 1.6-.43.43-1.007.68-1.6.69l-2.515.068a.97.97 0 0 0-.669.286.97.97 0 0 0-.286.67c-.014.45.153.88.465 1.189.312.31.742.474 1.193.456l.013-.012zm-6.518-1.216a.953.953 0 0 0 .65-.28.891.891 0 0 0 .274-.62l.064-2.384c.012-.564.25-1.111.661-1.52.423-.424.99-.669 1.573-.68l2.413-.035a.96.96 0 0 0 .786-.439c.111-.15.172-.329.175-.51l.065-2.384c.012-.564.25-1.111.66-1.52.423-.424.99-.669 1.573-.68l2.413-.035a.964.964 0 0 0 .912-.912 1.577 1.577 0 0 0-1.582-1.583l-4.803.095a1.7 1.7 0 0 0-1.175.502 1.63 1.63 0 0 0-.483 1.121l-.07 3.897-3.957.084a1.71 1.71 0 0 0-1.175.502 1.63 1.63 0 0 0-.496 1.134l-.086 4.725a1.577 1.577 0 0 0 1.601 1.54l.007-.018z"/>
    </g>
</svg>
