<svg xmlns="http://www.w3.org/2000/svg" width="60" height="60" viewBox="0 0 60 60">
    <defs>
        <radialGradient id="a" cx="77.762%" cy="17.476%" r="50.592%" fx="77.762%" fy="17.476%" gradientTransform="matrix(.99206 0 0 1 .006 0)">
            <stop offset="6%" stop-color="#FFEA80"/>
            <stop offset="11%" stop-color="#FFE77D"/>
            <stop offset="47%" stop-color="#FFD76C"/>
            <stop offset="73%" stop-color="#FFD166"/>
        </radialGradient>
    </defs>
    <g fill="none" fill-rule="evenodd" transform="translate(2)">
        <path stroke="#163150" stroke-linecap="round" stroke-linejoin="round" stroke-width="2.222" d="M25.928 18.222L38.73 7.29M47.062 16.144l8.456-7.222"/>
        <ellipse cx="38.27" cy="23.5" fill="#E09118" stroke="#163150" stroke-linecap="round" stroke-linejoin="round" stroke-width="2.222" rx="11.2" ry="11.111"/>
        <ellipse cx="33.23" cy="27.389" fill="url(#a)" stroke="#163150" stroke-linecap="round" stroke-linejoin="round" stroke-width="2.222" rx="11.76" ry="11.667"/>
        <ellipse cx="33.23" cy="27.389" fill="#FFC832" stroke="#FFB63B" stroke-linecap="round" stroke-linejoin="round" stroke-width="1.778" rx="7.28" ry="7.222"/>
        <ellipse cx="27.07" cy="53.5" fill="#B5BFC7" stroke="#163150" stroke-linecap="round" stroke-linejoin="round" stroke-width="2.222" rx="5.6" ry="5.556"/>
        <ellipse cx="44.99" cy="53.5" fill="#B5BFC7" stroke="#163150" stroke-linecap="round" stroke-linejoin="round" stroke-width="2.222" rx="5.6" ry="5.556"/>
        <path fill="#A682FF" d="M54.387 27.944L50.4 42.934 28 45.421l20.418 1.111-2.733 8.067h-2.128l-1.882-4.444H29.87L28.347 54.6h-2.24L14.112 27.522a5.99 5.99 0 0 0-4.11-3.478l-6.855-1.666.773-3.234 7.952 1.9a7.31 7.31 0 0 1 5.006 4.178l1.188 2.722h36.321z"/>
        <path fill="#000" d="M15.77 31.111l10.326 11.267L51.901 37.3l-1.647 5.756-20.126 2.41 18.1 1.156-2.7 7.99h-2.106l-1.881-4.445H29.826l-1.524 4.444h-2.116z" opacity=".1"/>
        <path fill="#FFF" d="M54.645 27.944l-1.12 5.367-37.655-2.4h-.459l-1.333-3.133a6.615 6.615 0 0 0-4.48-3.834l-6.697-1.622.784-3.266 7.739 1.844a7.992 7.992 0 0 1 5.477 4.567l1.12 2.466 36.624.011z" opacity=".15"/>
        <path stroke="#163150" stroke-linecap="round" stroke-linejoin="round" stroke-width="1.778" d="M54.387 27.944l-3.64 13.567A2.156 2.156 0 0 1 48.9 43.09L27.91 45.41l20.418 1.111-2.509 7.411a.974.974 0 0 1-.918.656h-.795A.975.975 0 0 1 43.21 54l-1.624-3.856H29.87l-1.299 3.79a.974.974 0 0 1-.918.655h-.941a.975.975 0 0 1-.896-.589L14.224 27.778a6.538 6.538 0 0 0-4.48-3.79l-6.597-1.61.773-3.234 7.157 1.712a8.942 8.942 0 0 1 6.126 5.11l.863 1.978h36.321z"/>
        <path fill="#EF4747" d="M14.93 20.467l-10.45-2.4a2.955 2.955 0 0 0-2.231.336 2.913 2.913 0 0 0-1.33 1.808 2.91 2.91 0 0 0 2.127 3.5l9.23 2.222 2.654-5.466z"/>
        <path fill="#FFF" d="M.93 20.211l12.768 3.011 1.232-2.755-10.45-2.4S2.42 17.122.93 20.21z" opacity=".2"/>
        <path stroke="#163150" stroke-linecap="round" stroke-linejoin="round" stroke-width="1.778" d="M14.078 22.222c.21-.438.205-.948-.014-1.381A1.589 1.589 0 0 0 12.958 20L4.48 18.067a2.955 2.955 0 0 0-2.231.336 2.913 2.913 0 0 0-1.33 1.808 2.91 2.91 0 0 0 2.127 3.5l7.728 1.9a1.898 1.898 0 0 0 2.162-1.011l1.142-2.378z"/>
        <path stroke="#B5BFC7" stroke-linecap="round" stroke-linejoin="round" stroke-width="1.667" d="M8.96 30.722l8.266 18.89c-1.96 3.7-.493 8.244.84 9.355M5.6 33.833l4.189 9.5" opacity=".4"/>
        <path stroke="#FFD166" stroke-linecap="round" stroke-linejoin="round" stroke-width="2.222" d="M42.168 9.078l9.834-8.4"/>
        <path fill="#FFD166" d="M36.59 42.111a1.959 1.959 0 0 1-1.747-1.267.817.817 0 0 1-.078-.344v-2.411h-2.43a.846.846 0 0 1-.348-.078 1.813 1.813 0 0 1-1.296-1.733c0-.798.526-1.502 1.296-1.734a.846.846 0 0 1 .347-.077h2.386v-2.411c0-.12.027-.237.078-.345a1.824 1.824 0 0 1 1.748-1.286c.804 0 1.514.522 1.747 1.286a.817.817 0 0 1 .078.345v2.388h2.442c.12.001.238.028.347.078.757.244 1.27.944 1.27 1.734s-.513 1.49-1.27 1.733a.846.846 0 0 1-.347.078h-2.408v2.41c0 .12-.028.237-.079.345a1.958 1.958 0 0 1-1.736 1.29z"/>
        <path fill="#163150" fill-rule="nonzero" d="M37.494 30c.5.038.926.378 1.075.858v3.577h3.579c1.136.514 1.136 1.629 0 2.143h-3.591v3.578a1.1 1.1 0 0 1-2.138 0V36.59h-3.567c-1.136-.515-1.136-1.63 0-2.144h3.567v-3.59c.149-.48.575-.82 1.075-.857zm-.488-1a2.898 2.898 0 0 0-2.618 1.847 1.754 1.754 0 0 0-.151.725v1.66h-1.671c-.25-.002-.497.05-.725.152a2.782 2.782 0 0 0 0 5.237c.228.102.475.154.725.152h1.659v1.66c-.002.25.05.497.152.725a2.781 2.781 0 0 0 5.235 0c.101-.228.153-.475.151-.725v-1.672h1.671c.25.002.497-.05.725-.152a2.782 2.782 0 0 0 0-5.237 1.752 1.752 0 0 0-.725-.152h-1.706v-1.648c.002-.25-.05-.497-.152-.725A2.898 2.898 0 0 0 36.96 29h.047z"/>
    </g>
</svg>
