<svg xmlns="http://www.w3.org/2000/svg" width="38" height="45" viewBox="0 0 38 45">
    <g fill="none" fill-rule="evenodd" transform="translate(-2 1)">
        <path fill="#1EB8E7" d="M15.59 40.587c-13.644 0-12.704-8.94-11.612-10.538 5.308-7.802 17.946-7.791 23.244 0 1.048 1.545 2.183 10.538-11.633 10.538z"/>
        <path fill="#0C9FE1" d="M25.06 27.978c-4.736 5.602-13.87 5.934-20.206.998 4.876-5.838 15.6-6.44 20.205-.998z"/>
        <path stroke="#163150" stroke-linecap="round" stroke-linejoin="round" stroke-width="2.162" d="M27.222 30.049a14.083 14.083 0 0 0-11.627-6.114c-4.657 0-9.012 2.29-11.627 6.114-1.082 1.599-2.011 10.538 11.621 10.538 13.406 0 13.708-7.501 11.633-10.538z"/>
        <ellipse cx="15.834" cy="17.345" fill="#FFF" stroke="#163150" stroke-linecap="round" stroke-linejoin="round" stroke-width="2.162" rx="10.423" ry="10.43" transform="rotate(-47.36 15.834 17.345)"/>
        <path fill="#FFD166" d="M4.443 8.585l.843 9.294s.422-8.736 6.292-8.897c.8 9.584 14.725 7.91 14.725 7.91.443-7.512 1.08-9.745-.498-12.127C22.811.31 15.19-.193 11.578 3.39 6.616 2.146 3.914 5.183 4.443 8.585z"/>
        <path stroke="#163150" stroke-linecap="round" stroke-linejoin="round" stroke-width="2.162" d="M4.443 8.585l.843 9.294s.422-8.736 6.292-8.897c.8 9.584 14.725 7.91 14.725 7.91.443-7.512 1.08-9.745-.498-12.127C22.811.31 15.19-.193 11.578 3.39 6.616 2.146 4.141 5.226 4.443 8.585z"/>
        <path fill="#E3EDFF" fill-rule="nonzero" d="M17.827 34.148l-2.313-.386a1.078 1.078 0 0 1-.872-.77c-.114-.404.02-.837.342-1.108l6.302-5.259a1.087 1.087 0 0 1 1.6.247l4.498 7.019c.232.356.23.814-.003 1.17-.234.355-.656.54-1.078.472l-2.238-.365c0 2.318 1.492 4.7 5.08 3.52a1.085 1.085 0 0 1 1.275.468c.26.434.18.99-.193 1.335a7.612 7.612 0 0 1-8.321.915 7.501 7.501 0 0 1-4.079-7.258zm14.249 4.486l6.216-5.366c.323-.274.454-.71.335-1.115a1.079 1.079 0 0 0-.886-.763l-2.325-.268a7.48 7.48 0 0 0-2.028-5.641 7.594 7.594 0 0 0-5.54-2.376 7.035 7.035 0 0 0-4.853 1.835c-.36.347-.432.894-.174 1.321.257.427.777.622 1.255.472 3.416-1.18 5.08.933 5.124 3.455l-2.238-.343a1.084 1.084 0 0 0-1.088.473c-.235.36-.232.823.007 1.18l4.584 6.964a1.083 1.083 0 0 0 1.61.172z"/>
        <path fill="#163150" fill-rule="nonzero" d="M37.914 30.37l-1.428-.214a8.586 8.586 0 0 0-5.017-7.333 8.701 8.701 0 0 0-8.874.98l-8.292 7.255a2.137 2.137 0 0 0-.677 2.223c.233.808.92 1.408 1.758 1.533l1.416.236a8.581 8.581 0 0 0 4.698 7.266 8.703 8.703 0 0 0 8.686-.462l8.81-7.76a2.136 2.136 0 0 0 .644-2.2 2.157 2.157 0 0 0-1.724-1.523zM25.449 41.189c-3.514 0-7.168-2.736-6.487-7.941l-1.665-.28-1.61-.267 6.291-5.259 4.498 7.03-3.373-.559c-.562 3.037.951 6.16 4.26 6.16a6.704 6.704 0 0 0 2.161-.375 5.95 5.95 0 0 1-4.075 1.491zm5.902-3.348l-4.594-6.965 3.384.505c.518-3.016-1.017-6.096-4.325-6.096-.738.01-1.469.145-2.162.397a6.004 6.004 0 0 1 4.108-1.545c3.481 0 7.114 2.683 6.487 7.855l1.708.258 1.61.247-6.216 5.344z"/>
    </g>
</svg>
