<svg xmlns="http://www.w3.org/2000/svg" width="100" height="69" viewBox="0 0 100 69">
    <g fill="none" fill-rule="evenodd" transform="translate(2 -6.5)">
        <path fill="#0C9FE1" stroke="#163150" stroke-linecap="round" stroke-linejoin="round" stroke-width="4.571" d="M95.68 51.75V30.818a8.476 8.476 0 0 0-2.52-6.004 8.574 8.574 0 0 0-6.051-2.473h-9.715c-4.716.025-8.525 3.833-8.525 8.523v6.818c.025 4.689 3.855 8.477 8.571 8.477h10.651c3.544-.163 6.714 2.173 7.589 5.591z"/>
        <path fill="#0C9FE1" stroke="#163150" stroke-linecap="round" stroke-linejoin="round" stroke-width="4.571" d="M23.337 63.09v-45a5.443 5.443 0 0 1 1.926-3.895 5.507 5.507 0 0 1 4.177-1.263h52.846c2.709 0 4.912 2.17 4.937 4.863l.16 34.228a5.008 5.008 0 0 1-1.488 3.582 5.066 5.066 0 0 1-3.61 1.463h-53.12a5.845 5.845 0 0 0-4.204 1.777 5.777 5.777 0 0 0-1.624 4.246"/>
        <ellipse cx="56.814" cy="29.73" fill="#FFD166" stroke="#163150" stroke-linecap="round" stroke-linejoin="round" stroke-width="4.571" rx="20.478" ry="20.457" transform="rotate(-39.94 56.814 29.73)"/>
        <path fill="#1EB8E7" d="M87.246 29.66l-.137 34.204c-.024 2.65-2.159 4.802-4.823 4.863l-51.337-.204h-2.88c-2.71-.025-4.892-2.216-4.892-4.91l.137-45a5.823 5.823 0 0 0 1.647 4.24 5.89 5.89 0 0 0 4.205 1.783h1.211l51.909.091a4.929 4.929 0 0 1 3.52 1.431 4.872 4.872 0 0 1 1.44 3.501z"/>
        <path stroke="#163150" stroke-linecap="round" stroke-linejoin="round" stroke-width="4.571" d="M23.337 18.59l-.16 44.046a5.641 5.641 0 0 0 1.712 4.477 5.711 5.711 0 0 0 4.551 1.569h52.846c2.712-.012 4.912-2.19 4.937-4.887l.16-34.227c-.038-2.765-2.316-4.98-5.097-4.954h-53.12a5.845 5.845 0 0 1-4.205-1.777 5.777 5.777 0 0 1-1.624-4.246"/>
        <path fill="#1EB8E7" d="M95.68 32.205v20.84c-.025 4.69-3.855 8.478-8.571 8.478H73.143c-4.707-.025-8.513-3.82-8.526-8.5v-6.818a8.476 8.476 0 0 1 2.52-6.004 8.574 8.574 0 0 1 6.052-2.474H88c3.56.224 6.78-2.091 7.68-5.522z"/>
        <path fill="#0C9FE1" d="M87.246 46.727c8.045 4.728.891 16.841-7.2 12.091l-6.24-2.613L80 42.886l7.246 3.841z"/>
        <ellipse cx="77.211" cy="49.773" fill="#B3C1D6" stroke="#163150" stroke-linecap="round" stroke-linejoin="round" stroke-width="4.571" rx="4.914" ry="4.886"/>
        <path stroke="#163150" stroke-linecap="round" stroke-linejoin="round" stroke-width="4.571" d="M95.68 32.205v20.84c-.025 4.69-3.855 8.478-8.571 8.478H73.143c-4.707-.025-8.513-3.82-8.526-8.5v-6.818a8.476 8.476 0 0 1 2.52-6.004 8.574 8.574 0 0 1 6.052-2.474H88c3.56.224 6.78-2.091 7.68-5.522z"/>
        <path fill="#E3EDFF" stroke="#163150" stroke-linecap="round" stroke-linejoin="round" stroke-width="4.571" d="M12.869 39.545L.846 35.932l27.565-11.16L44.937 49l-13.166-4C29.486 55.182 37.6 69.886 60.686 69.205c-20.275 10.772-50.972-.773-47.817-29.66z"/>
    </g>
</svg>
