<svg xmlns="http://www.w3.org/2000/svg" viewBox="0 0 138.73 128.23"><title>icn-bank-vs-mycrypto</title><rect x="2.45" y="41.07" width="19.92" height="32.36" style="fill:#1eb8e7"/><rect x="22.37" y="24.89" width="29.88" height="48.55" style="fill:#1eb8e7"/><polygon points="58.72 73.44 72.16 52.75 72.16 41.07 52.24 41.07 52.24 73.44 58.72 73.44" style="fill:#1eb8e7"/><path d="M38.72,21.34a5,5,0,0,1-5-5A1.25,1.25,0,0,1,35,15.13a1.23,1.23,0,0,1,1.24,1.24h0a2.5,2.5,0,1,0,2.5-2.5h0a5,5,0,1,1,5-5h0a1.24,1.24,0,0,1-2.48,0,2.5,2.5,0,1,0-2.49,2.5h0a5,5,0,0,1,0,10Z" transform="translate(-0.17 -0.19)" style="fill:#ffd166"/><path d="M38.72,26.32a1.23,1.23,0,0,1-1.24-1.24h0V1.43A1.24,1.24,0,0,1,38.72.19,1.25,1.25,0,0,1,40,1.43V25.08a1.24,1.24,0,0,1-1.24,1.24Z" transform="translate(-0.17 -0.19)" style="fill:#ffd166"/><path d="M52.41,74.87H22.53a1.24,1.24,0,0,1-1.24-1.24V25.08a1.24,1.24,0,0,1,1.24-1.24H52.41a1.24,1.24,0,0,1,1.24,1.24V73.63a1.24,1.24,0,0,1-1.24,1.24ZM23.77,72.39h27.4V26.32H23.77V72.39Z" transform="translate(-0.17 -0.19)" style="fill:#005268"/><path d="M2.62,42.5H1.37a1.24,1.24,0,0,1,0-2.47H2.62a1.24,1.24,0,0,1,0,2.48Zm70.95,0H72.33a1.24,1.24,0,0,1,0-2.47h1.24a1.24,1.24,0,1,1,0,2.48ZM54.9,26.32H20A1.24,1.24,0,0,1,20,23.84H54.9a1.24,1.24,0,0,1,0,2.48ZM32.49,37.53H30A2.5,2.5,0,0,1,27.51,35V32.55A2.49,2.49,0,0,1,30,30.07h2.49A2.48,2.48,0,0,1,35,32.55V35a2.49,2.49,0,0,1-2.48,2.49Zm-2.49-5V35h2.49V32.55Zm14.94,5H42.45A2.5,2.5,0,0,1,40,35V32.55a2.49,2.49,0,0,1,2.49-2.48h2.49a2.49,2.49,0,0,1,2.49,2.48V35a2.5,2.5,0,0,1-2.49,2.49Zm-2.49-5V35H45V32.55Zm-10,14.93H30A2.48,2.48,0,0,1,27.52,45V42.51A2.48,2.48,0,0,1,30,40h2.49A2.48,2.48,0,0,1,35,42.51V45a2.48,2.48,0,0,1-2.48,2.48ZM30,42.5V45h2.49V42.51Zm14.94,5H42.45A2.48,2.48,0,0,1,40,45V42.51A2.48,2.48,0,0,1,42.45,40h2.49a2.49,2.49,0,0,1,2.49,2.48V45a2.49,2.49,0,0,1-2.49,2.48Zm-2.49-5V45H45V42.51Zm-10,14.93H30A2.49,2.49,0,0,1,27.51,55V52.47A2.51,2.51,0,0,1,30,50h2.49A2.49,2.49,0,0,1,35,52.47V55a2.47,2.47,0,0,1-2.48,2.47Zm-2.49-5V55h2.49V52.47Zm14.94,5H42.45A2.49,2.49,0,0,1,40,55V52.47A2.51,2.51,0,0,1,42.45,50h2.49a2.5,2.5,0,0,1,2.49,2.49V55a2.49,2.49,0,0,1-2.49,2.47Zm-2.49-5V55H45V52.47l-2.5,0Zm0,22.42h-10a1.24,1.24,0,0,1-1.24-1.24V62.43a1.24,1.24,0,0,1,1.24-1.24h10a1.23,1.23,0,0,1,1.24,1.24v11.2a1.24,1.24,0,0,1-1.24,1.24Zm-8.72-2.48h7.48V63.67H33.73v8.72Zm3.74-51a5,5,0,0,1-5-5A1.24,1.24,0,0,1,35,16.3v.07a2.5,2.5,0,1,0,2.49-2.5h0a5,5,0,1,1,5-5h0A1.24,1.24,0,1,1,40,9a.09.09,0,0,1,0-.07,2.5,2.5,0,1,0-2.5,2.5h0a5,5,0,0,1,0,10Z" transform="translate(-0.17 -0.19)" style="fill:#005268"/><path d="M42.45,46.24h2.49A1.24,1.24,0,0,0,46.19,45V42.51a1.24,1.24,0,0,0-1.25-1.24H42.45a1.23,1.23,0,0,0-1.24,1.24V45A1.23,1.23,0,0,0,42.45,46.24Z" transform="translate(-0.17 -0.19)" style="fill:#e3edff"/><path d="M42.45,56.21h2.49A1.24,1.24,0,0,0,46.19,55V52.47a1.25,1.25,0,0,0-1.25-1.25H42.45a1.24,1.24,0,0,0-1.24,1.25V55h0A1.24,1.24,0,0,0,42.45,56.21Z" transform="translate(-0.17 -0.19)" style="fill:#e3edff"/><path d="M42.45,36.29h2.49A1.25,1.25,0,0,0,46.19,35V32.55a1.24,1.24,0,0,0-1.25-1.24H42.45a1.23,1.23,0,0,0-1.24,1.24V35A1.24,1.24,0,0,0,42.45,36.29Z" transform="translate(-0.17 -0.19)" style="fill:#e3edff"/><rect x="32.33" y="62.23" width="9.96" height="11.2" style="fill:#e3edff"/><polygon points="65.94 62.33 65.94 58.5 58.47 58.5 58.47 68.46 61.95 68.46 65.94 62.33" style="fill:#e3edff"/><rect x="58.46" y="46.05" width="7.47" height="7.47" style="fill:#e3edff"/><path d="M32.49,41.27H30a1.23,1.23,0,0,0-1.24,1.24V45A1.23,1.23,0,0,0,30,46.24h2.49A1.24,1.24,0,0,0,33.74,45V42.51A1.24,1.24,0,0,0,32.49,41.27Z" transform="translate(-0.17 -0.19)" style="fill:#e3edff"/><path d="M32.49,56.2A1.23,1.23,0,0,0,33.73,55V52.47a1.24,1.24,0,0,0-1.24-1.25H30a1.24,1.24,0,0,0-1.24,1.25V55h0A1.24,1.24,0,0,0,30,56.21h2.49Z" transform="translate(-0.17 -0.19)" style="fill:#e3edff"/><rect x="8.67" y="46.05" width="7.47" height="7.47" style="fill:#e3edff"/><rect x="28.59" y="31.11" width="4.98" height="4.98" rx="1.24" style="fill:#e3edff"/><rect x="8.67" y="58.5" width="7.47" height="9.96" style="fill:#e3edff"/><path d="M58.63,55H66.1a1.23,1.23,0,0,0,1.24-1.24V46.24A1.24,1.24,0,0,0,66.1,45H58.63a1.24,1.24,0,0,0-1.24,1.23v7.47A1.24,1.24,0,0,0,58.63,55Zm1.24-7.47h5v5h-5Z" transform="translate(-0.17 -0.19)" style="fill:#005268"/><path d="M16.31,57.45H8.84A1.25,1.25,0,0,0,7.6,58.69v10a1.24,1.24,0,0,0,1.24,1.24h7.47a1.24,1.24,0,0,0,1.24-1.24v-10A1.25,1.25,0,0,0,16.31,57.45Zm-1.24,10h-5V59.93h5Z" transform="translate(-0.17 -0.19)" style="fill:#005268"/><path d="M16.31,45H8.84A1.24,1.24,0,0,0,7.6,46.24v7.47A1.24,1.24,0,0,0,8.84,55h7.47a1.24,1.24,0,0,0,1.24-1.24V46.24A1.24,1.24,0,0,0,16.31,45Zm-1.24,7.46h-5v-5h5Z" transform="translate(-0.17 -0.19)" style="fill:#005268"/><path d="M58.63,69.89h2.69l1.61-2.48H59.87V59.93h5v4.5l2.48-3.81V58.69a1.25,1.25,0,0,0-1.24-1.24H58.63a1.25,1.25,0,0,0-1.24,1.24v10A1.24,1.24,0,0,0,58.63,69.89Z" transform="translate(-0.17 -0.19)" style="fill:#005268"/><path d="M37.47,26.32h0a1.24,1.24,0,0,0,1.24-1.24V1.43h0a1.24,1.24,0,0,0-2.48,0V25.08A1.24,1.24,0,0,0,37.47,26.32Z" transform="translate(-0.17 -0.19)" style="fill:#005268"/><path d="M52.41,74.87h5.67l1.61-2.48h-6V42.51H71.09V54.85L73.57,51V41.26A1.25,1.25,0,0,0,72.33,40H52.41a1.24,1.24,0,0,0-1.24,1.24V73.63A1.23,1.23,0,0,0,52.41,74.87Z" transform="translate(-0.17 -0.19)" style="fill:#005268"/><path d="M22.53,40H2.62a1.25,1.25,0,0,0-1.24,1.24V73.63a1.24,1.24,0,0,0,1.24,1.24H22.53a1.24,1.24,0,0,0,1.24-1.24V41.26A1.24,1.24,0,0,0,22.53,40ZM21.29,72.39H3.86V42.51H21.29Z" transform="translate(-0.17 -0.19)" style="fill:#005268"/><path d="M90.25,24.25l-62,95" transform="translate(-0.17 -0.19)" style="fill:none;stroke:#005268;stroke-linecap:round;stroke-width:2.5px"/><path d="M101,127.25H85.91l1.48-6.92H99.54ZM64.92,76.5H122v43.83H64.92Z" transform="translate(-0.17 -0.19)" style="fill:#dfdfe3"/><path d="M65.84,77.43h55.25v34.81H65.84Z" transform="translate(-0.17 -0.19)" style="fill:#1eb8e7;stroke:#005268;stroke-width:1.3830000162124634px"/><circle cx="93.3" cy="115.61" r="1.57" style="fill:#005268"/><path d="M73.85,78H113v27.55H73.85Z" transform="translate(-0.17 -0.19)" style="fill:#fff"/><path d="M122.93,121.25V75.58H64v45.67H86.28l-1.1,5.08H83.34v1.84H103.6v-1.84h-1.85l-1.1-5.08ZM87,126.33l1.1-5.08H98.81l1.1,5.08ZM65.84,77.43h7.09v29.41h41V77.43h7.18v42H65.84v-42Z" transform="translate(-0.17 -0.19)" style="fill:#005268"/><path d="M85,114.89h1.84v1.84H85Zm15.1,0h1.85v1.84h-1.85Z" transform="translate(-0.17 -0.19)" style="fill:#005268"/><path d="M80.2,83.33h18v1.85h-18Zm20.91,0h5.61v1.85h-5.61ZM87.2,89.88h19.52v1.85H87.2Zm-7,0h4.06v1.85H80.2Z" transform="translate(-0.17 -0.19)" style="fill:#193651"/><path d="M73.21,72.22h40.41v34H73.21Z" transform="translate(-0.17 -0.19)" style="fill:#a682ff"/><path d="M76.47,75.49h33.89v27.43H76.47Zm-3.26-9.8h40.41v6.53H73.21Z" transform="translate(-0.17 -0.19)" style="fill:#f9f9f9"/><path d="M72.56,65v41.8h41.71V65ZM113,105.53H73.86V72.88H113Zm-39.11-34V66.35H113v5.22Z" transform="translate(-0.17 -0.19)" style="fill:#005268"/><path d="M76.47,68.31h1.3v1.3h-1.3Zm3.85,0h1.3v1.3h-1.3Zm3.84,0h1.31v1.3H84.16Z" transform="translate(-0.17 -0.19)" style="fill:#005268"/><path d="M80.32,83.62h14v8.13h-14Zm7-5.27h19.52v2.29H87.32Zm-7,0h4.05v2.29H80.32Z" transform="translate(-0.17 -0.19)" style="fill:none;stroke:#000;stroke-width:1.0369999408721924px"/><path d="M138,112.21a3.53,3.53,0,0,1-.79-.08,8,8,0,0,0,.18-1.76,1.84,1.84,0,0,0-3.67,0,3.09,3.09,0,0,0,1.95,2.53,5.55,5.55,0,0,1-.6,1.06,12,12,0,0,0-7.95-5.1,4.31,4.31,0,0,0,1.26-1.58,4.29,4.29,0,1,0-4-6.1,4.27,4.27,0,0,0-2.61,7.5,14.11,14.11,0,0,0-5.61,2,4.27,4.27,0,0,0-2.61-.89.61.61,0,0,0-.61.61,4.2,4.2,0,0,0,.73,2.38,8.22,8.22,0,0,0-1.7,3.14h-.26a2.47,2.47,0,0,0-1.74.72,2.43,2.43,0,0,0-.71,1.74,3.91,3.91,0,0,0,1.84,3.34l4.28,2.67v3.2a.61.61,0,0,0,.61.61h2.45a.6.6,0,0,0,.55-.34l.73-1.45a16.26,16.26,0,0,0,8.48,0l.73,1.45a.6.6,0,0,0,.54.34h2.46a.61.61,0,0,0,.61-.61h0v-3.25a8.3,8.3,0,0,0,3.68-6.57,7.08,7.08,0,0,0-.5-2.57,6.56,6.56,0,0,0,1.17-1.86,5.06,5.06,0,0,0,1.17.13.62.62,0,0,0,0-1.23h0Zm-1.95-.51a1.88,1.88,0,0,1-1.1-1.33.61.61,0,1,1,1.22-.08v.08a6.69,6.69,0,0,1-.13,1.34Z" transform="translate(-0.17 -0.19)" style="fill:#005268;stroke:#005268;stroke-width:0.5px"/><ellipse cx="128.07" cy="102.81" rx="3.06" ry="3.07" style="fill:#ffd166"/><path d="M121.49,105.46a3.07,3.07,0,0,1,2.51-3,5.43,5.43,0,0,0-.06.55,4.62,4.62,0,0,0,.11.91.65.65,0,0,0-.11.32v2.46a.62.62,0,1,0,1.23.07V106a4.3,4.3,0,0,0,1.93,1.13,3,3,0,0,1-5.61-1.67Z" transform="translate(-0.17 -0.19)" style="fill:#ffca28"/><path d="M121.49,105.46a3.07,3.07,0,0,1,2.51-3,5.43,5.43,0,0,0-.06.55,4.62,4.62,0,0,0,.11.91.65.65,0,0,0-.11.32v2.46a.62.62,0,1,0,1.23.07V106a4.3,4.3,0,0,0,1.93,1.13,3,3,0,0,1-5.61-1.67Z" transform="translate(-0.17 -0.19)" style="fill:#ffd166"/><path d="M125.17,106v.69a.62.62,0,1,1-1.23.07v-2.53a.65.65,0,0,1,.11-.32,4.53,4.53,0,0,1-.11-.91,5.43,5.43,0,0,1,.06-.55,3.21,3.21,0,0,0-1,.4,4.25,4.25,0,0,0,2.72,5.46,3.09,3.09,0,0,0,1.42-1.18A4.3,4.3,0,0,1,125.17,106Z" transform="translate(-0.17 -0.19)" style="fill:#ffa21a;opacity:0.38999998569488525;isolation:isolate"/><path d="M128.23,104.85a.61.61,0,0,0,.61-.62v-2.45a.61.61,0,0,0-.57-.65.62.62,0,0,0-.65.58v2.52a.61.61,0,0,0,.61.61Z" transform="translate(-0.17 -0.19)" style="fill:#005268"/><path d="M131.57,123.49a.6.6,0,0,0-.27.5v3h-1.46l-.79-1.58a.61.61,0,0,0-.73-.31,15,15,0,0,1-8.75,0,.61.61,0,0,0-.73.31l-.79,1.58h-1.46V124a.61.61,0,0,0-.29-.52l-4.56-2.85a2.69,2.69,0,0,1-1.27-2.3,1.22,1.22,0,0,1,1.22-1.22h.75a.62.62,0,0,0,.6-.5,6.82,6.82,0,0,1,1.85-3.41.61.61,0,0,0,0-.83,3.16,3.16,0,0,1-.69-1.32,3.1,3.1,0,0,1,1.44.79.62.62,0,0,0,.77.07,13.42,13.42,0,0,1,7.51-2.17c6.08,0,11,3.58,11,8A7.1,7.1,0,0,1,131.57,123.49Z" transform="translate(-0.17 -0.19)" style="fill:#fdd1b0"/><path d="M131.57,123.49a.6.6,0,0,0-.27.5v3h-1.46l-.79-1.58a.61.61,0,0,0-.73-.31,15,15,0,0,1-8.75,0,.61.61,0,0,0-.73.31l-.79,1.58h-1.46V124a.61.61,0,0,0-.29-.52l-4.56-2.85a2.69,2.69,0,0,1-1.27-2.3,1.22,1.22,0,0,1,1.22-1.22h.75a.62.62,0,0,0,.6-.5,6.82,6.82,0,0,1,1.85-3.41.61.61,0,0,0,0-.83,3.16,3.16,0,0,1-.69-1.32,3.1,3.1,0,0,1,1.44.79.62.62,0,0,0,.77.07,13.42,13.42,0,0,1,7.51-2.17c6.08,0,11,3.58,11,8A7.1,7.1,0,0,1,131.57,123.49Z" transform="translate(-0.17 -0.19)" style="fill:#1eb8e7"/><path d="M115.37,114.67a1.23,1.23,0,0,0-.87,2.1,1.23,1.23,0,1,0,.87-2.1Z" transform="translate(-0.17 -0.19)" style="fill:#005268"/><path d="M114.89,113.21c-.11.12-.21.25-.32.38a19,19,0,0,1,8.76-2c4.56,0,8.58,1.4,11,3.53-1.49-3.11-5.59-5.37-10.41-5.37a13.42,13.42,0,0,0-7.51,2.17.62.62,0,0,1-.77-.07,3.1,3.1,0,0,0-1.44-.79,3.16,3.16,0,0,0,.69,1.32.61.61,0,0,1,0,.83Z" transform="translate(-0.17 -0.19)" style="fill:#fff;opacity:0.20000000298023224;isolation:isolate"/><path d="M123,123.88a22.62,22.62,0,0,1-8.79-1.67l2.07,1.29a.6.6,0,0,1,.28.52V127h1.46l.79-1.58a.61.61,0,0,1,.73-.31,15,15,0,0,0,8.75,0,.61.61,0,0,1,.73.31l.79,1.58h1.46v-3a.61.61,0,0,1,.26-.5,8.84,8.84,0,0,0,2.37-2.39A20.61,20.61,0,0,1,123,123.88Z" transform="translate(-0.17 -0.19)" style="opacity:0.10000000149011612;isolation:isolate"/><path d="M128.42,111.63a16.24,16.24,0,0,0-9,0,.61.61,0,0,0-.38.78.63.63,0,0,0,.77.39,14.81,14.81,0,0,1,8.19,0,.63.63,0,0,0,.78-.4.61.61,0,0,0-.4-.77Z" transform="translate(-0.17 -0.19)" style="fill:#005268"/><path d="M102.06,92.3a3.94,3.94,0,0,0-4,4h0a4,4,0,0,0,3.94,4h0a4,4,0,0,0,3.94-4h0a3.94,3.94,0,0,0-3.94-4Z" transform="translate(-0.17 -0.19)" style="fill:#fff;fill-rule:evenodd"/><path d="M102,91.66a4.49,4.49,0,1,0,4.48,4.49A4.47,4.47,0,0,0,102,91.66Zm1.55,5.89-1.16,1.18a.56.56,0,0,1-.78,0l-1.15-1.18a.56.56,0,0,1,0-.79h0a.3.3,0,0,1,.43,0h0l.58.6a.74.74,0,0,0,1,0h0l.59-.6a.3.3,0,0,1,.43,0h0a.57.57,0,0,1,0,.8Zm1.21-1.87a.29.29,0,0,1-.21.09.32.32,0,0,1-.21-.08l-.56-.56a.67.67,0,0,0-.5-.21.74.74,0,0,0-.51.21l-.56.58a.29.29,0,0,1-.28.08.25.25,0,0,1-.16-.08l-.56-.56a.71.71,0,0,0-.5-.21.7.7,0,0,0-.51.22l-.56.57a.29.29,0,0,1-.42,0,.56.56,0,0,1,0-.76l1.12-1.14a.51.51,0,0,1,.38-.16.51.51,0,0,1,.37.15l.91.93.92-.94a.51.51,0,0,1,.39-.16.48.48,0,0,1,.37.15l1.1,1.12a.57.57,0,0,1,0,.76Z" transform="translate(-0.17 -0.19)" style="fill:#007896"/></svg>
