<svg xmlns="http://www.w3.org/2000/svg" width="250.5" height="231.44" viewBox="0 0 250.5 231.44"><title>Untitled-1</title><path d="M4.52,132.52h36V74.12H4.52Z" style="fill:#25b9e6"/><path d="M40.47,132.52H94.38V44.92H40.47ZM130.32,94l-25,38.55H94.38V74.11h35.94V94Z" style="fill:#25b9e6"/><path d="M58.44,65.13h-4.5a2.25,2.25,0,0,1-2.25-2.25V58.39a2.24,2.24,0,0,1,2.25-2.24h4.49a2.24,2.24,0,0,1,2.25,2.24v4.49a2.25,2.25,0,0,1-2.25,2.25m22.47,0H76.41a2.25,2.25,0,0,1-2.25-2.25V58.39a2.24,2.24,0,0,1,2.25-2.24H80.9a2.24,2.24,0,0,1,2.25,2.24v4.49a2.25,2.25,0,0,1-2.25,2.25m-22.46,18h-4.5a2.24,2.24,0,0,1-2.24-2.25V76.36a2.24,2.24,0,0,1,2.24-2.24h4.5a2.24,2.24,0,0,1,2.24,2.24v4.49a2.24,2.24,0,0,1-2.24,2.25m22.46,0H76.41a2.25,2.25,0,0,1-2.25-2.25V76.36a2.24,2.24,0,0,1,2.25-2.24H80.9a2.24,2.24,0,0,1,2.25,2.24v4.49A2.25,2.25,0,0,1,80.9,83.1m-22.46,18h-4.5a2.24,2.24,0,0,1-2.25-2.24h0v-4.5a2.24,2.24,0,0,1,2.25-2.24h4.49a2.24,2.24,0,0,1,2.25,2.24v4.49a2.25,2.25,0,0,1-2.25,2.25h0m22.47,0H76.41a2.24,2.24,0,0,1-2.25-2.24h0v-4.5a2.24,2.24,0,0,1,2.25-2.24H80.9a2.24,2.24,0,0,1,2.25,2.24v4.49a2.25,2.25,0,0,1-2.25,2.25h0M58.44,132.52h18V112.3h-18Zm-42.68-9H29.23v-18H15.76Zm0-27H29.23V83.1H15.76Zm103.33,14.68-8,12.28h-5.51v-18h13.48ZM105.61,96.58h13.48V83.1H105.61Z" style="fill:#e4ecf7"/><path d="M69.67,38.17a9,9,0,0,1-9-9,2.24,2.24,0,0,1,4.48,0,4.5,4.5,0,1,0,4.5-4.5h0a9,9,0,1,1,9-9h0a2.24,2.24,0,1,1-4.47,0,4.5,4.5,0,1,0-4.5,4.51h0a9,9,0,1,1,0,18Z" style="fill:#ffd168"/><path d="M69.67,47.15a2.23,2.23,0,0,1-2.24-2.23h0V2.24a2.24,2.24,0,1,1,4.48,0V44.91a2.24,2.24,0,0,1-2.24,2.24Z" style="fill:#ffd168"/><path d="M94.38,134.76H40.47a2.24,2.24,0,0,1-2.24-2.24h0V44.91a2.24,2.24,0,0,1,2.24-2.24H94.38a2.24,2.24,0,0,1,2.24,2.24v87.61a2.24,2.24,0,0,1-2.24,2.24ZM42.7,130.28H92.14V47.15H42.7Z" style="fill:#055369"/><path d="M103.83,134.76H94.38a2.24,2.24,0,0,1-2.24-2.24V74.11a2.23,2.23,0,0,1,2.24-2.23h35.94a2.24,2.24,0,0,1,2.24,2.23V90.53l-4.48,6.89V76.35H96.62v53.94h10.12l-2.91,4.47Zm-63.36,0H4.53a2.25,2.25,0,0,1-2.23-2.24V74.11a2.24,2.24,0,0,1,2.24-2.24H40.47a2.24,2.24,0,0,1,2.24,2.24v58.41a2.24,2.24,0,0,1-2.24,2.24ZM6.76,130.29H38.23V76.35H6.76v53.94Z" style="fill:#055369"/><path d="M4.53,76.35H2.28a2.24,2.24,0,1,1-.09-4.47H4.53a2.24,2.24,0,1,1,0,4.47Zm128,0h-2.25a2.24,2.24,0,0,1-.09-4.47h2.34a2.24,2.24,0,0,1,0,4.47Zm-33.7-29.2H36a2.24,2.24,0,0,1,0-4.47h62.9a2.24,2.24,0,1,1,0,4.47ZM58.44,67.37h-4.5a4.49,4.49,0,0,1-4.48-4.48v-4.5a4.49,4.49,0,0,1,4.48-4.48h4.49a4.49,4.49,0,0,1,4.49,4.48v4.49A4.49,4.49,0,0,1,58.44,67.37Zm-4.5-9v4.51h4.5v-4.5Zm27,9H76.41a4.49,4.49,0,0,1-4.49-4.48v-4.5a4.49,4.49,0,0,1,4.49-4.48H80.9a4.49,4.49,0,0,1,4.49,4.48v4.49A4.49,4.49,0,0,1,80.9,67.37Zm-4.49-9v4.51h4.5v-4.5Zm-18,27h-4.5a4.49,4.49,0,0,1-4.48-4.49V76.36a4.49,4.49,0,0,1,4.48-4.48h4.49a4.49,4.49,0,0,1,4.49,4.48v4.49A4.49,4.49,0,0,1,58.44,85.34Zm-4.5-9v4.5h4.5V76.36Zm27,9H76.41a4.5,4.5,0,0,1-4.49-4.49V76.36a4.49,4.49,0,0,1,4.49-4.48H80.9a4.49,4.49,0,0,1,4.49,4.48v4.49A4.49,4.49,0,0,1,80.9,85.34Zm-4.49-9v4.5h4.5V76.36Zm-18,26.94h-4.5a4.49,4.49,0,0,1-4.48-4.48V94.33a4.49,4.49,0,0,1,4.48-4.48h4.49a4.49,4.49,0,0,1,4.49,4.48v4.5a4.49,4.49,0,0,1-4.48,4.46Zm-4.5-9v4.51h4.5v-4.5Zm27,9H76.41a4.49,4.49,0,0,1-4.49-4.48V94.33a4.49,4.49,0,0,1,4.49-4.48H80.9a4.49,4.49,0,0,1,4.49,4.48v4.49A4.49,4.49,0,0,1,80.9,103.29Zm-4.49-9v4.5h4.5V94.33Zm0,40.45h-18a2.24,2.24,0,0,1-2.24-2.24h0V112.3a2.23,2.23,0,0,1,2.24-2.23h18a2.23,2.23,0,0,1,2.23,2.23v20.22a2.23,2.23,0,0,1-2.23,2.24Zm-15.74-4.47h13.5V114.54H60.68v15.75Zm6.75-92.12a9,9,0,0,1-9-9,2.24,2.24,0,1,1,4.47,0h0a4.5,4.5,0,1,0,4.5-4.5h0a9,9,0,1,1,9-9,2.24,2.24,0,1,1-4.48,0,4.5,4.5,0,1,0-4.5,4.51h0a9,9,0,1,1,0,18Z" style="fill:#055369"/><path d="M67.42,47.15a2.23,2.23,0,0,1-2.23-2.24V2.24a2.24,2.24,0,1,1,4.47,0h0V44.91a2.24,2.24,0,0,1-2.24,2.24ZM29.23,125.77H15.76a2.23,2.23,0,0,1-2.24-2.23h0v-18a2.23,2.23,0,0,1,2.24-2.23H29.23a2.23,2.23,0,0,1,2.24,2.23v18a2.23,2.23,0,0,1-2.24,2.23ZM18,121.3h9V107.8H18ZM29.23,98.82H15.76a2.24,2.24,0,0,1-2.24-2.24h0V83.1a2.23,2.23,0,0,1,2.24-2.23H29.23a2.23,2.23,0,0,1,2.24,2.23V96.58a2.24,2.24,0,0,1-2.24,2.24ZM18,94.34h9v-9H18Zm91.68,31.43h-4.06a2.23,2.23,0,0,1-2.24-2.23v-18a2.23,2.23,0,0,1,2.24-2.23h13.48a2.23,2.23,0,0,1,2.23,2.23v2.27l-4.47,6.88V107.8h-9v13.5h4.72l-2.9,4.47Zm9.42-26.95H105.61a2.24,2.24,0,0,1-2.24-2.24h0V83.1a2.23,2.23,0,0,1,2.24-2.23h13.48a2.23,2.23,0,0,1,2.23,2.23V96.58a2.23,2.23,0,0,1-2.23,2.24Zm-11.24-4.48h9v-9h-9Z" style="fill:#055369"/><path d="M162.66,43.41,50.78,214.84" style="fill:none;stroke:#055369;stroke-linecap:round;stroke-width:5px"/><path d="M182.09,229.27H154.84l2.66-12.48h21.93ZM117,137.7H220v79.09H117Z" style="fill:#e0dfe3"/><path d="M118.61,139.37h99.7v62.82h-99.7Z" style="fill:#25b9e6;stroke:#055369;stroke-width:2.765000104904175px"/><ellipse cx="168.46" cy="208.63" rx="2.82" ry="2.83" style="fill:#055369"/><path d="M133.07,140.37h70.62v49.71H133.07Z" style="fill:#fff"/><path d="M221.64,218.45V136H115.3v82.41h40.21l-2,9.16h-3.32v3.33h36.56v-3.33h-3.33l-2-9.16Zm-64.8,9.16,2-9.16h19.28l2,9.16Zm-38.22-88.24h12.79v53.07h74V139.37h13v75.75h-99.7Z" style="fill:#055369"/><path d="M153.18,207h3.32v3.33h-3.32Zm27.25,0h3.32v3.33h-3.32Z" style="fill:#055369"/><path d="M144.54,150H177.1v3.33H144.54Zm37.71,0h10.14v3.33H182.25Zm-25.09,11.83h35.23v3.33H157.16Zm-12.62,0h7.31v3.33h-7.31Z" style="fill:#193651"/><path d="M131.92,130h72.92v61.28H131.92Z" style="fill:#9382bd"/><path d="M137.8,135.87H199v49.5H137.8Zm-5.88-17.67h72.92V130H131.92Z" style="fill:#f9f9fa"/><path d="M130.74,117v75.42H206V117Zm72.93,73.06H133.1V131.16h70.56v58.92ZM133.1,128.81v-9.43h70.56v9.43Z" style="fill:#055369"/><path d="M137.8,122.91h2.35v2.36H137.8Zm6.94,0h2.35v2.36h-2.35Zm6.94,0H154v2.36h-2.35Z" style="fill:#055369"/><path d="M144.74,150.55H170v14.68H144.74ZM157.37,141H192.6v4.14H157.37Zm-12.63,0h7.31v4.14h-7.31Z" style="fill:none;stroke:#010101;stroke-width:2.0739998817443848px"/><path d="M248.89,202.14a7.81,7.81,0,0,1-1.44-.14,14.81,14.81,0,0,0,.34-3.18,3.32,3.32,0,0,0-6.63,0c0,1.82,1.45,3.54,3.53,4.56a9.29,9.29,0,0,1-1.1,1.91c-2.7-4.48-7.94-7.89-14.35-9.2a7.81,7.81,0,0,0,2.29-2.84,7.74,7.74,0,1,0-7.31-11,7.7,7.7,0,0,0-4.72,13.52,25.88,25.88,0,0,0-10.13,3.56,7.62,7.62,0,0,0-4.7-1.61,1.11,1.11,0,0,0-1.1,1.11,7.67,7.67,0,0,0,1.32,4.3,14.68,14.68,0,0,0-3.07,5.66h-.47a4.44,4.44,0,0,0-4.43,4.44,7.06,7.06,0,0,0,3.34,6l7.72,4.82v5.78a1.1,1.1,0,0,0,1.1,1.1h4.43a1.08,1.08,0,0,0,1-.61l1.31-2.62a29.44,29.44,0,0,0,15.31,0l1.31,2.62a1.1,1.1,0,0,0,1,.61h4.43a1.11,1.11,0,0,0,1.11-1.1V224c4.22-3.12,6.63-7.41,6.63-11.86a12.72,12.72,0,0,0-.9-4.64,11.52,11.52,0,0,0,2.11-3.34,9.31,9.31,0,0,0,2.1.22,1.11,1.11,0,1,0,0-2.21Zm-3.53-.91a3.41,3.41,0,0,1-2-2.41,1.11,1.11,0,1,1,2.21-.09v.09a13,13,0,0,1-.23,2.41Z" style="fill:#055369;stroke:#055369"/><ellipse cx="231.2" cy="185.53" rx="5.53" ry="5.54" style="fill:#ffd168"/><path d="M219,190a5.55,5.55,0,0,1,4.52-5.43,8.26,8.26,0,0,0-.09,1,7.56,7.56,0,0,0,.18,1.64,1,1,0,0,0-.18.57v4.43a1.11,1.11,0,1,0,2.21.11v-1.34a7.77,7.77,0,0,0,3.48,2A5.5,5.5,0,0,1,219,190Z" style="fill:#ffcb2a"/><path d="M219,190a5.55,5.55,0,0,1,4.52-5.43,8.26,8.26,0,0,0-.09,1,7.56,7.56,0,0,0,.18,1.64,1,1,0,0,0-.18.57v4.43a1.11,1.11,0,1,0,2.21.11v-1.34a7.77,7.77,0,0,0,3.48,2A5.5,5.5,0,0,1,219,190Z" style="fill:#ffd168"/><path d="M225.68,190.94v1.23a1.11,1.11,0,0,1-2.21.09.14.14,0,0,1,0-.09v-4.43a1,1,0,0,1,.18-.57,7.56,7.56,0,0,1-.18-1.64,8.26,8.26,0,0,1,.09-1,5.43,5.43,0,0,0-1.86.73,7.45,7.45,0,0,0-.45,2.48,7.84,7.84,0,0,0,5.35,7.36,5.54,5.54,0,0,0,2.56-2.13,7.77,7.77,0,0,1-3.48-2Z" style="fill:#faa220;opacity:0.38999998569488525;isolation:isolate"/><path d="M231.2,188.85a1.11,1.11,0,0,0,1.11-1.11v-4.43a1.11,1.11,0,1,0-2.21-.09v4.52A1.11,1.11,0,0,0,231.2,188.85Z" style="fill:#055369"/><path d="M237.22,222.49a1.12,1.12,0,0,0-.48.91v5.33H234.1l-1.42-2.84a1.09,1.09,0,0,0-1.32-.56,27,27,0,0,1-15.78,0,1.09,1.09,0,0,0-1.32.56l-1.42,2.84H210.2v-5.28a1.1,1.1,0,0,0-.52-.94l-8.24-5.15a4.85,4.85,0,0,1-2.29-4.14,2.22,2.22,0,0,1,2.21-2.21h1.34a1.09,1.09,0,0,0,1.08-.89,12.51,12.51,0,0,1,3.35-6.16,1.11,1.11,0,0,0,0-1.5,5.47,5.47,0,0,1-1.25-2.38,5.45,5.45,0,0,1,2.59,1.43,1.12,1.12,0,0,0,1.39.12,24.31,24.31,0,0,1,13.57-3.91c11,0,19.9,6.45,19.9,14.4C243.37,216.05,241.18,219.73,237.22,222.49Z" style="fill:#fdd2b1"/><path d="M237.22,222.49a1.12,1.12,0,0,0-.48.91v5.33H234.1l-1.42-2.84a1.09,1.09,0,0,0-1.32-.56,27,27,0,0,1-15.78,0,1.09,1.09,0,0,0-1.32.56l-1.42,2.84H210.2v-5.28a1.1,1.1,0,0,0-.52-.94l-8.24-5.15a4.85,4.85,0,0,1-2.29-4.14,2.22,2.22,0,0,1,2.21-2.21h1.34a1.09,1.09,0,0,0,1.08-.89,12.51,12.51,0,0,1,3.35-6.16,1.11,1.11,0,0,0,0-1.5,5.47,5.47,0,0,1-1.25-2.38,5.45,5.45,0,0,1,2.59,1.43,1.12,1.12,0,0,0,1.39.12,24.31,24.31,0,0,1,13.57-3.91c11,0,19.9,6.45,19.9,14.4C243.37,216.05,241.18,219.73,237.22,222.49Z" style="fill:#25b9e6"/><path d="M208,206.57a2.22,2.22,0,1,0,2,1.37A2.22,2.22,0,0,0,208,206.57Z" style="fill:#055369"/><path d="M207.13,203.94c-.2.22-.38.46-.58.69a34.29,34.29,0,0,1,15.81-3.6c8.23,0,15.49,2.51,19.89,6.36-2.7-5.62-10.1-9.69-18.78-9.69a24.31,24.31,0,0,0-13.57,3.91,1.09,1.09,0,0,1-1.39-.12,5.53,5.53,0,0,0-2.59-1.43,5.47,5.47,0,0,0,1.25,2.38A1.12,1.12,0,0,1,207.13,203.94Z" style="fill:#fff;opacity:0.20000000298023224;isolation:isolate"/><path d="M221.81,223.19a40.8,40.8,0,0,1-15.86-3l3.73,2.32a1.13,1.13,0,0,1,.52.95v5.28h2.63l1.42-2.84a1.11,1.11,0,0,1,1.32-.57,26.89,26.89,0,0,0,15.79,0,1.11,1.11,0,0,1,1.32.57l1.42,2.84h2.64V223.4a1.11,1.11,0,0,1,.47-.91,16,16,0,0,0,4.28-4.31c-4.77,3.06-11.81,5-19.68,5Z" style="fill:#010101;opacity:0.10000000149011612;isolation:isolate"/><path d="M231.55,201.09a29.24,29.24,0,0,0-16.17,0,1.11,1.11,0,0,0,.69,2.11,26.94,26.94,0,0,1,14.79,0,1.12,1.12,0,0,0,1.4-.71c0-.05,0-.11,0-.17a1.1,1.1,0,0,0-.75-1.23Z" style="fill:#055369"/><path d="M184,166.21a7.14,7.14,0,1,0,5,2.09A7.14,7.14,0,0,0,184,166.21Z" style="fill:#fff;fill-rule:evenodd"/><path d="M183.77,165.05a8.09,8.09,0,1,0,5.72,2.37A8.1,8.1,0,0,0,183.77,165.05Zm2.8,10.64-2.08,2.11a1,1,0,0,1-.71.3,1,1,0,0,1-.71-.3L181,175.69a1,1,0,0,1,0-1.43h0a.55.55,0,0,1,.78,0h0l1.05,1.07a1.32,1.32,0,0,0,1.87,0l0,0,1.06-1.07a.54.54,0,0,1,.78,0h0a1,1,0,0,1,0,1.43h0Zm2.19-3.38a.55.55,0,0,1-.39.16.48.48,0,0,1-.37-.15l-1-1a1.26,1.26,0,0,0-.9-.38,1.31,1.31,0,0,0-.93.39l-1,1a.52.52,0,0,1-.5.15.47.47,0,0,1-.29-.14l-1-1a1.25,1.25,0,0,0-.9-.37,1.31,1.31,0,0,0-.93.39l-1,1a.54.54,0,0,1-.75,0,1,1,0,0,1,0-1.39l2-2.05a.94.94,0,0,1,1.36,0l1.63,1.67,1.67-1.69a.94.94,0,0,1,.69-.29.91.91,0,0,1,.68.28l2,2a1,1,0,0,1,0,1.38Z" style="fill:#067997"/></svg>