<svg width="145" height="138" viewBox="0 0 145 138" fill="none" xmlns="http://www.w3.org/2000/svg">
<path d="M24 118.88H76" stroke="#E1E5E9" stroke-width="3" stroke-linecap="round" stroke-linejoin="round"/>
<path d="M101 118.88H113" stroke="#E1E5E9" stroke-width="3" stroke-linecap="round" stroke-linejoin="round"/>
<path d="M90 111.19V115.88H55V111.19C59.32 111.19 58.14 106.5 59.49 97.8799H85.49C86.86 107.11 85.68 111.19 90 111.19Z" fill="#D8D8D8" stroke="#163050" stroke-width="3" stroke-linecap="round" stroke-linejoin="round"/>
<path opacity="0.4" d="M2 45.4797V38.2197" stroke="#B5BFC7" stroke-width="3" stroke-linecap="round" stroke-linejoin="round"/>
<path opacity="0.4" d="M143 36.8799V49.3799" stroke="#B5BFC7" stroke-width="3" stroke-linecap="round" stroke-linejoin="round"/>
<path opacity="0.4" d="M2 26.88V15.12C2.00224 12.3206 2.8284 9.58375 4.37548 7.25068C5.92257 4.9176 8.12214 3.0915 10.7 2" stroke="#B5BFC7" stroke-width="3" stroke-linecap="round" stroke-linejoin="round"/>
<path d="M127.76 6.87988H17.24C12.1369 6.87988 8 11.0168 8 16.1199V91.6399C8 96.743 12.1369 100.88 17.24 100.88H127.76C132.863 100.88 137 96.743 137 91.6399V16.1199C137 11.0168 132.863 6.87988 127.76 6.87988Z" fill="#C3ADFA" stroke="#163050" stroke-width="3" stroke-linecap="round" stroke-linejoin="round"/>
<path d="M137 85.8799V91.6399C137 94.0905 136.027 96.4407 134.294 98.1735C132.561 99.9064 130.211 100.88 127.76 100.88H17.24C14.7894 100.88 12.4392 99.9064 10.7063 98.1735C8.9735 96.4407 8 94.0905 8 91.6399V85.8799H137Z" fill="#D8D8D8" stroke="#163050" stroke-width="3" stroke-linecap="round" stroke-linejoin="round"/>
<path d="M91.1601 56.72C88.3939 59.4862 86.8398 63.2379 86.8398 67.15C86.8398 71.062 88.3939 74.8137 91.1601 77.58C93.9263 80.3462 97.6781 81.9002 101.59 81.9002C105.502 81.9002 109.254 80.3462 112.02 77.58L118.5 71.38C127.63 62.58 106.7 41.81 97.6401 50.52L91.1601 56.72Z" fill="#BC97FF"/>
<path d="M57 110.88H88" stroke="#163050" stroke-width="3" stroke-linecap="round" stroke-linejoin="round"/>
<path d="M97 9.87988H20V77.8799H97V9.87988Z" fill="#BC97FF"/>
<path d="M111 2.87988H30V70.8799H111V2.87988Z" fill="white"/>
<path opacity="0.2" d="M110 46.2597V70.8797H91.5C90.0736 68.1031 89.5655 64.9453 90.0489 61.8614C90.5324 58.7775 91.9824 55.9267 94.1901 53.7197L100.63 47.5697C103.12 45.1497 106.55 45.0097 110 46.2597Z" fill="#163050"/>
<path d="M111 2.87988H30V70.8799H111V2.87988Z" stroke="#163050" stroke-width="3" stroke-linecap="round" stroke-linejoin="round"/>
<path opacity="0.2" d="M30 13.8799H111" stroke="#163050" stroke-width="3" stroke-linecap="round" stroke-linejoin="round"/>
<path opacity="0.2" d="M38.5 6.37988H34.5V10.3799H38.5V6.37988Z" fill="#163050"/>
<path opacity="0.2" d="M43.5 6.37988H39.5V10.3799H43.5V6.37988Z" fill="#163050"/>
<path opacity="0.2" d="M48.5 6.37988H44.5V10.3799H48.5V6.37988Z" fill="#163050"/>
<path opacity="0.2" d="M102 27.8799H54V36.8799H102V27.8799Z" fill="white" stroke="#163050" stroke-width="3" stroke-linecap="round" stroke-linejoin="round"/>
<path opacity="0.2" d="M49 27.8799H39V36.8799H49V27.8799Z" fill="white" stroke="#163050" stroke-width="3" stroke-linecap="round" stroke-linejoin="round"/>
<path opacity="0.2" d="M48.52 58.8799H74.5M38 45.8799H81.5H38ZM38 52.8799H52.73H38ZM56.24 52.8799H62.55H56.24ZM67.46 52.8799H70.27H67.46ZM38 58.8799H42.91H38Z" stroke="#163050" stroke-width="3" stroke-linecap="round" stroke-linejoin="round"/>
<path d="M107.86 72.6101C114.846 72.6101 120.51 66.9465 120.51 59.9601C120.51 52.9737 114.846 47.3101 107.86 47.3101C100.874 47.3101 95.21 52.9737 95.21 59.9601C95.21 66.9465 100.874 72.6101 107.86 72.6101Z" fill="#007FC6"/>
<path d="M99.99 58.7L103.65 55.04L107.86 59.26L112.08 55.04L115.86 58.82" stroke="white" stroke-width="3" stroke-linecap="round" stroke-linejoin="round"/>
<path d="M103.78 63.3599L107.86 67.0499L112.04 63.3599" stroke="white" stroke-width="3" stroke-linecap="round" stroke-linejoin="round"/>
<path d="M107.86 47.3101C110.362 47.3101 112.808 48.052 114.888 49.442C116.968 50.832 118.59 52.8076 119.547 55.1191C120.504 57.4306 120.755 59.9741 120.267 62.428C119.779 64.8818 118.574 67.1358 116.805 68.905C115.036 70.6741 112.782 71.8789 110.328 72.367C107.874 72.8551 105.331 72.6046 103.019 71.6471C100.708 70.6897 98.7319 69.0683 97.3419 66.988C95.9519 64.9077 95.21 62.462 95.21 59.9601C95.21 56.6051 96.5427 53.3875 98.9151 51.0152C101.287 48.6428 104.505 47.3101 107.86 47.3101ZM107.86 44.3101C104.764 44.3081 101.738 45.2243 99.1626 46.9427C96.5876 48.6611 94.5802 51.1046 93.3941 53.9641C92.2081 56.8236 91.8967 59.9706 92.4994 63.0071C93.1022 66.0436 94.5919 68.833 96.7802 71.0227C98.9685 73.2124 101.757 74.7039 104.793 75.3086C107.829 75.9133 110.976 75.6039 113.837 74.4197C116.697 73.2355 119.142 71.2296 120.862 68.6558C122.582 66.0819 123.5 63.0558 123.5 59.9601C123.495 55.811 121.844 51.8335 118.91 48.8997C115.977 45.9659 111.999 44.3154 107.85 44.3101H107.86Z" fill="#163050"/>
<path opacity="0.2" d="M101.25 133.04C101.25 135.25 95.54 137.19 88.5 137.38C81.46 137.57 75.75 135.93 75.75 133.72C75.75 131.51 81.5 129.57 88.5 129.38C95.5 129.19 101.25 130.83 101.25 133.04Z" fill="#163050"/>
<path opacity="0.2" d="M124.5 131.38C131.68 131.38 137.5 129.589 137.5 127.38C137.5 125.171 131.68 123.38 124.5 123.38C117.32 123.38 111.5 125.171 111.5 127.38C111.5 129.589 117.32 131.38 124.5 131.38Z" fill="#163050"/>
<path d="M140.78 109.38C139.537 107.011 137.496 105.159 135.018 104.152C132.539 103.145 129.785 103.048 127.242 103.879C124.699 104.709 122.533 106.413 121.126 108.689C119.72 110.964 119.165 113.664 119.56 116.31L111 120.82V125.82H114V127.73L123.07 122.94C125.033 124.733 127.564 125.778 130.22 125.893C132.876 126.009 135.488 125.186 137.599 123.57C139.71 121.954 141.185 119.647 141.766 117.053C142.348 114.459 141.999 111.743 140.78 109.38ZM102 120L93.8201 124.31C82.5001 131.12 74.5001 117.08 86.6301 110.66L88.7301 109.55L92.2401 116.23L103.58 93.23L83.1001 103.98C62.8601 114.66 76.6801 141.92 97.3501 130.98L105 126.98V122.88H102V120Z" fill="#FFD166" stroke="#163150" stroke-width="3" stroke-linecap="round" stroke-linejoin="round"/>
<path d="M131.01 118.88C130.514 118.881 130.022 118.789 129.56 118.61C128.654 118.281 127.905 117.624 127.46 116.77C127.003 115.926 126.881 114.94 127.12 114.01C127.244 113.456 127.487 112.935 127.832 112.484C128.178 112.034 128.617 111.664 129.12 111.4C129.577 111.153 130.079 110.999 130.597 110.948C131.114 110.897 131.636 110.949 132.133 111.102C132.63 111.255 133.092 111.504 133.491 111.837C133.891 112.17 134.22 112.579 134.46 113.04C134.71 113.508 134.865 114.022 134.915 114.551C134.964 115.08 134.908 115.613 134.75 116.12C134.492 116.917 133.991 117.614 133.316 118.111C132.641 118.608 131.828 118.88 130.99 118.89L131.01 118.88Z" fill="white"/>
<path d="M131 112.38C131.444 112.381 131.879 112.504 132.258 112.735C132.637 112.966 132.946 113.296 133.15 113.69C133.308 113.983 133.406 114.304 133.439 114.636C133.472 114.967 133.438 115.302 133.34 115.62C133.245 115.927 133.088 116.212 132.88 116.458C132.672 116.703 132.417 116.905 132.13 117.05C131.789 117.235 131.408 117.331 131.02 117.33C130.705 117.328 130.393 117.267 130.1 117.15C129.536 116.948 129.068 116.541 128.79 116.01C128.512 115.496 128.437 114.896 128.58 114.33V114.24C128.659 113.903 128.81 113.588 129.025 113.316C129.239 113.045 129.511 112.824 129.82 112.67C130.177 112.479 130.575 112.38 130.98 112.38H131ZM130.98 109.38C130.084 109.379 129.201 109.599 128.41 110.02C127.474 110.504 126.699 111.249 126.178 112.164C125.657 113.08 125.412 114.127 125.473 115.178C125.534 116.23 125.899 117.241 126.524 118.09C127.148 118.938 128.004 119.588 128.99 119.96C129.627 120.21 130.306 120.339 130.99 120.34C131.877 120.341 132.75 120.121 133.53 119.7C134.599 119.122 135.447 118.207 135.94 117.096C136.432 115.985 136.543 114.742 136.253 113.562C135.964 112.382 135.291 111.331 134.341 110.574C133.39 109.817 132.215 109.397 131 109.38H130.98Z" fill="#163150"/>
<path d="M41 125.88H62" stroke="#E1E5E9" stroke-width="3" stroke-linecap="round" stroke-linejoin="round"/>
</svg>
