<svg xmlns="http://www.w3.org/2000/svg" width="62" height="68" viewBox="0 0 62 68">
    <g fill="none" fill-rule="evenodd" transform="translate(1 2)">
        <path stroke="#B5BFC7" stroke-linecap="round" stroke-linejoin="round" stroke-width="2.667" d="M12 10.347l5.333-4.654.16-.133A23.28 23.28 0 0 1 32.4.24a25.333 25.333 0 0 1 14.667 4.813" opacity=".4"/>
        <path fill="#1EB8E7" fill-rule="nonzero" stroke="#163150" stroke-linecap="round" stroke-linejoin="round" stroke-width="2.667" d="M54.667 24.2l-3.147-.48C50.507 6.827 31.52.8 20.853 9.6L2.667 25.733A4.76 4.76 0 0 0 4.96 34.08l3.04.587A19.187 19.187 0 0 0 21.2 52.48a17.733 17.733 0 0 0 16.427-2.667L52.44 36.667l4.653-4.12a4.787 4.787 0 0 0-2.426-8.347z"/>
        <path fill="#FFF" fill-rule="nonzero" d="M27.213 48.253C19.467 48.253 11.4 42.173 13 30.6l-4.787-.8a1.187 1.187 0 0 1-.573-2.08l10.747-9.053a1.333 1.333 0 0 1 2 .306L28 31.067a1.187 1.187 0 0 1-1.2 1.813l-4.827-.8c-1.24 6.747 2.094 13.693 9.334 13.693a14.667 14.667 0 0 0 4.68-.84 13.08 13.08 0 0 1-8.774 3.32zM39.44 39.52l-7.907-12.067a1.133 1.133 0 0 1 1.12-1.746l4.96.746c1.147-6.666-2.24-13.546-9.453-13.546a14.48 14.48 0 0 0-4.813.88 13.187 13.187 0 0 1 9.066-3.44c7.68 0 15.694 5.96 14.267 17.466l4.893.747a1.133 1.133 0 0 1 .574 1.987L41.48 39.813a1.333 1.333 0 0 1-2.027-.293h-.013z"/>
        <path fill="#003C77" fill-rule="nonzero" d="M52.48 36.653L37.667 49.8a17.733 17.733 0 0 1-16.427 2.667c.058-.175.139-.34.24-.494L39.427 23.84a2.88 2.88 0 0 1 4.84 0l8.213 12.813z" opacity=".2"/>
        <path stroke="#B5BFC7" stroke-linecap="round" stroke-linejoin="round" stroke-width="2.667" d="M29.907 63.827c-2.414-.414-4.68-1.6-4.68-4A14.413 14.413 0 0 1 14.667 56" opacity=".4"/>
        <path fill="#FFC835" fill-rule="nonzero" d="M32.667 57.667a4.2 4.2 0 0 1-3.64-6.307l9.853-17.067a4.2 4.2 0 0 1 7.28 0L56 51.36a4.2 4.2 0 0 1-3.64 6.307H32.667z"/>
        <path fill="#163150" fill-rule="nonzero" d="M42.507 33.533a2.84 2.84 0 0 1 2.48 1.44L54.853 52a2.867 2.867 0 0 1-2.48 4.307H32.667A2.867 2.867 0 0 1 30.173 52L40 34.973a2.84 2.84 0 0 1 2.48-1.44h.027zm-.027-2.666a5.48 5.48 0 0 0-4.8 2.773l-9.813 17.027a5.533 5.533 0 0 0 4.8 8.306H52.36a5.533 5.533 0 0 0 4.8-8.306L47.307 33.6a5.48 5.48 0 0 0-4.8-2.773l-.027.04z"/>
        <path fill="#FFF" fill-rule="nonzero" d="M42.88 48h-.867l-1.68-9.333h4.24z"/>
        <circle cx="42.507" cy="52.667" r="2.333" fill="#FFF" fill-rule="nonzero"/>
    </g>
</svg>
