<?xml version="1.0" encoding="UTF-8"?>
<svg width="64px" height="64px" viewBox="0 0 64 64" version="1.1" xmlns="http://www.w3.org/2000/svg" xmlns:xlink="http://www.w3.org/1999/xlink">
    <!-- Generator: Sketch 49.3 (51167) - http://www.bohemiancoding.com/sketch -->
    <title>Artboard</title>
    <desc>Created with Sketch.</desc>
    <defs></defs>
    <g id="Artboard" stroke="none" stroke-width="1" fill="none" fill-rule="evenodd">
        <path d="M32,62 C15.4314575,62 2,48.5685425 2,32 C2,15.4314575 15.4314575,2 32,2 C48.5685425,2 62,15.4314575 62,32 C62,48.5685425 48.5685425,62 32,62 Z M34.0305046,7.95922852 C28.4869979,8.0945438 23.5325322,9.77233385 19.1671077,12.9925987 C12.618971,17.8229959 9.73593449,24.5563465 9.65102015,33 C9.57046323,41.010364 13.0671678,47.3752487 19.1671077,52.0795127 C23.2337344,55.2156888 28.1882,56.8711029 34.0305046,57.0457551 C25.8112663,48.1716906 21.7016472,39.5294858 21.7016472,31.1191406 C21.7016472,22.7087955 25.8112663,14.9888248 34.0305046,7.95922852 Z" id="Combined-Shape" fill="#000000"></path>
    </g>
</svg>