<svg width="314" height="221" viewBox="0 0 314 221" fill="none" xmlns="http://www.w3.org/2000/svg">
<path d="M138.44 187.5C209.91 144 309.91 4.00008 249.11 4.00008C204.2 4.00008 149.47 85.8648 110 85.8648C70.5301 85.8648 25 67 25 103C20.0002 151 -10.0895 277.88 138.44 187.5Z" fill="#A682FF" fill-opacity="0.6146"/>
<path d="M27 175C41.3594 175 53 163.359 53 149C53 134.641 41.3594 123 27 123C12.6406 123 1 134.641 1 149C1 163.359 12.6406 175 27 175Z" fill="#78E1F2"/>
<path d="M237 90.0522H71V184.052H237V90.0522Z" fill="#D8D8D8"/>
<path opacity="0.1" d="M229.5 99.5522H79.5V120.552H229.5V99.5522Z" fill="#163050"/>
<path d="M260 50.0522H49C46.7909 50.0522 45 51.8431 45 54.0522V82.0522C45 84.2614 46.7909 86.0522 49 86.0522H260C262.209 86.0522 264 84.2614 264 82.0522V54.0522C264 51.8431 262.209 50.0522 260 50.0522Z" fill="white" stroke="#163050" stroke-width="3" stroke-linecap="round" stroke-linejoin="round"/>
<path d="M54 86.0522H255V95.0522C255 96.1131 254.579 97.1305 253.828 97.8807C253.078 98.6308 252.061 99.0522 251 99.0522H58C56.9391 99.0522 55.9217 98.6308 55.1716 97.8807C54.4214 97.1305 54 96.1131 54 95.0522V86.0522Z" fill="white" stroke="#163050" stroke-width="3" stroke-linecap="round" stroke-linejoin="round"/>
<path d="M58 178.052H251C252.061 178.052 253.078 178.474 253.828 179.224C254.579 179.974 255 180.991 255 182.052V196.052H54V182.052C54 180.991 54.4214 179.974 55.1716 179.224C55.9217 178.474 56.9391 178.052 58 178.052Z" fill="white" stroke="#163050" stroke-width="3" stroke-linecap="round" stroke-linejoin="round"/>
<path d="M245.5 49.9523H62.5L79.29 41.0523L148.9 4.16229C150.347 3.39864 151.959 2.99951 153.595 2.99951C155.231 2.99951 156.843 3.39864 158.29 4.16229L228.55 41.0623L245 49.7023L245.5 49.9523Z" fill="#D8D8D8" stroke="#163050" stroke-width="3" stroke-linecap="round" stroke-linejoin="round"/>
<path d="M80 99.0522H63V178.052H80V99.0522Z" fill="white" stroke="#163050" stroke-width="3" stroke-linecap="round" stroke-linejoin="round"/>
<path d="M129 99.0522H112V178.052H129V99.0522Z" fill="white" stroke="#163050" stroke-width="3" stroke-linecap="round" stroke-linejoin="round"/>
<path d="M197 99.0522H180V178.052H197V99.0522Z" fill="white" stroke="#163050" stroke-width="3" stroke-linecap="round" stroke-linejoin="round"/>
<path d="M15.14 200.464L20.09 205.414L15.14 210.364L20.09 215.314L15.14 220.264L10.19 215.314L5.24004 220.264L0.290039 215.314L5.24004 210.364L0.290039 205.414L5.24004 200.464L10.19 205.414L15.14 200.464Z" fill="#FFD167"/>
<path d="M246 99.0522H229V178.052H246V99.0522Z" fill="white" stroke="#163050" stroke-width="3" stroke-linecap="round" stroke-linejoin="round"/>
<path d="M202.08 80.5522C201.847 80.5522 201.617 80.498 201.409 80.3939C201.201 80.2897 201.02 80.1385 200.88 79.9522L196.74 74.4622V79.0522C196.74 79.4501 196.582 79.8316 196.301 80.1129C196.019 80.3942 195.638 80.5522 195.24 80.5522H188.24C187.842 80.5522 187.461 80.3942 187.179 80.1129C186.898 79.8316 186.74 79.4501 186.74 79.0522V58.0522C186.74 57.6544 186.898 57.2729 187.179 56.9916C187.461 56.7103 187.842 56.5522 188.24 56.5522H195.24C195.638 56.5522 196.019 56.7103 196.301 56.9916C196.582 57.2729 196.74 57.6544 196.74 58.0522V61.7822L201.03 57.0422C201.171 56.8878 201.342 56.7644 201.533 56.68C201.724 56.5956 201.931 56.5521 202.14 56.5522H209.85C210.141 56.5521 210.425 56.6364 210.669 56.795C210.913 56.9536 211.105 57.1796 211.223 57.4456C211.34 57.7115 211.378 58.0059 211.331 58.293C211.285 58.58 211.156 58.8473 210.96 59.0622L203.39 67.3822L211.5 78.1322C211.667 78.3551 211.769 78.6201 211.794 78.8975C211.819 79.175 211.766 79.4539 211.642 79.7031C211.517 79.9522 211.325 80.1618 211.089 80.3082C210.852 80.4547 210.579 80.5322 210.3 80.5322L202.08 80.5522ZM173.84 80.5522C173.62 80.5519 173.404 80.5033 173.205 80.41C173.006 80.3167 172.83 80.1809 172.69 80.0123L167.36 73.6422V79.0522C167.36 79.4501 167.202 79.8316 166.921 80.1129C166.639 80.3942 166.258 80.5522 165.86 80.5522H158.96C158.562 80.5522 158.181 80.3942 157.899 80.1129C157.618 79.8316 157.46 79.4501 157.46 79.0522V58.0522C157.46 57.6544 157.618 57.2729 157.899 56.9916C158.181 56.7103 158.562 56.5522 158.96 56.5522H164.78C164.999 56.5526 165.216 56.6012 165.415 56.6945C165.614 56.7878 165.789 56.9236 165.93 57.0922L171.26 63.4623V58.0522C171.26 57.6544 171.418 57.2729 171.699 56.9916C171.981 56.7103 172.362 56.5522 172.76 56.5522H179.66C180.058 56.5522 180.439 56.7103 180.721 56.9916C181.002 57.2729 181.16 57.6544 181.16 58.0522V79.0522C181.16 79.4501 181.002 79.8316 180.721 80.1129C180.439 80.3942 180.058 80.5522 179.66 80.5522H173.84ZM144.3 80.5522C143.992 80.5493 143.693 80.4518 143.442 80.2729C143.192 80.094 143.003 79.8424 142.9 79.5522L141.9 76.8522H135.98L134.98 79.5522C134.877 79.8424 134.688 80.094 134.438 80.2729C134.187 80.4518 133.888 80.5493 133.58 80.5522H126.38C126.131 80.5515 125.887 80.4889 125.668 80.3701C125.45 80.2513 125.264 80.0801 125.128 79.8718C124.993 79.6636 124.911 79.4248 124.89 79.177C124.869 78.9292 124.91 78.6801 125.01 78.4522L134.19 57.4522C134.302 57.1946 134.484 56.9736 134.716 56.8145C134.948 56.6554 135.219 56.5645 135.5 56.5522H142.5C142.791 56.5532 143.075 56.6388 143.319 56.7986C143.562 56.9584 143.754 57.1855 143.87 57.4522L153.05 78.4522C153.149 78.6801 153.191 78.9292 153.17 79.177C153.149 79.4248 153.067 79.6636 152.931 79.8718C152.796 80.0801 152.61 80.2513 152.392 80.3701C152.173 80.4889 151.929 80.5515 151.68 80.5522H144.3ZM99.1899 80.5522C98.7921 80.5522 98.4106 80.3942 98.1293 80.1129C97.848 79.8316 97.6899 79.4501 97.6899 79.0522V58.0522C97.6899 57.6544 97.848 57.2729 98.1293 56.9916C98.4106 56.7103 98.7921 56.5522 99.1899 56.5522H110.41C113.55 56.5522 115.91 57.1322 117.61 58.3222C118.477 58.8897 119.187 59.6662 119.674 60.5803C120.162 61.4943 120.411 62.5164 120.4 63.5522C120.403 64.771 120.056 65.9651 119.4 66.9922C119.201 67.3091 118.973 67.607 118.72 67.8822C119.211 68.2528 119.652 68.6865 120.03 69.1722C120.924 70.3494 121.393 71.7946 121.36 73.2722C121.381 74.3733 121.115 75.4609 120.589 76.4285C120.063 77.3961 119.295 78.2106 118.36 78.7923C116.57 79.9823 114.14 80.5622 110.93 80.5622L99.1899 80.5522ZM109.5 64.5522C109.728 64.5568 109.956 64.5367 110.18 64.4922C109.956 64.4475 109.728 64.4274 109.5 64.4322H107.7V64.5522H109.5Z" fill="#FFD167"/>
<path d="M209.85 58.0322L201.45 67.2722L210.27 79.0322H202.08L196.83 72.0322L195.24 73.8022V78.9922H188.24V57.9922H195.24V65.6122L202.14 57.9922H209.85V58.0322ZM179.66 57.9922V78.9922H173.84L165.84 69.4522V78.9922H158.94V57.9922H164.76L172.76 67.5322V57.9922H179.66ZM142.44 57.9922L151.62 78.9922H144.3L142.89 75.3322H134.89L133.5 79.0322H126.3L135.48 58.0322H142.48L142.44 57.9922ZM136.9 70.2722H140.98L138.98 64.9922L136.98 70.2722H136.9ZM110.53 58.0322C113.33 58.0322 115.443 58.5322 116.87 59.5322C117.54 59.9596 118.09 60.5516 118.466 61.2519C118.843 61.9522 119.033 62.7373 119.02 63.5322C119.035 64.464 118.781 65.3804 118.29 66.1722C117.753 66.9927 116.998 67.6473 116.11 68.0622C117.24 68.4429 118.239 69.1365 118.99 70.0622C119.677 70.9766 120.03 72.099 119.99 73.2422C120.018 74.0915 119.822 74.9332 119.422 75.6827C119.022 76.4323 118.431 77.0633 117.71 77.5122C115.703 78.6459 113.411 79.1738 111.11 79.0322H99.1899V58.0322H110.41H110.53ZM106.15 66.1022H109.5C111.04 66.1022 111.81 65.5822 111.81 64.5422C111.81 63.5022 111.04 62.9822 109.5 62.9822H106.2V66.1022H106.15ZM106.2 74.1022H110.46C112.02 74.1022 112.8 73.5522 112.8 72.4522C112.8 71.3522 112.02 70.8022 110.46 70.8022H106.2V74.1022ZM209.9 55.1022H202.19C201.771 55.1045 201.356 55.1946 200.974 55.3669C200.592 55.5391 200.25 55.7896 199.97 56.1022L198.29 57.9622C198.249 57.1946 197.915 56.4721 197.357 55.9436C196.798 55.4151 196.059 55.1211 195.29 55.1222H188.29C187.494 55.1222 186.731 55.4383 186.169 56.0009C185.606 56.5635 185.29 57.3266 185.29 58.1222V79.1222C185.29 79.9179 185.606 80.6809 186.169 81.2435C186.731 81.8061 187.494 82.1222 188.29 82.1222H195.29C196.086 82.1222 196.849 81.8061 197.411 81.2435C197.974 80.6809 198.29 79.9179 198.29 79.1222V79.0122L199.73 80.9322C200.01 81.303 200.373 81.6035 200.79 81.81C201.206 82.0165 201.665 82.1234 202.13 82.1222H210.32C210.877 82.1222 211.423 81.9671 211.897 81.6742C212.371 81.3813 212.754 80.9622 213.003 80.4639C213.252 79.9655 213.358 79.4077 213.308 78.8528C213.258 78.2979 213.054 77.7679 212.72 77.3222L205.39 67.5422L212.07 60.1922C212.474 59.7679 212.746 59.2343 212.85 58.6574C212.955 58.0806 212.888 57.4857 212.658 56.9464C212.429 56.407 212.046 55.9468 211.557 55.6226C211.069 55.2984 210.496 55.1245 209.91 55.1222L209.9 55.1022ZM179.71 55.1022H172.81C172.014 55.1022 171.251 55.4183 170.689 55.9809C170.126 56.5435 169.81 57.3066 169.81 58.1022V59.3822L167.13 56.1822C166.849 55.8449 166.497 55.5733 166.1 55.3867C165.703 55.2001 165.269 55.103 164.83 55.1022H159.01C158.214 55.1022 157.451 55.4183 156.889 55.9809C156.326 56.5435 156.01 57.3066 156.01 58.1022V79.1022C156.01 79.8979 156.326 80.6609 156.889 81.2235C157.451 81.7862 158.214 82.1022 159.01 82.1022H165.91C166.706 82.1022 167.469 81.7862 168.031 81.2235C168.594 80.6609 168.91 79.8979 168.91 79.1022V77.7522L171.59 80.9522C171.871 81.2896 172.223 81.5611 172.62 81.7477C173.017 81.9344 173.451 82.0315 173.89 82.0322H179.71C180.506 82.0322 181.269 81.7162 181.831 81.1535C182.394 80.5909 182.71 79.8279 182.71 79.0322V58.0322C182.71 57.2366 182.394 56.4735 181.831 55.9109C181.269 55.3483 180.506 55.0322 179.71 55.0322V55.1022ZM142.49 55.1022H135.49C134.906 55.1021 134.335 55.2724 133.847 55.5921C133.358 55.9118 132.973 56.3672 132.74 56.9022L123.56 77.9022C123.361 78.3588 123.278 78.8578 123.32 79.3542C123.362 79.8506 123.527 80.3288 123.8 80.7456C124.073 81.1624 124.445 81.5046 124.883 81.7415C125.321 81.9783 125.812 82.1023 126.31 82.1022H133.5C134.106 82.1025 134.698 81.9191 135.198 81.5764C135.697 81.2337 136.082 80.7476 136.3 80.1822L136.97 78.4422H140.83L141.5 80.1822C141.718 80.7476 142.102 81.2337 142.602 81.5764C143.102 81.9191 143.694 82.1025 144.3 82.1022H151.62C152.118 82.1023 152.608 81.9783 153.047 81.7415C153.485 81.5046 153.857 81.1624 154.13 80.7456C154.403 80.3288 154.568 79.8506 154.61 79.3542C154.652 78.8578 154.569 78.3588 154.37 77.9022L145.19 56.9022C144.956 56.3672 144.572 55.9118 144.083 55.5921C143.595 55.2724 143.024 55.1021 142.44 55.1022H142.49ZM110.49 55.1022H99.1899C98.3943 55.1022 97.6312 55.4183 97.0686 55.9809C96.506 56.5435 96.1899 57.3066 96.1899 58.1022V79.1022C96.1899 79.8979 96.506 80.6609 97.0686 81.2235C97.6312 81.7862 98.3943 82.1022 99.1899 82.1022H111.01C114.53 82.1022 117.23 81.4422 119.27 80.1022C120.406 79.3817 121.336 78.3797 121.971 77.1934C122.605 76.0072 122.922 74.677 122.89 73.3322C122.92 71.5271 122.338 69.765 121.24 68.3322C121.087 68.1389 120.927 67.9489 120.76 67.7622C121.53 66.495 121.926 65.0351 121.9 63.5522C121.916 62.2766 121.612 61.0174 121.014 59.8903C120.416 58.7633 119.545 57.8045 118.48 57.1022C116.48 55.7322 113.88 55.1022 110.42 55.1022H110.49Z" fill="#163050"/>
<path opacity="0.1" d="M254.5 85.5522H53.5V92.5522H254.5V85.5522Z" fill="#163050"/>
<path opacity="0.1" d="M196.5 99.5522V103.552L185.5 107.552V177.552H180.5V99.5522H196.5Z" fill="#163050"/>
<path opacity="0.1" d="M245.5 99.5522V103.552L234.5 107.552V177.552H229.5V99.5522H245.5Z" fill="#163050"/>
<path opacity="0.1" d="M79.5 99.5522V103.552L68.5 107.552V177.552H63.5V99.5522H79.5Z" fill="#163050"/>
<path opacity="0.1" d="M128.5 99.5522V103.552L117.5 107.552V177.552H112.5V99.5522H128.5Z" fill="#163050"/>
<path d="M278.351 85.1372L277.001 71.5106L312.401 67.9999L313.75 81.6265L278.351 85.1372Z" fill="#78E1F2"/>
<path d="M274.025 50.4531L266.614 38.9417L296.519 19.6641L303.93 31.1756L274.025 50.4531Z" fill="#78E1F2"/>
<path d="M257.144 22.6328L250.006 18.5853L260.532 9.96935e-06L267.669 4.04756L257.144 22.6328Z" fill="#78E1F2"/>
<path d="M269.157 192.413L277.564 184L285.972 192.413L277.564 200.826L269.157 192.413Z" fill="#C8B1FF"/>
<path d="M248.157 212.413L256.564 204L264.972 212.413L256.564 220.826L248.157 212.413Z" fill="#C8B1FF"/>
</svg>
