<svg width="310" height="223" viewBox="0 0 310 223" fill="none" xmlns="http://www.w3.org/2000/svg">
<path d="M151.72 37.3647C223.19 80.8647 323.19 220.865 262.39 220.865C217.48 220.865 88.67 221.865 49.2 221.865C9.72996 221.865 3.25996 179.965 16.55 123.365C36.51 38.3647 3.18996 -53.0153 151.72 37.3647Z" fill="#A682FF" fill-opacity="0.6146"/>
<path d="M299.69 213.865H28.6899V220.865H299.69V213.865Z" fill="white" stroke="#163050" stroke-width="3" stroke-linecap="round" stroke-linejoin="round"/>
<path d="M170.02 213.865H117.73L120.01 186.865H167.74L170.02 213.865Z" fill="#D8D8D8" stroke="#163050" stroke-width="3" stroke-linecap="round" stroke-linejoin="round"/>
<path d="M176.19 207.865H115.19V213.865H176.19V207.865Z" fill="#D8D8D8" stroke="#163050" stroke-width="3" stroke-linecap="round" stroke-linejoin="round"/>
<path d="M241.99 43.8647H57.3899C49.2714 43.8647 42.6899 50.4462 42.6899 58.5647V173.165C42.6899 181.283 49.2714 187.865 57.3899 187.865H241.99C250.109 187.865 256.69 181.283 256.69 173.165V58.5647C256.69 50.4462 250.109 43.8647 241.99 43.8647Z" fill="#78E1F2" stroke="#163050" stroke-width="3" stroke-linecap="round" stroke-linejoin="round"/>
<path d="M256.69 163.865V173.165C256.69 177.063 255.141 180.802 252.384 183.559C249.628 186.316 245.889 187.865 241.99 187.865H57.3899C53.4913 187.865 49.7523 186.316 46.9955 183.559C44.2387 180.802 42.6899 177.063 42.6899 173.165V163.865H256.69Z" fill="#D8D8D8" stroke="#163050" stroke-width="3" stroke-linecap="round" stroke-linejoin="round"/>
<path d="M246.95 76.8647H225.43C214.533 76.8647 205.7 85.6982 205.7 96.5947V129.135C205.7 140.031 214.533 148.865 225.43 148.865H246.95C257.846 148.865 266.68 140.031 266.68 129.135V96.5947C266.68 85.6982 257.846 76.8647 246.95 76.8647Z" fill="#F0CCBC" stroke="#163050" stroke-width="3" stroke-linecap="round" stroke-linejoin="round"/>
<path d="M269.69 88.5947V129.135C269.69 134.367 267.611 139.386 263.911 143.086C260.211 146.786 255.193 148.865 249.96 148.865H242.87C237.783 148.865 232.905 146.844 229.308 143.247C225.711 139.65 223.69 134.772 223.69 129.685V113.215C223.69 109.939 222.389 106.798 220.073 104.482C217.757 102.166 214.615 100.865 211.34 100.865C210.204 100.865 209.079 100.641 208.03 100.206C206.98 99.7716 206.027 99.1344 205.223 98.3312C204.42 97.528 203.783 96.5744 203.348 95.525C202.914 94.4755 202.69 93.3507 202.69 92.2148V88.5947C202.69 83.362 204.769 78.3436 208.469 74.6435C212.169 70.9434 217.187 68.8647 222.42 68.8647H249.96C255.193 68.8647 260.211 70.9434 263.911 74.6435C267.611 78.3436 269.69 83.362 269.69 88.5947Z" fill="#CE9D84" stroke="#163050" stroke-width="3" stroke-linecap="round" stroke-linejoin="round"/>
<path d="M205.7 105.955V119.955L204.19 122.075C203.827 122.583 203.283 122.935 202.67 123.057C202.057 123.18 201.421 123.064 200.89 122.735C200.179 122.223 199.608 121.541 199.229 120.751C198.85 119.961 198.675 119.089 198.72 118.215V112.535C198.72 109.405 200.78 106.605 203.32 106.275L205.7 105.955Z" fill="#163050" stroke="#163050" stroke-width="3" stroke-linecap="round" stroke-linejoin="round"/>
<path d="M204.19 108.085L221.71 112.865L198.71 114.865L199.2 111.475C199.268 110.907 199.457 110.361 199.755 109.872C200.052 109.384 200.451 108.965 200.923 108.644C201.396 108.323 201.933 108.107 202.496 108.01C203.06 107.914 203.637 107.939 204.19 108.085Z" fill="#163050" stroke="#163050" stroke-width="3" stroke-linecap="round" stroke-linejoin="round"/>
<path d="M207.59 152.035L226.85 148.865H254.85L267.48 151.305C271.344 152.049 274.882 153.974 277.605 156.815C280.327 159.656 282.101 163.273 282.68 167.165L289.68 220.865H187.68L195.03 164.995C195.513 161.795 196.983 158.827 199.234 156.503C201.486 154.18 204.407 152.617 207.59 152.035Z" fill="white" stroke="#163050" stroke-width="3" stroke-linecap="round" stroke-linejoin="round"/>
<path d="M141.69 195.865H163.69V213.865H126.69V210.865C126.69 206.886 128.27 203.071 131.083 200.258C133.896 197.445 137.712 195.865 141.69 195.865Z" fill="#F0CCBC" stroke="#163050" stroke-width="3" stroke-linecap="round" stroke-linejoin="round"/>
<path d="M198.78 198.475C192.58 204.385 186.57 210.005 186.57 210.005C182.737 212.528 178.249 213.873 173.66 213.875H138.66V208.285C138.66 203.932 140.389 199.758 143.467 196.681C146.544 193.603 150.718 191.875 155.07 191.875H173.69L197.57 157.705" fill="white"/>
<path d="M198.78 198.475C192.58 204.385 186.57 210.005 186.57 210.005C182.737 212.528 178.249 213.873 173.66 213.875H138.66V208.285C138.66 203.932 140.389 199.758 143.467 196.681C146.544 193.603 150.718 191.875 155.07 191.875H173.69L197.57 157.705" stroke="#163050" stroke-width="3" stroke-linecap="round" stroke-linejoin="round"/>
<path d="M149.69 181.865C153.004 181.865 155.69 179.178 155.69 175.865C155.69 172.551 153.004 169.865 149.69 169.865C146.376 169.865 143.69 172.551 143.69 175.865C143.69 179.178 146.376 181.865 149.69 181.865Z" fill="#2A455F"/>
<path d="M178.14 1.46484L183.09 6.41484L178.14 11.3648L183.09 16.3148L178.14 21.2648L173.19 16.3148L168.24 21.2648L163.29 16.3148L168.24 11.3648L163.29 6.41484L168.24 1.46484L173.19 6.41484L178.14 1.46484Z" fill="#FFD167"/>
<path d="M27.05 180.584L30.6 190.364L4.57 201.384L0 188.814L27.05 180.584Z" fill="#78E1F2"/>
<path d="M270.05 40.2545L260.95 35.2545L273.32 9.83447L285.02 16.3045L270.05 40.2545ZM292.63 42.7745L285.76 35.4945L271.19 50.8045L276.53 56.4645L292.63 42.7745Z" fill="#007A99"/>
<path d="M292.69 142.865C294.899 142.865 296.69 141.074 296.69 138.865C296.69 136.656 294.899 134.865 292.69 134.865C290.481 134.865 288.69 136.656 288.69 138.865C288.69 141.074 290.481 142.865 292.69 142.865Z" fill="#FFD167"/>
<path d="M149.69 149.865C173.99 149.865 193.69 130.165 193.69 105.865C193.69 81.5642 173.99 61.8647 149.69 61.8647C125.389 61.8647 105.69 81.5642 105.69 105.865C105.69 130.165 125.389 149.865 149.69 149.865Z" fill="#007A99"/>
<path d="M158.14 109.655C158.458 109.335 158.837 109.081 159.254 108.908C159.671 108.735 160.118 108.646 160.57 108.646C161.021 108.646 161.468 108.735 161.885 108.908C162.302 109.081 162.681 109.335 163 109.655C163.513 110.168 163.92 110.776 164.198 111.446C164.475 112.116 164.618 112.835 164.618 113.56C164.618 114.285 164.475 115.003 164.198 115.674C163.92 116.344 163.513 116.952 163 117.465L153.19 127.295C152.677 127.808 152.068 128.215 151.398 128.493C150.728 128.771 150.01 128.913 149.285 128.913C148.559 128.913 147.841 128.771 147.171 128.493C146.501 128.215 145.892 127.808 145.38 127.295L135.55 117.475C135.037 116.962 134.63 116.354 134.352 115.684C134.074 115.013 133.931 114.295 133.931 113.57C133.931 112.845 134.074 112.126 134.352 111.456C134.63 110.786 135.037 110.178 135.55 109.665C135.868 109.345 136.247 109.091 136.664 108.918C137.081 108.745 137.528 108.656 137.98 108.656C138.431 108.656 138.878 108.745 139.295 108.918C139.712 109.091 140.091 109.345 140.41 109.665L145.41 114.665C145.922 115.178 146.531 115.585 147.201 115.863C147.871 116.141 148.589 116.283 149.315 116.283C150.04 116.283 150.758 116.141 151.428 115.863C152.098 115.585 152.707 115.178 153.22 114.665L158.14 109.655ZM173.4 94.2149L164.02 84.8449C163.012 83.8589 161.653 83.3134 160.243 83.3284C158.833 83.3434 157.487 83.9177 156.5 84.9249L149.27 92.1649L142.16 85.0549C141.66 84.5652 141.069 84.1787 140.42 83.9176C139.772 83.6566 139.078 83.526 138.378 83.5334C137.679 83.5409 136.988 83.6861 136.344 83.9609C135.701 84.2358 135.119 84.6347 134.63 85.1349L125.07 94.7049C124.064 95.6932 123.491 97.0404 123.478 98.4505C123.465 99.8605 124.012 101.218 125 102.225C125.301 102.528 125.66 102.767 126.055 102.93C126.449 103.093 126.873 103.177 127.3 103.175C127.743 103.173 128.181 103.083 128.589 102.912C128.998 102.74 129.368 102.49 129.68 102.175L134.51 97.3349C134.999 96.8347 135.581 96.4358 136.224 96.1609C136.868 95.8861 137.559 95.7409 138.258 95.7334C138.958 95.726 139.652 95.8566 140.3 96.1176C140.949 96.3787 141.54 96.7652 142.04 97.2549L146.79 101.995C147.299 102.504 147.965 102.828 148.68 102.915H148.77H149.17C149.613 102.913 150.051 102.823 150.459 102.652C150.868 102.48 151.238 102.23 151.55 101.915L156.39 97.0749C157.377 96.0677 158.723 95.4934 160.133 95.4784C161.543 95.4634 162.902 96.0089 163.91 96.9949L168.66 101.735C169.28 102.355 170.122 102.704 171 102.704C171.877 102.704 172.719 102.355 173.34 101.735C173.844 101.232 174.243 100.636 174.516 99.9783C174.789 99.3211 174.93 98.6165 174.93 97.9049C174.93 97.2186 174.794 96.5391 174.529 95.9057C174.265 95.2723 173.878 94.6976 173.39 94.2149H173.4Z" fill="#F2F2F2"/>
<path d="M293.157 158.413L301.564 150L309.972 158.413L301.564 166.826L293.157 158.413Z" fill="#C8B1FF"/>
</svg>
