<?xml version="1.0" encoding="UTF-8"?>
<svg width="99px" height="87px" viewBox="0 0 99 87" version="1.1" xmlns="http://www.w3.org/2000/svg" xmlns:xlink="http://www.w3.org/1999/xlink">
    <!-- Generator: Sketch 50.2 (55047) - http://www.bohemiancoding.com/sketch -->
    <title>icn-ledger-nano</title>
    <desc>Created with Sketch.</desc>
    <defs></defs>
    <g id="New-Onboarding-Modal" stroke="none" stroke-width="1" fill="none" fill-rule="evenodd">
        <g id="New-Modal-Wireframe-v3-04" transform="translate(-860.000000, -349.000000)" stroke="#005268" stroke-width="2.70990156">
            <g id="icn-ledger-nano" transform="translate(905.000000, 399.000000) rotate(17.000000) translate(-905.000000, -399.000000) translate(855.000000, 355.000000)">
                <path d="M1.35495078,8.7984121 L1.35495078,33.9907753 L94.1201623,33.9907753 L94.1201623,8.7984121 L1.35495078,8.7984121 Z M79.0296391,29.950129 C74.2491153,29.950129 70.3655887,26.1242595 70.3655887,21.3945937 C70.3655887,16.6649279 74.2491153,12.8390585 79.0296391,12.8390585 C83.8101629,12.8390585 87.6936894,16.6649279 87.6936894,21.3945937 C87.6936894,26.1242595 83.8101629,29.950129 79.0296391,29.950129 Z" id="Combined-Shape" fill="#077493"></path>
                <rect id="Rectangle-14" fill="#1097C0" x="15.8345888" y="16.8990696" width="38.0140803" height="8.99104819" rx="0.903300521"></rect>
                <path d="M9.50883116,31.5342916 L9.50883116,56.7266548 L89.6778611,56.7266548 C96.6345401,56.7266548 102.274043,51.0871522 102.274043,44.1304732 C102.274043,37.1737942 96.6345401,31.5342916 89.6778611,31.5342916 L9.50883116,31.5342916 Z M88.0971569,53.5860815 C82.8120451,53.5860815 78.5194691,49.3572356 78.5194691,44.1304732 C78.5194691,38.9037108 82.8120451,34.6748649 88.0971569,34.6748649 C93.3822687,34.6748649 97.6748447,38.9037108 97.6748447,44.1304732 C97.6748447,49.3572356 93.3822687,53.5860815 88.0971569,53.5860815 Z" id="Combined-Shape" fill="#1097C0" transform="translate(55.891437, 44.130473) rotate(-45.000000) translate(-55.891437, -44.130473) "></path>
            </g>
        </g>
    </g>
</svg>