<?xml version="1.0" encoding="UTF-8"?>
<svg width="81px" height="120px" viewBox="0 0 81 120" version="1.1" xmlns="http://www.w3.org/2000/svg" xmlns:xlink="http://www.w3.org/1999/xlink">
    <!-- Generator: Sketch 48.2 (47327) - http://www.bohemiancoding.com/sketch -->
    <title>Artboard</title>
    <desc>Created with Sketch.</desc>
    <defs>
        <linearGradient x1="100.099854%" y1="-16.122731%" x2="44.1579795%" y2="77.6511455%" id="linearGradient-1">
            <stop stop-color="#2B415B" offset="13.45%"></stop>
            <stop stop-color="#3B5676" offset="37.62%"></stop>
            <stop stop-color="#54769E" offset="69.23%"></stop>
            <stop stop-color="#52749B" offset="79.01%"></stop>
            <stop stop-color="#4D6C92" offset="86.14%"></stop>
            <stop stop-color="#436082" offset="92.44%"></stop>
            <stop stop-color="#364F6C" offset="98.22%"></stop>
            <stop stop-color="#314863" offset="100%"></stop>
        </linearGradient>
        <linearGradient x1="99.7887646%" y1="61.4941149%" x2="-4.60729499%" y2="13.3460499%" id="linearGradient-2">
            <stop stop-color="#54769E" offset="0%"></stop>
            <stop stop-color="#53749C" offset="48.02%"></stop>
            <stop stop-color="#4F6F95" offset="68.78%"></stop>
            <stop stop-color="#486588" offset="84.23%"></stop>
            <stop stop-color="#435F80" offset="90.95%"></stop>
        </linearGradient>
        <linearGradient x1="725.856983%" y1="50.0229457%" x2="-347.124022%" y2="50.0229457%" id="linearGradient-3">
            <stop stop-color="#20344C" offset="25.39%"></stop>
            <stop stop-color="#273D57" offset="40.72%"></stop>
            <stop stop-color="#395373" offset="67.33%"></stop>
            <stop stop-color="#54769E" offset="100%"></stop>
        </linearGradient>
        <linearGradient x1="-653.788268%" y1="50.0214562%" x2="455.494413%" y2="50.0214562%" id="linearGradient-4">
            <stop stop-color="#54769E" offset="25.39%"></stop>
            <stop stop-color="#4D6E93" offset="41.33%"></stop>
            <stop stop-color="#3C5777" offset="68.97%"></stop>
            <stop stop-color="#233850" offset="100%"></stop>
        </linearGradient>
        <linearGradient x1="50.0370086%" y1="-209.335792%" x2="49.9575834%" y2="235.965027%" id="linearGradient-5">
            <stop stop-color="#54769E" offset="0.6545247%"></stop>
            <stop stop-color="#507198" offset="19.93%"></stop>
            <stop stop-color="#466488" offset="45.02%"></stop>
            <stop stop-color="#354F6D" offset="73.18%"></stop>
            <stop stop-color="#21354D" offset="100%"></stop>
        </linearGradient>
        <linearGradient x1="163.859644%" y1="-95.5767241%" x2="-53.1396713%" y2="173.049483%" id="linearGradient-6">
            <stop stop-color="#54769E" offset="25.39%"></stop>
            <stop stop-color="#4D6E93" offset="41.02%"></stop>
            <stop stop-color="#3C5777" offset="68.13%"></stop>
            <stop stop-color="#22364E" offset="100%"></stop>
        </linearGradient>
        <linearGradient x1="-44.1116757%" y1="-60.1463542%" x2="137.687762%" y2="146.957292%" id="linearGradient-7">
            <stop stop-color="#54769E" offset="25.39%"></stop>
            <stop stop-color="#4D6E93" offset="41.02%"></stop>
            <stop stop-color="#3C5777" offset="68.13%"></stop>
            <stop stop-color="#22364E" offset="100%"></stop>
        </linearGradient>
        <linearGradient x1="-1.43584837%" y1="31.6007047%" x2="127.701745%" y2="103.798097%" id="linearGradient-8">
            <stop stop-color="#54769E" offset="26.64%"></stop>
            <stop stop-color="#425E7F" offset="100%"></stop>
        </linearGradient>
        <linearGradient x1="-71.276129%" y1="-65.3137535%" x2="149.174581%" y2="96.3311507%" id="linearGradient-9">
            <stop stop-color="#54769E" stop-opacity="0" offset="46.09%"></stop>
            <stop stop-color="#52739A" stop-opacity="0.2156" offset="56.99%"></stop>
            <stop stop-color="#4A698E" stop-opacity="0.4266" offset="67.64%"></stop>
            <stop stop-color="#3D597B" stop-opacity="0.6356" offset="78.2%"></stop>
            <stop stop-color="#2C435F" stop-opacity="0.8422" offset="88.63%"></stop>
            <stop stop-color="#1B2E45" offset="96.61%"></stop>
        </linearGradient>
        <linearGradient x1="50.309375%" y1="295.997443%" x2="50.309375%" y2="-124.649242%" id="linearGradient-10">
            <stop stop-color="#54769E" offset="25.39%"></stop>
            <stop stop-color="#4D6E93" offset="41.02%"></stop>
            <stop stop-color="#3C5777" offset="68.13%"></stop>
            <stop stop-color="#22364E" offset="100%"></stop>
        </linearGradient>
    </defs>
    <g id="Page-1" stroke="none" stroke-width="1" fill="none" fill-rule="evenodd">
        <g id="Artboard" fill-rule="nonzero">
            <g id="logo-shapeshift">
                <polygon id="Shape" fill="#273C51" points="75.9045553 29.0113736 81 0.0349956255 59.7045553 8.88888889 36.3006508 8.88888889 15.0052061 0 20.1357918 29.0113736 15.3214751 45.1793526 19.8546638 48.0139983 0 65.3718285 0 81.67979 22.7010846 112.825897 44.1019523 119.965004 44.1370933 120 60.8642082 111.461067 60.8993492 111.426072 60.8993492 98.7926509 51.4112798 93.6132983 51.4112798 93.6132983 51.4112798 93.6132983 66.3110629 54.1032371 66.2056399 54.1032371 80.683731 45.1793526"></polygon>
                <g id="Group">
                    <polygon id="Shape" fill="url(#linearGradient-1)" points="34.2584416 35.3372093 0 65.2325581 47.7233766 92.5465116 47.8987013 36.244186"></polygon>
                    <polygon id="Shape" fill="#466284" points="29.3844156 53.8255814 47.7584416 102.697674 47.8987013 56.5465116"></polygon>
                    <polygon id="Shape" fill="#354D6A" points="66.1675325 54 47.7584416 102.697674 47.8987013 56.5465116"></polygon>
                    <polygon id="Shape" fill="url(#linearGradient-2)" points="80.8246753 0.104651163 62.5558442 9.6627907 47.9337662 12.8372093 33.1714286 9.6627907 14.9727273 0.0697674419 21.2493506 28.9186047 15.2883117 45.1046512 36.187013 58.0116279 47.7935065 70.5697674 47.7935065 70.6744186 47.8636364 70.6046512 47.9337662 70.6744186 47.9337662 70.5697674 59.5402597 58.0116279 80.5090909 45.1046512 74.5480519 28.9534884"></polygon>
                    <polygon id="Shape" fill="url(#linearGradient-3)" points="80.8246753 0.104651163 75.7402597 28.9883721 80.5090909 45.1046512 74.5480519 28.9534884"></polygon>
                    <polygon id="Shape" fill="url(#linearGradient-4)" points="14.9727273 0.0697674419 20.0922078 28.9883721 15.2883117 45.1046512 21.2493506 28.9186047"></polygon>
                    <polygon id="Shape" fill="url(#linearGradient-5)" points="14.9727273 0.0697674419 36.2220779 8.93023256 59.5753247 8.93023256 80.8246753 0.104651163 62.5558442 9.6627907 47.9337662 12.8372093 33.1714286 9.6627907"></polygon>
                    <polygon id="Shape" fill="url(#linearGradient-6)" points="21.2493506 28.9186047 20.1974026 31.8139535 42.2532468 11.5813953"></polygon>
                    <polygon id="Shape" fill="url(#linearGradient-7)" points="74.5480519 28.9534884 53.6493506 11.5813953 75.5649351 31.6744186"></polygon>
                    <polygon id="Shape" fill="url(#linearGradient-8)" points="0 65.2325581 51.3 93.3837209 57.787013 109.534884 44.0415584 114.732558 22.6519481 112.534884 0 81.4883721"></polygon>
                    <polygon id="Shape" fill="#FFFFFF" points="42.4636364 88.5348837 22.7220779 112.465116 22.6519481 112.534884 44.0064935 119.651163 44.0415584 119.686047 60.7324675 111.174419 60.7675325 111.139535 60.7675325 98.5465116"></polygon>
                    <polygon id="Shape" fill="url(#linearGradient-9)" points="74.5480519 28.9534884 80.8246753 0.104651163 62.5558442 9.6627907 53.6493506 11.5813953"></polygon>
                    <polygon id="Shape" fill="#FFFFFF" points="47.8987013 70.6744186 42.112987 64.3604651 47.8987013 58.0116279 53.7194805 64.3604651"></polygon>
                    <polygon id="Shape" fill="url(#linearGradient-10)" points="47.3376623 12.6976744 47.9337662 12.8372093 48.4597403 12.7325581 47.8987013 49.5348837"></polygon>
                </g>
            </g>
        </g>
    </g>
</svg>