<?xml version="1.0" encoding="UTF-8"?>
<svg width="1202px" height="344px" viewBox="0 0 1202 344" version="1.1" xmlns="http://www.w3.org/2000/svg" xmlns:xlink="http://www.w3.org/1999/xlink">
    <!-- Generator: Sketch 48.2 (47327) - http://www.bohemiancoding.com/sketch -->
    <title>Artboard</title>
    <desc>Created with Sketch.</desc>
    <defs>
        <linearGradient x1="100.099854%" y1="-45.3096951%" x2="44.1579795%" y2="89.8565244%" id="linearGradient-1">
            <stop stop-color="#2B415B" offset="13.45%"></stop>
            <stop stop-color="#3B5676" offset="37.62%"></stop>
            <stop stop-color="#54769E" offset="69.23%"></stop>
            <stop stop-color="#52749B" offset="79.01%"></stop>
            <stop stop-color="#4D6C92" offset="86.14%"></stop>
            <stop stop-color="#436082" offset="92.44%"></stop>
            <stop stop-color="#364F6C" offset="98.22%"></stop>
            <stop stop-color="#314863" offset="100%"></stop>
        </linearGradient>
        <linearGradient x1="99.7887646%" y1="63.3507411%" x2="-4.60729499%" y2="7.42539526%" id="linearGradient-2">
            <stop stop-color="#54769E" offset="0%"></stop>
            <stop stop-color="#53749C" offset="48.02%"></stop>
            <stop stop-color="#4F6F95" offset="68.78%"></stop>
            <stop stop-color="#486588" offset="84.23%"></stop>
            <stop stop-color="#435F80" offset="90.95%"></stop>
        </linearGradient>
        <linearGradient x1="725.856983%" y1="50.0229457%" x2="-347.124022%" y2="50.0229457%" id="linearGradient-3">
            <stop stop-color="#20344C" offset="25.39%"></stop>
            <stop stop-color="#273D57" offset="40.72%"></stop>
            <stop stop-color="#395373" offset="67.33%"></stop>
            <stop stop-color="#54769E" offset="100%"></stop>
        </linearGradient>
        <linearGradient x1="-653.788268%" y1="50.0214562%" x2="455.494413%" y2="50.0214562%" id="linearGradient-4">
            <stop stop-color="#54769E" offset="25.39%"></stop>
            <stop stop-color="#4D6E93" offset="41.33%"></stop>
            <stop stop-color="#3C5777" offset="68.97%"></stop>
            <stop stop-color="#233850" offset="100%"></stop>
        </linearGradient>
        <linearGradient x1="50.9743876%" y1="-209.335792%" x2="48.8832268%" y2="235.965027%" id="linearGradient-5">
            <stop stop-color="#54769E" offset="0.6545247%"></stop>
            <stop stop-color="#507198" offset="19.93%"></stop>
            <stop stop-color="#466488" offset="45.02%"></stop>
            <stop stop-color="#354F6D" offset="73.18%"></stop>
            <stop stop-color="#21354D" offset="100%"></stop>
        </linearGradient>
        <linearGradient x1="183.910652%" y1="-95.5767241%" x2="-71.3028617%" y2="173.049483%" id="linearGradient-6">
            <stop stop-color="#54769E" offset="25.39%"></stop>
            <stop stop-color="#4D6E93" offset="41.02%"></stop>
            <stop stop-color="#3C5777" offset="68.13%"></stop>
            <stop stop-color="#22364E" offset="100%"></stop>
        </linearGradient>
        <linearGradient x1="-60.8048%" y1="-60.1463542%" x2="153.24144%" y2="146.957292%" id="linearGradient-7">
            <stop stop-color="#54769E" offset="25.39%"></stop>
            <stop stop-color="#4D6E93" offset="41.02%"></stop>
            <stop stop-color="#3C5777" offset="68.13%"></stop>
            <stop stop-color="#22364E" offset="100%"></stop>
        </linearGradient>
        <linearGradient x1="-19.3770024%" y1="31.6007047%" x2="154.804612%" y2="103.798097%" id="linearGradient-8">
            <stop stop-color="#54769E" offset="26.64%"></stop>
            <stop stop-color="#425E7F" offset="100%"></stop>
        </linearGradient>
        <linearGradient x1="-71.276129%" y1="-81.3072551%" x2="149.174581%" y2="102.757074%" id="linearGradient-9">
            <stop stop-color="#54769E" stop-opacity="0" offset="46.09%"></stop>
            <stop stop-color="#52739A" stop-opacity="0.2156" offset="56.99%"></stop>
            <stop stop-color="#4A698E" stop-opacity="0.4266" offset="67.64%"></stop>
            <stop stop-color="#3D597B" stop-opacity="0.6356" offset="78.2%"></stop>
            <stop stop-color="#2C435F" stop-opacity="0.8422" offset="88.63%"></stop>
            <stop stop-color="#1B2E45" offset="96.61%"></stop>
        </linearGradient>
        <linearGradient x1="50.309375%" y1="295.997443%" x2="50.309375%" y2="-124.649242%" id="linearGradient-10">
            <stop stop-color="#54769E" offset="25.39%"></stop>
            <stop stop-color="#4D6E93" offset="41.02%"></stop>
            <stop stop-color="#3C5777" offset="68.13%"></stop>
            <stop stop-color="#22364E" offset="100%"></stop>
        </linearGradient>
    </defs>
    <g id="Page-1" stroke="none" stroke-width="1" fill="none" fill-rule="evenodd">
        <g id="Artboard" fill-rule="nonzero">
            <g id="logo-shapeshift">
                <g id="Group" transform="translate(249.000000, 93.000000)" fill="#FFFFFF">
                    <g id="Shape">
                        <path d="M59.9876543,15.8852761 C42.3168724,15.8852761 23.367284,22.8423313 23.367284,39.7711656 C23.367284,54.8447853 40.6893004,59.2509202 61.2664609,62.6134969 C89.1676955,67.0196319 116.603909,72.5852761 116.603909,103.892025 C116.371399,135.082822 86.4938272,145.170552 59.8713992,145.170552 C35.2253086,145.170552 11.6255144,136.242331 0.930041152,112.936196 L15.2294239,104.58773 C24.18107,121.052761 42.8981481,129.053374 60.1039095,129.053374 C77.0771605,129.053374 99.5144033,123.719632 99.5144033,103.196319 C99.7469136,85.9196319 80.2160494,80.9337423 59.2901235,77.8030675 C32.4351852,73.6288344 6.27777778,67.4834356 6.27777778,39.307362 C5.92901235,10.3196319 35.5740741,0.347852761 59.6388889,0.347852761 C80.3323045,0.347852761 100.095679,4.52208589 112.418724,25.6251534 L99.281893,33.7417178 C91.7253086,21.6828221 75.5658436,16.1171779 59.9876543,15.8852761 Z"></path>
                        <path d="M145.08642,3.59447853 L145.08642,60.6423313 C153.45679,47.7717791 166.593621,43.3656442 179.149177,43.1337423 C206.817901,43.1337423 220.419753,61.4539877 220.419753,88.4705521 L220.419753,142.503681 L204.260288,142.503681 L204.260288,88.702454 C204.260288,69.4546012 194.262346,58.5552147 176.359053,58.5552147 C158.455761,58.5552147 145.31893,72.4693252 145.31893,90.4417178 L145.31893,142.503681 L129.04321,142.503681 L129.04321,3.36257669 L145.202675,3.36257669 L145.202675,3.59447853 L145.08642,3.59447853 Z"></path>
                        <path d="M320.166667,142.851534 L319.817901,124.995092 C312.028807,138.56135 297.148148,144.822699 283.546296,144.822699 C255.296296,144.822699 233.207819,125.342945 233.207819,93.3404908 C233.207819,61.5699387 255.761317,42.4380368 283.778807,42.6699387 C298.54321,42.6699387 313.075103,49.395092 320.282922,62.1496933 L320.515432,44.2932515 L336.442387,44.2932515 L336.442387,142.38773 L320.747942,142.38773 L320.166667,142.851534 Z M284.243827,58.207362 C264.712963,58.207362 249.018519,72.1214724 249.018519,93.9202454 C249.018519,115.719018 264.712963,129.865031 284.243827,129.865031 C331.675926,129.865031 331.675926,57.9754601 284.476337,57.9754601 L284.243827,58.207362 Z"></path>
                        <path d="M349.346708,44.7570552 L364.924897,44.7570552 L365.738683,63.6570552 C373.527778,50.5546012 388.059671,43.0177914 403.63786,43.0177914 C431.88786,43.597546 452.581276,63.4251534 452.581276,93.6883436 C452.581276,124.647239 432.12037,144.706748 402.591564,144.706748 C388.640947,144.706748 373.062757,138.793252 365.389918,124.879141 L365.389918,188.884049 L349.462963,188.884049 L349.462963,44.7570552 L349.346708,44.7570552 Z M436.1893,93.9202454 C436.1893,71.8895706 421.657407,58.7871166 401.545267,58.7871166 C381.084362,58.7871166 367.133745,73.8607362 367.133745,93.9202454 C367.133745,113.979755 381.665638,129.053374 401.545267,129.285276 C421.192387,129.285276 436.1893,116.066871 436.1893,93.9202454 Z"></path>
                        <path d="M557.908436,126.734356 C547.910494,138.445399 530.820988,144.242945 515.475309,144.242945 C485.016461,144.242945 463.74177,124.183436 463.74177,92.992638 C463.74177,63.4251534 485.016461,42.090184 514.777778,42.090184 C544.88786,42.090184 567.790123,60.5263804 563.953704,99.7177914 L480.25,99.7177914 C481.993827,117.806135 496.990741,129.169325 515.940329,129.169325 C527.100823,129.169325 540.58642,124.76319 547.212963,116.878528 L558.140947,126.850307 L557.908436,126.850307 L557.908436,126.734356 Z M548.259259,86.2674847 C547.445473,67.2515337 534.308642,56.8159509 515.010288,56.8159509 C497.920782,56.8159509 482.923868,67.1355828 480.133745,86.0355828 L548.259259,86.0355828 L548.259259,86.2674847 Z"></path>
                    </g>
                    <g transform="translate(571.000000, 0.000000)" id="Shape">
                        <path d="M59.4480243,15.8746032 C41.7993921,15.8746032 22.8735562,22.8269841 22.8735562,39.7444444 C22.8735562,54.8079365 40.1738602,59.2111111 60.725228,62.5714286 C88.5914894,66.9746032 115.993313,72.5365079 115.993313,103.822222 C115.761094,134.992063 85.9209726,145.073016 59.3319149,145.073016 C34.7167173,145.073016 11.1465046,136.150794 0.46443769,112.860317 L14.7458967,104.51746 C23.6863222,120.971429 42.3799392,128.966667 59.5641337,128.966667 C76.5161094,128.966667 98.925228,123.636508 98.925228,103.126984 C99.1574468,85.8619048 79.6510638,80.8793651 58.7513678,77.7507937 C31.9300912,73.5793651 5.80547112,67.4380952 5.80547112,39.2809524 C5.45714286,10.3126984 35.0650456,0.347619048 59.099696,0.347619048 C79.7671733,0.347619048 99.5057751,4.51904762 111.813374,25.6079365 L98.6930091,33.7190476 C91.1458967,21.668254 75.0066869,16.1063492 59.4480243,15.8746032 Z"></path>
                        <path d="M144.440122,3.59206349 L144.440122,60.6015873 C152.8,47.7396825 165.920365,43.3365079 178.460182,43.1047619 C206.094225,43.1047619 219.679027,61.4126984 219.679027,88.4111111 L219.679027,142.407937 L203.539818,142.407937 L203.539818,88.6428571 C203.539818,69.4079365 193.554407,58.515873 175.673556,58.515873 C157.792705,58.515873 144.67234,72.652381 144.67234,90.4968254 L144.67234,142.52381 L128.417021,142.52381 L128.417021,3.36031746 L144.556231,3.36031746 L144.556231,3.59206349 L144.440122,3.59206349 Z"></path>
                        <path d="M232.915502,142.292063 L249.170821,142.292063 L249.170821,45.6539683 L232.915502,45.6539683 L232.915502,142.292063 Z M241.27538,30.9380952 L228.387234,16.8015873 L241.27538,2.66507937 L254.163526,16.8015873 L241.27538,30.9380952 Z"></path>
                        <g transform="translate(260.085106, 2.158730)">
                            <polygon points="19.506383 140.365079 19.506383 140.133333 19.3902736 140.133333"></polygon>
                            <path d="M35.6455927,35.615873 C35.6455927,20.9 42.3799392,14.4111111 52.9458967,14.4111111 C53.1781155,14.4111111 53.4103343,14.4111111 53.5264438,14.4111111 L57.2419453,0.39047619 C55.7325228,0.158730159 54.1069909,0.0428571429 52.5975684,0.0428571429 C31.9300912,0.0428571429 19.6224924,13.1365079 19.6224924,35.615873 L19.6224924,43.3793651 L0.348328267,43.3793651 L0.348328267,57.631746 L19.6224924,57.631746 L19.6224924,140.249206 L35.7617021,140.249206 L35.7617021,57.631746 L55.2680851,57.631746 L55.2680851,43.3793651 L35.7617021,43.3793651 L35.7617021,35.615873 L35.6455927,35.615873 Z"></path>
                        </g>
                        <path d="M378.632827,128.734921 C377.355623,128.966667 376.078419,129.08254 374.801216,129.08254 C363.074164,129.08254 359.242553,121.78254 359.242553,110.195238 L359.242553,59.6746032 L380.142249,59.6746032 L380.142249,45.5380952 L359.358663,45.5380952 L359.358663,15.6428571 L343.103343,17.3809524 L343.103343,45.4222222 L323.364742,45.4222222 L323.364742,59.5587302 L343.103343,59.5587302 L343.103343,110.079365 C343.103343,131.747619 353.088754,144.030159 374.104559,143.68254 C376.658967,143.566667 379.213374,143.334921 381.651672,142.755556 L378.632827,128.734921 Z"></path>
                    </g>
                </g>
                <polygon id="Shape" fill="#273C51" points="216 83.1 230.5 0.3 169.9 25.6 103.3 25.6 42.7 0.2 57.3 83.1 43.6 129.3 56.5 137.4 0 187 0 233.6 64.6 322.6 125.5 343 125.6 343.1 173.2 318.7 173.3 318.6 173.3 282.5 146.3 267.7 146.3 267.7 146.3 267.7 188.7 154.8 188.4 154.8 229.6 129.3"></polygon>
                <g id="Group">
                    <polygon id="Shape" fill="url(#linearGradient-1)" points="97.7 101.3 0 187 136.1 265.3 136.6 103.9"></polygon>
                    <polygon id="Shape" fill="#466284" points="83.8 154.3 136.2 294.4 136.6 162.1"></polygon>
                    <polygon id="Shape" fill="#354D6A" points="188.7 154.8 136.2 294.4 136.6 162.1"></polygon>
                    <polygon id="Shape" fill="url(#linearGradient-2)" points="230.5 0.3 178.4 27.7 136.7 36.8 94.6 27.7 42.7 0.2 60.6 82.9 43.6 129.3 103.2 166.3 136.3 202.3 136.3 202.6 136.5 202.4 136.7 202.6 136.7 202.3 169.8 166.3 229.6 129.3 212.6 83"></polygon>
                    <polygon id="Shape" fill="url(#linearGradient-3)" points="230.5 0.3 216 83.1 229.6 129.3 212.6 83"></polygon>
                    <polygon id="Shape" fill="url(#linearGradient-4)" points="42.7 0.2 57.3 83.1 43.6 129.3 60.6 82.9"></polygon>
                    <polygon id="Shape" fill="url(#linearGradient-5)" points="42.7 0.2 103.3 25.6 169.9 25.6 230.5 0.3 178.4 27.7 136.7 36.8 94.6 27.7"></polygon>
                    <polygon id="Shape" fill="url(#linearGradient-6)" points="60.6 82.9 57.6 91.2 120.5 33.2"></polygon>
                    <polygon id="Shape" fill="url(#linearGradient-7)" points="212.6 83 153 33.2 215.5 90.8"></polygon>
                    <polygon id="Shape" fill="url(#linearGradient-8)" points="0 187 146.3 267.7 164.8 314 125.6 328.9 64.6 322.6 0 233.6"></polygon>
                    <polygon id="Shape" fill="#FFFFFF" points="121.1 253.8 64.8 322.4 64.6 322.6 125.5 343 125.6 343.1 173.2 318.7 173.3 318.6 173.3 282.5"></polygon>
                    <polygon id="Shape" fill="url(#linearGradient-9)" points="212.6 83 230.5 0.3 178.4 27.7 153 33.2"></polygon>
                    <polygon id="Shape" fill="#FFFFFF" points="136.6 202.6 120.1 184.5 136.6 166.3 153.2 184.5"></polygon>
                    <polygon id="Shape" fill="url(#linearGradient-10)" points="135 36.4 136.7 36.8 138.2 36.5 136.6 142"></polygon>
                </g>
            </g>
        </g>
    </g>
</svg>