<?xml version="1.0" encoding="UTF-8"?>
<svg width="293px" height="74px" viewBox="0 0 293 74" version="1.1" xmlns="http://www.w3.org/2000/svg" xmlns:xlink="http://www.w3.org/1999/xlink">
    <!-- Generator: Sketch 55 (78076) - https://sketchapp.com -->
    <title>Home v1.3 Copy 6</title>
    <desc>Created with Sketch.</desc>
    <g id="Home-v1.3-Copy-6" stroke="none" stroke-width="1" fill="none" fill-rule="evenodd">
        <g id="Energi-Logo-full-Copy" fill-rule="nonzero">
            <polygon id="Fill-2" fill="#00E676" points="73 36.7387636 36.5013041 73.2328897 0 36.7387636 36.5117376 0.2328897 59.312663 23.0537927 36.5013041 45.8616425 27.3759781 36.7387636 41.0633151 23.0537927 36.5013041 18.4917006 18.2506521 36.7387636 36.5013041 54.9858267 63.8759781 27.6145794"></polygon>
            <g id="Group-15" transform="translate(90.000000, 14.232890)" fill="#FFFFFF">
                <polygon id="Fill-4" points="23.3480676 43.0138697 0.421780687 43.0138697 0.421780687 0.67045725 23.3480676 0.67045725 23.3480676 3.39232542 3.34957382 3.39232542 3.34957382 19.407994 22.2286558 19.407994 22.2286558 22.1311879 3.34957382 22.1311879 3.34957382 40.2906757 23.3480676 40.2906757"></polygon>
                <path d="M66.2855777,43.0138697 L63.3302258,43.0138697 L38.4813854,5.4208 L38.2530411,5.4208 C38.4813854,9.89935365 38.5955575,13.2788188 38.5955575,15.5565439 L38.5955575,43.0138697 L35.7845611,43.0138697 L35.7845611,0.67045725 L38.711042,0.67045725 L63.5310112,38.2051917 L63.7029256,38.2051917 C63.5310112,34.7302689 63.4457102,31.429026 63.4457102,28.3001371 L63.4457102,0.67045725 L66.2855777,0.67045725 L66.2855777,43.0138697 Z" id="Fill-5"></path>
                <polygon id="Fill-7" points="104.030356 43.0138697 81.1027571 43.0138697 81.1027571 0.67045725 104.030356 0.67045725 104.030356 3.39232542 84.0305501 3.39232542 84.0305501 19.407994 102.910944 19.407994 102.910944 22.1311879 84.0305501 22.1311879 84.0305501 40.2906757 104.030356 40.2906757"></polygon>
                <path d="M119.392412,22.0159759 L127.398896,22.0159759 C130.936919,22.0159759 133.682299,21.2178441 135.633724,19.6255578 C137.583836,18.0332716 138.560205,15.6826275 138.560205,12.5736256 C138.560205,9.34927907 137.603521,7.00393823 135.691466,5.53495141 C133.778099,4.06861619 130.658707,3.33412279 126.335914,3.33412279 L119.392412,3.33412279 L119.392412,22.0159759 Z M119.392412,24.5641642 L119.392412,43.0140023 L116.465931,43.0140023 L116.465931,0.66926403 L126.451399,0.66926403 C131.65476,0.66926403 135.498555,1.63974991 137.98672,3.58072166 C140.47226,5.52169341 141.716343,8.44243161 141.716343,12.3416106 C141.716343,15.1801492 140.97488,17.5745447 139.491954,19.524797 C138.010341,21.4750493 135.758395,22.8737687 132.734802,23.7236068 L144.12708,43.0140023 L140.627114,43.0140023 L129.808321,24.5641642 L119.392412,24.5641642 Z" id="Fill-9"></path>
                <path d="M170.822884,21.6676881 L186.289926,21.6676881 L186.289926,40.9859254 C182.233535,42.7240497 177.671899,43.592449 172.602395,43.592449 C165.983036,43.592449 160.909595,41.7045093 157.380757,37.9312814 C153.850608,34.1554019 152.086846,28.8124263 152.086846,21.8997032 C152.086846,17.5948294 152.962165,13.7751985 154.712804,10.4447879 C156.462131,7.1130516 158.968668,4.54099887 162.229792,2.72597816 C165.490915,0.91228324 169.234973,0.00278418079 173.463279,0.00278418079 C178.035413,0.00278418079 182.137735,0.853948025 185.774183,2.55229831 L184.597029,5.21715706 C180.961893,3.51880678 177.192901,2.66764294 173.291364,2.66764294 C167.762546,2.66764294 163.376762,4.39118343 160.134011,7.83693859 C156.892573,11.2840196 155.270542,15.9336015 155.270542,21.7843585 C155.270542,28.1561551 156.809897,32.9489235 159.891232,36.1639894 C162.971255,39.3777296 167.494833,40.9859254 173.463279,40.9859254 C177.326758,40.9859254 180.607566,40.4357183 183.305703,39.335304 L183.305703,24.4492173 L170.822884,24.4492173 L170.822884,21.6676881 Z" id="Fill-11"></path>
                <polygon id="Fill-13" points="199.757905 43.0129416 202.684386 43.0129416 202.684386 0.66952919 199.757905 0.66952919"></polygon>
            </g>
        </g>
    </g>
</svg>
