<?xml version="1.0" encoding="UTF-8"?>
<svg width="256px" height="256px" viewBox="0 0 256 256" version="1.1" xmlns="http://www.w3.org/2000/svg" xmlns:xlink="http://www.w3.org/1999/xlink">
    <!-- Generator: Sketch 58 (84663) - https://sketch.com -->
    <title>Logo_VHuman_b1_ob</title>
    <desc>Created with Sketch.</desc>
    <g id="Logo_VHuman_b1_ob" stroke="none" stroke-width="1" fill="none" fill-rule="evenodd">
        <path d="M0,128.001106 C0,198.691882 57.3086134,256 128,256 C198.691387,256 256,198.691882 256,128.001106 C256,57.3081183 198.691387,0 128,0 C57.3086134,0 0,57.3081183 0,128.001106 Z" id="Fill-10" fill="#FF9802"></path>
        <path d="M7.5,128.001106 C7.5,194.549732 61.4507345,248.5 128,248.5 C194.549265,248.5 248.5,194.549732 248.5,128.001106 C248.5,61.4505904 194.549587,7.5 128,7.5 C61.4504126,7.5 7.5,61.4505904 7.5,128.001106 Z" id="Fill-10" stroke="#FD7400" stroke-width="15" fill="#253248"></path>
        <rect id="Rectangle" fill="#FD7400" x="111" y="149" width="37" height="29"></rect>
        <polyline id="Path-3" stroke="#FD7400" stroke-width="26" stroke-linecap="round" stroke-linejoin="round" points="71 98 127.554455 194 184.108911 98"></polyline>
        <circle id="Oval" fill="#253248" cx="127.5" cy="143.5" r="12.5"></circle>
        <path d="M128,84.8196601 L145.09017,119 L110.90983,119 L128,84.8196601 Z" id="Triangle" stroke="#FD7400" stroke-width="10" fill="#FD7400" stroke-linejoin="round" transform="translate(128.000000, 105.000000) scale(1, -1) translate(-128.000000, -105.000000) "></path>
    </g>
</svg>