<?xml version="1.0" encoding="UTF-8"?>
<svg width="256px" height="256px" viewBox="0 0 256 256" version="1.1" xmlns="http://www.w3.org/2000/svg" xmlns:xlink="http://www.w3.org/1999/xlink">
    <!-- Generator: Sketch 58 (84663) - https://sketch.com -->
    <title>Logo_VHuman_b0_wo</title>
    <desc>Created with Sketch.</desc>
    <g id="Logo_VHuman_b0_wo" stroke="none" stroke-width="1" fill="none" fill-rule="evenodd">
        <path d="M0,128.001106 C0,198.691882 57.3086134,256 128,256 C198.691387,256 256,198.691882 256,128.001106 C256,57.3081183 198.691387,0 128,0 C57.3086134,0 0,57.3081183 0,128.001106 Z" id="Fill-10" fill="#FF9802"></path>
        <path d="M0,128.001106 C0,198.691882 57.3086134,256 128,256 C198.691387,256 256,198.691882 256,128.001106 C256,57.3081183 198.691387,0 128,0 C57.3086134,0 0,57.3081183 0,128.001106 Z" id="Fill-10" fill="#FD7400"></path>
        <rect id="Rectangle" fill="#FFFFFF" x="111" y="149" width="37" height="29"></rect>
        <polyline id="Path-3" stroke="#FFFFFF" stroke-width="26" stroke-linecap="round" stroke-linejoin="round" points="71 98 127.554455 194 184.108911 98"></polyline>
        <circle id="Oval" fill="#FD7400" cx="127.5" cy="143.5" r="12.5"></circle>
        <path d="M127.291796,108 L128,109.416408 L128.708204,108 L127.291796,108 Z M128,82.5835921 L146.708204,120 L109.291796,120 L128,82.5835921 Z" id="Triangle" stroke="#FFFFFF" stroke-width="12" fill="#FFFFFF" stroke-linejoin="round" transform="translate(128.000000, 105.000000) scale(1, -1) translate(-128.000000, -105.000000) "></path>
    </g>
</svg>