<svg xmlns="http://www.w3.org/2000/svg" viewBox="0 0 119.71 130.89"><title>ShapeShift Logo</title><path d="M111.91,11.72l-5.8,34.77L85.49,22.23Zm-5.67,49.73,5.16,19L71.93,91.37ZM20.33,51.87,41.49,24.23H78.23l23.49,27.64ZM99,58.7,60.74,92.07l-39-33.37H99ZM34.4,22.25,15.5,46.94,9.69,11.85,34.4,22.24Zm15,69.11L9.57,80.51,15,61.92Zm7.35,9.08-7.52,8.28a124.94,124.94,0,0,0-20.86-16l28.38,7.73Zm36.48-7.85a125,125,0,0,0-20.8,16.2l-7.68-8.36,28.48-7.84ZM120.64.9,79.16,17.4H40.49L.93.77l9,54.3L1.29,84.47,23.8,97.93a118,118,0,0,1,28.38,23.69l8.77,10,9.2-10.55A117.65,117.65,0,0,1,97.47,98l22.08-13.54-8-29.36Z" transform="translate(-0.93 -0.77)" style="fill:#fffffe;fill-rule:evenodd"/></svg>
