<?xml version="1.0" encoding="UTF-8"?>
<svg width="250px" height="63px" viewBox="0 0 250 63" version="1.1" xmlns="http://www.w3.org/2000/svg" xmlns:xlink="http://www.w3.org/1999/xlink">
    <!-- Generator: Sketch 60.1 (88133) - https://sketch.com -->
    <title>Group 2</title>
    <desc>Created with Sketch.</desc>
    <defs>
        <polygon id="path-1" points="63.5513037 31.255 31.7768158 62.5 0 31.255 31.7858757 0 51.6355562 19.53875 31.7768158 39.065625 23.8325647 31.255 35.7483122 19.53875 31.7768158 15.6325 15.8883764 31.255 31.7768158 46.8775 55.608248 23.443125"></polygon>
        <filter x="-200.0%" y="-10.2%" width="500.0%" height="120.3%" filterUnits="objectBoundingBox" id="filter-3">
            <feGaussianBlur stdDeviation="2" in="SourceGraphic"></feGaussianBlur>
        </filter>
        <filter x="-200.0%" y="-10.2%" width="500.0%" height="120.3%" filterUnits="objectBoundingBox" id="filter-4">
            <feGaussianBlur stdDeviation="2" in="SourceGraphic"></feGaussianBlur>
        </filter>
        <filter x="-200.0%" y="-10.2%" width="500.0%" height="120.3%" filterUnits="objectBoundingBox" id="filter-5">
            <feGaussianBlur stdDeviation="2" in="SourceGraphic"></feGaussianBlur>
        </filter>
        <polygon id="path-6" points="20.1285731 36.4887238 0.50016572 36.4887238 0.50016572 0.0698506773 20.1285731 0.0698506773 20.1285731 2.41111838 3.00681311 2.41111838 3.00681311 16.185672 19.170162 16.185672 19.170162 18.5282097 3.00681311 18.5282097 3.00681311 34.1468211 20.1285731 34.1468211"></polygon>
        <path d="M25.6238042,36.4887238 L23.1521843,36.4887238 L2.37059152,4.1554803 L2.17965827,4.1554803 C2.37059152,8.00742765 2.46611926,10.9144858 2.46611926,12.8734798 L2.46611926,36.4887238 L0.115207802,36.4887238 L0.115207802,0.0698506773 L2.56268601,0.0698506773 L23.320076,32.3529287 L23.4638871,32.3529287 C23.320076,29.3645897 23.2487511,26.5248422 23.2487511,23.8336861 L23.2487511,0.0698506773 L25.6238042,0.0698506773 L25.6238042,36.4887238 Z" id="path-8"></path>
        <polygon id="path-10" points="19.821596 36.4887238 0.125746373 36.4887238 0.125746373 0.0698506773 19.821596 0.0698506773 19.821596 2.41111838 2.64086217 2.41111838 2.64086217 16.185672 18.859947 16.185672 18.859947 18.5282097 2.64086217 18.5282097 2.64086217 34.1468211 19.821596 34.1468211"></polygon>
        <path d="M2.89253663,18.4291487 L9.79007555,18.4291487 C12.8380552,18.4291487 15.2031937,17.7427071 16.8843578,16.3729988 C18.5643258,15.0032905 19.405443,12.9814309 19.405443,10.30742 C19.405443,7.53434806 18.5812614,5.5175685 16.9340946,4.25390625 C15.2857315,2.99278402 12.5983745,2.36095289 8.87435325,2.36095289 L2.89253663,2.36095289 L2.89253663,18.4291487 Z M2.89253663,20.620555 L2.89253663,36.4887238 L0.371388507,36.4887238 L0.371388507,0.0692156712 L8.97382669,0.0692156712 C13.4564904,0.0692156712 16.7678858,0.903613762 18.9114125,2.57304495 C21.0526728,4.24247614 22.1244677,6.7545605 22.1244677,10.108028 C22.1244677,12.5496267 21.4856971,14.6089517 20.2081559,16.2860029 C18.9317479,17.9636892 16.991701,19.1663909 14.3869448,19.8979179 L24.2012592,36.4887238 L21.1860806,36.4887238 L11.8657967,20.620555 L2.89253663,20.620555 Z" id="path-12"></path>
        <path d="M16.0017904,18.4137835 L29.0426025,18.4137835 L29.0426025,34.7188616 C25.6225202,36.1857329 21.7764834,36.9185454 17.5021508,36.9185454 C11.9211182,36.9185454 7.64351981,35.3251767 4.66824661,32.1403088 C1.6918643,28.9535714 0.204751442,24.4439081 0.204751442,18.6094494 C0.204751442,14.9759208 0.942793201,11.7524182 2.4188151,8.94143415 C3.89372791,6.12920387 6.00704869,3.95880766 8.75662086,2.4265067 C11.506193,0.896075149 14.6629883,0.128366815 18.2279925,0.128366815 C22.0829636,0.128366815 25.5417411,0.846847098 28.6077753,2.28006882 L27.6152576,4.52898065 C24.5503941,3.09575893 21.3725877,2.37727865 18.0830706,2.37727865 C13.4215402,2.37727865 9.72369094,3.83231027 6.9895845,6.74050409 C4.25664876,9.6499442 2.8890718,13.573856 2.8890718,18.5122396 C2.8890718,23.8899368 4.18696057,27.9353609 6.78489467,30.6485119 C9.3817813,33.3610398 13.1957775,34.7188616 18.2279925,34.7188616 C21.485469,34.7188616 24.251616,34.2539993 26.5264951,33.3255208 L26.5264951,20.7611514 L16.0017904,20.7611514 L16.0017904,18.4137835 Z" id="path-14"></path>
        <polygon id="path-16" points="0.314508929 0.0692156712 2.54916295 0.0692156712 2.54916295 36.4880888 0.314508929 36.4880888"></polygon>
    </defs>
    <g id="Page-1" stroke="none" stroke-width="1" fill="none" fill-rule="evenodd">
        <g id="Launching-Energi-3.0-Copy-17" transform="translate(-515.000000, -623.000000)">
            <g id="Group-2" transform="translate(515.000000, 623.000000)">
                <g id="Group">
                    <g>
                        <g id="Group-1231">
                            <mask id="mask-2" fill="white">
                                <use xlink:href="#path-1"></use>
                            </mask>
                            <g id="Clip-1230"></g>
                            <polygon id="Fill-1229" fill="#00E676" mask="url(#mask-2)" points="-6.29157913 -6.25 69.8428829 -6.25 69.8428829 68.75 -6.29157913 68.75"></polygon>
                            <rect id="Rectangle" fill="#FFFFFF" filter="url(#filter-3)" mask="url(#mask-2)" x="43" y="1" width="3" height="59"></rect>
                            <rect id="Rectangle-Copy-2" fill="#FFFFFF" filter="url(#filter-4)" mask="url(#mask-2)" x="15" y="1" width="3" height="59"></rect>
                            <rect id="Rectangle-Copy" fill="#FFFFFF" filter="url(#filter-5)" mask="url(#mask-2)" x="45" y="1" width="3" height="59"></rect>
                        </g>
                        <g id="Group-1234" transform="translate(76.450893, 12.834821)">
                            <mask id="mask-7" fill="white">
                                <use xlink:href="#path-6"></use>
                            </mask>
                            <use id="Clip-1233" fill="#FFFFFF" xlink:href="#path-6"></use>
                            <polygon id="Fill-1232" fill="#FFFFFF" mask="url(#mask-7)" points="-5.75659835 -6.2802109 26.3853372 -6.2802109 26.3853372 42.8387854 -5.75659835 42.8387854"></polygon>
                        </g>
                        <g id="Group-1237" transform="translate(106.584821, 12.834821)">
                            <mask id="mask-9" fill="white">
                                <use xlink:href="#path-8"></use>
                            </mask>
                            <use id="Clip-1236" fill="#FFFFFF" xlink:href="#path-8"></use>
                            <polygon id="Fill-1235" fill="#FFFFFF" mask="url(#mask-9)" points="-5.99661193 -6.2802109 31.7356239 -6.2802109 31.7356239 42.8387854 -5.99661193 42.8387854"></polygon>
                        </g>
                        <g id="Group-1240" transform="translate(145.647321, 12.834821)">
                            <mask id="mask-11" fill="white">
                                <use xlink:href="#path-10"></use>
                            </mask>
                            <use id="Clip-1239" fill="#FFFFFF" xlink:href="#path-10"></use>
                            <polygon id="Fill-1238" fill="#FFFFFF" mask="url(#mask-11)" points="-6.15215541 -6.2802109 26.0994978 -6.2802109 26.0994978 42.8387854 -6.15215541 42.8387854"></polygon>
                        </g>
                        <g id="Group-1243" transform="translate(175.223214, 12.834821)">
                            <mask id="mask-13" fill="white">
                                <use xlink:href="#path-12"></use>
                            </mask>
                            <use id="Clip-1242" fill="#FFFFFF" xlink:href="#path-12"></use>
                            <polygon id="Fill-1241" fill="#FFFFFF" mask="url(#mask-13)" points="-5.92439904 -6.28084591 30.4970467 -6.28084591 30.4970467 42.8387854 -5.92439904 42.8387854"></polygon>
                        </g>
                        <g id="Group-1246" transform="translate(206.473214, 12.834821)">
                            <mask id="mask-15" fill="white">
                                <use xlink:href="#path-14"></use>
                            </mask>
                            <use id="Clip-1245" fill="#FFFFFF" xlink:href="#path-14"></use>
                            <polygon id="Fill-1244" fill="#FFFFFF" mask="url(#mask-15)" points="-5.9568929 -6.10303199 35.2042469 -6.10303199 35.2042469 43.1499442 -5.9568929 43.1499442"></polygon>
                        </g>
                        <g id="Group-1249" transform="translate(247.209821, 12.834821)">
                            <mask id="mask-17" fill="white">
                                <use xlink:href="#path-16"></use>
                            </mask>
                            <use id="Clip-1248" fill="#FFFFFF" xlink:href="#path-16"></use>
                            <polygon id="Fill-1247" fill="#FFFFFF" mask="url(#mask-17)" points="-5.26584821 -6.28084591 8.12952009 -6.28084591 8.12952009 42.8381504 -5.26584821 42.8381504"></polygon>
                        </g>
                    </g>
                </g>
            </g>
        </g>
    </g>
</svg>