<svg xmlns="http://www.w3.org/2000/svg" viewBox="0 0 636.49 130.89"><title>ShapeShift Logo</title><path d="M562.05,104.11h8V56.41h-8m0-6.21h8v-8h-8m-370.23-.45c-8.72,0-18,3.42-18,11.75,0,7.45,8.53,9.6,18.61,11.27,13.72,2.15,27.23,4.89,27.23,20.37s-14.78,20.37-27.91,20.37c-12.15,0-23.71-4.41-29-15.87l7.06-4.11c4.41,8.13,13.61,12,22,12s19.39-2.65,19.39-12.73c.1-8.53-9.5-11-19.79-12.54-13.22-2.06-26-5.1-26-19-.19-14.3,14.4-19.2,26.25-19.2,10.19,0,19.89,2.05,26,12.44l-6.47,4c-3.72-6-11.65-8.71-19.29-8.81m42.3-6V63.79c4.11-6.37,10.58-8.52,16.75-8.62,13.61,0,20.27,9,20.27,22.33v26.64h-7.93V77.6c0-9.5-4.9-14.89-13.72-14.89s-15.28,7-15.28,15.77v25.66h-8V35.58h7.94v.1m69,26.9c-9.6,0-17.33,6.86-17.33,17.63s7.73,17.73,17.33,17.73c23.31,0,23.31-35.46.1-35.46Zm17.63,41.73-.19-8.82c-3.82,6.66-11.17,9.8-17.83,9.8-13.91,0-24.78-9.6-24.78-25.37s11.07-25.08,24.88-25c7.25,0,14.4,3.33,17.93,9.6l.09-8.82h7.84v48.39h-7.74l-.19.2Zm58-24.1c0-10.87-7.15-17.34-17-17.34-10.09,0-16.94,7.45-16.94,17.34s7.15,17.34,16.94,17.44,17-6.56,17-17.44ZM336.06,55.92h7.64l.39,9.3A21.4,21.4,0,0,1,362.7,55c13.91.29,24.1,10.09,24.1,25,0,15.28-10.09,25.18-24.59,25.18-6.85,0-14.49-2.94-18.31-9.8v31.54h-7.84v-71Zm97.61,20.47c-.4-9.4-6.86-14.49-16.36-14.49-8.43,0-15.77,5.09-17.14,14.39h33.49v.1Zm4.7,20c-4.9,5.78-13.32,8.62-20.87,8.62-15,0-25.46-9.89-25.46-25.27,0-14.59,10.48-25.07,25.07-25.07,14.79,0,26.06,9.11,24.19,28.4H400.17c.88,8.92,8.22,14.5,17.53,14.5,5.48,0,12.14-2.16,15.38-6.07l5.38,4.89Zm36.5-54.65c-8.72,0-18,3.42-18,11.75,0,7.45,8.52,9.6,18.61,11.27,13.71,2.15,27.23,4.89,27.23,20.37s-14.79,20.37-27.92,20.37c-12.14,0-23.7-4.41-29-15.87l7.05-4.11c4.41,8.13,13.62,12,22,12s19.39-2.65,19.39-12.73c.1-8.53-9.5-11-19.78-12.54-13.23-2.06-26.06-5.1-26.06-19-.19-14.3,14.4-19.2,26.25-19.2,10.19,0,19.89,2.05,26,12.44l-6.46,4c-3.73-6-11.66-8.71-19.3-8.81M517,35.65V63.76c4.11-6.37,10.58-8.52,16.75-8.62,13.61,0,20.27,9,20.27,22.33v26.64h-7.93V77.57c0-9.5-4.9-14.89-13.71-14.89S517.1,69.63,517.1,78.45v25.66h-8V35.55H517v.1m68.4,68.71v-.1h-.1l.1.1m9.51-51.87c0-7.25,3.33-10.48,8.52-10.48h.3l1.81-6.9a17.69,17.69,0,0,0-2.31-.16C593.05,35,587,41.43,587,52.49v3.82h-9.5v7.06H587v40.74h7.94V63.37h9.61V56.31h-9.61V52.49m40.93,44.9a12,12,0,0,1-1.86.16c-5.78,0-7.64-3.63-7.64-9.31V63.3h10.31v-7H626.44V41.62l-8,.88V56.34h-9.7v7h9.7V88.24c0,10.68,4.9,16.75,15.28,16.56a21.12,21.12,0,0,0,3.74-.45l-1.59-7M111.91,11.72l-5.8,34.77L85.49,22.23Zm-5.67,49.73,5.16,19L71.93,91.37ZM20.33,51.87,41.49,24.23H78.23l23.49,27.64ZM99,58.7,60.74,92.07l-39-33.37H99ZM34.4,22.25,15.5,46.94,9.69,11.85,34.4,22.24Zm15,69.11L9.57,80.51,15,61.92Zm7.35,9.08-7.52,8.28a124.94,124.94,0,0,0-20.86-16l28.38,7.73Zm36.48-7.85a125,125,0,0,0-20.8,16.2l-7.68-8.36,28.48-7.84ZM120.64.9,79.16,17.4H40.49L.93.77l9,54.3L1.29,84.47,23.8,97.93a118,118,0,0,1,28.38,23.69l8.77,10,9.2-10.55A117.65,117.65,0,0,1,97.47,98l22.08-13.54-8-29.36Z" transform="translate(-0.93 -0.77)" style="fill:#fffffe;fill-rule:evenodd"/></svg>
