<svg xmlns="http://www.w3.org/2000/svg" width="50" height="52" viewBox="0 0 50 52">
  <metadata><?xpacket begin="﻿" id="W5M0MpCehiHzreSzNTczkc9d"?>
<x:xmpmeta xmlns:x="adobe:ns:meta/" x:xmptk="Adobe XMP Core 5.6-c142 79.160924, 2017/07/13-01:06:39        ">
   <rdf:RDF xmlns:rdf="http://www.w3.org/1999/02/22-rdf-syntax-ns#">
      <rdf:Description rdf:about=""/>
   </rdf:RDF>
</x:xmpmeta>
                                                                                                    
                                                                                                    
                                                                                                    
                                                                                                    
                                                                                                    
                                                                                                    
                                                                                                    
                                                                                                    
                                                                                                    
                                                                                                    
                                                                                                    
                                                                                                    
                                                                                                    
                                                                                                    
                                                                                                    
                                                                                                    
                                                                                                    
                                                                                                    
                                                                                                    
                                                                                                    
                           
<?xpacket end="w"?></metadata>
<defs>
    <style>
      .cls-1 {
        fill: #e24b4b;
      }

      .cls-2 {
        fill: none;
        stroke: #fff;
        stroke-width: 3px;
      }

      .cls-2, .cls-3 {
        fill-rule: evenodd;
      }

      .cls-3 {
        fill: #fff;
      }
    </style>
  </defs>
  <rect id="Rectangle_1_copy_5" data-name="Rectangle 1 copy 5" class="cls-1" width="50" height="52" rx="3" ry="3"/>
  <path id="Color_Fill_1_copy_3" data-name="Color Fill 1 copy 3" class="cls-2" d="M1393,538.494c-5.2-8.293-13.56-12.637-22-12.489-8.44-.148-16.8,4.2-22,12.489-0.03.053,0.98,9.013,7.64,19.462,4.65,7.312,14.18,12.051,14.36,12.044s9.71-4.732,14.36-12.044C1392.02,547.507,1393.03,538.547,1393,538.494Z" transform="translate(-1346 -522)"/>
  <path id="Color_Fill_2_copy" data-name="Color Fill 2 copy" class="cls-3" d="M1379.23,541.227a7.43,7.43,0,0,0-.76-0.372,6.594,6.594,0,0,0,.06-0.886,7.415,7.415,0,0,0-4.97-6.942,0.482,0.482,0,0,0-.6.252,0.463,0.463,0,0,0,.22.6,4.691,4.691,0,0,1,2.62,4.192,4.6,4.6,0,0,1-.32,1.681,7.131,7.131,0,0,0-8.98-.034,4.627,4.627,0,0,1-.31-1.642,4.69,4.69,0,0,1,2.62-4.192,0.463,0.463,0,0,0,.22-0.6,0.481,0.481,0,0,0-.6-0.252,7.411,7.411,0,0,0-4.97,6.942,8.737,8.737,0,0,0,.05.881,7.453,7.453,0,0,0-.76.377,7.347,7.347,0,0,0-3.63,7.686,0.474,0.474,0,0,0,.94-0.081v-0.069a4.748,4.748,0,0,1,3.97-4.833,6.732,6.732,0,0,0-.09,1.107,6.92,6.92,0,0,0,4.65,6.489,4.866,4.866,0,0,1-6.34.988,0.482,0.482,0,0,0-.64.111,0.459,0.459,0,0,0,.07.633,7.659,7.659,0,0,0,8.62.749,7.246,7.246,0,0,0,.7-0.449,7.669,7.669,0,0,0,9.33-.3,0.459,0.459,0,0,0,.07-0.633,0.478,0.478,0,0,0-.64-0.111,4.885,4.885,0,0,1-5.01.128,4.682,4.682,0,0,1-1.34-1.129,6.915,6.915,0,0,0,4.61-6.472,8.182,8.182,0,0,0-.09-1.116,4.86,4.86,0,0,1,1.62.564,4.682,4.682,0,0,1,2.4,4.321,0.475,0.475,0,0,0,.94.107A7.383,7.383,0,0,0,1379.23,541.227Zm-5.12.432a4.886,4.886,0,0,1-3.96,1.048,4.786,4.786,0,0,1-2.29-1.069A4.733,4.733,0,0,1,1374.11,541.659Zm-7.81,3.383a4.743,4.743,0,0,1,.1-0.928,4.918,4.918,0,0,1,2.1,1.386,4.861,4.861,0,0,1,.51.714,4.641,4.641,0,0,1,.57,3.191A4.586,4.586,0,0,1,1366.3,545.042Zm6.11,4.346a4.738,4.738,0,0,1,.22-2.442,5.552,5.552,0,0,1,.35-0.732,4.937,4.937,0,0,1,.52-0.714,4.753,4.753,0,0,1,2.04-1.368A4.555,4.555,0,0,1,1372.41,549.388Z" transform="translate(-1346 -522)"/>
</svg>
