<svg xmlns="http://www.w3.org/2000/svg" width="50" height="52" viewBox="0 0 50 52">
  <metadata><?xpacket begin="﻿" id="W5M0MpCehiHzreSzNTczkc9d"?>
<x:xmpmeta xmlns:x="adobe:ns:meta/" x:xmptk="Adobe XMP Core 5.6-c142 79.160924, 2017/07/13-01:06:39        ">
   <rdf:RDF xmlns:rdf="http://www.w3.org/1999/02/22-rdf-syntax-ns#">
      <rdf:Description rdf:about=""/>
   </rdf:RDF>
</x:xmpmeta>
                                                                                                    
                                                                                                    
                                                                                                    
                                                                                                    
                                                                                                    
                                                                                                    
                                                                                                    
                                                                                                    
                                                                                                    
                                                                                                    
                                                                                                    
                                                                                                    
                                                                                                    
                                                                                                    
                                                                                                    
                                                                                                    
                                                                                                    
                                                                                                    
                                                                                                    
                                                                                                    
                           
<?xpacket end="w"?></metadata>
<defs>
    <style>
      .cls-1, .cls-3 {
        fill: #fff;
      }

      .cls-1 {
        opacity: 0.0;
      }

      .cls-2 {
        fill: none;
        stroke: #fff;
        stroke-width: 3px;
      }

      .cls-2, .cls-3 {
        fill-rule: evenodd;
      }
    </style>
  </defs>
  <rect id="Rectangle_1_copy_6" data-name="Rectangle 1 copy 6" class="cls-1" width="50" height="52" rx="3" ry="3"/>
  <path id="Color_Fill_1_copy_4" data-name="Color Fill 1 copy 4" class="cls-2" d="M2994,464.494c-5.2-8.293-13.56-12.637-22-12.489-8.44-.148-16.8,4.2-22,12.489-0.03.053,0.98,9.013,7.64,19.462,4.65,7.312,14.18,12.051,14.36,12.044s9.71-4.732,14.36-12.044C2993.02,473.507,2994.03,464.547,2994,464.494Z" transform="translate(-2947 -448)"/>
  <path id="_" data-name="?" class="cls-3" d="M2973.71,478.121a4.4,4.4,0,0,1,.9-2.906l1.63-1.6a6.2,6.2,0,0,0,2.01-4.259,4.827,4.827,0,0,0-1.49-3.782,5.949,5.949,0,0,0-4.15-1.353,6.111,6.111,0,0,0-4.16,1.366,4.748,4.748,0,0,0-1.6,3.715h3.23a2.258,2.258,0,0,1,.69-1.737,2.625,2.625,0,0,1,1.84-.64,2.374,2.374,0,0,1,1.81.655,2.674,2.674,0,0,1,.61,1.9,3.069,3.069,0,0,1-.53,1.747,13.107,13.107,0,0,1-1.63,1.785,5.911,5.911,0,0,0-2.17,5.115h3.01Zm-2.77,5.33a2.108,2.108,0,0,0,2.7,0,1.662,1.662,0,0,0,.48-1.214,1.688,1.688,0,0,0-.49-1.248,2.069,2.069,0,0,0-2.67-.013,1.714,1.714,0,0,0-.49,1.261A1.7,1.7,0,0,0,2970.94,483.451Z" transform="translate(-2947 -448)"/>
</svg>
