<svg xmlns="http://www.w3.org/2000/svg" width="164" height="171" viewBox="0 0 164 171">
    <g fill="none" fill-rule="evenodd">
        <path fill="#E3EDFF" fill-rule="nonzero" stroke="#2E2E31" stroke-width="4.472" d="M18.342 149.799l77.254.892 16.345-138.02H3.644z"/>
        <g transform="translate(3 3)">
            <ellipse cx="54.106" cy="147.634" fill="#E3EDFF" fill-rule="nonzero" stroke="#2E2E31" stroke-width="4.472" rx="39.35" ry="11.602"/>
            <g fill-rule="nonzero" transform="translate(10.732 39.25)">
                <path fill="#FFF" d="M87.195 6.393L74.412 109.101h-61.18L.485 6.393z"/>
                <path fill="#FFF" d="M87.195 6.393L74.412 109.101h-61.18L.485 6.393z"/>
                <ellipse cx="43.991" cy="6.865" fill="#F6F6F6" stroke="#F6F6F6" stroke-width=".894" rx="43.544" ry="7.312"/>
                <ellipse cx="44.08" cy="108.585" fill="#FFF" stroke="#FFF" stroke-width=".894" rx="30.218" ry="6.445"/>
            </g>
            <path fill="#313131" fill-rule="nonzero" stroke="#2E2E31" stroke-width="4.472" d="M72.488 152.965l20.108-5.274L108.94 9.671c.697-.958-1.326-2.147-6.07-3.567C98.127 4.683 90.144 2.876 78.92.682L88.959 17.52l-16.47 135.445z" opacity=".116"/>
            <ellipse cx="54.776" cy="9.366" fill="#E3EDFF" fill-rule="nonzero" stroke="#2E2E31" stroke-width="4.472" rx="54.776" ry="9.366"/>
        </g>
        <g>
            <path fill="#FFD166" d="M158.378 118.82c-6.433 0-11.65-5.254-11.65-11.734 0-2.041.519-3.961 1.43-5.632-1.372.43-2.83.663-4.342.663-8.041 0-14.561-6.567-14.561-14.665 0-.3.027-.593.045-.887a14.421 14.421 0 0 1-4.949.887c-8.04 0-14.56-6.566-14.56-14.667 0-1.667.292-3.26.803-4.75-.865.187-1.76.294-2.682.294-4.767 0-8.916-2.677-11.041-6.619-24.098 5.156-42.182 26.705-42.182 52.512 0 29.654 23.87 53.695 53.315 53.695 28.02 0 50.975-21.779 53.131-49.441-.886.215-1.806.343-2.757.343"/>
            <path fill="#7D593A" d="M110.596 124.98c0 6.938-5.584 12.562-12.473 12.562-6.89 0-12.473-5.624-12.473-12.562 0-6.939 5.583-12.563 12.473-12.563 6.89 0 12.473 5.624 12.473 12.563"/>
            <path fill="#2E2E31" d="M98.123 115.127c-5.395 0-9.782 4.42-9.782 9.852s4.387 9.853 9.782 9.853c5.396 0 9.783-4.42 9.783-9.853 0-5.432-4.387-9.852-9.783-9.852m0 25.124c-8.36 0-15.163-6.85-15.163-15.272 0-8.421 6.803-15.272 15.163-15.272s15.164 6.85 15.164 15.272-6.803 15.272-15.164 15.272"/>
            <path fill="#7D593A" d="M54.695 114.443c1.504 1.21 3.383 1.964 5.457 1.964 4.853 0 8.787-3.964 8.787-8.852s-3.934-8.85-8.787-8.85c-1.2 0-2.343.246-3.385.685a54.015 54.015 0 0 0-2.077 14.833c0 .074.005.146.005.22M98.968 85.605c0 3.804-3.062 6.888-6.84 6.888-3.777 0-6.838-3.084-6.838-6.888 0-3.805 3.061-6.888 6.839-6.888 3.777 0 6.839 3.083 6.839 6.888"/>
            <path fill="#2E2E31" d="M92.13 81.426c-2.288 0-4.15 1.875-4.15 4.179 0 2.303 1.862 4.178 4.15 4.178 2.286 0 4.148-1.875 4.148-4.178 0-2.304-1.862-4.179-4.149-4.179m0 13.776c-5.255 0-9.53-4.305-9.53-9.597 0-5.293 4.275-9.598 9.53-9.598 5.256 0 9.528 4.305 9.528 9.598 0 5.292-4.272 9.597-9.528 9.597"/>
            <path fill="#7D593A" d="M142.144 132.403c0 3.804-3.062 6.888-6.84 6.888-3.777 0-6.839-3.084-6.839-6.888 0-3.805 3.062-6.888 6.84-6.888 3.777 0 6.839 3.083 6.839 6.888"/>
            <path fill="#2E2E31" d="M135.305 128.224c-2.287 0-4.149 1.876-4.149 4.179 0 2.303 1.862 4.178 4.149 4.178s4.149-1.875 4.149-4.178-1.862-4.179-4.15-4.179m0 13.776c-5.255 0-9.529-4.304-9.529-9.597 0-5.293 4.274-9.598 9.53-9.598 5.255 0 9.528 4.305 9.528 9.598 0 5.293-4.273 9.597-9.528 9.597"/>
            <path fill="#7D593A" d="M108.003 167.916c1.548 0 3.078-.077 4.594-.208.086-.541.145-1.094.145-1.661 0-5.68-4.572-10.283-10.211-10.283-5.474 0-9.93 4.343-10.184 9.795a52.936 52.936 0 0 0 15.656 2.357"/>
            <path fill="#010202" d="M158.378 118.82c-.654 0-1.291-.068-1.915-.172-8.708 21.478-29.633 36.624-54.093 36.624-16.99 0-32.282-7.31-42.96-18.968 8.362 18.637 26.968 31.613 48.594 31.613 28.02 0 50.975-21.779 53.131-49.441-.886.215-1.806.343-2.757.343" opacity=".2"/>
            <path fill="#2E2E31" d="M115.354 164.654c-.692-6.51-6.175-11.6-12.823-11.6-5.698 0-10.54 3.72-12.234 8.928-17.854-6.736-30.948-23.348-32.704-43.2.836.197 1.686.333 2.56.333 6.328 0 11.477-5.185 11.477-11.56 0-6.158-4.808-11.19-10.839-11.527 5.817-15.176 18.645-27.147 34.837-31.248a15.213 15.213 0 0 0 11.562 6.242c-.06.587-.092 1.176-.092 1.763 0 9.581 7.741 17.376 17.253 17.376.802 0 1.602-.058 2.397-.173 1.243 8.512 8.627 14.988 17.468 14.834-.12.748-.18 1.505-.18 2.264 0 7.867 6.28 14.285 14.056 14.44-3.195 22.292-20.879 39.862-42.738 43.128m-7.352.553c-.981 0-1.959-.037-2.933-.093-.303-.018-.6-.047-.902-.068a45.644 45.644 0 0 1-3.05-.323 47.764 47.764 0 0 1-1.963-.313c-.317-.056-.635-.109-.95-.17-.8-.159-1.595-.34-2.386-.536-.131-.033-.266-.058-.398-.093 1.004-3.002 3.815-5.137 7.111-5.137 3.848 0 7.03 2.926 7.467 6.686-.663.027-1.327.047-1.996.047m-47.85-63.794c3.362 0 6.097 2.755 6.097 6.142 0 3.386-2.735 6.14-6.096 6.14-1.087 0-2-.3-2.721-.677.025-1.024.047-2.05.13-3.062.01-.103.026-.206.035-.309.11-1.214.267-2.417.463-3.609l.12-.723a51.27 51.27 0 0 1 .814-3.788c.38-.074.768-.114 1.159-.114m103.662 17.274a2.71 2.71 0 0 0-.938-2.276 2.687 2.687 0 0 0-2.378-.57 8.944 8.944 0 0 1-2.12.268c-4.942 0-8.962-4.046-8.962-9.023 0-1.512.38-3.008 1.1-4.329a2.723 2.723 0 0 0-.276-3.018 2.68 2.68 0 0 0-2.883-.873c-1.144.36-2.335.542-3.542.542-6.545 0-11.87-5.365-11.87-11.957 0-.162.012-.323.023-.482l.014-.244a2.713 2.713 0 0 0-1.074-2.332 2.68 2.68 0 0 0-2.526-.377 11.736 11.736 0 0 1-4.032.726c-6.545 0-11.872-5.364-11.872-11.957 0-1.295.22-2.596.658-3.866a2.733 2.733 0 0 0-.53-2.684 2.682 2.682 0 0 0-2.587-.85c-4.4.97-8.723-1.146-10.783-4.969a2.682 2.682 0 0 0-2.924-1.357c-20.372 4.36-36.3 19.866-42.016 39.305-.038.092-.087.18-.115.277-.077.27-.13.547-.203.82-.24.885-.466 1.777-.664 2.677-.078.361-.143.722-.215 1.086a55.09 55.09 0 0 0-.452 2.565c-.041.276-.09.552-.127.829a56.25 56.25 0 0 0-.346 3.317c-.022.261-.036.523-.052.785a55.338 55.338 0 0 0-.122 3.501c0 .022.003.194.005.233v.007c.106 25.219 16.724 46.583 39.509 53.667.014.005.027.016.041.021.163.05.332.083.495.132.99.298 1.993.564 3.005.806.317.076.634.153.952.222 1.187.262 2.385.497 3.598.681.115.018.228.027.343.043 1.113.163 2.24.286 3.373.382.318.025.632.05.95.072 1.233.081 2.476.139 3.73.139.8 0 1.609-.022 2.44-.06.61-.027 1.212-.074 1.816-.12.192-.015.373-.02.569-.039.007 0 .014-.003.022-.005 26.865-2.37 48.826-24.228 50.966-51.715"/>
        </g>
    </g>
</svg>
