<svg xmlns="http://www.w3.org/2000/svg" xmlns:xlink="http://www.w3.org/1999/xlink" width="36" height="36" viewBox="0 0 36 36"><defs><mask id="a" x="0" y="0" width="36" height="36" maskUnits="userSpaceOnUse"><rect width="36" height="36" rx="4" style="fill:#fff"/></mask><mask id="b" x="10" y="10" width="16" height="16" maskUnits="userSpaceOnUse"><path d="M15,23l6-5-6-5Z" style="fill:#fff;fill-rule:evenodd"/></mask></defs><title>next-page-button</title><rect width="36" height="36" rx="4" style="fill:#fff"/><g style="mask:url(#a)"><path d="M36,36H0V0H36Z" style="fill:#fff;fill-rule:evenodd"/></g><path d="M32,35.5A3.5,3.5,0,0,0,35.5,32V4A3.5,3.5,0,0,0,32,.5H4A3.5,3.5,0,0,0,.5,4V32A3.5,3.5,0,0,0,4,35.5Z" style="fill:none;stroke:#1eb8e7"/><g style="mask:url(#b)"><path d="M26,26H10V10H26Z" style="fill:#99968c;fill-rule:evenodd"/></g></svg>