<svg xmlns="http://www.w3.org/2000/svg" width="60" height="60" viewBox="0 0 60 60">
    <g fill="none" fill-rule="evenodd" transform="translate(3)">
        <path fill="#1EB8E7" d="M21.435 55.346c-18.76 0-17.466-12.19-15.965-14.37 7.299-10.64 24.676-10.625 31.96 0 1.442 2.107 3.002 14.37-15.995 14.37z"/>
        <path fill="#0C9FE1" d="M34.457 38.151c-6.511 7.64-19.072 8.093-27.783 1.361 6.704-7.96 21.45-8.78 27.783-1.36z"/>
        <path stroke="#163150" stroke-linecap="round" stroke-linejoin="round" stroke-width="2.948" d="M37.43 40.976c-3.597-5.215-9.584-8.338-15.987-8.338-6.403 0-12.39 3.123-15.988 8.338-1.486 2.18-2.764 14.37 15.98 14.37 18.433 0 18.849-10.229 15.995-14.37z"/>
        <ellipse cx="21.772" cy="23.652" fill="#FFF" stroke="#163150" stroke-linecap="round" stroke-linejoin="round" stroke-width="2.948" rx="14.269" ry="14.287" transform="rotate(-47.36 21.772 23.652)"/>
        <path fill="#FFD166" d="M6.11 11.707L7.268 24.38s.58-11.912 8.651-12.131c1.1 13.068 20.246 10.785 20.246 10.785.61-10.244 1.487-13.288-.684-16.536C31.365.424 20.885-.263 15.92 4.624 9.097 2.927 5.381 7.068 6.11 11.707z"/>
        <path stroke="#163150" stroke-linecap="round" stroke-linejoin="round" stroke-width="2.948" d="M6.11 11.707L7.268 24.38s.58-11.912 8.651-12.131c1.1 13.068 20.246 10.785 20.246 10.785.61-10.244 1.487-13.288-.684-16.536C31.365.424 20.885-.263 15.92 4.624 9.097 2.927 5.693 7.127 6.11 11.707z"/>
        <path fill="#E3EDFF" fill-rule="nonzero" d="M24.512 46.566l-3.18-.527a1.479 1.479 0 0 1-1.199-1.05 1.45 1.45 0 0 1 .47-1.511l8.666-7.17a1.503 1.503 0 0 1 2.2.336l6.184 9.57a1.444 1.444 0 0 1-.004 1.596 1.496 1.496 0 0 1-1.483.644l-3.077-.498c0 3.161 2.052 6.41 6.987 4.8a1.498 1.498 0 0 1 1.751.639c.358.592.248 1.35-.265 1.82-3.211 2.644-7.72 3.136-11.441 1.248-3.722-1.888-5.932-5.788-5.609-9.897zm19.592 6.117l8.547-7.317a1.45 1.45 0 0 0 .461-1.522 1.48 1.48 0 0 0-1.219-1.04l-3.196-.365a10.15 10.15 0 0 0-2.789-7.692 10.483 10.483 0 0 0-7.616-3.24 9.719 9.719 0 0 0-6.674 2.503 1.447 1.447 0 0 0-.24 1.8 1.497 1.497 0 0 0 1.726.644c4.697-1.61 6.987 1.273 7.046 4.712l-3.077-.468a1.496 1.496 0 0 0-1.496.645c-.323.49-.32 1.122.01 1.608l6.302 9.498a1.502 1.502 0 0 0 2.215.234z"/>
        <path fill="#163150" fill-rule="nonzero" d="M52.131 41.415l-1.962-.293c-.239-4.334-2.894-8.183-6.899-10a12.046 12.046 0 0 0-12.202 1.337L19.666 42.35a2.899 2.899 0 0 0-.93 3.032 2.958 2.958 0 0 0 2.417 2.09l1.947.322c.187 4.206 2.653 7.99 6.46 9.91a12.053 12.053 0 0 0 11.943-.632l12.115-10.58a2.898 2.898 0 0 0 .885-3.001 2.957 2.957 0 0 0-2.372-2.077zm-17.14 14.75c-4.83 0-9.855-3.73-8.918-10.828l-2.29-.38-2.214-.367 8.651-7.17 6.184 9.585-4.638-.761c-.773 4.141 1.308 8.4 5.857 8.4a9.287 9.287 0 0 0 2.973-.512 8.222 8.222 0 0 1-5.604 2.034zm8.117-4.565l-6.317-9.498 4.652.688c.714-4.112-1.397-8.312-5.946-8.312a9.15 9.15 0 0 0-2.973.542 8.295 8.295 0 0 1 5.649-2.108c4.786 0 9.781 3.659 8.919 10.712l2.349.352 2.214.336-8.547 7.288z"/>
    </g>
</svg>
