<svg version="1.1" xmlns="http://www.w3.org/2000/svg" xmlns:xlink="http://www.w3.org/1999/xlink" x="0px" y="0px" viewBox="0 0 48 48" xml:space="preserve" width="48" height="48"><g class="nc-icon-wrapper"><path fill="#0e97c0" d="M34,27h-8V3c0-0.55228-0.44772-1-1-1h-2c-0.55228,0-1,0.44772-1,1v24h-8 c-0.375,0-0.71777,0.20947-0.88965,0.54248c-0.1709,0.33301-0.1416,0.73389,0.07617,1.03857l10,14 C23.37402,42.84424,23.67676,43,24,43s0.62598-0.15576,0.81348-0.41895l10-14c0.21777-0.30469,0.24707-0.70557,0.07617-1.03857 C34.71777,27.20947,34.375,27,34,27z"></path></g></svg>