<svg xmlns="http://www.w3.org/2000/svg" width="840" height="663" viewBox="0 0 840 663">
    <g fill="none" fill-rule="evenodd">
        <ellipse cx="529.042" cy="157.419" fill="#C8B1FF" fill-rule="nonzero" rx="105.26" ry="105.22" transform="rotate(-62.75 529.042 157.42)"/>
        <path fill="#D3E6F2" fill-rule="nonzero" d="M691.055 230.356l-1.35-13.626 35.4-3.51 1.35 13.626zM681.025 180.462l-7.411-11.511 29.905-19.278 7.41 11.512zM648.184 134.825l-7.138-4.048 10.525-18.585 7.138 4.048z"/>
        <path fill="#FFF" fill-rule="nonzero" d="M768.935 306.762a22.503 22.503 0 0 1-36.448-21.911 22.502 22.502 0 0 1 42.196-5.302 21.638 21.638 0 0 1 1.862 5.442 22.52 22.52 0 0 1-7.61 21.77z"/>
        <path fill="#163050" fill-rule="nonzero" d="M769 306.642a22.505 22.505 0 0 1-22.94 3.746c-7.75-3.101-13.126-10.235-13.95-18.51-.825-8.276 3.04-16.321 10.027-20.878 10.817 11.146 20.7 25.814 26.863 35.642z" opacity=".03"/>
        <path stroke="#E9EEF3" stroke-linecap="round" stroke-linejoin="round" stroke-width="3" d="M758.97 311.548c-11.445 2.32-22.762-4.502-26.054-15.706-3.291-11.205 2.538-23.065 13.419-27.304 10.881-4.238 23.196.555 28.35 11.034a21.768 21.768 0 0 1 1.86 5.442c2.473 12.18-5.395 24.06-17.575 26.534z"/>
        <path stroke="#E9EEF3" stroke-linecap="round" stroke-linejoin="round" stroke-width="3" d="M744 284c1.945-4.262 6.252-7.003 11-7l-2.19 3.465-2.745-2.184M760 278c4.262 1.945 7.003 6.252 7 11l-3.465-2.19 2.075-2.745M766 295c-1.945 4.262-6.252 7.003-11 7l2.19-3.465 2.099 1.856M750 301c-4.262-1.945-7.003-6.252-7-11l3.465 2.19-2.045 2.29"/>
        <circle cx="769" cy="538" r="71" fill="#FFD167" fill-rule="nonzero"/>
        <path fill="#FED269" fill-rule="nonzero" d="M16.096 457L23 463.897l-4.607 4.598L23 473.103 16.096 480l-4.596-4.598L6.904 480 0 473.103l4.607-4.608L0 463.897 6.904 457l4.596 4.598zM771 166.571v9.858h-6.571V183h-9.858v-6.571H748v-9.858h6.571V160h9.858v6.571z"/>
        <path fill="#C5ECF9" fill-rule="nonzero" d="M296 6.571v9.858h-6.571V23h-9.858v-6.571H273V6.57h6.571V0h9.858v6.571z"/>
        <ellipse cx="275" cy="274.5" fill="#C5ECF9" fill-rule="nonzero" rx="224" ry="223.5"/>
        <circle cx="77" cy="387" r="37" fill="#FFD167" fill-rule="nonzero"/>
        <circle cx="615.5" cy="231.5" r="58.5" fill="#FFD167" fill-rule="nonzero"/>
        <path fill="#163050" fill-rule="nonzero" d="M614.662 627.948c-24.488 1.78-49.376 10.484-72.805 3.171-12.562-3.915-23.71-11.53-36.305-15.337-22.368-6.773-46.316-.884-69.312 3.236-22.996 4.12-48.652 5.964-67.875-7.291-5.676-3.926-10.67-9.093-17.179-11.39-6.27-2.157-13.158-1.467-19.763-.69L170.05 618.51c-12.39 1.445-25.666 2.61-38.262 1.607l-6.897 2.157c-8.444 2.675-15.85.572-18.693 2.092-1.309.712-11.169 6.386-30.273 3.959C65.71 627.02 58 625.22 58 621.046c0-9.557 41.332-6.116 46.165-8.144-21.623-11.282-18.898-34.277 42.522-48.535 32.834-7.615 46.403-15.1 79.788-10.44 33.062 4.615 65.41 15.24 98.785 15.563 46.608.442 90.687-19.08 134.3-35.496 117.392-44.221 202.262-49.614 260.611-37.189 100.742 21.475 203.3 108.666-105.509 131.143z" opacity=".1"/>
        <circle cx="411.5" cy="270.5" r="116.5" fill="#0D9FE2" fill-rule="nonzero" opacity=".1"/>
        <ellipse cx="337.662" cy="60.247" fill="#BCEEF6" fill-rule="nonzero" rx="22.971" ry="22.961" transform="rotate(-66.81 337.662 60.247)"/>
        <path stroke="#CCFCFF" stroke-linecap="round" stroke-linejoin="round" stroke-width="3" d="M352 61.5L337.5 76 323 61.5 337.5 47 352 61.5zm0 .275h-10.7l-3.789-4.614-3.515 4.394H323.01l28.989.22z"/>
        <path fill="#8996A5" fill-rule="nonzero" d="M358.106 69.127c-4.015 9.238-13.667 14.812-23.796 13.742-10.129-1.07-18.366-8.532-20.31-18.399 5.522 9.877 17.51 14.314 28.253 10.457C352.995 71.07 359.29 60.069 357.09 49a22.553 22.553 0 0 1 1.016 20.127z" opacity=".1"/>
        <ellipse cx="337.662" cy="60.247" stroke="#ABE3EC" stroke-linecap="round" stroke-linejoin="round" stroke-width="3" rx="22.971" ry="22.961" transform="rotate(-66.81 337.662 60.247)"/>
        <ellipse cx="241.821" cy="153.221" fill="#BCEEF6" fill-rule="nonzero" rx="22.354" ry="22.346" transform="rotate(-61.18 241.82 153.221)"/>
        <path fill="#8996A5" fill-rule="nonzero" d="M262.187 163.54a22.19 22.19 0 0 1-22.761 13.334A22.186 22.186 0 0 1 220 159.03c5.28 9.584 16.762 13.889 27.044 10.137 10.283-3.75 16.292-14.437 14.155-25.168a22.11 22.11 0 0 1 .988 19.54z" opacity=".1"/>
        <path stroke="#CCFCFF" stroke-linecap="round" stroke-linejoin="round" stroke-width="3" d="M249 140l-16 9.991 5.073 7.68 10.392.329z"/>
        <path stroke="#CCFCFF" stroke-linecap="round" stroke-linejoin="round" stroke-width="3" d="M248 159.488L233.056 168 233 151"/>
        <ellipse cx="241.821" cy="153.221" stroke="#ABE3EC" stroke-linecap="round" stroke-linejoin="round" stroke-width="3" rx="22.354" ry="22.346" transform="rotate(-61.18 241.82 153.221)"/>
        <path fill="#FFF" fill-rule="nonzero" d="M380.853 419.935a8.99 8.99 0 0 1-6.82-2.003c-29.999-24.966-40.324-66.38-25.53-102.41 14.792-36.029 51.304-58.392 90.284-55.299 4.916.395 8.58 4.681 8.184 9.575-.397 4.893-4.704 8.54-9.62 8.146-31.241-2.514-60.52 15.398-72.379 44.276-11.858 28.879-3.564 62.076 20.503 82.062a8.862 8.862 0 0 1 2.853 9.342 8.917 8.917 0 0 1-7.486 6.31h.01zm-89.18-.996a8.99 8.99 0 0 1-9.288-5.283c-32.47-74.72-4.127-161.817 66.189-203.401 4.237-2.514 9.72-1.133 12.246 3.085 2.525 4.218 1.138 9.675-3.1 12.19-62.595 37.007-87.831 114.533-58.935 181.047a8.85 8.85 0 0 1-.434 7.933 8.93 8.93 0 0 1-6.635 4.418l-.043.01zm102.818-37.065a8.901 8.901 0 0 1-8.527-3.897 53.053 53.053 0 0 1 .37-59.45 8.948 8.948 0 0 1 8.05-3.855 8.933 8.933 0 0 1 7.38 5.012 8.857 8.857 0 0 1-.672 8.866 35.337 35.337 0 0 0-.25 39.576 8.852 8.852 0 0 1 .683 8.635 8.925 8.925 0 0 1-7.024 5.113h-.01zm-77.859-6.917c-4.823.56-9.221-2.795-9.93-7.577-.13-.888-.25-1.783-.358-2.685-6.318-52.279 20.656-102.963 67.657-127.129 4.388-2.244 9.773-.524 12.028 3.843 2.256 4.368.527 9.728-3.86 11.973-40.363 20.734-63.529 64.252-58.098 109.137.094.78.2 1.552.316 2.317a8.867 8.867 0 0 1-1.708 6.606 8.948 8.948 0 0 1-5.905 3.46h-.185l.043.055zm97.663-58.455c-3.972.469-7.775-1.74-9.32-5.412-1.908-4.514.213-9.713 4.741-11.626a54.3 54.3 0 0 1 25.014-4.006c4.92.38 8.598 4.657 8.217 9.553-.382 4.897-4.679 8.558-9.598 8.179a36.335 36.335 0 0 0-16.727 2.663 8.896 8.896 0 0 1-2.294.627l-.033.022zm21.316-74.984c-.458.057-.92.079-1.381.064a109.521 109.521 0 0 0-18.532 1.148h-.207c-4.675.296-8.785-3.055-9.415-7.676-.629-4.62 2.437-8.94 7.023-9.893a128.03 128.03 0 0 1 21.664-1.331c4.927.124 8.822 4.199 8.7 9.103-.15 4.378-3.465 8.003-7.83 8.563l-.022.022z"/>
        <path fill="#D8D8D8" fill-rule="nonzero" stroke="#163050" stroke-linecap="round" stroke-linejoin="round" stroke-width="3" d="M216.215 497.091l19.665-.94 28.266-45.677a14.457 14.457 0 0 1 11.638-6.82l101.785-4.648c4.696-.216 6.106 5.404 2.039 10.95l-36.673 51.394a11.939 11.939 0 0 1-8.275 4.918l-1.291.162-.857 1.448a10.145 10.145 0 0 1-7.886 4.929L249.861 519l-14.643-3.783-9.512-2.313-3.656-.67-7.05-3.372s3.243-2.173 1.215-11.77z"/>
        <path fill="#B78C75" fill-rule="nonzero" d="M133.12 298.668c1.182 1.087 2.887-.75 3.019-2.315.13-1.565-.208-3.435.984-4.457.951-.815 2.373-.62 3.63-.695 1.258-.077 2.778-.881 2.57-2.175-.208-1.293-2.001-1.76-2.088-3-.088-1.239 1.268-1.76 2.383-1.913 1.116-.152 2.45-.25 3.019-1.217 1.093-1.924-2.264-4.283-1.236-6.262.689-1.326 2.602-1.087 4.079-.902 1.476.185 3.543-.26 3.499-1.75a7.645 7.645 0 0 1-3.28-2.696c-.69-1.26-.394-3.163.95-3.674a7.546 7.546 0 0 1 2.308-.13 4.11 4.11 0 0 0 3.139-2.303 4.066 4.066 0 0 0-.208-3.872l10.235-2.935a8.567 8.567 0 0 0 2.986-1.282c1.312-1.022 1.924-2.718 3.17-3.805 1.247-1.087 3.806-.967 3.992.674 1.181-2.63 2.822-5.62 5.687-6.033 1.093-.152 2.187.087 3.193 0 1.006-.087 2.187-.804 2.263-1.87.099-1.695-2.515-2.62-2.395-4.348.088-1.26 1.652-1.859 2.92-1.815 1.269.043 2.614.435 3.773-.087 1.356-.598 1.957-2.174 2.187-3.652.026-1.482.292-2.95.787-4.349.645-1.326 2.373-2.304 3.642-1.532l6.878 28.665c.575 1.936.84 3.95.787 5.967a22.168 22.168 0 0 1-2.187 6.827c-2.438 5.652-4.144 11.588-6.627 17.218-2.482 5.631-5.883 11.066-10.935 14.643-1.99 1.413-4.308 2.63-5.402 4.804-1.093 2.174.131 5.598 2.57 5.435a5.086 5.086 0 0 0 .372 6.448 5.162 5.162 0 0 0 6.43.933 3.973 3.973 0 0 0 2.405 4.772c-1.432 6.207-8.223 10.142-14.642 10.012-6.419-.13-12.335-3.468-17.3-7.5-4.964-4.033-9.262-8.838-14.358-12.708a50.362 50.362 0 0 0-9.327-5.598c-1.673-.772-1.673-1.848-3.357-2.566-2.034-.858-1.838-1.326-1.181-2.804.637-1.985.864-4.078.667-6.153z"/>
        <path stroke="#163050" stroke-linecap="round" stroke-linejoin="round" stroke-width="3" d="M193 323.22c-6.796 15.17-17.43 13.53-28.086 7.087-12.85-7.776-25.72-22.552-31.914-23.307"/>
        <path fill="#FFF" fill-rule="nonzero" d="M130.576 492.304c-14.854.411-30.377 15.418-33.488 25.696 5.034-14.595 10.165-17.841 11.786-31.636.01 0 5.639 3.094 21.702 5.94zm-57.254-92.55l.356-4.143c4.861-.898 19.261-3.246 32.052 5.053 2.247 1.709 4.505 6.578.454 7.8-.357 6.676 0 17.311 0 17.311 6.211 9.651 7.065 24.084 6.481 35.445 10.177 6.22 30.842 12.886 43.438 17.841 6.903 2.716 13.407 5.204 18.927 6.968 4.548 1.46 9.517-.682 12.401-.476 6.059.687 12.05 1.878 17.911 3.56-3.154-8.927-8.285-29.03-8.188-41.926.097-12.897 5.941-28.487 5.941-28.487 7.476.811 18.279-3.062 20.342-17.128 5.585-.898 6.935-.27 6.482-8.2-.454-7.931-3.241-24.074-11.97-44.717-8.728-20.644-16.204-26.962-23.41-25.696-5.314 11.447-12.963 16.586-29.793 6.134-16.831-10.451-21.25-19.832-30.702-22.093-19.629 7.66-39.16 20.557-48.342 37.684-9.183 17.127-11.7 27.59-13.688 50.04-.172 1.417 1.264 5.03 1.264 5.03h.044z"/>
        <path stroke="#163050" stroke-linecap="round" stroke-linejoin="round" stroke-width="3" d="M215.644 364c-2.182 17.302 8.368 27.932 7.277 37.307-1.091 9.376-7.452 21.27-24.732 18.2-17.281-3.072-41.271 1.805-54.548-.184-13.277-1.99-17.641-11.895-17.641-11.895M74.777 400.899c-3.92.575-6.042-4.086 0-5.145 10.362-1.807 21.45-.484 30.448 5.26 1.56.99 3.15 2.302 3.616 4.132.466 1.83-.075 4.156-1.873 3.822M106 425s6.236 18.5 5.993 37M201.75 420c-10.214 22.79-5.144 46.124 2.25 70M109 489c-1.048 12.627-6.862 17.25-11 28"/>
        <path stroke="#163050" stroke-linecap="round" stroke-linejoin="round" stroke-width="3" d="M223.268 402s3.348-.775 4.446-1.092c9.816-2.86-13.994-85.158-33.122-78.717-6.803 15.143-17.448 13.505-28.115 7.075-12.864-7.763-25.748-22.513-31.948-23.266-33.294 13.025-59.515 35.8-62.529 90.749"/>
        <path fill="#B78C75" fill-rule="nonzero" d="M201.739 419.23L199 426.79c2.06 16.34 2.465 29.3 18.493 41.85L240.915 487 249 473.77c-4.93-10.66-23.96-28.08-23.96-28.08-.405-18.09 1.918-44.69 1.918-44.69l-5.204 1.22c-2.76 14.31-7.417 15.39-20.015 17.01zM74 395.84s.14 50.933.68 64.37c.541 13.437.411 20.295 14.46 23.38 14.049 3.086 65.921 13.309 69.433 14.115 3.512.806 10.677 5.912 16.891 6.052 6.214.14 25.936 2.29 28.908 2.956 2.972.667 7.565 1.881 9.456.946a5.305 5.305 0 0 0 3.112-5.643c-.54-2.548-.4-5.773-3.101-8.063-2.702-2.29-11.347-6.987-17.831-7.793-6.484-.807-21.344 0-24.445-1.075-3.102-1.075-59.707-23.51-61.328-24.187a30.392 30.392 0 0 0-4.993-1.204c-.27-12.76.41-52.007 1.492-56.576-4.907-7.191-23.008-9.567-32.734-7.277z"/>
        <path stroke="#163050" stroke-linecap="round" stroke-linejoin="round" stroke-width="3" d="M204 492l5.007 1.64c3.912 1.278 6.058 2.07 7.741 8.957.4 1.617.789 5.01-2.756 4.309M203 497c11.416 3.588 8.257 5.96 9 9M197 500.064s11.385-1.31 17 7.936"/>
        <path stroke="#163050" stroke-linecap="round" stroke-linejoin="round" stroke-width="3" d="M103 460c9.87.808 2.162 1.755 69.657 26.03 8.725 1.292 17.18-.518 25.775 1.442a67.7 67.7 0 0 1 15.07 6.106c3.698 1.96 3.655 4.965 4.498 8.422"/>
        <path stroke="#163050" stroke-linecap="round" stroke-linejoin="round" stroke-width="3" d="M206 508s-17.845-3.915-27.375-3.755c-8.901.15-14.268-5.18-22.063-6.532-10.581-1.835-37.805-6.716-66.296-13.58-15.58-3.755-15.32-10.857-15.85-18.237-.532-7.38-.402-68.654-.402-68.654-.12-2.446 28.73-1.738 31.983 6.308-1.637 15.962.152 40.355-1.485 56.317M241.603 487s-19.433-13.68-29.834-25.013c-10.4-11.331-8.485-17.498-11.769-35.3l3.01-7.885c7.26.544 17.791-3.12 20.255-17.128l4.379-.674s-3.142 40.51-1.916 43.914c1.226 3.403 21.119 22.065 24.272 28.862"/>
        <path fill="#DDD" fill-rule="nonzero" d="M335 585.715a33.531 33.531 0 0 0 3.942-22.216 122.571 122.571 0 0 0 8.592-10.21c5.908-5.02 12.535-5.02 24.522-1.075 11.986 3.944 12.706 3.224 20.053-1.613 2.867-2.332 13.78-3.224 23.092-2.15-.72 9.32 6.799 31.353 6.799 31.353-5.907.72-7.701 3.224-8.775 5.728-15.757 2.333-48.15-4.836-56.926-4.482-7.336 5.557-21.299 4.665-21.299 4.665z"/>
        <path stroke="#163050" stroke-linecap="round" stroke-linejoin="round" stroke-width="3" d="M343.92 557.023c21.598-.962 29.585 28.771-8.92 27.96M347 553.623c10.175-10.368 25.427 1.402 36.417.304 8.28-.824 6.812-7.053 29.583-5.748M356 581c18.637.573 42.524 7.383 57 4.118"/>
        <path fill="#BFB5F2" fill-rule="nonzero" d="M132.883 493.329c-4.73-1.482-32.746.68-40.865 35.823-5.413 22.307 11.237 45.414 38.57 52.313 3.118-13.376 12.86-26.492 21.11-22.167 4.47 2.433 6.765 2.974 10.695 10.813 3.93 7.84 7.177 16.49 5.012 22.037-2.165 5.547-7.978 9.461-7.978 9.461 10.284 1.222 53.996.14 105.686-11.483 29.77 2.033 41.277 4.195 50.88 2.573 9.601-1.622 20.567-3.784 23.414-19.052.636-4.044.5-8.171-.4-12.165 12.449-10.942 20.297-20.944 18.814-32.979-1.483-12.035-8.12-18.112-23.004-22.437a4.454 4.454 0 0 0-2.836-.27c-1.083 2.844-1.483 5.817-10.013 6.628-8.53.811-71.718 6.358-71.718 6.358l-28.059-7.342c-13.26-4.184-39.37-7.028-47.09-7.569-21.52-7.753-41.817-10.683-42.218-10.542z"/>
        <path stroke="#163050" stroke-linecap="round" stroke-linejoin="round" stroke-width="3" d="M131.586 494c-40.07.917-64.31 68.341.414 89M162 567.794c27.228 1.786 54.662 22.913 152.13 25.195 32.63.764 34.441-38.885 11.39-48.432 0 0-82.172-30.404-102.642-32.557M112 530c7.023-15.153 25.662-31.133 62-26.03"/>
        <path stroke="#163050" stroke-linecap="round" stroke-linejoin="round" stroke-width="3" d="M335 506c13.68 3.663 22.532 12.463 22.94 22.217.408 9.753-.805 14.771-18.37 32.783M282 528c11.245-7.12 26-8 26-8M159 601.994c41.214.172 61.82-3.55 109-10.994M116 510c9.975-4.876 23.797-6.521 35-5.86"/>
        <path fill="#FFF" fill-rule="nonzero" d="M134.428 575.808c-2.845 9.11-5.146 25.339 4.977 29.167 5.328 1.826 13.671 1.454 21.663-3.095 7.992-4.55 9.942-13.31 5.861-21.512s-4.262-15.496-10.123-18.044c-5.147-3.095-9.59-5.829-14.737.547a52.97 52.97 0 0 0-7.64 12.937z"/>
        <path stroke="#163050" stroke-linecap="round" stroke-linejoin="round" stroke-width="3" d="M131 590.409c0 3.715.454 7.604 2.603 10.657 2.78 3.761 7.532 5.6 12.182 4.715 12.736-2.542 11.474-19.978 10.864-25.388-1.495-13.406 1.108-14.568-2.325-19.011-1.927-2.466-5.726-2.944-8.66-1.771-5.228 2.086-8.573 8.18-10.71 12.97A45.02 45.02 0 0 0 131 590.41z"/>
        <path stroke="#163050" stroke-linecap="round" stroke-linejoin="round" stroke-width="3" d="M144 605.987c8.86.273 17.807-3.774 22.147-8.89 2.513-2.957 3.222-7.157 2.685-11.03a42.193 42.193 0 0 0-3.61-11.071c-2.265-5.236-5.294-12.61-10.74-13.996M217 495.94l19-.88M226 513.046a5.58 5.58 0 0 1 .953-2.964l37.283-60.796c1.807-2.964 5.748-5.428 8.8-5.58l104.196-4.701c3.789-.185 5.098 4.885 2.165 9.412l-37.89 53.555c-1.861 3.018-5.964 4.484-8.855 4.69L233.253 515 226 513.046z"/>
        <path stroke="#163050" stroke-linecap="round" stroke-linejoin="round" stroke-width="3" d="M235 513.79l98-7.79c.075 3.05-4.356 5.767-8.178 6.099l-75.7 5.901"/>
        <path fill="#D3E6F2" fill-rule="nonzero" d="M322 617v10.176a2.2 2.2 0 0 1-1.177 1.954l-22.192 10.823a9.447 9.447 0 0 1-5.022 1.02l-30.238-2.436a1.505 1.505 0 0 1-1.371-1.504v-10.955L322 617z"/>
        <path fill="#FFF" fill-rule="nonzero" d="M317.937 614.268l-15.23-1.214c-1.799-.113-3.604-.049-5.392.191l-4.616.618c-1.2.162-2.379.46-3.516.888l-26.813 10.774a.54.54 0 0 0-.365.59c.035.265.25.462.505.466l31.505 2.393a9.228 9.228 0 0 0 4.497-.798l22.563-10.021c.536-.18.905-.691.924-1.277a1.396 1.396 0 0 0-.838-1.34l-1.822-.888a3.927 3.927 0 0 0-1.402-.382z"/>
        <path stroke="#163050" stroke-linecap="round" stroke-linejoin="round" stroke-width="3" d="M322 617v10.207c0 .823-.455 1.576-1.177 1.95l-22.192 10.798a9.465 9.465 0 0 1-5.022 1.019l-30.238-2.431a1.503 1.503 0 0 1-1.371-1.5v-11.03"/>
        <path stroke="#163050" stroke-linecap="round" stroke-linejoin="round" stroke-width="3" d="M317.937 614.324l-15.23-1.27c-1.799-.113-3.604-.049-5.392.191l-4.616.618c-1.2.162-2.379.46-3.516.888l-26.813 10.774a.54.54 0 0 0-.365.59c.035.265.25.462.505.466l31.505 2.393a9.228 9.228 0 0 0 4.497-.798l22.563-10.021c.536-.18.905-.691.924-1.277a1.396 1.396 0 0 0-.838-1.34l-1.822-.888a3.92 3.92 0 0 0-1.402-.326z"/>
        <path fill="#FFF" fill-rule="nonzero" d="M265 633.969v5.124l12.26.907 6.74-1.93-.066-5.124L271.3 632z"/>
        <path fill="#FFF" fill-rule="nonzero" stroke="#163050" stroke-linecap="round" stroke-linejoin="round" stroke-width="3" d="M277 640l-12-.89V634l12 .9z"/>
        <path stroke="#163050" stroke-linecap="round" stroke-linejoin="round" stroke-width="3" d="M277.71 634l6.29-2.041-12.71-.959-6.29 2.03M277 640l6-1.886V633"/>
        <path stroke="#163050" stroke-linecap="round" stroke-linejoin="round" stroke-width="3" d="M271 637.548c-18.703 8.209-40.891 8.025-61.114 5.148-20.223-2.876-39.925-8.717-60.04-12.286-44.505-7.895-46.025 25.47.826 15.823 23.653-4.867 39.219-16.623 39.186-43.834 0-23.793-9.53-36.77-14.241-50.647-11.311-33.418 27.984-51.696 45.59-40.415"/>
        <path fill="#2A455F" fill-rule="nonzero" d="M242.703 335.54a4.54 4.54 0 0 1-6.21-.162 5.863 5.863 0 0 1-.975-6.426 6.393 6.393 0 0 1-9.893-3.88c-.846 2.666-2.363 5.549-5.083 6.188a4.79 4.79 0 0 1-1.874 8.17 6.502 6.502 0 0 1 2.882 5.495 5.418 5.418 0 0 1-3.63 4.887 4.616 4.616 0 0 1-5.418-2.34 3.999 3.999 0 0 1-5.527-5.04 4.8 4.8 0 0 1-5.96-6.75 7.412 7.412 0 0 1-3.315-10.556 10.533 10.533 0 0 1-5.267-.314 3.999 3.999 0 0 1-.813-.455 3.49 3.49 0 0 1-1.593-3.511c.014-.093.04-.184.076-.27a4.259 4.259 0 0 1-5.418-6.254 4.443 4.443 0 0 1-1.203-.433c.124-.25.269-.49.434-.715-2.417.14-3.63-3.251-2.547-5.419 1.084-2.167 3.381-3.38 5.353-4.79 4.985-3.565 8.344-8.983 10.837-14.596 2.492-5.614 4.15-11.541 6.566-17.165a22.367 22.367 0 0 0 2.168-6.806 19.268 19.268 0 0 0-.78-5.96c-.185-.79-2.049-1.344-2.233-2.113-.466-1.918.748-3.977.282-5.787-1.56-6.144-3.1-11.844-4.714-18.595-1.257-.77-3.327.379-3.977 1.712-.65 1.333-.379.596-.574 2.048-.195 1.452-.78 3.056-2.167 3.652-1.149.51-2.482.13-3.739.076-1.257-.054-2.806.552-2.893 1.81-.12 1.69 2.47 2.611 2.373 4.334 0 1.084-1.192 1.734-2.232 1.853-1.04.12-2.168-.108-3.164 0-2.85.412-4.465 3.381-5.646 6.004-.174-1.637-2.71-1.756-3.945-.672-1.235 1.083-1.842 2.785-3.142 3.793a8.43 8.43 0 0 1-2.958 1.29l-10.143 2.914a4.075 4.075 0 0 1-2.915 6.155 7.585 7.585 0 0 0-2.287.13c-1.333.51-1.636 2.406-.942 3.663a7.585 7.585 0 0 0 3.25 2.698c0 1.474-2.004 1.951-3.467 1.745-1.463-.206-3.37-.422-4.053.9-1.019 1.972 2.352 4.334 1.225 6.241-.542.932-1.788 1.084-2.872 1.203h-.477c-1.376 0-2.828 1.322-2.34 2.612.4 1.084 1.777 1.463 2.167 2.514.08.265.08.548 0 .813a2.73 2.73 0 0 1-1.853 1.864c-1.084.368-2.384.26-3.544.541a3.75 3.75 0 0 0-1.235.564 2.037 2.037 0 0 0-1.008 1.842 7.25 7.25 0 0 0 .705 1.767c.066.188.106.385.119.585-.06.923-.7 1.707-1.593 1.95-.47.143-.963.195-1.452.152-.41-.018-.819-.057-1.225-.12a6.968 6.968 0 0 1-1.354 6.763 20.589 20.589 0 0 1-5.657 4.443c-7.499 4.584-14.585 9.84-22.16 14.315-2.384 1.398-5.754-1.82-4.454-4.259-3.392 1.582-7.878-2.048-7.033-5.7a5.537 5.537 0 0 1-6.534-5.126c-3.25.564-6.111-3.565-4.486-6.393a6.719 6.719 0 0 1-2.308-7.965 3.89 3.89 0 0 1-1.366-7.52 5.711 5.711 0 0 1 5.852-9.472c-2.091-2.319.152-6.783 3.25-6.502-1.809-3.316 1.843-8.008 5.506-7.076-.336-2.026-.672-4.064-1.019-6.09-2.405 1.777-5.613 3.62-8.192 2.102-2.232-1.311-2.557-4.334-2.644-6.924-.087-2.59-.12-5.419 1.322-7.586 1.441-2.167 4.963-3.175 6.686-1.203a5.7 5.7 0 0 1 5.483-7c-2.048-3.013.715-7.89 4.335-7.662v-6.675c-1.626 1.084-3.36 2.167-5.3 2.167s-4.074-1.365-4.009-3.25c.065-1.886 1.777-2.98 3.251-3.913a3.49 3.49 0 0 1 3.544-.412c-.726-.932-.228-2.308.509-3.25a7.737 7.737 0 0 1 8.961-2.103 4.725 4.725 0 0 1 2.558-5.418 7.997 7.997 0 0 1 6.372 0 3.999 3.999 0 0 1-1.106-4.053 6.502 6.502 0 0 1 2.644-3.522 19.852 19.852 0 0 1 4.01-2.016l-.39.25.466-.13a8.463 8.463 0 0 1 9.47-5.278c-.097-3.944 5.419-6.643 8.464-4.14a6.502 6.502 0 0 1 7.661-3.987 5.83 5.83 0 0 1 10.652-2.644 6.913 6.913 0 0 1 10.316-.185 6.036 6.036 0 0 1 8.344-.281 4.649 4.649 0 0 1 8.67-1.452 6.09 6.09 0 0 1 6.013-1.908 5.83 5.83 0 0 1 4.118 4.584 4.703 4.703 0 0 1 6.578 6.719 4.995 4.995 0 0 1 5.31 6.816 5.84 5.84 0 0 1 4.865 8.67 3.728 3.728 0 0 1 2.265 6.989 4.844 4.844 0 0 1 5.418 7.857.293.293 0 0 0-.531.119h.91a2.579 2.579 0 0 1 3.11-1.084 3.435 3.435 0 0 1 2.092 2.73 5.137 5.137 0 0 1-.824 3.447 5.472 5.472 0 0 1 5.743 9.287 5.418 5.418 0 0 1 5.538 8.452 4.443 4.443 0 0 1 2.85 7.76 4.92 4.92 0 0 1-.347 9.406 8.062 8.062 0 0 1 3.576.476 3.251 3.251 0 0 1 1.875 3.024c-.185 1.636-1.897 2.59-3.403 3.25a4.421 4.421 0 0 1-.217 8.833 4.595 4.595 0 0 1 2.785 4.248 4.779 4.779 0 0 1-2.882 4.204 5.418 5.418 0 0 1 2.167 10.208 3.251 3.251 0 0 1 1.734 3.251 3.652 3.652 0 0 1-2.536 2.915 4.118 4.118 0 0 1 .596 7.662 3.457 3.457 0 0 1 .564 6.772 4.237 4.237 0 0 1 .812 7.738 4.465 4.465 0 0 1 .369 7.986c2.134.846 2.6 4.097.997 5.7z"/>
        <path stroke="#163050" stroke-linecap="round" stroke-linejoin="round" stroke-width="3" d="M106.359 289.92c-1.438-.333-6.802.128-3.147 6.228.66 1.074 1.157 2.577.4 3.63a3.159 3.159 0 0 1-2.779 1.01 13.838 13.838 0 0 0-3.07-.108c-3.007.537-5.31 5.08-1.309 9.525-8.272-2.148-6.488 12.371 1.017 8.344-1.082 2.449 1.47 6.776 3.47 5.058a80.99 80.99 0 0 1 26.211-14.67c3.385-2.029 7.126-7.516 4.845-10.673l4.714-1.074c-.768-1.719-1.438-4.006 0-5.24.93-.806 2.303-.71 3.536-.817 1.233-.107 2.682-.709 2.779-1.922.151-1.815-2.822-2.91-2.379-4.672.616-2.416 5.612-.236 6.488-2.588.768-2.147-3.73-3.93-2.541-5.906 1.19-1.976 4.65.816 6.13-.805.974-1.074-.064-2.707-1.08-3.738-1.017-1.03-2.044-2.663-1.082-3.737.963-1.074 2.952-.075 4.52-.247a3.607 3.607 0 0 0 2.844-3.092 10.467 10.467 0 0 0-.52-4.425c2.29 1.525 5.384.974 6.997-1.246.443-.665.8-1.503 1.557-1.728 1.19-.366 2.292 1.02 3.525.89 2.39-.235 1.438-4.767 3.655-5.67 1.914-.783 4.195 2.041 5.882.85 1.417-1.01.314-3.48 1.395-4.844.898-1.138 2.67-.816 4.098-.537 1.428.28 3.374.064 3.698-1.342.368-1.654-2.01-2.91-1.805-4.597.205-1.686 2.616-1.933 4.325-1.675 1.708.258 4.152 0 4.325-1.74.108-1.32-1.406-2.566-.865-3.78.66-1.503 3.363-.676 4.325-2.03.962-1.352-.908-3.156-.454-4.735.67-2.309 4.682-1.074 6.26-2.942 1.58-1.869-.767-4.79-.097-7.163.379-1.332 1.633-2.202 2.368-3.383.736-1.181.487-3.222-.897-3.329M80.711 302c-1.585-.518-2.73-1.819-2.97-3.374-.241-1.555.463-3.106 1.825-4.024-1.667.135-3.26-.668-4.057-2.044-.798-1.376-.648-3.064.382-4.298s2.742-1.78 4.362-1.388c1-4.122 5.058-6.948 9.563-6.658.196-1.831 1.405-3.431 3.184-4.214"/>
        <path stroke="#163050" stroke-linecap="round" stroke-linejoin="round" stroke-width="3" d="M78.627 287a5.792 5.792 0 0 1-.917-6.804 5.654 5.654 0 0 1 6.187-2.828 3.935 3.935 0 0 1-.45-4.818 3.833 3.833 0 0 1 4.53-1.553 4.57 4.57 0 0 1-.379-5.644 4.448 4.448 0 0 1 5.36-1.615 8.75 8.75 0 0 1 .34-9.722 8.518 8.518 0 0 1 9.054-3.28c.193-2.167.45-4.605 1.907-6.273 1.456-1.669 4.573-1.972 5.644 0 .515.932.536 2.253 1.457 2.752 1.286.693 2.614-1.008 2.753-2.481.14-1.474-.15-3.153.835-4.237 2.143-2.34 6.888 1.17 8.848-1.31 1.435-1.81-.407-5.071 1.307-6.61 1.51-1.365 4.06.184 5.87-.726 1.606-.802 1.777-2.98 2.024-4.778.91-6.717 5.355-2.059 6.426-2.167 1.907-.195 1.607-3.25 2.892-4.68 2.732-3.023 7.991 3.25 10.808.433 1.532-1.528.836-4.908 2.881-5.58 2.046-.672 3.332 2.167 5.356 2.481 4.049.737 5.677-8.668 9.64-6.121"/>
        <path stroke="#163050" stroke-linecap="round" stroke-linejoin="round" stroke-width="3" d="M89.955 259.956l-1.72-1.065a4.185 4.185 0 0 1-3.959 3.108 4.186 4.186 0 0 1-4.088-2.938 4.173 4.173 0 0 1 1.703-4.731 7.075 7.075 0 0 1-1.325-5.03 5.085 5.085 0 0 1 3.12-4.018 4 4 0 0 1 4.688 1.513 4.564 4.564 0 0 1 .322-5.792 4.59 4.59 0 0 1 5.756-.815 4.693 4.693 0 0 1-1.565-6.134 4.716 4.716 0 0 1 5.977-2.125 4.777 4.777 0 0 1-1.184-4.569A4.79 4.79 0 0 1 101 224l-1.207.512"/>
        <path stroke="#163050" stroke-linecap="round" stroke-linejoin="round" stroke-width="3" d="M133.758 213.138a5.03 5.03 0 0 1-4.76-.824c.618 6.518-6.148 7.397-7.384 3.935 1.16 3.825-5.064 6.144-7.06 1.352-.111 2.892-2.042 5.385-4.788 6.182-2.745.797-5.685-.282-7.29-2.676a4.795 4.795 0 0 1-2.559 2.975 4.691 4.691 0 0 1-3.893.037 3.653 3.653 0 0 1-1.925 2.5 3.567 3.567 0 0 1-3.128.039 4.152 4.152 0 0 1-1.865-2.614 4.203 4.203 0 0 1 .542-3.179 4.709 4.709 0 0 1 5.888-1.429 6.731 6.731 0 0 1 2.973-5.736 6.538 6.538 0 0 1 6.374-.507c-.619-2.825 2.634-7.221 8.75-5.023-1.984-.715-1.301-10.541 7.005-8.365.824-7.782 6.419-7.078 8.674-5.44-1.084-5.672 5.942-6.826 8.295-4.518-.683-5.254 5.606-6.276 7.83-4.463-.434-7.77 9.498-6.968 9.975-2.275 2.234-4.155 8.827-3.594 10.843-.736 1.616-3.737 7.32-2.77 8.61-.418-.228-5.496 7.33-4.682 8.11-1.1 4.273-5.605 11.57-.89 9.76 2.76 3.35-4.628 10.637 2.121 6.506 5.946 3.751-2.198 8.674 3.968 5.421 7.222 4.337-1.297 8.566 5.781 4.565 8.958 3.448-1.341 6.962 5.034 3.058 7.023"/>
        <path stroke="#163050" stroke-linecap="round" stroke-linejoin="round" stroke-width="3" d="M212 212.005c5.23-4.023 10.481 5.155 4.457 7.798 5.866-3.613 9.942 3.731 5.664 5.64 5.294-2.955 10.1 4.897 5.135 8.445a5.25 5.25 0 0 1 5.228 2.22 5.477 5.477 0 0 1 .267 5.761c1.99.163 3.67 1.575 4.202 3.536.532 1.96-.194 4.05-1.82 5.233 4.373.064 5.601 7.194 0 9.2 4.436-2.071 7.231 5.09 2.626 6.697 4.912.658 4.5 8.143-.455 8.23 1.704.796 2.725 2.606 2.541 4.507-.184 1.901-1.532 3.474-3.357 3.916 5.993-.356 7.74 8.412 1.98 10.397 3.674 0 3.844 5.63.18 5.845 1.42.822 2.225 2.423 2.05 4.076-.174 1.654-1.296 3.044-2.854 3.539 4.298-.669 5.907 5.705 1.736 7.183 1.8.296 3.123 1.88 3.123 3.737 0 1.857-1.323 3.44-3.123 3.737 1.803.36 3.173 1.864 3.39 3.723.217 1.86-.767 3.649-2.437 4.43 2.18.939 2.678 4.315 1.059 6.03a4.385 4.385 0 0 1-3.232 1.104 4.408 4.408 0 0 1-3.047-1.557 5.472 5.472 0 0 1 .138-6.655 4.633 4.633 0 0 1-2.805-2.489 4.772 4.772 0 0 1-.085-3.788c1.736-3.72 2.615-2.416.709-6.223a2.19 2.19 0 0 1 .063-2.438M223.064 324.762a3.933 3.933 0 0 1 .492 4.362 4.013 4.013 0 0 1-3.872 2.137 4.725 4.725 0 0 1 1.367 4.468 4.773 4.773 0 0 1-3.15 3.473 7.124 7.124 0 0 1 2.811 5.763c-.295 5.957-7.921 6.618-9.092 2.036a3.87 3.87 0 0 1-4.651-.104 3.778 3.778 0 0 1-1.137-4.467 4.655 4.655 0 0 1-5.496-1.594 4.547 4.547 0 0 1 .278-5.664 5.679 5.679 0 0 1-4.964-3.887 5.598 5.598 0 0 1 1.736-6.025 4.452 4.452 0 0 1-1.976-3.546 4.446 4.446 0 0 1 1.735-3.668 7.534 7.534 0 0 1-2.034-6.547 7.59 7.59 0 0 1 4.124-5.499"/>
        <path stroke="#163050" stroke-linecap="round" stroke-linejoin="round" stroke-width="3" d="M179.033 307a5.443 5.443 0 0 0 1.278 4.146 5.4 5.4 0 0 0 3.894 1.882c-5.06 3.837 1.192 11.445 5.903 7.178-1.742 3.782 3.722 6.773 5.892 3.172M117 293.024c.234 1.08 1.872 1.285 2.66.507a3.51 3.51 0 0 0 .659-3.144 21.91 21.91 0 0 1-.67-3.242 2.676 2.676 0 0 1 1.52-2.712c1.575-.508 3.394 1.275 4.787.389 1.064-.702.862-2.431.287-3.63-.574-1.2-1.35-2.55-.83-3.772a2.987 2.987 0 0 1 2.84-1.513c1.128 0 2.245.335 3.383.324a2.978 2.978 0 0 0 2.83-1.534c.446-1.08-.096-2.258-.405-3.371-.308-1.113-.18-2.637.904-3.004 1.085-.368 2.543.81 3.479.064a1.706 1.706 0 0 0 .18-2.063c-.34-.67-.882-1.21-1.18-1.902a3.058 3.058 0 0 1 .186-2.518 2.972 2.972 0 0 1 2.005-1.491 9.672 9.672 0 0 1 2.733.324 2.538 2.538 0 0 0 2.51-.767c1.064-1.491-.914-3.642-.127-5.263.5-1.08 1.83-1.275 2.936-1.545 1.106-.27 2.404-1.005 2.308-2.161M181 198a3.577 3.577 0 0 1 2.418-2.81 3.689 3.689 0 0 1 3.666.784c.476.435.89 1.013 1.531 1.124 1.035.152 1.728-1.114 2.69-1.56a1.917 1.917 0 0 1 1.914.17c.559.394.852 1.056.766 1.725M186 229.707c1.098.323 2.404.572 3.212-.349a7.155 7.155 0 0 0 .985-2.7c.28-.934 1.036-1.893 1.803-1.606M224.873 247.003c-1.666-.07-3.172 1.1-3.69 2.864-.516 1.765.082 3.697 1.466 4.733.756.466 1.541.869 2.35 1.205.832.35 1.466 1.115 1.711 2.066.05 1.097-.405 2.147-1.208 2.787-.798.629-1.534 1.35-2.195 2.152-.666.831-.699 2.075-.078 2.948.764.807 2.002.43 3.046.581 1.393.208 2.493 1.42 2.693 2.969.2 1.548-.548 3.056-1.832 3.692"/>
        <path stroke="#163050" stroke-linecap="round" stroke-linejoin="round" stroke-width="3" d="M147 283.716c1.519 2.232 17.593 28.064 31.857 25.038 7.164-1.546 21.45-17.526 24.143-38.754M198 228c3.277 7.88 5.613 20.603 4.857 29M174.034 258c1.996.284 3.842.909 4.642 2.783 1.601 3.783-2.913 11.417-9.605 12.167-3.27.301-6.523-.762-9.071-2.965"/>
        <path stroke="#163050" stroke-linecap="round" stroke-linejoin="round" stroke-width="3" d="M186.67 261.862c3.827-5.611 15.32-5.646 17.546-3.69 3.957 3.47 1.168 14.067-6.746 15.675-4.715.828-9.378-1.755-11.47-6.351M189 255c3.568-3.675 8.476-4.922 13-3.305M182 276.824c3.877.753 7.994-.855 6.785-5.824M179 262c2.426-1.083 5.35-1.298 8-.587M170 288c2.175 3.101 5.481 4.938 9 5M132 492c15.01 2.65 28.828 4.824 40.872 11.372 11.858.776 20.99 1.157 34.128 4.628"/>
        <path fill="#163050" fill-rule="nonzero" d="M202.297 423.884a11.55 11.55 0 0 1-5.628 1.951l-20.645 3.307c-9.453 1.499-19.21 2.998-28.467.595-7.824-2.039-18.917-9.369-18.548-18.737 11.518 4.254 20.014 7.374 32.456 6.349-1.087 0-2.174 0-3.26-.078a45.74 45.74 0 0 0 13.94-2.887 27.892 27.892 0 0 1 24.024 1.333c1.541.307 3.062.712 4.553 1.213a5.308 5.308 0 0 1 2.64 1.565c1.272 1.598.5 4.11-1.065 5.39z" opacity=".1"/>
        <path fill="#163050" fill-rule="nonzero" d="M219.732 426.402c-2.312 3.88-5.333 7.412-6.87 11.65-2.181 6.122-1.09 13.003 1.657 18.953 2.749 5.95 6.98 10.988 11.156 15.995-14.969-5.992-25.492-19.577-27.491-35.49-.687-6.102.425-13.167 5.529-16.614 3.184-2.167 7.393-2.481 10.392-4.876 2.726-2.167 7.197-15.172 10.393-12.712 4.601 3.566-2.64 19.528-4.766 23.094zM154.153 308.784c1.699 1.211 3.267 2.66 4.987 3.786 6.304 3.841 14.407 3.069 19.86-1.893-14.051-5.523-26.068-15.18-34.44-27.677a7.311 7.311 0 0 0 2.07 8.533 16.767 16.767 0 0 0-5.445.465 5.625 5.625 0 0 0-3.876 3.591l2.178 2.553a5.792 5.792 0 0 0-5.788 2.963 5.712 5.712 0 0 0 .66 6.435c.5.595 4.453 2.163 5.291 2.39 3.648.8 1.372.704 4.181-.313 4.181-1.547 4.976-4.597 10.322-.833zM153.956 280.055l1.527.43c.29.081.602 0 .815-.212a.824.824 0 0 0 .213-.81.814.814 0 0 1 .22-.845.827.827 0 0 1 .863-.166h.12c.292.103.619.036.846-.174a.824.824 0 0 0 .236-.826 8.295 8.295 0 0 0-1.083-2.517.813.813 0 0 1 .044-.958.827.827 0 0 1 .931-.257l1.3.484c.31.134.67.066.91-.172a.813.813 0 0 0 .172-.904l-.444-1.355c1.679.15-.173-2.42-.173-2.42l1.451-3.56h.574a.82.82 0 0 0 .769-.785l.097-2.15a.82.82 0 0 1 .791-.786l2.23-.097a.822.822 0 0 0 .77-.634l.379-1.646a.822.822 0 0 1 .866-.635l9.064.624a.826.826 0 0 0 .66-.254c.171-.18.25-.426.217-.67l-.14-1.076a.814.814 0 0 1 .2-.638.825.825 0 0 1 .612-.276 3.313 3.313 0 0 0 3.01-3.033.816.816 0 0 1 .355-.64.828.828 0 0 1 .728-.102l2.415.87a.847.847 0 0 0 1.007-.365 5.351 5.351 0 0 0 .79-2.603.806.806 0 0 1 .364-.61.817.817 0 0 1 .709-.089l1.256.527c.25.107.54.084.77-.063a.816.816 0 0 0 .378-.668l.119-4.302a.815.815 0 0 1 .275-.592.827.827 0 0 1 .624-.204h.52a.825.825 0 0 0 .705-.317.813.813 0 0 0 .128-.759 2.78 2.78 0 0 1 0-2.409 2.909 2.909 0 0 1 3.054-1.43.835.835 0 0 0 .953-.527c.747-2.087 1.321-4.302.281-6.453a3.434 3.434 0 0 0-3.15-2c-2.286.107-3.25 2.419-3.434 4.441-.205 1.764-.173 3.678-1.212 5.12-1.04 1.44-3.736 1.742-4.332.086a5.47 5.47 0 0 0 1.289 6.248 19.26 19.26 0 0 1-10.375 1.807 2.86 2.86 0 0 1 .944 3.432 2.895 2.895 0 0 1-3.14 1.71 2.88 2.88 0 0 1-2.406-2.636 5.621 5.621 0 0 1-2.161 4.533 5.705 5.705 0 0 1-4.943 1.028 13.083 13.083 0 0 1-9.443 5.162c1.202 1.377.227 3.582-1.17 4.775-1.396 1.194-3.248 1.969-4.18 3.507-.93 1.538-.303 4.237 1.538 4.173L145 276c2.252 5.109.217 7.378 3.823 9.852a.828.828 0 0 0 1.213-.312c.693-1.452 2.447-3.721 2.988-5.12a.826.826 0 0 1 .932-.365zM330.718 508.9c17.13-10.13 44.15 22.13 9.478 52.1-9.64-11.732-24.511-17.636-38.712-23.087l-24.771-9.496c-3.567-1.365-21.842-5.903-22.696-9.463-.66-2.914 18.157-3.677 21.29-4.021l26.393-2.904 14.73-1.602c2.173-.204 13.132 0 14.288-1.527zM348.99 569.603c2.917.117 6.124-1.438 6.877-4.231a6.438 6.438 0 0 0-1.97-5.977 19.566 19.566 0 0 0-5.606-3.534c7.646 3.98 17.06 2.394 22.922-3.861l6.457 22.216c.282.75.385 1.553.302 2.348-.27 1.45-1.679 2.37-2.96 3.174-2.54 1.492-5.262 3.036-8.21 2.92a43.1 43.1 0 0 1-5.253-1.058c-4.509-.74-8.986 1.058-13.377 2.327-4.39 1.27-9.535 1.873-13.172-.857 1.765-3.967 2.464-9.436 4.821-13.001 2.357-3.565 5.672-.624 9.17-.466zM144 559a5.194 5.194 0 0 0-1.61 1.685A8.791 8.791 0 0 1 137 565a11.082 11.082 0 0 1 1.822-3.15A8.68 8.68 0 0 1 144 559z" opacity=".1"/>
        <path fill="#163050" fill-rule="nonzero" d="M136.64 566.373c-2.252 5.504-2.284 12.663-7.776 14.329-3.4 1.075-6.92-.957-9.91-2.881-9.618-6.18-17.416-9.277-22.832-21.638-13.56-30.969 10.56-51.328 11.914-67.183.834.107 50.44 10.373 61.964 13.813-17.33.677-61.509-5.773-72.253 18.435-12.087 27.227 22.918 50.091 38.894 45.125zM328.248 591.992c-6.368 3.637-14.2 3.077-21.514 2.4-24.57-2.282-49.16-4.564-73.536-8.384 6.949 2.152 14.995 4.305 24.537 6.457A609.578 609.578 0 0 1 159.952 602c4.497-2.561 7.132-7.652 7.649-12.828 8.874 4.37 29.248 3.12 34.283.323-2.56 1.42-22.246-8.233-25.925-9.384-3.345-1.077-7.218-2.648-9.789-1.518a40.764 40.764 0 0 0-2.99-6.672c-2.432-4.391-5.626-8.61-10.134-10.762a13.323 13.323 0 0 0-8.046-1.076 8.603 8.603 0 0 1 5.906-1.614c99.342 10.977 104.183-30.564 69.125-45.469 30.12 8.071 63.467 17.219 92.36 26.463 9.682 5.532 19.095 12.731 23.484 22.977 4.389 10.245 2.044 24.01-7.627 29.552z" opacity=".1"/>
        <path fill="#163050" fill-rule="nonzero" d="M128.84 493.403a1 1 0 0 1-.68.19l.68-.19zM207.328 351.608a27.103 27.103 0 0 1 5.112 4.758c1.499 2.11 1.85 5.174 2.126 7.777 1.467 13.793 3.911 26.853 9.65 37.857 2.446-2.475 3.811-5.866 3.784-9.396a39.7 39.7 0 0 0-1.51-10.315l-4.888-20.53c-.819-3.468-1.722-7.089-4.092-9.703-2.21-2.44-5.378-3.642-8.226-5.25a30.554 30.554 0 0 1-8.439-7.121c-1.945-2.352-3.432-7.263-5.845-8.685 1.02 7.843 6.409 15.707 12.328 20.608zM111.798 461.046c1.185-6.622.334-20.321-2.24-29.153a17.736 17.736 0 0 0-4.224 7.982c-1.454 6.022-.721 12.339-1.228 18.513-11.16-23.958 6.227-47.568-17.106-66.19 8.275-.349 15.761-5.067 19.713-12.425 1.325-2.56 2.876-5.837 5.731-5.772 2.154 0 3.77 2.265 3.997 4.443.226 2.178-.54 4.356-1.185 6.425a59.698 59.698 0 0 0-.151 33.869c.344 1.208.657 2.178.883 3.06a.099.099 0 0 0 0 .054c10.05 25.113 4.923 35.861 48.012 61.148-20.209-6.284-33.652-11.663-52.202-21.954z" opacity=".1"/>
        <path fill="#163050" fill-rule="nonzero" d="M210.886 261.222c-.14 5.453-.657 11.413-3.931 15.616a9.845 9.845 0 0 1-.603 5.81c-.657 1.454-1.745 2.715-2.154 4.245-.41 1.53-.205 3.341-.334 5.023a20.81 20.81 0 0 1-1.896 6.293c-.948 2.264-1.903 4.527-2.865 6.79a51.935 51.935 0 0 0-2.154 5.626c-1.023 3.578 1.68 16.166-4.362 15.336a8.475 8.475 0 0 1-4.394-2.651c-2.359-2.253-4.664-4.742-5.676-7.846a9.544 9.544 0 0 1 0-6.197c1.002-2.76 3.382-4.753 5.504-6.79a53.534 53.534 0 0 0 16.069-33.495c.226.452.452.916.668 1.39l-5.235-41.105a5.316 5.316 0 0 1 .485-3.88c.797-1.077 2.886-1.077 3.231.216a7.085 7.085 0 0 0 0-6.693c2.036-2.349 2.703-5.194 3.651-7.91 2.768 4.623 2.8 11.09 3.124 16.328.301 4.71.592 9.419.775 14.14a307.13 307.13 0 0 1 .097 19.754z" opacity=".5"/>
        <path fill="#FFD166" fill-rule="nonzero" d="M26.056 606L57 596.204l-2.002-6.32c-.826-2.592-8.471-2.497-16.943.21-8.472 2.707-14.826 6.994-13.98 9.586l1.981 6.32z"/>
        <path stroke="#163050" stroke-linecap="round" stroke-linejoin="round" stroke-width="3" d="M26.056 606L57 596.204l-2.002-6.32c-.826-2.592-8.471-2.497-16.943.21-8.472 2.707-14.826 6.994-13.98 9.586l1.981 6.32z"/>
        <ellipse cx="41.628" cy="601.898" fill="#FFB335" fill-rule="nonzero" rx="16.571" ry="5.051" transform="rotate(-17.65 41.628 601.898)"/>
        <ellipse cx="41.628" cy="601.898" stroke="#163050" stroke-linecap="round" stroke-linejoin="round" stroke-width="3" rx="16.571" ry="5.051" transform="rotate(-17.65 41.628 601.898)"/>
        <path fill="#FFB335" fill-rule="nonzero" d="M71.903 605L39 605.495l.097 6.723c0 2.776 7.437 4.906 16.526 4.776 9.09-.129 16.42-2.495 16.377-5.27L71.903 605z"/>
        <path stroke="#163050" stroke-linecap="round" stroke-linejoin="round" stroke-width="3" d="M71.903 605L39 605.495l.097 6.723c0 2.776 7.437 4.906 16.526 4.776 9.09-.129 16.42-2.495 16.377-5.27L71.903 605z"/>
        <ellipse cx="54.421" cy="605.065" fill="#FFD166" fill-rule="nonzero" rx="16.57" ry="5.051" transform="rotate(-.86 54.421 605.065)"/>
        <ellipse cx="54.421" cy="605.065" stroke="#163050" stroke-linecap="round" stroke-linejoin="round" stroke-width="3" rx="16.57" ry="5.051" transform="rotate(-.86 54.421 605.065)"/>
        <path fill="#D3E6F2" fill-rule="nonzero" d="M835.257 519.864c-15.662 55.437-61.297 71.122-85.33 77.341-50.765 11.629-90.73 2.434-109.091.812a39.622 39.622 0 0 1-2.798-.357c-18.578-3.018-47.708-19.287-74.16-6.945-27.813 12.98-62.917 7.843-72.908 5.95-9.991-1.893-23.223-9.195-53.466-4.868-30.243 4.327-49.588 1.428-53.465-5.95-30.87-58.735 4.86-118.986 26.462-136.834 33.041-27.302 55.356-29.205 83.98-105.465 26.16-69.693 83.168-129.5 153.646-104.924 141.624 49.498 207.922 207.653 187.13 281.24z"/>
        <path stroke="#163050" stroke-linecap="round" stroke-linejoin="round" stroke-width="3" d="M696 403c8.034-4.576 15.159-10.683 21-18M687 406.017c25.41 7.34 52.71 4.46 76-8.017M380.202 580c-16.4-43.05-8.575-91.56 26.798-129M479 594.375c26.35 7.947 55.013 7.46 81-1.375"/>
        <path stroke="#163050" stroke-linecap="round" stroke-linejoin="round" stroke-width="3" d="M635 597.581c35.641 3.855 66.962 8.8 102.204 2.16 77.362-14.6 115.498-69.759 93.736-157.8C808.583 351.493 734.363 271.486 647.42 238"/>
        <path fill="#D3E6F2" fill-rule="nonzero" d="M423.17 554c-11.012 9.133-26.59 21.49-29.812 22.833-3.223 1.343-17.457-.269-21.217 5.64-3.76 5.91-3.76 17.46 9.937 21.49 13.697 4.03 25.246 7.521 45.925-2.418 20.68-9.938 37.869 1.88 52.909-11.324 4.565-4.03 4.028-10.745-1.343-13.431.806-9.402.806-16.655-8.594-21.759-12.892 6.179-44.583 15.623-47.806-1.031z"/>
        <path stroke="#163050" stroke-linecap="round" stroke-linejoin="round" stroke-width="3" d="M424 554l-23.102 18.407c-2.546 2.035-5.167 4.103-8.256 5.17-5.634 1.95-12.073.312-17.642 2.423"/>
        <path stroke="#163050" stroke-linecap="round" stroke-linejoin="round" stroke-width="3" d="M471.66 555c5.138 3.711 8.055 9.7 7.777 15.967-.087 1.66-.39 3.406.292 4.928.681 1.522 2.433 2.618 3.396 4.13 1.514 2.374.887 5.546-.54 7.962-3.96 6.716-12.677 9.111-20.55 9.292-7.875.181-15.911-1.213-23.601.533-5.765 1.309-10.956 4.257-16.462 6.386a57.424 57.424 0 0 1-36.892 1.427 29.229 29.229 0 0 1-10.665-5.323 14.596 14.596 0 0 1-5.408-10.229c-.151-3.949 2.098-8.068 5.82-9.58 1.34-.532 2.898-.809 4.023.096a3.75 3.75 0 0 1 1.081 3.513c-.184 1.266-.692 2.47-.843 3.736-.184 2.993 1.198 5.872 3.666 7.632a18.008 18.008 0 0 0 8.296 3.097M470 585c5.207-1.701 9.258-5.521 10-11"/>
        <path stroke="#163050" stroke-linecap="round" stroke-linejoin="round" stroke-width="3" d="M407.708 579L403 570.79l10.29 4.796c-1.718-2.39-2.944-5.164-3.592-8.13 2.001 2.381 4.743 3.841 7.678 4.089a11.764 11.764 0 0 1-2.475-4.541c.432.371.916.662 1.433.86a1.55 1.55 0 0 0 1.548-.28 3.24 3.24 0 0 0 .663-1.381c.67-2.067 1.87-3.875 3.455-5.203M440 581c2.104-7.085 6.817-12.885 13-16M424.005 554.02c-.12 2.945 2.058 5.653 4.803 7.08a20.986 20.986 0 0 0 9.082 1.877c12.073.328 23.966-2.802 34.11-8.977"/>
        <path fill="#D3E6F2" fill-rule="nonzero" d="M623.15 562c5.4 8.251 7.29 17.035 3.11 25.819 0 0-.13 1.203.27 1.597 14.85 5.994.68 21.166-8.1 21.56-13.5 14.245-24.839 15.31-45.628 13.18-20.789-2.129-24.029-10.242-20.648-16.896-.81-5.451 6.62-12.638 11.88-19.292a67.017 67.017 0 0 0 12.149-24.616c5.81 4.397 8.24 5.057 15.8 4.93 7.559-.128 20.788.532 24.709-1.331A21.367 21.367 0 0 0 623.15 562z"/>
        <path stroke="#163050" stroke-linecap="round" stroke-linejoin="round" stroke-width="3" d="M576 563a64.63 64.63 0 0 1-11.963 25.134c-2.454 3.15-5.207 6.062-7.47 9.352-2.262 3.29-4.386 5.512-4.567 9.514M624 562c2.522 4.92 5.091 10.042 4.998 15.462a27.008 27.008 0 0 1-3.086 10.881 61.08 61.08 0 0 1-1.337 2.657"/>
        <path stroke="#163050" stroke-linecap="round" stroke-linejoin="round" stroke-width="3" d="M612.465 606.827c-5.708 5.921-13.29 10.18-21.431 11.038-8.142.859-16.768-1.934-22.293-8.04-2.574-2.846-4.792-6.518-8.529-7.408-5.73-1.293-10.619 6.149-8.842 11.08a11.24 11.24 0 0 0 5.267 5.77 29.764 29.764 0 0 0 7.484 2.618c8.917 2.173 18.114 3.759 27.247 2.857 9.132-.902 18.308-4.52 24.435-11.374a11.425 11.425 0 0 1 3.576-3.162 24.671 24.671 0 0 1 3.77-.858 12.141 12.141 0 0 0 6.008-4.346c2.273-2.781 4.05-6.225 3.824-9.777-.227-3.553-3.048-7.16-6.613-7.225"/>
        <path stroke="#163050" stroke-linecap="round" stroke-linejoin="round" stroke-width="3" d="M567 589.765c.435-1.146 1.631-1.868 2.908-1.753a6.168 6.168 0 0 1 3.331 1.454 30.344 30.344 0 0 0 2.897 2.227 11.495 11.495 0 0 0 6.847 1.207c2.355-.207 4.645-.815 6.978-1.166A33.114 33.114 0 0 1 605 592.931M573 582.477c4.915-.746 9.884.923 13.466 4.523-.036-2.546-1.197-4.93-3.145-6.457a22.894 22.894 0 0 0-6.344-3.46c1.9-1.984 4.47-3.105 7.155-3.12 2.659.013 5.304.393 7.868 1.13-.918-2.221-2.884-3.775-5.177-4.093M594 586c1.184-6.76 5.845-12.197 12-14"/>
        <path fill="#78E1F2" fill-rule="nonzero" d="M437.191 369.72c-11.725 3.17-25.53 7.603-30.856 12.219-5.327 4.616-12.906 10.232-9.474 26.612 3.432 16.38 9.56 41.547 12.18 54.897 2.62 13.349 9.29 53.137 11.553 73.047 2.262 19.91.898 22.81 7.492 25.71 6.593 2.9 28.875 3.172 43.036-7.962-3.519-17.379-7.579-50.052-8.748-69.245-1.17-19.193-1.895-46.62-11.281-61.37 10.372-6.16 35.815-15.294 68.934-4.074 12.635-1.445 27.879.815 34.017 3.802 4.245 21.452 14.8 78.75 16.966 115.865.541 9.504.812 21.996 8.207 26.34 5.056 2.9 31.397 2.987 36.995 1.445 5.597-1.542 11.01-6.43 9.657-16.108-1.353-9.678-10.827-80.564-9.473-126.271.455-5.703 6.95-14.392 28.777-18.281 21.827-3.889 35.187.38 42.441-.38 41.954-4.345 9.983-59.535 5.75-64.966-2.707 6.159-10.827 9.407-19.857 9.863-9.03.456-21.112-.185-38.89 2.715-17.777 2.9-135.172 2.249-197.426 16.141z"/>
        <path stroke="#163050" stroke-linecap="round" stroke-linejoin="round" stroke-width="3" d="M445.991 406.067c3.999 3.302 5.58 8.66 4.006 13.563 19.501 28.66 7.814 57.751 22.982 133.655 1.181 4.417-46.84 19.286-48.963.302a1090.141 1090.141 0 0 0-24.721-138.568c-1.642-6.684-3.35-13.714-1.478-20.344 1.872-6.63 7.354-12.084 13.57-15.485 4.378-2.408 19.12-7.181 25.85-9.19M454 422c3.791-5.074 5.907-11.422 6-18"/>
        <path stroke="#163050" stroke-linecap="round" stroke-linejoin="round" stroke-width="3" d="M462.766 415.158c-2.194 2.707-6.805 4.887-9.766 6.842 20.235-8.631 41.706-11.124 67-3.255M483 441c7.937-11.498 21.278-18.764 35.182-21.062 12.432-2.051 24.787-.63 36.818 3.206"/>
        <path stroke="#163050" stroke-linecap="round" stroke-linejoin="round" stroke-width="3" d="M573.458 368c-24.793 10.07-23.227 40.484-18.978 60.383a845.76 845.76 0 0 1 16.897 122.527c.427 6.636 3.055 16.651 17.96 16.966 28.012.587 28.702-.923 32.305-4.344 5.19-4.932 4.654-8.31 3.833-15.392-5.596-47.968-10.688-99.781-8.76-137.201"/>
        <path stroke="#163050" stroke-linecap="round" stroke-linejoin="round" stroke-width="3" d="M617 425c1.508-10.789 16.561-22.527 67.839-19.251 40.574 2.599 20.588-55.777 7.807-64.24 0 0 8.291-7.502 11.263-11.509"/>
        <path fill="#FFF" fill-rule="nonzero" d="M693 341.064s-.943 6.358-8.675 7.98c-6.506 1.373-20.603.325-37.692 1.45-3.112.194-6.322.464-9.608.843a24.015 24.015 0 0 1-3.903 2.54c-4.717 2.488-11.278 4.326-21.308 6.38-5.422 1.082-17.675 3.439-30.796 5.828-18.434 3.33-38.419 6.78-43.613 7.137h-.282c-3.925 3.114-14.226 4.466-16.536 4.736-2.31.27-4.067-.681-6.777-5.277 3.119.063 6.239-.092 9.336-.465 1.323-9.256.835-21.29-3.253-26.967 0 0 5.693-1.622 9.217-2.433 3.524-.811 5.15.54 5.15.54a26.081 26.081 0 0 1 5.694-1.621c-3.254-6.758-16.808-31.898-23.856-38.927-1.898 2.703-12.2 28.925-13.284 31.898-1.084 2.974-22.771 30.817-33.073 36.764 0 0 3.253-5.406 1.085-15.408-2.17-10.002-13.826-8.11-13.826-8.11s4.88-3.244 7.048-5.947c0 0 9.488-24.059 16.537-32.439 0 0-.813-18.111-3.795-40.278-4.186-25.172-5.878-50.204 9.282-63.007 1.084-.908 19.995-35.856 68.791-38.278 2.993-.14 38.148 4.196 62.503 17.604a71.34 71.34 0 0 1 9.195 5.958c26.838 21.085 22.5 75.96 22.1 86.644 7.167 20.88 18.878 32.33 34.471 50.82A346.188 346.188 0 0 1 693 341.064z"/>
        <path fill="#F0CCBC" fill-rule="nonzero" d="M454.012 349.923c4.03-3.474 6.986-5.611 8.47-7.075 1.482-1.465 10.887-1.732 14.111-2.534 3.225-.801 13.973-.801 24.054 9.224 6.296-.242 12.575-.82 18.81-1.731 3.76 4.275 4.298 19.912 2.686 25.256-8.996 1.336-13.972.673-13.972.673-10.608 4.147-24.72 6.552-32.373 4.543-9.802.673-14.101.534-18.272-2.533-8.06 1.603-22.71-.396-25.526-19.506 5.514.406 15.187 2.672 19.217.94a58.217 58.217 0 0 0 8.599-4.938l-5.804-2.319z"/>
        <path stroke="#163050" stroke-linecap="round" stroke-linejoin="round" stroke-width="3" d="M455 350c9.526-6.826 5.463-8.278 17.32-9.129 8.137-.59 8.939-2.112 17.695 1.161 5.239 2.002 11.643 7.307 11.643 7.307 12.22-.44 17.342-1.461 17.342-1.461"/>
        <path fill="#FFF" fill-rule="nonzero" d="M461 352.576l-37.751-12.344a38.369 38.369 0 0 0-9.947-1.947L394.073 337c-3.406-.086-5.267 5.926 1.448 8.248L436.645 358l13.832-1.07 8.205-2.631 2.318-1.723z"/>
        <path stroke="#163050" stroke-linecap="round" stroke-linejoin="round" stroke-width="3" d="M461 352.042l-37.876-11.768a38.09 38.09 0 0 0-9.908-1.947l-19.155-1.326c-3.393-.086-5.246 5.926 1.442 8.248L436.468 358"/>
        <path stroke="#163050" stroke-linecap="round" stroke-linejoin="round" stroke-width="3" d="M455 356l-32.305-11.667A39.01 39.01 0 0 0 413 342" opacity=".3"/>
        <path stroke="#163050" stroke-linecap="round" stroke-linejoin="round" stroke-width="3" d="M478.523 349s-11.1.44-14.768 1.844c-3.668 1.405-6.639 4.9-13.277 6.54-3.384.836-14.463-.236-14.463-.236-.24 4.085 2.372 7.945 8.891 9.103-.588 3.73 4.745 7.236 12.439 7.504.12 5.018 6.28 5.49 15.17 4.9 11.438 3.785 27.207-1.297 35.913-4.439 12.678-.117 14.572-.868 14.572-.868M466 364c-5.486 2.72-10.971 2.72-21 3M473 372a55.177 55.177 0 0 1-15 2M480 377.12c-2.015.126-4.019.38-6 .76"/>
        <path stroke="#163050" stroke-linecap="round" stroke-linejoin="round" stroke-width="3" d="M459 375.11c-3.496 1.629-6.805.727-13.048-.36-6.242-1.086-11.03-9.233-12.32-11.406C432.342 361.17 432 356 432 356M518 348.01c6.083-.63 6.847 30.22 1.012 29.989"/>
        <path stroke="#163050" stroke-linecap="round" stroke-linejoin="round" stroke-width="3" d="M514 374.053s2.55 3.677 5.56 3.903c3.35.248 7.662-.602 10.946-1.344 7.104-1.624 8.33-4.463 8.483-10.076.186-6.657-1.981-24.154-8.756-23.52-2.868.27-11.187 1.657-11.625 3.765M533 344c64.247-16.948 52.69-19.036 71-25"/>
        <path stroke="#163050" stroke-linecap="round" stroke-linejoin="round" stroke-width="3" d="M537.365 373.997c7.386.25 86.92-15.917 87.827-16.177 9.093-2.62 18.606-9.052 19.773-18.526 2.408-19.49 3.844-78.513 3.844-78.513 1.544-29.463-6.306-55.937-22.677-68.844-18.283-14.433-74.243-33.48-110.775-12.907-24.114 13.578-41.792 32.755-41.349 61.492.4 25.878 9.114 45.087 6.404 70.825M598 247c4.807 22.061-.527 50.928 4 73M483 309c-10.18 9.088-13.173 21.688-20 33M517 304c-6.532 13.04-10.55 30.016-20 41"/>
        <path stroke="#163050" stroke-linecap="round" stroke-linejoin="round" stroke-width="3" d="M494 268c8.23 17.784 21.77 33.095 32.241 49.905 5.073 8.132 9.416 16.624 13.759 25.095M648.772 277c10.81 31.486 27.295 42.01 45.228 66.048 0 0-6.086 6.67-19.63 6.833-14.832.183-27.922.841-39.37 3.119"/>
        <path fill="#CE9D84" fill-rule="nonzero" d="M447.343 135.458c6.968-5.082 20.723-22.125 24.122-26.478 3.398-4.353 9.113-7.618 31.273-9.98 9.466 0 15.545.185 21.26 16.869C529.711 132.552 534 148.518 534 148.518c-6.615 3.624-8.223 5.256-11.257 1.817a67.258 67.258 0 0 1-6.25-9.065c-7.687.729-25.012-2.177-28.593.185-6.786 5.626-18.043 22.31-27.52 17.772-9.478-4.538-14.827-17.598-13.037-23.769z"/>
        <path fill="#F0CCBC" fill-rule="nonzero" d="M504.008 197.988c-.269 12.368 5.925 48.127 27.61 66.012-.13-12.228 16.838-41.534 21.685-51.751 4.848-10.217 16.967-35.221 3.641-40.459-11.462-1.183-16.848-1.99-20.08-4.99-3.231-3-32.856-6.947-32.856 31.188z"/>
        <path fill="#F0CCBC" fill-rule="nonzero" d="M460 158.51c1.793 13.309 2.33 19.968 7.163 22.31l4.833 2.343c.354 8.634 10.385 18.348 10.385 18.348a6.668 6.668 0 0 0 5.552 6.12c6.261 8.991 14.144 17.81 19.149 18.349 5.004.54 20.405-9.898 25.055-21.587 4.65-11.689 7.517-22.31 3.222-33.643 3.941-3.777 5.37-13.135 4.295-17.625-1.074-4.49-2.502-6.66-5.906-5.213-3.405 1.619-6.444 5.396-10.02 2.342-3.576-3.055-6.626-10.437-9.848-9.714-3.222.723-25.055-.54-25.055-.54-11.287 9.746-20.416 24.674-28.825 18.51z"/>
        <path stroke="#163050" stroke-linecap="round" stroke-linejoin="round" stroke-width="3" d="M487 208.418c6.51 5.522 13.152 21.148 24.112 18.22 4.866-1.297 23.947-17.042 26.523-34.473.986-6.7-.208-13.508-1.414-20.165M460 159a277.421 277.421 0 0 0 2.15 14.597c.196 1.591.68 3.131 1.43 4.544 1.732 2.853 5.226 3.959 8.42 4.859M472 183c2.42 9.388 4.849 11.668 11 19M484 181c4.916-4.658 11.837-7.204 19-6.987"/>
        <path stroke="#163050" stroke-linecap="round" stroke-linejoin="round" stroke-width="3" d="M480 187a191.403 191.403 0 0 1 2.803 16.308c.157 1.218.387 2.588 1.37 3.262.741.407 1.596.53 2.416.348a13.512 13.512 0 0 0 6.411-2.653M529 151.498a11.811 11.811 0 0 1 5.166-3.354c1.998-.482 4.403.242 5.313 2.192.41 1.06.581 2.203.502 3.343 0 2.992-.083 5.38-.073 8.384a14.625 14.625 0 0 1-.607 5.183c-.93 2.488-3.137 4.187-5.229 5.754M445 137.541c1.566 7.988 5.99 15.965 12.887 20.393a12.102 12.102 0 0 0 5.004 2.05 10.576 10.576 0 0 0 7.828-2.864c2.6-2.34 5.04-4.849 7.303-7.51A46.325 46.325 0 0 1 496 136"/>
        <path stroke="#163050" stroke-linecap="round" stroke-linejoin="round" stroke-width="3" d="M446 137.715c.45-2.857 2.937-3.846 5.23-5.495 9.743-7.11 14.46-19.065 24.492-25.746 3.773-2.505 39.657-16.483 49.84 13.186 3.815 11.187 5.702 17.582 7.438 29.34"/>
        <path stroke="#163050" stroke-linecap="round" stroke-linejoin="round" stroke-width="3" d="M446 137c.494-2.29 2.761-2.608 4.706-3.137A66.764 66.764 0 0 0 473 123M487 141.5c8.771-1.533 17.804 1.027 26.674.215 1.697-.154 2.089.082 2.796 1.296A33.863 33.863 0 0 0 523 151M510 226.3c2.266 5.316 9.802 30.562 21.955 37.7 1.743-27.876 52.515-90.451 20.448-93.998 0 0-8.733-1.005-12.474-3.002"/>
        <path fill="#576C85" fill-rule="nonzero" d="M512.027 226.91c-.58 2.678 8.29 10.883 18.04 2.219 28.938-25.705 7.075-73.434 6.135-54.996 8.101 34.135-19.676 45.446-24.175 52.776zM471.094 167.828c5.139-.983 9.326-4.978 11.863-9.592 1.793-3.312 3.083-7.086 6.145-9.184 2.678-1.82 6.1-1.91 9.315-2.207 3.215-.298 6.735-1.104 8.583-3.808-5.467-3.875-12.88-3.731-19.068-1.314-6.189 2.417-11.404 6.8-16.488 11.104-2.33 1.965-10.595 6.965-10.442 10.497.186 4.228 6.856 5.11 10.092 4.504zM483.636 183.343c3.602 2.781 8.476 3.433 12.716 1.7 4.24-1.733 7.171-5.575 7.648-10.023-8.476-.29-16.733 2.659-23 8.216l2.636.107z" opacity=".1"/>
        <path fill="#163050" fill-rule="nonzero" d="M492.153 336.528c-.858 1.919-1.758 4.25-.611 6.006 1.146 1.756 3.718 1.832 5.465.77a11.715 11.715 0 0 0 3.825-4.76 195.713 195.713 0 0 0 7.63-15.569c2.657-6.082 5.068-12.576 4.436-19.19-1.071-10.603-9.322-20.242-14.895-28.785 1.48 21.922 3.43 40.657-5.85 61.528zM566.796 327.084c7.898-1.714 15.656-5.734 20.04-12.529 3.782-5.873 4.671-13.086 5.464-20.03L597.262 251l4.49 56.439c.386 4.855.675 10.117-1.983 14.2-2.657 4.084-7.64 5.96-12.29 7.503A609.671 609.671 0 0 1 539.255 343c.332-.075-12.324-24.211-13.256-26.333 5.883.675 11.627 7.063 17.564 9.045a44.262 44.262 0 0 0 23.232 1.372zM567.327 493.395a555.36 555.36 0 0 0-10.788-59.078c-5.922-28.96-6.99-47.721 13.215-62.995l.755-.562c.335-.259.68-.496 1.025-.745a16.81 16.81 0 0 0-1.953-.54c-7.454-1.597-16.828 1.253-25.89 4.157-12.33 3.961-24.013 8.03-29.212 1.025 4.38-1.177 3.948-1.781 8.133-3.53-4.444-3.616-11.294.842-16.742-.95-4.401-1.446-6.634-6.541-10.787-8.57-3.679-1.792-8.016-.864-12.093-.41-8.49.906-15.21-1.62-23.29-3.239-34.78-7.06-30.022-.82-21.802 11.69 3.538 7.136 39.676 16.419 58.997 22.95 27.918 9.433 2.157 15.111-8.63 15.543-16.408.67-32.363-4.825-43.15-3.238 5.922 12.705 27.152 135.437-.4 155.687 1.327.086 22.654 9.542 24.747 22.754.41 2.666.324 5.56-1.143 7.815-1.672 2.59-4.769 3.8-7.67 4.858 6.86 3.238 13.29 1.425 18.619-4.005 18.155 7.308 55.383 13.58 78.134-.076 9.71-5.828 16.775-16.191 18.598-30.148-4.337-2.645-4.833-36.302-8.673-68.393zm-61.683-86.97h-.054a1.641 1.641 0 0 0-.12-.238l.174.238zm3.236 176.207c-38.393-16.084-16.182-29.63-42.072-141.18-5.836-25.204 19.418-18.739 15.826-1.079 22.244-26.414 53.43-13.633 60.41-4.696 34.93 44.408 26.861 172.473-34.11 146.955h-.054z" opacity=".1"/>
        <path fill="#163050" fill-rule="nonzero" d="M483 441a8.183 8.183 0 0 1-1.946 4c-.272-.921.493-2.334 1.946-4zM673 403.894A101.993 101.993 0 0 0 644 408c9.042-4.695 19.184-6.131 29-4.106zM646 239l-.196-.08a183.472 183.472 0 0 0-3.453-1.356 36.778 36.778 0 0 0-1.736-.615c-.64-.205-1.664-.536-2.615-.81l2.45-.546 2.708-.593a31.338 31.338 0 0 0-1.189 2.097c1.292.592 2.563 1.208 3.835 1.812L646 239z" opacity=".1"/>
        <path fill="#163050" fill-rule="nonzero" d="M738 406.984c-10.444 5.095-22.698 4.5-34.187 2.79-10.573-1.578-20.964-3.742-31.71-3.482 6.009-.822 12.028.844 18.165-.498 6.644-1.45 13.104-5.408 15.839-11.639 2.304-5.257 1.701-11.282 1.077-16.994-.7-6.111-1.443-12.385-3.65-18.064a30.568 30.568 0 0 0-2.154-4.576 35.684 35.684 0 0 0-4.425-5.949c-2.154-2.456-4.63-4.727-7-7.02-14.632-14.181-27.768-30.688-35.78-49.294a101.435 101.435 0 0 1-5.2-15.144 77.672 77.672 0 0 1-1.141-4.965 94.437 94.437 0 0 1-.786-32.548c.075-.53.161-1.082.247-1.601h.334c2.918 0 6.46 2.369 8.991 5.344.316.345.614.706.894 1.081 1.7 2.283 2.8 4.803 2.67 6.923-.323 5.474-3.123 10.45-4.458 15.76-2.66 10.656-1.152 18.606 4.953 27.714 6.105 9.108 13.998 16.507 20.824 25.074 12.372 15.49 25.573 4.597 27.705 6.955 3.94 4.327-8.819 21.634 3.306 43.96 4.123 7.573 9.776-4.91 13.103-1.08 1.368 9.183-11.305 20.454-9.184 32.85.861 5.247 5.857 5.247 21.567 4.403z" opacity=".1"/>
        <path fill="#163050" fill-rule="nonzero" d="M802.75 369.644c-14.124-26.75-62.185-93.87-146.062-128.04.317.344.616.705.897 1.08 55.068 26.805 86.619 64.567 111.734 97.721 90.204 118.987 24.565 241.403-75.854 226.756-74.137-10.816-98.853-143.162-28.074-162.254 8.034-2.163 17.19-.487 25.073-.833 6.662-1.45 13.14-5.408 15.883-11.639 2.31-5.257 1.706-11.282 1.08-16.993-.702-6.112-1.447-12.386-3.66-18.065a95.875 95.875 0 0 0-6.609-10.525c-2.16-2.455-4.643-4.727-7.018-7.02-14.674-14.181-27.848-30.688-35.881-49.293a79.759 79.759 0 0 1-5.399-12.04c0-.8.086-1.849.14-3.114a77.485 77.485 0 0 1-1.144-4.965 94.175 94.175 0 0 1-.788-32.549 203.62 203.62 0 0 0-3.607-1.287c-.54-.184-1.144-.39-1.814-.584 3.37 28.124-.864 60.845-7.947 83.475-17.417 55.653-80.335 33.218-95.646 54.084l-.054.065 32.976-4.673c11.251-2.217 12.094 8.86 35.417.639 94.728-33.36 91.014 17.09 47.402 29.205-37.792 10.439-65.003-19.189-45.286 15.588 10.236 18.053 10.398 109.002 6.479 131.242-2.322 13.11-9.362 17.307-17.525 21.472 4.32 2.455 9.48 2.498 14.393 1.081 2.505.925 4.718 2.5 6.414 4.565a18.274 18.274 0 0 1 2.667 18.443c-1.242 2.92-3.24 6.49-1.155 8.892.583.692 1.436 1.146 1.943 1.893 1.663 2.423-1.155 5.408-3.628 6.933 3.618 2.488 7.386.368 10.56-2.65 7.926-7.572 4.503-9.811 5.4-9.735 18.356 1.622 65.865 11.487 116.615-.14 24.025-6.22 69.645-21.905 85.302-77.342 15.656-55.437-18.378-121.27-33.225-149.393zm-130.221 34.235a112.108 112.108 0 0 0-28.992 3.71 47.67 47.67 0 0 1 28.992-3.71z" opacity=".1"/>
        <path fill="#163050" fill-rule="nonzero" d="M569 369.498c-8.667 1.813-17.333 3.344-26 4.502 9.1-3.145 18.514-6.232 26-4.502zM569 371.5l1-.26-.574.52zM645.722 238.705c-1.173-.44-2.346-.86-3.53-1.28a39.73 39.73 0 0 0-1.775-.58c0-.43-.106-.86-.17-1.28-2.683-21.196-9.763-39.553-23.247-48.565 13.494 7.592 24.875 18.798 29.313 50.092.096.635.18 1.269.265 1.925l-.634-.237.644.29a214.754 214.754 0 0 1 1.057 36.93 78.072 78.072 0 0 1-1.12-4.936 95.087 95.087 0 0 1-.803-32.359zM648 239a236.772 236.772 0 0 1 8.163 3.795c.296.385.575.787.837 1.205a221.132 221.132 0 0 0-9-5zM673 403.894A101.993 101.993 0 0 0 644 408c9.042-4.695 19.184-6.131 29-4.106zM689.965 341.019C675.256 326.917 662.052 310.502 654 292c11.029 20.158 30.305 38.305 43 56-2.208-2.42-4.654-4.68-7.035-6.981zM708.998 378.87c-.365 21.6-8.591 25.662-18.998 26.13 6.626-1.459 13.07-5.444 15.798-11.715 2.298-5.29 1.697-11.355 1.074-17.103-.698-6.152-1.44-12.466-3.641-18.182 3.62 6.924 5.842 13.87 5.767 20.87zM647.805 238.635l-.61-.27.6.22a.11.11 0 0 0 .01.05z" opacity=".1"/>
        <path fill="#163050" fill-rule="nonzero" d="M647.805 238.635l-.61-.27.6.22a.11.11 0 0 0 .01.05zM564.172 617.35a24.2 24.2 0 0 0 1.66-8.865 41.745 41.745 0 0 0 0-7.48c-.234-1.895-.924-4-2.684-4.753a4.263 4.263 0 0 0-3.921.542 11.238 11.238 0 0 0-2.808 2.981c-2.684 3.735-5.09 7.912-5.391 12.5-.256 3.767 1.248 7.99 4.456 10.194 2.996 2.028 7.352-2.205 8.688-5.12z" opacity=".1"/>
        <path fill="#FFB335" fill-rule="nonzero" d="M548.87 593L537 623.557l6.436 2.341c2.651.969 7.459-5.087 10.737-13.527 3.279-8.44 3.785-16.061 1.1-17.03L548.872 593z"/>
        <path stroke="#163050" stroke-linecap="round" stroke-linejoin="round" stroke-width="3" d="M548.87 593L537 623.557l6.436 2.341c2.651.969 7.459-5.087 10.737-13.527 3.279-8.44 3.785-16.061 1.1-17.03L548.872 593z"/>
        <ellipse cx="542.802" cy="607.89" fill="#FFD166" fill-rule="nonzero" rx="16.58" ry="5.048" transform="rotate(-69.4 542.802 607.89)"/>
        <ellipse cx="542.802" cy="607.89" stroke="#163050" stroke-linecap="round" stroke-linejoin="round" stroke-width="3" rx="16.58" ry="5.048" transform="rotate(-69.4 542.802 607.89)"/>
        <path fill="#E9EEF3" fill-rule="nonzero" d="M685.903 618l-32.903.495.097 6.723c0 2.776 7.437 4.906 16.526 4.776 9.09-.129 16.42-2.495 16.377-5.27l-.097-6.724z"/>
        <path stroke="#163050" stroke-linecap="round" stroke-linejoin="round" stroke-width="3" d="M685.903 618l-32.903.495.097 6.723c0 2.776 7.437 4.906 16.526 4.776 9.09-.129 16.42-2.495 16.377-5.27l-.097-6.724z"/>
        <ellipse cx="669.462" cy="617.481" fill="#F0F7FD" fill-rule="nonzero" rx="16.57" ry="5.051" transform="rotate(-.86 669.462 617.48)"/>
        <ellipse cx="669.462" cy="617.481" stroke="#163050" stroke-linecap="round" stroke-linejoin="round" stroke-width="3" rx="16.57" ry="5.051" transform="rotate(-.86 669.462 617.48)"/>
        <path fill="#E9EEF3" fill-rule="nonzero" d="M486.903 644l-32.903.495.097 6.723c0 2.776 7.437 4.906 16.526 4.776 9.09-.129 16.42-2.495 16.377-5.27l-.097-6.724z"/>
        <path stroke="#163050" stroke-linecap="round" stroke-linejoin="round" stroke-width="3" d="M486.903 644l-32.903.495.097 6.723c0 2.776 7.437 4.906 16.526 4.776 9.09-.129 16.42-2.495 16.377-5.27l-.097-6.724z"/>
        <ellipse cx="470.206" cy="644.169" fill="#F0F7FD" fill-rule="nonzero" rx="16.57" ry="5.051" transform="rotate(-.86 470.206 644.169)"/>
        <ellipse cx="470.206" cy="644.169" stroke="#163050" stroke-linecap="round" stroke-linejoin="round" stroke-width="3" rx="16.57" ry="5.051" transform="rotate(-.86 470.206 644.169)"/>
        <path fill="#FFB335" fill-rule="nonzero" d="M476.965 639.558a12.99 12.99 0 0 0 .726 11.323c3.92 7.643 14.005 11.65 22.092 9.575 2.703-.518 5.064-2.185 6.495-4.585.982-1.66 2.36-4.073 2.713-4.717.577-1.092-26.835-20.014-28.426-18.005a42.501 42.501 0 0 0-3.6 6.41z"/>
        <path stroke="#163050" stroke-linecap="round" stroke-linejoin="round" stroke-width="3" d="M475.98 639.48a12.906 12.906 0 0 0 .737 11.364c3.98 7.67 14.217 11.693 22.427 9.61a9.848 9.848 0 0 0 6.593-4.602c.998-1.666 2.863-4.975 3.254-5.632.586-1.096-27.242-20.087-28.858-18.07a54.293 54.293 0 0 0-4.154 7.33z"/>
        <path fill="#FFD166" fill-rule="nonzero" d="M509.343 639.689c3.976 7.752.552 15.693-7.638 17.797-8.19 2.105-18.071-2.447-22.048-10.178-3.976-7.73-.552-15.693 7.638-17.797 8.19-2.105 18.028 2.491 22.048 10.178z"/>
        <path stroke="#163050" stroke-linecap="round" stroke-linejoin="round" stroke-width="3" d="M509.343 639.689c3.976 7.752.552 15.693-7.638 17.797-8.19 2.105-18.071-2.447-22.048-10.178-3.976-7.73-.552-15.693 7.638-17.797 8.19-2.105 18.028 2.491 22.048 10.178z"/>
        <path fill="#78E1F2" fill-rule="nonzero" d="M80.705 531c.316 0 .62.122.843.34.223.217.349.512.349.82v.483h.662-.662v2.149c.01.298.214.557.508.644.927.28.86 1.687.43 2.041l-.662.548a.69.69 0 0 0-.254.537 42.42 42.42 0 0 0 3.444 15.983c2.207 4.866 3.532 7.948 2.406 10.322 4.415 10.301 1.103 24.565 0 32.331-1.104 7.766 2.009 10.86 2.009 16.36 0 6.498-5.232 8.442-13.82 8.442-8.586 0-13.774-1.998-13.774-8.443 0-5.488 3.179-8.593 2.053-16.348-1.126-7.755-4.415-22.03 0-32.331-1.104-2.374.232-5.457 2.406-10.322a42.417 42.417 0 0 0 3.389-15.908.69.69 0 0 0-.254-.537l-.662-.548c-.43-.365-.497-1.772.43-2.04a.701.701 0 0 0 .508-.645v-2.149h-.662.662v-.483c0-.64.533-1.16 1.192-1.16l9.459-.086z"/>
        <path stroke="#163050" stroke-linecap="round" stroke-linejoin="round" stroke-width="3" d="M81.886 532.396v.482h.662-.662v2.143a.7.7 0 0 0 .508.643c.927.278.86 1.682.43 2.035l-.662.546a.688.688 0 0 0-.254.536 42.215 42.215 0 0 0 3.455 15.941c2.207 4.853 3.532 7.928 2.406 10.295 4.415 10.274 1.103 24.501 0 32.247-1.104 7.745 2.009 10.83 2.009 16.316 0 6.48-5.232 8.42-13.82 8.42-8.586 0-13.774-1.993-13.774-8.42 0-5.475 3.179-8.57 2.053-16.306-1.126-7.735-4.415-21.972 0-32.246-1.104-2.368.232-5.442 2.406-10.295a42.21 42.21 0 0 0 3.389-15.866.688.688 0 0 0-.254-.536l-.662-.546c-.43-.365-.497-1.768.43-2.036a.7.7 0 0 0 .508-.643v-2.142h-.662.662v-.482c-.011-3.418 11.832-3.171 11.832-.086z"/>
        <path fill="#163050" fill-rule="nonzero" d="M84.227 592.427c1.234-7.697 2.379-16.024-1.323-22.929-.645-1.205-1.468-2.519-1.112-3.843a7.862 7.862 0 0 1 1.112-1.965c1.579-2.53 1.112-5.798.078-8.599-1.034-2.8-2.48-5.493-2.769-8.435-.189-1.9.134-3.843-.278-5.71-.411-1.868-1.923-3.735-3.88-3.66a7.13 7.13 0 0 1 5.77-1.085c-1.023 6.796 1.79 13.484 3.736 20.085a81.994 81.994 0 0 1 3.035 30.528c-.567 6.286-1.857 12.724-.233 18.836.7 1.99 1.24 4.03 1.612 6.101.211 2.096-.923 5.602-2.713 6.775-1.345.88-4.358 3.344-5.97 3.365L70.907 622c-1.456 0-10.284-4.918-7.293-8.446 2.113-2.497 16.733 8.033 20.613-21.127z" opacity=".1"/>
        <path stroke="#163050" stroke-linecap="round" stroke-linejoin="round" stroke-width="3" d="M67 565a27.35 27.35 0 0 0 6 1M76 532l-2.965-14.028L60 513"/>
        <path fill="#FFF" fill-rule="nonzero" d="M758.096 350l6.904 6.897-4.607 4.598 4.607 4.608-6.904 6.897-4.596-4.598-4.596 4.598-6.904-6.897 4.607-4.608-4.607-4.598 6.904-6.897 4.596 4.598zM701 504h11v11h-11z"/>
        <path fill="#C5ECF9" fill-rule="nonzero" d="M415 41h11v11h-11z"/>
        <path fill="#FFD167" fill-rule="nonzero" d="M24 340h11v11H24z"/>
        <path fill="#C8B1FF" fill-rule="nonzero" d="M436.157 20.422l8.408-8.413 8.407 8.413-8.407 8.414z"/>
    </g>
</svg>
