<?xml version="1.0" encoding="UTF-8"?>
<svg width="109px" height="99px" viewBox="0 0 109 99" version="1.1" xmlns="http://www.w3.org/2000/svg" xmlns:xlink="http://www.w3.org/1999/xlink">
    <!-- Generator: Sketch 50.2 (55047) - http://www.bohemiancoding.com/sketch -->
    <title>icn-trezor-new</title>
    <desc>Created with Sketch.</desc>
    <defs></defs>
    <g id="New-Onboarding-Modal" stroke="none" stroke-width="1" fill="none" fill-rule="evenodd">
        <g id="icn-trezor-new" transform="translate(-3.000000, -2.000000)">
            <path d="" id="Path-3" stroke="#979797" stroke-width="0.5"></path>
            <path d="M44.2727273,83.9452076 C47.7771363,92.147951 51.889609,96.9639661 56.6101455,98.3932528 C63.6909503,100.537183 72.8111154,97.0882172 74.8963575,86.6295735 C76.9815995,76.1709297 76.9815995,70.212401 80.3451993,66.3643417 C82.5875991,63.7989688 84.9876842,62.3632965 87.5454545,62.0573248" id="Path-4" stroke="#005268" stroke-width="2.59872611"></path>
            <path d="M31.0464586,77.1638664 L35.2617696,77.1638664 L35.2617696,79.0131054 L52.353044,79.0131054 L52.353044,71.4410166 L35.2617696,71.4410166 L35.2617696,73.2902557 L31.0464586,73.2902557 L31.0464586,77.1638664 Z" id="Combined-Shape" stroke="#005268" stroke-width="2.59872611" fill="#1097C0" transform="translate(41.699751, 75.227061) rotate(71.000000) translate(-41.699751, -75.227061) "></path>
            <path d="M88.208454,59.0072793 L88.208454,60.4121929 L91.423765,60.4121929 L91.423765,65.2165605 L108.518819,65.2165605 L108.518819,53.8025478 L91.423765,53.8025478 L91.423765,59.0072793 L88.208454,59.0072793 Z" id="Combined-Shape" stroke="#005268" stroke-width="2.59872611" fill="#1097C0" transform="translate(98.363636, 59.509554) rotate(-11.000000) translate(-98.363636, -59.509554) "></path>
            <g id="Group-4" transform="translate(29.094573, 36.822212) rotate(-16.000000) translate(-29.094573, -36.822212) translate(8.594573, 4.822212)" stroke="#005268" stroke-width="2.59872611">
                <path d="M10.2581294,1.29936306 C5.31033937,1.29936306 1.29936306,5.31033937 1.29936306,10.2581294 L1.29936306,43.4845358 C1.29936306,45.4128002 1.9215143,47.2896043 3.07335934,48.8360378 L10.2908976,58.5260936 C11.9815582,60.795925 14.6453907,62.1333579 17.4756677,62.1333579 L23.2516051,62.1333579 C26.0818821,62.1333579 28.7457146,60.795925 30.4363751,58.5260936 L37.6539134,48.8360378 C38.8057584,47.2896043 39.4279097,45.4128002 39.4279097,43.4845358 L39.4279097,10.2581294 C39.4279097,5.31033937 35.4169334,1.29936306 30.4691433,1.29936306 L10.2581294,1.29936306 Z" id="Rectangle-8" fill="#1097C0"></path>
                <rect id="Rectangle-10" fill="#077493" x="5.77936306" y="10.7119604" width="29.1685466" height="28.094526" rx="2.27958431"></rect>
            </g>
            <rect id="Rectangle-17" fill="#005268" transform="translate(109.136364, 57.961783) rotate(-11.000000) translate(-109.136364, -57.961783) " x="107.545455" y="54.1401274" width="3.18181818" height="7.6433121"></rect>
        </g>
    </g>
</svg>