<?xml version="1.0" encoding="UTF-8"?>
<svg width="109px" height="100px" viewBox="0 0 109 100" version="1.1" xmlns="http://www.w3.org/2000/svg" xmlns:xlink="http://www.w3.org/1999/xlink">
    <!-- Generator: Sketch 50.2 (55047) - http://www.bohemiancoding.com/sketch -->
    <title>icn-trezor-new</title>
    <desc>Created with Sketch.</desc>
    <defs></defs>
    <g id="New-Onboarding-Modal" stroke="none" stroke-width="1" fill="none" fill-rule="evenodd">
        <g id="New-Modal-Wireframe-v3-04" transform="translate(-696.000000, -342.000000)">
            <g id="icn-trezor-new" transform="translate(693.000000, 340.000000)">
                <path d="" id="Path-3" stroke="#979797" stroke-width="0.5"></path>
                <path d="M43.2727273,84.9452076 C46.7771363,93.147951 50.889609,97.9639661 55.6101455,99.3932528 C62.6909503,101.537183 71.8111154,98.0882172 73.8963575,87.6295735 C75.9815995,77.1709297 75.9815995,71.212401 79.3451993,67.3643417 C81.5875991,64.7989688 83.9876842,63.3632965 86.5454545,63.0573248" id="Path-4" stroke="#005268" stroke-width="2.59872611"></path>
                <path d="M87.208454,60.0072793 L87.208454,61.4121929 L90.423765,61.4121929 L90.423765,66.2165605 L107.518819,66.2165605 L107.518819,54.8025478 L90.423765,54.8025478 L90.423765,60.0072793 L87.208454,60.0072793 Z" id="Combined-Shape" stroke="#005268" stroke-width="2.59872611" fill="#1097C0" transform="translate(97.363636, 60.509554) rotate(-11.000000) translate(-97.363636, -60.509554) "></path>
                <g id="Group-4" transform="translate(31.818182, 46.815287) rotate(-16.000000) translate(-31.818182, -46.815287) translate(11.454545, 4.458599)" stroke="#005268" stroke-width="2.59872611">
                    <path d="M26.0728804,80.5685991 L26.1087761,80.7240803 C26.0889515,80.6382104 26.1424917,80.5525281 26.2283615,80.5327035 L26.0728804,80.5685991 Z M19.8746456,81.9995744 L19.7191645,82.0354701 C19.8050343,82.0156454 19.8907166,82.0691857 19.9105412,82.1550555 L19.8746456,81.9995744 Z M16.3165441,66.5877437 L16.2806485,66.4322626 C16.3004731,66.5181325 16.2469329,66.6038148 16.161063,66.6236394 L16.3165441,66.5877437 Z M16.9232255,63.9312597 L16.6153412,62.655564 L15.644537,64.2264682 L16.9232255,63.9312597 Z M20.7403295,63.0500118 L21.9938867,62.7606053 L20.4384963,61.7993886 L20.7403295,63.0500118 Z M22.514779,65.1567685 L22.6702601,65.1208728 C22.5843902,65.1406974 22.4987079,65.0871572 22.4788833,65.0012873 L22.514779,65.1567685 Z" id="Combined-Shape" fill="#1097C0" transform="translate(21.194712, 72.412897) rotate(-348.000000) translate(-21.194712, -72.412897) "></path>
                    <path d="M10.2581294,1.29936306 C5.31033937,1.29936306 1.29936306,5.31033937 1.29936306,10.2581294 L1.29936306,43.4845358 C1.29936306,45.4128002 1.9215143,47.2896043 3.07335934,48.8360378 L10.2908976,58.5260936 C11.9815582,60.795925 14.6453907,62.1333579 17.4756677,62.1333579 L23.2516051,62.1333579 C26.0818821,62.1333579 28.7457146,60.795925 30.4363751,58.5260936 L37.6539134,48.8360378 C38.8057584,47.2896043 39.4279097,45.4128002 39.4279097,43.4845358 L39.4279097,10.2581294 C39.4279097,5.31033937 35.4169334,1.29936306 30.4691433,1.29936306 L10.2581294,1.29936306 Z" id="Rectangle-8" fill="#1097C0"></path>
                    <rect id="Rectangle-10" fill="#077493" x="5.77936306" y="10.7119604" width="29.1685466" height="28.094526" rx="2.27958431"></rect>
                </g>
                <rect id="Rectangle-17" fill="#005268" transform="translate(109.136364, 57.961783) rotate(-11.000000) translate(-109.136364, -57.961783) " x="107.545455" y="54.1401274" width="3.18181818" height="7.6433121"></rect>
            </g>
        </g>
    </g>
</svg>