<?xml version="1.0" encoding="UTF-8" standalone="no"?>
<svg
   xmlns:dc="http://purl.org/dc/elements/1.1/"
   xmlns:cc="http://creativecommons.org/ns#"
   xmlns:rdf="http://www.w3.org/1999/02/22-rdf-syntax-ns#"
   xmlns:svg="http://www.w3.org/2000/svg"
   xmlns="http://www.w3.org/2000/svg"
   xmlns:xlink="http://www.w3.org/1999/xlink"
   id="svg2478"
   version="1.1"
   viewBox="0 0 366 670"
   height="670px"
   width="366px">
  <metadata
     id="metadata2482">
    <rdf:RDF>
      <cc:Work
         rdf:about="">
        <dc:format>image/svg+xml</dc:format>
        <dc:type
           rdf:resource="http://purl.org/dc/dcmitype/StillImage" />
        <dc:title>4A3FC493-86DC-49D3-A08D-FE565BC110BE</dc:title>
      </cc:Work>
    </rdf:RDF>
  </metadata>
  <!-- Generator: sketchtool 53.2 (72643) - https://sketchapp.com -->
  <title
     id="title2320">4A3FC493-86DC-49D3-A08D-FE565BC110BE</title>
  <desc
     id="desc2322">Created with sketchtool.</desc>
  <defs
     id="defs2365">
    <rect
       rx="2.349"
       height="601"
       width="335"
       y="0"
       x="0"
       id="path-1" />
    <filter
       id="filter-2"
       filterUnits="objectBoundingBox"
       height="105.0%"
       width="109.0%"
       y="-2.5%"
       x="-4.5%">
      <feOffset
         id="feOffset2325"
         result="shadowOffsetOuter1"
         in="SourceAlpha"
         dy="0"
         dx="0" />
      <feGaussianBlur
         id="feGaussianBlur2327"
         result="shadowBlurOuter1"
         in="shadowOffsetOuter1"
         stdDeviation="5" />
      <feColorMatrix
         id="feColorMatrix2329"
         result="shadowMatrixOuter1"
         in="shadowBlurOuter1"
         type="matrix"
         values="0 0 0 0 0.196078431   0 0 0 0 0.196078431   0 0 0 0 0.364705882  0 0 0 0.1 0" />
      <feOffset
         id="feOffset2331"
         result="shadowOffsetOuter2"
         in="SourceAlpha"
         dy="3"
         dx="0" />
      <feGaussianBlur
         id="feGaussianBlur2333"
         result="shadowBlurOuter2"
         in="shadowOffsetOuter2"
         stdDeviation="2" />
      <feColorMatrix
         id="feColorMatrix2335"
         result="shadowMatrixOuter2"
         in="shadowBlurOuter2"
         type="matrix"
         values="0 0 0 0 0   0 0 0 0 0   0 0 0 0 0  0 0 0 0.07 0" />
      <feMerge
         id="feMerge2341">
        <feMergeNode
           id="feMergeNode2337"
           in="shadowMatrixOuter1" />
        <feMergeNode
           id="feMergeNode2339"
           in="shadowMatrixOuter2" />
      </feMerge>
    </filter>
    <rect
       rx="2"
       height="40"
       width="315"
       y="0"
       x="0"
       id="path-3" />
    <filter
       id="filter-4"
       filterUnits="objectBoundingBox"
       height="112.5%"
       width="101.6%"
       y="-3.8%"
       x="-0.8%">
      <feMorphology
         id="feMorphology2345"
         result="shadowSpreadOuter1"
         in="SourceAlpha"
         operator="dilate"
         radius="0.5" />
      <feOffset
         id="feOffset2347"
         result="shadowOffsetOuter1"
         in="shadowSpreadOuter1"
         dy="1"
         dx="0" />
      <feGaussianBlur
         id="feGaussianBlur2349"
         result="shadowBlurOuter1"
         in="shadowOffsetOuter1"
         stdDeviation="0.5" />
      <feComposite
         id="feComposite2351"
         result="shadowBlurOuter1"
         operator="out"
         in2="SourceAlpha"
         in="shadowBlurOuter1" />
      <feColorMatrix
         id="feColorMatrix2353"
         in="shadowBlurOuter1"
         type="matrix"
         values="0 0 0 0 0.909803922   0 0 0 0 0.917647059   0 0 0 0 0.929411765  0 0 0 0.5 0" />
    </filter>
    <filter
       id="filter-5"
       filterUnits="objectBoundingBox"
       height="117.5%"
       width="102.2%"
       y="-6.2%"
       x="-1.1%">
      <feGaussianBlur
         id="feGaussianBlur2356"
         result="shadowBlurInner1"
         in="SourceAlpha"
         stdDeviation="1.5" />
      <feOffset
         id="feOffset2358"
         result="shadowOffsetInner1"
         in="shadowBlurInner1"
         dy="1"
         dx="0" />
      <feComposite
         id="feComposite2360"
         result="shadowInnerInner1"
         k3="1"
         k2="-1"
         operator="arithmetic"
         in2="SourceAlpha"
         in="shadowOffsetInner1" />
      <feColorMatrix
         id="feColorMatrix2362"
         in="shadowInnerInner1"
         type="matrix"
         values="0 0 0 0 0.909803922   0 0 0 0 0.917647059   0 0 0 0 0.929411765  0 0 0 0.5 0" />
    </filter>
  </defs>
  <g
     style="fill:none;fill-rule:evenodd;stroke:none;stroke-width:1"
     transform="translate(4)"
     id="Homepage">
    <g
       transform="translate(-9,-2388)"
       id="Homepage---Mobile">
      <g
         transform="translate(19,2398)"
         id="Group-24">
        <circle
           style="fill:#0c9fe1"
           r="74.5"
           cy="583.14899"
           cx="300.14899"
           transform="rotate(-16,300.14898,583.14898)"
           id="Oval" />
        <g
           id="Group-15">
          <g
             id="Group-10">
            <g
               id="card">
              <use
                 height="100%"
                 width="100%"
                 y="0"
                 x="0"
                 style="fill:#000000;fill-opacity:1;filter:url(#filter-2)"
                 id="use2368"
                 xlink:href="#path-1" />
              <use
                 height="100%"
                 width="100%"
                 y="0"
                 x="0"
                 style="fill:#ffffff;fill-rule:evenodd"
                 id="use2370"
                 xlink:href="#path-1" />
            </g>
          </g>
          <text
             style="font-weight:bold;font-size:20px;font-family:Lato-Bold, Lato;fill:#424242"
             font-weight="bold"
             font-size="20"
             id="Your-Transactions">
            <tspan
               id="tspan2374"
               y="46"
               x="10">Your Transactions</tspan>
          </text>
          <g
             transform="translate(10,74)"
             id="Group-21">
            <g
               id="dropdown">
              <g
                 id="Rectangle">
                <use
                   height="100%"
                   width="100%"
                   y="0"
                   x="0"
                   style="fill:#000000;fill-opacity:1;filter:url(#filter-4)"
                   id="use2377"
                   xlink:href="#path-3" />
                <use
                   height="100%"
                   width="100%"
                   y="0"
                   x="0"
                   style="fill:#ffffff;fill-rule:evenodd"
                   id="use2379"
                   xlink:href="#path-3" />
                <use
                   height="100%"
                   width="100%"
                   y="0"
                   x="0"
                   style="fill:#000000;fill-opacity:1;filter:url(#filter-5)"
                   id="use2381"
                   xlink:href="#path-3" />
                <use
                   height="100%"
                   width="100%"
                   y="0"
                   x="0"
                   style="stroke:#e8eaed;stroke-width:1"
                   id="use2383"
                   xlink:href="#path-3" />
              </g>
              <text
                 style="font-weight:normal;font-size:18px;font-family:Lato-Regular, Lato;fill:#424242"
                 font-weight="normal"
                 font-size="18"
                 id="Ethereum">
                <tspan
                   id="tspan2386"
                   y="27"
                   x="13">October 01 - October 29, 2018</tspan>
              </text>
            </g>
            <g
               style="fill:#1eb8e7"
               transform="translate(287,12)"
               id="calendar">
              <path
                 id="Shape"
                 d="M 15,16 H 1 C 0.449,16 0,15.5515 0,15 V 2.5 c 0,-0.5515 0.449,-1 1,-1 h 4 v -1 C 5,0.224 5.2235,0 5.5,0 5.7765,0 6,0.224 6,0.5 v 1 h 4 v -1 C 10,0.224 10.2235,0 10.5,0 10.7765,0 11,0.224 11,0.5 v 1 h 4 c 0.551,0 1,0.4485 1,1 V 15 c 0,0.5515 -0.449,1 -1,1 z M 11,2.5 V 3 C 11,3.276 10.7765,3.5 10.5,3.5 10.2235,3.5 10,3.276 10,3 V 2.5 H 6 V 3 C 6,3.276 5.7765,3.5 5.5,3.5 5.2235,3.5 5,3.276 5,3 V 2.5 H 1 V 15 H 14.9985 L 15,2.5 Z m 1.5,9.5 h -1 C 11.2235,12 11,11.776 11,11.5 v -1 C 11,10.224 11.2235,10 11.5,10 h 1 c 0.2765,0 0.5,0.224 0.5,0.5 v 1 c 0,0.276 -0.2235,0.5 -0.5,0.5 z m 0,-4 h -1 C 11.2235,8 11,7.776 11,7.5 v -1 C 11,6.224 11.2235,6 11.5,6 h 1 C 12.7765,6 13,6.224 13,6.5 v 1 C 13,7.776 12.7765,8 12.5,8 Z m -4,4 h -1 C 7.2235,12 7,11.776 7,11.5 v -1 C 7,10.224 7.2235,10 7.5,10 h 1 C 8.7765,10 9,10.224 9,10.5 v 1 C 9,11.776 8.7765,12 8.5,12 Z m 0,-4 h -1 C 7.2235,8 7,7.776 7,7.5 v -1 C 7,6.224 7.2235,6 7.5,6 h 1 C 8.7765,6 9,6.224 9,6.5 v 1 C 9,7.776 8.7765,8 8.5,8 Z m -4,4 h -1 C 3.2235,12 3,11.776 3,11.5 v -1 C 3,10.224 3.2235,10 3.5,10 h 1 C 4.7765,10 5,10.224 5,10.5 v 1 C 5,11.776 4.7765,12 4.5,12 Z m 0,-4 h -1 C 3.2235,8 3,7.776 3,7.5 v -1 C 3,6.224 3.2235,6 3.5,6 h 1 C 4.7765,6 5,6.224 5,6.5 v 1 C 5,7.776 4.7765,8 4.5,8 Z" />
            </g>
          </g>
          <g
             transform="translate(8,129)"
             id="Group-28">
            <path
               style="stroke:#ecedf4;stroke-width:1.92629814;stroke-linecap:square"
               id="Line-5"
               d="M 3.6834171,254.44001 H 318.68342" />
            <path
               style="stroke:#ecedf4;stroke-width:1.92629814;stroke-linecap:square"
               id="Line-5-Copy-2"
               d="M 3.6834171,194.72476 H 318.68342" />
            <path
               style="stroke:#ecedf4;stroke-width:1.92629814;stroke-linecap:square"
               id="Line-5-Copy-4"
               d="M 3.6834171,135.00952 H 318.68342" />
            <path
               style="stroke:#ecedf4;stroke-width:1.92629814;stroke-linecap:square"
               id="Line-5-Copy-6"
               d="M 3.6834171,75.294278 H 318.68342" />
            <path
               style="stroke:#ecedf4;stroke-width:1.92629814;stroke-linecap:square"
               id="Line-5-Copy-7"
               d="M 3.6834171,15.579036 H 318.68342" />
            <text
               style="font-weight:normal;font-size:10px;font-family:Lato-Regular, Lato;fill:#b5bfc7"
               font-weight="normal"
               font-size="10"
               id="$0-USD">
              <tspan
                 id="tspan2398"
                 y="251"
                 x="0">$0 USD</tspan>
            </text>
            <text
               style="font-weight:normal;font-size:10px;font-family:Lato-Regular, Lato;fill:#b5bfc7"
               font-weight="normal"
               font-size="10"
               id="$1,000-USD">
              <tspan
                 id="tspan2401"
                 y="191"
                 x="0">$1,000 USD</tspan>
            </text>
            <text
               style="font-weight:normal;font-size:10px;font-family:Lato-Regular, Lato;fill:#b5bfc7"
               font-weight="normal"
               font-size="10"
               id="$2,000-USD">
              <tspan
                 id="tspan2404"
                 y="131"
                 x="0">$2,000 USD</tspan>
            </text>
            <text
               style="font-weight:normal;font-size:10px;font-family:Lato-Regular, Lato;fill:#b5bfc7"
               font-weight="normal"
               font-size="10"
               id="$3,000-USD">
              <tspan
                 id="tspan2407"
                 y="70"
                 x="0">$3,000 USD</tspan>
            </text>
            <text
               style="font-weight:normal;font-size:10px;font-family:Lato-Regular, Lato;fill:#b5bfc7"
               font-weight="normal"
               font-size="10"
               id="$4,000-USD">
              <tspan
                 id="tspan2410"
                 y="10"
                 x="0">$4,000 USD</tspan>
            </text>
            <text
               style="font-weight:normal;font-size:10px;font-family:Lato-Regular, Lato;fill:#b5bfc7"
               font-weight="normal"
               font-size="10"
               id="Oct-01">
              <tspan
                 id="tspan2413"
                 y="272"
                 x="68">Oct 01</tspan>
            </text>
            <text
               style="font-weight:normal;font-size:10px;font-family:Lato-Regular, Lato;fill:#b5bfc7"
               font-weight="normal"
               font-size="10"
               id="Oct-29">
              <tspan
                 id="tspan2416"
                 y="272"
                 x="290">Oct 29</tspan>
            </text>
          </g>
          <polyline
             style="stroke:#a682ff;stroke-width:2"
             points="87 237 115.66579 303.638 143.541717 367 198.900654 306.759826 206.230062 279.78303 227.557377 279 257.984744 264.944444 303.6603 301.908846 327 300.512434"
             id="Path-15" />
          <g
             style="font-weight:normal;font-family:Lato-Regular, Lato"
             font-weight="normal"
             transform="translate(15,511)"
             id="top-numbers/normal-mode">
            <g
               transform="translate(0,3)"
               id="top-numbers">
              <text
                 style="font-size:18.20000076px;fill:#424242"
                 font-size="18.2"
                 id="$21,401.94">
                <tspan
                   id="tspan2421"
                   y="31.799999"
                   x="0">$6,572.50 USD</tspan>
              </text>
              <text
                 style="font-size:11.19999981px;fill:#b5bfc7"
                 font-size="11.2"
                 id="Balance">
                <tspan
                   id="tspan2424"
                   y="11.666667"
                   x="0">Rate</tspan>
              </text>
            </g>
          </g>
          <g
             style="font-weight:normal;font-family:Lato-Regular, Lato"
             font-weight="normal"
             transform="translate(201,443)"
             id="g2439">
            <g
               transform="translate(0,3)"
               id="g2437">
              <text
                 style="font-size:18.20000076px;fill:#424242"
                 font-size="18.2"
                 id="text2431">
                <tspan
                   id="tspan2429"
                   y="31.799999"
                   x="0">$9,358.12 USD</tspan>
              </text>
              <text
                 style="font-size:11.19999981px;fill:#b5bfc7"
                 font-size="11.2"
                 id="text2435">
                <tspan
                   id="tspan2433"
                   y="11.666667"
                   x="0">Received</tspan>
              </text>
            </g>
          </g>
          <g
             style="font-weight:normal;font-family:Lato-Regular, Lato"
             font-weight="normal"
             transform="translate(201,511)"
             id="g2451">
            <g
               transform="translate(0,3)"
               id="g2449">
              <text
                 style="font-size:18.20000076px;fill:#424242"
                 font-size="18.2"
                 id="text2443">
                <tspan
                   id="tspan2441"
                   y="31.799999"
                   x="0">$8,114.12 USD</tspan>
              </text>
              <text
                 style="font-size:11.19999981px;fill:#b5bfc7"
                 font-size="11.2"
                 id="text2447">
                <tspan
                   id="tspan2445"
                   y="11.666667"
                   x="0">Sent</tspan>
              </text>
            </g>
          </g>
          <g
             style="font-weight:normal;font-family:Lato-Regular, Lato"
             font-weight="normal"
             transform="translate(15,443)"
             id="g2463">
            <g
               transform="translate(0,3)"
               id="g2461">
              <text
                 style="font-size:18.20000076px;fill:#424242"
                 font-size="18.2"
                 id="text2455">
                <tspan
                   id="tspan2453"
                   y="31.799999"
                   x="0">$21,404.94 USD</tspan>
              </text>
              <text
                 style="font-size:11.19999981px;fill:#b5bfc7"
                 font-size="11.2"
                 id="text2459">
                <tspan
                   id="tspan2457"
                   y="11.666667"
                   x="0">Balance</tspan>
              </text>
            </g>
          </g>
        </g>
        <g
           style="fill:#ffd166;fill-rule:nonzero"
           transform="rotate(176,135.56639,335.04261)"
           id="Group-4">
          <polygon
             points="27.848599,25.493503 57.40576,25.493503 57.40576,36.11865 27.848599,36.11865 "
             transform="rotate(-45,42.627179,30.806077)"
             id="Rectangle-path-3" />
          <polygon
             points="49.911969,61.020195 79.464528,61.020195 79.464528,71.645342 49.911969,71.645342 "
             transform="rotate(-20.18,64.688249,66.332769)"
             id="Rectangle-path-4" />
          <polygon
             points="-2.2602771,6.2578035 14.427997,6.2578035 14.427997,12.257803 -2.2602771,12.257803 "
             transform="rotate(-69.82,6.08386,9.257804)"
             id="Rectangle-path-5" />
        </g>
      </g>
      <text
         style="font-weight:normal;font-size:16px;font-family:Lato-Regular, Lato;fill:#163150"
         line-spacing="20"
         font-weight="normal"
         font-size="16"
         id="See-a-detailed-break">
        <tspan
           id="tspan2471"
           y="2353"
           x="52.792">See a detailed breakdown of all your</tspan>
        <tspan
           id="tspan2473"
           y="2373"
           x="63.655998">wallets, tokens, and transactions.</tspan>
      </text>
    </g>
  </g>
</svg>
