<?xml version="1.0" encoding="UTF-8"?>
<svg width="366px" height="670px" viewBox="0 0 366 670" version="1.1" xmlns="http://www.w3.org/2000/svg" xmlns:xlink="http://www.w3.org/1999/xlink">
    <!-- Generator: sketchtool 53.2 (72643) - https://sketchapp.com -->
    <title>4A3FC493-86DC-49D3-A08D-FE565BC110BE</title>
    <desc>Created with sketchtool.</desc>
    <defs>
        <rect id="path-1" x="0" y="0" width="335" height="601" rx="2.349"></rect>
        <filter x="-4.5%" y="-2.5%" width="109.0%" height="105.0%" filterUnits="objectBoundingBox" id="filter-2">
            <feOffset dx="0" dy="0" in="SourceAlpha" result="shadowOffsetOuter1"></feOffset>
            <feGaussianBlur stdDeviation="5" in="shadowOffsetOuter1" result="shadowBlurOuter1"></feGaussianBlur>
            <feColorMatrix values="0 0 0 0 0.196078431   0 0 0 0 0.196078431   0 0 0 0 0.364705882  0 0 0 0.1 0" type="matrix" in="shadowBlurOuter1" result="shadowMatrixOuter1"></feColorMatrix>
            <feOffset dx="0" dy="3" in="SourceAlpha" result="shadowOffsetOuter2"></feOffset>
            <feGaussianBlur stdDeviation="2" in="shadowOffsetOuter2" result="shadowBlurOuter2"></feGaussianBlur>
            <feColorMatrix values="0 0 0 0 0   0 0 0 0 0   0 0 0 0 0  0 0 0 0.07 0" type="matrix" in="shadowBlurOuter2" result="shadowMatrixOuter2"></feColorMatrix>
            <feMerge>
                <feMergeNode in="shadowMatrixOuter1"></feMergeNode>
                <feMergeNode in="shadowMatrixOuter2"></feMergeNode>
            </feMerge>
        </filter>
        <rect id="path-3" x="0" y="0" width="315" height="40" rx="2"></rect>
        <filter x="-0.8%" y="-3.8%" width="101.6%" height="112.5%" filterUnits="objectBoundingBox" id="filter-4">
            <feMorphology radius="0.5" operator="dilate" in="SourceAlpha" result="shadowSpreadOuter1"></feMorphology>
            <feOffset dx="0" dy="1" in="shadowSpreadOuter1" result="shadowOffsetOuter1"></feOffset>
            <feGaussianBlur stdDeviation="0.5" in="shadowOffsetOuter1" result="shadowBlurOuter1"></feGaussianBlur>
            <feComposite in="shadowBlurOuter1" in2="SourceAlpha" operator="out" result="shadowBlurOuter1"></feComposite>
            <feColorMatrix values="0 0 0 0 0.909803922   0 0 0 0 0.917647059   0 0 0 0 0.929411765  0 0 0 0.5 0" type="matrix" in="shadowBlurOuter1"></feColorMatrix>
        </filter>
        <filter x="-1.1%" y="-6.2%" width="102.2%" height="117.5%" filterUnits="objectBoundingBox" id="filter-5">
            <feGaussianBlur stdDeviation="1.5" in="SourceAlpha" result="shadowBlurInner1"></feGaussianBlur>
            <feOffset dx="0" dy="1" in="shadowBlurInner1" result="shadowOffsetInner1"></feOffset>
            <feComposite in="shadowOffsetInner1" in2="SourceAlpha" operator="arithmetic" k2="-1" k3="1" result="shadowInnerInner1"></feComposite>
            <feColorMatrix values="0 0 0 0 0.909803922   0 0 0 0 0.917647059   0 0 0 0 0.929411765  0 0 0 0.5 0" type="matrix" in="shadowInnerInner1"></feColorMatrix>
        </filter>
    </defs>
    <g id="Homepage" stroke="none" stroke-width="1" fill="none" fill-rule="evenodd">
        <g id="Homepage---Mobile" transform="translate(-9.000000, -2388.000000)">
            <g id="Group-24" transform="translate(19.000000, 2398.000000)">
                <circle id="Oval" fill="#0C9FE1" transform="translate(300.148979, 583.148979) rotate(-16.000000) translate(-300.148979, -583.148979) " cx="300.148979" cy="583.148979" r="74.5"></circle>
                <g id="Group-15">
                    <g id="Group-10">
                        <g id="card">
                            <use fill="black" fill-opacity="1" filter="url(#filter-2)" xlink:href="#path-1"></use>
                            <use fill="#FFFFFF" fill-rule="evenodd" xlink:href="#path-1"></use>
                        </g>
                    </g>
                    <text id="Your-Transactions" font-family="Lato-Bold, Lato" font-size="20" font-weight="bold" fill="#424242">
                        <tspan x="10" y="46">Your Transactions</tspan>
                    </text>
                    <g id="Group-21" transform="translate(10.000000, 74.000000)">
                        <g id="dropdown">
                            <g id="Rectangle">
                                <use fill="black" fill-opacity="1" filter="url(#filter-4)" xlink:href="#path-3"></use>
                                <use fill="#FFFFFF" fill-rule="evenodd" xlink:href="#path-3"></use>
                                <use fill="black" fill-opacity="1" filter="url(#filter-5)" xlink:href="#path-3"></use>
                                <use stroke="#E8EAED" stroke-width="1" xlink:href="#path-3"></use>
                            </g>
                            <text id="Ethereum" font-family="Lato-Regular, Lato" font-size="18" font-weight="normal" fill="#424242">
                                <tspan x="13" y="27">October 01 - October 29, 2018</tspan>
                            </text>
                        </g>
                        <g id="calendar" transform="translate(287.000000, 12.000000)" fill="#1EB8E7">
                            <path d="M15,16 L1,16 C0.449,16 0,15.5515 0,15 L0,2.5 C0,1.9485 0.449,1.5 1,1.5 L5,1.5 L5,0.5 C5,0.224 5.2235,0 5.5,0 C5.7765,0 6,0.224 6,0.5 L6,1.5 L10,1.5 L10,0.5 C10,0.224 10.2235,0 10.5,0 C10.7765,0 11,0.224 11,0.5 L11,1.5 L15,1.5 C15.551,1.5 16,1.9485 16,2.5 L16,15 C16,15.5515 15.551,16 15,16 Z M11,2.5 L11,3 C11,3.276 10.7765,3.5 10.5,3.5 C10.2235,3.5 10,3.276 10,3 L10,2.5 L6,2.5 L6,3 C6,3.276 5.7765,3.5 5.5,3.5 C5.2235,3.5 5,3.276 5,3 L5,2.5 L1,2.5 L1,15 L14.9985,15 L15,2.5 L11,2.5 Z M12.5,12 L11.5,12 C11.2235,12 11,11.776 11,11.5 L11,10.5 C11,10.224 11.2235,10 11.5,10 L12.5,10 C12.7765,10 13,10.224 13,10.5 L13,11.5 C13,11.776 12.7765,12 12.5,12 Z M12.5,8 L11.5,8 C11.2235,8 11,7.776 11,7.5 L11,6.5 C11,6.224 11.2235,6 11.5,6 L12.5,6 C12.7765,6 13,6.224 13,6.5 L13,7.5 C13,7.776 12.7765,8 12.5,8 Z M8.5,12 L7.5,12 C7.2235,12 7,11.776 7,11.5 L7,10.5 C7,10.224 7.2235,10 7.5,10 L8.5,10 C8.7765,10 9,10.224 9,10.5 L9,11.5 C9,11.776 8.7765,12 8.5,12 Z M8.5,8 L7.5,8 C7.2235,8 7,7.776 7,7.5 L7,6.5 C7,6.224 7.2235,6 7.5,6 L8.5,6 C8.7765,6 9,6.224 9,6.5 L9,7.5 C9,7.776 8.7765,8 8.5,8 Z M4.5,12 L3.5,12 C3.2235,12 3,11.776 3,11.5 L3,10.5 C3,10.224 3.2235,10 3.5,10 L4.5,10 C4.7765,10 5,10.224 5,10.5 L5,11.5 C5,11.776 4.7765,12 4.5,12 Z M4.5,8 L3.5,8 C3.2235,8 3,7.776 3,7.5 L3,6.5 C3,6.224 3.2235,6 3.5,6 L4.5,6 C4.7765,6 5,6.224 5,6.5 L5,7.5 C5,7.776 4.7765,8 4.5,8 Z" id="Shape"></path>
                        </g>
                    </g>
                    <g id="Group-28" transform="translate(8.000000, 129.000000)">
                        <path d="M3.68341709,254.440007 L318.683417,254.440007" id="Line-5" stroke="#ECEDF4" stroke-width="1.92629816" stroke-linecap="square"></path>
                        <path d="M3.68341709,194.724764 L318.683417,194.724764" id="Line-5-Copy-2" stroke="#ECEDF4" stroke-width="1.92629816" stroke-linecap="square"></path>
                        <path d="M3.68341709,135.009521 L318.683417,135.009521" id="Line-5-Copy-4" stroke="#ECEDF4" stroke-width="1.92629816" stroke-linecap="square"></path>
                        <path d="M3.68341709,75.2942784 L318.683417,75.2942784" id="Line-5-Copy-6" stroke="#ECEDF4" stroke-width="1.92629816" stroke-linecap="square"></path>
                        <path d="M3.68341709,15.5790355 L318.683417,15.5790355" id="Line-5-Copy-7" stroke="#ECEDF4" stroke-width="1.92629816" stroke-linecap="square"></path>
                        <text id="$0-USD" font-family="Lato-Regular, Lato" font-size="10" font-weight="normal" fill="#B5BFC7">
                            <tspan x="0" y="251">$0 USD</tspan>
                        </text>
                        <text id="$1,000-USD" font-family="Lato-Regular, Lato" font-size="10" font-weight="normal" fill="#B5BFC7">
                            <tspan x="0" y="191">$1,000 USD</tspan>
                        </text>
                        <text id="$2,000-USD" font-family="Lato-Regular, Lato" font-size="10" font-weight="normal" fill="#B5BFC7">
                            <tspan x="0" y="131">$2,000 USD</tspan>
                        </text>
                        <text id="$3,000-USD" font-family="Lato-Regular, Lato" font-size="10" font-weight="normal" fill="#B5BFC7">
                            <tspan x="0" y="70">$3,000 USD</tspan>
                        </text>
                        <text id="$4,000-USD" font-family="Lato-Regular, Lato" font-size="10" font-weight="normal" fill="#B5BFC7">
                            <tspan x="0" y="10">$4,000 USD</tspan>
                        </text>
                        <text id="Oct-01" font-family="Lato-Regular, Lato" font-size="10" font-weight="normal" fill="#B5BFC7">
                            <tspan x="68" y="272">Oct 01</tspan>
                        </text>
                        <text id="Oct-29" font-family="Lato-Regular, Lato" font-size="10" font-weight="normal" fill="#B5BFC7">
                            <tspan x="290" y="272">Oct 29</tspan>
                        </text>
                    </g>
                    <polyline id="Path-15" stroke="#A682FF" stroke-width="2" points="87 237 115.66579 303.638 143.541717 367 198.900654 306.759826 206.230062 279.78303 227.557377 279 257.984744 264.944444 303.6603 301.908846 327 300.512434"></polyline>
                    <g id="top-numbers/normal-mode" transform="translate(15.000000, 511.000000)" font-family="Lato-Regular, Lato" font-weight="normal">
                        <g id="top-numbers" transform="translate(0.000000, 3.000000)">
                            <text id="$21,401.94" font-size="18.2" fill="#424242">
                                <tspan x="0" y="31.8">$6,572.50 USD</tspan>
                            </text>
                            <text id="Balance" font-size="11.2" fill="#B5BFC7">
                                <tspan x="0" y="11.6666667">Rate</tspan>
                            </text>
                        </g>
                    </g>
                    <g id="top-numbers/normal-mode" transform="translate(201.000000, 443.000000)" font-family="Lato-Regular, Lato" font-weight="normal">
                        <g id="top-numbers" transform="translate(0.000000, 3.000000)">
                            <text id="$21,401.94" font-size="18.2" fill="#424242">
                                <tspan x="0" y="31.8">$9,358.12 USD</tspan>
                            </text>
                            <text id="Balance" font-size="11.2" fill="#B5BFC7">
                                <tspan x="0" y="11.6666667">Received</tspan>
                            </text>
                        </g>
                    </g>
                    <g id="top-numbers/normal-mode" transform="translate(201.000000, 511.000000)" font-family="Lato-Regular, Lato" font-weight="normal">
                        <g id="top-numbers" transform="translate(0.000000, 3.000000)">
                            <text id="$21,401.94" font-size="18.2" fill="#424242">
                                <tspan x="0" y="31.8">$8,114.12 USD</tspan>
                            </text>
                            <text id="Balance" font-size="11.2" fill="#B5BFC7">
                                <tspan x="0" y="11.6666667">Sent</tspan>
                            </text>
                        </g>
                    </g>
                    <g id="top-numbers/normal-mode" transform="translate(15.000000, 443.000000)" font-family="Lato-Regular, Lato" font-weight="normal">
                        <g id="top-numbers" transform="translate(0.000000, 3.000000)">
                            <text id="$21,401.94" font-size="18.2" fill="#424242">
                                <tspan x="0" y="31.8">$21,404.94 USD</tspan>
                            </text>
                            <text id="Balance" font-size="11.2" fill="#B5BFC7">
                                <tspan x="0" y="11.6666667">Balance</tspan>
                            </text>
                        </g>
                    </g>
                </g>
                <g id="Group-4" transform="translate(251.086968, 624.231353) rotate(176.000000) translate(-251.086968, -624.231353) translate(210.586968, 585.731353)" fill="#FFD166" fill-rule="nonzero">
                    <polygon id="Rectangle-path-3" transform="translate(42.627179, 30.806077) rotate(-45.000000) translate(-42.627179, -30.806077) " points="27.8485988 25.4935035 57.4057597 25.4935035 57.4057597 36.1186499 27.8485988 36.1186499"></polygon>
                    <polygon id="Rectangle-path-4" transform="translate(64.688249, 66.332769) rotate(-20.180000) translate(-64.688249, -66.332769) " points="49.9119695 61.0201953 79.4645278 61.0201953 79.4645278 71.6453417 49.9119695 71.6453417"></polygon>
                    <polygon id="Rectangle-path-5" transform="translate(6.083860, 9.257804) rotate(-69.820000) translate(-6.083860, -9.257804) " points="-2.26027707 6.25780352 14.4279966 6.25780352 14.4279966 12.2578035 -2.26027707 12.2578035"></polygon>
                </g>
            </g>
            <text id="See-a-detailed-break" font-family="Lato-Regular, Lato" font-size="16" font-weight="normal" line-spacing="20" fill="#163150">
                <tspan x="52.792" y="2353">See a detailed breakdown of all your </tspan>
                <tspan x="63.656" y="2373">wallets, tokens, and transactions.</tspan>
            </text>
        </g>
    </g>
</svg>