<svg xmlns="http://www.w3.org/2000/svg" viewBox="0 0 360 360"><defs><style>.cls-1{fill:#d3e6f2;opacity:0.3;}.cls-2{fill:#fff;}.cls-2,.cls-3,.cls-5,.cls-7,.cls-8{stroke:#163050;stroke-linecap:round;stroke-linejoin:round;stroke-width:3px;}.cls-3{fill:#ffd167;}.cls-4,.cls-8{fill:#02baec;}.cls-5{fill:none;}.cls-6{fill:#163050;opacity:0.1;}.cls-7{fill:#08c;}</style></defs><title>wallet5</title><g id="Layer_3" data-name="Layer 3"><path id="bg-blob" class="cls-1" d="M25.54,254.54c-25,100,164.79,157.24,292,25,47.3-49.17-4.37-74.13-33-108-93-110-184-112-204-35C59.48,217.63,35.67,214,25.54,254.54Z"/><g id="legs"><g id="leg-right"><path id="leg-right-foot" class="cls-2" d="M163.27,278.89c-4.31,1.31-13,2.48-17.45,3.53-7.61,1.79-2.28,11.78,11.66,8,4.25-1.14,10.47-3.49,13.14-5.73C172.49,283.15,173.12,277.66,163.27,278.89Z"/><path id="leg-right-trousers" class="cls-3" d="M161.83,250.49c0,6.55,1,19.3.66,29.37,0,2.44,5.29,2.72,5.29.28,0,0,2.31-21.74,2.31-28.75S161.83,243.94,161.83,250.49Z"/></g><g id="leg-left"><path id="leg-left-foot" class="cls-2" d="M196.05,280.59c3.89,1.6,11.94,3.07,16.13,5,8.08,3.76,1.91,12.18-12.4,6.82-4.25-1.59-7.22-2.32-10.14-5.13C187.14,284.9,186.2,278.31,196.05,280.59Z"/><path id="leg-left-trousers" class="cls-3" d="M190.43,253c0,6.59,1.92,19.48,2.08,29.63,0,2.19,5.29,2.47,5.29.28,0,0,.92-22,.92-29S190.43,246.37,190.43,253Z"/></g></g><g id="wallet-back"><path id="foldscolor" class="cls-4" d="M103.26,140c0-6,4.47-10.89,10.73-12.07,21.73-5.73,99.49-5.67,130.14.54a12.65,12.65,0,0,1,10.74,12.66c0,5.38,0,21.51,0,21.51v35.56a585.26,585.26,0,0,0-153.1.93Z"/><path id="folds" class="cls-5" d="M103.26,140h0c0-6,4.47-10.89,10.73-12.07,21.73-5.73,99.49-5.67,130.14.54a12.65,12.65,0,0,1,10.74,12.66c0,5.38,0,28.46,0,28.46m-8.57-19.11v-2.88c0-5-4.07-9.26-9.07-10.13-29.12-6-88.44-6.09-118.2-.3a7.13,7.13,0,0,0-6.11,6.78v4.86"/><path id="shadow" class="cls-6" d="M112.94,144c0,.17,22.93-3.14,50.95-3.83,28-1,61.08.58,80.93,2.93,5.22.86,9.44,3.19,9.44,13.93,0,0-.49-6.18-15.41-7.35-7.41-.69-38.7-3.55-68.07-3.12-29.38-.07-56.83,3.13-56.79,3-14-1-12.57-12.36,1.43-10.77C112.44,142.88,112.94,144,112.94,144Z"/><path class="cls-7" d="M254.84,197.28c6.56,2.66,8-6.6,8-17.47,0-5.7-3.38-11.18-8-14.4Z"/></g><g id="wallet-face"><path id="bg" class="cls-8" d="M244.14,259c-46.32-1.51-84.42-2.11-130.14-.54-6.52.27-10.11-4.57-10.55-9.45a607.92,607.92,0,0,1-.19-109.38c0,7.2,5.36,10.36,10.73,10a817.76,817.76,0,0,1,130.14.54,12.08,12.08,0,0,1,7.6,4.1,12.31,12.31,0,0,1,3.14,8.06s.46,65.52,0,87.27C254.76,255.33,250.6,259.25,244.14,259Z"/><path id="things" class="cls-5" d="M249,163.64a8.13,8.13,0,0,0-7-7.89m0,97.81a6.14,6.14,0,0,0,7-6.23"/></g><g id="zip"><path id="shadow-2" data-name="shadow" class="cls-6" d="M258.57,219.42c.05,15.63-52.93,19.55-53-8.9,0-33.26,43.26-15.84,53-20.77C258.57,189.76,258.57,211.22,258.57,219.42Z"/><path id="ear" class="cls-8" d="M248.22,225.74q-7.79-.6-15.6-1c-20.47-.77-20.64-32.8,0-32q7.78.39,15.54,1h.06c8.07.61,14.6-5.5,14.6-13.91v32C262.82,220.24,256.3,226.36,248.22,225.74Z"/><path id="lock" class="cls-3" d="M241.09,209.23c0-10.64-15.41-11.47-15.42-.78C225.68,219,241.1,219.79,241.09,209.23Z"/><path id="thing" class="cls-5" d="M257.49,202.45V214.7"/></g><path class="cls-2" d="M100.79,186.79c-16.69,8.9-18.75,86.75,11,71.5-6-1-8.5-4.75-9-15.25a13.21,13.21,0,0,0-5.75,2.5c-4.75-15.25-2.5-42.75,5.5-50.25C106.81,191.29,104.54,184.79,100.79,186.79Z"/><path class="cls-5" d="M186.17,224.81a9.33,9.33,0,1,0-18.67,0"/><path class="cls-5" d="M150.51,201a6,6,0,0,0,12,0"/><line class="cls-5" x1="149.01" y1="194.65" x2="161.67" y2="188.81"/><path class="cls-5" d="M191.51,201a6,6,0,0,0,12,0"/><line class="cls-5" x1="192.34" y1="188.98" x2="204.51" y2="194.48"/><path class="cls-7" d="M202.34,218.65c0-3.33-4.5-7.5-4.5-7.5s-4.5,4-4.5,7.5a4.5,4.5,0,0,0,9,0Z"/></g></svg>