<svg id="Layer_1" data-name="Layer 1" xmlns="http://www.w3.org/2000/svg" viewBox="0 0 496.16 496.16"><defs><style>.cls-1{fill:#04778d}.cls-2{fill:#fff}.cls-3{fill:#00e65f}</style></defs><title>Online Icon</title><path class="cls-1" d="M496.16 248.09C496.16 111.06 385.09 0 248.08 0S0 111.06 0 248.09s111.07 248.07 248.08 248.07 248.08-111.07 248.08-248.07z"/><circle class="cls-2" cx="248.08" cy="332.81" r="49.15"/><path class="cls-2" d="M172.13 289.13c20.29-23.3 47.26-36.13 76-36.13s55.66 12.83 76 36.13l16-18.34c-24.55-28.2-57.2-43.73-91.93-43.73s-67.37 15.53-91.92 43.73l16 18.34z"/><path class="cls-2" d="M138.56 248.41c29.26-33.6 68.15-52.1 109.52-52.1s80.27 18.5 109.52 52.1l16-18.34c-33.52-38.49-78.09-59.7-125.49-59.7s-92 21.2-125.49 59.7l16 18.34z"/><path class="cls-2" d="M105.31 208.06c38.14-43.8 88.84-67.92 142.77-67.92s104.64 24.12 142.77 67.92l16-18.34C364.42 141 308 114.21 248.08 114.21S131.74 141 89.34 189.72l16 18.34zM248.08 376.37h.01v.01h-.01z"/><circle class="cls-3" cx="340.29" cy="343.74" r="63.78"/><path class="cls-2" d="M383.53 317.43c-1.85-4.77-5.61-4-9.7-3.21-2.44.51-13.28 3.68-30.44 21.77a144.85 144.85 0 0 0-14.91 18.06c-1.89-2.32-4.05-4.8-6.33-7.08a91.5 91.5 0 0 0-15.11-12 6.95 6.95 0 0 0-7.26 11.85 78.31 78.31 0 0 1 12.54 10 107.89 107.89 0 0 1 11.29 14 6.95 6.95 0 0 0 12.52-2.17c0-.06 2.77-7.68 17.32-23 11.72-12.36 19.54-16.29 22.25-17.38h.08l.25-.12a7.69 7.69 0 0 1 .73-.24h-.2l3.65-1.58c3.55-1.54 4.7-5.33 3.32-8.9z"/></svg>
