<svg id="Layer_1" data-name="Layer 1" xmlns="http://www.w3.org/2000/svg" viewBox="0 0 496.16 496.16"><defs><style>.cls-1{fill:#04778d}.cls-2{fill:#fff}.cls-3{fill:#f34002}</style></defs><title>Offline Icon</title><path class="cls-1" d="M496.16 248.09C496.16 111.06 385.09 0 248.08 0S0 111.06 0 248.09s111.07 248.07 248.08 248.07 248.08-111.07 248.08-248.07z"/><circle class="cls-2" cx="248.08" cy="332.81" r="49.15"/><path class="cls-2" d="M172.13 289.13c20.29-23.3 47.26-36.13 76-36.13s55.66 12.83 76 36.13l16-18.34c-24.55-28.2-57.2-43.73-91.93-43.73s-67.37 15.53-91.92 43.73l16 18.34z"/><path class="cls-2" d="M138.56 248.41c29.26-33.6 68.15-52.1 109.52-52.1s80.27 18.5 109.52 52.1l16-18.34c-33.52-38.49-78.09-59.7-125.49-59.7s-92 21.2-125.49 59.7l16 18.34z"/><path class="cls-2" d="M105.31 208.06c38.14-43.8 88.84-67.92 142.77-67.92s104.64 24.12 142.77 67.92l16-18.34C364.42 141 308 114.21 248.08 114.21S131.74 141 89.34 189.72l16 18.34zM248.08 376.37h.01v.01h-.01z"/><circle class="cls-3" cx="340.29" cy="343.74" r="63.78"/><path class="cls-2" d="M315 365.51l16.82-21.59-14.12-19.21a36.92 36.92 0 0 1-3-4.8 8.64 8.64 0 0 1-1-3.86 4.31 4.31 0 0 1 1.92-3.4 7.36 7.36 0 0 1 4.69-1.51 7 7 0 0 1 4.95 1.65 42.15 42.15 0 0 1 4.9 6.11l11.28 16 12.05-16 2.54-3.47a18.66 18.66 0 0 1 2-2.39 6.53 6.53 0 0 1 2.18-1.42 7.61 7.61 0 0 1 2.79-.47 7.11 7.11 0 0 1 4.69 1.51 4.53 4.53 0 0 1 1.82 3.58q0 3-3.95 8.21l-14.82 19.48 16 21.59a35.31 35.31 0 0 1 3.13 4.71 7.7 7.7 0 0 1 1 3.54 5.09 5.09 0 0 1-.87 2.89 6 6 0 0 1-2.46 2.07 8.17 8.17 0 0 1-3.59.77 7.7 7.7 0 0 1-3.64-.79 7.44 7.44 0 0 1-2.41-2q-.92-1.17-3.44-4.55l-13.23-18.3-14.05 18.84q-1.64 2.26-2.33 3.16a12.43 12.43 0 0 1-1.67 1.76 7.32 7.32 0 0 1-2.31 1.35 9 9 0 0 1-3.13.5 7 7 0 0 1-4.59-1.49 5.27 5.27 0 0 1-1.82-4.33q-.04-3.32 3.67-8.14z"/></svg>
