<svg viewBox="0 0 16 16" fill="none" xmlns="http://www.w3.org/2000/svg">
<path fill-rule="evenodd" clip-rule="evenodd" d="M7.99989 0.00488281C3.58265 0.00488281 0.00488281 3.58265 0.00488281 7.99989C0.00488281 12.4171 3.58265 15.9949 7.99989 15.9949C12.4171 15.9949 15.9949 12.4171 15.9949 7.99989C15.9949 3.58265 12.4171 0.00488281 7.99989 0.00488281ZM10.998 7.00051H8.99926V5.00176C8.99926 4.4521 8.54954 4.00238 7.99989 4.00238C7.45023 4.00238 7.00051 4.4521 7.00051 5.00176V7.00051H5.00176C4.4521 7.00051 4.00238 7.45023 4.00238 7.99989C4.00238 8.54954 4.4521 8.99926 5.00176 8.99926H7.00051V10.998C7.00051 11.5477 7.45023 11.9974 7.99989 11.9974C8.54954 11.9974 8.99926 11.5477 8.99926 10.998V8.99926H10.998C11.5477 8.99926 11.9974 8.54954 11.9974 7.99989C11.9974 7.45023 11.5477 7.00051 10.998 7.00051ZM2.00363 7.99989C2.00363 11.3078 4.69195 13.9961 7.99989 13.9961C11.3178 13.9961 13.9961 11.3078 13.9961 7.99989C13.9961 4.69195 11.3078 2.00363 7.99989 2.00363C4.69195 2.00363 2.00363 4.69195 2.00363 7.99989Z" fill="#55B6E2"/>
<mask id="mask0" mask-type="alpha" maskUnits="userSpaceOnUse" x="0" y="0" width="16" height="16">
<path fill-rule="evenodd" clip-rule="evenodd" d="M7.99989 0.00488281C3.58265 0.00488281 0.00488281 3.58265 0.00488281 7.99989C0.00488281 12.4171 3.58265 15.9949 7.99989 15.9949C12.4171 15.9949 15.9949 12.4171 15.9949 7.99989C15.9949 3.58265 12.4171 0.00488281 7.99989 0.00488281ZM10.998 7.00051H8.99926V5.00176C8.99926 4.4521 8.54954 4.00238 7.99989 4.00238C7.45023 4.00238 7.00051 4.4521 7.00051 5.00176V7.00051H5.00176C4.4521 7.00051 4.00238 7.45023 4.00238 7.99989C4.00238 8.54954 4.4521 8.99926 5.00176 8.99926H7.00051V10.998C7.00051 11.5477 7.45023 11.9974 7.99989 11.9974C8.54954 11.9974 8.99926 11.5477 8.99926 10.998V8.99926H10.998C11.5477 8.99926 11.9974 8.54954 11.9974 7.99989C11.9974 7.45023 11.5477 7.00051 10.998 7.00051ZM2.00363 7.99989C2.00363 11.3078 4.69195 13.9961 7.99989 13.9961C11.3178 13.9961 13.9961 11.3078 13.9961 7.99989C13.9961 4.69195 11.3078 2.00363 7.99989 2.00363C4.69195 2.00363 2.00363 4.69195 2.00363 7.99989Z" fill="white"/>
</mask>
<g mask="url(#mask0)">
</g>
</svg>
