<svg width="24" height="24" viewBox="0 0 24 24" fill="none" xmlns="http://www.w3.org/2000/svg">
<path d="M12.3461 17.7368L18.1851 9.29303C19.3072 7.5802 17.1279 6.06717 16.0011 7.77703L11.0087 14.9888L8.20106 12.577C6.69885 11.2993 4.95611 13.312 6.45173 14.5837L10.3794 17.9808C10.9647 18.4958 11.9016 18.3828 12.3461 17.7368Z" fill="#B3DD87"/>
<path fill-rule="evenodd" clip-rule="evenodd" d="M12 0C5.37258 0 0 5.37258 0 12C0 18.6274 5.37258 24 12 24C18.6274 24 24 18.6274 24 12C24 5.37258 18.6274 0 12 0ZM2.4 12C2.4 6.69807 6.69807 2.4 12 2.4C17.3019 2.4 21.6 6.69807 21.6 12C21.6 17.3019 17.3019 21.6 12 21.6C6.69807 21.6 2.4 17.3019 2.4 12Z" fill="#B3DD87"/>
</svg>
