<svg width="20" height="20" viewBox="0 0 20 20" fill="none" xmlns="http://www.w3.org/2000/svg">
<path d="M10.2884 14.7807L15.1543 7.74419C16.0893 6.31684 14.2733 5.05598 13.3343 6.48086L9.17395 12.4907L6.83422 10.4809C5.58237 9.41606 4.13009 11.0933 5.37644 12.1531L8.6495 14.984C9.13727 15.4131 9.91801 15.319 10.2884 14.7807Z" fill="#B3DD87"/>
<path fill-rule="evenodd" clip-rule="evenodd" d="M10 0C4.47715 0 0 4.47715 0 10C0 15.5228 4.47715 20 10 20C15.5228 20 20 15.5228 20 10C20 4.47715 15.5228 0 10 0ZM2 10C2 5.58172 5.58172 2 10 2C14.4183 2 18 5.58172 18 10C18 14.4183 14.4183 18 10 18C5.58172 18 2 14.4183 2 10Z" fill="#B3DD87"/>
</svg>
