<svg viewBox="0 0 16 16" fill="none" xmlns="http://www.w3.org/2000/svg">
  <g clip-path="url(#clip0)">
    <path
      fill-rule="evenodd"
      clip-rule="evenodd"
      d="M1.25352 10.2482C1.25886 10.23 1.27309 10.2173 1.27932 10.1992C1.29266 10.1629 1.31579 10.1311 1.33358 10.0958C1.37184 10.0214 1.41187 9.9497 1.46703 9.89073C1.47236 9.88438 1.47414 9.87531 1.48037 9.86896L9.82226 1.33097C9.84183 1.31192 9.86674 1.30466 9.8872 1.28742C9.90499 1.26565 9.91211 1.23843 9.93257 1.21847C10.7101 0.419196 11.6771 -0.020813 12.6566 -0.020813H12.6583C13.5337 -0.020813 14.3353 0.327565 14.9784 0.986218C15.5674 1.58862 15.8778 2.32076 15.877 3.10552C15.8761 4.07626 15.4099 5.06152 14.531 5.95605C14.5132 5.9742 14.4892 5.98055 14.4696 5.99688C14.45 6.02228 14.4411 6.05222 14.4189 6.07581L5.8875 14.719C5.86349 14.7435 5.83235 14.7526 5.80655 14.7735C5.77452 14.7998 5.73983 14.8206 5.70336 14.8424C5.63663 14.8832 5.56991 14.915 5.49697 14.9359C5.47828 14.9413 5.46494 14.954 5.44626 14.9585L0.957278 15.9583C0.894116 15.9719 0.830064 15.9792 0.767791 15.9792C0.522258 15.9792 0.283842 15.8749 0.113926 15.6862C-0.10047 15.4503 -0.176087 15.1155 -0.0853465 14.8061L1.25352 10.2482ZM4.82353 13.2321L13.1645 4.77937C13.1832 4.76122 13.2072 4.75397 13.2268 4.73764C13.2455 4.71405 13.2535 4.68592 13.2748 4.66415C13.7962 4.13432 14.0951 3.56549 14.096 3.1028C14.0968 2.80522 13.9732 2.53487 13.7188 2.27449C13.4118 1.96059 13.0551 1.80092 12.6583 1.80092H12.6574C12.1628 1.80092 11.6299 2.05676 11.1949 2.50493C11.1745 2.5258 11.1478 2.53396 11.1255 2.55211C11.1086 2.57388 11.1015 2.60019 11.0819 2.61924L2.89307 11.0003L2.05595 13.849L4.82353 13.2321Z"
    />
  </g>
  <defs>
    <clipPath id="clip0">
      <path d="M0 0H16V16H0V0Z" fill="white" />
    </clipPath>
  </defs>
</svg>
