<svg viewBox="0 0 16 16" fill="none" xmlns="http://www.w3.org/2000/svg">
<g clip-path="url(#clip0)">
<path fill-rule="evenodd" clip-rule="evenodd" d="M1.25303 10.2482C1.25837 10.2301 1.2726 10.2174 1.27883 10.1993C1.29217 10.163 1.3153 10.1312 1.3331 10.0958C1.37135 10.0214 1.41138 9.94976 1.46654 9.89079C1.47187 9.88444 1.47365 9.87537 1.47988 9.86902L9.82177 1.33103C9.84134 1.31198 9.86625 1.30472 9.88671 1.28748C9.9045 1.26571 9.91162 1.23849 9.93208 1.21853C10.7096 0.419257 11.6766 -0.020752 12.6561 -0.020752H12.6578C13.5332 -0.020752 14.3348 0.327626 14.978 0.986279C15.5669 1.58868 15.8774 2.32082 15.8765 3.10558C15.8756 4.07632 15.4094 5.06158 14.5305 5.95611C14.5127 5.97426 14.4887 5.98061 14.4691 5.99694C14.4495 6.02234 14.4406 6.05228 14.4184 6.07587L5.88702 14.7191C5.863 14.7436 5.83186 14.7527 5.80606 14.7735C5.77403 14.7998 5.73934 14.8207 5.70287 14.8425C5.63615 14.8833 5.56942 14.9151 5.49648 14.9359C5.47779 14.9414 5.46445 14.9541 5.44577 14.9586L0.95679 15.9584C0.893627 15.972 0.829575 15.9792 0.767303 15.9792C0.52177 15.9792 0.283354 15.8749 0.113438 15.6862C-0.100958 15.4503 -0.176575 15.1156 -0.0858348 14.8062L1.25303 10.2482ZM4.82304 13.2321L13.164 4.77943C13.1827 4.76128 13.2067 4.75403 13.2263 4.7377C13.245 4.71411 13.253 4.68598 13.2743 4.66421C13.7957 4.13439 14.0946 3.56555 14.0955 3.10286C14.0964 2.80529 13.9727 2.53493 13.7183 2.27455C13.4113 1.96065 13.0546 1.80098 12.6578 1.80098H12.657C12.1623 1.80098 11.6295 2.05682 11.1944 2.50499C11.174 2.52586 11.1473 2.53402 11.125 2.55217C11.1081 2.57394 11.101 2.60025 11.0815 2.6193L2.89258 11.0003L2.05546 13.8491L4.82304 13.2321Z" fill="#1EB8E7"/>
</g>
<defs>
<clipPath id="clip0">
<rect width="16" height="16" fill="white"/>
</clipPath>
</defs>
</svg>
