<svg width="32" height="32" viewBox="0 0 32 32" fill="none" xmlns="http://www.w3.org/2000/svg">
<path fill-rule="evenodd" clip-rule="evenodd" d="M15.103 18.3432C15.0908 18.2174 14.9698 16.493 16.8497 15.0745C17.9608 14.2368 17.4866 12.4173 15.9994 12.4173C15.1363 12.4173 14.5002 13.0394 14.5002 13.7955C14.4754 14.9761 12.6902 14.9737 12.7 13.7955C12.7 12.0421 14.1719 10.7002 15.9994 10.7002C17.8072 10.7002 19.3 12.111 19.3 13.8732C19.3 14.3957 19.198 14.864 18.9734 15.2912C18.3541 16.4692 16.8978 16.7306 16.8978 18.3432C16.8978 19.385 15.1977 19.4662 15.103 18.3432ZM15.9988 19.7938C14.8415 19.7874 14.8376 21.4986 15.9933 21.5002C17.1409 21.5018 17.1477 19.8003 15.9988 19.7938Z" fill="#B5BFC7"/>
<path fill-rule="evenodd" clip-rule="evenodd" d="M16 8C11.5817 8 8 11.5817 8 16C8 20.4183 11.5817 24 16 24C20.4183 24 24 20.4183 24 16C24 11.5817 20.4183 8 16 8ZM6 16C6 10.4772 10.4772 6 16 6C21.5228 6 26 10.4772 26 16C26 21.5228 21.5228 26 16 26C10.4772 26 6 21.5228 6 16Z" fill="#B5BFC7"/>
</svg>
