<svg width="20" height="20" viewBox="0 0 20 20" fill="none" xmlns="http://www.w3.org/2000/svg">
<path fill-rule="evenodd" clip-rule="evenodd" d="M10 18C14.4183 18 18 14.4183 18 10C18 5.58172 14.4183 2 10 2C5.58172 2 2 5.58172 2 10C2 14.4183 5.58172 18 10 18ZM20 10C20 15.5228 15.5228 20 10 20C4.47715 20 3.91405e-07 15.5228 8.74228e-07 10C1.35705e-06 4.47715 4.47715 -1.35705e-06 10 -8.74228e-07C15.5228 -3.91405e-07 20 4.47715 20 10Z" fill="#55B6E2"/>
<path d="M9.99998 13C9.44769 13 8.99998 13.4477 8.99998 14C8.99998 14.5523 9.44769 15 9.99998 15C10.5523 15 11 14.5523 11 14C11 13.4477 10.5523 13 9.99998 13Z" fill="#55B6E2"/>
<path d="M8.99998 6L8.99998 11C8.98384 12.3356 11.0081 12.3323 11 11L11 6C10.9837 4.66891 9.00811 4.6655 8.99998 6Z" fill="#55B6E2"/>
</svg>
