<svg width="40" height="40" viewBox="0 0 40 40" fill="none" xmlns="http://www.w3.org/2000/svg">
<path fill-rule="evenodd" clip-rule="evenodd" d="M20 36C28.8366 36 36 28.8366 36 20C36 11.1634 28.8366 4 20 4C11.1634 4 4 11.1634 4 20C4 28.8366 11.1634 36 20 36ZM40 20C40 31.0457 31.0457 40 20 40C8.95431 40 7.8281e-07 31.0457 1.74846e-06 20C2.7141e-06 8.9543 8.95431 -2.7141e-06 20 -1.74846e-06C31.0457 -7.8281e-07 40 8.95431 40 20Z" fill="#55B6E2"/>
<path d="M20 26C18.8954 26 18 26.8954 18 28C18 29.1046 18.8954 30 20 30C21.1045 30 22 29.1046 22 28C22 26.8954 21.1045 26 20 26Z" fill="#55B6E2"/>
<path d="M18 12L18 22C17.9677 24.6711 22.0161 24.6645 22 22L22 12C21.9675 9.33783 18.0162 9.33099 18 12Z" fill="#55B6E2"/>
</svg>
