<svg viewBox="0 0 16 16" xmlns="http://www.w3.org/2000/svg">
<path d="M8 1.6C6.37715 1.6 4.8953 2.20356 3.76655 3.2H5.19336C5.63519 3.2 5.99336 3.55817 5.99336 4C5.99336 4.44183 5.63519 4.8 5.19336 4.8H1.99336C1.55153 4.8 1.19336 4.44183 1.19336 4V0.8C1.19336 0.358172 1.55153 0 1.99336 0C2.43519 0 2.79336 0.358172 2.79336 0.8V1.92614C4.19219 0.726077 6.01132 0 8 0C12.4183 0 16 3.58172 16 8C16 8.44183 15.6418 8.8 15.2 8.8C14.7582 8.8 14.4 8.44183 14.4 8C14.4 4.46538 11.5346 1.6 8 1.6Z" />
<path d="M0.8 7.2C1.24183 7.2 1.6 7.55817 1.6 8C1.6 11.5346 4.46538 14.4 8 14.4C9.62281 14.4 11.1047 13.7964 12.2335 12.8H10.7848C10.3429 12.8 9.98477 12.4418 9.98477 12C9.98477 11.5582 10.3429 11.2 10.7848 11.2H13.9848C14.4266 11.2 14.7848 11.5582 14.7848 12V15.2C14.7848 15.6418 14.4266 16 13.9848 16C13.5429 16 13.1848 15.6418 13.1848 15.2V14.0925C11.7889 15.2815 9.97837 16 8 16C3.58172 16 0 12.4183 0 8C0 7.55817 0.358172 7.2 0.8 7.2Z" />
</svg>
