<svg width="10" height="10" viewBox="0 0 10 10" fill="none" xmlns="http://www.w3.org/2000/svg">
<path d="M5.1442 7.39034L7.57713 3.8721C8.04467 3.15842 7.13664 2.52799 6.66713 3.24043L4.58697 6.24534L3.41711 5.24043C2.79119 4.70803 2.06505 5.54667 2.68822 6.07654L4.32475 7.49201C4.56863 7.70657 4.959 7.6595 5.1442 7.39034Z" fill="#B3DD87"/>
<path fill-rule="evenodd" clip-rule="evenodd" d="M5 0C2.23858 0 0 2.23858 0 5C0 7.76142 2.23858 10 5 10C7.76142 10 10 7.76142 10 5C10 2.23858 7.76142 0 5 0ZM1 5C1 2.79086 2.79086 1 5 1C7.20914 1 9 2.79086 9 5C9 7.20914 7.20914 9 5 9C2.79086 9 1 7.20914 1 5Z" fill="#B3DD87"/>
</svg>
