<svg fill="none" viewBox="0 0 56 52" xmlns="http://www.w3.org/2000/svg">
<path fill-rule="evenodd" clip-rule="evenodd" d="M1.52256e-06 9.28617C-0.00242143 4.1586 4.15368 0 9.28189 0H37.1472C42.2773 0 46.4361 4.15876 46.4361 9.28886V11.6111C51.5657 11.6117 55.7238 15.7702 55.7238 20.8999V34.8332C55.7238 40.1243 51.3108 44.1221 46.1436 44.1221C45.1124 48.1284 41.4756 51.0887 37.1474 51.0887H9.28886C4.15876 51.0887 0 46.93 0 41.7999V9.30678L1.52256e-06 9.28617ZM46.4361 16.2555C49.0006 16.2562 51.0793 18.3353 51.0793 20.8999C51.0793 23.4646 49.0006 25.5437 46.4361 25.5444V16.2555ZM41.8093 25.8322C37.7934 26.8568 34.8238 30.4982 34.8238 34.8332C34.8238 39.0124 37.5838 42.547 41.3804 43.7137C40.6512 45.3241 39.0301 46.4443 37.1474 46.4443H9.28886C6.72381 46.4443 4.64443 44.3649 4.64443 41.7999V17.339C6.00877 18.1274 7.59246 18.5786 9.28163 18.5786H37.1473C39.7123 18.5786 41.7917 20.658 41.7917 23.223C41.7917 24.0802 41.8093 25.8322 41.8093 25.8322ZM4.64443 9.28654C4.64186 6.72353 6.71887 4.64443 9.28189 4.64443H37.1472C39.7123 4.64443 41.7917 6.72382 41.7917 9.28886V15.1768C40.4254 14.3865 38.8392 13.9341 37.1473 13.9341H9.28163C6.7225 13.9341 4.64799 11.8612 4.64443 9.30364V9.28886L4.64443 9.28654ZM46.4349 30.1888C48.1268 30.1888 49.7131 29.7365 51.0793 28.9461V34.8332C51.0793 37.3983 49 39.4777 46.4349 39.4777H44.1127C41.5477 39.4777 39.4683 37.3983 39.4683 34.8332C39.4683 32.2682 41.5476 30.1888 44.1127 30.1888H46.4349Z"/>
</svg>
