<svg viewBox="0 0 60 60"  fill="none" xmlns="http://www.w3.org/2000/svg">
<path d="M17.5 10V50H42.5V10H17.5ZM15 5H45C45.663 5 46.2989 5.26339 46.7678 5.73223C47.2366 6.20107 47.5 6.83696 47.5 7.5V52.5C47.5 53.163 47.2366 53.7989 46.7678 54.2678C46.2989 54.7366 45.663 55 45 55H15C14.337 55 13.7011 54.7366 13.2322 54.2678C12.7634 53.7989 12.5 53.163 12.5 52.5V7.5C12.5 6.83696 12.7634 6.20107 13.2322 5.73223C13.7011 5.26339 14.337 5 15 5ZM30 42.5C30.663 42.5 31.2989 42.7634 31.7678 43.2322C32.2366 43.7011 32.5 44.337 32.5 45C32.5 45.663 32.2366 46.2989 31.7678 46.7678C31.2989 47.2366 30.663 47.5 30 47.5C29.337 47.5 28.7011 47.2366 28.2322 46.7678C27.7634 46.2989 27.5 45.663 27.5 45C27.5 44.337 27.7634 43.7011 28.2322 43.2322C28.7011 42.7634 29.337 42.5 30 42.5Z"/>
</svg>
