<svg viewBox="0 0 51 52" fill="none" xmlns="http://www.w3.org/2000/svg">
<path d="M35.6973 27.9234L18.7169 40L1.95312 27.9234V1H35.6973V27.9234Z" fill="#FFC936" stroke="#FBAE28" stroke-width="1.08953" stroke-miterlimit="10" stroke-linecap="round" stroke-linejoin="round"/>
<path d="M3.85889 27.2741L20.1462 39.0044L35.6971 27.9234V1H3.85889V27.2741Z" fill="#FFD168"/>
<path opacity="0.4" d="M3.29581 31.5595L1 29.8713" stroke="#B6BFC7" stroke-width="0.803811" stroke-miterlimit="10" stroke-linecap="round" stroke-linejoin="round"/>
<path opacity="0.4" d="M11.6996 37.6192L5.37524 33.031" stroke="#B6BFC7" stroke-width="0.803811" stroke-miterlimit="10" stroke-linecap="round" stroke-linejoin="round"/>
<path opacity="0.4" d="M37.863 7.36279V16.5825" stroke="#B6BFC7" stroke-width="0.803811" stroke-miterlimit="10" stroke-linecap="round" stroke-linejoin="round"/>
<path opacity="0.4" d="M37.863 1V3.98668" stroke="#B6BFC7" stroke-width="0.803811" stroke-miterlimit="10" stroke-linecap="round" stroke-linejoin="round"/>
<path d="M35.6973 27.9234L18.7169 40L1.95312 27.9234V1H35.6973V27.9234Z" stroke="#153150" stroke-width="1.20572" stroke-miterlimit="10" stroke-linecap="round" stroke-linejoin="round"/>
<path opacity="0.2" d="M29.2794 19.8309C29.2911 13.3524 24.045 8.09105 17.5617 8.07928C11.0784 8.0675 5.81315 13.3098 5.80137 19.7883C5.78958 26.2667 11.0358 31.5281 17.519 31.5399C24.0023 31.5517 29.2676 26.3094 29.2794 19.8309Z" fill="black"/>
<path d="M30.3256 17.616C30.3373 11.2093 25.1492 6.00616 18.7377 5.99451C12.3262 5.98287 7.11918 11.1671 7.10753 17.5739C7.09587 23.9806 12.284 29.1838 18.6955 29.1954C25.107 29.207 30.314 24.0228 30.3256 17.616Z" fill="white" stroke="#153150" stroke-width="0.803811" stroke-miterlimit="10" stroke-linecap="round" stroke-linejoin="round"/>
<path d="M30.4559 17.6163C30.4677 11.1378 25.2215 5.87645 18.7382 5.86467C12.2549 5.8529 6.98966 11.0952 6.97788 17.5737C6.9661 24.0521 12.2123 29.3135 18.6955 29.3253C25.1788 29.3371 30.4441 24.0948 30.4559 17.6163Z" fill="white"/>
<path d="M30.3256 17.616C30.3373 11.2093 25.1492 6.00616 18.7377 5.99451C12.3262 5.98287 7.11918 11.1671 7.10753 17.5739C7.09587 23.9806 12.284 29.1838 18.6955 29.1954C25.107 29.207 30.314 24.0228 30.3256 17.616Z" stroke="#153150" stroke-width="1.13177" stroke-miterlimit="10" stroke-linecap="round" stroke-linejoin="round"/>
<path d="M18.8035 14.5918L19.973 16.3232L21.9223 17.0158" stroke="white" stroke-width="1.08953" stroke-miterlimit="10" stroke-linecap="round" stroke-linejoin="round"/>
<path d="M23.7441 13.4322L23.7445 13.4325C24.939 14.6743 24.939 16.6973 23.7445 17.9391L23.7443 17.9393L18.8973 22.9841L14.0503 17.9364L14.05 17.9361C12.8555 16.6943 12.8555 14.6714 14.05 13.4296L14.0504 13.4292C15.0857 12.3504 16.7576 12.3498 17.7963 13.4296L18.6084 14.2742L18.8967 14.574L19.1856 14.2747L19.9978 13.433L19.9985 13.4322C21.034 12.3531 22.7087 12.3531 23.7441 13.4322Z" fill="#F170BE" stroke="#D1176F" stroke-width="0.80137"/>
<path fill-rule="evenodd" clip-rule="evenodd" d="M19.2867 19.925C18.2611 19.6628 17.5901 19.4677 17.1491 19.0519C16.7082 18.6362 16.4654 17.9198 16.1906 16.8132C15.8903 17.9965 15.6378 18.7321 15.0915 19.1927C14.6569 19.5476 14.0307 19.6788 13.0913 19.9186C15.2129 20.4591 15.6474 20.8973 16.1906 23.0208C16.7274 20.9037 17.1651 20.4655 19.2867 19.925Z" fill="#FFD168"/>
<path d="M16.1843 23.347C16.0348 23.3517 15.9021 23.252 15.8648 23.1071C15.3504 21.0955 15.0021 20.7469 12.9891 20.2288C12.85 20.1909 12.7534 20.0645 12.7534 19.9201C12.7534 19.7758 12.85 19.6494 12.9891 19.6115C14.9989 19.0966 15.3472 18.748 15.8648 16.7332C15.9021 16.5882 16.0348 16.4886 16.1843 16.4933C16.3337 16.4886 16.4665 16.5882 16.5038 16.7332C17.0182 18.7448 17.3665 19.0934 19.3794 19.6115C19.5186 19.6494 19.6152 19.7758 19.6152 19.9201C19.6152 20.0645 19.5186 20.1909 19.3794 20.2288C17.3697 20.7437 17.0214 21.0923 16.5038 23.1071C16.4665 23.252 16.3337 23.3517 16.1843 23.347ZM14.2033 19.9249C15.1608 20.1963 15.9101 20.9439 16.1843 21.9014C16.4572 20.9406 17.2082 20.1901 18.1685 19.9185C17.2074 19.6464 16.4562 18.8945 16.1843 17.9325C15.9149 18.8962 15.1648 19.6506 14.2033 19.9249Z" fill="#FFBD09"/>
<path fill-rule="evenodd" clip-rule="evenodd" d="M24.6767 14.0647C23.2676 13.7065 22.9768 13.4251 22.6158 12.0051C22.4432 12.6831 22.3122 13.182 22.0407 13.4763C21.7691 13.7705 21.2866 13.8792 20.5581 14.0647C21.9672 14.4261 22.2579 14.7044 22.6158 16.1275C22.7851 15.4655 22.9097 14.9794 23.1717 14.6884C23.4337 14.3973 23.929 14.2566 24.6767 14.0647Z" fill="#FFD168"/>
<path d="M22.6158 16.447C22.4663 16.4517 22.3336 16.3521 22.2963 16.2072C21.9767 14.9279 21.7627 14.7072 20.4686 14.3746C20.3295 14.3368 20.2329 14.2103 20.2329 14.066C20.2329 13.9217 20.3295 13.7952 20.4686 13.7574C21.7627 13.4376 21.9672 13.2201 22.2963 11.9248C22.3336 11.7799 22.4663 11.6802 22.6158 11.685C22.7652 11.6802 22.898 11.7799 22.9353 11.9248C23.2548 13.2201 23.4721 13.4248 24.7661 13.7574C24.9053 13.7952 25.0018 13.9217 25.0018 14.066C25.0018 14.2103 24.9053 14.3368 24.7661 14.3746C23.488 14.6944 23.2644 14.9119 22.9353 16.2072C22.898 16.3521 22.7652 16.4517 22.6158 16.447ZM21.5837 14.0644C22.0536 14.2559 22.4259 14.6297 22.6158 15.1006C22.8065 14.6303 23.1786 14.2568 23.6478 14.0644C23.1782 13.8743 22.8057 13.5015 22.6158 13.0314C22.4268 13.5021 22.054 13.8752 21.5837 14.0644Z" fill="#FFBD09"/>
<circle cx="35.5" cy="36.5" r="15.5" fill="#EEF8FE"/>
<path d="M24.0738 38.313C24.5689 37.3481 25.7539 36.9665 26.7206 37.4607C28.7473 38.4968 28.6837 34.5999 26.7206 35.6035C25.7539 36.0977 24.5689 35.7161 24.0738 34.7512C23.7582 34.1362 23.7991 33.4327 24.1205 32.8753C24.298 32.5675 24.2678 32.1251 23.9597 31.9475C21.7632 30.6817 23.7298 27.2818 25.9263 28.5476C26.2344 28.7251 26.6334 28.53 26.8116 28.2227C27.1345 27.6662 27.7244 27.2791 28.4158 27.2443C29.7299 27.1783 30.4359 28.2578 30.4949 29.428C30.5845 31.2047 33.9165 29.3562 32.3611 28.3526C31.3753 27.7164 30.7917 26.5664 31.5061 25.4634C31.8819 24.8831 32.5127 24.5667 33.157 24.5659C33.5128 24.5654 33.8815 24.3181 33.8815 23.963C33.8815 22.8789 34.762 22 35.8481 22C36.9342 22 37.8147 22.8789 37.8147 23.963C37.8147 24.3181 38.1834 24.5654 38.5392 24.5659C39.1835 24.5667 39.8143 24.8831 40.1901 25.4634C40.7798 26.3739 40.5183 27.5891 39.6062 28.1776C37.7539 29.3728 41.1031 31.3763 41.2175 29.1062C41.2721 28.0234 42.1957 27.1899 43.2804 27.2443C43.9718 27.2791 44.5617 27.6662 44.8846 28.2227C45.0629 28.53 45.4618 28.7251 45.7699 28.5476C47.9664 27.2817 49.933 30.6817 47.7365 31.9475C47.4284 32.1251 47.3982 32.5675 47.5757 32.8753C47.8971 33.4327 47.938 34.1362 47.6224 34.7512C47.1273 35.7161 45.9423 36.0977 44.9756 35.6035C42.9488 34.5674 43.0125 38.4643 44.9756 37.4607C45.9423 36.9665 47.1273 37.3481 47.6224 38.313C47.938 38.928 47.8971 39.6316 47.5757 40.1889C47.3982 40.4967 47.4284 40.9391 47.7365 41.1167C49.933 42.3825 47.9664 45.7825 45.7699 44.5167C45.4618 44.3391 45.0628 44.5342 44.8846 44.8416C44.5617 45.3981 43.9718 45.7852 43.2804 45.8199C42.1957 45.8744 41.2721 45.0408 41.2175 43.9581C41.1031 41.6879 37.7539 43.6914 39.6062 44.8866C40.5183 45.4752 40.7798 46.6904 40.1901 47.6008C39.8143 48.1811 39.1835 48.4975 38.5392 48.4984C38.1834 48.4988 37.8147 48.7461 37.8147 49.1013C37.8147 51.6329 33.8815 51.6329 33.8815 49.1013C33.8815 48.7461 33.5128 48.4988 33.157 48.4984C32.5127 48.4975 31.8819 48.1811 31.5061 47.6008C30.9165 46.6904 31.1779 45.4752 32.09 44.8866C33.9423 43.6914 30.5931 41.688 30.4787 43.9581C30.4241 45.0408 29.5005 45.8744 28.4158 45.8199C27.7244 45.7852 27.1345 45.3981 26.8117 44.8416C26.6334 44.5342 26.2344 44.3391 25.9263 44.5167C23.7298 45.7825 21.7632 42.3825 23.9597 41.1167C24.2678 40.9391 24.298 40.4967 24.1205 40.1889C23.7991 39.6316 23.7582 38.928 24.0738 38.313Z" fill="white"/>
<path d="M37.0903 23.9626C37.0903 23.2778 36.5341 22.7227 35.848 22.7227C35.162 22.7227 34.6058 23.2778 34.6058 23.9626V25.9867L33.8319 25.4874C33.2558 25.1156 32.4868 25.2805 32.1143 25.8556C31.7418 26.4307 31.907 27.1983 32.4831 27.5701L35.1736 29.3062C35.5841 29.571 36.112 29.571 36.5224 29.3062L39.2129 27.5701C39.7891 27.1983 39.9542 26.4307 39.5818 25.8556C39.2093 25.2805 38.4403 25.1156 37.8641 25.4874L37.0903 25.9867V23.9626Z" fill="#55B6E2"/>
<path d="M37.0903 49.101C37.0903 49.7858 36.5341 50.3409 35.848 50.3409C35.162 50.3409 34.6058 49.7858 34.6058 49.101V47.0768L33.8319 47.5762C33.2558 47.948 32.4868 47.7831 32.1143 47.208C31.7418 46.6329 31.907 45.8653 32.4831 45.4935L35.1736 43.7574C35.5841 43.4925 36.112 43.4925 36.5224 43.7574L39.2129 45.4935C39.7891 45.8653 39.9542 46.6329 39.5818 47.208C39.2093 47.7831 38.4403 47.948 37.8641 47.5762L37.0903 47.0768V49.101Z" fill="#55B6E2"/>
<path d="M23.8671 43.4364C24.2101 44.0294 24.9699 44.2326 25.564 43.8902L27.3202 42.8782L27.2739 43.7968C27.2394 44.4807 27.7669 45.0631 28.4521 45.0975C29.1373 45.1319 29.7208 44.6054 29.7552 43.9214L29.9162 40.7276C29.9408 40.2403 29.6768 39.784 29.2418 39.5616L26.3903 38.1039C25.7797 37.7917 25.0311 38.0328 24.7184 38.6423C24.4056 39.2518 24.6471 39.999 25.2578 40.3112L26.0779 40.7305L24.3218 41.7425C23.7276 42.0849 23.524 42.8433 23.8671 43.4364Z" fill="#55B6E2"/>
<path d="M47.3743 31.3211C47.9684 30.9787 48.172 30.2203 47.829 29.6272C47.4859 29.0341 46.7262 28.8309 46.132 29.1734L44.3759 30.1854L44.4222 29.2668C44.4567 28.5829 43.9292 28.0005 43.2439 27.9661C42.5587 27.9317 41.9753 28.4582 41.9408 29.1422L41.7798 32.336C41.7553 32.8232 42.0192 33.2796 42.4542 33.502L45.3057 34.9597C45.9164 35.2719 46.6649 35.0308 46.9777 34.4213C47.2904 33.8118 47.0489 33.0646 46.4383 32.7524L45.6181 32.3331L47.3743 31.3211Z" fill="#55B6E2"/>
<path d="M23.8671 29.6272C23.524 30.2203 23.7276 30.9787 24.3218 31.3211L26.0779 32.3331L25.2578 32.7524C24.6471 33.0646 24.4056 33.8118 24.7184 34.4213C25.0311 35.0308 25.7797 35.2719 26.3903 34.9597L29.2418 33.502C29.6768 33.2796 29.9408 32.8232 29.9162 32.336L29.7552 29.1422C29.7207 28.4582 29.1373 27.9317 28.4521 27.9661C27.7669 28.0005 27.2394 28.5829 27.2739 29.2668L27.3202 30.1854L25.564 29.1734C24.9699 28.8309 24.2101 29.0342 23.8671 29.6272Z" fill="#55B6E2"/>
<path d="M46.132 43.8902C46.7262 44.2326 47.4859 44.0294 47.829 43.4364C48.172 42.8433 47.9684 42.0849 47.3743 41.7425L45.6181 40.7305L46.4383 40.3112C47.0489 39.999 47.2904 39.2518 46.9777 38.6423C46.6649 38.0328 45.9164 37.7917 45.3057 38.1039L42.4542 39.5616C42.0192 39.784 41.7553 40.2403 41.7798 40.7276L41.9408 43.9214C41.9753 44.6054 42.5587 45.1319 43.2439 45.0975C43.9291 45.0631 44.4567 44.4807 44.4222 43.7968L44.3759 42.8782L46.132 43.8902Z" fill="#55B6E2"/>
<path d="M29.5852 36.5001C29.5852 39.9703 32.4036 42.7835 35.8801 42.7835C39.3567 42.7835 42.1749 39.9703 42.1749 36.5001C42.1749 33.03 39.3567 30.2168 35.8801 30.2168C32.4036 30.2168 29.5852 33.03 29.5852 36.5001Z" fill="#057A97"/>
<path d="M36.3521 33.931C36.6426 33.6502 36.9311 33.3714 37.2132 33.086C37.4468 32.8499 37.6943 32.7302 37.9421 32.7302C38.1865 32.7302 38.4312 32.8466 38.6634 33.082C39.1923 33.6184 39.7206 34.1559 40.2442 34.698C40.5896 35.0556 40.6206 35.5371 40.336 35.9392C40.0878 36.2898 39.7068 36.3286 39.4004 36.0276C39.2369 35.8669 39.0763 35.7033 38.9157 35.5395C38.8189 35.4409 38.7221 35.3422 38.6246 35.2442C38.1996 34.8164 37.6586 34.8114 37.2315 35.2343C37.0794 35.3849 36.9292 35.5374 36.779 35.6898C36.6713 35.7991 36.5637 35.9084 36.4554 36.0169C36.1069 36.3663 35.8199 36.3635 35.4666 36.0083C35.37 35.9112 35.2738 35.8136 35.1777 35.7161C35.0291 35.5654 34.8805 35.4146 34.7302 35.2657C34.3275 34.8662 33.7876 34.8564 33.3749 35.2495C33.1432 35.4702 32.9226 35.7031 32.7052 35.9383C32.3672 36.3044 32.0855 36.3977 31.8056 36.2237C31.4815 36.0225 31.3288 35.532 31.4901 35.1417C31.5496 34.9974 31.6466 34.8594 31.7546 34.7464C32.2823 34.1952 32.8172 33.6509 33.3538 33.109C33.8135 32.6451 34.3182 32.6508 34.7816 33.1126C35.0683 33.3987 35.3565 33.6835 35.6415 33.965C35.7535 34.0757 35.8651 34.186 35.9759 34.2956C36.1014 34.1732 36.2269 34.0519 36.3521 33.931Z" fill="white"/>
<path d="M36.9646 38.1568C37.1462 37.976 37.3279 37.7951 37.5031 37.608C37.6645 37.4355 37.8393 37.2719 38.0566 37.2719C38.1217 37.2719 38.1905 37.2866 38.264 37.3199C39.0345 37.6705 38.7563 38.4784 38.457 38.8187C38.0576 39.2725 37.6267 39.7051 37.1967 40.1368C37.0812 40.2528 36.9658 40.3687 36.8511 40.4849C36.3672 40.9752 35.8536 40.9707 35.3692 40.4791C34.8344 39.936 34.3006 39.3917 33.77 38.8439C33.4237 38.4859 33.3689 38.027 33.6151 37.6299C33.8705 37.2177 34.2841 37.1675 34.6241 37.5108C34.7438 37.6314 34.8618 37.7536 34.9798 37.8758C35.117 38.0179 35.2542 38.1601 35.3941 38.2996C35.8297 38.7345 36.3897 38.7312 36.826 38.295C36.8721 38.2489 36.9183 38.2028 36.9646 38.1568Z" fill="white"/>
</svg>
