<svg viewBox="0 0 266 300" fill="none" xmlns="http://www.w3.org/2000/svg">
<path d="M11.0879 168.756C16.2002 158.774 28.4366 154.826 38.4187 159.938C59.3467 170.657 58.6898 130.344 38.4185 140.726C28.4365 145.839 16.2001 141.891 11.0878 131.909C7.82936 125.547 8.25136 118.269 11.5704 112.503C13.4033 109.319 13.0915 104.742 9.90977 102.906C-12.7708 89.8109 7.53579 54.6388 30.2164 67.7334C33.3981 69.5704 37.5178 67.552 39.3587 64.3726C42.6923 58.6155 48.7842 54.611 55.9231 54.2518C69.4929 53.569 76.7829 64.7355 77.3921 76.8416C78.3169 95.2211 112.723 76.0984 96.6623 65.7161C86.4826 59.1355 80.457 47.239 87.8333 35.8285C91.7139 29.8255 98.2277 26.552 104.88 26.5437C108.554 26.5391 112.362 23.9805 112.362 20.3066C112.362 9.09158 121.454 0 132.669 0C143.884 0 152.975 9.09158 152.975 20.3066C152.975 23.9805 156.783 26.539 160.457 26.5437C167.11 26.5521 173.623 29.8255 177.504 35.8285C183.592 45.2469 180.893 57.8178 171.475 63.9063C152.348 76.2707 186.931 96.9966 188.113 73.5123C188.676 62.3114 198.213 53.6882 209.414 54.2518C216.553 54.611 222.645 58.6155 225.979 64.3726C227.82 67.552 231.939 69.5704 235.121 67.7334C257.801 54.6388 278.108 89.8109 255.427 102.906C252.246 104.742 251.934 109.319 253.767 112.503C257.086 118.269 257.508 125.547 254.25 131.909C249.137 141.891 236.901 145.839 226.919 140.726C205.99 130.008 206.647 170.32 226.919 159.938C236.901 154.826 249.137 158.774 254.249 168.756C257.508 175.118 257.086 182.396 253.767 188.161C251.934 191.345 252.246 195.922 255.427 197.759C278.108 210.854 257.801 246.026 235.121 232.931C231.939 231.094 227.819 233.113 225.978 236.292C222.645 242.049 216.553 246.054 209.414 246.413C198.213 246.976 188.676 238.353 188.113 227.152C186.931 203.668 152.348 224.394 171.475 236.758C180.893 242.847 183.592 255.418 177.504 264.836C173.623 270.839 167.11 274.113 160.457 274.121C156.783 274.126 152.975 276.684 152.975 280.358C152.975 306.547 112.362 306.547 112.362 280.358C112.362 276.684 108.554 274.126 104.88 274.121C98.2277 274.113 91.7138 270.839 87.8333 264.836C81.7447 255.418 84.4442 242.847 93.8626 236.758C112.99 224.394 78.4063 203.669 77.2247 227.152C76.6611 238.353 67.1241 246.976 55.9233 246.413C48.7843 246.054 42.6925 242.049 39.3589 236.292C37.5179 233.113 33.3982 231.094 30.2164 232.931C7.53586 246.026 -12.7708 210.854 9.90983 197.759C13.0916 195.922 13.4034 191.345 11.5705 188.161C8.25149 182.396 7.8295 175.118 11.0879 168.756Z" fill="white"/>
<path d="M145.497 20.3069C145.497 13.2225 139.754 7.47949 132.67 7.47949C125.585 7.47949 119.842 13.2225 119.842 20.3069V41.2459L111.852 36.0805C105.902 32.2344 97.9612 33.9396 94.1152 39.8891C90.2692 45.8386 91.9744 53.7795 97.9239 57.6255L125.706 75.585C129.944 78.3248 135.395 78.3248 139.633 75.585L167.415 57.6255C173.365 53.7795 175.07 45.8386 171.224 39.8891C167.378 33.9396 159.437 32.2344 153.487 36.0805L145.497 41.2459V20.3069Z" fill="#55B6E2"/>
<path d="M145.497 280.358C145.497 287.443 139.754 293.186 132.67 293.186C125.585 293.186 119.842 287.443 119.842 280.358V259.419L111.852 264.585C105.902 268.431 97.9612 266.726 94.1152 260.776C90.2692 254.827 91.9744 246.886 97.9239 243.04L125.706 225.08C129.944 222.34 135.395 222.34 139.633 225.08L167.415 243.04C173.365 246.886 175.07 254.827 171.224 260.776C167.378 266.726 159.437 268.431 153.487 264.585L145.497 259.419V280.358Z" fill="#55B6E2"/>
<path d="M8.95512 221.759C12.4973 227.894 20.3424 229.997 26.4777 226.454L44.6115 215.985L44.1334 225.488C43.7774 232.563 49.2245 238.587 56.3 238.943C63.3754 239.299 69.3998 233.852 69.7558 226.777L71.4183 193.737C71.6719 188.697 68.9463 183.976 64.4544 181.676L35.0101 166.596C28.7046 163.366 20.9751 165.86 17.7457 172.165C14.5163 178.471 17.0099 186.2 23.3154 189.43L31.7841 193.767L13.6503 204.237C7.51502 207.779 5.41292 215.624 8.95512 221.759Z" fill="#55B6E2"/>
<path d="M251.689 96.4286C257.824 92.8864 259.926 85.0413 256.384 78.9061C252.842 72.7708 244.997 70.6687 238.861 74.2109L220.728 84.6804L221.206 75.1777C221.562 68.1022 216.115 62.0779 209.039 61.7219C201.964 61.3658 195.939 66.813 195.583 73.8885L193.921 106.928C193.667 111.968 196.393 116.689 200.885 118.99L230.329 134.07C236.635 137.299 244.364 134.805 247.594 128.5C250.823 122.194 248.329 114.465 242.024 111.235L233.555 106.898L251.689 96.4286Z" fill="#55B6E2"/>
<path d="M8.95507 78.9061C5.41287 85.0413 7.51496 92.8865 13.6502 96.4287L31.7839 106.898L23.3153 111.235C17.0098 114.465 14.5161 122.194 17.7455 128.5C20.9749 134.805 28.7045 137.299 35.01 134.07L64.4543 118.99C68.9462 116.689 71.6717 111.968 71.4181 106.928L69.7557 73.8885C69.3997 66.813 63.3753 61.3659 56.2998 61.7219C49.2244 62.0779 43.7772 68.1023 44.1333 75.1777L44.6114 84.6804L26.4776 74.2109C20.3424 70.6687 12.4973 72.7708 8.95507 78.9061Z" fill="#55B6E2"/>
<path d="M238.861 226.454C244.997 229.997 252.842 227.894 256.384 221.759C259.926 215.624 257.824 207.779 251.689 204.237L233.555 193.767L242.024 189.43C248.329 186.2 250.823 178.471 247.594 172.165C244.364 165.86 236.635 163.366 230.329 166.596L200.885 181.676C196.393 183.976 193.667 188.697 193.921 193.737L195.583 226.777C195.939 233.852 201.964 239.299 209.039 238.943C216.115 238.587 221.562 232.563 221.206 225.488L220.728 215.985L238.861 226.454Z" fill="#55B6E2"/>
<path d="M68 150C68 185.898 97.1025 215 133.001 215C168.899 215 198 185.898 198 150C198 114.102 168.899 85 133.001 85C97.1025 85 68 114.102 68 150Z" fill="#057A97"/>
<path d="M137.874 123.422C140.873 120.517 143.852 117.633 146.765 114.68C149.178 112.238 151.733 111 154.292 111C156.816 111 159.343 112.203 161.741 114.639C167.201 120.188 172.657 125.748 178.063 131.357C181.63 135.056 181.95 140.037 179.011 144.196C176.448 147.824 172.514 148.225 169.35 145.111C167.662 143.449 166.004 141.756 164.345 140.062C163.346 139.041 162.346 138.021 161.34 137.007C156.951 132.581 151.364 132.53 146.954 136.904C145.384 138.462 143.833 140.04 142.282 141.617C141.17 142.747 140.059 143.878 138.94 145.001C135.342 148.615 132.378 148.586 128.731 144.911C127.733 143.907 126.74 142.897 125.747 141.888C124.212 140.329 122.678 138.77 121.127 137.229C116.968 133.096 111.393 132.995 107.131 137.062C104.739 139.345 102.461 141.754 100.217 144.187C96.7265 147.974 93.8172 148.94 90.9267 147.139C87.5809 145.058 86.0035 139.984 87.6689 135.946C88.2834 134.453 89.2856 133.026 90.4003 131.857C95.8498 126.155 101.372 120.524 106.914 114.918C111.661 110.12 116.872 110.179 121.657 114.956C124.618 117.916 127.594 120.861 130.536 123.774C131.693 124.919 132.845 126.059 133.989 127.193C135.285 125.928 136.581 124.673 137.874 123.422Z" fill="white"/>
<path d="M144.198 167.137C146.074 165.267 147.95 163.395 149.759 161.46C151.426 159.675 153.23 157.983 155.474 157.983C156.147 157.983 156.857 158.135 157.616 158.479C165.572 162.106 162.7 170.464 159.609 173.984C155.485 178.679 151.035 183.154 146.596 187.62C145.403 188.82 144.211 190.019 143.026 191.221C138.03 196.293 132.726 196.246 127.725 191.16C122.202 185.543 116.691 179.912 111.211 174.245C107.635 170.541 107.069 165.795 109.611 161.686C112.249 157.422 116.52 156.903 120.031 160.454C121.267 161.702 122.485 162.966 123.704 164.23C125.12 165.701 126.537 167.171 127.981 168.614C132.479 173.114 138.262 173.079 142.768 168.566C143.244 168.089 143.721 167.613 144.198 167.137Z" fill="white"/>
</svg>
