<?xml version="1.0" encoding="UTF-8"?>
<svg viewBox="0 0 76 76" version="1.1" xmlns="http://www.w3.org/2000/svg" xmlns:xlink="http://www.w3.org/1999/xlink">
    <!-- Generator: Sketch 63.1 (92452) - https://sketch.com -->
    <title>newsletter@2x</title>
    <desc>Created with Sketch.</desc>
    <g id="newsletter" stroke="none" stroke-width="1" fill="none" fill-rule="evenodd">
        <g id="Group-Copy" transform="translate(2.000000, 9.000000)" fill-rule="nonzero">
            <path d="M37.0000285,57 C52.4640654,57 65,44.463983 65,28.9999619 C65,13.536036 52.4640654,1 37.0000285,1 C21.5359917,1 9,13.536036 9,28.9999619 C9,44.463983 21.5359917,57 37.0000285,57 Z" id="Path" fill="#E4ECF7"></path>
            <path d="M36.5000618,59 C20.3128631,59 7,45.80464 7,29.4241569 C7,13.19536 20.1615657,0 36.5000618,0 C52.8384628,0 66,13.19536 66,29.5758431 C65.8487978,45.80464 52.6872605,59 36.5000618,59 Z M36.5000618,3.03341785 C21.9769436,3.03341785 10.02569,14.8637169 10.02569,29.5758431 C10.02569,44.1362831 21.8256463,56.1182492 36.5000618,56.1182492 C51.1743822,56.1182492 62.9744336,44.2879692 62.9744336,29.5758431 C62.8231362,14.8637169 51.0230849,3.03341785 36.5000618,3.03341785 Z" id="Shape" fill="#153150"></path>
            <path d="M2.49556628,22 C2.35347729,22 2.21139722,22 2.06931716,22 C1.35889898,21.8357673 0.790563535,20.8504741 1.07472992,20.0294137 C1.35889898,18.7156551 1.7851481,17.4018965 2.21139722,16.0882411 C2.49556628,15.2670774 3.34806453,14.7744824 4.05848271,15.1028447 C4.7689009,15.4313101 5.19515895,16.4166033 4.91098989,17.2376637 C4.48474077,18.3871896 4.20057171,19.5367155 3.91640265,20.8504741 C3.63223359,21.5073018 3.06389547,22 2.49556628,22 Z" id="Path" fill="#B6BFC7" opacity="0.4"></path>
            <path d="M3.26615375,41 C2.61292916,41 1.95969431,40.546268 1.63307688,39.9412604 C0.489923063,36.4622048 0,32.9832444 0,29.3530083 C0,27.6890708 0.163307688,26.0252285 0.326615375,24.3613861 C0.489923063,23.6051027 1.30645945,23 2.12299789,23 C2.93953632,23.1512757 3.59277118,23.907559 3.59277118,24.6639375 C3.4294676,26.1765041 3.26615375,27.6890708 3.26615375,29.3530083 C3.26615375,32.680693 3.75607476,36.0084729 4.89923063,39.1848819 C5.22584806,39.9412604 4.73592705,40.8488194 3.75607476,41 C3.59277118,41 3.4294676,41 3.26615375,41 Z" id="Path" fill="#B6BFC7" opacity="0.4"></path>
            <path d="M61.541676,54 C61.2375322,54 60.7813165,53.8478956 60.4772683,53.5436868 C59.8689808,52.9353648 59.8689808,52.0228341 60.3251964,51.4145121 C63.3663475,48.0685022 65.6471391,44.2662747 67.0156905,40.0078297 C67.3197387,39.2473077 68.2320745,38.7910901 68.9924339,39.0952989 C69.7526978,39.3994121 70.2088179,40.3119428 69.9047697,41.0724648 C68.23217,45.6351187 65.799211,49.8935637 62.4540117,53.5436868 C62.4540117,53.8478956 61.997796,54 61.541676,54 Z" id="Path" fill="#B6BFC7" opacity="0.4"></path>
            <path d="M71.3636675,36 L71.2272922,36 C70.5454156,35.8448108 70,35.0689622 70,34.2931135 C70.1363753,32.7414163 70.2727507,31.1896215 70.2727507,29.6379243 C70.2727507,29.3275458 70.2727507,28.8620757 70.2727507,28.5516972 C70.2727507,27.6206594 70.8181662,27 71.6363325,27 C72.3181234,27 73,27.6206594 73,28.5516972 C73,29.0171674 73,29.3275458 73,29.7931135 C73,31.5 72.8636247,33.2068865 72.7272493,34.9137729 C72.590874,35.5345298 71.9090831,36 71.3636675,36 Z" id="Path" fill="#B6BFC7" opacity="0.4"></path>
            <path d="M36.5000484,52 C48.9265486,52 59,42.1504073 59,30.0000568 C59,17.8497063 48.9265486,8 36.5000484,8 C24.0735482,8 14,17.8497063 14,30.0000568 C14,42.1504073 24.0735482,52 36.5000484,52 Z" id="Path" fill="#FFC936"></path>
            <path d="M37,53 C24.320533,53 14,42.4551161 14,29.5000189 C14,16.5448271 24.320533,6 37,6 C49.679467,6 60,16.5448271 60,29.5000189 C60,42.4551161 49.679467,53 37,53 Z M37,8.86218143 C25.9423059,8.86218143 16.948737,18.0512932 16.948737,29.3493629 C16.948737,40.6474325 25.9423059,49.8365064 37,49.8365064 C48.0576941,49.8365064 57.051263,40.6474325 57.051263,29.3493629 C57.051263,18.0512932 48.0576941,8.86218143 37,8.86218143 Z" id="Shape" fill="#FBAE28"></path>
        </g>
        <g id="mail" transform="translate(18.000000, 23.000000)">
            <path d="M23.7627907,18.8312743 C23.0009302,19.7123191 21.9460465,20.2170844 20.8409302,20.2170844 L20.7906977,20.2170844 C19.6604651,20.1987293 18.6139535,19.6664313 17.8604651,18.7486763 L3,3 L3,27.3205083 C3,28.3851041 3.50232558,29 3.79534884,29 L38.2046512,29 C38.4976744,29 39,28.3942817 39,27.3205083 L39,3.54147547 L23.7627907,18.8312743 Z" id="XMLID_211_" fill="#25B9E6"></path>
            <path d="M20.0431751,17.6871379 L20.0946634,17.7479722 C20.2748726,17.9652375 20.5065701,18 20.6181282,18 C20.7382676,18 20.9613837,17.9739282 21.1501743,17.7653534 L21.2016626,17.7045191 L21.2617324,17.6523754 L37,3.07821553 L20.7640118,3.10428737 L5,3 L20.0431751,17.6871379 L20.0431751,17.6871379 Z" id="XMLID_415_" fill="#219ED9"></path>
            <path d="M37.8988235,0.0412371134 L20.9917647,0.0824742268 L4.08470588,0 L4.07647059,0 C1.80352941,0 0,2.13608247 0,4.80824742 L0,27.1917526 C0,29.8639175 1.80352941,32 4.07647059,32 L37.9235294,32 C40.1964706,32 42,29.8639175 42,27.1917526 L42,4.80824742 C42,2.13608247 40.2129412,0.0412371134 37.8988235,0.0412371134 Z M36.5729412,3.34020619 L21.4694118,17.171134 L21.4117647,17.2206186 L21.3623529,17.2783505 C21.1811765,17.4762887 20.9670588,17.5010309 20.8517647,17.5010309 C20.7364706,17.5010309 20.5223529,17.4680412 20.3494118,17.2618557 L20.3,17.2041237 L5.86352941,3.2742268 L20.9917647,3.37319588 L36.5729412,3.34020619 Z M37.9235294,28.7010309 L4.07647059,28.7010309 C3.78823529,28.7010309 3.29411765,28.156701 3.29411765,27.1917526 L3.29411765,5.33608247 L17.92,19.4886598 C18.6611765,20.3134021 19.7070588,20.7917526 20.8188235,20.8082474 L20.8682353,20.8082474 C21.9635294,20.8082474 22.9847059,20.3546392 23.7341176,19.5628866 L38.7223529,5.82268041 L38.7223529,27.1917526 C38.7058824,28.156701 38.2117647,28.7010309 37.9235294,28.7010309 L37.9235294,28.7010309 Z" id="XMLID_426_" fill="#153150" fill-rule="nonzero"></path>
        </g>
    </g>
</svg>