<svg viewBox="0 0 52 52" xmlns="http://www.w3.org/2000/svg">
<path d="M4.54642 35.8093L4.56475 35.7946L4.58135 35.778L23.9071 16.4523C24.1538 16.2056 24.2946 15.83 24.2946 15.468V14.3777C25.0381 14.1586 25.6827 13.7325 26.2635 13.2001L26.2703 13.1939L26.2768 13.1874C28.1274 11.3368 28.1274 8.33022 26.2768 6.47964C24.4262 4.62905 21.4196 4.62905 19.569 6.47964C17.7184 8.33022 17.7184 11.3368 19.569 13.1874C20.1183 13.7367 20.8029 14.1612 21.5512 14.3784V14.9239L4.21849 32.2566C1.95758 24.3768 4.12348 15.8569 10.0052 9.97521C18.8438 1.1366 33.2152 1.13529 42.1077 9.97592C50.9457 18.8146 50.9467 33.1856 42.1061 42.0779C36.2244 47.9589 27.705 50.1245 19.8256 47.8637L26.5739 41.1154H29.753C29.9721 41.8589 30.3982 42.5035 30.9306 43.0843L30.9368 43.0911L30.9433 43.0976C32.7939 44.9482 35.8005 44.9482 37.6511 43.0976C39.5017 41.247 39.5017 38.2404 37.6511 36.3899C35.8005 34.5393 32.7939 34.5393 30.9433 36.3899C30.394 36.9392 29.9695 37.6237 29.7524 38.3721H26.0298C25.638 38.3721 25.3387 38.5343 25.0909 38.7201L25.0679 38.7374L25.0473 38.7577L16.2533 47.4464L16.2515 47.4482C15.9326 47.7671 15.7975 48.2787 15.8699 48.7127L15.8726 48.7294L15.8767 48.7458C15.9266 48.9453 16.0032 49.2403 16.2801 49.4444C16.425 49.5806 16.5695 49.6527 16.6686 49.7022L16.6776 49.7067L16.6947 49.7152L16.7125 49.7222C26.1372 53.4171 36.8473 51.1683 43.9701 44.0455C53.9296 34.086 53.9308 17.9147 44.0228 8.00674C34.1154 -1.90065 17.9441 -1.90065 8.03673 8.00674C0.862646 15.1808 -1.33265 25.8862 2.30334 35.3067C2.46315 35.7735 2.8575 36.0831 3.31681 36.1597C3.77522 36.2361 4.20962 36.0787 4.54642 35.8093ZM21.5375 11.2189C20.7551 10.4366 20.7551 9.1778 21.5375 8.39545C22.3198 7.61309 23.5786 7.61309 24.361 8.39545C25.1433 9.1778 25.1433 10.4366 24.361 11.2189C23.5786 12.0013 22.3198 12.0013 21.5375 11.2189ZM32.8108 41.1335C32.0753 40.35 32.0753 39.0848 32.8108 38.3014C33.5935 37.5233 34.849 37.5247 35.63 38.3057C36.4123 39.088 36.4123 40.3468 35.63 41.1291C34.849 41.9101 33.5935 41.9115 32.8108 41.1335Z" stroke-width="0.847599"/>
<path d="M36.8639 16.9761C38.7118 15.1253 38.7109 12.1207 36.8612 10.271C35.0106 8.42044 32.004 8.42044 30.1534 10.271C28.6161 11.8083 28.3847 14.0716 29.3443 15.8721L6.24632 38.9701C5.7122 39.5042 5.7122 40.4044 6.24632 40.9386C6.78043 41.4727 7.68068 41.4727 8.21479 40.9386L31.3104 17.843C33.0778 18.7986 35.3835 18.5087 36.8639 16.9761ZM32.1219 12.2395C32.9042 11.4571 34.163 11.4571 34.9454 12.2395C35.7277 13.0219 35.7277 14.2806 34.9454 15.063C34.163 15.8453 32.9042 15.8453 32.1219 15.063C31.3395 14.2806 31.3395 13.0219 32.1219 12.2395Z" stroke-width="0.847599"/>
<path d="M31.03 29.1618C31.2534 29.8831 31.6719 30.511 32.1916 31.078L32.1979 31.0848L32.2044 31.0913C34.055 32.9419 37.0616 32.9419 38.9121 31.0913C40.7627 29.2408 40.7627 26.2342 38.9121 24.3836C37.0616 22.533 34.055 22.533 32.2044 24.3836C31.6551 24.9329 31.2306 25.6174 31.0134 26.3658H29.1865C28.7948 26.3658 28.4955 26.528 28.2477 26.7139L28.2233 26.7321L28.2018 26.7537L11.1409 43.8673C11.1407 43.8675 11.1405 43.8676 11.1404 43.8678L31.03 29.1618ZM31.03 29.1618H29.7834H31.03ZM34.1728 26.352C34.9552 25.5697 36.214 25.5697 36.9963 26.352C37.7787 27.1344 37.7787 28.3932 36.9963 29.1755C36.214 29.9579 34.9552 29.9579 34.1728 29.1755C33.3905 28.3932 33.3905 27.1344 34.1728 26.352Z" stroke-width="0.847599"/>
</svg>
