<?xml version="1.0" encoding="UTF-8"?>
<svg viewBox="0 0 76 76" version="1.1" xmlns="http://www.w3.org/2000/svg" xmlns:xlink="http://www.w3.org/1999/xlink">
    <!-- Generator: Sketch 63.1 (92452) - https://sketch.com -->
    <title>telegram@2x</title>
    <desc>Created with Sketch.</desc>
    <g id="telegram" stroke="none" stroke-width="1" fill="none" fill-rule="evenodd">
        <g id="Group-Copy" transform="translate(2.000000, 9.000000)" fill-rule="nonzero">
            <path d="M37.0000285,57 C52.4640654,57 65,44.463983 65,28.9999619 C65,13.536036 52.4640654,1 37.0000285,1 C21.5359917,1 9,13.536036 9,28.9999619 C9,44.463983 21.5359917,57 37.0000285,57 Z" id="Path" fill="#E4ECF7"></path>
            <path d="M36.5000618,59 C20.3128631,59 7,45.80464 7,29.4241569 C7,13.19536 20.1615657,0 36.5000618,0 C52.8384628,0 66,13.19536 66,29.5758431 C65.8487978,45.80464 52.6872605,59 36.5000618,59 Z M36.5000618,3.03341785 C21.9769436,3.03341785 10.02569,14.8637169 10.02569,29.5758431 C10.02569,44.1362831 21.8256463,56.1182492 36.5000618,56.1182492 C51.1743822,56.1182492 62.9744336,44.2879692 62.9744336,29.5758431 C62.8231362,14.8637169 51.0230849,3.03341785 36.5000618,3.03341785 Z" id="Shape" fill="#153150"></path>
            <path d="M2.49556628,22 C2.35347729,22 2.21139722,22 2.06931716,22 C1.35889898,21.8357673 0.790563535,20.8504741 1.07472992,20.0294137 C1.35889898,18.7156551 1.7851481,17.4018965 2.21139722,16.0882411 C2.49556628,15.2670774 3.34806453,14.7744824 4.05848271,15.1028447 C4.7689009,15.4313101 5.19515895,16.4166033 4.91098989,17.2376637 C4.48474077,18.3871896 4.20057171,19.5367155 3.91640265,20.8504741 C3.63223359,21.5073018 3.06389547,22 2.49556628,22 Z" id="Path" fill="#B6BFC7" opacity="0.4"></path>
            <path d="M3.26615375,41 C2.61292916,41 1.95969431,40.546268 1.63307688,39.9412604 C0.489923063,36.4622048 0,32.9832444 0,29.3530083 C0,27.6890708 0.163307688,26.0252285 0.326615375,24.3613861 C0.489923063,23.6051027 1.30645945,23 2.12299789,23 C2.93953632,23.1512757 3.59277118,23.907559 3.59277118,24.6639375 C3.4294676,26.1765041 3.26615375,27.6890708 3.26615375,29.3530083 C3.26615375,32.680693 3.75607476,36.0084729 4.89923063,39.1848819 C5.22584806,39.9412604 4.73592705,40.8488194 3.75607476,41 C3.59277118,41 3.4294676,41 3.26615375,41 Z" id="Path" fill="#B6BFC7" opacity="0.4"></path>
            <path d="M61.541676,54 C61.2375322,54 60.7813165,53.8478956 60.4772683,53.5436868 C59.8689808,52.9353648 59.8689808,52.0228341 60.3251964,51.4145121 C63.3663475,48.0685022 65.6471391,44.2662747 67.0156905,40.0078297 C67.3197387,39.2473077 68.2320745,38.7910901 68.9924339,39.0952989 C69.7526978,39.3994121 70.2088179,40.3119428 69.9047697,41.0724648 C68.23217,45.6351187 65.799211,49.8935637 62.4540117,53.5436868 C62.4540117,53.8478956 61.997796,54 61.541676,54 Z" id="Path" fill="#B6BFC7" opacity="0.4"></path>
            <path d="M71.3636675,36 L71.2272922,36 C70.5454156,35.8448108 70,35.0689622 70,34.2931135 C70.1363753,32.7414163 70.2727507,31.1896215 70.2727507,29.6379243 C70.2727507,29.3275458 70.2727507,28.8620757 70.2727507,28.5516972 C70.2727507,27.6206594 70.8181662,27 71.6363325,27 C72.3181234,27 73,27.6206594 73,28.5516972 C73,29.0171674 73,29.3275458 73,29.7931135 C73,31.5 72.8636247,33.2068865 72.7272493,34.9137729 C72.590874,35.5345298 71.9090831,36 71.3636675,36 Z" id="Path" fill="#B6BFC7" opacity="0.4"></path>
            <path d="M36.5000484,52 C48.9265486,52 59,42.1504073 59,30.0000568 C59,17.8497063 48.9265486,8 36.5000484,8 C24.0735482,8 14,17.8497063 14,30.0000568 C14,42.1504073 24.0735482,52 36.5000484,52 Z" id="Path" fill="#FFC936"></path>
            <path d="M37,53 C24.320533,53 14,42.4551161 14,29.5000189 C14,16.5448271 24.320533,6 37,6 C49.679467,6 60,16.5448271 60,29.5000189 C60,42.4551161 49.679467,53 37,53 Z M37,8.86218143 C25.9423059,8.86218143 16.948737,18.0512932 16.948737,29.3493629 C16.948737,40.6474325 25.9423059,49.8365064 37,49.8365064 C48.0576941,49.8365064 57.051263,40.6474325 57.051263,29.3493629 C57.051263,18.0512932 48.0576941,8.86218143 37,8.86218143 Z" id="Shape" fill="#FBAE28"></path>
        </g>
        <g transform="translate(13.000000, 19.000000)" fill-rule="nonzero">
            <path d="M40.7425827,0.00399316314 C40.1991962,0.0430047923 39.6658307,0.168801554 39.1632967,0.37647518 L39.156526,0.37647518 C38.6741074,0.565221673 36.3805035,1.51730575 32.8935484,2.96046478 L20.3980617,8.15349882 C11.4318476,11.878319 2.61797615,15.5463482 2.61797615,15.5463482 L2.72292334,15.5062604 C2.72292334,15.5062604 2.11524525,15.7033585 1.480484,16.1326315 C1.08833355,16.3788712 0.750887119,16.7010609 0.48856377,17.0797047 C0.177107587,17.5306918 -0.0734115167,18.2205352 0.0196867989,18.9337631 C0.172029497,20.1397363 0.964211527,20.8629861 1.5329576,21.2621933 C2.10847446,21.6664115 2.65690817,21.855158 2.65690817,21.855158 L2.67044975,21.855158 L10.9358875,24.6028392 C11.306588,25.7770762 13.4546201,32.7456636 13.9708926,34.3508439 C14.275578,35.3096093 14.5717999,35.9092552 14.9425004,36.3669237 C15.1219263,36.6007689 15.3318207,36.7961967 15.5840325,36.9532071 C15.7151486,37.0284649 15.8549511,37.0879087 16.0004358,37.1302613 L15.915801,37.1102174 C15.9411915,37.1168987 15.9615038,37.1369426 15.9801235,37.1436239 C16.0478313,37.1619974 16.0935341,37.1686787 16.1798617,37.1820413 C17.4883162,37.5728969 18.5394808,36.7711419 18.5394808,36.7711419 L18.5987252,36.7243728 L23.4787696,32.3397751 L31.6578798,38.5316623 L31.8440764,38.6101674 C33.548622,39.3484502 35.2751725,38.9375507 36.187536,38.2126306 C37.1066703,37.4826994 37.4638293,36.5489889 37.4638293,36.5489889 L37.5230737,36.3986599 L43.843603,4.4470522 C44.0230288,3.65865977 44.0687316,2.92037703 43.8706861,2.20380848 C43.6664203,1.47859656 43.1949237,0.85486815 42.54869,0.454980359 C42.0060518,0.129459648 41.3768135,-0.0276619198 40.7425827,0.00399316314 L40.7425827,0.00399316314 Z M40.5716203,3.4281552 C40.5648496,3.53338555 40.5851619,3.52169329 40.5377664,3.72380237 L40.5377664,3.74217592 L34.2764815,35.3613893 C34.2493984,35.406488 34.2036956,35.5050371 34.078436,35.6035861 C33.9464057,35.7071462 33.8414585,35.7722888 33.2913321,35.5568171 L23.2874949,27.9885838 L17.2445679,33.4238147 L18.5140904,25.4229678 L34.8587692,10.3900612 C35.5324624,9.77204176 35.3073338,9.64175657 35.3073338,9.64175657 C35.3547293,8.88342995 34.2900231,9.41960362 34.2900231,9.41960362 L13.6797487,22.0188496 L13.6729779,21.9854431 L3.79440032,18.7032586 L3.79440032,18.6965773 L3.76900987,18.6915663 C3.78632715,18.6858913 3.80328448,18.6791981 3.81979077,18.6715224 L3.87395706,18.6447973 L3.92643066,18.6264237 C3.92643066,18.6264237 12.7470729,14.9583945 21.713287,11.2335743 C26.2023185,9.3678236 30.725204,7.48871029 34.2036956,6.03886997 C37.6821872,4.59738127 40.2533934,3.54006684 40.3989653,3.48327586 C40.5377664,3.42982553 40.4717512,3.42982553 40.5716203,3.42982553 L40.5716203,3.4281552 Z" id="surface1" fill="#000000"></path>
            <path d="M40.5716203,3.4281552 C40.5648496,3.53338555 40.5851619,3.52169329 40.5377664,3.72380237 L40.5377664,3.74217592 L34.2764815,35.3613893 C34.2493984,35.406488 34.2036956,35.5050371 34.078436,35.6035861 C33.9464057,35.7071462 33.8414585,35.7722888 33.2913321,35.5568171 L23.2874949,27.9885838 L17.2445679,33.4238147 L18.5140904,25.4229678 L34.8587692,10.3900612 C35.5324624,9.77204176 35.3073338,9.64175657 35.3073338,9.64175657 C35.3547293,8.88342995 34.2900231,9.41960362 34.2900231,9.41960362 L13.6797487,22.0188496 L13.6729779,21.9854431 L3.79440032,18.7032586 L3.79440032,18.6965773 L3.76900987,18.6915663 C3.78632715,18.6858913 3.80328448,18.6791981 3.81979077,18.6715224 L3.87395706,18.6447973 L3.92643066,18.6264237 C3.92643066,18.6264237 12.7470729,14.9583945 21.713287,11.2335743 C26.2023185,9.3678236 30.725204,7.48871029 34.2036956,6.03886997 C37.6821872,4.59738127 40.2533934,3.54006684 40.3989653,3.48327586 C40.5377664,3.42982553 40.4717512,3.42982553 40.5716203,3.42982553 L40.5716203,3.4281552 Z" id="surface1-path" fill="#25B9E6"></path>
        </g>
    </g>
</svg>