<?xml version="1.0" encoding="UTF-8"?>
<svg viewBox="0 0 76 76" version="1.1" xmlns="http://www.w3.org/2000/svg" xmlns:xlink="http://www.w3.org/1999/xlink">
    <!-- Generator: Sketch 63.1 (92452) - https://sketch.com -->
    <title>twitter@2x</title>
    <desc>Created with Sketch.</desc>
    <g id="twitter" stroke="none" stroke-width="1" fill="none" fill-rule="evenodd">
        <g id="Group" transform="translate(2.000000, 9.000000)" fill-rule="nonzero">
            <path d="M37.0000285,57 C52.4640654,57 65,44.463983 65,28.9999619 C65,13.536036 52.4640654,1 37.0000285,1 C21.5359917,1 9,13.536036 9,28.9999619 C9,44.463983 21.5359917,57 37.0000285,57 Z" id="Path" fill="#E4ECF7"></path>
            <path d="M36.5000618,59 C20.3128631,59 7,45.80464 7,29.4241569 C7,13.19536 20.1615657,0 36.5000618,0 C52.8384628,0 66,13.19536 66,29.5758431 C65.8487978,45.80464 52.6872605,59 36.5000618,59 Z M36.5000618,3.03341785 C21.9769436,3.03341785 10.02569,14.8637169 10.02569,29.5758431 C10.02569,44.1362831 21.8256463,56.1182492 36.5000618,56.1182492 C51.1743822,56.1182492 62.9744336,44.2879692 62.9744336,29.5758431 C62.8231362,14.8637169 51.0230849,3.03341785 36.5000618,3.03341785 Z" id="Shape" fill="#153150"></path>
            <path d="M2.49556628,22 C2.35347729,22 2.21139722,22 2.06931716,22 C1.35889898,21.8357673 0.790563535,20.8504741 1.07472992,20.0294137 C1.35889898,18.7156551 1.7851481,17.4018965 2.21139722,16.0882411 C2.49556628,15.2670774 3.34806453,14.7744824 4.05848271,15.1028447 C4.7689009,15.4313101 5.19515895,16.4166033 4.91098989,17.2376637 C4.48474077,18.3871896 4.20057171,19.5367155 3.91640265,20.8504741 C3.63223359,21.5073018 3.06389547,22 2.49556628,22 Z" id="Path" fill="#B6BFC7" opacity="0.4"></path>
            <path d="M3.26615375,41 C2.61292916,41 1.95969431,40.546268 1.63307688,39.9412604 C0.489923063,36.4622048 0,32.9832444 0,29.3530083 C0,27.6890708 0.163307688,26.0252285 0.326615375,24.3613861 C0.489923063,23.6051027 1.30645945,23 2.12299789,23 C2.93953632,23.1512757 3.59277118,23.907559 3.59277118,24.6639375 C3.4294676,26.1765041 3.26615375,27.6890708 3.26615375,29.3530083 C3.26615375,32.680693 3.75607476,36.0084729 4.89923063,39.1848819 C5.22584806,39.9412604 4.73592705,40.8488194 3.75607476,41 C3.59277118,41 3.4294676,41 3.26615375,41 Z" id="Path" fill="#B6BFC7" opacity="0.4"></path>
            <path d="M61.541676,54 C61.2375322,54 60.7813165,53.8478956 60.4772683,53.5436868 C59.8689808,52.9353648 59.8689808,52.0228341 60.3251964,51.4145121 C63.3663475,48.0685022 65.6471391,44.2662747 67.0156905,40.0078297 C67.3197387,39.2473077 68.2320745,38.7910901 68.9924339,39.0952989 C69.7526978,39.3994121 70.2088179,40.3119428 69.9047697,41.0724648 C68.23217,45.6351187 65.799211,49.8935637 62.4540117,53.5436868 C62.4540117,53.8478956 61.997796,54 61.541676,54 Z" id="Path" fill="#B6BFC7" opacity="0.4"></path>
            <path d="M71.3636675,36 L71.2272922,36 C70.5454156,35.8448108 70,35.0689622 70,34.2931135 C70.1363753,32.7414163 70.2727507,31.1896215 70.2727507,29.6379243 C70.2727507,29.3275458 70.2727507,28.8620757 70.2727507,28.5516972 C70.2727507,27.6206594 70.8181662,27 71.6363325,27 C72.3181234,27 73,27.6206594 73,28.5516972 C73,29.0171674 73,29.3275458 73,29.7931135 C73,31.5 72.8636247,33.2068865 72.7272493,34.9137729 C72.590874,35.5345298 71.9090831,36 71.3636675,36 Z" id="Path" fill="#B6BFC7" opacity="0.4"></path>
            <path d="M36.5000484,52 C48.9265486,52 59,42.1504073 59,30.0000568 C59,17.8497063 48.9265486,8 36.5000484,8 C24.0735482,8 14,17.8497063 14,30.0000568 C14,42.1504073 24.0735482,52 36.5000484,52 Z" id="Path" fill="#FFC936"></path>
            <path d="M37,53 C24.320533,53 14,42.4551161 14,29.5000189 C14,16.5448271 24.320533,6 37,6 C49.679467,6 60,16.5448271 60,29.5000189 C60,42.4551161 49.679467,53 37,53 Z M37,8.86218143 C25.9423059,8.86218143 16.948737,18.0512932 16.948737,29.3493629 C16.948737,40.6474325 25.9423059,49.8365064 37,49.8365064 C48.0576941,49.8365064 57.051263,40.6474325 57.051263,29.3493629 C57.051263,18.0512932 48.0576941,8.86218143 37,8.86218143 Z" id="Shape" fill="#FBAE28"></path>
            <path d="M28.4328742,51 C22.9054477,51 17.5274264,49.4751219 12.8963369,46.4254616 L12,45.8155678 L13.045742,45.9680652 C17.2286162,46.7304563 23.8017846,44.4431871 26.4907953,41.2411252 C22.158516,41.0886278 18.4237633,38.1914649 17.079211,33.9219212 L17.079211,33.6170223 L22.7560426,33.6170223 C20.2164371,32.5496364 13.6432686,29.0425797 13.4938635,23.5531527 L13.4938635,23.4006553 L18.4237633,22.943259 C17.079211,22.0283705 13.4938635,18.8262128 13.4938635,14.0992728 C13.4938635,12.4219931 13.9420789,10.5922161 14.6890106,9.06737633 L14.8384158,8.76241029 L14.9878209,9.06737633 C19.1706951,16.0815472 27.2378209,20.3510909 36.3505949,20.3510909 C36.6494051,20.3510909 37.0975266,20.3510909 37.3963369,20.3510909 C37.2469318,19.7411013 37.2469318,19.1312075 37.2469318,18.5213138 C37.2469318,12.7269879 41.8780213,8.15248781 47.4054477,8.15248781 C49.6463369,8.15248781 52.0365373,8.9148981 53.829211,10.4397187 L61,8 L60.8505949,8.30496603 C60.8505949,8.45744426 59.8048529,11.3546072 57.4145586,13.1843842 L61,12.7269879 L57.7133688,17.7588268 C57.7133688,18.0638216 57.7133688,18.3688164 57.7133688,18.6737154 L57.7133688,20.9609846 C57.7133688,37.5815712 44.5670319,51 28.4328742,51 Z M13.9420789,46.577959 C18.2743582,49.170223 23.3536631,50.5425078 28.4328742,50.5425078 C44.4176268,50.5425078 57.4145586,37.2765764 57.4145586,20.9609846 L57.4145586,18.6737154 C57.4145586,18.3688164 57.4145586,18.0638216 57.4145586,17.7588268 L60.5517846,13.489379 L56.0701002,14.0992728 L56.6676268,13.6418764 C58.7591108,12.2694957 59.954258,9.82982496 60.4023795,8.9148981 L53.6798059,11.2021098 L53.5304947,11.2021098 C51.7378209,9.67732757 49.6463369,8.9148981 47.2560426,8.9148981 C41.8780213,8.9148981 37.3963369,13.489379 37.3963369,18.9787101 C37.3963369,19.5886039 37.3963369,20.1985935 37.545742,20.8084872 L37.545742,20.9609846 L37.3963369,20.9609846 C36.9481215,20.9609846 36.5,20.9609846 36.0517846,20.9609846 C26.9390106,20.9609846 19.0212899,16.8439383 14.5396055,9.82982496 C13.7926738,11.2021098 13.4938635,12.7269879 13.4938635,14.4042676 C13.4938635,20.0460961 18.7225736,23.2482538 18.7225736,23.2482538 L19.1706951,23.5531527 L13.4938635,24.0106449 C13.7926738,30.2623672 23.3536631,33.9219212 23.3536631,33.9219212 L24.3994051,34.226916 L17.079211,34.226916 C18.4237633,38.3439623 22.158516,41.0886278 26.4907953,41.0886278 L26.7896055,41.0886278 L26.6402004,41.3936226 C24.6981215,44.443283 18.2743582,46.8829537 13.9420789,46.577959 Z" id="Shape" fill="#153150"></path>
            <path d="M56.9499714,14.3260718 C59.6500533,12.6521835 61,9 61,9 L53.950048,11.2825776 C52.149962,9.91304826 50.0500345,9 47.6499826,9 C42.0999923,9 37.600013,13.5652222 37.600013,19.1956434 C37.600013,19.804304 37.600013,20.5652493 37.750028,21.1739099 C37.2999829,21.1739099 36.8500321,21.1739099 36.399987,21.1739099 C27.4000283,21.1739099 19.2999711,17.0651879 14.7999917,9.76086877 C14.0500109,11.2825776 13.5999658,12.9565616 13.5999658,14.6304499 C13.5999658,20.4130602 19.0000354,23.6086478 19.0000354,23.6086478 L13.5999658,24.065215 C13.7499808,30.6086749 23.6500298,34.2608297 23.6500298,34.2608297 L17.2000436,34.2608297 C18.3999752,38.5217407 22.2999888,41.5652349 26.7999682,41.5652349 C24.4000106,44.9130116 17.2000436,47.4999386 13,46.5868999 C17.4999794,49.4782051 22.7500339,51 28.4500392,51 C44.6499649,51 57.7000466,37.7608911 57.7000466,21.3260989 L57.7000466,19.0434543 C57.7000466,18.7391719 57.7000466,18.4347938 57.7000466,18.1304157 L61,13.5652222 L56.9499714,14.3260718 Z" id="Path" stroke="#163150" stroke-width="2" fill="#25B9E6" stroke-linejoin="round"></path>
            <path d="M54.9262345,25 C54.9262345,37.5 43.2482967,46.4120458 28.7517033,46.4120458 C26.7382454,46.4120458 24.8590293,46.1805414 23.1140549,45.8332848 C20.697956,46.6434774 18.0133736,46.990734 16,46.6434774 C20.0268315,48.8425508 24.7247875,50 29.8254688,50 C44.3221465,50 56,39.930505 56,27.4305778 L56,25.6944404 C56,25.462936 56,25.2315044 56,25 L54.9262345,25 Z" id="Path" fill="#219ED9"></path>
            <path d="M56.9499714,14.3260718 C59.6500533,12.6521835 61,9 61,9 L53.950048,11.2825776 C52.149962,9.91304826 50.0500345,9 47.6499826,9 C42.0999923,9 37.600013,13.5652222 37.600013,19.1956434 C37.600013,19.804304 37.600013,20.5652493 37.750028,21.1739099 C37.2999829,21.1739099 36.8500321,21.1739099 36.399987,21.1739099 C27.4000283,21.1739099 19.2999711,17.0651879 14.7999917,9.76086877 C14.0500109,11.2825776 13.5999658,12.9565616 13.5999658,14.6304499 C13.5999658,20.4130602 19.0000354,23.6086478 19.0000354,23.6086478 L13.5999658,24.065215 C13.7499808,30.6086749 23.6500298,34.2608297 23.6500298,34.2608297 L17.2000436,34.2608297 C18.3999752,38.5217407 22.2999888,41.5652349 26.7999682,41.5652349 C24.4000106,44.9130116 17.2000436,47.4999386 13,46.5868999 C17.4999794,49.4782051 22.7500339,51 28.4500392,51 C44.6499649,51 57.7000466,37.7608911 57.7000466,21.3260989 L57.7000466,19.0434543 C57.7000466,18.7391719 57.7000466,18.4347938 57.7000466,18.1304157 L61,13.5652222 L56.9499714,14.3260718 Z" id="Path" stroke="#163150" stroke-width="2" stroke-linejoin="round"></path>
        </g>
    </g>
</svg>