<svg fill="none" viewBox="0 0 60 60" xmlns="http://www.w3.org/2000/svg">
<path d="M50 22.5V12.5H10V22.5H50ZM50 27.5H10V47.5H50V27.5ZM7.5 7.5H52.5C53.163 7.5 53.7989 7.76339 54.2678 8.23223C54.7366 8.70107 55 9.33696 55 10V50C55 50.663 54.7366 51.2989 54.2678 51.7678C53.7989 52.2366 53.163 52.5 52.5 52.5H7.5C6.83696 52.5 6.20107 52.2366 5.73223 51.7678C5.26339 51.2989 5 50.663 5 50V10C5 9.33696 5.26339 8.70107 5.73223 8.23223C6.20107 7.76339 6.83696 7.5 7.5 7.5ZM12.5 15H17.5V20H12.5V15ZM22.5 15H27.5V20H22.5V15Z"/>
</svg>
