<svg width="47" height="57" viewBox="0 0 47 57" fill="none" xmlns="http://www.w3.org/2000/svg">
<path d="M22.1773 8.0278C18.1524 8.03999 14.2213 9.24464 10.8807 11.4896C7.53999 13.7346 4.93953 16.9192 3.4077 20.6412C1.87587 24.3633 1.48138 28.4558 2.27406 32.4019C3.06675 36.348 5.01104 39.9707 7.86139 42.8124C10.7117 45.6542 14.3403 47.5875 18.2888 48.3682C22.2372 49.149 26.3285 48.7421 30.0459 47.1991C33.7633 45.656 36.94 43.0459 39.1749 39.6985C41.4098 36.351 42.6026 32.4164 42.6026 28.3915C42.6026 25.7121 42.0738 23.059 41.0466 20.5844C40.0194 18.1097 38.5139 15.8621 36.6164 13.9703C34.7189 12.0786 32.4668 10.5799 29.989 9.56017C27.5113 8.54043 24.8566 8.01969 22.1773 8.0278ZM22.1773 42.5425C18.4196 42.5425 14.8152 41.0532 12.1535 38.4008C9.49185 35.7483 7.98999 32.1491 7.97694 28.3915C7.97694 26.5178 9.32055 14.1911 22.1773 14.1911C24.1092 14.0772 26.044 14.3593 27.8629 15.0201C29.6818 15.681 31.3465 16.7067 32.7546 18.0342C34.1628 19.3617 35.2847 20.963 36.0516 22.7399C36.8184 24.5167 37.214 26.4316 37.214 28.3668C37.214 30.3021 36.8184 32.2169 36.0516 33.9937C35.2847 35.7706 34.1628 37.3719 32.7546 38.6994C31.3465 40.027 29.6818 41.0526 27.8629 41.7135C26.044 42.3744 24.1092 42.6565 22.1773 42.5425Z" fill="#1EB8E7"/>
<path d="M20.4146 42.5423L27.8106 49.322L34.2821 46.4005L27.5024 41.6178L20.4146 42.5423Z" fill="#0C9FE1"/>
<path d="M1 24.8291L8.08784 30.8322L9.17258 23.2882L2.54083 19.7382L1 24.8291Z" fill="#0C9FE1"/>
<path d="M22.1773 8.0278C18.1524 8.03999 14.2213 9.24464 10.8807 11.4896C7.53999 13.7346 4.93953 16.9192 3.4077 20.6412C1.87587 24.3633 1.48138 28.4558 2.27406 32.4019C3.06675 36.348 5.01104 39.9707 7.86139 42.8124C10.7117 45.6542 14.3403 47.5875 18.2888 48.3682C22.2372 49.149 26.3285 48.7421 30.0459 47.1991C33.7633 45.656 36.94 43.0459 39.1749 39.6985C41.4098 36.351 42.6025 32.4164 42.6026 28.3915C42.6026 25.7121 42.0738 23.059 41.0466 20.5844C40.0194 18.1097 38.5139 15.8621 36.6164 13.9703C34.7189 12.0786 32.4668 10.5799 29.989 9.56017C27.5113 8.54043 24.8566 8.01969 22.1773 8.0278V8.0278ZM22.1773 42.5425C18.4196 42.5425 14.8152 41.0532 12.1535 38.4008C9.49185 35.7483 7.98999 32.1491 7.97694 28.3915C7.97694 26.5178 9.32055 14.1911 22.1773 14.1911C24.1092 14.0772 26.044 14.3593 27.8629 15.0201C29.6818 15.681 31.3465 16.7067 32.7546 18.0342C34.1628 19.3617 35.2847 20.963 36.0516 22.7399C36.8184 24.5167 37.214 26.4316 37.214 28.3668C37.214 30.3021 36.8184 32.2169 36.0516 33.9937C35.2847 35.7706 34.1628 37.3719 32.7546 38.6994C31.3465 40.027 29.6818 41.0526 27.8629 41.7135C26.044 42.3744 24.1092 42.6565 22.1773 42.5425V42.5425Z" stroke="#163150" stroke-width="2.46533" stroke-linecap="round" stroke-linejoin="round"/>
<path d="M40.3714 46.9306L26.812 43.701L9.86287 26.9491L19.9707 16.8289L36.8336 33.6794L40.3714 46.9306Z" fill="#E3EDFF" stroke="#163150" stroke-width="2.46533" stroke-linecap="round" stroke-linejoin="round"/>
<path d="M36.6487 33.359C35.7612 40.0771 33.5054 42.4438 26.5779 43.4176L3.00925 19.9353L3.10786 19.8367L2.56549 14.2773L7.55779 9.26038L13.1171 9.80275L36.6487 33.359Z" fill="#FFD166"/>
<path d="M26.5779 36.379L31.2004 42.3945L26.5409 43.4669L3.05862 19.8367L9.30825 19.9106L15.4839 26.5177L21.6472 19.1217L30.2759 27.7504L26.5779 36.379Z" fill="#FFA815"/>
<path d="M3.05862 19.9105H9.30825L13.487 15.7317L13.1172 9.77795" stroke="#163150" stroke-width="2.46533" stroke-linecap="round" stroke-linejoin="round"/>
<path d="M36.6487 33.359C35.7612 40.0771 33.5054 42.4438 26.5779 43.4176L3.00925 19.9353L3.10786 19.8367L2.56549 14.2773L7.55779 9.26038L13.1171 9.80275L36.6487 33.359Z" stroke="#163150" stroke-width="2.46533" stroke-linecap="round" stroke-linejoin="round"/>
<path d="M6.85509 15.4238H5.62242V16.6565H6.85509V15.4238Z" fill="#163150"/>
<path d="M8.08789 15.4238H6.85522V16.6565H8.08789V15.4238Z" fill="#163150"/>
<path d="M9.32057 14.191H8.08791V15.4237H9.32057V14.191Z" fill="#163150"/>
<path d="M8.08789 14.191H6.85522V15.4237H8.08789V14.191Z" fill="#163150"/>
<path d="M9.32057 12.9585H8.08791V14.1912H9.32057V12.9585Z" fill="#163150"/>
<path d="M33.5917 45.3159C34.9198 45.1226 36.1515 44.5101 37.1072 43.5677C38.0629 42.6253 38.6926 41.4024 38.9045 40.077L40.1371 46.2404L33.5917 45.3159Z" fill="#163150"/>
<path d="M16.926 45.9815L10.5655 42.5546L18.6025 27.627L27.0462 11.9352L33.4068 15.3497L24.8891 31.1648L16.926 45.9815Z" fill="#1EB8E7"/>
<path d="M12.5377 38.8939L18.6024 27.6273L25.604 14.6104" stroke="#163150" stroke-width="2.46533" stroke-linecap="round" stroke-linejoin="round"/>
<path d="M31.8044 18.333L24.8891 31.1651L19.1942 41.766" stroke="#163150" stroke-width="2.46533" stroke-linecap="round" stroke-linejoin="round"/>
<path opacity="0.4" d="M35.5763 5.64862C32.5309 3.85882 29.158 2.6968 25.6564 2.23105C22.1548 1.7653 18.5954 2.00525 15.188 2.93675" stroke="#B5BFC7" stroke-width="2.46533" stroke-linecap="round" stroke-linejoin="round"/>
<path opacity="0.4" d="M45.339 15.7194C44.1418 13.54 42.6438 11.5399 40.8891 9.77795" stroke="#B5BFC7" stroke-width="2.46533" stroke-linecap="round" stroke-linejoin="round"/>
<path opacity="0.4" d="M18.1217 54.4747C20.9836 54.9138 23.8979 54.8846 26.7504 54.3884" stroke="#B5BFC7" stroke-width="2.46533" stroke-linecap="round" stroke-linejoin="round"/>
</svg>
