<svg width="48" height="58" viewBox="0 0 48 58" fill="none" xmlns="http://www.w3.org/2000/svg">
<path d="M23.6693 7.26731C19.3733 7.28031 15.1776 8.5661 11.6119 10.9623C8.04626 13.3584 5.27067 16.7575 3.63567 20.7302C2.00068 24.7029 1.57963 29.071 2.42569 33.2829C3.27176 37.4947 5.347 41.3614 8.3893 44.3945C11.4316 47.4276 15.3045 49.4912 19.5189 50.3245C23.7333 51.1578 28.1001 50.7236 32.0678 49.0766C36.0356 47.4296 39.4263 44.6437 41.8116 41.0709C44.197 37.498 45.4701 33.2984 45.4701 29.0024C45.4702 26.1425 44.9058 23.3108 43.8094 20.6695C42.713 18.0282 41.1061 15.6292 39.0808 13.6101C37.0556 11.5909 34.6518 9.99129 32.0071 8.90288C29.3625 7.81446 26.5291 7.25866 23.6693 7.26731ZM23.6693 44.1064C19.6586 44.1064 15.8114 42.5168 12.9705 39.6857C10.1296 36.8547 8.52656 33.013 8.51263 29.0024C8.51263 27.0025 9.94673 13.8457 23.6693 13.8457C25.7313 13.7241 27.7964 14.0252 29.7378 14.7305C31.6792 15.4359 33.456 16.5307 34.959 17.9476C36.462 19.3645 37.6595 21.0737 38.478 22.9702C39.2965 24.8667 39.7187 26.9105 39.7187 28.9761C39.7187 31.0417 39.2965 33.0854 38.478 34.9819C37.6595 36.8784 36.462 38.5876 34.959 40.0046C33.456 41.4215 31.6792 42.5162 29.7378 43.2216C27.7964 43.927 25.7313 44.2281 23.6693 44.1064Z" fill="#1EB8E7"/>
<path d="M27.0507 17.7927H30.9977C34.4871 17.7927 37.8336 19.1789 40.301 21.6463C42.7684 24.1136 44.1545 27.4601 44.1545 30.9495C44.1545 34.4389 42.7684 37.7854 40.301 40.2528C37.8336 42.7202 34.4871 44.1064 30.9977 44.1064H27.0507L36.2604 30.9495L27.0507 17.7927Z" fill="#007FC6"/>
<path d="M45.4703 29.0021C45.4807 24.7039 44.2165 20.4991 41.8374 16.9193C39.4584 13.3395 36.0713 10.5455 32.1045 8.89041C28.1377 7.23535 23.7693 6.79359 19.5515 7.62097C15.3336 8.44836 11.4558 10.5077 8.40822 13.5387C5.36065 16.5698 3.28018 20.4363 2.42984 24.6496C1.5795 28.8629 1.99747 33.2337 3.6309 37.2094C5.26433 41.1852 8.03988 44.5874 11.6067 46.9859C15.1734 49.3844 19.3713 50.6715 23.6695 50.6845C26.5249 50.6932 29.354 50.1391 31.9952 49.054C34.6364 47.9688 37.0379 46.3739 39.0624 44.3604C41.087 42.3468 42.695 39.954 43.7945 37.3188C44.894 34.6835 45.4634 31.8575 45.4703 29.0021V29.0021Z" stroke="#163150" stroke-width="2.63136" stroke-linecap="round" stroke-linejoin="round"/>
<path d="M12.6572 39.4224C9.9909 36.6088 8.50725 32.8785 8.51283 29.0022C8.51283 27.0024 9.94693 13.8456 23.6695 13.8456C24.9023 13.846 26.1305 13.9962 27.3271 14.2929" stroke="#163150" stroke-width="2.63136" stroke-linecap="round" stroke-linejoin="round"/>
<path d="M27.8926 42.7908H18.775V33.9757H27.8926C28.3365 33.9722 28.7783 33.9147 29.2083 33.8047C29.7274 33.6807 30.2141 33.4474 30.6358 33.1202C31.0575 32.793 31.4045 32.3796 31.6536 31.9076C31.9027 31.4355 32.0481 30.9158 32.0802 30.383C32.1123 29.8503 32.0303 29.3168 31.8397 28.8183C31.5336 28.0357 30.9857 27.3713 30.2757 26.9216C29.5658 26.472 28.731 26.2607 27.8926 26.3185H21.7879V33.581L20.4722 32.6337L7.31537 21.7399L21.7879 10.0566V17.5034H27.84C28.3896 17.5002 28.9388 17.531 29.4846 17.5955C32.0096 17.8111 34.3922 18.8567 36.2604 20.5689C43.5361 27.3052 40.7468 42.7908 27.8926 42.7908Z" fill="white"/>
<path d="M29.2609 33.8047L25.7349 42.7908H18.7749V35.5282L19.709 33.9757H27.8926C28.3541 33.9765 28.8138 33.919 29.2609 33.8047ZM29.5372 17.5955L24.2745 26.3184H27.8663C28.7046 26.2607 29.5395 26.472 30.2494 26.9216C30.9593 27.3712 31.5072 28.0357 31.8133 28.8182L36.2603 20.5689C34.4061 18.8672 32.0437 17.8224 29.5372 17.5955Z" fill="#CFDBEE"/>
<path d="M27.8926 42.7905H18.775V33.9754H27.8926C28.4272 34.0298 28.9672 33.9715 29.4778 33.8041C29.9884 33.6368 30.4582 33.3643 30.8569 33.0041C31.2556 32.6439 31.5743 32.2041 31.7925 31.713C32.0106 31.222 32.1233 30.6907 32.1233 30.1533C32.1233 29.616 32.0106 29.0847 31.7925 28.5937C31.5743 28.1026 31.2556 27.6628 30.8569 27.3026C30.4582 26.9424 29.9884 26.6699 29.4778 26.5025C28.9672 26.3352 28.4272 26.2769 27.8926 26.3313H21.7879V33.5807L7.31537 21.7396L21.7879 10.0695V17.5031H27.84C44.3123 17.5031 44.3123 42.7905 27.8926 42.7905Z" fill="#B5BFC7" stroke="#163150" stroke-width="2.63136" stroke-linecap="round" stroke-linejoin="round"/>
<path d="M18.0647 47.7769L11.2758 44.1193L19.854 28.1864L28.8664 11.4377L35.6553 15.0822L26.564 31.9624L18.0647 47.7769Z" fill="#1EB8E7"/>
<path d="M13.3809 40.212L19.854 28.1867L27.3271 14.2931" stroke="#163150" stroke-width="2.63136" stroke-linecap="round" stroke-linejoin="round"/>
<path d="M33.9449 18.2665L26.5639 31.9627L20.4855 43.2776" stroke="#163150" stroke-width="2.63136" stroke-linecap="round" stroke-linejoin="round"/>
<path opacity="0.4" d="M34.1816 4.12269C30.5291 2.58361 26.583 1.86599 22.6225 2.02059C18.662 2.17519 14.7839 3.19824 11.2625 5.01736" stroke="#B5BFC7" stroke-width="2.63136" stroke-linecap="round" stroke-linejoin="round"/>
<path opacity="0.4" d="M46.3122 14.2931C44.8567 12.073 43.0836 10.0782 41.0494 8.37256" stroke="#B5BFC7" stroke-width="2.63136" stroke-linecap="round" stroke-linejoin="round"/>
<path opacity="0.4" d="M20.3539 55.8027C21.454 55.9357 22.5612 56.0016 23.6694 56C28.5963 55.9886 33.4253 54.6232 37.6288 52.053" stroke="#B5BFC7" stroke-width="2.63136" stroke-linecap="round" stroke-linejoin="round"/>
</svg>
