<svg width="51" height="56" viewBox="0 0 51 56" fill="none" xmlns="http://www.w3.org/2000/svg">
<path d="M25.199 7.14011C21.1741 7.15229 17.2431 8.35694 13.9024 10.6019C10.5617 12.8469 7.96127 16.0315 6.42944 19.7535C4.89761 23.4756 4.50312 27.5681 5.29581 31.5142C6.08849 35.4603 8.03279 39.083 10.8831 41.9247C13.7335 44.7665 17.362 46.6998 21.3105 47.4805C25.259 48.2613 29.3503 47.8545 33.0676 46.3114C36.785 44.7683 39.9618 42.1582 42.1966 38.8108C44.4315 35.4633 45.6243 31.5287 45.6243 27.5038C45.6243 24.8244 45.0956 22.1713 44.0683 19.6967C43.0411 17.222 41.5356 14.9744 39.6382 13.0827C37.7407 11.1909 35.4885 9.69221 33.0108 8.67247C30.533 7.65274 27.8784 7.132 25.199 7.14011ZM25.199 40.8659C23.4449 40.8659 21.7079 40.5202 20.0874 39.8485C18.4669 39.1769 16.9947 38.1924 15.7549 36.9515C14.5151 35.7105 13.532 34.2374 12.8619 32.6163C12.1917 30.9952 11.8476 29.2579 11.8492 27.5038C11.8519 27.0177 11.8807 26.5322 11.9355 26.0492L10.1851 24.8782L8.10192 19.6763L12.2683 13.439L18.5056 11.3558L22.3762 14.4622C24.324 14.0412 26.3413 14.0612 28.2804 14.5207C30.2195 14.9803 32.0312 15.8677 33.5829 17.1181C35.1347 18.3684 36.3871 19.95 37.2484 21.747C38.1098 23.5441 38.5583 25.511 38.5611 27.5038C38.5611 31.0476 37.1533 34.4463 34.6475 36.9522C32.1416 39.4581 28.7429 40.8659 25.199 40.8659Z" fill="#1EB8E7"/>
<path d="M25.1992 47.8673C36.4457 47.8673 45.5628 38.7502 45.5628 27.5037C45.5628 16.2571 36.4457 7.14001 25.1992 7.14001C13.9526 7.14001 4.83551 16.2571 4.83551 27.5037C4.83551 38.7502 13.9526 47.8673 25.1992 47.8673Z" stroke="#163150" stroke-width="2.46533" stroke-linecap="round" stroke-linejoin="round"/>
<path d="M30.475 28.0217L27.2824 23.8922C28.1143 22.3454 28.6033 20.6376 28.7161 18.8848C28.8288 17.1321 28.5626 15.3757 27.9357 13.7351C25.1252 6.1295 15.2639 1.26046 7.17757 7.57172C-2.95495 15.3992 2.99883 31.1773 14.5736 30.9924C15.6098 30.9664 16.6397 30.8216 17.6429 30.561L20.9711 35.0479L24.6691 35.4916H24.7677L24.6691 36.2436L24.2747 39.2636L26.2346 41.8029L30.0189 42.2836L29.5258 46.0679L31.1776 48.2004L38.7462 48.3607L41.5197 42.3083L30.475 28.0217ZM19.948 14.4623L10.6167 21.5995C5.84629 15.4238 15.1776 8.22503 19.948 14.4007V14.4623Z" fill="#FFD166"/>
<path d="M30.0065 34.2589L28.367 41.6549L24.669 39.1896V35.4916L20.971 35.0478L17.6428 30.5609C16.6461 30.8073 15.6247 30.9396 14.5981 30.9554L12.3423 29.3283L28.367 13.3036L30.4749 28.0216L30.8324 30.5609L30.0065 34.2589Z" fill="#F1B64D"/>
<path d="M41.5196 42.3205L27.2823 23.8921C33.4457 11.9969 18.5797 -1.31591 7.17752 7.50999C-3.80555 15.9907 4.12051 33.8274 17.6429 30.5609L20.9711 35.0478L24.8047 35.4915L24.3239 39.2758L26.2839 41.8028L30.0682 42.2835L29.5874 46.0678L31.2392 48.2003L38.8078 48.3606L41.5196 42.3205ZM10.6167 21.5994C5.84624 15.436 15.1775 8.22493 19.9356 14.4006L10.6167 21.5994Z" stroke="#163150" stroke-width="2.46533" stroke-linecap="round" stroke-linejoin="round"/>
<path opacity="0.6" d="M29.994 34.6658L36.6874 42.0988" stroke="white" stroke-width="1.23267" stroke-miterlimit="10"/>
<path opacity="0.5" d="M21.7969 15.5964L11.2083 23.7813" stroke="white" stroke-width="1.23267" stroke-miterlimit="10"/>
<path d="M19.9479 45.0939L13.5873 41.6671L30.0681 11.0476L36.4287 14.4621L27.9109 30.2772L19.9479 45.0939Z" fill="#1EB8E7"/>
<path d="M36.0959 36.6256C38.4126 33.8544 39.5873 30.305 39.3813 26.6989C39.1752 23.0927 37.6038 19.7003 34.9865 17.2111" stroke="#163150" stroke-width="2.46533" stroke-linecap="round" stroke-linejoin="round"/>
<path d="M34.6536 17.7659L27.9109 30.2774L22.2037 40.8784L22.3269 41.4208C24.1464 41.7767 26.0175 41.7767 27.837 41.4208" stroke="#163150" stroke-width="2.46533" stroke-linecap="round" stroke-linejoin="round"/>
<path d="M11.8617 31.4607C12.5964 33.6786 13.8665 35.6812 15.5597 37.2912" stroke="#163150" stroke-width="2.46533" stroke-linecap="round" stroke-linejoin="round"/>
<path d="M15.9048 36.7241L22.6352 24.2125L28.3671 13.6115L28.2438 13.0692C27.7713 12.9709 27.294 12.8969 26.814 12.8473" stroke="#163150" stroke-width="2.46533" stroke-linecap="round" stroke-linejoin="round"/>
<path opacity="0.4" d="M49.1375 16.0647C47.5176 12.6824 45.201 9.68083 42.3394 7.2569C39.4779 4.83297 36.1361 3.04149 32.5334 2" stroke="#B5BFC7" stroke-width="2.46533" stroke-linecap="round" stroke-linejoin="round"/>
<path opacity="0.4" d="M12.1574 50.6163C15.7374 52.6328 19.7389 53.7852 23.8431 53.9815" stroke="#B5BFC7" stroke-width="2.46533" stroke-linecap="round" stroke-linejoin="round"/>
<path opacity="0.4" d="M2.86328 41.8274C3.90228 43.4448 5.11323 44.9451 6.475 46.302" stroke="#B5BFC7" stroke-width="2.46533" stroke-linecap="round" stroke-linejoin="round"/>
</svg>
