<svg width="54" height="54" viewBox="0 0 54 54" fill="none" xmlns="http://www.w3.org/2000/svg">
<path d="M49.088 17.0632L37.2544 23.8922V10.2589C35.0296 9.84909 32.7487 9.84909 30.524 10.2589V23.9045L18.6904 17.0755C17.2472 18.8127 16.1131 20.7849 15.3375 22.9061L27.1588 29.735L15.3375 36.564C16.1131 38.6852 17.2472 40.6573 18.6904 42.3945L30.524 35.5655V49.1989C32.7488 49.6081 35.0296 49.6081 37.2544 49.1989V35.5532L49.088 42.3822C50.5312 40.645 51.6653 38.6728 52.4408 36.5517L40.6195 29.7227L52.4408 22.9061C51.6666 20.7806 50.5324 18.8041 49.088 17.0632Z" fill="#1EB8E7" stroke="#163150" stroke-width="2.46533" stroke-linecap="round" stroke-linejoin="round"/>
<path opacity="0.4" d="M18.4191 5.3282V3.15871L22.8567 2.38213C24.2811 2.13036 25.7246 2.0025 27.171 2C28.4759 2.00358 29.7784 2.11075 31.0663 2.32049" stroke="#B5BFC7" stroke-width="2.46533" stroke-linecap="round" stroke-linejoin="round"/>
<path opacity="0.4" d="M5.46378 29.5994L9.6795 27.1587L1.99998 22.7334L3.29429 19.2203" stroke="#B5BFC7" stroke-width="2.46533" stroke-linecap="round" stroke-linejoin="round"/>
<path opacity="0.4" d="M23.4731 52.034L22.8567 51.9477L18.3821 51.1834V48.4716" stroke="#B5BFC7" stroke-width="2.46533" stroke-linecap="round" stroke-linejoin="round"/>
<path d="M42.3575 14.5116L30.5239 21.3529V7.69493C28.2992 7.28512 26.0183 7.28512 23.7936 7.69493V21.3529L11.96 14.5239C10.5168 16.2611 9.38265 18.2333 8.60711 20.3544L20.3914 27.1711L8.57013 34C9.35941 36.129 10.5104 38.1056 11.9723 39.8429L23.8059 33.0139V46.6349C26.0307 47.0441 28.3115 47.0441 30.5363 46.6349V32.9893L42.3699 39.8429C43.8131 38.1057 44.9472 36.1335 45.7227 34.0124L33.9508 27.1711L45.772 20.3421C44.9777 18.2166 43.8226 16.2442 42.3575 14.5116Z" fill="white" stroke="#163150" stroke-width="2.46533" stroke-linecap="round" stroke-linejoin="round"/>
</svg>
