<svg width="42" height="40" viewBox="0 0 42 40" fill="none" xmlns="http://www.w3.org/2000/svg">
<path d="M38.8 35.25L34.94 26L24.6 1H16.6L12.53 10.83L5 29L1 38.72H9.3L12.47 32.33L12.6 32H28.6L29.6 34L31.78 38.67H40.28L38.8 35.25ZM20.53 9.56L25.22 21.75L26.08 24H14.98L19.24 12.93L20.53 9.56Z" fill="#1EB8E7"/>
<path d="M38.8 35.25L35.89 36.77L33.89 35.91L32.75 33L29.87 34.14L29.6 34L28.6 32H27.04L26.35 30.27L23.46 31.45L19.35 29.55C18.116 30.7122 16.6153 31.5535 14.98 32C14.1544 32.2161 13.3034 32.3204 12.45 32.31C9.62694 32.234 6.94863 31.0441 5 29L12.51 10.85C14.9155 10.8339 17.2668 11.5641 19.24 12.94L14.98 24H26.08L25.22 21.76L34.94 26L38.8 35.25Z" fill="#0087B9"/>
<path d="M38.8 35.25L34.94 26L24.6 1H16.6L12.53 10.83L5 29L1 38.72H9.3L12.47 32.33L12.6 32H28.6L29.6 34L31.78 38.67H40.28L38.8 35.25ZM20.53 9.56L25.22 21.75L26.08 24H14.98L19.24 12.93L20.53 9.56Z" stroke="#163150" stroke-width="2" stroke-linecap="round" stroke-linejoin="round"/>
<path d="M10.5171 8.23981L4.84082 21.3759L12.671 24.7594L18.3473 11.6234L10.5171 8.23981Z" fill="#1EB8E7"/>
<path d="M40.42 26.3401L23.85 17.2601C24.6 6.40005 9.20002 1.35005 3.60002 11.6101C-1.80998 21.4801 9.88002 32.1701 18.86 25.3401L22.77 27.6101L25.77 26.7001L26.64 29.7001L28.91 30.9501L31.91 30.0801L32.78 33.0801L34.6 34.0701L40.28 31.7301L40.42 26.3401ZM10.72 21.0001C5.17002 18.0001 9.72002 9.58005 15.31 12.6201L10.72 21.0001Z" fill="#FFD166" stroke="#163150" stroke-width="2" stroke-linecap="round" stroke-linejoin="round"/>
<path opacity="0.6" d="M22.3101 19.8199L36.7601 27.7399" stroke="white" stroke-miterlimit="10"/>
<path opacity="0.5" d="M17.0801 12.87L11.8701 22.39" stroke="white" stroke-miterlimit="10"/>
</svg>
