<?xml version="1.0" encoding="UTF-8"?>
<svg width="562px" height="871px" viewBox="0 0 562 871" version="1.1" xmlns="http://www.w3.org/2000/svg" xmlns:xlink="http://www.w3.org/1999/xlink">
    <!-- Generator: Sketch 48.2 (47327) - http://www.bohemiancoding.com/sketch -->
    <title>Artboard</title>
    <desc>Created with Sketch.</desc>
    <defs>
        <circle id="path-1" cx="145" cy="145" r="145"></circle>
        <path d="M188.615687,161.045517 C185.929442,161.041736 183.355675,162.120923 181.478984,164.037953 L162.523537,183.171407 C158.03819,187.712729 151.913997,190.269768 145.522728,190.269768 C139.13146,190.269768 133.007267,187.712729 128.52192,183.171407 L109.611929,163.992613 C107.735238,162.075583 105.161471,160.996396 102.475226,161.000177 C99.7732254,160.984112 97.1807508,162.064262 95.2930662,163.992613 C88.2356446,171.169186 88.2356446,182.659805 95.2930662,189.836378 L132.703937,227.649887 C136.049939,231.07182 140.639556,233.001047 145.431815,233 C150.224074,233.001047 154.813691,231.07182 158.159693,227.649887 L195.706934,189.836378 C202.764355,182.659805 202.764355,171.169186 195.706934,163.992613 C193.833714,162.103477 191.279553,161.041977 188.615687,161.045517 Z" id="path-2"></path>
        <path d="M199.198734,68.9506492 C196.053465,65.7728927 191.747134,63.9878569 187.255633,64.0000622 C182.567661,64.0072321 178.081125,65.8896726 174.81301,69.2206812 L145.114196,98.9692086 L115.960314,69.6707346 C112.766382,66.5642524 108.446065,64.8612958 103.971801,64.9451742 C99.2838295,64.9523441 94.7972931,66.8347847 91.5291786,70.1657933 L55.2003534,106.665121 C48.3739535,113.416382 48.2528346,124.339732 54.9278872,131.238035 C58.7088615,134.920655 64.7702224,134.920655 68.5511967,131.238035 L86.9880755,112.785847 C91.3822497,108.32355 97.4079546,105.808223 103.699335,105.81002 C109.776459,105.811085 115.599521,108.226493 119.865662,112.515815 L138.030075,130.517949 C139.396968,131.908941 141.181062,132.824593 143.11611,133.128259 C146.32361,133.745852 149.630204,132.73233 151.925851,130.427939 L170.362729,111.975751 C174.756904,107.513454 180.782609,104.998127 187.073989,104.999924 C193.151113,105.000989 198.974175,107.416396 203.240316,111.705719 L221.404729,129.707853 C223.139979,131.487308 225.537911,132.480233 228.034739,132.453179 C230.653838,132.44581 233.159053,131.391012 234.982627,129.527832 C241.707621,122.67834 241.66725,111.7554 234.891805,104.954918 L199.198734,68.9506492 Z" id="path-3"></path>
    </defs>
    <g id="Page-1" stroke="none" stroke-width="1" fill="none" fill-rule="evenodd">
        <g id="Artboard" fill-rule="nonzero">
            <g id="slide-01" transform="translate(20.000000, 20.000000)">
                <rect id="Rectangle-path" fill="#FFCE00" x="299.29" y="380.47" width="46.5" height="10.5"></rect>
                <path d="M482.94,406 L482.94,551.19 L482.08,551.19 C477.937864,551.19 474.58,554.547864 474.58,558.69 L474.58,561.52 L426.58,561.52 C425.532755,560.680259 424.574407,559.735314 423.72,558.7 C421.85,556.36 420.43,552.88 418.92,549.2 C416.51,543.32 413.79,536.66 408.08,532.1 C402.37,527.54 395.32,526.39 389.08,525.35 C385.14,524.69 381.42,524.07 378.69,522.76 C375.96,521.45 373.32,519 370.41,516.37 C365.66,512.08 360.28,507.21 353.05,505.57 C346.05,503.98 339.24,505.98 333.21,507.74 C329.32,508.88 325.64,509.96 322.51,509.96 C319.38,509.96 315.7,508.88 311.8,507.74 C305.8,505.98 298.94,503.98 291.97,505.57 C284.74,507.21 279.35,512.08 274.61,516.37 C271.7,519 268.95,521.49 266.33,522.76 C263.71,524.03 259.87,524.69 255.93,525.35 C249.68,526.35 242.6,527.57 236.93,532.1 C231.26,536.63 228.5,543.32 226.09,549.2 C224.59,552.88 223.16,556.36 221.29,558.71 C220.435074,559.741827 219.476743,560.683403 218.43,561.52 L170.43,561.52 L170.43,558.69 C170.43,554.547864 167.072136,551.19 162.93,551.19 L162.07,551.19 L162.07,406 L482.94,406 Z M464,531.38 C467.763656,529.758061 469.532032,525.418244 467.973814,521.627762 C466.415596,517.837281 462.106228,515.995946 458.29,517.49 L432.93,528 C429.662747,529.391431 427.819192,532.883571 428.513314,536.366273 C429.207436,539.848976 432.248949,542.367495 435.8,542.4 C436.784431,542.396432 437.75892,542.202893 438.67,541.83 L464,531.38 Z M429.37,485.63 C431.312873,483.770627 432.111526,481.013352 431.463199,478.403429 C430.814872,475.793507 428.81881,473.730463 426.2317,472.996376 C423.64459,472.262289 420.862465,472.969534 418.94,474.85 L418.76,475.03 L406,487.77 C403.070129,490.699871 403.070129,495.450129 406,498.38 C408.929871,501.309871 413.680129,501.309871 416.61,498.38 L429.37,485.63 Z M386.88,446.15 C388.473342,442.317144 386.657856,437.918342 382.825,436.325 C378.992144,434.731658 374.593342,436.547144 373,440.38 L362.52,465.7 C361.758611,467.53793 361.75863,469.603063 362.520052,471.440978 C363.281475,473.278894 364.741911,474.738997 366.58,475.5 C367.487892,475.871873 368.458911,476.065398 369.44,476.07 C372.476647,476.071687 375.21548,474.244483 376.38,471.44 L386.88,446.15 Z M330,455.5 L330,437.5 C330,433.357864 326.642136,430 322.5,430 C318.357864,430 315,433.357864 315,437.5 L315,455.5 C315,459.642136 318.357864,463 322.5,463 C326.642136,463 330,459.642136 330,455.5 Z M278.46,475.5 C282.279245,473.906863 284.093625,469.527325 282.52,465.7 L272.03,440.38 C271.004648,437.904149 268.736333,436.163388 266.079507,435.813444 C263.422681,435.463499 260.78098,436.557537 259.149507,438.683444 C257.518033,440.80935 257.144648,443.644149 258.17,446.12 L268.66,471.44 C269.818756,474.244706 272.555353,476.073053 275.59,476.07 C276.574431,476.066432 277.54892,475.872893 278.46,475.5 Z M239.01,498.38 C241.933388,495.455255 241.933388,490.714745 239.01,487.79 L226.28,475 C224.418646,473.072552 221.670403,472.284537 219.070508,472.932793 C216.470612,473.581049 214.41405,475.567089 213.675508,478.142793 C212.936966,480.718496 213.628646,483.492552 215.49,485.42 L215.67,485.6 L228.44,498.38 C229.846661,499.787563 231.755044,500.578399 233.745,500.578399 C235.734956,500.578399 237.643339,499.787563 239.05,498.38 L239.01,498.38 Z M216.17,537.78 C217.749562,533.952669 215.933447,529.568942 212.11,527.98 L186.79,517.49 C184.30879,516.464647 181.469039,516.840892 179.340453,518.477007 C177.211867,520.113121 176.117829,522.76054 176.470453,525.422007 C176.823077,528.083474 178.56879,530.354648 181.05,531.38 L206.37,541.87 C207.285069,542.222619 208.259468,542.39577 209.24,542.38 C212.280271,542.398884 215.031981,540.582834 216.21,537.78 L216.17,537.78 Z" id="Shape" fill="#8B572A"></path>
                <path d="M474.58,610.17 L474.58,720.38 C459.833831,731.264216 450.277632,747.790138 448.2,766 L196.88,766 C194.789076,747.808182 185.234242,731.302732 170.5,720.43 L170.5,610.17 L279.06,610.17 L279.06,653.28 C279.06,657.422136 282.417864,660.78 286.56,660.78 L358.56,660.78 C362.702136,660.78 366.06,657.422136 366.06,653.28 L366.06,610.17 L474.58,610.17 Z" id="Shape" fill="#8B572A"></path>
                <path d="M322.54,604 C326.631124,604.005521 329.943676,607.325532 329.939997,611.416658 C329.936318,615.507783 326.617798,618.82183 322.526671,618.819993 C318.435544,618.818155 315.120004,615.501127 315.12,611.41 C315.119998,609.443012 315.902065,607.556732 317.293873,606.1668 C318.685681,604.776868 320.573014,603.997345 322.54,604 Z" id="Shape" fill="#FFCE00"></path>
                <path d="M351,577 L351,645.82 L294.06,645.82 L294.06,577 L351,577 Z M345,611.38 C345.005522,598.997778 334.972224,588.955527 322.590001,588.950004 C310.207779,588.944482 300.165528,598.977779 300.160004,611.360001 C300.154481,623.742224 310.187778,633.784476 322.57,633.79 C334.947659,633.784495 344.983454,623.757649 345,611.38 Z" id="Shape" fill="#DFDFE3"></path>
                <path d="M155.5,566.19 L155.5,712.06 C150.147414,709.943024 144.539094,708.540944 138.82,707.89 L138.82,566.19 L155.5,566.19 Z" id="Shape" fill="#FFCE00"></path>
                <polygon id="Shape" fill="#FFCE00" points="279.06 576.52 279.06 595.17 170.5 595.17 170.5 576.52 172.53 576.52"></polygon>
                <rect id="Rectangle-path" fill="#FFCE00" x="366.01" y="576.52" width="108.57" height="18.65"></rect>
                <path d="M506.28,566.19 L506.28,707.89 C500.560468,708.538526 494.951835,709.940685 489.6,712.06 L489.6,566.19 L506.28,566.19 Z" id="Shape" fill="#FFCE00"></path>
                <path d="M506.28,723 L506.28,766 L463.28,766 C466.599783,743.77127 484.05127,726.319783 506.28,723 Z" id="Shape" fill="#FFCE00"></path>
                <path d="M181.76,766 L138.82,766 L138.82,723 C161.023862,726.346921 178.444086,743.791486 181.76,766 Z" id="Shape" fill="#FFCE00"></path>
                <path d="M408,561.52 L237.09,561.52 C238.17,559.33 239.09,557.09 240,554.88 C241.88,550.28 243.65,545.94 246.31,543.82 C248.97,541.7 253.54,540.96 258.42,540.15 C263.3,539.34 268.21,538.52 272.88,536.27 C277.55,534.02 281.13,530.72 284.7,527.5 C288.27,524.28 291.92,520.97 295.32,520.19 C298.49,519.47 302.93,520.77 307.62,522.14 C312.14,523.46 317.26,524.96 322.54,524.96 C327.82,524.96 332.94,523.46 337.46,522.14 C342.15,520.77 346.58,519.47 349.76,520.2 C353.16,520.97 356.66,524.14 360.37,527.5 C364.08,530.86 367.63,534.06 372.2,536.27 C376.77,538.48 381.84,539.34 386.65,540.15 C391.46,540.96 396.14,541.72 398.77,543.82 C401.4,545.92 403.2,550.28 405.07,554.82 C406,557.08 406.9,559.38 408,561.52 Z" id="Shape" fill="#FFA21A"></path>
                <path d="M521.28,558.69 L521.28,773.45 C521.28,777.592136 517.922136,780.95 513.78,780.95 L131.28,780.95 C127.137864,780.95 123.78,777.592136 123.78,773.45 L123.78,558.69 C123.78,554.547864 127.137864,551.19 131.28,551.19 L147.1,551.19 L147.1,398.47 C147.1,394.327864 150.457864,390.97 154.6,390.97 L284.28,390.97 L284.28,373 C284.28,368.857864 287.637864,365.5 291.78,365.5 L353.28,365.5 C357.422136,365.5 360.78,368.857864 360.78,373 L360.78,391 L490.44,391 C494.582136,391 497.94,394.357864 497.94,398.5 L497.94,551.19 L513.76,551.19 C515.749126,551.184689 517.658891,551.969776 519.069167,553.372549 C520.479442,554.775323 521.274703,556.680874 521.28,558.67 L521.28,558.69 Z M506.28,766 L506.28,723 C484.069948,726.31286 466.623869,743.734596 463.28,765.94 L506.28,766 Z M506.28,707.94 L506.28,566.19 L489.58,566.19 L489.58,712.06 C494.938207,709.938978 500.553677,708.536792 506.28,707.89 L506.28,707.94 Z M483,551.19 L483,406 L162.14,406 L162.14,551.19 L163,551.19 C167.142136,551.19 170.5,554.547864 170.5,558.69 L170.5,561.52 L218.5,561.52 C219.546743,560.683403 220.505074,559.741827 221.36,558.71 C223.23,556.36 224.66,552.88 226.16,549.2 C228.57,543.32 231.29,536.66 237,532.1 C242.71,527.54 249.76,526.39 256,525.35 C259.94,524.69 263.67,524.07 266.4,522.76 C269.13,521.45 271.77,519 274.68,516.37 C279.42,512.08 284.81,507.21 292.04,505.57 C299.04,503.98 305.84,505.98 311.87,507.74 C315.77,508.88 319.45,509.96 322.58,509.96 C325.71,509.96 329.39,508.88 333.28,507.74 C339.28,505.98 346.15,503.98 353.12,505.57 C360.35,507.21 365.73,512.08 370.48,516.37 C373.39,519 376.13,521.49 378.76,522.76 C381.39,524.03 385.21,524.69 389.15,525.35 C395.4,526.35 402.49,527.57 408.15,532.1 C413.81,536.63 416.58,543.32 418.99,549.2 C420.5,552.88 421.92,556.36 423.79,558.7 C424.644459,559.735267 425.602802,560.680207 426.65,561.52 L474.65,561.52 L474.65,558.69 C474.65,554.547864 478.007864,551.19 482.15,551.19 L483,551.19 Z M474.62,720.38 L474.62,610.17 L366,610.17 L366,653.28 C366,657.422136 362.642136,660.78 358.5,660.78 L286.56,660.78 C282.417864,660.78 279.06,657.422136 279.06,653.28 L279.06,610.17 L170.5,610.17 L170.5,720.38 C185.246169,731.264216 194.802368,747.790138 196.88,766 L448.2,766 C450.277632,747.790138 459.833831,731.264216 474.58,720.38 L474.62,720.38 Z M474.62,595.17 L474.62,576.52 L366,576.52 L366,595.17 L474.62,595.17 Z M237.09,561.52 L408,561.52 C406.92,559.33 406,557.08 405.09,554.87 C403.22,550.28 401.44,545.94 398.79,543.87 C396.14,541.8 391.55,541.01 386.67,540.2 C381.79,539.39 376.88,538.57 372.22,536.32 C367.56,534.07 363.96,530.77 360.39,527.55 C356.82,524.33 353.18,521.02 349.78,520.25 C346.6,519.52 342.17,520.82 337.48,522.19 C332.96,523.51 327.84,525.01 322.56,525.01 C317.28,525.01 312.16,523.51 307.64,522.19 C302.95,520.82 298.51,519.52 295.34,520.24 C291.94,521.02 288.43,524.19 284.72,527.55 C281.01,530.91 277.46,534.11 272.9,536.32 C268.34,538.53 263.25,539.39 258.44,540.2 C253.63,541.01 248.96,541.77 246.33,543.87 C243.7,545.97 241.9,550.33 240.02,554.93 C239.09,557.09 238.17,559.38 237.09,561.52 Z M351,645.78 L351,577 L294.06,577 L294.06,645.82 L351,645.78 Z M345.79,391 L345.79,380.5 L299.28,380.5 L299.28,391 L345.79,391 Z M279.06,595.2 L279.06,576.52 L170.5,576.52 L170.5,595.17 L279.06,595.2 Z M163,766 L181.76,766 C178.444086,743.791486 161.023862,726.346921 138.82,723 L138.82,766 L163,766 Z M155.5,712.11 L155.5,566.19 L138.82,566.19 L138.82,707.89 C144.539094,708.540944 150.147414,709.943024 155.5,712.06 L155.5,712.11 Z" id="Shape" fill="#000000"></path>
                <path d="M435.8,548.38 C429.334293,548.40937 423.755595,543.850198 422.496936,537.508116 C421.238276,531.166034 424.653106,524.821992 430.64,522.38 L456,511.89 C462.847639,509.274875 470.532449,512.588265 473.33166,519.362736 C476.130872,526.137207 473.026355,533.908747 466.33,536.89 L441,547.38 C439.348339,548.048825 437.58192,548.388521 435.8,548.38 Z" id="Shape" fill="#FFA21A"></path>
                <path d="M461.12,516.92 C464.729825,516.87817 467.857262,519.413969 468.56243,522.954495 C469.267597,526.495022 467.350385,530.035564 464,531.38 L438.68,541.87 C437.76892,542.242893 436.794431,542.436432 435.81,542.44 C432.219682,542.457501 429.120556,539.928055 428.418305,536.407042 C427.716053,532.886029 429.607677,529.361198 432.93,528 L458.28,517.48 C459.189038,517.099231 460.164439,516.902112 461.15,516.9 L461.12,516.92 Z M461.15,504.9 C458.585977,504.897886 456.046994,505.404323 453.68,506.39 L428.37,516.88 C418.903374,521.259797 414.566576,532.319192 418.532674,541.966456 C422.498771,551.61372 433.360167,556.42497 443.17,552.88 L468.49,542.39 C477.015462,538.784952 481.831747,529.68312 480.016895,520.606436 C478.202043,511.529753 470.256209,504.979663 461,504.93 L461.15,504.9 Z" id="Shape" fill="#000000"></path>
                <path d="M411.28,506.54 C405.843805,506.513661 400.952943,503.231565 398.868276,498.210901 C396.783609,493.190236 397.911276,487.409142 401.73,483.54 L414.46,470.8 C419.654238,465.451122 428.201122,465.325762 433.55,470.52 C438.898878,475.714238 439.024238,484.261122 433.83,489.61 L433.56,489.88 L420.87,502.58 C418.334152,505.133268 414.878513,506.560206 411.28,506.54 Z" id="Shape" fill="#FFA21A"></path>
                <path d="M424.06,472.8 C427.095812,472.798621 429.833046,474.627484 430.993666,477.432679 C432.154285,480.237875 431.509356,483.466072 429.36,485.61 L416.63,498.38 C413.702891,501.315393 408.950393,501.322109 406.015,498.395 C403.079607,495.467891 403.072891,490.715393 406,487.78 L418.75,475 C420.15409,473.584141 422.065978,472.788421 424.06,472.79 L424.06,472.8 Z M424.06,460.79 C418.890047,460.774879 413.928587,462.827152 410.28,466.49 L397.56,479.22 C390.108681,486.863166 390.187402,499.076833 397.736622,506.623316 C405.285842,514.169799 417.499537,514.24409 425.14,506.79 L437.87,494.05 C443.448158,488.47299 445.11705,480.08469 442.098328,472.797289 C439.079606,465.509889 431.967895,460.758853 424.08,460.76 L424.06,460.79 Z" id="Shape" fill="#000000"></path>
                <path d="M369.44,482.07 C364.935283,482.056126 360.733832,479.79791 358.236905,476.048506 C355.739979,472.299103 355.276108,467.551834 357,463.39 L367.49,438.08 C369.33349,433.61418 373.419432,430.471083 378.208691,429.834682 C382.99795,429.198282 387.762923,431.165263 390.708691,434.994682 C393.65446,438.824102 394.333491,443.93418 392.49,448.4 L382,473.73 C379.904715,478.810288 374.935265,482.110066 369.44,482.07 Z" id="Shape" fill="#FFA21A"></path>
                <path d="M379.93,435.75 C382.435685,435.753326 384.774656,437.006099 386.165951,439.09003 C387.557246,441.173961 387.817569,443.814502 386.86,446.13 L376.38,471.44 C375.21548,474.244483 372.476647,476.071687 369.44,476.07 C368.458911,476.065398 367.487892,475.871873 366.58,475.5 C364.741911,474.738997 363.281475,473.278894 362.520052,471.440978 C361.75863,469.603063 361.758611,467.53793 362.52,465.7 L373,440.38 C374.155633,437.571371 376.892915,435.738616 379.93,435.74 L379.93,435.75 Z M379.93,423.74 C372.037472,423.73106 364.923714,428.497278 361.93,435.8 L351.45,461.1 C349.470042,465.877864 349.469236,471.246585 351.447758,476.025043 C353.42628,480.803502 357.22205,484.600249 362,486.58 L362.1,486.58 C372.032759,490.639792 383.379174,485.911746 387.49,476 L398,450.67 C400.502268,444.651534 399.833801,437.78103 396.21831,432.357793 C392.602819,426.934556 386.517918,423.675008 380,423.67 L379.93,423.74 Z" id="Shape" fill="#000000"></path>
                <path d="M322.54,589 C334.914096,589.005523 344.941838,599.039235 344.939998,611.413332 C344.938157,623.787429 334.907429,633.818157 322.533332,633.819998 C310.159235,633.821838 300.125523,623.794096 300.12,611.42 C300.117346,605.473033 302.478594,599.768876 306.683735,595.563735 C310.888876,591.358594 316.593033,588.997346 322.54,589 Z M330,611.38 C330.005519,607.282053 326.687952,603.955535 322.590004,603.950013 C318.492057,603.944492 315.165538,607.262057 315.160013,611.360005 C315.154489,615.457952 318.472053,618.784473 322.57,618.79 C324.537907,618.792654 326.426268,618.01345 327.819663,616.623805 C329.213059,615.23416 329.99735,613.347907 330,611.38 Z" id="Shape" fill="#000000"></path>
                <path d="M322.54,469 C315.088723,468.988986 309.051014,462.951277 309.04,455.5 L309.04,437.5 C309.04,430.044156 315.084156,424 322.54,424 C329.995844,424 336.04,430.044156 336.04,437.5 L336.04,455.5 C336.028986,462.951277 329.991277,468.988986 322.54,469 Z" id="Shape" fill="#FFA21A"></path>
                <path d="M322.54,430 C326.682136,430 330.04,433.357864 330.04,437.5 L330.04,455.5 C330.04,459.642136 326.682136,463 322.54,463 C318.397864,463 315.04,459.642136 315.04,455.5 L315.04,437.5 C315.037346,435.513528 315.823925,433.607363 317.226697,432.200839 C318.62947,430.794316 320.533528,430.00265 322.52,430 L322.54,430 Z M322.52,418 C311.755017,418.011024 303.031024,426.735017 303.02,437.5 L303.02,455.5 C303.02,466.269553 311.750447,475 322.52,475 C333.289553,475 342.02,466.269553 342.02,455.5 L342.02,437.5 C342.009001,426.742811 333.297172,418.022038 322.54,418 L322.52,418 Z" id="Shape" fill="#000000"></path>
                <path d="M275.63,482.07 C270.158907,482.083993 265.22453,478.782547 263.15,473.72 L252.66,448.38 C250.695689,443.931592 251.275571,438.770498 254.178058,434.868906 C257.080545,430.967315 261.85707,428.928203 266.682395,429.530768 C271.50772,430.133334 275.636111,433.284453 277.49,437.78 L277.6,438.04 L288.1,463.38 C290.923751,470.261445 287.663042,478.131812 280.8,481 C279.162493,481.688984 277.406463,482.052417 275.63,482.07 Z" id="Shape" fill="#FFA21A"></path>
                <path d="M265.13,435.75 C268.165438,435.754031 270.899987,437.584956 272.06,440.39 L282.55,465.71 C284.123625,469.537325 282.309245,473.916863 278.49,475.51 C277.57892,475.882893 276.604431,476.076432 275.62,476.08 C272.585353,476.083053 269.848756,474.254706 268.69,471.45 L258.2,446.13 C257.242431,443.814502 257.502754,441.173961 258.894049,439.09003 C260.285344,437.006099 262.624315,435.753326 265.13,435.75 Z M265.13,423.75 C258.610113,423.75 252.521602,427.008472 248.905019,432.433346 C245.288437,437.85822 244.622351,444.731643 247.13,450.75 L257.62,476.06 C261.726908,485.970166 273.067264,490.702017 283,486.65 L283.12,486.65 C293.043326,482.506673 297.753756,471.123879 293.66,461.18 L283.17,435.85 C280.150954,428.576218 273.045432,423.839203 265.17,423.85 L265.13,423.75 Z" id="Shape" fill="#000000"></path>
                <path d="M233.75,506.54 C230.172782,506.546555 226.740096,505.128862 224.21,502.6 L211.46,489.84 C207.98396,486.480541 206.569515,481.518873 207.751608,476.831498 C208.933702,472.144124 212.531886,468.446574 217.185328,467.137262 C221.83877,465.827949 226.837119,467.106742 230.29,470.49 L230.56,470.76 L243.28,483.5 C247.107548,487.3644 248.242188,493.148328 246.158298,498.172381 C244.074408,503.196434 239.179051,506.479224 233.74,506.5 L233.75,506.54 Z" id="Shape" fill="#FFA21A"></path>
                <path d="M221,472.8 C222.992138,472.797994 224.903003,473.589689 226.31,475 L239.04,487.74 C241.978154,490.669871 241.98487,495.426845 239.055,498.365 C236.125129,501.303154 231.368155,501.30987 228.43,498.38 L215.7,485.64 C213.557797,483.495132 212.917418,480.271579 214.07713,477.470765 C215.236842,474.669951 217.968583,472.842666 221,472.84 L221,472.8 Z M221,460.84 C213.112105,460.838853 206.000394,465.589889 202.981672,472.877289 C199.96295,480.16469 201.631842,488.55299 207.21,494.13 L220,506.87 C227.516595,514.582657 239.862343,514.741595 247.575,507.225 C255.287657,499.708405 255.446595,487.362657 247.93,479.65 L247.58,479.3 L234.8,466.56 C231.148565,462.886768 226.179329,460.827056 221,460.84 Z" id="Shape" fill="#000000"></path>
                <path d="M209.28,548.38 C207.528134,548.379144 205.792958,548.039579 204.17,547.38 L178.8,536.87 C174.055739,535.266519 170.588925,531.168547 169.793805,526.224161 C168.998684,521.279776 171.005923,516.301506 175.00827,513.291459 C179.010617,510.281412 184.350353,509.734241 188.88,511.87 L189.14,511.98 L214.46,522.47 C220.450526,524.913327 223.865486,531.26308 222.601379,537.608021 C221.337271,543.952962 215.749522,548.509098 209.28,548.47 L209.28,548.38 Z" id="Shape" fill="#FFA21A"></path>
                <path d="M184,516.92 C184.985534,516.922375 185.960884,517.119484 186.87,517.5 L212.14,528 C215.392866,529.397869 217.225127,532.880121 216.534954,536.352705 C215.844782,539.825288 212.820183,542.342243 209.28,542.39 C208.298911,542.385398 207.327892,542.191873 206.42,541.82 L181.09,531.39 C177.748098,530.035207 175.843426,526.493881 176.55534,522.958778 C177.267253,519.423675 180.394198,516.895636 184,516.94 L184,516.92 Z M184,504.94 C174.691491,504.931311 166.674744,511.503056 164.857149,520.632392 C163.039555,529.761728 167.927975,538.902812 176.53,542.46 L201.82,553 C211.73702,556.906736 222.95342,552.126905 227.004191,542.267842 C231.054962,532.408779 226.439015,521.123947 216.64,516.93 L191.42,506.43 C189.053083,505.444068 186.514049,504.937621 183.95,504.94 L184,504.94 Z" id="Shape" fill="#000000"></path>
                <path d="M190.54,673.38 L254.54,673.38 C260.303008,673.20351 264.883389,668.480709 264.883389,662.715 C264.883389,656.949291 260.303008,652.22649 254.54,652.05 L190.54,652.05 C184.661984,651.888742 179.761448,656.513486 179.582339,662.390985 C179.403231,668.268485 184.013072,673.183043 189.89,673.38 L190.54,673.38 Z" id="Shape" fill="#4D3325" opacity="0.5"></path>
                <path d="M251.13,722.73 L315.13,722.73 C320.893008,722.55351 325.473389,717.830709 325.473389,712.065 C325.473389,706.299291 320.893008,701.57649 315.13,701.4 L251.13,701.4 C247.312401,701.272059 243.717628,703.194597 241.704596,706.440846 C239.691564,709.687096 239.567394,713.761789 241.379025,717.12459 C243.190656,720.48739 246.661694,722.625248 250.48,722.73 L251.13,722.73 Z" id="Shape" fill="#4D3325" opacity="0.5"></path>
                <path d="M385.69,692.49 L449.69,692.49 C455.568016,692.651258 460.468552,688.026514 460.647661,682.149015 C460.826769,676.271515 456.216928,671.356957 450.34,671.16 L385.69,671.16 C379.811984,670.998742 374.911448,675.623486 374.732339,681.500985 C374.553231,687.378485 379.163072,692.293043 385.04,692.49 L385.69,692.49 Z" id="Shape" fill="#4D3325" opacity="0.5"></path>
                <path d="M343,768.82 L407,768.82 C412.878016,768.981258 417.778552,764.356514 417.957661,758.479015 C418.136769,752.601515 413.526928,747.686957 407.65,747.49 L343,747.49 C337.121984,747.328742 332.221448,751.953486 332.042339,757.830985 C331.863231,763.708485 336.473072,768.623043 342.35,768.82 L343,768.82 Z" id="Shape" fill="#4D3325" opacity="0.5"></path>
                <path d="M170.59,628.91 L88.83,600.05 C87.7945948,599.684785 86.6654052,599.684785 85.63,600.05 L3.87,628.91 C1.94700174,629.59147 0.661337569,631.409823 0.66,633.45 L0.66,691.16 C0.66,765.84 11.73,793.16 85.06,830.16 C86.4209656,830.849591 88.0290344,830.849591 89.39,830.16 C162.72,793.16 173.79,765.89 173.79,691.16 L173.79,633.45 C173.790168,631.412412 172.509054,629.594832 170.59,628.91 Z" id="Shape" fill="#000000"></path>
                <path d="M87.23,612.92 L15,636.85 L12.92,691.16 C12.92,699.86 13.06,707.82 13.41,715.16 L87.22,715.16 L87.23,612.92 Z" id="Shape" fill="#81CC3B"></path>
                <path d="M163.68,715.2 C164.04,707.82 164.18,699.86 164.18,691.2 L162,636.89 L87.2,611.89 L87.2,715.2 L163.68,715.2 Z" id="Shape" fill="#7BBA38"></path>
                <path d="M87.23,713.05 L87.23,816.12 C146.8,785.75 161.08,766.32 163.68,713.05 L87.23,713.05 Z" id="Shape" fill="#81CC3B"></path>
                <path d="M12.94,713.05 C15.53,766.32 27.66,785.75 87.23,816.12 L87.23,713.05 L12.94,713.05 Z" id="Shape" fill="#7BBA38"></path>
                <path d="M87.23,799.62 C19.4,765 10.28,751.5 10.28,680 L10.28,689 C10.28,760.53 19.4,783.69 87.28,818.27 C155.11,783.69 164.28,760.54 164.28,689 L164.28,680 C164.18,751.5 155.06,765 87.23,799.62 Z" id="Shape" fill="#000000" opacity="0.1"></path>
                <path d="M58.38,686.38 C58.3782903,694.963096 62.206256,703.099357 68.82,708.57 L63.24,748.23 C63.0460994,749.60846 63.4588931,751.003322 64.3717441,752.054251 C65.2845951,753.105181 66.6079696,753.709101 68,753.71 L106.5,753.71 C107.89203,753.709101 109.215405,753.105181 110.128256,752.054251 C111.041107,751.003322 111.453901,749.60846 111.26,748.23 L105.68,708.57 C115.969651,700.010471 119.021001,685.497946 113.049604,673.51943 C107.078208,661.540913 93.6523753,655.242409 80.6236082,658.307319 C67.5948412,661.372228 58.3849789,672.995591 58.38,686.38 Z" id="Shape" fill="#000000"></path>
                <path d="M106.5,686.38 C106.485008,692.822204 103.245134,698.828923 97.87,702.38 C96.3291034,703.407071 95.5128639,705.226119 95.77,707.06 L100.97,744.06 L73.5,744.06 L78.7,707.06 C78.9571361,705.226119 78.1408966,703.407071 76.6,702.38 C68.9661217,697.2886 65.992977,687.512961 69.4994001,679.033371 C73.0058232,670.553781 82.0148168,665.732915 91.0150904,667.519958 C100.015364,669.307001 106.499165,677.204029 106.5,686.38 Z" id="Shape" fill="#DFDFE3"></path>
                <path d="M82.77,744.06 L87.55,710.06 C87.8071361,708.226119 86.9908966,706.407071 85.45,705.38 C78.3717357,700.699197 75.198423,691.93208 77.6408657,683.805198 C80.0833084,675.678315 87.5640273,670.113147 96.05,670.11 C96.64,670.11 97.2,670.23 97.78,670.28 C88.9158298,664.439589 76.9954116,666.89083 71.1550005,675.755 C65.3145894,684.61917 67.7658301,696.539589 76.63,702.38 C78.1708966,703.407071 78.9871361,705.226119 78.73,707.06 L73.53,744.06 L82.77,744.06 Z" id="Shape" fill="#000000" opacity="0.1"></path>
                <g id="mycrypto__circ__blue-on-navy__64" transform="translate(116.000000, 0.000000)">
                    <g id="Oval">
                        <use fill="#0E97C0" fill-rule="evenodd" xlink:href="#path-1"></use>
                        <circle stroke="#000000" stroke-width="10" cx="145" cy="145" r="140"></circle>
                    </g>
                    <g id="Shape">
                        <use fill="#FFFFFF" fill-rule="evenodd" xlink:href="#path-2"></use>
                        <path stroke="#000000" stroke-width="8" d="M188.615845,157.045514 C192.345919,157.042015 195.922703,158.529278 198.558938,161.18796 C207.147021,169.921038 207.147021,183.907953 198.545337,192.654794 L161.019673,230.446405 C156.920619,234.63848 151.299528,237.001283 145.43269,236.999999 C139.564101,237.001283 133.943011,234.63848 129.860411,230.463134 L92.4410624,192.64103 C83.8529792,183.907953 83.8529792,169.921038 92.43466,161.194486 C95.0808463,158.491293 98.7135322,156.97774 102.469597,157.000181 C106.233006,156.994884 109.839491,158.507091 112.460246,161.184216 L131.367831,180.360573 C135.101381,184.140716 140.200532,186.269768 145.522728,186.269768 C150.844925,186.269768 155.944075,184.140716 159.681922,180.356229 L178.620644,161.239759 C181.250148,158.553734 184.854412,157.04169 188.615845,157.045514 Z"></path>
                    </g>
                    <g id="Shape">
                        <use fill="#FFFFFF" fill-rule="evenodd" xlink:href="#path-3"></use>
                        <path stroke="#000000" stroke-width="8" d="M202.040474,66.1355972 L237.725444,102.131712 C246.04793,110.484953 246.097573,123.916573 237.841274,132.325713 C235.266991,134.955906 231.735561,136.442783 228.078079,136.452944 C224.489385,136.491829 221.04054,135.063746 218.589021,132.548943 L200.404236,114.526472 C196.889641,110.992779 192.087385,109.000803 187.072847,108.999923 C181.852016,108.998433 176.853916,111.084803 173.19233,114.803004 L154.75965,133.250984 C151.540339,136.482558 146.918005,137.910572 142.427343,137.068939 C139.6715,136.621548 137.130545,135.309495 135.214367,133.359039 L117.029582,115.336568 C113.514987,111.802875 108.712732,109.810899 103.698193,109.81002 C98.4773619,109.808529 93.4792623,111.894899 89.8176762,115.6131 L71.342109,134.103486 C66.0080011,139.298838 57.4710828,139.298838 52.1369749,134.103486 L52.0533278,134.019565 C43.8537978,125.545797 44.0027341,112.113679 52.3653122,103.843324 L88.6739243,67.3644502 C92.6937441,63.2672699 98.2071356,60.9539862 103.896827,60.945877 C109.437203,60.8420122 114.789016,62.9515583 118.795729,66.8493127 L145.118845,93.3029813 L171.957756,66.4193382 C175.977576,62.3221578 181.490967,60.0088741 187.244763,60.000077 C192.806086,59.9849645 198.140396,62.1958781 202.040474,66.1355972 Z"></path>
                    </g>
                </g>
            </g>
        </g>
    </g>
</svg>