<svg width="32" height="42" viewBox="0 0 32 42" fill="none" xmlns="http://www.w3.org/2000/svg">
<path d="M30 13.18V34.45C29.9961 35.146 29.8551 35.8345 29.5851 36.476C29.3151 37.1175 28.9214 37.6996 28.4265 38.1889C27.9315 38.6783 27.3451 39.0654 26.7005 39.3281C26.056 39.5908 25.366 39.724 24.67 39.72H7.33C6.63399 39.724 5.94402 39.5908 5.29948 39.3281C4.65494 39.0654 4.06846 38.6783 3.57352 38.1889C3.07858 37.6996 2.68488 37.1175 2.4149 36.476C2.14491 35.8345 2.00393 35.146 2 34.45V7.61003C2 6.19643 2.56155 4.84072 3.56112 3.84115C4.56069 2.84158 5.9164 2.28003 7.33 2.28003H19.07C20.9474 2.28822 22.7452 3.03969 24.07 4.37003L27.98 8.37003C29.2542 9.64904 29.9789 11.3748 30 13.18Z" fill="#E3EDFF"/>
<path d="M23.1001 2.29998L29.7701 9.20998C29.8142 9.25794 29.8436 9.31757 29.8548 9.38176C29.866 9.44596 29.8585 9.51202 29.8332 9.57207C29.8079 9.63213 29.7659 9.68365 29.7122 9.72051C29.6584 9.75737 29.5952 9.77801 29.5301 9.77998H24.7201C24.1313 9.77998 23.5666 9.54609 23.1503 9.12976C22.734 8.71342 22.5001 8.14876 22.5001 7.55998V2.55998C22.497 2.48917 22.5154 2.41907 22.553 2.35898C22.5906 2.29889 22.6456 2.25162 22.7106 2.22344C22.7756 2.19525 22.8477 2.18748 22.9172 2.20115C22.9868 2.21482 23.0506 2.24928 23.1001 2.29998Z" fill="#163150" stroke="#163150" stroke-width="2" stroke-linecap="round" stroke-linejoin="round"/>
<path d="M31 12.62V35.38C30.9961 36.1228 30.8457 36.8576 30.5575 37.5422C30.2693 38.2269 29.8489 38.8479 29.3204 39.3699C28.7919 39.8919 28.1657 40.3046 27.4775 40.5843C26.7894 40.864 26.0528 41.0053 25.31 41H6.69C5.94719 41.0053 5.21063 40.864 4.52247 40.5843C3.83432 40.3046 3.20807 39.8919 2.67957 39.3699C2.15107 38.8479 1.73069 38.2269 1.44249 37.5422C1.15429 36.8576 1.00393 36.1228 1 35.38V6.68C1 5.17357 1.59843 3.72884 2.66363 2.66363C3.72884 1.59843 5.17357 1 6.68 1H19.34C20.3362 1.00073 21.3225 1.19809 22.2423 1.58076C23.1621 1.96343 23.9973 2.52389 24.7 3.23L28.87 7.45C30.2297 8.82784 30.9945 10.6842 31 12.62V12.62Z" stroke="#163150" stroke-width="2" stroke-linecap="round" stroke-linejoin="round"/>
<path d="M5.00008 33.2699C5.24991 33.4458 5.54487 33.5464 5.85008 33.5599C6.26008 33.5599 6.38008 33.3899 6.38008 33.0099V28.3199H7.76008V33.0999C7.76008 34.0499 7.21008 34.7499 5.89008 34.7499C5.43758 34.7725 4.98676 34.6796 4.58008 34.4799L5.00008 33.2699Z" fill="#163150"/>
<path d="M12.47 33.0001C12.47 32.0001 9.56003 32.1401 9.56003 30.1501C9.57728 29.8798 9.64924 29.6159 9.77154 29.3742C9.89384 29.1326 10.0639 28.9183 10.2715 28.7444C10.4791 28.5705 10.7199 28.4406 10.9792 28.3624C11.2385 28.2843 11.5109 28.2597 11.78 28.2901C12.1322 28.2649 12.4856 28.3153 12.8167 28.4377C13.1478 28.5602 13.449 28.7519 13.7 29.0001L12.84 30.0001C12.7029 29.8166 12.5248 29.6677 12.3199 29.5652C12.1151 29.4628 11.8891 29.4097 11.66 29.4101C11.21 29.4101 10.96 29.6601 10.96 29.9801C10.96 30.9801 13.86 30.8401 13.86 32.8501C13.86 33.8001 13.08 34.7101 11.47 34.7101C10.6658 34.7483 9.87899 34.468 9.28003 33.9301L10.06 32.8001C10.4657 33.2521 11.0337 33.5253 11.64 33.5601C12.21 33.5601 12.47 33.2801 12.47 33.0001Z" fill="#163150"/>
<path d="M17.7299 34.72C16.1499 34.72 15.1599 33.87 15.1599 31.51C15.1599 29.15 16.2799 28.22 17.8099 28.22C19.3399 28.22 20.3899 29.08 20.3899 31.43C20.3899 33.78 19.2699 34.72 17.7299 34.72ZM17.8099 33.58C18.5299 33.58 18.9699 33.07 18.9699 31.51C18.9699 29.95 18.4899 29.38 17.7299 29.38C16.9699 29.38 16.5799 29.87 16.5799 31.43C16.5799 32.99 16.9999 33.58 17.8099 33.58Z" fill="#163150"/>
<path d="M23.3201 29.9999C23.392 30.7343 23.422 31.4722 23.4101 32.2099V34.5999H22.1001V28.3199H23.7501L25.0001 30.8099C25.3351 31.4383 25.6323 32.0861 25.8901 32.7499C25.8201 31.8699 25.8201 30.9899 25.8201 30.3299V28.3299H27.1301V34.6399H25.5801L24.2001 31.9999C23.8801 31.3508 23.5996 30.6829 23.3601 29.9999H23.3201Z" fill="#163150"/>
<path d="M17 24H15V14H17V24ZM17 11H15V13H17V11Z" fill="#1EB8E7"/>
<path d="M11.0001 24H10.5301C10.1978 24 9.86883 23.9346 9.56187 23.8074C9.25492 23.6803 8.97601 23.4939 8.74108 23.259C8.50615 23.024 8.31979 22.7451 8.19265 22.4382C8.0655 22.1312 8.00006 21.8022 8.00006 21.47V19.41L6.79006 18.2C6.60381 18.0126 6.49927 17.7592 6.49927 17.495C6.49927 17.2308 6.60381 16.9774 6.79006 16.79L8.00006 15.59V13.53C8.00006 13.1978 8.0655 12.8688 8.19265 12.5618C8.31979 12.2549 8.50615 11.976 8.74108 11.741C8.97601 11.5061 9.25492 11.3197 9.56187 11.1926C9.86883 11.0654 10.1978 11 10.5301 11H11.0001C11.2653 11 11.5196 11.1054 11.7072 11.2929C11.8947 11.4804 12.0001 11.7348 12.0001 12C12.0001 12.2652 11.8947 12.5196 11.7072 12.7071C11.5196 12.8946 11.2653 13 11.0001 13H10.5301C10.3895 13 10.2547 13.0558 10.1553 13.1552C10.0559 13.2546 10.0001 13.3894 10.0001 13.53V16C10.0008 16.1316 9.9756 16.2621 9.92583 16.3839C9.87607 16.5057 9.80274 16.6166 9.71006 16.71L8.92006 17.5L9.71006 18.29C9.80274 18.3834 9.87607 18.4943 9.92583 18.6161C9.9756 18.7379 10.0008 18.8684 10.0001 19V21.47C10.0001 21.5396 10.0138 21.6085 10.0404 21.6728C10.067 21.7371 10.1061 21.7956 10.1553 21.8448C10.2045 21.894 10.2629 21.933 10.3272 21.9597C10.3915 21.9863 10.4605 22 10.5301 22H11.0001C11.2653 22 11.5196 22.1054 11.7072 22.2929C11.8947 22.4804 12.0001 22.7348 12.0001 23C12.0001 23.2652 11.8947 23.5196 11.7072 23.7071C11.5196 23.8946 11.2653 24 11.0001 24Z" fill="#1EB8E7"/>
<path d="M21 24H20.5C20.2348 24 19.9804 23.8946 19.7929 23.7071C19.6054 23.5196 19.5 23.2652 19.5 23C19.5 22.7348 19.6054 22.4804 19.7929 22.2929C19.9804 22.1054 20.2348 22 20.5 22H21C21.0696 22 21.1385 21.9863 21.2028 21.9597C21.2671 21.933 21.3256 21.894 21.3748 21.8448C21.424 21.7956 21.463 21.7371 21.4897 21.6728C21.5163 21.6085 21.53 21.5396 21.53 21.47V19C21.5292 18.8684 21.5545 18.7379 21.6042 18.6161C21.654 18.4943 21.7273 18.3834 21.82 18.29L22.61 17.5L21.82 16.71C21.7219 16.6191 21.643 16.5094 21.588 16.3874C21.5331 16.2655 21.5031 16.1337 21.5 16V13.53C21.5002 13.3945 21.4485 13.264 21.3555 13.1655C21.2625 13.0669 21.1353 13.0077 21 13H20.5C20.2348 13 19.9804 12.8946 19.7929 12.7071C19.6054 12.5196 19.5 12.2652 19.5 12C19.5 11.7348 19.6054 11.4804 19.7929 11.2929C19.9804 11.1054 20.2348 11 20.5 11H21C21.3322 11 21.6612 11.0654 21.9682 11.1926C22.2751 11.3197 22.554 11.5061 22.789 11.741C23.0239 11.976 23.2103 12.2549 23.3374 12.5618C23.4646 12.8688 23.53 13.1978 23.53 13.53V15.58L24.74 16.79C24.9263 16.9774 25.0308 17.2308 25.0308 17.495C25.0308 17.7592 24.9263 18.0126 24.74 18.2L23.5 19.41V21.46C23.5027 22.1276 23.2414 22.7691 22.7731 23.2449C22.3049 23.7207 21.6675 23.9921 21 24Z" fill="#1EB8E7"/>
</svg>
