<svg width="44" height="40" viewBox="0 0 44 40" fill="none" xmlns="http://www.w3.org/2000/svg">
<path d="M43 32.9576V35.2776C43 37.8576 40.9 38.9576 38.32 38.9576H5.68C3.1 38.9576 1 37.8576 1 35.2776V32.9576H6V14.9576C6 13.8968 6.42143 12.8794 7.17157 12.1292C7.92172 11.3791 8.93913 10.9576 10 10.9576H36C37.0609 10.9576 38.0783 11.3791 38.8284 12.1292C39.5786 12.8794 40 13.8968 40 14.9576V32.9576H43Z" fill="#E3EDFF"/>
<path d="M40.0001 14.9576V32.9576H6.00006V14.9576C5.99679 14.3533 6.13733 13.7569 6.41006 13.2176C6.73635 12.5422 7.24599 11.9722 7.88078 11.5725C8.51558 11.1729 9.24995 10.9598 10.0001 10.9576H36.0001C37.0609 10.9576 38.0783 11.3791 38.8285 12.1292C39.5786 12.8794 40.0001 13.8968 40.0001 14.9576Z" fill="#CFDBEE"/>
<path d="M37.2899 32.9576H13.1099L7.99991 27.8076C7.43478 27.2511 7.04787 26.5391 6.88834 25.7622C6.72881 24.9852 6.80387 24.1784 7.10398 23.4442C7.40409 22.71 7.9157 22.0816 8.57379 21.6388C9.23188 21.1961 10.0067 20.959 10.7999 20.9576C11.0096 20.9428 11.2202 20.9428 11.4299 20.9576L19.7099 22.2676L17.2799 19.9576C16.8097 20.0261 16.3351 20.0595 15.8599 20.0576C13.2129 20.0571 10.674 19.007 8.79991 17.1376C7.70928 16.0541 6.89033 14.728 6.40991 13.2676C6.72908 12.5829 7.23565 12.0025 7.87099 11.5937C8.50632 11.1849 9.24444 10.9644 9.99991 10.9576H25.8199C25.8199 11.1176 25.8199 11.2776 25.8199 11.4276L33.8199 19.4276C37.6799 23.3376 38.9999 28.3776 37.2899 32.9576Z" fill="#BCC9DD"/>
<path d="M40 32.9576H6V14.9576C6 13.8968 6.42143 12.8794 7.17157 12.1292C7.92172 11.3791 8.93913 10.9576 10 10.9576H36C37.0609 10.9576 38.0783 11.3791 38.8284 12.1292C39.5786 12.8794 40 13.8968 40 14.9576V32.9576ZM43 35.2776V32.9576H1V35.2776C1 37.8576 3.1 38.9576 5.68 38.9576H38.32C40.9 38.9576 43 37.8576 43 35.2776Z" stroke="#163150" stroke-width="2" stroke-linecap="round" stroke-linejoin="round"/>
<path d="M30.9001 19.2177L21.2801 9.59769C21.893 8.32164 22.035 6.87 21.6809 5.49939C21.3269 4.12878 20.4996 2.9275 19.3454 2.10791C18.1912 1.28833 16.7844 0.903229 15.3737 1.0207C13.963 1.13818 12.6392 1.75066 11.6365 2.74987C10.6337 3.74907 10.0166 5.07064 9.89409 6.48093C9.77162 7.89121 10.1517 9.29938 10.9672 10.4565C11.7827 11.6136 12.9811 12.4451 14.3504 12.804C15.7198 13.1629 17.1719 13.026 18.4501 12.4177L28.0701 22.0477C33.2801 26.6877 27.4401 32.9677 22.2901 27.8177L21.4001 26.9577L24.2301 24.1377L10.8001 21.9577L19.4601 30.6277C28.0001 39.2177 39.6601 27.9577 30.9001 19.2177ZM17.2801 8.42769C16.9348 8.75832 16.4781 8.94744 16.0001 8.95769C15.5987 8.97871 15.2004 8.87833 14.8569 8.66962C14.5134 8.46091 14.2408 8.15355 14.0746 7.78763C13.9083 7.4217 13.8562 7.01418 13.925 6.6182C13.9937 6.22221 14.1802 5.85613 14.4601 5.56769C14.8348 5.19519 15.3417 4.9861 15.8701 4.9861C16.3985 4.9861 16.9054 5.19519 17.2801 5.56769C17.4818 5.76969 17.6379 6.01253 17.738 6.27988C17.838 6.54723 17.8796 6.8329 17.8601 7.11769C17.8352 7.61099 17.6286 8.07762 17.2801 8.42769Z" fill="#FFD166" stroke="#163150" stroke-width="2" stroke-linecap="round" stroke-linejoin="round"/>
<path d="M23.5201 28.8076L23.3601 28.6976" stroke="#163150" stroke-width="2" stroke-linecap="round" stroke-linejoin="round"/>
</svg>
