<svg id="Layer_2" data-name="Layer 2" xmlns="http://www.w3.org/2000/svg" viewBox="0 0 153.42 152.94">
    <title>FrameLogo4</title>
    <path d="M145.15,75.59v-58a9.29,9.29,0,0,0-9.3-9.28H77.65a2.24,2.24,0,0,1-1.56-.64l-7-7A2.24,2.24,0,0,0,67.48,0H9.31A9.29,9.29,0,0,0,0,9.27H0v58a2.16,2.16,0,0,0,.65,1.55l7,7a2.16,2.16,0,0,1,.65,1.55v58a9.29,9.29,0,0,0,9.3,9.28H75.8a2.24,2.24,0,0,1,1.56.64l7,7a2.24,2.24,0,0,0,1.56.64h58.19a9.29,9.29,0,0,0,9.31-9.27h0v-58a2.16,2.16,0,0,0-.65-1.55l-7-7A2.17,2.17,0,0,1,145.15,75.59Zm-32.3,38.55H40.65A1.68,1.68,0,0,1,39,112.47V40.53a1.68,1.68,0,0,1,1.67-1.67h72.18a1.68,1.68,0,0,1,1.67,1.67v71.94a1.68,1.68,0,0,1-1.67,1.67Z" transform="translate(0 0)"></path>
</svg>