<svg width="194" height="174" viewBox="0 0 103 73" fill="none" xmlns="http://www.w3.org/2000/svg">
<rect x="2.28076" y="2" width="99" height="69" rx="10" fill="#077493" stroke="#005268" stroke-width="3"/>
<mask id="mask0_19862_79284" style="mask-type:alpha" maskUnits="userSpaceOnUse" x="3" y="3" width="97" height="67">
<rect x="3.76221" y="3.51758" width="95.8661" height="65.9829" rx="8.5" fill="#1EB8E7"/>
</mask>
<g mask="url(#mask0_19862_79284)">
<path fill-rule="evenodd" clip-rule="evenodd" d="M-0.105561 33.4C-2.03856 33.4 -3.60556 34.967 -3.60556 36.9V54.8007C-4.20343 55.4286 -4.57043 56.2784 -4.57043 57.2138V75.3588C-4.57043 77.2918 -3.00343 78.8588 -1.07044 78.8588H17.3615C19.2945 78.8588 20.8615 77.2918 20.8615 75.3588V73.3045H33.9183C35.8513 73.3045 37.4183 71.7374 37.4183 69.8045V61.7439H47.396C49.329 61.7439 50.896 60.1769 50.896 58.2439V42.7509C50.896 40.8179 49.329 39.2509 47.396 39.2509H31.9032C29.9702 39.2509 28.4032 40.8179 28.4032 42.7509V48.2509H25.7799V36.9C25.7799 34.967 24.2129 33.4 22.2799 33.4H-0.105561ZM28.4032 51.2509H25.7799V61.3045C25.7799 63.2375 24.2129 64.8045 22.2799 64.8045H20.8615V70.3045H33.9183C34.1945 70.3045 34.4183 70.0806 34.4183 69.8045V61.7439H31.9032C29.9702 61.7439 28.4032 60.1769 28.4032 58.2439V51.2509ZM34.4183 58.7439H31.9032C31.6271 58.7439 31.4032 58.5201 31.4032 58.2439V51.2509H33.9183C34.1945 51.2509 34.4183 51.4748 34.4183 51.7509V58.7439ZM37.4183 58.7439V51.7509C37.4183 49.8179 35.8513 48.2509 33.9183 48.2509H31.4032V42.7509C31.4032 42.4748 31.6271 42.2509 31.9032 42.2509H47.396C47.6722 42.2509 47.896 42.4748 47.896 42.7509V58.2439C47.896 58.5201 47.6722 58.7439 47.396 58.7439H37.4183ZM22.7799 36.9V48.2509H14.91C12.977 48.2509 11.41 49.8179 11.41 51.7509V53.7138H-0.605561V36.9C-0.605561 36.6239 -0.381701 36.4 -0.105561 36.4H22.2799C22.556 36.4 22.7799 36.6239 22.7799 36.9ZM14.41 51.7509V53.7138H17.3615C19.2945 53.7138 20.8615 55.2808 20.8615 57.2138V61.8045H22.2799C22.556 61.8045 22.7799 61.5807 22.7799 61.3045V51.2509H14.91C14.6339 51.2509 14.41 51.4748 14.41 51.7509ZM-0.605561 56.7138H11.41V61.8045H-0.105559C-0.381703 61.8045 -0.605561 61.5807 -0.605561 61.3045V56.7138ZM14.41 56.7138V61.8045H17.8615V57.2138C17.8615 56.9377 17.6377 56.7138 17.3615 56.7138H14.41ZM17.8615 64.8045H14.41V69.8045C14.41 70.0806 14.6339 70.3045 14.91 70.3045H17.8615V64.8045ZM11.41 69.8045V64.8045H-0.105559C-0.628576 64.8045 -1.1248 64.6898 -1.57044 64.4842V75.3588C-1.57044 75.6349 -1.34658 75.8588 -1.07044 75.8588H17.3615C17.6377 75.8588 17.8615 75.6349 17.8615 75.3588V73.3045H14.91C12.977 73.3045 11.41 71.7374 11.41 69.8045Z" fill="#1EB8E7"/>
</g>
<rect x="11.2808" y="29.751" width="21" height="20" rx="4" fill="#FFD166"/>
<path fill-rule="evenodd" clip-rule="evenodd" d="M11.2808 35.751H17.2808V38.751H11.2808V40.751H17.2808V43.751H11.2808V45.751H17.4515C17.8633 46.9162 18.9745 47.751 20.2808 47.751H23.2808C24.587 47.751 25.6982 46.9162 26.1101 45.751H32.2808V43.751H26.2808V40.751H32.2808V38.751H26.2808V35.751H32.2808V33.751H26.1101C25.6982 32.5858 24.587 31.751 23.2808 31.751H20.2808C18.9745 31.751 17.8633 32.5858 17.4515 33.751H11.2808V35.751ZM20.2808 33.751C19.7285 33.751 19.2808 34.1987 19.2808 34.751V44.751C19.2808 45.3033 19.7285 45.751 20.2808 45.751H23.2808C23.833 45.751 24.2808 45.3033 24.2808 44.751V34.751C24.2808 34.1987 23.833 33.751 23.2808 33.751H20.2808Z" fill="#F8A248"/>
<path d="M48.2872 8.31445H51.2868V10.5415H53.5139V13.5412H51.2868V15.7688H48.2872V13.5412H46.0596V10.5415H48.2872V8.31445Z" fill="white"/>
<path fill-rule="evenodd" clip-rule="evenodd" d="M23.355 10.4805H27.8432C29.2814 10.4805 30.5251 10.9358 31.4144 11.7572C32.3067 12.5814 32.8075 13.7429 32.8075 15.0801C32.8075 16.8643 31.7699 18.0335 30.9502 18.606L33.6207 22.5659H29.7554L27.7383 19.5401H26.6163V22.5659H23.355V10.4805ZM28.0529 13.5727H26.6163V16.4471H28.0529C28.8737 16.4471 29.4264 15.8131 29.4264 15.0099C29.4264 14.2066 28.8737 13.5727 28.0529 13.5727Z" fill="white"/>
<path d="M37.9631 10.4805H34.7012V22.5659H37.9631V10.4805Z" fill="white"/>
<path d="M16.108 13.8212C17.2964 13.3893 18.6649 13.7479 19.4887 14.7072L21.8405 12.6876C20.1855 10.7605 17.4366 10.04 15.0492 10.9077C12.6618 11.7753 11.0168 14.0926 10.9853 16.6326C10.9698 17.8867 11.3367 19.1158 12.037 20.1563C13.4556 22.2634 16.1015 23.3001 18.574 22.7172C19.7947 22.4294 20.8989 21.7766 21.7394 20.8456L21.7339 16.2044H18.4331V19.5046C17.6884 19.8445 16.8066 19.8718 16.0367 19.5702C14.8594 19.1089 14.0694 17.9354 14.0851 16.6711C14.1008 15.4067 14.9196 14.2531 16.108 13.8212Z" fill="white"/>
<path d="M44.6644 10.5469V13.5307H43.3304V19.638H45.2256C46.7099 19.638 47.9472 18.6258 48.2222 17.2299H51.2555C50.9332 20.261 48.3685 22.6219 45.2521 22.6219H40.2475V10.5469H44.6644Z" fill="white"/>
<path d="M83.022 59.2852H92.7074V62.2905H83.022V59.2852Z" fill="#1EB8E7"/>
<path d="M71.2925 59.2852H80.9779V62.2905H71.2925V59.2852Z" fill="#1EB8E7"/>
</svg>
