<svg id="Layer_1" data-name="Layer 1" xmlns="http://www.w3.org/2000/svg" viewBox="0 0 259.8 241"><title>logo-metamask</title><polygon points="246.5 0.5 145.4 75.5 164.2 31.3 246.5 0.5" style="fill:#e17726;stroke:#e17726;stroke-linecap:round;stroke-linejoin:round"/><polygon points="13.3 0.5 113.5 76.2 95.6 31.3 13.3 0.5" style="fill:#e27625;stroke:#e27625;stroke-linecap:round;stroke-linejoin:round"/><polygon points="210.1 174.4 183.2 215.6 240.8 231.5 257.3 175.3 210.1 174.4" style="fill:#e27625;stroke:#e27625;stroke-linecap:round;stroke-linejoin:round"/><polygon points="2.6 175.3 19 231.5 76.5 215.6 49.7 174.4 2.6 175.3" style="fill:#e27625;stroke:#e27625;stroke-linecap:round;stroke-linejoin:round"/><polygon points="73.4 104.8 57.4 129 114.4 131.6 112.5 70.1 73.4 104.8" style="fill:#e27625;stroke:#e27625;stroke-linecap:round;stroke-linejoin:round"/><polygon points="186.4 104.8 146.7 69.4 145.4 131.6 202.4 129 186.4 104.8" style="fill:#e27625;stroke:#e27625;stroke-linecap:round;stroke-linejoin:round"/><polygon points="76.5 215.6 111 198.9 81.3 175.7 76.5 215.6" style="fill:#e27625;stroke:#e27625;stroke-linecap:round;stroke-linejoin:round"/><polygon points="148.8 198.9 183.2 215.6 178.5 175.7 148.8 198.9" style="fill:#e27625;stroke:#e27625;stroke-linecap:round;stroke-linejoin:round"/><polygon points="183.2 215.6 148.8 198.9 151.6 221.3 151.3 230.8 183.2 215.6" style="fill:#d5bfb2;stroke:#d5bfb2;stroke-linecap:round;stroke-linejoin:round"/><polygon points="76.5 215.6 108.5 230.8 108.3 221.3 111 198.9 76.5 215.6" style="fill:#d5bfb2;stroke:#d5bfb2;stroke-linecap:round;stroke-linejoin:round"/><polygon points="109.1 160.9 80.5 152.5 100.7 143.2 109.1 160.9" style="fill:#233447;stroke:#233447;stroke-linecap:round;stroke-linejoin:round"/><polygon points="150.7 160.9 159.1 143.2 179.4 152.5 150.7 160.9" style="fill:#233447;stroke:#233447;stroke-linecap:round;stroke-linejoin:round"/><polygon points="76.5 215.6 81.5 174.4 49.7 175.3 76.5 215.6" style="fill:#cc6228;stroke:#cc6228;stroke-linecap:round;stroke-linejoin:round"/><polygon points="178.3 174.4 183.2 215.6 210.1 175.3 178.3 174.4" style="fill:#cc6228;stroke:#cc6228;stroke-linecap:round;stroke-linejoin:round"/><polygon points="202.4 129 145.4 131.6 150.7 160.9 159.1 143.2 179.4 152.5 202.4 129" style="fill:#cc6228;stroke:#cc6228;stroke-linecap:round;stroke-linejoin:round"/><polygon points="80.5 152.5 100.7 143.2 109.1 160.9 114.4 131.6 57.4 129 80.5 152.5" style="fill:#cc6228;stroke:#cc6228;stroke-linecap:round;stroke-linejoin:round"/><polygon points="57.4 129 81.3 175.7 80.5 152.5 57.4 129" style="fill:#e27525;stroke:#e27525;stroke-linecap:round;stroke-linejoin:round"/><polygon points="179.4 152.5 178.5 175.7 202.4 129 179.4 152.5" style="fill:#e27525;stroke:#e27525;stroke-linecap:round;stroke-linejoin:round"/><polygon points="114.4 131.6 109.1 160.9 115.8 195.5 117.3 149.9 114.4 131.6" style="fill:#e27525;stroke:#e27525;stroke-linecap:round;stroke-linejoin:round"/><polygon points="145.4 131.6 142.6 149.8 144 195.5 150.7 160.9 145.4 131.6" style="fill:#e27525;stroke:#e27525;stroke-linecap:round;stroke-linejoin:round"/><polygon points="150.7 160.9 144 195.5 148.8 198.9 178.5 175.7 179.4 152.5 150.7 160.9" style="fill:#f5841f;stroke:#f5841f;stroke-linecap:round;stroke-linejoin:round"/><polygon points="80.5 152.5 81.3 175.7 111 198.9 115.8 195.5 109.1 160.9 80.5 152.5" style="fill:#f5841f;stroke:#f5841f;stroke-linecap:round;stroke-linejoin:round"/><polygon points="151.3 230.8 151.6 221.3 149 219.1 110.8 219.1 108.3 221.3 108.5 230.8 76.5 215.6 87.7 224.8 110.4 240.5 149.3 240.5 172.1 224.8 183.2 215.6 151.3 230.8" style="fill:#c0ac9d;stroke:#c0ac9d;stroke-linecap:round;stroke-linejoin:round"/><polygon points="148.8 198.9 144 195.5 115.8 195.5 111 198.9 108.3 221.3 110.8 219.1 149 219.1 151.6 221.3 148.8 198.9" style="fill:#161616;stroke:#161616;stroke-linecap:round;stroke-linejoin:round"/><polygon points="250.8 80.4 259.3 39 246.5 0.5 148.8 73 186.4 104.8 239.5 120.3 251.2 106.6 246.1 102.9 254.2 95.5 248 90.7 256.1 84.5 250.8 80.4" style="fill:#763e1a;stroke:#763e1a;stroke-linecap:round;stroke-linejoin:round"/><polygon points="0.5 39 9.1 80.4 3.6 84.5 11.8 90.7 5.6 95.5 13.7 102.9 8.6 106.6 20.3 120.3 73.4 104.8 111 73 13.3 0.5 0.5 39" style="fill:#763e1a;stroke:#763e1a;stroke-linecap:round;stroke-linejoin:round"/><polygon points="239.5 120.3 186.4 104.8 202.4 129 178.5 175.7 210.1 175.3 257.3 175.3 239.5 120.3" style="fill:#f5841f;stroke:#f5841f;stroke-linecap:round;stroke-linejoin:round"/><polygon points="73.4 104.8 20.3 120.3 2.6 175.3 49.7 175.3 81.3 175.7 57.4 129 73.4 104.8" style="fill:#f5841f;stroke:#f5841f;stroke-linecap:round;stroke-linejoin:round"/><polygon points="145.4 131.6 148.8 73 164.2 31.3 95.6 31.3 111 73 114.4 131.6 115.7 150 115.8 195.5 144 195.5 144.1 150 145.4 131.6" style="fill:#f5841f;stroke:#f5841f;stroke-linecap:round;stroke-linejoin:round"/></svg>