<svg width="170" height="170" viewBox="0 0 170 170" fill="none" xmlns="http://www.w3.org/2000/svg">
<circle cx="85" cy="85" r="85" fill="#22699D"/>
<path d="M78.5575 81.2546L61.1328 63.8299C60.9577 63.6548 60.8594 63.4173 60.8594 63.1697V48.6273C60.8594 48.0082 61.1053 47.4145 61.543 46.9768L86.468 22.0518C86.8327 21.6872 87.4238 21.6872 87.7884 22.0518L107.55 41.8138C107.915 42.1784 107.915 42.7696 107.55 43.1342L87.7884 62.8962C87.4238 63.2608 87.4238 63.852 87.7884 64.2166L92.8301 69.2582C93.1947 69.6229 93.7859 69.6229 94.1505 69.2582L107.414 55.995C107.708 55.701 108.211 55.9092 108.211 56.3251V106.359C108.211 106.978 107.965 107.572 107.527 108.009L91.9541 123.582C91.779 123.757 91.6806 123.995 91.6806 124.242V135.263C91.6806 135.758 91.4839 136.233 91.1337 136.583L78.6221 149.095C78.181 149.536 77.4267 149.223 77.4267 148.6V118.421C77.4267 118.174 77.3283 117.936 77.1532 117.761L61.543 102.151C61.1053 101.713 60.8594 101.12 60.8594 100.501V77.5196C60.8594 77.1037 61.3622 76.8954 61.6563 77.1895L72.1395 87.6726C72.5041 88.0372 73.0952 88.0372 73.4599 87.6726L78.5575 82.575C78.9221 82.2104 78.9221 81.6192 78.5575 81.2546Z" fill="white"/>
</svg>
