<?xml version="1.0" encoding="UTF-8"?>
<svg width="160px" height="184px" viewBox="0 0 160 184" version="1.1" xmlns="http://www.w3.org/2000/svg" xmlns:xlink="http://www.w3.org/1999/xlink">
    <!-- Generator: Sketch 50.2 (55047) - http://www.bohemiancoding.com/sketch -->
    <title>trust</title>
    <desc>Created with Sketch.</desc>
    <defs></defs>
    <g id="Page-1" stroke="none" stroke-width="1" fill="none" fill-rule="evenodd">
        <g id="trust" fill="#000000" fill-rule="nonzero">
            <g id="logo" transform="translate(0.000000, 0.000000)">
                <g id="path1_stroke-link" transform="translate(0.600000, 0.300000)">
                    <path d="M79.4,6.99999924 L83.6355,1.53305 C81.1422,-0.39862 77.6578,-0.39862 75.1645,1.53305 L79.4,6.99999924 Z M151.9,28.3 L158.815,28.4125 C158.845,26.5591 158.13,24.7711 156.83,23.4498 C155.53,22.1284 153.754,21.3843 151.9,21.3843 L151.9,28.3 Z M79.4,176.4 L75.5687,182.157 C77.8895,183.702 80.9105,183.702 83.2312,182.157 L79.4,176.4 Z M6.9999939,28.3 L6.9999939,21.3843 C5.14634,21.3843 3.37028,22.1284 2.07025,23.4498 C0.77022,24.7711 0.05506,26.5591 0.08521,28.4125 L6.9999939,28.3 Z M75.1645,12.46695 C106.5498,36.7826 142.462,35.2157 151.9,35.2157 L151.9,21.3843 C142.138,21.3843 110.85,22.6174 83.6355,1.53305 L75.1645,12.46695 Z M144.985,28.1875 C144.464,60.3107 143.105,82.9691 140.501,99.7573 C137.933,116.367 134.26,126.322 129.533,133.314 C124.743,140.578 118.735,144.889 109.832,150.208 C100.8513,155.587 89.5074,161.381 75.5687,170.643 L83.2312,182.157 C96.4925,173.319 107.549,167.688 116.934,162.076 C126.396,156.405 134.719,150.159 140.992,141.061 C147.327,131.69 151.448,119.476 154.17,101.8708 C156.858,84.4434 158.286,60.8393 158.815,28.4125 L144.985,28.1875 Z M83.2312,170.643 C69.2932,161.381 57.9569,155.588 48.9867,150.21 C40.0938,144.892 34.0986,140.583 29.3207,133.32 C24.6045,126.329 20.9431,116.373 18.3835,99.7609 C15.78909,82.9718 14.43568,60.3117 13.91478,28.1875 L0.08521,28.4125 C0.61431,60.8383 2.0359,84.4407 4.71339,101.8672 C7.425651,119.47 11.53294,131.684 17.8543,141.055 C24.1139,150.154 32.4249,156.402 41.8789,162.075 C51.2555,167.687 62.3068,173.319 75.5687,182.157 L83.2312,170.643 Z M6.9999939,35.2157 C16.34002,35.2157 52.2509,36.782 83.6355,12.46695 L75.1645,1.53305 C47.9491,22.618 16.65997,21.3843 6.9999939,21.3843 L6.9999939,35.2157 Z" id="path1_stroke"></path>
                </g>
            </g>
        </g>
    </g>
</svg>