<svg xmlns="http://www.w3.org/2000/svg" width="78" height="64" viewBox="0 0 78 64">
    <g fill="none" fill-rule="evenodd">
        <rect width="75" height="61" x="1.5" y="1.5" fill="#CBD1D6" stroke="#163150" stroke-width="3" rx="2"/>
        <g fill="#163150" transform="translate(6 6)">
            <circle cx="1.5" cy="1.5" r="1.5"/>
            <circle cx="6.5" cy="1.5" r="1.5"/>
            <circle cx="11.5" cy="1.5" r="1.5"/>
        </g>
        <path fill="#9AA7B1" d="M70 3h5v58H44z"/>
        <path stroke="#163150" stroke-linecap="square" stroke-width="3" d="M3 13.5h73.5"/>
        <path fill="#163150" d="M23.04 21.798c1.4 0 2.663.2 3.79.599 1.128.399 2.09.951 2.888 1.659a7.267 7.267 0 0 1 1.837 2.488c.428.952.641 1.981.641 3.087 0 .966-.108 1.816-.325 2.551a5.938 5.938 0 0 1-.945 1.922 5.728 5.728 0 0 1-1.512 1.386 9.17 9.17 0 0 1-2.027.945c1.82.574 3.178 1.449 4.074 2.625.896 1.176 1.344 2.653 1.344 4.431 0 1.512-.28 2.849-.84 4.011a8.618 8.618 0 0 1-2.268 2.93 9.883 9.883 0 0 1-3.307 1.795c-1.254.406-2.58.609-3.98.609-1.526 0-2.856-.175-3.99-.525-1.134-.35-2.121-.868-2.961-1.554a9.385 9.385 0 0 1-2.142-2.52c-.588-.994-1.092-2.142-1.512-3.444l2.289-.945a3.013 3.013 0 0 1 1.197-.252c.364 0 .69.077.976.231.288.154.508.378.662.672.252.49.528.973.83 1.449.3.476.661.9 1.081 1.27.42.372.913.672 1.48.903.568.232 1.243.347 2.027.347.882 0 1.652-.143 2.31-.43a5.017 5.017 0 0 0 1.648-1.124c.442-.462.77-.976.988-1.544a4.756 4.756 0 0 0 .325-1.711 7.92 7.92 0 0 0-.231-1.984 2.941 2.941 0 0 0-.966-1.523c-.49-.42-1.193-.749-2.11-.987-.918-.238-2.146-.357-3.686-.357v-3.696c1.274-.014 2.331-.133 3.171-.357.84-.224 1.508-.535 2.006-.934a3.166 3.166 0 0 0 1.039-1.439c.196-.56.294-1.176.294-1.848 0-1.442-.392-2.53-1.176-3.265-.784-.736-1.855-1.103-3.213-1.103-1.232 0-2.254.325-3.066.976a5.106 5.106 0 0 0-1.701 2.51c-.168.532-.399.913-.693 1.145-.294.23-.679.346-1.155.346-.224 0-.462-.021-.714-.063l-2.73-.483c.21-1.456.616-2.733 1.218-3.832.602-1.1 1.354-2.016 2.258-2.752a9.35 9.35 0 0 1 3.107-1.659c1.17-.37 2.426-.556 3.77-.556zm12.768 27.846c0-.434.08-.847.242-1.239a2.96 2.96 0 0 1 .672-1.008c.287-.28.626-.504 1.018-.672a3.165 3.165 0 0 1 1.26-.252c.434 0 .847.084 1.239.252.392.168.728.392 1.008.672s.504.616.672 1.008c.168.392.252.805.252 1.239 0 .448-.084.864-.252 1.25a3.04 3.04 0 0 1-1.68 1.659 3.23 3.23 0 0 1-1.239.241c-.448 0-.868-.08-1.26-.241a3.16 3.16 0 0 1-1.019-.662 2.986 2.986 0 0 1-.671-.997 3.206 3.206 0 0 1-.242-1.25zm31.227-12.327c0 2.646-.283 4.945-.85 6.898-.568 1.954-1.351 3.567-2.352 4.841-1.002 1.274-2.184 2.222-3.55 2.846-1.365.623-2.838.934-4.42.934-1.582 0-3.048-.311-4.4-.934-1.35-.624-2.523-1.572-3.517-2.846-.994-1.274-1.771-2.887-2.331-4.84-.56-1.954-.84-4.253-.84-6.899 0-2.66.28-4.963.84-6.909.56-1.946 1.337-3.556 2.331-4.83s2.166-2.222 3.518-2.845c1.35-.624 2.817-.935 4.399-.935 1.582 0 3.055.311 4.42.935 1.366.623 2.548 1.571 3.55 2.845 1 1.274 1.784 2.884 2.352 4.83.567 1.946.85 4.249.85 6.909zm-5.355 0c0-2.198-.161-4.018-.483-5.46-.322-1.442-.752-2.59-1.291-3.444-.54-.854-1.159-1.452-1.859-1.796a4.905 4.905 0 0 0-2.184-.514c-.742 0-1.46.171-2.152.514-.694.344-1.306.942-1.838 1.796-.532.854-.955 2.002-1.27 3.444-.316 1.442-.473 3.262-.473 5.46s.157 4.018.472 5.46c.316 1.442.739 2.59 1.271 3.444.532.854 1.144 1.452 1.838 1.796.693.343 1.41.514 2.152.514.756 0 1.484-.171 2.184-.514.7-.344 1.32-.942 1.859-1.796.539-.854.969-2.002 1.291-3.444.322-1.442.483-3.262.483-5.46z"/>
    </g>
</svg>
