<svg width="24" height="24" viewBox="0 0 24 24" fill="none" xmlns="http://www.w3.org/2000/svg">
<path d="M9.55444 5.43016H4.65986L5.9129 3.86392H10.8077L9.55444 5.43016ZM18.3685 5.3128C19.7353 4.546 20.222 2.81679 19.4552 1.44999C18.6886 0.0829443 16.9589 -0.403537 15.5919 0.363505C14.2249 1.13055 13.7381 2.85999 14.5054 4.2268C15.272 5.59337 17.0017 6.07961 18.3685 5.3128ZM1.25304 10.325L0 11.891H4.89482L6.14786 10.3247H1.25304V10.325ZM8.26227 7.09433H3.36745L2.11441 8.66058H7.00923L8.26227 7.09433ZM22.9849 10.7625L19.6578 10.6262L17.3117 6.46913L15.6699 5.53289C15.3898 5.38696 14.4188 4.82488 13.4573 5.58929L7.31331 10.6977C6.85395 11.1223 6.5657 11.7698 7.17243 12.4672C7.59459 12.94 8.32443 12.8954 8.77035 12.552L12.8897 8.84682L12.3564 12.216L9.86356 16.7644L6.21194 18.7164C5.10506 19.5199 5.55098 20.4285 5.73194 20.6803C6.0029 21.059 6.76011 21.6014 7.64355 21.0537L12.2408 18.2705L13.9832 15.0585L17.0593 17.5416L16.88 22.6171C16.903 23.3998 17.6012 23.8762 18.212 23.881C19.0078 23.8613 19.509 23.3597 19.5822 22.4974L19.7242 18.2349C19.7458 17.4319 19.9093 16.445 19.3148 15.9285L16.2154 13.1635L16.777 10.3226L18.6286 12.8875L22.7245 13.0816C23.5818 13.1133 23.9643 12.4824 23.9953 11.9577C24.0577 11.3303 23.4879 10.8321 22.9849 10.7625Z" fill="white"/>
</svg>
