<svg width="60" height="60" viewBox="0 0 60 60" fill="none" xmlns="http://www.w3.org/2000/svg">
<path opacity="0.4" d="M44.5726 11.0744C44.8646 11.5088 45.1378 11.9552 45.3914 12.412M35.5984 4.0586C36.7268 4.46831 37.7916 4.97809 38.7862 5.57438L35.5984 4.0586ZM15.5 9.26446C19.1175 5.1536 24.4461 2.83013 30 3.0097L15.5 9.26446Z" stroke="#B5BFC7" stroke-width="2" stroke-miterlimit="10" stroke-linecap="round" stroke-linejoin="round"/>
<path opacity="0.4" d="M4.83109 22.6183C4.80833 21.5533 4.85159 20.492 4.9586 19.4404M52.7872 7.40226C51.8548 6.0316 50.806 4.77039 49.6604 3.62598L52.7872 7.40226ZM9.49546 7.15128C7.72889 9.70561 6.43043 12.5511 5.65725 15.5417L9.49546 7.15128Z" stroke="#B5BFC7" stroke-width="2" stroke-miterlimit="10" stroke-linecap="round" stroke-linejoin="round"/>
<path d="M24.8415 33.7022C17.957 31.2222 14.4338 23.6322 16.889 16.8216C17.1123 16.1577 17.4342 15.4449 17.7803 14.9043C20.8719 9.37528 27.5981 6.71107 33.8434 8.894C39.9902 11.1258 43.5168 17.4853 42.3183 23.7333C42.1688 24.422 42.0192 25.1107 41.7959 25.7746C39.2669 32.5604 31.7507 36.1085 24.8415 33.7022Z" fill="#E3EDFF" stroke="#163150" stroke-width="2" stroke-miterlimit="10" stroke-linecap="round" stroke-linejoin="round"/>
<path opacity="0.2" d="M24.8414 33.7021C17.957 31.2221 14.4338 23.6321 16.889 16.8215C17.1123 16.1576 17.4342 15.4448 17.7803 14.9043C21.9958 12.3808 27.2151 11.7552 32.1326 13.4915C37.1239 15.2526 40.6573 19.1509 42.3183 23.7332C42.1688 24.4219 42.0192 25.1106 41.7959 25.7745C39.2669 32.5604 31.7507 36.1084 24.8414 33.7021Z" fill="#003C77"/>
<path d="M53.3439 30.6626L26.6562 36.1195L27.9331 42.3639L54.6206 36.9069L53.3439 30.6626Z" fill="#E3EDFF"/>
<path d="M55.2989 24.6865L28.6113 30.1435L29.8881 36.3878L56.5757 30.9309L55.2989 24.6865Z" fill="#FFD166"/>
<path d="M47.1603 19.8452L20.4727 25.3022L21.7495 31.5466L48.4371 26.0896L47.1603 19.8452Z" fill="#FFD166"/>
<path opacity="0.2" d="M40.3813 33.313L26.6562 36.1194L27.9331 42.3638L41.6582 39.5573L40.3813 33.313Z" fill="#003C77"/>
<path d="M42.3364 27.3369L28.6113 30.1434L29.8881 36.3877L43.6132 33.5813L42.3364 27.3369Z" fill="#FFAA00"/>
<path d="M34.1977 22.4958L20.4727 25.3022L21.7495 31.5466L35.4745 28.7402L34.1977 22.4958Z" fill="#FFAA00"/>
<path d="M54.3306 37.4306L27.643 42.8876L26.3662 36.6432L53.0538 31.1862L54.3306 37.4306ZM54.827 24.3182L28.1394 29.7752L29.4162 36.0196L56.1038 30.5626L54.827 24.3182ZM46.6876 19.4771L20 24.9341L21.2768 31.1785L47.9644 25.7215L46.6876 19.4771Z" stroke="#163150" stroke-width="2" stroke-miterlimit="10" stroke-linecap="round" stroke-linejoin="round"/>
<path d="M15.1251 37.524C20.2976 42.926 28.87 43.1121 34.272 37.9397C39.674 32.7672 39.8601 24.1948 34.6876 18.7927C29.5151 13.3907 20.9428 13.2046 15.5407 18.3771C10.1387 23.5496 9.95262 32.122 15.1251 37.524Z" fill="url(#paint0_radial)" stroke="#163150" stroke-width="2" stroke-miterlimit="10" stroke-linecap="round" stroke-linejoin="round"/>
<path d="M20.546 21.1282C26.4617 17.4034 34.0127 22.026 33.5321 28.9513L25.3449 28.2782L30.5421 34.8314C26.6729 38.1052 20.6912 37.2597 17.8695 32.8499C15.3684 28.8873 16.5834 23.6293 20.546 21.1282Z" fill="#FFC835" stroke="#FFAE25" stroke-width="2" stroke-miterlimit="10" stroke-linecap="round" stroke-linejoin="round"/>
<path d="M32.449 38.8763H5V51.5503H11.2128C11.6774 51.5503 12.1397 51.615 12.5864 51.7426L26.1952 55.6309C27.3849 55.9708 28.6585 55.8575 29.7695 55.3128L54.393 43.2425C56.0631 42.4239 56.7461 40.4012 55.9144 38.7377C55.1384 37.1858 53.3057 36.4835 51.6914 37.1194L38.1555 42.4518C36.7656 42.9993 35.2112 42.1994 34.8489 40.7501C34.5736 39.6489 33.5841 38.8763 32.449 38.8763Z" fill="white"/>
<path d="M7.30469 38.8765H31.852C33.8849 38.8765 35.533 40.5245 35.533 42.5575C35.533 44.4064 34.1615 45.9684 32.3281 46.2075L22.283 47.5178" stroke="#163050" stroke-width="2" stroke-miterlimit="10" stroke-linecap="round" stroke-linejoin="round"/>
<path d="M7.30469 51.5505H11.9134L25.2658 55.8423C27.0437 56.4138 28.9762 56.2511 30.6336 55.3906L54.7916 42.847C56.5042 41.9577 57.0653 39.7783 55.9948 38.1726C55.1482 36.9026 53.5302 36.3955 52.1101 36.9549L35.533 43.4853" stroke="#163050" stroke-width="2" stroke-miterlimit="10" stroke-linecap="round" stroke-linejoin="round"/>
<path d="M12 36.9961H2V54.9961H12V36.9961Z" fill="#05D5FC"/>
<path d="M12 50.0869H2V54.996H12V50.0869Z" fill="#1EB8E7"/>
<path d="M12 36.9961H2V54.9961H12V36.9961Z" stroke="#163050" stroke-width="2" stroke-miterlimit="10" stroke-linecap="round" stroke-linejoin="round"/>
<defs>
<radialGradient id="paint0_radial" cx="0" cy="0" r="1" gradientUnits="userSpaceOnUse" gradientTransform="translate(24.486 17.4908) rotate(79.236) scale(11.0466)">
<stop offset="0.0648649" stop-color="#FFEA80"/>
<stop offset="0.1087" stop-color="#FFE77D"/>
<stop offset="0.4689" stop-color="#FFD76C"/>
<stop offset="0.735" stop-color="#FFD166"/>
</radialGradient>
</defs>
</svg>
