<svg width="60" height="60" viewBox="0 0 60 60" fill="none" xmlns="http://www.w3.org/2000/svg">
<path d="M53.9995 43.4V32.1C53.9995 29.6 51.6769 27.5 48.9119 27.5H43.1608C40.3958 27.5 38.0732 29.6 38.0732 32.1V35.8C38.0732 38.3 40.3958 40.4 43.1608 40.4H49.4649C51.2345 40.3 53.4465 41.4 53.9995 43.4Z" fill="#0C9FE1" stroke="#163150" stroke-width="2" stroke-miterlimit="10" stroke-linecap="round" stroke-linejoin="round"/>
<path d="M10.9769 49.5999V25.1999C10.9769 23.6999 12.3041 22.3999 14.6267 22.3999H45.9262C47.5852 22.3999 48.8018 23.5999 48.9124 24.9999L49.023 43.4999C49.023 44.9999 47.6958 46.1999 46.1474 46.1999H14.5161C12.5253 46.2999 10.8663 47.7999 10.9769 49.5999Z" fill="#0C9FE1" stroke="#163150" stroke-width="2" stroke-miterlimit="10" stroke-linecap="round" stroke-linejoin="round"/>
<path d="M48.9125 31.5L48.8019 50C48.8019 51.5 47.4748 52.6 45.8158 52.6L15.2904 52.5H13.6314C11.9724 52.5 10.7559 51.3 10.7559 49.8L10.8665 25.5C10.7559 27.3 12.4148 28.7 14.295 28.7H15.0692L45.9264 28.8C47.6959 28.8 48.9125 30 48.9125 31.5Z" fill="#1EB8E7"/>
<path d="M16.9489 28.8L16.6171 52.5C14.7369 52.5 10.9766 53 10.9766 49.8V25.5C10.9766 28.9 15.5111 28.8 16.9489 28.8Z" fill="#0C9FE1"/>
<path d="M10.9768 25.5L10.8662 49.3C10.8662 51.3 12.304 52.6 14.6266 52.6H45.9262C47.5851 52.6 48.8017 51.4 48.9123 50L49.0229 31.5C49.0229 30 47.6795 29 46.1311 29H30.3155H14.4998C12.509 29 10.8662 27.3 10.9768 25.5Z" stroke="#163150" stroke-width="2" stroke-miterlimit="10" stroke-linecap="round" stroke-linejoin="round"/>
<path d="M54.0001 32.8999V44.1999C54.0001 46.6999 51.6775 48.7999 48.9125 48.7999H40.7282C37.9632 48.7999 35.6406 46.6999 35.6406 44.1999V40.4999C35.6406 37.9999 37.9632 35.8999 40.7282 35.8999H49.5761C51.2351 35.9999 53.4471 34.8999 54.0001 32.8999Z" fill="#1EB8E7"/>
<path d="M48.9127 40.7001C53.6684 43.3001 49.4657 49.8001 44.5993 47.2001L40.8389 45.8001L44.4887 38.6001L48.9127 40.7001Z" fill="#0C9FE1"/>
<path d="M45.4618 43.7875C46.2939 42.5645 45.8721 40.9631 44.5194 40.2106C43.1668 39.4582 41.3957 39.8397 40.5635 41.0627C39.7313 42.2856 40.1532 43.887 41.5058 44.6395C42.8584 45.3919 44.6296 45.0104 45.4618 43.7875Z" fill="#B3C1D6" stroke="#163150" stroke-width="2" stroke-miterlimit="10" stroke-linecap="round" stroke-linejoin="round"/>
<path d="M54.0001 32.8999V44.1999C54.0001 46.6999 51.6775 48.7999 48.9125 48.7999H40.7282C37.9632 48.7999 35.6406 46.6999 35.6406 44.1999V40.4999C35.6406 37.9999 37.9632 35.8999 40.7282 35.8999H49.5761C51.2351 35.9999 53.4471 34.8999 54.0001 32.8999Z" stroke="#163150" stroke-width="2" stroke-miterlimit="10" stroke-linecap="round" stroke-linejoin="round"/>
<path opacity="0.4" d="M6 42.5001V38.1001" stroke="#B5BFC7" stroke-width="2" stroke-miterlimit="10" stroke-linecap="round" stroke-linejoin="round"/>
<path opacity="0.4" d="M12.6359 56.9002C8.87558 56.4002 6 53.4002 6 49.9002V47.7002" stroke="#B5BFC7" stroke-width="2" stroke-miterlimit="10" stroke-linecap="round" stroke-linejoin="round"/>
<path d="M33 10V28.4998H29V10C29 8.89543 29.8954 8 31 8C32.1046 8 33 8.89543 33 10Z" fill="white"/>
<path d="M13.3727 11.8377C14.0147 10.9389 15.2638 10.7307 16.1626 11.3727L23.1626 16.3727C23.6882 16.7481 24.0001 17.3543 24.0001 18.0002V28.5H20.0001V19.0294L13.8377 14.6276C12.9388 13.9856 12.7306 12.7365 13.3727 11.8377Z" fill="white"/>
<path d="M48.6274 11.8377C47.9854 10.9389 46.7363 10.7307 45.8375 11.3727L38.8375 16.3727C38.3119 16.7481 38 17.3543 38 18.0002V28.5H42V19.0294L48.1624 14.6276C49.0613 13.9856 49.2695 12.7365 48.6274 11.8377Z" fill="white"/>
<path d="M38.0001 28.4998V18C38.0001 17.3541 38.312 16.7479 38.8376 16.3725L45.8376 11.3725C46.7364 10.7305 47.9855 10.9387 48.6275 11.8375C49.2696 12.7363 49.0614 13.9854 48.1625 14.6274L42.0001 19.0292V28.4998M33.0001 28.4998V10C33.0001 8.89543 32.1047 8 31.0001 8C29.8955 8 29.0001 8.89543 29.0001 10V28.4998H33.0001ZM24.0001 28.4998V18C24.0001 17.3541 23.6882 16.7479 23.1626 16.3725L16.1626 11.3725C15.2638 10.7305 14.0147 10.9387 13.3727 11.8375C12.7306 12.7363 12.9388 13.9854 13.8377 14.6274L20.0001 19.0292V28.4998H24.0001Z" stroke="#163050" stroke-width="2" stroke-miterlimit="10" stroke-linecap="round" stroke-linejoin="round"/>
<path d="M50 15C52.2091 15 54 13.2091 54 11C54 8.79086 52.2091 7 50 7C47.7909 7 46 8.79086 46 11C46 13.2091 47.7909 15 50 15Z" fill="#FFD267" stroke="#163050" stroke-width="2" stroke-miterlimit="10" stroke-linecap="round" stroke-linejoin="round"/>
<path d="M31 11C33.2091 11 35 9.20914 35 7C35 4.79086 33.2091 3 31 3C28.7909 3 27 4.79086 27 7C27 9.20914 28.7909 11 31 11Z" fill="#FFD267" stroke="#163050" stroke-width="2" stroke-miterlimit="10" stroke-linecap="round" stroke-linejoin="round"/>
<path d="M12 15C14.2091 15 16 13.2091 16 11C16 8.79086 14.2091 7 12 7C9.79086 7 8 8.79086 8 11C8 13.2091 9.79086 15 12 15Z" fill="#FFD267" stroke="#163050" stroke-width="2" stroke-miterlimit="10" stroke-linecap="round" stroke-linejoin="round"/>
<path d="M46.6313 29H30.8157H15" stroke="#163150" stroke-width="2" stroke-miterlimit="10" stroke-linecap="round" stroke-linejoin="round"/>
</svg>
