<svg width="41" height="24" viewBox="0 0 41 24" fill="none" xmlns="http://www.w3.org/2000/svg">
<path d="M36.57 5.86156C34.9838 5.20065 34.2789 3.43824 34.8957 1.89614C35.5566 0.309968 37.275 -0.394997 38.8611 0.221847C40.4032 0.83869 41.1523 2.64516 40.4913 4.18727C39.9186 5.77344 38.1121 6.4784 36.57 5.86156ZM25.6871 11.9859C25.6871 12.03 25.6871 12.03 25.6871 11.9859L26.4361 13.3077C27.097 14.1889 27.7579 15.0261 28.4629 15.9073C28.5951 16.0835 28.507 16.1716 28.4629 16.3038C27.7139 18.1544 26.9649 20.0489 26.1718 21.8995C26.1277 22.0317 26.0837 22.1638 26.0396 22.296C25.9074 23.001 26.304 23.5738 27.097 23.8822C27.9342 24.1906 28.6832 23.8822 28.9916 23.0891C29.8728 20.8861 30.7981 18.6831 31.6793 16.4801C31.8996 15.9954 31.8555 15.5107 31.5031 15.0701C30.7981 14.1449 30.1372 13.2196 29.4322 12.2503C29.3882 12.1622 29.3001 12.074 29.256 11.9859C30.4016 11.1928 31.5471 10.3998 32.7367 9.56261C32.7367 9.65073 32.7368 9.6948 32.6927 9.6948C32.3843 10.3998 32.1199 11.1047 31.8115 11.8538C31.6352 12.3384 31.7674 12.6909 32.2521 12.8671C33.7942 13.484 35.3363 14.1008 36.8344 14.7177C37.4953 14.982 38.2002 14.7177 38.4646 14.0568C38.7289 13.4399 38.4205 12.779 37.7156 12.5147C36.7462 12.1181 35.821 11.7216 34.8516 11.3691C34.7635 11.325 34.6754 11.281 34.5432 11.2369C34.5873 11.1047 34.6313 11.0166 34.6754 10.8844C35.0279 10.0473 35.3363 9.16607 35.6888 8.32893C35.9531 7.71208 35.9091 7.1393 35.5125 6.56652C34.8076 5.55313 34.1467 4.53975 33.4417 3.52636C33.2214 3.262 32.913 2.99764 32.6046 2.86546C30.8862 2.11644 29.1238 1.45553 27.4055 0.750568C27.0089 0.574327 26.7005 0.618389 26.348 0.88275C25.4668 1.54365 24.5856 2.16049 23.7485 2.8214C23.1316 3.262 22.9994 4.01102 23.396 4.58381C23.7925 5.15659 24.5415 5.20065 25.1584 4.76005C25.7752 4.31945 26.3921 3.87884 27.0089 3.39418C27.1411 3.262 27.2733 3.262 27.4936 3.30606C28.551 3.74666 29.6085 4.18726 30.6659 4.58381C30.754 4.62787 30.7981 4.67193 30.8862 4.71599C30.754 4.80411 30.6659 4.89223 30.5778 4.93629C29.1238 5.99373 27.6258 7.05118 26.1718 8.15269C24.4534 9.65073 25.599 11.8097 25.6871 11.9859ZM16.2142 10.3116C15.9939 10.8844 16.2142 11.4131 16.6548 11.8097C18.1088 13.2196 19.5627 14.6736 21.0167 16.1276C21.5455 16.6563 21.9861 16.6563 22.5148 16.1276C23.396 15.2464 24.3653 14.2771 25.2465 13.3518L24.8059 12.5147C24.4534 11.8978 24.145 10.9725 24.2772 9.95915C24.0128 10.2235 23.6603 10.5319 23.6603 10.576C22.7791 11.4572 22.8673 11.3691 22.0301 12.2503C21.942 12.3384 21.8979 12.3825 21.8098 12.5147C21.6776 12.3825 21.6336 12.3384 21.5455 12.2503C20.6642 11.3691 19.783 10.4879 18.8578 9.60668C18.5053 9.25419 18.1088 9.07795 17.6681 9.16607C16.8751 9.25419 16.4345 9.69479 16.2142 10.3116ZM20.488 4.40757C20.488 4.14321 20.2677 3.87885 19.9593 3.87885H7.84272C7.57836 3.87885 7.31399 4.09915 7.31399 4.40757C7.31399 4.67193 7.5343 4.93629 7.84272 4.93629H19.9593C20.2677 4.93629 20.488 4.71599 20.488 4.40757ZM0 10.4879C0 10.7522 0.2203 11.0166 0.528721 11.0166H12.6453C12.9096 11.0166 13.174 10.7963 13.174 10.4879C13.174 10.2235 12.9537 9.95915 12.6453 9.95915H0.528721C0.26436 9.95915 0 10.1795 0 10.4879ZM2.29113 16.5241C2.29113 16.7885 2.51143 17.0529 2.81985 17.0529H14.9364C15.2008 17.0529 15.4651 16.8325 15.4651 16.5241C15.4651 16.2598 15.2448 15.9954 14.9364 15.9954H2.7758C2.51143 16.0395 2.29113 16.2598 2.29113 16.5241Z" fill="white"/>
</svg>
