<?xml version='1.0' encoding='iso-8859-1'?>
<svg version="1.1" xmlns="http://www.w3.org/2000/svg" viewBox="0 0 470 470" width="24" height="24" xmlns:xlink="http://www.w3.org/1999/xlink" enable-background="new 0 0 470 470">
  <g>
    <path fill="white" d="m402.036,420.889c-0.075-0.641-7.581-64.336-10.149-85.454-1.269-10.431-8.868-22.687-17.675-28.509l-66.573-44.011v-127.208c0-26.588-6.435-53.033-18.608-76.478-11.773-22.674-28.925-42.654-49.602-57.782-2.638-1.93-6.22-1.93-8.857,0-20.676,15.128-37.829,35.108-49.602,57.782-12.174,23.444-18.608,49.89-18.608,76.478v127.208l-66.572,44.011c-8.808,5.822-16.407,18.078-17.676,28.509-2.569,21.118-10.074,84.813-10.149,85.454-0.251,2.128 0.42,4.261 1.843,5.861s3.463,2.517 5.605,2.517h102.479v33.233c0,4.143 3.358,7.5 7.5,7.5h34.608c4.142,0 7.5-3.357 7.5-7.5v-10.733c0-4.143-3.358-7.5-7.5-7.5s-7.5,3.357-7.5,7.5v3.233h-19.609v-25.733h84.218v25.733h-19.609v-3.233c0-4.143-3.358-7.5-7.5-7.5s-7.5,3.357-7.5,7.5v10.733c0,4.143 3.358,7.5 7.5,7.5h34.609c4.142,0 7.5-3.357 7.5-7.5v-33.233h102.479c2.142,0 4.182-0.916 5.605-2.517s2.094-3.733 1.843-5.861zm-224.675-21.622h115.277v15h-115.277v-15zm130.278,15v-66.918c0-4.143-3.358-7.5-7.5-7.5s-7.5,3.357-7.5,7.5v36.918h-115.278v-36.918c0-4.143-3.358-7.5-7.5-7.5s-7.5,3.357-7.5,7.5v66.918h-78.512c2.136-18.103 7.151-60.548 9.155-77.021 0.727-5.975 5.997-14.461 11.057-17.806l58.3-38.542v36.451c0,4.143 3.358,7.5 7.5,7.5s7.5-3.357 7.5-7.5v-181.642c0-46.2 21.446-90.191 57.639-118.786 36.193,28.595 57.639,72.586 57.639,118.786v181.642c0,4.143 3.358,7.5 7.5,7.5s7.5-3.357 7.5-7.5v-36.451l58.301,38.542c5.06,3.345 10.33,11.831 11.057,17.806 2.004,16.474 7.02,58.919 9.155,77.021h-78.513z"/>
    <path fill="white" d="m265.235,93.207h-60.47c-3.352,0-6.297,2.224-7.214,5.448-3.443,12.106-5.189,24.572-5.189,37.052 0,4.143 3.358,7.5 7.5,7.5h70.277c4.142,0 7.5-3.357 7.5-7.5 0-12.48-1.746-24.946-5.19-37.052-0.917-3.224-3.862-5.448-7.214-5.448zm-57.637,35c0.424-6.718 1.416-13.407 2.966-20h48.872c1.55,6.593 2.542,13.282 2.966,20h-54.804z"/>
  </g>
</svg>
