<svg width="45" height="45" viewBox="0 0 45 45" fill="none" xmlns="http://www.w3.org/2000/svg">
<path fill-rule="evenodd" clip-rule="evenodd" d="M0 12C0 5.37258 5.37258 0 12 0H33C39.6274 0 45 5.37258 45 12V33C45 39.6274 39.6274 45 33 45H12C5.37258 45 0 39.6274 0 33V12Z" fill="#A682FF"/>
<path d="M32.7273 24.0326C33.2913 24.0326 33.7486 23.5754 33.7486 23.0113C33.7486 22.4473 33.2913 21.99 32.7273 21.99V24.0326ZM13.4893 21.99C12.9252 21.99 12.468 22.4473 12.468 23.0113C12.468 23.5754 12.9252 24.0326 13.4893 24.0326V21.99ZM21.9901 32.7272C21.9901 33.2913 22.4474 33.7485 23.0114 33.7485C23.5754 33.7485 24.0327 33.2913 24.0327 32.7272H21.9901ZM24.0327 13.2954C24.0327 12.7314 23.5754 12.2741 23.0114 12.2741C22.4474 12.2741 21.9901 12.7314 21.9901 13.2954H24.0327ZM32.7273 21.99H13.4893V24.0326H32.7273V21.99ZM24.0327 32.7272V13.2954H21.9901V32.7272H24.0327Z" fill="white"/>
</svg>
