<svg width="44" height="44" viewBox="0 0 44 44" fill="none" xmlns="http://www.w3.org/2000/svg">
<path fill-rule="evenodd" clip-rule="evenodd" d="M0 12C0 5.37258 5.37258 0 12 0H32C38.6274 0 44 5.37258 44 12V32C44 38.6274 38.6274 44 32 44H12C5.37258 44 0 38.6274 0 32V12Z" fill="url(#paint0_linear)"/>
<path d="M32 23.5213C32.564 23.5213 33.0213 23.064 33.0213 22.5C33.0213 21.936 32.564 21.4787 32 21.4787V23.5213ZM13.1895 21.4787C12.6254 21.4787 12.1682 21.936 12.1682 22.5C12.1682 23.064 12.6254 23.5213 13.1895 23.5213V21.4787ZM21.4787 32C21.4787 32.564 21.936 33.0213 22.5 33.0213C23.064 33.0213 23.5213 32.564 23.5213 32H21.4787ZM23.5213 13C23.5213 12.436 23.064 11.9787 22.5 11.9787C21.936 11.9787 21.4787 12.436 21.4787 13H23.5213ZM32 21.4787H13.1895V23.5213H32V21.4787ZM23.5213 32V13H21.4787V32H23.5213Z" fill="white"/>
<defs>
<linearGradient id="paint0_linear" x1="0" y1="0" x2="0" y2="44" gradientUnits="userSpaceOnUse">
<stop stop-color="#A682FF"/>
<stop offset="1" stop-color="#8764DE"/>
</linearGradient>
</defs>
</svg>
