<svg width="71" height="77" viewBox="0 0 71 77" fill="none" xmlns="http://www.w3.org/2000/svg">
<path d="M65.9461 52.3951L34.1622 75L2.78369 52.3951V2H65.9461V52.3951Z" fill="#4492B5" stroke="#FBAE28" stroke-width="2.03937" stroke-miterlimit="10" stroke-linecap="round" stroke-linejoin="round"/>
<path d="M6.35132 51.1798L36.8379 73.1365L65.9461 52.3951V2H6.35132V51.1798Z" fill="#55B6E2"/>
<path opacity="0.4" d="M5.2973 59.2008L1 56.041" stroke="#B6BFC7" stroke-width="1.50457" stroke-miterlimit="10" stroke-linecap="round" stroke-linejoin="round"/>
<path opacity="0.4" d="M21.0276 70.5438L9.1897 61.9556" stroke="#B6BFC7" stroke-width="1.50457" stroke-miterlimit="10" stroke-linecap="round" stroke-linejoin="round"/>
<path opacity="0.4" d="M70 13.9099V31.1674" stroke="#B6BFC7" stroke-width="1.50457" stroke-miterlimit="10" stroke-linecap="round" stroke-linejoin="round"/>
<path opacity="0.4" d="M70 2V7.59045" stroke="#B6BFC7" stroke-width="1.50457" stroke-miterlimit="10" stroke-linecap="round" stroke-linejoin="round"/>
<path d="M65.9461 52.3951L34.1622 75L2.78369 52.3951V2H65.9461V52.3951Z" stroke="#153150" stroke-width="2.25685" stroke-miterlimit="10" stroke-linecap="round" stroke-linejoin="round"/>
<path opacity="0.2" d="M53.9331 37.2476C53.9551 25.1213 44.1353 15.273 31.9999 15.251C19.8646 15.229 10.009 25.0414 9.98696 37.1678C9.9649 49.2942 19.7847 59.1424 31.9201 59.1644C44.0555 59.1865 53.911 49.374 53.9331 37.2476Z" fill="black"/>
<path d="M55.8919 33.1016C55.9137 21.1095 46.2027 11.3703 34.2016 11.3485C22.2006 11.3267 12.4541 21.0306 12.4323 33.0227C12.4105 45.0148 22.1216 54.754 34.1226 54.7758C46.1237 54.7976 55.8701 45.0937 55.8919 33.1016Z" fill="white" stroke="#153150" stroke-width="1.50457" stroke-miterlimit="10" stroke-linecap="round" stroke-linejoin="round"/>
<path d="M56.1352 33.1021C56.1573 20.9757 46.3375 11.1275 34.2021 11.1055C22.0667 11.0834 12.2112 20.8959 12.1891 33.0223C12.1671 45.1486 21.9868 54.9969 34.1222 55.0189C46.2576 55.041 56.1131 45.2285 56.1352 33.1021Z" fill="white"/>
<path d="M55.8919 33.1016C55.9137 21.1095 46.2027 11.3703 34.2016 11.3485C22.2006 11.3267 12.4541 21.0306 12.4323 33.0227C12.4105 45.0148 22.1216 54.754 34.1226 54.7758C46.1237 54.7976 55.8701 45.0937 55.8919 33.1016Z" stroke="#153150" stroke-width="2.11843" stroke-miterlimit="10" stroke-linecap="round" stroke-linejoin="round"/>
<path d="M34.3242 27.4409L36.5134 30.6818L40.1621 31.9781" stroke="white" stroke-width="2.03937" stroke-miterlimit="10" stroke-linecap="round" stroke-linejoin="round"/>
<path d="M42.6523 46.7251L34.2261 43.3984L25.8 45.9859L25.8925 37.1145L20.4294 29.7218L28.9482 27.504L34.0409 20.3884L39.1336 27.966L47.745 30.9231L42.3745 37.8538L42.6523 46.7251Z" fill="#55B6E2"/>
<path d="M42.652 47.6494C42.5594 47.6494 42.4668 47.6494 42.2816 47.557L34.1332 44.415L26.0775 46.9101C25.7997 47.0025 25.5219 46.9101 25.2441 46.7253C24.9663 46.5405 24.8737 46.2632 24.8737 45.986L24.9663 37.3919L19.6884 30.2764C19.5032 29.9992 19.4106 29.7219 19.5958 29.4447C19.6884 29.1675 19.9662 28.8902 20.244 28.8902L28.4849 26.7648L33.2999 19.9265C33.4851 19.6493 33.7629 19.5569 34.0406 19.5569C34.3184 19.5569 34.5962 19.7417 34.7814 19.9265L39.7815 27.2269L48.0225 30.0916C48.3003 30.184 48.4855 30.4612 48.5781 30.7384C48.6707 31.0157 48.5781 31.2929 48.3929 31.5701L43.2075 38.1312L43.4853 46.7253C43.4853 47.0025 43.3927 47.3721 43.115 47.4645C43.0224 47.6494 42.8372 47.6494 42.652 47.6494ZM34.2258 42.4744C34.3184 42.4744 34.411 42.4744 34.5962 42.5668L41.726 45.3391L41.4482 37.7616C41.4482 37.5767 41.5408 37.2995 41.6334 37.2071L46.1706 31.3853L38.8556 28.8902C38.6704 28.7978 38.4852 28.7054 38.3926 28.5206L33.948 22.0519L29.6887 28.0586C29.5961 28.2434 29.4109 28.3358 29.1331 28.4282L21.9107 30.2764L26.5404 36.5602C26.633 36.7451 26.7256 36.9299 26.7256 37.1147V44.7847L33.948 42.5668C34.0406 42.5668 34.1332 42.4744 34.2258 42.4744Z" fill="#4492B5"/>
<path d="M29.2543 34.1518H30.7582V29.8249C30.7582 29.6573 30.7633 29.481 30.7736 29.2963L29.706 30.1893C29.6615 30.227 29.6153 30.2526 29.5674 30.2663C29.523 30.28 29.4785 30.2869 29.434 30.2869C29.3655 30.2869 29.3022 30.2732 29.2441 30.2458C29.1893 30.215 29.1483 30.1808 29.1209 30.1432L28.7205 29.594L30.9841 27.6692H32.026V34.1518H33.3605V35.1013H29.2543V34.1518ZM36.9182 27.5973C37.2604 27.5973 37.5735 27.6487 37.8575 27.7513C38.1415 27.8506 38.3845 27.9926 38.5864 28.1773C38.7882 28.3621 38.9456 28.5845 39.0586 28.8446C39.1715 29.1046 39.2279 29.3938 39.2279 29.712C39.2279 29.9857 39.1869 30.239 39.1048 30.4716C39.026 30.7043 38.9183 30.9267 38.7814 31.1389C38.6479 31.351 38.4905 31.5563 38.3092 31.7548C38.1278 31.9533 37.9379 32.1552 37.7395 32.3605L36.0662 34.0697C36.2305 34.0217 36.3913 33.9858 36.5487 33.9619C36.7061 33.9345 36.8566 33.9208 37.0004 33.9208H38.9046C39.0414 33.9208 39.1492 33.9602 39.2279 34.0389C39.3101 34.1141 39.3511 34.2151 39.3511 34.3417V35.1013H34.2595V34.6804C34.2595 34.5949 34.2766 34.5059 34.3108 34.4135C34.3485 34.3212 34.4066 34.2356 34.4853 34.1569L36.7386 31.8985C36.9268 31.7069 37.0945 31.5238 37.2416 31.3493C37.3921 31.1748 37.517 31.002 37.6163 30.8309C37.7189 30.6598 37.7959 30.487 37.8472 30.3125C37.902 30.1346 37.9294 29.9481 37.9294 29.7531C37.9294 29.5751 37.9037 29.4194 37.8524 29.286C37.8011 29.1491 37.7275 29.0345 37.6317 28.9421C37.5359 28.8497 37.4212 28.7813 37.2878 28.7368C37.1578 28.6889 37.0106 28.6649 36.8464 28.6649C36.5418 28.6649 36.2903 28.7419 36.0919 28.8959C35.8968 29.0499 35.76 29.2569 35.6813 29.517C35.6436 29.647 35.5872 29.7411 35.5119 29.7993C35.4366 29.854 35.3408 29.8814 35.2244 29.8814C35.1731 29.8814 35.1167 29.8763 35.0551 29.866L34.3878 29.7479C34.4391 29.3921 34.5384 29.0807 34.6855 28.8138C34.8327 28.5435 35.0157 28.3193 35.2347 28.1414C35.4571 27.9601 35.7103 27.8249 35.9943 27.7359C36.2818 27.6435 36.5897 27.5973 36.9182 27.5973Z" fill="#153150"/>
<path d="M30.0835 39.3418V36.4694H30.5063C30.5959 36.4694 30.6546 36.5114 30.6826 36.5953L30.7274 36.8081C30.7778 36.7521 30.8301 36.7008 30.8842 36.6541C30.9402 36.6075 30.999 36.5674 31.0606 36.5338C31.1241 36.5002 31.1912 36.474 31.2622 36.4554C31.335 36.4348 31.4143 36.4246 31.5001 36.4246C31.6812 36.4246 31.8296 36.474 31.9453 36.573C32.0629 36.67 32.1506 36.7997 32.2084 36.9621C32.2532 36.8669 32.3092 36.7857 32.3764 36.7185C32.4436 36.6495 32.5173 36.5935 32.5976 36.5506C32.6779 36.5076 32.7628 36.4759 32.8524 36.4554C32.9438 36.4348 33.0353 36.4246 33.1267 36.4246C33.2854 36.4246 33.4263 36.4488 33.5495 36.4974C33.6727 36.5459 33.7762 36.6168 33.8602 36.7101C33.9442 36.8035 34.0077 36.9173 34.0506 37.0517C34.0954 37.1861 34.1178 37.3401 34.1178 37.5136V39.3418H33.4263V37.5136C33.4263 37.3307 33.3862 37.1935 33.3059 37.1021C33.2257 37.0088 33.1081 36.9621 32.9532 36.9621C32.8822 36.9621 32.816 36.9742 32.7544 36.9985C32.6947 37.0228 32.6415 37.0582 32.5948 37.1049C32.55 37.1497 32.5145 37.2066 32.4884 37.2757C32.4623 37.3447 32.4492 37.424 32.4492 37.5136V39.3418H31.7549V37.5136C31.7549 37.3214 31.7157 37.1814 31.6373 37.0937C31.5608 37.006 31.4469 36.9621 31.2958 36.9621C31.1968 36.9621 31.1035 36.9873 31.0158 37.0377C30.9299 37.0862 30.8497 37.1534 30.775 37.2393V39.3418H30.0835ZM36.0232 36.4246C36.2379 36.4246 36.432 36.4591 36.6056 36.5282C36.781 36.5972 36.9303 36.6952 37.0535 36.8221C37.1767 36.949 37.2719 37.1039 37.3391 37.2869C37.4062 37.4698 37.4398 37.6741 37.4398 37.9C37.4398 38.1277 37.4062 38.333 37.3391 38.5159C37.2719 38.6988 37.1767 38.8547 37.0535 38.9834C36.9303 39.1122 36.781 39.2111 36.6056 39.2802C36.432 39.3493 36.2379 39.3838 36.0232 39.3838C35.8086 39.3838 35.6135 39.3493 35.4381 39.2802C35.2627 39.2111 35.1124 39.1122 34.9874 38.9834C34.8642 38.8547 34.7681 38.6988 34.699 38.5159C34.6318 38.333 34.5982 38.1277 34.5982 37.9C34.5982 37.6741 34.6318 37.4698 34.699 37.2869C34.7681 37.1039 34.8642 36.949 34.9874 36.8221C35.1124 36.6952 35.2627 36.5972 35.4381 36.5282C35.6135 36.4591 35.8086 36.4246 36.0232 36.4246ZM36.0232 38.8519C36.2621 38.8519 36.4385 38.7716 36.5524 38.6111C36.6681 38.4506 36.7259 38.2154 36.7259 37.9056C36.7259 37.5958 36.6681 37.3597 36.5524 37.1973C36.4385 37.0349 36.2621 36.9537 36.0232 36.9537C35.7806 36.9537 35.6014 37.0358 35.4857 37.2001C35.37 37.3624 35.3121 37.5976 35.3121 37.9056C35.3121 38.2135 35.37 38.4487 35.4857 38.6111C35.6014 38.7716 35.7806 38.8519 36.0232 38.8519ZM37.8142 38.961C37.8142 38.9032 37.8245 38.8481 37.845 38.7959C37.8674 38.7436 37.8973 38.6988 37.9346 38.6615C37.9738 38.6242 38.0195 38.5943 38.0718 38.5719C38.124 38.5495 38.18 38.5383 38.2398 38.5383C38.2976 38.5383 38.3527 38.5495 38.4049 38.5719C38.4572 38.5943 38.502 38.6242 38.5393 38.6615C38.5766 38.6988 38.6065 38.7436 38.6289 38.7959C38.6513 38.8481 38.6625 38.9032 38.6625 38.961C38.6625 39.0208 38.6513 39.0768 38.6289 39.129C38.6065 39.1794 38.5766 39.2233 38.5393 39.2606C38.502 39.2979 38.4572 39.3269 38.4049 39.3474C38.3527 39.3698 38.2976 39.381 38.2398 39.381C38.18 39.381 38.124 39.3698 38.0718 39.3474C38.0195 39.3269 37.9738 39.2979 37.9346 39.2606C37.8973 39.2233 37.8674 39.1794 37.845 39.129C37.8245 39.0768 37.8142 39.0208 37.8142 38.961Z" fill="#153150"/>
</svg>
