<svg width="34" height="34" viewBox="0 0 34 34" fill="none" xmlns="http://www.w3.org/2000/svg">
<g clip-path="url(#clip0_20781_104673)">
<path d="M1.5 29.0012C1.5 31.487 3.01084 33.5022 4.87455 33.5022L8.12727 33.5022V24.5003L4.87455 24.5002C3.01084 24.5002 1.5 26.5154 1.5 29.0012Z" fill="#F29400"/>
<ellipse cx="8.1265" cy="29.001" rx="3.37455" ry="4.50097" fill="#FFD166"/>
<path fill-rule="evenodd" clip-rule="evenodd" d="M2 29.001C2 27.8557 2.34865 26.8382 2.88843 26.1182C3.4281 25.3984 4.13543 25 4.87454 25H4.87455L5.79535 25C5.63198 25.1584 5.47981 25.3321 5.34016 25.5184C4.6586 26.4274 4.25183 27.6604 4.25183 29.001C4.25183 30.3416 4.6586 31.5745 5.34016 32.4836C5.47982 32.6698 5.63199 32.8435 5.79537 33.002L4.87455 33.0019C4.13543 33.0019 3.4281 32.6035 2.88843 31.8837C2.34865 31.1638 2 30.1462 2 29.001ZM8.12729 34.0019V34.002L4.87455 34.0019C3.74995 34.0019 2.77001 33.3928 2.08833 32.4836C1.40677 31.5745 1 30.3416 1 29.001C1 27.6604 1.40677 26.4274 2.08833 25.5184C2.77001 24.6092 3.74995 24 4.87455 24H4.87455L8.11337 24C8.1177 24 8.12204 24 8.12638 24C9.25097 24 10.2309 24.6092 10.9126 25.5184C11.5942 26.4274 12.0009 27.6604 12.0009 29.001C12.0009 30.3416 11.5942 31.5745 10.9126 32.4836C10.2311 33.3925 9.2515 34.0016 8.12729 34.0019ZM8.1158 25L8.12729 25V25C8.86608 25.0003 9.57304 25.3987 10.1125 26.1182C10.6523 26.8382 11.0009 27.8557 11.0009 29.001C11.0009 30.1462 10.6523 31.1638 10.1125 31.8837C9.57282 32.6035 8.86549 33.0019 8.12638 33.0019C7.38726 33.0019 6.67993 32.6035 6.14026 31.8837C5.60048 31.1638 5.25183 30.1462 5.25183 29.001C5.25183 27.8557 5.60048 26.8382 6.14026 26.1182C6.67736 25.4019 7.38052 25.0038 8.1158 25Z" fill="#005268"/>
<rect x="14.9268" y="4" width="4" height="4" fill="#1EB8E7"/>
<path d="M15.4268 2C15.4268 1.17157 16.0983 0.5 16.9268 0.5C17.7552 0.5 18.4268 1.17157 18.4268 2V8.5H15.4268V2Z" stroke="#005268" stroke-linejoin="round"/>
<rect x="7" y="1" width="20" height="5" rx="2" fill="#E3EDFF"/>
<path d="M8 3H26V4C26 5.10457 25.1046 6 24 6H10C8.89543 6 8 5.10457 8 4V3Z" fill="#C4D1E5"/>
<rect x="7.5" y="1.5" width="19" height="4" rx="1.5" stroke="#005268" stroke-linejoin="round"/>
<path d="M11.4268 21H2.42676V22C2.42676 22.5523 2.87447 23 3.42676 23H10.4268C10.979 23 11.4268 22.5523 11.4268 22V21Z" fill="#0C9FE1"/>
<path d="M11 11C11 9.34315 12.3431 8 14 8H20C21.6569 8 23 9.34315 23 11H11Z" fill="#E3EDFF"/>
<path d="M11.55 10.5C11.7816 9.35888 12.7905 8.5 14 8.5H20C21.2095 8.5 22.2184 9.35888 22.45 10.5H11.55Z" stroke="#005268" stroke-linejoin="round"/>
<path d="M1.92676 21V21.5C1.92676 22.0523 2.37447 22.5 2.92676 22.5H10.9268C11.479 22.5 11.9268 22.0523 11.9268 21.5V21C11.9268 19.8954 12.8222 19 13.9268 19H32.9268V10H12.9268C6.85163 10 1.92676 14.9249 1.92676 21Z" fill="#1EB8E7"/>
<path d="M10.9268 19V21L11.2454 20.1591C11.6872 18.9933 12.804 18.2222 14.0507 18.2222H30.9268V15H14.9268C12.7176 15 10.9268 16.7909 10.9268 19Z" fill="#0C9FE1"/>
<path d="M2.42676 22V21C2.42676 15.201 7.12777 10.5 12.9268 10.5H32.4268V18.5H13.9268C12.546 18.5 11.4268 19.6193 11.4268 21V22C11.4268 22.2761 11.2029 22.5 10.9268 22.5H2.92676C2.65062 22.5 2.42676 22.2761 2.42676 22Z" stroke="#005268" stroke-linejoin="round"/>
<path d="M7.92676 15C8.37097 14.5872 8.85986 14.2253 9.38498 13.9228M11.9268 13C11.8489 13.0136 11.7715 13.0283 11.6944 13.0442" stroke="white" stroke-width="2" stroke-linecap="round" stroke-linejoin="round"/>
<rect x="25.9268" y="7" width="8" height="20" rx="4" fill="#E3EDFF"/>
<path d="M25.9268 18H33.9268V23C33.9268 25.2091 32.1359 27 29.9268 27C27.7176 27 25.9268 25.2091 25.9268 23V18Z" fill="#C4D1E5"/>
<rect x="25.9268" y="12" width="8" height="2" fill="white"/>
<rect x="26.4268" y="7.5" width="7" height="19" rx="3.5" stroke="#005268" stroke-linejoin="round"/>
</g>
<defs>
<clipPath id="clip0_20781_104673">
<rect width="34" height="34" fill="white"/>
</clipPath>
</defs>
</svg>
