<svg viewBox="0 0 72 78" fill="none" xmlns="http://www.w3.org/2000/svg">
<g opacity="0.2">
<path d="M66.7869 53.0855L34.5916 76L2.80688 53.0855V2H66.7869V53.0855Z" fill="#C6A85F" stroke="#FBAE28" stroke-width="2.30247" stroke-miterlimit="10" stroke-linecap="round" stroke-linejoin="round"/>
<path d="M6.4209 51.8535L37.3021 74.111L66.7872 53.0855V2H6.4209V51.8535Z" fill="#F8D277"/>
<path opacity="0.4" d="M5.35293 59.9844L1 56.7812" stroke="#B6BFC7" stroke-width="1.69867" stroke-miterlimit="10" stroke-linecap="round" stroke-linejoin="round"/>
<path opacity="0.4" d="M21.2868 71.4827L9.29565 62.7769" stroke="#B6BFC7" stroke-width="1.69867" stroke-miterlimit="10" stroke-linecap="round" stroke-linejoin="round"/>
<path opacity="0.4" d="M70.8933 14.0732V31.5671" stroke="#B6BFC7" stroke-width="1.69867" stroke-miterlimit="10" stroke-linecap="round" stroke-linejoin="round"/>
<path opacity="0.4" d="M70.8933 2V7.66703" stroke="#B6BFC7" stroke-width="1.69867" stroke-miterlimit="10" stroke-linecap="round" stroke-linejoin="round"/>
<path d="M66.7869 53.0855L34.5916 76L2.80688 53.0855V2H66.7869V53.0855Z" stroke="#153150" stroke-width="2.54801" stroke-miterlimit="10" stroke-linecap="round" stroke-linejoin="round"/>
<path opacity="0.2" d="M54.6182 37.7304C54.6405 25.4379 44.6936 15.4548 32.4011 15.4325C20.1087 15.4101 10.1255 25.357 10.1032 37.6495C10.0809 49.942 20.0278 59.9251 32.3202 59.9474C44.6127 59.9698 54.5958 50.0229 54.6182 37.7304Z" fill="black"/>
<path d="M56.6025 33.5277C56.6246 21.3713 46.7878 11.4986 34.6314 11.4765C22.475 11.4545 12.6024 21.2912 12.5803 33.4476C12.5582 45.604 22.395 55.4767 34.5514 55.4987C46.7078 55.5208 56.5804 45.684 56.6025 33.5277Z" fill="white" stroke="#153150" stroke-width="1.69867" stroke-miterlimit="10" stroke-linecap="round" stroke-linejoin="round"/>
<path d="M56.8491 33.528C56.8715 21.2355 46.9246 11.2524 34.6321 11.2301C22.3396 11.2077 12.3565 21.1546 12.3342 33.4471C12.3118 45.7396 22.2587 55.7227 34.5512 55.745C46.8437 55.7674 56.8268 45.8205 56.8491 33.528Z" fill="white"/>
<path d="M56.6025 33.5277C56.6246 21.3713 46.7878 11.4986 34.6314 11.4765C22.475 11.4545 12.6024 21.2912 12.5803 33.4476C12.5582 45.604 22.395 55.4767 34.5514 55.4987C46.7078 55.5208 56.5804 45.684 56.6025 33.5277Z" stroke="#153150" stroke-width="2.39173" stroke-miterlimit="10" stroke-linecap="round" stroke-linejoin="round"/>
<path d="M34.7556 27.7893L36.9731 31.0745L40.669 32.3886" stroke="white" stroke-width="2.30247" stroke-miterlimit="10" stroke-linecap="round" stroke-linejoin="round"/>
<path d="M43.1911 47.3381L34.6559 43.9658L26.1207 46.5887L26.2145 37.5959L20.6807 30.1018L29.3097 27.8536L34.4683 20.6406L39.627 28.322L48.3498 31.3196L42.9098 38.3453L43.1911 47.3381Z" fill="#F8D277"/>
<path d="M43.1913 48.2747C43.0975 48.2747 43.0037 48.2747 42.8161 48.181L34.5622 44.996L26.4022 47.5253C26.1208 47.6189 25.8394 47.5253 25.558 47.3379C25.2767 47.1506 25.1829 46.8695 25.1829 46.5885L25.2767 37.8767L19.9304 30.6637C19.7428 30.3827 19.649 30.1017 19.8366 29.8206C19.9304 29.5396 20.2118 29.2586 20.4932 29.2586L28.8408 27.104L33.7181 20.1721C33.9057 19.891 34.1871 19.7974 34.4684 19.7974C34.7498 19.7974 35.0312 19.9847 35.2188 20.1721L40.2836 27.5724L48.6313 30.4764C48.9127 30.57 49.1003 30.8511 49.194 31.1321C49.2878 31.4131 49.194 31.6941 49.0065 31.9752L43.754 38.6261L44.0354 47.3379C44.0354 47.619 43.9416 47.9936 43.6602 48.0873C43.5664 48.2747 43.3788 48.2747 43.1913 48.2747ZM34.656 43.0289C34.7498 43.0289 34.8436 43.0289 35.0312 43.1225L42.2533 45.9328L41.9719 38.2514C41.9719 38.0641 42.0657 37.783 42.1595 37.6894L46.7554 31.7878L39.3457 29.2586C39.1581 29.1649 38.9705 29.0712 38.8767 28.8839L34.3746 22.3266L30.0601 28.4155C29.9663 28.6028 29.7788 28.6965 29.4974 28.7902L22.1815 30.6637L26.8712 37.0336C26.9649 37.221 27.0587 37.4083 27.0587 37.5957V45.3707L34.3746 43.1225C34.4684 43.1225 34.5622 43.0289 34.656 43.0289Z" fill="#C6A85F"/>
</g>
</svg>
