<svg width="35" height="34" viewBox="0 0 35 34" fill="none" xmlns="http://www.w3.org/2000/svg">
<g clip-path="url(#clip0)">
<g clip-path="url(#clip1)">
<path d="M0.655029 17.4137V23.9655C0.655029 24.3586 0.786064 24.6861 1.04813 24.9482L5.63434 29.5344C5.89641 29.7965 6.224 29.9275 6.6171 29.9275H13.1688C13.5619 29.9275 13.8895 29.7965 14.1516 29.5344L18.7378 24.9482C18.9999 24.6861 19.1309 24.3586 19.1309 23.9655V17.4137C19.1309 17.0206 18.9999 16.693 18.7378 16.431L14.1516 11.8448C14.0861 11.7792 14.0205 11.7137 13.955 11.7137C13.693 11.5172 13.4309 11.4517 13.1033 11.4517H6.55158C6.15848 11.4517 5.83089 11.5827 5.56882 11.8448L0.982616 16.431C0.786064 16.6275 0.655029 17.0206 0.655029 17.4137Z" fill="#E4ECF7"/>
<path d="M14.0205 11.6482V13.8758L17.1653 17.0206C17.4274 17.2827 17.5584 17.6103 17.5584 18.0034V21.5413L19.2619 23.1792V17.4137C19.2619 17.0206 19.1309 16.693 18.8688 16.431L14.2826 11.8447C14.1515 11.7137 14.086 11.6482 14.0205 11.6482Z" fill="#D2DAEB"/>
<path d="M13.2345 30.5826H6.68276C6.15862 30.5826 5.63448 30.386 5.24138 29.9929L0.655172 25.4067C0.196552 25.0136 0 24.4895 0 23.8998V17.4136C0 16.8895 0.196552 16.3654 0.589655 15.9722L5.17586 11.386C5.56897 10.9929 6.0931 10.7964 6.61724 10.7964H13.169C13.6931 10.7964 14.2172 10.9929 14.6103 11.386L19.1966 15.9722C19.5897 16.3654 19.7862 16.8895 19.7862 17.4136V23.9654C19.7862 24.4895 19.5897 25.0136 19.1966 25.4067L14.6103 29.9929C14.2828 30.386 13.7586 30.5826 13.2345 30.5826ZM6.68276 12.0412C6.48621 12.0412 6.28965 12.1067 6.15862 12.2378L1.57241 16.824C1.37586 17.0205 1.31034 17.2171 1.31034 17.4136V23.9654C1.31034 24.1619 1.37586 24.3585 1.5069 24.4895L6.0931 29.0757C6.22414 29.2067 6.42069 29.2722 6.61724 29.2722H13.169C13.3655 29.2722 13.5621 29.2067 13.6931 29.0757L18.2793 24.4895C18.4103 24.3585 18.4759 24.1619 18.4759 23.9654V17.4136C18.4759 17.2171 18.4103 17.0205 18.2793 16.8895L13.6931 12.3033C13.5621 12.1722 13.3655 12.1067 13.169 12.1067H6.68276V12.0412Z" fill="#153150"/>
<path d="M2.16211 17.9381V23.1795C2.16211 23.5726 2.29314 23.9002 2.55521 24.1623L6.22418 27.8312C6.48625 28.0933 6.87935 28.2243 7.20694 28.2243H12.4483C12.8414 28.2243 13.169 28.0933 13.4311 27.8312L17.1 24.1623C17.3621 23.9002 17.4931 23.5071 17.4931 23.1795V17.9381C17.4931 17.545 17.3621 17.2174 17.1 16.9554L13.4311 13.2864C13.169 13.0243 12.7759 12.8933 12.4483 12.8933H7.20694C6.81383 12.8933 6.48625 13.0243 6.22418 13.2864L2.55521 16.9554C2.29314 17.2174 2.16211 17.545 2.16211 17.9381Z" fill="#EE4847"/>
<path d="M14.0205 13.8103V17.2172C14.0205 17.7413 14.2171 18.2 14.6102 18.5931L17.5584 21.4758V17.9379C17.5584 17.5448 17.4274 17.2172 17.1653 16.9551L14.0205 13.8103Z" fill="#D9373E"/>
<path d="M2.16211 17.3483V23.7035L2.75176 24.2932V18.4621C2.75176 18.069 2.8828 17.7414 3.14487 17.4794L6.87935 13.7449C7.14142 13.4828 7.46901 13.3518 7.86211 13.3518H13.6931L13.038 12.8276H6.6828L2.16211 17.3483Z" fill="#D9373E"/>
<path d="M5.56885 20.7551V18.1999C5.56885 17.3482 6.94471 17.3482 6.94471 18.1999V20.362V17.4137C6.94471 16.431 8.51712 16.431 8.51712 17.4137V20.5586V16.7586C8.51712 15.7758 10.0895 15.7758 10.0895 16.7586V20.493V17.3482C10.0895 16.3654 11.662 16.3654 11.662 17.3482V21.7379L13.2344 20.6896C13.8895 20.2965 14.6102 21.0172 14.1516 21.6068C13.4964 22.5241 12.6447 24.031 11.8585 24.8172C10.024 26.7172 5.56885 26.3896 5.56885 23.3103V20.7551Z" fill="#D9373E"/>
<path d="M6.09302 19.9689V17.4137C6.09302 16.562 7.40336 16.562 7.40336 17.4137V19.5758V16.6275C7.40336 15.6447 8.91026 15.6447 8.91026 16.6275V19.7723V16.0379C8.91026 15.0551 10.4172 15.0551 10.4172 16.0379V19.7723V16.6275C10.4172 15.6447 11.9241 15.6447 11.9241 16.6275V21.0172L13.4309 19.9689C14.0206 19.5758 14.6758 20.2965 14.2827 20.8861C13.6275 21.8034 12.8413 23.3103 12.1206 24.0965C10.4172 25.9965 6.15853 25.6689 6.15853 22.5896V19.9689H6.09302Z" fill="white"/>
<path d="M9.17252 25.6035C8.64838 25.6035 8.18976 25.538 7.66562 25.3414C6.4208 24.8828 5.76562 23.8346 5.76562 22.5242V17.4139C5.76562 16.6277 6.48631 16.3001 7.07597 16.4966C7.14149 15.6449 7.99321 15.3173 8.64838 15.6449C8.97597 14.7932 10.3518 14.7932 10.6794 15.6449C11.3346 15.3173 12.2518 15.7104 12.2518 16.6277V20.4277L13.2346 19.7725C13.6277 19.5104 14.0863 19.5104 14.4794 19.838C14.807 20.1656 14.8725 20.6897 14.6105 21.0828C14.4139 21.4104 14.1518 21.8035 13.8898 22.1966C13.4311 22.9828 12.907 23.769 12.3829 24.3587C11.5311 25.1449 10.3518 25.6035 9.17252 25.6035ZM6.74838 17.0863C6.68287 17.0863 6.4208 17.0863 6.4208 17.4139V22.5242C6.4208 23.9001 7.33804 24.4897 7.92769 24.6863C9.23804 25.2104 10.9415 24.8173 11.7932 23.8346C12.2518 23.3104 12.776 22.5242 13.2346 21.8035C13.4967 21.4104 13.7587 21.0173 13.9553 20.6897C14.0863 20.4932 14.0208 20.3621 13.9553 20.2966C13.8898 20.2311 13.7587 20.1656 13.5622 20.2966L12.0553 21.3449C11.9242 21.4104 11.7932 21.4104 11.7277 21.3449C11.5967 21.2794 11.5311 21.1483 11.5311 21.0828V16.6932C11.5311 16.3001 11.2036 16.3001 11.138 16.3001C11.0725 16.3001 10.7449 16.3001 10.7449 16.6932V19.838C10.7449 20.0346 10.6139 20.1656 10.4173 20.1656C10.2208 20.1656 10.0898 20.0346 10.0898 19.838V16.1035C10.0898 15.7104 9.76218 15.7104 9.69666 15.7104C9.63114 15.7104 9.30356 15.7104 9.30356 16.1035V19.838C9.30356 20.0346 9.17252 20.1656 8.97597 20.1656C8.77942 20.1656 8.64838 20.0346 8.64838 19.838V16.6932C8.64838 16.3001 8.3208 16.3001 8.25528 16.3001C8.18976 16.3001 7.86218 16.3001 7.86218 16.6932V19.6414C7.86218 19.838 7.73114 19.969 7.53459 19.969C7.33804 19.969 7.207 19.838 7.207 19.6414V17.4139C7.07597 17.1518 6.8139 17.0863 6.74838 17.0863Z" fill="#153150"/>
<path d="M20.9652 4.31055H27.517C27.9101 4.31055 28.2377 4.44158 28.4997 4.70365L33.0859 9.28986C33.348 9.55193 33.479 9.94503 33.479 10.2726V16.8243C33.479 17.2174 33.348 17.545 33.0859 17.8071L28.4997 22.3933C28.2377 22.6554 27.8446 22.7864 27.517 22.7864H20.9652C20.5721 22.7864 20.2446 22.6554 19.9825 22.3933L15.3963 17.8071C15.1342 17.545 15.0032 17.1519 15.0032 16.8243V10.2726C15.0032 9.87951 15.1342 9.55193 15.3963 9.28986L19.9825 4.70365C20.2446 4.44158 20.6377 4.31055 20.9652 4.31055Z" fill="white"/>
<path d="M27.5171 23.507H20.9654C20.4412 23.507 19.9171 23.3104 19.524 22.9173L14.9378 18.3311C14.5447 17.938 14.3481 17.4139 14.3481 16.8898V10.338C14.3481 9.81389 14.5447 9.28976 14.9378 8.89665L19.524 4.31045C19.9171 3.85183 20.4412 3.65527 20.9654 3.65527H27.5171C28.0412 3.65527 28.5654 3.85183 28.9585 4.24493L33.5447 8.83114C33.9378 9.22424 34.1343 9.74838 34.1343 10.2725V16.8242C34.1343 17.3484 33.9378 17.8725 33.5447 18.2656L28.9585 22.8518C28.5654 23.3104 28.0412 23.507 27.5171 23.507ZM20.9654 4.96562C20.7688 4.96562 20.5723 5.03114 20.4412 5.16217L15.855 9.74838C15.724 9.87941 15.6585 10.076 15.6585 10.2725V16.8242C15.6585 17.0208 15.724 17.2173 15.855 17.3484L20.4412 21.9346C20.5723 22.0656 20.7688 22.1311 20.9654 22.1311H27.5171C27.7137 22.1311 27.9102 22.0656 28.0412 21.9346L32.6275 17.3484C32.7585 17.2173 32.824 17.0208 32.824 16.8242V10.2725C32.824 10.076 32.7585 9.87941 32.6275 9.74838L28.0412 5.16217C27.9102 5.03114 27.7137 4.96562 27.5171 4.96562H20.9654Z" fill="#153150"/>
<path d="M16.4448 10.8622V16.1036C16.4448 16.4967 16.5759 16.8243 16.8379 17.0863L20.5069 20.7553C20.769 21.0174 21.1621 21.1484 21.4897 21.1484H26.731C27.1241 21.1484 27.4517 21.0174 27.7138 20.7553L31.3828 17.0863C31.6448 16.8243 31.7759 16.4312 31.7759 16.1036V10.8622C31.7759 10.4691 31.6448 10.1415 31.3828 9.87945L27.7138 6.21049C27.4517 5.94842 27.0586 5.81738 26.731 5.81738H21.4897C21.0965 5.81738 20.769 5.94842 20.5069 6.21049L16.8379 9.87945C16.5759 10.1415 16.4448 10.5346 16.4448 10.8622Z" fill="#EE4847"/>
<path d="M16.4448 10.2724V16.6276L17.0345 17.2172V11.3862C17.0345 11.0586 17.1655 10.731 17.4276 10.469L21.1621 6.73447C21.4241 6.4724 21.7517 6.34136 22.0793 6.34136H27.9103L27.3207 5.75171H20.9655L16.4448 10.2724Z" fill="#D9373E"/>
<path d="M18.9346 11.6484L17.1001 16.2346H18.5415L18.9346 15.3829H20.1794L20.5725 16.2346H22.0139L20.1794 11.6484H18.9346Z" fill="#D9373E"/>
<path d="M24.6348 11.6482C22.4072 11.6482 22.4072 11.6482 22.4072 11.6482V16.1689C22.4072 16.1689 22.4072 16.1689 24.6348 16.1689C26.8624 16.1689 26.8624 11.6482 24.6348 11.6482Z" fill="#D9373E"/>
<path d="M28.8931 13.4172C28.5655 13.2861 28.3034 13.1551 28.3034 12.9585C28.3034 12.8275 28.4345 12.762 28.631 12.762C28.8931 12.762 29.0896 12.893 29.2862 13.0896L29.4172 13.2206L30.2034 12.3034C30.2034 12.3034 30.2034 12.3034 30.1379 12.1723C29.9414 11.9758 29.4828 11.6482 28.7621 11.6482C27.8448 11.6482 27.1241 12.2378 27.1241 13.0241C27.1241 13.8758 27.8448 14.2034 28.4345 14.4654C28.7621 14.5965 29.0241 14.7275 29.0241 14.9241C29.0241 15.0551 28.8931 15.1861 28.631 15.1861C28.3034 15.1861 27.9759 15.0551 27.7138 14.7275L27.5172 14.5965L26.8621 15.5792L26.9276 15.6447C27.1241 15.8413 27.6483 16.2344 28.5 16.2344C29.6793 16.2344 30.2034 15.5137 30.2034 14.8585C30.2034 14.0068 29.4827 13.6792 28.8931 13.4172Z" fill="#D9373E"/>
<path d="M18.0173 15.5139L19.8518 10.9932H21.0311L22.8656 15.5139H21.4897L21.0311 14.6621H19.8518L19.3932 15.5139H18.0173Z" fill="white" stroke="#153150" stroke-width="0.655172" stroke-miterlimit="10"/>
<path d="M20.8999 13.8103H19.9827L20.4413 12.6965L20.8999 13.8103Z" fill="#153150"/>
<path d="M23.3242 10.9932V15.5139C23.3242 15.5139 23.3242 15.5139 25.5518 15.5139C27.7794 15.5139 27.7794 10.9932 25.5518 10.9932C23.3242 10.9932 23.3242 10.9932 23.3242 10.9932Z" fill="white" stroke="#153150" stroke-width="0.655172" stroke-miterlimit="10"/>
<path d="M24.3069 12.1724V14.3999C24.3069 14.3999 24.3069 14.3999 25.4207 14.3999C26.5345 14.3999 26.5345 12.1724 25.4207 12.1724C24.3069 12.1724 24.3069 12.1724 24.3069 12.1724Z" fill="#D9373E" stroke="#153150" stroke-width="0.655172" stroke-miterlimit="10"/>
<path d="M29.3518 15.5139C28.5001 15.5139 27.9759 15.1864 27.7794 14.9243L27.7139 14.8588L28.369 13.876L28.5001 14.007C28.8277 14.3346 29.0897 14.4657 29.4173 14.4657C29.6794 14.4657 29.8104 14.4001 29.8104 14.2036C29.8104 14.007 29.4828 13.876 29.2208 13.745C28.6966 13.4829 27.9104 13.1553 27.9104 12.3036C27.9104 11.5174 28.6311 10.9277 29.5483 10.9277C30.269 10.9277 30.9897 11.5829 30.9897 11.5829L30.2035 12.5001L30.138 12.3691C29.9415 12.1726 29.7449 12.0415 29.4828 12.0415C29.2863 12.0415 29.1552 12.107 29.1552 12.2381C29.1552 12.4346 29.4173 12.5657 29.7449 12.6967C30.269 12.9588 30.9897 13.2864 30.9897 14.1381C31.0552 14.8588 30.5311 15.5139 29.3518 15.5139Z" fill="white" stroke="#153150" stroke-width="0.655172" stroke-miterlimit="10"/>
<path d="M19.7863 17.2173L30.7932 28.2242L28.238 30.8449L17.2311 19.838L6.22421 30.8449L3.60352 28.2242L14.6104 17.2173L3.60352 6.21045L6.22421 3.65527L17.2311 14.6622L28.238 3.65527L30.7932 6.21045L19.7863 17.2173Z" fill="white" fill-opacity="0.85"/>
<path d="M6.22435 31.5C6.0278 31.5 5.89676 31.4345 5.76573 31.3034L3.21056 28.7483C2.94849 28.4862 2.94849 28.0931 3.21056 27.831L13.7588 17.2828L3.14504 6.66897C2.88297 6.4069 2.88297 6.01379 3.14504 5.75172L5.70021 3.19655C5.96228 2.93448 6.35538 2.93448 6.61745 3.19655L17.1657 13.7448L27.7795 3.19655C28.0416 2.93448 28.4347 2.93448 28.6968 3.19655L31.2519 5.75172C31.383 5.88276 31.4485 6.07931 31.4485 6.21034C31.4485 6.34138 31.383 6.53793 31.2519 6.66897L20.7037 17.2172L31.2519 27.7655C31.383 27.8966 31.4485 28.0276 31.4485 28.2241C31.4485 28.4207 31.383 28.5517 31.2519 28.6828L28.6968 31.2379C28.4347 31.5 28.0416 31.5 27.7795 31.2379L17.2312 20.7552L6.68297 31.3034C6.55193 31.4345 6.35538 31.5 6.22435 31.5ZM17.2312 19.1828C17.4278 19.1828 17.5588 19.2483 17.6899 19.3793L28.2381 29.8621L29.8761 28.2241L19.3278 17.6759C19.1968 17.5448 19.1312 17.4138 19.1312 17.2172C19.1312 17.0207 19.1968 16.8897 19.3278 16.7586L29.8761 6.21034L28.2381 4.57241L17.6899 15.1207C17.4278 15.3828 17.0347 15.3828 16.7726 15.1207L6.22435 4.57241L4.58642 6.21034L15.0692 16.7586C15.3312 17.0207 15.3312 17.4138 15.0692 17.6759L4.58642 28.2241L6.22435 29.8621L16.7726 19.3793C16.9037 19.2483 17.0347 19.1828 17.2312 19.1828Z" fill="#153150"/>
</g>
</g>
<defs>
<clipPath id="clip0">
<rect y="3" width="34.2" height="28.5" fill="white"/>
</clipPath>
<clipPath id="clip1">
<rect y="3" width="34.2" height="28.5" fill="white"/>
</clipPath>
</defs>
</svg>
