<svg width="34" height="34" viewBox="0 0 34 34" fill="none" xmlns="http://www.w3.org/2000/svg">
<path d="M8.84521 13.7271L18.0375 18.943L10.1341 32.3966C9.73049 33.0837 8.71793 33.0572 8.36227 32.3503L6.36514 28.3806L1.86861 28.6656C1.06784 28.7164 0.538246 27.8678 0.941882 27.1807L8.84521 13.7271Z" fill="#F4CFD3"/>
<path fill-rule="evenodd" clip-rule="evenodd" d="M12.3628 28.6033C8.75085 27.6959 5.67823 25.4641 3.71216 22.4654L8.84548 13.7271L18.0377 18.943L12.3628 28.6033Z" fill="#FCECEE"/>
<path d="M1.37675 27.4274L9.02683 14.4049L17.3493 19.1273L9.69926 32.1498C9.49744 32.4934 8.99116 32.4802 8.81333 32.1267L6.8162 28.157C6.72676 27.9792 6.53803 27.8721 6.33665 27.8849L1.84011 28.1699C1.43973 28.1953 1.17493 27.771 1.37675 27.4274Z" stroke="#F5BDC3" stroke-linejoin="round"/>
<path d="M25.1548 13.7271L15.9625 18.943L23.8659 32.3966C24.2695 33.0837 25.2821 33.0572 25.6377 32.3503L27.6349 28.3806L32.1314 28.6656C32.9322 28.7164 33.4618 27.8678 33.0581 27.1807L25.1548 13.7271Z" fill="#F4CFD3"/>
<path fill-rule="evenodd" clip-rule="evenodd" d="M21.6273 28.5857L15.9626 18.943L25.1549 13.7271L30.2505 22.4011C28.2988 25.4129 25.2349 27.6607 21.6273 28.5857Z" fill="#FCECEE"/>
<path d="M32.6232 27.4274L24.9732 14.4049L16.6507 19.1273L24.3007 32.1498C24.5026 32.4934 25.0088 32.4802 25.1867 32.1267L27.1838 28.157C27.2732 27.9792 27.462 27.8721 27.6633 27.8849L32.1599 28.1699C32.5603 28.1953 32.8251 27.771 32.6232 27.4274Z" stroke="#F5BDC3" stroke-linejoin="round"/>
<path d="M29.0916 10.975L29.5447 10.7636L29.0916 10.975L30.0797 13.0929C30.2672 13.4949 30.2672 13.9593 30.0797 14.3612L29.0916 16.4791C28.9711 16.7374 28.8956 17.0144 28.8685 17.2982L28.6463 19.6223C28.6044 20.0603 28.3723 20.4579 28.0114 20.7097L26.0583 22.0722C25.828 22.2329 25.6264 22.4312 25.462 22.6588L24.0706 24.5854C23.817 24.9365 23.4239 25.1609 22.9925 25.2008L20.5801 25.4235C20.3045 25.449 20.0351 25.52 19.7828 25.6337L17.5764 26.628C17.1845 26.8046 16.7357 26.8046 16.3438 26.628L14.1374 25.6337C13.8851 25.52 13.6157 25.449 13.3401 25.4235L10.9277 25.2008C10.4963 25.1609 10.1032 24.9365 9.8496 24.5854L8.45821 22.6588C8.29379 22.4312 8.0922 22.2329 7.86189 22.0722L5.90884 20.7097C5.54791 20.4579 5.31575 20.0603 5.27387 19.6223L5.05168 17.2982C5.02455 17.0144 4.94911 16.7374 4.8286 16.4791L3.84053 14.3612C3.65298 13.9593 3.65298 13.4949 3.84053 13.0929L4.8286 10.975C4.94911 10.7167 5.02455 10.4397 5.05168 10.156L5.27387 7.83187C5.31575 7.39378 5.54791 6.99619 5.90884 6.7444L7.86189 5.38193C8.0922 5.22126 8.29379 5.02294 8.45821 4.79529L9.8496 2.86877C10.1032 2.51759 10.4963 2.2932 10.9277 2.25337L13.3401 2.03059C13.6157 2.00515 13.8851 1.93413 14.1374 1.82045L16.3438 0.826135C16.7357 0.649545 17.1845 0.649545 17.5764 0.826135L19.7828 1.82045L19.9869 1.36761L19.7828 1.82045C20.0351 1.93413 20.3045 2.00515 20.5801 2.03059L22.9925 2.25337C23.4239 2.2932 23.817 2.51759 24.0706 2.86877L25.462 4.79529C25.6264 5.02294 25.828 5.22126 26.0583 5.38193L28.0114 6.7444C28.3723 6.99619 28.6044 7.39378 28.6463 7.83187L28.8685 10.156C28.8956 10.4397 28.9711 10.7167 29.0916 10.975Z" fill="white" stroke="#5F45F1"/>
<path d="M22.975 21.5363C21.9615 22.3448 20.7986 22.9458 19.5528 23.3049C18.307 23.664 17.0026 23.7742 15.7142 23.6293" stroke="#C9C0FF" stroke-width="1.57863" stroke-linecap="round" stroke-linejoin="round"/>
<path d="M9.36056 7.33154C10.6261 5.92069 12.2658 4.89777 14.0895 4.38155" stroke="#C9C0FF" stroke-width="1.72265" stroke-linecap="round" stroke-linejoin="round"/>
<path d="M17.5174 4.01508C17.8924 4.03368 18.266 4.07335 18.6366 4.1339" stroke="#C9C0FF" stroke-width="1.72265" stroke-linecap="round" stroke-linejoin="round"/>
<path fill-rule="evenodd" clip-rule="evenodd" d="M7.18311 11.0412C7.18311 10.6311 7.51555 10.2987 7.92563 10.2987H9.06798C10.4244 10.2987 11.524 11.3983 11.524 12.7547V14.3343C11.524 15.6907 10.4244 16.7903 9.06798 16.7903H8.66816V18.9411C8.66816 19.3512 8.33572 19.6837 7.92563 19.6837C7.51555 19.6837 7.18311 19.3512 7.18311 18.9411V11.0412ZM8.66816 15.0766H9.06798C9.60424 15.0766 10.039 14.6419 10.039 14.1056V12.9834C10.039 12.4471 9.60424 12.0124 9.06798 12.0124H8.66816V15.0766Z" fill="#C9C0FF"/>
<path fill-rule="evenodd" clip-rule="evenodd" d="M22.6197 11.0412C22.6197 10.6311 22.9522 10.2987 23.3622 10.2987H24.5046C25.861 10.2987 26.9606 11.3983 26.9606 12.7547V14.3343C26.9606 15.6907 25.861 16.7903 24.5046 16.7903H24.1048V18.9726C24.1048 19.3827 23.7723 19.7151 23.3622 19.7151C22.9522 19.7151 22.6197 19.3827 22.6197 18.9726V11.0412ZM24.1048 15.0766H24.5046C25.0409 15.0766 25.4756 14.6419 25.4756 14.1056V12.9834C25.4756 12.4471 25.0409 12.0124 24.5046 12.0124H24.1048V15.0766Z" fill="#C9C0FF"/>
<path fill-rule="evenodd" clip-rule="evenodd" d="M13.1232 10.7996C13.4302 9.85065 14.7727 9.85065 15.0797 10.7996C15.4588 11.9719 16.3072 13.8192 16.3072 13.8192C16.3072 13.8192 16.3073 14.9757 16.3073 14.9861C16.3073 15.0928 16.2907 15.1996 16.2574 15.3025L15.0797 18.9438C14.7727 19.8928 13.4302 19.8928 13.1232 18.9438L11.9454 15.3025C11.9122 15.1996 11.8956 15.0928 11.8956 14.9861C11.8956 14.9757 11.8957 13.8192 11.8957 13.8192C11.8957 13.8192 12.7441 11.9719 13.1232 10.7996ZM14.1014 12.8295L13.4039 14.9861L14.1014 16.914L14.799 14.9861L14.1014 12.8295Z" fill="#C9C0FF"/>
<path fill-rule="evenodd" clip-rule="evenodd" d="M20.0827 10.9559C19.8003 9.95872 18.3868 9.95869 18.1043 10.9559L15.9247 17.8025V18.9545C15.9109 19.2899 16.1274 19.6034 16.4645 19.6989C16.859 19.8106 17.2695 19.5814 17.3812 19.1868L18.0372 16.871H20.1499L20.8058 19.1868C20.9175 19.5814 21.328 19.8106 21.7226 19.6989C22.0597 19.6034 22.2761 19.2899 22.2623 18.9545V17.8025L20.0827 10.9559ZM19.7292 15.386L19.0935 13.1415L18.4578 15.386H19.7292Z" fill="#C9C0FF"/>
<path d="M7.92578 17.8104V14.9171M7.92578 14.9171V10.1392H9.06813C10.0145 10.1392 10.7816 10.9063 10.7816 11.8527V13.2036C10.7816 14.1499 10.0145 14.9171 9.06813 14.9171H7.92578Z" stroke="#5F45F1" stroke-width="1.48505" stroke-linecap="round" stroke-linejoin="round"/>
<path d="M23.3623 17.8419V14.9171M23.3623 14.9171V10.1392H24.5047C25.451 10.1392 26.2182 10.9063 26.2182 11.8527V13.2036C26.2182 14.1499 25.451 14.9171 24.5047 14.9171H23.3623Z" stroke="#5F45F1" stroke-width="1.48505" stroke-linecap="round" stroke-linejoin="round"/>
<path d="M13.8297 10.126C13.915 9.8624 14.2879 9.8624 14.3732 10.126L15.551 13.7674C15.5694 13.8245 15.5694 13.886 15.551 13.9432L14.3732 17.5845C14.2879 17.8481 13.915 17.8481 13.8297 17.5845L12.652 13.9432C12.6335 13.886 12.6335 13.8245 12.652 13.7674L13.8297 10.126Z" stroke="#5F45F1" stroke-width="1.48505" stroke-linecap="round" stroke-linejoin="round"/>
<path d="M21.5204 17.8535L19.3685 10.256C19.29 9.979 18.8974 9.979 18.8189 10.256L16.667 17.8535" stroke="#5F45F1" stroke-width="1.48505" stroke-linecap="round" stroke-linejoin="round"/>
<path d="M17.5503 14.9978H20.5061" stroke="#5F45F1" stroke-width="1.48505" stroke-linecap="round" stroke-linejoin="round"/>
</svg>
