<svg width="70" height="24" viewBox="0 0 70 24" fill="none" xmlns="http://www.w3.org/2000/svg">
<path d="M28.2655 14.6924C27.5375 14.6922 26.82 14.8655 26.1724 15.1979C25.5247 15.5304 24.9657 16.0124 24.5416 16.6041C24.1175 17.1958 23.8405 17.88 23.7337 18.6001C23.6268 19.3202 23.6932 20.0554 23.9272 20.7447C24.1613 21.4341 24.5563 22.0577 25.0795 22.5639C25.6027 23.07 26.239 23.4442 26.9357 23.6553C27.6324 23.8665 28.3693 23.9085 29.0855 23.7779C29.8017 23.6473 30.4764 23.3479 31.0537 22.9045V23.8521H32.8453V19.2722C32.8453 18.0576 32.3628 16.8927 31.5039 16.0338C30.6451 15.1749 29.4802 14.6924 28.2655 14.6924ZM28.2655 22.0604C27.7141 22.0604 27.175 21.8969 26.7165 21.5905C26.258 21.2842 25.9006 20.8487 25.6896 20.3392C25.4785 19.8297 25.4233 19.2691 25.5309 18.7283C25.6385 18.1874 25.904 17.6906 26.294 17.3007C26.6839 16.9107 27.1807 16.6452 27.7216 16.5376C28.2624 16.43 28.823 16.4852 29.3325 16.6962C29.842 16.9073 30.2775 17.2647 30.5838 17.7232C30.8902 18.1817 31.0537 18.7208 31.0537 19.2722C31.0537 19.6384 30.9816 20.0009 30.8415 20.3392C30.7014 20.6775 30.496 20.9849 30.2371 21.2438C29.9782 21.5027 29.6708 21.7081 29.3325 21.8482C28.9942 21.9883 28.6317 22.0604 28.2655 22.0604Z" fill="#001D32"/>
<path d="M55.677 14.6924C55.004 14.6921 54.3393 14.8401 53.7301 15.126C53.1209 15.4118 52.5822 15.8285 52.1524 16.3463C51.7226 16.8641 51.4123 17.4703 51.2435 18.1217C51.0747 18.7731 51.0516 19.4538 51.1759 20.1151C51.3576 21.0866 51.8487 21.9733 52.5758 22.6426C53.303 23.312 54.2272 23.7281 55.2103 23.8289C56.1935 23.9297 57.1829 23.7098 58.0308 23.2019C58.8786 22.6941 59.5394 21.9255 59.9145 21.0112H57.8548C57.5394 21.405 57.123 21.706 56.6501 21.8819C56.1771 22.0579 55.6653 22.1022 55.1691 22.0103C54.673 21.9184 54.211 21.6936 53.8325 21.3599C53.4539 21.0262 53.173 20.5961 53.0195 20.1154H60.1784C60.3027 19.454 60.2796 18.7733 60.1108 18.1219C59.942 17.4704 59.6316 16.8642 59.2018 16.3463C58.7719 15.8285 58.2332 15.4118 57.624 15.1259C57.0147 14.8401 56.35 14.692 55.677 14.6924ZM53.0579 18.3236C53.2523 17.7848 53.608 17.3191 54.0767 16.9899C54.5454 16.6607 55.1043 16.484 55.677 16.484C56.2498 16.484 56.8086 16.6607 57.2773 16.9899C57.746 17.3191 58.1018 17.7848 58.2961 18.3236H53.0579Z" fill="#001D32"/>
<path d="M18.6631 14.7007C18.1444 14.7007 17.6307 14.8028 17.1515 15.0013C16.6722 15.1998 16.2368 15.4908 15.87 15.8576C15.5032 16.2244 15.2122 16.6599 15.0137 17.1391C14.8152 17.6184 14.713 18.132 14.713 18.6507H14.7007V23.8522H16.4924V18.6507H16.5047C16.5021 18.3657 16.5561 18.083 16.6634 17.8189C16.7708 17.5548 16.9293 17.3145 17.13 17.1121C17.3307 16.9096 17.5695 16.7489 17.8326 16.6392C18.0957 16.5295 18.378 16.4731 18.6631 16.4731C18.9481 16.4731 19.2304 16.5295 19.4935 16.6392C19.7566 16.7489 19.9954 16.9096 20.1961 17.1121C20.3968 17.3145 20.5554 17.5548 20.6627 17.8189C20.77 18.083 20.824 18.3657 20.8214 18.6507V23.8522H22.6131V18.6507C22.6131 17.6031 22.197 16.5984 21.4562 15.8577C20.7154 15.1169 19.7108 14.7007 18.6631 14.7007Z" fill="#001D32"/>
<path d="M38.2456 14.7007C37.198 14.7007 36.1932 15.1169 35.4525 15.8576C34.7117 16.5984 34.2955 17.6031 34.2955 18.6507H34.2832V23.8522H36.0748V18.6507H36.0871C36.0846 18.3657 36.1385 18.083 36.2459 17.8189C36.3532 17.5548 36.5118 17.3145 36.7124 17.1121C36.9131 16.9096 37.1519 16.7489 37.415 16.6392C37.6782 16.5295 37.9604 16.4731 38.2455 16.4731C38.5306 16.4731 38.8128 16.5295 39.0759 16.6392C39.3391 16.7489 39.5779 16.9096 39.7785 17.1121C39.9792 17.3145 40.1378 17.5548 40.2451 17.8189C40.3525 18.083 40.4064 18.3657 40.4039 18.6507V23.8522H42.1955V18.6507C42.1955 17.6032 41.7793 16.5985 41.0386 15.8577C40.2978 15.1169 39.2932 14.7007 38.2456 14.7007Z" fill="#001D32"/>
<path d="M65.2802 14.7007C64.2326 14.7007 63.2279 15.1169 62.4871 15.8576C61.7463 16.5984 61.3302 17.6031 61.3302 18.6507H61.3179V23.8522H63.1095V18.6507H63.1218C63.1192 18.3657 63.1732 18.083 63.2805 17.8189C63.3879 17.5548 63.5464 17.3145 63.7471 17.1121C63.9478 16.9096 64.1866 16.7489 64.4497 16.6392C64.7128 16.5295 64.9951 16.4731 65.2802 16.4731C65.5652 16.4731 65.8475 16.5295 66.1106 16.6392C66.3737 16.7489 66.6125 16.9096 66.8132 17.1121C67.0139 17.3145 67.1725 17.5548 67.2798 17.8189C67.3871 18.083 67.4411 18.3657 67.4386 18.6507V23.8522H69.2301V18.6507C69.2301 17.6032 68.814 16.5985 68.0733 15.8577C67.3325 15.1169 66.3278 14.7007 65.2802 14.7007Z" fill="#001D32"/>
<path d="M45.183 17.2483C45.183 16.6405 45.7086 16.2298 46.7106 16.2298C47.7291 16.2298 48.3371 16.772 48.4027 17.5604H50.2756C50.1771 15.7535 48.83 14.6528 46.7766 14.6528C44.6411 14.6528 43.2939 15.8192 43.2939 17.2648C43.2939 20.5831 48.5509 19.5646 48.5509 21.3387C48.5509 21.9627 47.976 22.423 46.8918 22.423C45.8568 22.423 45.1504 21.8151 45.0848 21.0758H43.146C43.2281 22.7187 44.7559 24 46.9242 24C49.0597 24 50.3904 22.8501 50.3904 21.3223C50.2918 18.0536 45.183 19.0718 45.183 17.2483Z" fill="#001D32"/>
<path d="M5.1097 13.1017C3.71799 11.818 1.89332 11.1065 0 11.1091V7.54725C2.79945 7.5433 5.49644 8.6001 7.54795 10.5049L5.1097 13.1017Z" fill="#00C8A0"/>
<path d="M11.1098 0H7.54795C7.54795 0.991211 7.35272 1.97272 6.9734 2.88848C6.59408 3.80424 6.0381 4.63632 5.33721 5.33721C4.63632 6.0381 3.80424 6.59408 2.88848 6.9734C1.97272 7.35272 0.991211 7.54795 0 7.54795V11.1098C1.45898 11.1099 2.90367 10.8225 4.2516 10.2642C5.59952 9.70592 6.82427 8.88758 7.85592 7.85593C8.88758 6.82427 9.70592 5.59952 10.2642 4.2516C10.8225 2.90367 11.1099 1.45898 11.1098 0Z" fill="#00E3B4"/>
<path d="M7.54834 0H11.1102C11.1102 2.00184 11.9055 3.92169 13.321 5.33721C14.7365 6.75272 16.6563 7.54795 18.6582 7.54795V11.1098C17.1992 11.1099 15.7545 10.8225 14.4066 10.2642C13.0587 9.70589 11.8339 8.88755 10.8023 7.8559C9.77064 6.82425 8.95229 5.5995 8.39398 4.25158C7.83567 2.90366 7.54832 1.45897 7.54834 0Z" fill="#00C8A0"/>
<path d="M7.54834 18.6568H11.1102C11.1102 16.655 11.9055 14.7351 13.321 13.3196C14.7365 11.9041 16.6563 11.1089 18.6582 11.1089V7.54724C17.1992 7.54722 15.7546 7.83456 14.4067 8.39286C13.0588 8.95116 11.834 9.76948 10.8024 10.8011C9.77073 11.8327 8.95238 13.0574 8.39405 14.4053C7.83572 15.7532 7.54835 17.1979 7.54834 18.6568Z" fill="#00E3B4"/>
<path d="M7.54803 10.5048C8.67277 11.5438 9.56997 12.8045 10.183 14.2076C10.796 15.6107 11.1116 17.1256 11.1098 18.6568H7.54786C7.54908 17.6124 7.33295 16.5791 6.91323 15.6227C6.49351 14.6664 5.87937 13.8078 5.10986 13.1016L7.54803 10.5048Z" fill="#00C8A0"/>
</svg>
