<?xml version="1.0" encoding="utf-8"?>
<!-- Generator: Adobe Illustrator 19.2.1, SVG Export Plug-In . SVG Version: 6.00 Build 0)  -->
<svg version="1.1" id="layer" xmlns="http://www.w3.org/2000/svg" xmlns:xlink="http://www.w3.org/1999/xlink" x="0px" y="0px"
	 viewBox="0 0 652 652" style="enable-background:new 0 0 652 652;" xml:space="preserve">
<path d="M88.7,365.1l23-23.8l-28.6-38.6l-36.4-51.5c-13.3,22.7-20.3,48.5-20.2,74.8c0,45.2,20.2,85.6,52.1,112.8l46.2-32.7
	C109.1,396.3,96.5,382.1,88.7,365.1L88.7,365.1z M135.5,240.1l23.8,23l38.6-28.6l51.5-36.4c-22.7-13.3-48.5-20.3-74.8-20.2
	c-45.2,0-85.6,20.2-112.8,52.1l32.7,46.2C104.3,260.4,118.6,247.8,135.5,240.1L135.5,240.1z M237.6,310.7l28.6,38.6l36.4,51.5
	c13.3-22.7,20.3-48.5,20.2-74.8c0-45.2-20.2-85.6-52.1-112.8l-46.2,32.7c15.8,9.8,28.4,24.1,36.1,41L237.6,310.7L237.6,310.7z
	 M287.5,422l-32.7-46.2c-9.8,15.8-24.1,28.4-41,36.1l-23.8-23l-38.6,28.6l-51.5,36.4c22.7,13.3,48.5,20.3,74.8,20.2
	C219.8,474.1,260.3,453.9,287.5,422z"/>
<path d="M409.7,323.7c0-47.9,20-71.8,51.2-71.8c31,0,51.5,24.2,51.5,71.8c0,47.5-20.4,71.6-51.5,71.6
	C429.8,395.3,409.7,371.2,409.7,323.7z M460.7,267.5c-22.5,0-33.7,20.9-33.7,56.3c0,16.7,2.5,29.7,7.2,39.1l44.3-89.5
	C473.4,269.4,467.5,267.5,460.7,267.5z M443.3,374.3c5,3.8,10.7,5.7,17.5,5.7c22.5,0,33.9-21,33.9-56.2c0-16.3-2.4-29.2-7.2-38.9
	L443.3,374.3z M623.9,293.4l-28.5,47.9l31.2,51.6h-19.1l-25-41.7h-7.1l-25.5,41.7h-18.6l31.3-50.9l-28.1-48.6h18.1l23,39.5h7.2
	l23.6-39.5L623.9,293.4L623.9,293.4z"/>
</svg>
