<svg viewBox="0 0 345 150" xmlns="http://www.w3.org/2000/svg">
<rect width="345" height="150" rx="3" fill="white"/>
<path d="M30.752 72V54.648H36.74C37.876 54.648 38.844 54.756 39.644 54.972C40.452 55.188 41.112 55.496 41.624 55.896C42.144 56.296 42.524 56.78 42.764 57.348C43.004 57.916 43.124 58.556 43.124 59.268C43.124 59.676 43.064 60.068 42.944 60.444C42.824 60.812 42.636 61.16 42.38 61.488C42.132 61.808 41.812 62.1 41.42 62.364C41.036 62.628 40.576 62.852 40.04 63.036C42.424 63.572 43.616 64.86 43.616 66.9C43.616 67.636 43.476 68.316 43.196 68.94C42.916 69.564 42.508 70.104 41.972 70.56C41.436 71.008 40.776 71.36 39.992 71.616C39.208 71.872 38.312 72 37.304 72H30.752ZM33.98 64.392V69.48H37.256C37.856 69.48 38.356 69.408 38.756 69.264C39.164 69.12 39.488 68.928 39.728 68.688C39.976 68.448 40.152 68.168 40.256 67.848C40.368 67.528 40.424 67.188 40.424 66.828C40.424 66.452 40.364 66.116 40.244 65.82C40.124 65.516 39.936 65.26 39.68 65.052C39.424 64.836 39.096 64.672 38.696 64.56C38.296 64.448 37.812 64.392 37.244 64.392H33.98ZM33.98 62.16H36.56C37.656 62.16 38.488 61.96 39.056 61.56C39.624 61.16 39.908 60.524 39.908 59.652C39.908 58.748 39.652 58.104 39.14 57.72C38.628 57.336 37.828 57.144 36.74 57.144H33.98V62.16ZM48.9288 59.688V67.512C48.9288 68.264 49.1008 68.848 49.4448 69.264C49.7968 69.672 50.3208 69.876 51.0168 69.876C51.5288 69.876 52.0088 69.764 52.4568 69.54C52.9048 69.308 53.3288 68.992 53.7288 68.592V59.688H56.6928V72H54.8808C54.4968 72 54.2448 71.82 54.1248 71.46L53.9208 70.476C53.6648 70.732 53.4008 70.968 53.1288 71.184C52.8568 71.392 52.5648 71.572 52.2528 71.724C51.9488 71.868 51.6168 71.98 51.2568 72.06C50.9048 72.148 50.5248 72.192 50.1168 72.192C49.4448 72.192 48.8488 72.08 48.3288 71.856C47.8168 71.624 47.3848 71.3 47.0328 70.884C46.6808 70.468 46.4128 69.976 46.2288 69.408C46.0528 68.832 45.9648 68.2 45.9648 67.512V59.688H48.9288ZM64.2254 75.384C64.1374 75.592 64.0214 75.748 63.8774 75.852C63.7414 75.964 63.5294 76.02 63.2414 76.02H61.0334L63.3374 71.088L58.3574 59.688H60.9494C61.1894 59.688 61.3734 59.744 61.5014 59.856C61.6294 59.968 61.7254 60.096 61.7894 60.24L64.4174 66.624C64.5054 66.832 64.5814 67.048 64.6454 67.272C64.7094 67.496 64.7654 67.72 64.8134 67.944C64.8774 67.712 64.9454 67.488 65.0174 67.272C65.0974 67.056 65.1814 66.836 65.2694 66.612L67.7414 60.24C67.8054 60.08 67.9094 59.948 68.0534 59.844C68.2054 59.74 68.3734 59.688 68.5574 59.688H70.9334L64.2254 75.384ZM88.4069 54.648V57.216H80.7149V62.028H86.7749V64.512H80.7149V69.42H88.4069V72H77.4629V54.648H88.4069ZM103.425 54.648V57.3H98.2053V72H94.9773V57.3H89.7333V54.648H103.425ZM120.111 72H116.859V64.416H108.723V72H105.471V54.648H108.723V62.112H116.859V54.648H120.111V72Z" fill="#163150"/>
<path d="M41.304 90.896L38.68 99H37.552C37.4133 99 37.3173 98.9093 37.264 98.728L35.472 93.232C35.4293 93.1093 35.3947 92.9867 35.368 92.864C35.3413 92.736 35.3147 92.6107 35.288 92.488C35.2613 92.6107 35.2347 92.736 35.208 92.864C35.1813 92.9867 35.1467 93.112 35.104 93.24L33.28 98.728C33.232 98.9093 33.1253 99 32.96 99H31.888L29.264 90.896H30.384C30.496 90.896 30.5893 90.9253 30.664 90.984C30.744 91.0427 30.7973 91.112 30.824 91.192L32.376 96.408C32.4667 96.792 32.5387 97.1547 32.592 97.496C32.64 97.32 32.688 97.1413 32.736 96.96C32.7893 96.7787 32.8453 96.5947 32.904 96.408L34.616 91.16C34.6427 91.08 34.688 91.0133 34.752 90.96C34.8213 90.9067 34.904 90.88 35 90.88H35.624C35.7307 90.88 35.8187 90.9067 35.888 90.96C35.9573 91.0133 36.0053 91.08 36.032 91.16L37.704 96.408C37.7627 96.5947 37.816 96.7787 37.864 96.96C37.912 97.1413 37.9573 97.32 38 97.496C38.0267 97.32 38.0587 97.144 38.096 96.968C38.1387 96.7867 38.184 96.6 38.232 96.408L39.816 91.192C39.8427 91.1067 39.8933 91.0373 39.968 90.984C40.0427 90.9253 40.1307 90.896 40.232 90.896H41.304ZM44.1945 90.896V99H42.7705V90.896H44.1945ZM44.4985 88.352C44.4985 88.4907 44.4692 88.6213 44.4105 88.744C44.3572 88.8613 44.2825 88.968 44.1865 89.064C44.0958 89.1547 43.9865 89.2267 43.8585 89.28C43.7358 89.3333 43.6052 89.36 43.4665 89.36C43.3278 89.36 43.1972 89.3333 43.0745 89.28C42.9572 89.2267 42.8532 89.1547 42.7625 89.064C42.6718 88.968 42.5998 88.8613 42.5465 88.744C42.4932 88.6213 42.4665 88.4907 42.4665 88.352C42.4665 88.2133 42.4932 88.0827 42.5465 87.96C42.5998 87.832 42.6718 87.7227 42.7625 87.632C42.8532 87.536 42.9572 87.4613 43.0745 87.408C43.1972 87.3547 43.3278 87.328 43.4665 87.328C43.6052 87.328 43.7358 87.3547 43.8585 87.408C43.9865 87.4613 44.0958 87.536 44.1865 87.632C44.2825 87.7227 44.3572 87.832 44.4105 87.96C44.4692 88.0827 44.4985 88.2133 44.4985 88.352ZM49.0223 99.128C48.3823 99.128 47.8889 98.9493 47.5423 98.592C47.2009 98.2347 47.0303 97.72 47.0303 97.048V92.088H46.0543C45.9689 92.088 45.8969 92.064 45.8383 92.016C45.7796 91.9627 45.7503 91.8827 45.7503 91.776V91.208L47.0783 91.04L47.4062 88.536C47.4223 88.456 47.4569 88.392 47.5103 88.344C47.5689 88.2907 47.6436 88.264 47.7343 88.264H48.4543V91.056H50.7983V92.088H48.4543V96.952C48.4543 97.2933 48.5369 97.5467 48.7023 97.712C48.8676 97.8773 49.0809 97.96 49.3423 97.96C49.4916 97.96 49.6196 97.9413 49.7263 97.904C49.8383 97.8613 49.9343 97.816 50.0143 97.768C50.0943 97.72 50.1609 97.6773 50.2143 97.64C50.2729 97.5973 50.3236 97.576 50.3663 97.576C50.4409 97.576 50.5076 97.6213 50.5663 97.712L50.9823 98.392C50.7369 98.6213 50.4409 98.8027 50.0943 98.936C49.7476 99.064 49.3903 99.128 49.0223 99.128ZM53.7006 91.976C54.0473 91.608 54.4313 91.3147 54.8526 91.096C55.274 90.8773 55.7593 90.768 56.3086 90.768C56.7513 90.768 57.1406 90.8427 57.4766 90.992C57.818 91.136 58.1006 91.344 58.3246 91.616C58.554 91.8827 58.7273 92.2053 58.8446 92.584C58.962 92.9627 59.0206 93.3813 59.0206 93.84V99H57.5886V93.84C57.5886 93.2267 57.4473 92.752 57.1646 92.416C56.8873 92.0747 56.4633 91.904 55.8926 91.904C55.4713 91.904 55.0766 92.0053 54.7086 92.208C54.346 92.4107 54.01 92.6853 53.7006 93.032V99H52.2686V87.216H53.7006V91.976Z" fill="#282D32"/>
<path fill-rule="evenodd" clip-rule="evenodd" d="M158.386 89.809C159.726 89.809 160.964 89.5653 162.138 89.1067C162.148 89.1296 164.538 92.8419 164.572 92.8677C162.409 94.0302 160.149 94.5419 157.678 94.5419C150.332 94.5419 145 89.7015 145 81.9744C145 74.1914 150.604 69.351 157.678 69.351C160.196 69.351 162.181 69.8971 164.181 70.9664C163.96 71.3333 161.902 74.8278 161.895 74.8421C160.709 74.3706 159.442 74.1312 158.167 74.1398C153.814 74.1398 150.441 76.9147 150.441 81.9744C150.441 86.7617 153.705 89.809 158.386 89.809ZM176.913 69.351C184.15 69.351 189.373 74.4666 189.373 81.9744C189.373 89.4277 184.15 94.5419 176.913 94.5419C169.732 94.5419 164.509 89.4292 164.509 81.9744C164.509 74.4666 169.732 69.351 176.913 69.351ZM176.913 73.9764C172.888 73.9764 169.949 77.0781 169.949 81.9744C169.949 86.8176 172.887 89.9179 176.915 89.9179C181.05 89.9179 183.934 86.8176 183.934 81.9744C183.934 77.0781 181.05 73.9764 176.913 73.9764ZM192.802 93.9986V69.8943H198.187V93.9986H192.802ZM192.094 62.494C192.094 60.645 193.673 59.1772 195.468 59.1772C197.264 59.1772 198.84 60.645 198.84 62.4954C198.84 64.4003 197.264 65.9239 195.468 65.9239C193.673 65.9239 192.094 64.4003 192.094 62.4954V62.494ZM202.887 71.4193C206.259 70.1136 210.397 69.351 213.932 69.351C220.081 69.351 223.998 71.6902 223.998 78.4914V93.9986H218.666V78.9816C218.666 75.5 216.49 74.2473 213.496 74.2473C211.591 74.2473 209.689 74.5196 208.273 74.9554V93.9986H202.887V71.4193ZM228.509 57H233.894V70.5493C235.036 69.9502 237.267 69.351 239.388 69.351C246.354 69.351 251.576 73.8116 251.576 81.5387C251.576 89.3188 246.408 94.5419 237.486 94.5419C234.426 94.5333 231.388 94.0001 228.509 92.9652V57ZM233.894 89.4292C234.927 89.7545 236.288 89.9165 237.648 89.9165C242.599 89.9165 246.136 87.1975 246.136 81.6462C246.136 76.9678 242.818 74.1928 238.737 74.1928C236.616 74.1928 234.982 74.7375 233.892 75.3366L233.894 89.4292ZM267.136 77.8378C267.136 75.2263 265.176 74.0309 262.51 74.0309C259.735 74.0309 257.56 74.8464 255.547 75.9888V71.309C257.669 70.1136 260.388 69.351 263.382 69.351C268.658 69.351 272.412 71.5268 272.412 77.5655V93.5084C270.127 94.1061 266.865 94.4888 264.144 94.4888C257.886 94.4888 253.316 92.5839 253.316 87.143C253.316 82.2467 257.504 79.8531 264.468 79.8531H267.134L267.136 77.8378ZM267.136 83.4421H264.851C261.096 83.4421 258.648 84.5315 258.648 86.9796C258.648 89.4822 260.934 90.4612 264.197 90.4612C265.014 90.4612 266.157 90.3522 267.136 90.1888V83.4421ZM276.329 87.4698C278.561 89.1554 281.225 90.1888 283.674 90.1888C286.069 90.1888 287.647 89.3733 287.647 87.4698C287.647 85.509 286.232 84.8024 283.132 83.9868C278.125 82.8444 276.002 80.832 276.002 76.6424C276.002 71.7447 279.703 69.351 284.599 69.351C287.32 69.351 289.496 69.9502 291.508 71.2V76.1522C289.387 74.63 287.32 73.7041 284.763 73.7041C282.424 73.7041 281.172 74.8464 281.172 76.4245C281.172 78.0012 282.204 78.8182 284.981 79.5779C290.478 80.7761 292.87 82.8459 292.87 87.1975C292.87 92.2571 289.007 94.5419 283.784 94.5419C280.955 94.5419 278.125 93.7822 276.331 92.5839L276.329 87.4698ZM300.243 83.1712V83.2802C300.57 87.5773 304.268 89.9165 308.022 89.9165C311.341 89.9165 313.736 89.1554 316.129 87.5773V92.313C313.953 93.8352 310.742 94.5419 307.643 94.5419C300.134 94.5419 295.02 89.7545 295.02 82.1378C295.02 74.4666 300.024 69.3525 306.663 69.3525C313.68 69.3525 317 73.8675 317 80.4493V83.1727L300.243 83.1712ZM311.939 79.6882C311.831 75.9329 309.982 73.8675 306.499 73.8675C303.398 73.8675 301.113 76.0447 300.406 79.6897L311.939 79.6882Z" fill="#1652F0"/>
</svg>
