<svg viewBox="0 0 357 162" xmlns="http://www.w3.org/2000/svg">
<g filter="url(#filter0_d)">
<rect x="6" y="3" width="345" height="150" rx="3" fill="white"/>
</g>
<path d="M36.752 75V57.648H42.74C43.876 57.648 44.844 57.756 45.644 57.972C46.452 58.188 47.112 58.496 47.624 58.896C48.144 59.296 48.524 59.78 48.764 60.348C49.004 60.916 49.124 61.556 49.124 62.268C49.124 62.676 49.064 63.068 48.944 63.444C48.824 63.812 48.636 64.16 48.38 64.488C48.132 64.808 47.812 65.1 47.42 65.364C47.036 65.628 46.576 65.852 46.04 66.036C48.424 66.572 49.616 67.86 49.616 69.9C49.616 70.636 49.476 71.316 49.196 71.94C48.916 72.564 48.508 73.104 47.972 73.56C47.436 74.008 46.776 74.36 45.992 74.616C45.208 74.872 44.312 75 43.304 75H36.752ZM39.98 67.392V72.48H43.256C43.856 72.48 44.356 72.408 44.756 72.264C45.164 72.12 45.488 71.928 45.728 71.688C45.976 71.448 46.152 71.168 46.256 70.848C46.368 70.528 46.424 70.188 46.424 69.828C46.424 69.452 46.364 69.116 46.244 68.82C46.124 68.516 45.936 68.26 45.68 68.052C45.424 67.836 45.096 67.672 44.696 67.56C44.296 67.448 43.812 67.392 43.244 67.392H39.98ZM39.98 65.16H42.56C43.656 65.16 44.488 64.96 45.056 64.56C45.624 64.16 45.908 63.524 45.908 62.652C45.908 61.748 45.652 61.104 45.14 60.72C44.628 60.336 43.828 60.144 42.74 60.144H39.98V65.16ZM54.9288 62.688V70.512C54.9288 71.264 55.1008 71.848 55.4448 72.264C55.7968 72.672 56.3208 72.876 57.0168 72.876C57.5288 72.876 58.0088 72.764 58.4568 72.54C58.9048 72.308 59.3288 71.992 59.7288 71.592V62.688H62.6928V75H60.8808C60.4968 75 60.2448 74.82 60.1248 74.46L59.9208 73.476C59.6648 73.732 59.4008 73.968 59.1288 74.184C58.8568 74.392 58.5648 74.572 58.2528 74.724C57.9488 74.868 57.6168 74.98 57.2568 75.06C56.9048 75.148 56.5248 75.192 56.1168 75.192C55.4448 75.192 54.8488 75.08 54.3288 74.856C53.8168 74.624 53.3848 74.3 53.0328 73.884C52.6808 73.468 52.4128 72.976 52.2288 72.408C52.0528 71.832 51.9648 71.2 51.9648 70.512V62.688H54.9288ZM70.2254 78.384C70.1374 78.592 70.0214 78.748 69.8774 78.852C69.7414 78.964 69.5294 79.02 69.2414 79.02H67.0334L69.3374 74.088L64.3574 62.688H66.9494C67.1894 62.688 67.3734 62.744 67.5014 62.856C67.6294 62.968 67.7254 63.096 67.7894 63.24L70.4174 69.624C70.5054 69.832 70.5814 70.048 70.6454 70.272C70.7094 70.496 70.7654 70.72 70.8134 70.944C70.8774 70.712 70.9454 70.488 71.0174 70.272C71.0974 70.056 71.1814 69.836 71.2694 69.612L73.7414 63.24C73.8054 63.08 73.9094 62.948 74.0534 62.844C74.2054 62.74 74.3734 62.688 74.5574 62.688H76.9334L70.2254 78.384ZM94.4069 57.648V60.216H86.7149V65.028H92.7749V67.512H86.7149V72.42H94.4069V75H83.4629V57.648H94.4069ZM109.425 57.648V60.3H104.205V75H100.977V60.3H95.7333V57.648H109.425ZM126.111 75H122.859V67.416H114.723V75H111.471V57.648H114.723V65.112H122.859V57.648H126.111V75Z" fill="#163150"/>
<path d="M35.112 93.896H36.232C36.3493 93.896 36.4453 93.9253 36.52 93.984C36.5947 94.0427 36.6453 94.112 36.672 94.192L38.224 99.408C38.2667 99.6 38.3067 99.7867 38.344 99.968C38.3813 100.144 38.4133 100.323 38.44 100.504C38.4827 100.323 38.5307 100.144 38.584 99.968C38.6373 99.7867 38.6933 99.6 38.752 99.408L40.464 94.16C40.4907 94.08 40.536 94.0133 40.6 93.96C40.6693 93.9067 40.7547 93.88 40.856 93.88H41.472C41.5787 93.88 41.6667 93.9067 41.736 93.96C41.8053 94.0133 41.8533 94.08 41.88 94.16L43.552 99.408C43.6107 99.5947 43.6613 99.7787 43.704 99.96C43.752 100.141 43.7973 100.32 43.84 100.496C43.8667 100.32 43.9013 100.136 43.944 99.944C43.9867 99.752 44.032 99.5733 44.08 99.408L45.664 94.192C45.6907 94.1067 45.7413 94.0373 45.816 93.984C45.8907 93.9253 45.9787 93.896 46.08 93.896H47.152L44.528 102H43.4C43.2613 102 43.1653 101.909 43.112 101.728L41.32 96.232C41.2773 96.1093 41.2427 95.9867 41.216 95.864C41.1893 95.736 41.1627 95.6107 41.136 95.488C41.1093 95.6107 41.0827 95.736 41.056 95.864C41.0293 95.992 40.9947 96.1173 40.952 96.24L39.136 101.728C39.0773 101.909 38.968 102 38.808 102H37.736L35.112 93.896ZM50.002 93.896V102H48.578V93.896H50.002ZM50.322 91.352C50.322 91.4907 50.2927 91.6213 50.234 91.744C50.1807 91.8613 50.106 91.968 50.01 92.064C49.9193 92.1547 49.8127 92.2267 49.69 92.28C49.5673 92.3333 49.4367 92.36 49.298 92.36C49.1593 92.36 49.0287 92.3333 48.906 92.28C48.7887 92.2267 48.682 92.1547 48.586 92.064C48.4953 91.968 48.4233 91.8613 48.37 91.744C48.3167 91.6213 48.29 91.4907 48.29 91.352C48.29 91.2133 48.3167 91.0827 48.37 90.96C48.4233 90.832 48.4953 90.7227 48.586 90.632C48.682 90.536 48.7887 90.4613 48.906 90.408C49.0287 90.3547 49.1593 90.328 49.298 90.328C49.4367 90.328 49.5673 90.3547 49.69 90.408C49.8127 90.4613 49.9193 90.536 50.01 90.632C50.106 90.7227 50.1807 90.832 50.234 90.96C50.2927 91.0827 50.322 91.2133 50.322 91.352ZM54.9678 102.128C54.3278 102.128 53.8344 101.949 53.4878 101.592C53.1464 101.235 52.9758 100.72 52.9758 100.048V95.088H51.9998C51.9144 95.088 51.8424 95.064 51.7838 95.016C51.7251 94.9627 51.6958 94.8827 51.6958 94.776V94.208L53.0238 94.04L53.3518 91.536C53.3624 91.456 53.3971 91.392 53.4557 91.344C53.5144 91.2907 53.5891 91.264 53.6798 91.264H54.3998V94.056H56.7198V95.088H54.3998V99.952C54.3998 100.293 54.4824 100.547 54.6478 100.712C54.8131 100.877 55.0264 100.96 55.2878 100.96C55.4371 100.96 55.5651 100.941 55.6718 100.904C55.7838 100.861 55.8798 100.816 55.9598 100.768C56.0398 100.72 56.1064 100.677 56.1598 100.64C56.2184 100.597 56.2691 100.576 56.3118 100.576C56.3864 100.576 56.4531 100.621 56.5118 100.712L56.9278 101.392C56.6824 101.621 56.3864 101.803 56.0398 101.936C55.6931 102.064 55.3358 102.128 54.9678 102.128ZM58.4805 102V90.216H59.9045V94.984C60.2512 94.616 60.6352 94.3227 61.0565 94.104C61.4778 93.88 61.9632 93.768 62.5125 93.768C62.9552 93.768 63.3445 93.8427 63.6805 93.992C64.0218 94.136 64.3045 94.344 64.5285 94.616C64.7578 94.8827 64.9312 95.2053 65.0485 95.584C65.1658 95.9627 65.2245 96.3813 65.2245 96.84V102H63.8005V96.84C63.8005 96.2267 63.6592 95.752 63.3765 95.416C63.0992 95.0747 62.6725 94.904 62.0965 94.904C61.6752 94.904 61.2805 95.0053 60.9125 95.208C60.5498 95.4107 60.2138 95.6853 59.9045 96.032V102H58.4805Z" fill="#282D32"/>
<path fill-rule="evenodd" clip-rule="evenodd" d="M164.386 92.809C165.726 92.809 166.964 92.5653 168.138 92.1067C168.148 92.1296 170.538 95.8419 170.572 95.8677C168.409 97.0302 166.149 97.5419 163.678 97.5419C156.332 97.5419 151 92.7015 151 84.9744C151 77.1914 156.604 72.351 163.678 72.351C166.196 72.351 168.181 72.8971 170.181 73.9664C169.96 74.3333 167.902 77.8278 167.895 77.8421C166.709 77.3706 165.442 77.1312 164.167 77.1398C159.814 77.1398 156.441 79.9147 156.441 84.9744C156.441 89.7617 159.705 92.809 164.386 92.809ZM182.913 72.351C190.15 72.351 195.373 77.4666 195.373 84.9744C195.373 92.4277 190.15 97.5419 182.913 97.5419C175.732 97.5419 170.509 92.4292 170.509 84.9744C170.509 77.4666 175.732 72.351 182.913 72.351ZM182.913 76.9764C178.888 76.9764 175.949 80.0781 175.949 84.9744C175.949 89.8176 178.887 92.9179 182.915 92.9179C187.05 92.9179 189.934 89.8176 189.934 84.9744C189.934 80.0781 187.05 76.9764 182.913 76.9764ZM198.802 96.9986V72.8943H204.187V96.9986H198.802ZM198.094 65.494C198.094 63.645 199.673 62.1772 201.468 62.1772C203.264 62.1772 204.84 63.645 204.84 65.4954C204.84 67.4003 203.264 68.9239 201.468 68.9239C199.673 68.9239 198.094 67.4003 198.094 65.4954V65.494ZM208.887 74.4193C212.259 73.1136 216.397 72.351 219.932 72.351C226.081 72.351 229.998 74.6902 229.998 81.4914V96.9986H224.666V81.9816C224.666 78.5 222.49 77.2473 219.496 77.2473C217.591 77.2473 215.689 77.5196 214.273 77.9554V96.9986H208.887V74.4193ZM234.509 60H239.894V73.5493C241.036 72.9502 243.267 72.351 245.388 72.351C252.354 72.351 257.576 76.8116 257.576 84.5387C257.576 92.3188 252.408 97.5419 243.486 97.5419C240.426 97.5333 237.388 97.0001 234.509 95.9652V60ZM239.894 92.4292C240.927 92.7545 242.288 92.9165 243.648 92.9165C248.599 92.9165 252.136 90.1975 252.136 84.6462C252.136 79.9678 248.818 77.1928 244.737 77.1928C242.616 77.1928 240.982 77.7375 239.892 78.3366L239.894 92.4292ZM273.136 80.8378C273.136 78.2263 271.176 77.0309 268.51 77.0309C265.735 77.0309 263.56 77.8464 261.547 78.9888V74.309C263.669 73.1136 266.388 72.351 269.382 72.351C274.658 72.351 278.412 74.5268 278.412 80.5655V96.5084C276.127 97.1061 272.865 97.4888 270.144 97.4888C263.886 97.4888 259.316 95.5839 259.316 90.143C259.316 85.2467 263.504 82.8531 270.468 82.8531H273.134L273.136 80.8378ZM273.136 86.4421H270.851C267.096 86.4421 264.648 87.5315 264.648 89.9796C264.648 92.4822 266.934 93.4612 270.197 93.4612C271.014 93.4612 272.157 93.3522 273.136 93.1888V86.4421ZM282.329 90.4698C284.561 92.1554 287.225 93.1888 289.674 93.1888C292.069 93.1888 293.647 92.3733 293.647 90.4698C293.647 88.509 292.232 87.8024 289.132 86.9868C284.125 85.8444 282.002 83.832 282.002 79.6424C282.002 74.7447 285.703 72.351 290.599 72.351C293.32 72.351 295.496 72.9502 297.508 74.2V79.1522C295.387 77.63 293.32 76.7041 290.763 76.7041C288.424 76.7041 287.172 77.8464 287.172 79.4245C287.172 81.0012 288.204 81.8182 290.981 82.5779C296.478 83.7761 298.87 85.8459 298.87 90.1975C298.87 95.2571 295.007 97.5419 289.784 97.5419C286.955 97.5419 284.125 96.7822 282.331 95.5839L282.329 90.4698ZM306.243 86.1712V86.2802C306.57 90.5773 310.268 92.9165 314.022 92.9165C317.341 92.9165 319.736 92.1554 322.129 90.5773V95.313C319.953 96.8352 316.742 97.5419 313.643 97.5419C306.134 97.5419 301.02 92.7545 301.02 85.1378C301.02 77.4666 306.024 72.3525 312.663 72.3525C319.68 72.3525 323 76.8675 323 83.4493V86.1727L306.243 86.1712ZM317.939 82.6882C317.831 78.9329 315.982 76.8675 312.499 76.8675C309.398 76.8675 307.113 79.0447 306.406 82.6897L317.939 82.6882Z" fill="#1652F0"/>
<defs>
<filter id="filter0_d" x="0" y="0" width="357" height="162" filterUnits="userSpaceOnUse" color-interpolation-filters="sRGB">
<feFlood flood-opacity="0" result="BackgroundImageFix"/>
<feColorMatrix in="SourceAlpha" type="matrix" values="0 0 0 0 0 0 0 0 0 0 0 0 0 0 0 0 0 0 127 0"/>
<feOffset dy="3"/>
<feGaussianBlur stdDeviation="3"/>
<feColorMatrix type="matrix" values="0 0 0 0 0 0 0 0 0 0 0 0 0 0 0 0 0 0 0.07 0"/>
<feBlend mode="normal" in2="BackgroundImageFix" result="effect1_dropShadow"/>
<feBlend mode="normal" in="SourceGraphic" in2="effect1_dropShadow" result="shape"/>
</filter>
</defs>
</svg>
