<svg viewBox="0 0 1200 120" xmlns="http://www.w3.org/2000/svg">
<rect width="1200" height="120" fill="white"/>
<mask id="mask0" mask-type="alpha" maskUnits="userSpaceOnUse" x="0" y="0" width="1200" height="120">
<rect width="1200" height="120" fill="white"/>
</mask>
<g mask="url(#mask0)">
<g filter="url(#filter0_d)">
<ellipse cx="792.5" cy="60" rx="434.5" ry="252" fill="url(#paint0_linear)"/>
</g>
</g>
<path d="M462.285 77V44.465H473.513C475.643 44.465 477.458 44.6675 478.958 45.0725C480.473 45.4775 481.71 46.055 482.67 46.805C483.645 47.555 484.358 48.4625 484.808 49.5275C485.258 50.5925 485.483 51.7925 485.483 53.1275C485.483 53.8925 485.37 54.6275 485.145 55.3325C484.92 56.0225 484.568 56.675 484.088 57.29C483.623 57.89 483.023 58.4375 482.288 58.9325C481.568 59.4275 480.705 59.8475 479.7 60.1925C484.17 61.1975 486.405 63.6125 486.405 67.4375C486.405 68.8175 486.143 70.0925 485.618 71.2625C485.093 72.4325 484.328 73.445 483.323 74.3C482.318 75.14 481.08 75.8 479.61 76.28C478.14 76.76 476.46 77 474.57 77H462.285ZM468.338 62.735V72.275H474.48C475.605 72.275 476.543 72.14 477.293 71.87C478.058 71.6 478.665 71.24 479.115 70.79C479.58 70.34 479.91 69.815 480.105 69.215C480.315 68.615 480.42 67.9775 480.42 67.3025C480.42 66.5975 480.308 65.9675 480.083 65.4125C479.858 64.8425 479.505 64.3625 479.025 63.9725C478.545 63.5675 477.93 63.26 477.18 63.05C476.43 62.84 475.523 62.735 474.458 62.735H468.338ZM468.338 58.55H473.175C475.23 58.55 476.79 58.175 477.855 57.425C478.92 56.675 479.453 55.4825 479.453 53.8475C479.453 52.1525 478.973 50.945 478.013 50.225C477.053 49.505 475.553 49.145 473.513 49.145H468.338V58.55ZM496.367 53.915V68.585C496.367 69.995 496.689 71.09 497.334 71.87C497.994 72.635 498.977 73.0175 500.282 73.0175C501.242 73.0175 502.142 72.8075 502.982 72.3875C503.822 71.9525 504.617 71.36 505.367 70.61V53.915H510.924V77H507.527C506.807 77 506.334 76.6625 506.109 75.9875L505.727 74.1425C505.247 74.6225 504.752 75.065 504.242 75.47C503.732 75.86 503.184 76.1975 502.599 76.4825C502.029 76.7525 501.407 76.9625 500.732 77.1125C500.072 77.2775 499.359 77.36 498.594 77.36C497.334 77.36 496.217 77.15 495.242 76.73C494.282 76.295 493.472 75.6875 492.812 74.9075C492.152 74.1275 491.649 73.205 491.304 72.14C490.974 71.06 490.809 69.875 490.809 68.585V53.915H496.367ZM525.048 83.345C524.883 83.735 524.665 84.0275 524.395 84.2225C524.14 84.4325 523.743 84.5375 523.203 84.5375H519.063L523.383 75.29L514.045 53.915H518.905C519.355 53.915 519.7 54.02 519.94 54.23C520.18 54.44 520.36 54.68 520.48 54.95L525.408 66.92C525.573 67.31 525.715 67.715 525.835 68.135C525.955 68.555 526.06 68.975 526.15 69.395C526.27 68.96 526.398 68.54 526.533 68.135C526.683 67.73 526.84 67.3175 527.005 66.8975L531.64 54.95C531.76 54.65 531.955 54.4025 532.225 54.2075C532.51 54.0125 532.825 53.915 533.17 53.915H537.625L525.048 83.345ZM570.388 44.465V49.28H555.966V58.3025H567.328V62.96H555.966V72.1625H570.388V77H549.868V44.465H570.388ZM598.547 44.465V49.4375H588.76V77H582.707V49.4375H572.875V44.465H598.547ZM629.833 77H623.735V62.78H608.48V77H602.383V44.465H608.48V58.46H623.735V44.465H629.833V77ZM652.365 77.36C650.37 77.36 648.833 76.7975 647.752 75.6725C646.673 74.5325 646.133 72.965 646.133 70.97V58.0775H643.793C643.493 58.0775 643.23 57.98 643.005 57.785C642.795 57.59 642.69 57.2975 642.69 56.9075V54.7025L646.403 54.095L647.573 47.795C647.633 47.495 647.768 47.2625 647.978 47.0975C648.203 46.9325 648.48 46.85 648.81 46.85H651.69V54.1175H657.765V58.0775H651.69V70.5875C651.69 71.3075 651.87 71.87 652.23 72.275C652.59 72.68 653.07 72.8825 653.67 72.8825C654.015 72.8825 654.3 72.845 654.525 72.77C654.765 72.68 654.968 72.59 655.133 72.5C655.313 72.41 655.47 72.3275 655.605 72.2525C655.74 72.1625 655.875 72.1175 656.01 72.1175C656.175 72.1175 656.31 72.1625 656.415 72.2525C656.52 72.3275 656.633 72.4475 656.753 72.6125L658.418 75.3125C657.608 75.9875 656.678 76.4975 655.628 76.8425C654.578 77.1875 653.49 77.36 652.365 77.36ZM672.04 53.555C673.765 53.555 675.325 53.8325 676.72 54.3875C678.13 54.9425 679.33 55.73 680.32 56.75C681.31 57.77 682.075 59.015 682.615 60.485C683.155 61.955 683.425 63.5975 683.425 65.4125C683.425 67.2425 683.155 68.8925 682.615 70.3625C682.075 71.8325 681.31 73.085 680.32 74.12C679.33 75.155 678.13 75.95 676.72 76.505C675.325 77.06 673.765 77.3375 672.04 77.3375C670.315 77.3375 668.747 77.06 667.337 76.505C665.927 75.95 664.72 75.155 663.715 74.12C662.725 73.085 661.952 71.8325 661.397 70.3625C660.857 68.8925 660.587 67.2425 660.587 65.4125C660.587 63.5975 660.857 61.955 661.397 60.485C661.952 59.015 662.725 57.77 663.715 56.75C664.72 55.73 665.927 54.9425 667.337 54.3875C668.747 53.8325 670.315 53.555 672.04 53.555ZM672.04 73.0625C673.96 73.0625 675.377 72.4175 676.292 71.1275C677.222 69.8375 677.687 67.9475 677.687 65.4575C677.687 62.9675 677.222 61.07 676.292 59.765C675.377 58.46 673.96 57.8075 672.04 57.8075C670.09 57.8075 668.65 58.4675 667.72 59.7875C666.79 61.0925 666.325 62.9825 666.325 65.4575C666.325 67.9325 666.79 69.8225 667.72 71.1275C668.65 72.4175 670.09 73.0625 672.04 73.0625ZM704.006 77C703.286 77 702.814 76.6625 702.589 75.9875L702.139 73.76C701.659 74.3 701.156 74.7875 700.631 75.2225C700.106 75.6575 699.536 76.0325 698.921 76.3475C698.321 76.6625 697.669 76.9025 696.964 77.0675C696.274 77.2475 695.524 77.3375 694.714 77.3375C693.454 77.3375 692.299 77.075 691.249 76.55C690.199 76.025 689.291 75.2675 688.526 74.2775C687.776 73.2725 687.191 72.035 686.771 70.565C686.366 69.095 686.164 67.415 686.164 65.525C686.164 63.815 686.396 62.225 686.861 60.755C687.326 59.285 687.994 58.01 688.864 56.93C689.734 55.85 690.776 55.01 691.991 54.41C693.206 53.795 694.571 53.4875 696.086 53.4875C697.376 53.4875 698.479 53.6975 699.394 54.1175C700.309 54.5225 701.126 55.07 701.846 55.76V43.565H707.404V77H704.006ZM696.604 72.9275C697.759 72.9275 698.741 72.6875 699.551 72.2075C700.361 71.7275 701.126 71.045 701.846 70.16V59.81C701.216 59.045 700.526 58.505 699.776 58.19C699.041 57.875 698.246 57.7175 697.391 57.7175C696.551 57.7175 695.786 57.875 695.096 58.19C694.421 58.505 693.844 58.985 693.364 59.63C692.899 60.26 692.539 61.07 692.284 62.06C692.029 63.035 691.901 64.19 691.901 65.525C691.901 66.875 692.006 68.0225 692.216 68.9675C692.441 69.8975 692.756 70.6625 693.161 71.2625C693.566 71.8475 694.061 72.275 694.646 72.545C695.231 72.8 695.884 72.9275 696.604 72.9275ZM731.515 77H729.018C728.493 77 728.08 76.925 727.78 76.775C727.48 76.61 727.255 76.2875 727.105 75.8075L726.61 74.165C726.025 74.69 725.448 75.155 724.878 75.56C724.323 75.95 723.745 76.28 723.145 76.55C722.545 76.82 721.908 77.0225 721.233 77.1575C720.558 77.2925 719.808 77.36 718.983 77.36C718.008 77.36 717.108 77.2325 716.283 76.9775C715.458 76.7075 714.745 76.31 714.145 75.785C713.56 75.26 713.103 74.6075 712.773 73.8275C712.443 73.0475 712.278 72.14 712.278 71.105C712.278 70.235 712.503 69.38 712.953 68.54C713.418 67.685 714.183 66.92 715.248 66.245C716.313 65.555 717.73 64.985 719.5 64.535C721.27 64.085 723.468 63.83 726.093 63.77V62.42C726.093 60.875 725.763 59.735 725.103 59C724.458 58.25 723.513 57.875 722.268 57.875C721.368 57.875 720.618 57.98 720.018 58.19C719.418 58.4 718.893 58.64 718.443 58.91C718.008 59.165 717.603 59.3975 717.228 59.6075C716.853 59.8175 716.44 59.9225 715.99 59.9225C715.615 59.9225 715.293 59.825 715.023 59.63C714.753 59.435 714.535 59.195 714.37 58.91L713.358 57.1325C716.013 54.7025 719.215 53.4875 722.965 53.4875C724.315 53.4875 725.515 53.7125 726.565 54.1625C727.63 54.5975 728.53 55.2125 729.265 56.0075C730 56.7875 730.555 57.725 730.93 58.82C731.32 59.915 731.515 61.115 731.515 62.42V77ZM720.715 73.535C721.285 73.535 721.81 73.4825 722.29 73.3775C722.77 73.2725 723.22 73.115 723.64 72.905C724.075 72.695 724.488 72.44 724.878 72.14C725.283 71.825 725.688 71.4575 726.093 71.0375V67.145C724.473 67.22 723.115 67.3625 722.02 67.5725C720.94 67.7675 720.07 68.0225 719.41 68.3375C718.75 68.6525 718.278 69.02 717.993 69.44C717.723 69.86 717.588 70.3175 717.588 70.8125C717.588 71.7875 717.873 72.485 718.443 72.905C719.028 73.325 719.785 73.535 720.715 73.535ZM744.379 83.345C744.214 83.735 743.996 84.0275 743.726 84.2225C743.471 84.4325 743.074 84.5375 742.534 84.5375H738.394L742.714 75.29L733.376 53.915H738.236C738.686 53.915 739.031 54.02 739.271 54.23C739.511 54.44 739.691 54.68 739.811 54.95L744.739 66.92C744.904 67.31 745.046 67.715 745.166 68.135C745.286 68.555 745.391 68.975 745.481 69.395C745.601 68.96 745.729 68.54 745.864 68.135C746.014 67.73 746.171 67.3175 746.336 66.8975L750.971 54.95C751.091 54.65 751.286 54.4025 751.556 54.2075C751.841 54.0125 752.156 53.915 752.501 53.915H756.956L744.379 83.345Z" fill="white"/>
<path fill-rule="evenodd" clip-rule="evenodd" d="M80.7343 77.918C82.6099 77.918 84.3431 77.5769 85.9861 76.935C86.0001 76.9671 89.3442 82.1627 89.3923 82.1988C86.3652 83.8257 83.2017 84.5419 79.7433 84.5419C69.4624 84.5419 62 77.7675 62 66.953C62 56.0603 69.8436 49.2859 79.7433 49.2859C83.2679 49.2859 86.0462 50.0502 88.8447 51.5467C88.5357 52.0603 85.6551 56.951 85.645 56.971C83.9861 56.311 82.2127 55.976 80.4274 55.9881C74.3351 55.9881 69.6149 59.8717 69.6149 66.953C69.6149 73.6532 74.1826 77.918 80.7343 77.918ZM106.664 49.2859C116.793 49.2859 124.103 56.4454 124.103 66.953C124.103 77.3844 116.793 84.5419 106.664 84.5419C96.614 84.5419 89.304 77.3864 89.304 66.953C89.304 56.4454 96.614 49.2859 106.664 49.2859ZM106.664 55.7594C101.031 55.7594 96.9169 60.1004 96.9169 66.953C96.9169 73.7314 101.029 78.0704 106.666 78.0704C112.454 78.0704 116.49 73.7314 116.49 66.953C116.49 60.1004 112.454 55.7594 106.664 55.7594ZM128.901 83.7816V50.0462H136.438V83.7816H128.901ZM127.91 39.6891C127.91 37.1013 130.121 35.0472 132.632 35.0472C135.146 35.0472 137.352 37.1013 137.352 39.6911C137.352 42.3571 135.146 44.4895 132.632 44.4895C130.121 44.4895 127.91 42.3571 127.91 39.6911V39.6891ZM143.015 52.1806C147.736 50.3531 153.527 49.2859 158.474 49.2859C167.08 49.2859 172.562 52.5598 172.562 62.0784V83.7816H165.1V62.7644C165.1 57.8918 162.055 56.1385 157.864 56.1385C155.198 56.1385 152.536 56.5197 150.554 57.1295V83.7816H143.015V52.1806ZM178.875 32H186.412V50.963C188.011 50.1245 191.132 49.2859 194.101 49.2859C203.85 49.2859 211.158 55.5287 211.158 66.3432C211.158 77.2319 203.926 84.5419 191.439 84.5419C187.156 84.5298 182.905 83.7836 178.875 82.3352V32ZM186.412 77.3864C187.858 77.8417 189.762 78.0684 191.666 78.0684C198.594 78.0684 203.545 74.263 203.545 66.4936C203.545 59.946 198.901 56.0623 193.19 56.0623C190.221 56.0623 187.934 56.8246 186.41 57.6631L186.412 77.3864ZM232.936 61.1636C232.936 57.5086 230.193 55.8356 226.462 55.8356C222.578 55.8356 219.533 56.977 216.717 58.5759V52.0262C219.686 50.3531 223.491 49.2859 227.682 49.2859C235.066 49.2859 240.32 52.3311 240.32 60.7825V83.0955C237.122 83.932 232.556 84.4677 228.749 84.4677C219.991 84.4677 213.593 81.8016 213.593 74.1868C213.593 67.3342 219.455 63.9841 229.202 63.9841H232.934L232.936 61.1636ZM232.936 69.0072H229.738C224.482 69.0072 221.056 70.5318 221.056 73.9581C221.056 77.4606 224.256 78.8307 228.823 78.8307C229.967 78.8307 231.565 78.6783 232.936 78.4496V69.0072ZM245.802 74.6441C248.926 77.0032 252.655 78.4496 256.081 78.4496C259.433 78.4496 261.642 77.3081 261.642 74.6441C261.642 71.8999 259.662 70.9109 255.323 69.7695C248.316 68.1707 245.345 65.3542 245.345 59.4906C245.345 52.636 250.524 49.2859 257.377 49.2859C261.184 49.2859 264.23 50.1245 267.046 51.8737V58.8045C264.077 56.6741 261.184 55.3782 257.606 55.3782C254.332 55.3782 252.581 56.977 252.581 59.1857C252.581 61.3923 254.025 62.5358 257.911 63.5989C265.604 65.276 268.952 68.1727 268.952 74.263C268.952 81.3443 263.546 84.5419 256.236 84.5419C252.276 84.5419 248.316 83.4787 245.804 81.8016L245.802 74.6441ZM279.271 68.6281V68.7805C279.728 74.7946 284.904 78.0684 290.158 78.0684C294.803 78.0684 298.156 77.0032 301.504 74.7946V81.4225C298.458 83.5529 293.965 84.5419 289.628 84.5419C279.118 84.5419 271.961 77.8417 271.961 67.1817C271.961 56.4454 278.964 49.2879 288.256 49.2879C298.077 49.2879 302.723 55.6069 302.723 64.8186V68.6301L279.271 68.6281ZM295.64 63.7534C295.49 58.4976 292.902 55.6069 288.027 55.6069C283.686 55.6069 280.488 58.6541 279.499 63.7554L295.64 63.7534Z" fill="#1652F0"/>
<defs>
<filter id="filter0_d" x="342" y="-199" width="889" height="524" filterUnits="userSpaceOnUse" color-interpolation-filters="sRGB">
<feFlood flood-opacity="0" result="BackgroundImageFix"/>
<feColorMatrix in="SourceAlpha" type="matrix" values="0 0 0 0 0 0 0 0 0 0 0 0 0 0 0 0 0 0 127 0"/>
<feOffset dx="-6" dy="3"/>
<feGaussianBlur stdDeviation="5"/>
<feColorMatrix type="matrix" values="0 0 0 0 0.733333 0 0 0 0 0.733333 0 0 0 0 0.733333 0 0 0 0.5 0"/>
<feBlend mode="normal" in2="BackgroundImageFix" result="effect1_dropShadow"/>
<feBlend mode="normal" in="SourceGraphic" in2="effect1_dropShadow" result="shape"/>
</filter>
<linearGradient id="paint0_linear" x1="-26.5" y1="60" x2="1348.5" y2="59.9999" gradientUnits="userSpaceOnUse">
<stop stop-color="#1652F0"/>
<stop offset="0.627813" stop-color="#5B85F4"/>
<stop offset="1" stop-color="white"/>
</linearGradient>
</defs>
</svg>
