<svg viewBox="0 0 1200 120" xmlns="http://www.w3.org/2000/svg">
<rect width="1200" height="120" fill="white"/>
<mask id="mask0" mask-type="alpha" maskUnits="userSpaceOnUse" x="0" y="0" width="1200" height="120">
<rect width="1200" height="120" fill="white"/>
</mask>
<g mask="url(#mask0)">
<g filter="url(#filter0_d)">
<ellipse cx="792.5" cy="60" rx="434.5" ry="252" fill="url(#paint0_linear)"/>
</g>
</g>
<path d="M477.225 72.545C478.59 72.545 479.775 72.425 480.78 72.185C481.8 71.93 482.768 71.585 483.683 71.15V65.2325H479.61C479.22 65.2325 478.913 65.1275 478.688 64.9175C478.463 64.6925 478.35 64.4225 478.35 64.1075V60.6875H489.173V73.85C488.348 74.45 487.485 74.975 486.585 75.425C485.7 75.86 484.748 76.22 483.728 76.505C482.723 76.79 481.643 77 480.488 77.135C479.333 77.285 478.088 77.36 476.753 77.36C474.383 77.36 472.2 76.9475 470.205 76.1225C468.21 75.2975 466.485 74.15 465.03 72.68C463.575 71.21 462.435 69.455 461.61 67.415C460.8 65.375 460.395 63.1475 460.395 60.7325C460.395 58.2875 460.793 56.045 461.588 54.005C462.383 51.965 463.508 50.21 464.963 48.74C466.433 47.27 468.21 46.13 470.295 45.32C472.38 44.51 474.72 44.105 477.315 44.105C479.97 44.105 482.265 44.5025 484.2 45.2975C486.15 46.0775 487.8 47.0975 489.15 48.3575L487.395 51.1025C487.05 51.6575 486.593 51.935 486.023 51.935C485.663 51.935 485.295 51.815 484.92 51.575C484.44 51.29 483.945 51.005 483.435 50.72C482.94 50.435 482.385 50.1875 481.77 49.9775C481.17 49.7675 480.488 49.595 479.723 49.46C478.973 49.325 478.103 49.2575 477.113 49.2575C475.508 49.2575 474.053 49.5275 472.748 50.0675C471.458 50.6075 470.355 51.38 469.44 52.385C468.525 53.39 467.82 54.5975 467.325 56.0075C466.83 57.4175 466.583 58.9925 466.583 60.7325C466.583 62.6075 466.845 64.28 467.37 65.75C467.895 67.205 468.63 68.435 469.575 69.44C470.52 70.445 471.645 71.2175 472.95 71.7575C474.255 72.2825 475.68 72.545 477.225 72.545ZM504.03 53.555C505.485 53.555 506.82 53.7875 508.035 54.2525C509.265 54.7175 510.322 55.4 511.207 56.3C512.092 57.185 512.782 58.28 513.277 59.585C513.772 60.875 514.02 62.3525 514.02 64.0175C514.02 64.4375 513.997 64.79 513.952 65.075C513.922 65.345 513.855 65.5625 513.75 65.7275C513.66 65.8775 513.532 65.99 513.367 66.065C513.202 66.125 512.992 66.155 512.737 66.155H498.472C498.637 68.525 499.275 70.265 500.385 71.375C501.495 72.485 502.965 73.04 504.795 73.04C505.695 73.04 506.467 72.935 507.112 72.725C507.772 72.515 508.342 72.2825 508.822 72.0275C509.317 71.7725 509.745 71.54 510.105 71.33C510.48 71.12 510.84 71.015 511.185 71.015C511.41 71.015 511.605 71.06 511.77 71.15C511.935 71.24 512.077 71.3675 512.197 71.5325L513.817 73.5575C513.202 74.2775 512.512 74.885 511.747 75.38C510.982 75.86 510.18 76.25 509.34 76.55C508.515 76.835 507.667 77.0375 506.797 77.1575C505.942 77.2775 505.11 77.3375 504.3 77.3375C502.695 77.3375 501.202 77.075 499.822 76.55C498.442 76.01 497.242 75.2225 496.222 74.1875C495.202 73.1375 494.4 71.8475 493.815 70.3175C493.23 68.7725 492.937 66.9875 492.937 64.9625C492.937 63.3875 493.192 61.91 493.702 60.53C494.212 59.135 494.94 57.9275 495.885 56.9075C496.845 55.8725 498.007 55.055 499.372 54.455C500.752 53.855 502.305 53.555 504.03 53.555ZM504.142 57.5375C502.522 57.5375 501.255 57.995 500.34 58.91C499.425 59.825 498.84 61.1225 498.585 62.8025H509.025C509.025 62.0825 508.927 61.4075 508.732 60.7775C508.537 60.1325 508.237 59.57 507.832 59.09C507.427 58.61 506.917 58.235 506.302 57.965C505.687 57.68 504.967 57.5375 504.142 57.5375ZM526.11 77.36C524.115 77.36 522.578 76.7975 521.498 75.6725C520.418 74.5325 519.878 72.965 519.878 70.97V58.0775H517.538C517.238 58.0775 516.975 57.98 516.75 57.785C516.54 57.59 516.435 57.2975 516.435 56.9075V54.7025L520.148 54.095L521.318 47.795C521.378 47.495 521.513 47.2625 521.723 47.0975C521.948 46.9325 522.225 46.85 522.555 46.85H525.435V54.1175H531.51V58.0775H525.435V70.5875C525.435 71.3075 525.615 71.87 525.975 72.275C526.335 72.68 526.815 72.8825 527.415 72.8825C527.76 72.8825 528.045 72.845 528.27 72.77C528.51 72.68 528.713 72.59 528.878 72.5C529.058 72.41 529.215 72.3275 529.35 72.2525C529.485 72.1625 529.62 72.1175 529.755 72.1175C529.92 72.1175 530.055 72.1625 530.16 72.2525C530.265 72.3275 530.378 72.4475 530.498 72.6125L532.163 75.3125C531.353 75.9875 530.423 76.4975 529.373 76.8425C528.323 77.1875 527.235 77.36 526.11 77.36ZM562.721 77H560.224C559.699 77 559.286 76.925 558.986 76.775C558.686 76.61 558.461 76.2875 558.311 75.8075L557.816 74.165C557.231 74.69 556.654 75.155 556.084 75.56C555.529 75.95 554.951 76.28 554.351 76.55C553.751 76.82 553.114 77.0225 552.439 77.1575C551.764 77.2925 551.014 77.36 550.189 77.36C549.214 77.36 548.314 77.2325 547.489 76.9775C546.664 76.7075 545.951 76.31 545.351 75.785C544.766 75.26 544.309 74.6075 543.979 73.8275C543.649 73.0475 543.484 72.14 543.484 71.105C543.484 70.235 543.709 69.38 544.159 68.54C544.624 67.685 545.389 66.92 546.454 66.245C547.519 65.555 548.936 64.985 550.706 64.535C552.476 64.085 554.674 63.83 557.299 63.77V62.42C557.299 60.875 556.969 59.735 556.309 59C555.664 58.25 554.719 57.875 553.474 57.875C552.574 57.875 551.824 57.98 551.224 58.19C550.624 58.4 550.099 58.64 549.649 58.91C549.214 59.165 548.809 59.3975 548.434 59.6075C548.059 59.8175 547.646 59.9225 547.196 59.9225C546.821 59.9225 546.499 59.825 546.229 59.63C545.959 59.435 545.741 59.195 545.576 58.91L544.564 57.1325C547.219 54.7025 550.421 53.4875 554.171 53.4875C555.521 53.4875 556.721 53.7125 557.771 54.1625C558.836 54.5975 559.736 55.2125 560.471 56.0075C561.206 56.7875 561.761 57.725 562.136 58.82C562.526 59.915 562.721 61.115 562.721 62.42V77ZM551.921 73.535C552.491 73.535 553.016 73.4825 553.496 73.3775C553.976 73.2725 554.426 73.115 554.846 72.905C555.281 72.695 555.694 72.44 556.084 72.14C556.489 71.825 556.894 71.4575 557.299 71.0375V67.145C555.679 67.22 554.321 67.3625 553.226 67.5725C552.146 67.7675 551.276 68.0225 550.616 68.3375C549.956 68.6525 549.484 69.02 549.199 69.44C548.929 69.86 548.794 70.3175 548.794 70.8125C548.794 71.7875 549.079 72.485 549.649 72.905C550.234 73.325 550.991 73.535 551.921 73.535ZM583.254 72.005H596.282V77H577.202V44.465H583.254V72.005ZM608.839 53.555C610.294 53.555 611.629 53.7875 612.844 54.2525C614.074 54.7175 615.132 55.4 616.017 56.3C616.902 57.185 617.592 58.28 618.087 59.585C618.582 60.875 618.829 62.3525 618.829 64.0175C618.829 64.4375 618.807 64.79 618.762 65.075C618.732 65.345 618.664 65.5625 618.559 65.7275C618.469 65.8775 618.342 65.99 618.177 66.065C618.012 66.125 617.802 66.155 617.547 66.155H603.282C603.447 68.525 604.084 70.265 605.194 71.375C606.304 72.485 607.774 73.04 609.604 73.04C610.504 73.04 611.277 72.935 611.922 72.725C612.582 72.515 613.152 72.2825 613.632 72.0275C614.127 71.7725 614.554 71.54 614.914 71.33C615.289 71.12 615.649 71.015 615.994 71.015C616.219 71.015 616.414 71.06 616.579 71.15C616.744 71.24 616.887 71.3675 617.007 71.5325L618.627 73.5575C618.012 74.2775 617.322 74.885 616.557 75.38C615.792 75.86 614.989 76.25 614.149 76.55C613.324 76.835 612.477 77.0375 611.607 77.1575C610.752 77.2775 609.919 77.3375 609.109 77.3375C607.504 77.3375 606.012 77.075 604.632 76.55C603.252 76.01 602.052 75.2225 601.032 74.1875C600.012 73.1375 599.209 71.8475 598.624 70.3175C598.039 68.7725 597.747 66.9875 597.747 64.9625C597.747 63.3875 598.002 61.91 598.512 60.53C599.022 59.135 599.749 57.9275 600.694 56.9075C601.654 55.8725 602.817 55.055 604.182 54.455C605.562 53.855 607.114 53.555 608.839 53.555ZM608.952 57.5375C607.332 57.5375 606.064 57.995 605.149 58.91C604.234 59.825 603.649 61.1225 603.394 62.8025H613.834C613.834 62.0825 613.737 61.4075 613.542 60.7775C613.347 60.1325 613.047 59.57 612.642 59.09C612.237 58.61 611.727 58.235 611.112 57.965C610.497 57.68 609.777 57.5375 608.952 57.5375ZM639.582 77C638.862 77 638.39 76.6625 638.165 75.9875L637.715 73.76C637.235 74.3 636.732 74.7875 636.207 75.2225C635.682 75.6575 635.112 76.0325 634.497 76.3475C633.897 76.6625 633.245 76.9025 632.54 77.0675C631.85 77.2475 631.1 77.3375 630.29 77.3375C629.03 77.3375 627.875 77.075 626.825 76.55C625.775 76.025 624.867 75.2675 624.102 74.2775C623.352 73.2725 622.767 72.035 622.347 70.565C621.942 69.095 621.74 67.415 621.74 65.525C621.74 63.815 621.972 62.225 622.437 60.755C622.902 59.285 623.57 58.01 624.44 56.93C625.31 55.85 626.352 55.01 627.567 54.41C628.782 53.795 630.147 53.4875 631.662 53.4875C632.952 53.4875 634.055 53.6975 634.97 54.1175C635.885 54.5225 636.702 55.07 637.422 55.76V43.565H642.98V77H639.582ZM632.18 72.9275C633.335 72.9275 634.317 72.6875 635.127 72.2075C635.937 71.7275 636.702 71.045 637.422 70.16V59.81C636.792 59.045 636.102 58.505 635.352 58.19C634.617 57.875 633.822 57.7175 632.967 57.7175C632.127 57.7175 631.362 57.875 630.672 58.19C629.997 58.505 629.42 58.985 628.94 59.63C628.475 60.26 628.115 61.07 627.86 62.06C627.605 63.035 627.477 64.19 627.477 65.525C627.477 66.875 627.582 68.0225 627.792 68.9675C628.017 69.8975 628.332 70.6625 628.737 71.2625C629.142 71.8475 629.637 72.275 630.222 72.545C630.807 72.8 631.46 72.9275 632.18 72.9275ZM656.989 53.51C657.979 53.51 658.909 53.615 659.779 53.825C660.649 54.02 661.444 54.3125 662.164 54.7025H668.801V56.7725C668.801 57.1175 668.711 57.3875 668.531 57.5825C668.351 57.7775 668.044 57.9125 667.609 57.9875L665.539 58.37C665.689 58.76 665.801 59.1725 665.876 59.6075C665.966 60.0425 666.011 60.5 666.011 60.98C666.011 62.12 665.779 63.155 665.314 64.085C664.864 65 664.234 65.78 663.424 66.425C662.629 67.07 661.676 67.5725 660.566 67.9325C659.471 68.2775 658.279 68.45 656.989 68.45C656.119 68.45 655.271 68.3675 654.446 68.2025C653.726 68.6375 653.366 69.125 653.366 69.665C653.366 70.13 653.576 70.475 653.996 70.7C654.431 70.91 654.994 71.06 655.684 71.15C656.389 71.24 657.184 71.3 658.069 71.33C658.954 71.345 659.861 71.39 660.791 71.465C661.721 71.54 662.629 71.675 663.514 71.87C664.399 72.05 665.186 72.3425 665.876 72.7475C666.581 73.1525 667.144 73.7075 667.564 74.4125C667.999 75.1025 668.216 75.995 668.216 77.09C668.216 78.11 667.961 79.1 667.451 80.06C666.956 81.02 666.229 81.875 665.269 82.625C664.324 83.375 663.161 83.975 661.781 84.425C660.401 84.89 658.826 85.1225 657.056 85.1225C655.301 85.1225 653.779 84.95 652.489 84.605C651.199 84.275 650.126 83.825 649.271 83.255C648.431 82.7 647.801 82.055 647.381 81.32C646.961 80.585 646.751 79.82 646.751 79.025C646.751 77.945 647.081 77.0375 647.741 76.3025C648.401 75.5675 649.316 74.9825 650.486 74.5475C649.916 74.2325 649.459 73.8125 649.114 73.2875C648.769 72.7625 648.596 72.08 648.596 71.24C648.596 70.895 648.656 70.5425 648.776 70.1825C648.896 69.8075 649.076 69.44 649.316 69.08C649.571 68.72 649.886 68.3825 650.261 68.0675C650.636 67.7375 651.079 67.445 651.589 67.19C650.419 66.56 649.496 65.72 648.821 64.67C648.161 63.62 647.831 62.39 647.831 60.98C647.831 59.84 648.056 58.8125 648.506 57.8975C648.971 56.9675 649.609 56.18 650.419 55.535C651.244 54.875 652.211 54.3725 653.321 54.0275C654.446 53.6825 655.669 53.51 656.989 53.51ZM663.086 78.035C663.086 77.585 662.951 77.2175 662.681 76.9325C662.411 76.6475 662.044 76.43 661.579 76.28C661.114 76.115 660.566 75.995 659.936 75.92C659.321 75.845 658.661 75.7925 657.956 75.7625C657.266 75.7175 656.546 75.68 655.796 75.65C655.061 75.605 654.349 75.5375 653.659 75.4475C653.029 75.7925 652.519 76.205 652.129 76.685C651.754 77.15 651.566 77.69 651.566 78.305C651.566 78.71 651.664 79.085 651.859 79.43C652.069 79.79 652.391 80.0975 652.826 80.3525C653.276 80.6075 653.854 80.8025 654.559 80.9375C655.264 81.0875 656.126 81.1625 657.146 81.1625C658.181 81.1625 659.074 81.08 659.824 80.915C660.574 80.765 661.189 80.5475 661.669 80.2625C662.164 79.9925 662.524 79.6625 662.749 79.2725C662.974 78.8975 663.086 78.485 663.086 78.035ZM656.989 64.895C657.679 64.895 658.279 64.805 658.789 64.625C659.299 64.43 659.719 64.1675 660.049 63.8375C660.394 63.5075 660.649 63.11 660.814 62.645C660.994 62.18 661.084 61.67 661.084 61.115C661.084 59.975 660.739 59.075 660.049 58.415C659.374 57.74 658.354 57.4025 656.989 57.4025C655.624 57.4025 654.596 57.74 653.906 58.415C653.231 59.075 652.894 59.975 652.894 61.115C652.894 61.655 652.976 62.1575 653.141 62.6225C653.321 63.0875 653.576 63.4925 653.906 63.8375C654.251 64.1675 654.679 64.43 655.189 64.625C655.714 64.805 656.314 64.895 656.989 64.895ZM681.832 53.555C683.287 53.555 684.622 53.7875 685.837 54.2525C687.067 54.7175 688.125 55.4 689.01 56.3C689.895 57.185 690.585 58.28 691.08 59.585C691.575 60.875 691.822 62.3525 691.822 64.0175C691.822 64.4375 691.8 64.79 691.755 65.075C691.725 65.345 691.657 65.5625 691.552 65.7275C691.462 65.8775 691.335 65.99 691.17 66.065C691.005 66.125 690.795 66.155 690.54 66.155H676.275C676.44 68.525 677.077 70.265 678.187 71.375C679.297 72.485 680.767 73.04 682.597 73.04C683.497 73.04 684.27 72.935 684.915 72.725C685.575 72.515 686.145 72.2825 686.625 72.0275C687.12 71.7725 687.547 71.54 687.907 71.33C688.282 71.12 688.642 71.015 688.987 71.015C689.212 71.015 689.407 71.06 689.572 71.15C689.737 71.24 689.88 71.3675 690 71.5325L691.62 73.5575C691.005 74.2775 690.315 74.885 689.55 75.38C688.785 75.86 687.982 76.25 687.142 76.55C686.317 76.835 685.47 77.0375 684.6 77.1575C683.745 77.2775 682.912 77.3375 682.102 77.3375C680.497 77.3375 679.005 77.075 677.625 76.55C676.245 76.01 675.045 75.2225 674.025 74.1875C673.005 73.1375 672.202 71.8475 671.617 70.3175C671.032 68.7725 670.74 66.9875 670.74 64.9625C670.74 63.3875 670.995 61.91 671.505 60.53C672.015 59.135 672.742 57.9275 673.687 56.9075C674.647 55.8725 675.81 55.055 677.175 54.455C678.555 53.855 680.107 53.555 681.832 53.555ZM681.945 57.5375C680.325 57.5375 679.057 57.995 678.142 58.91C677.227 59.825 676.642 61.1225 676.387 62.8025H686.827C686.827 62.0825 686.73 61.4075 686.535 60.7775C686.34 60.1325 686.04 59.57 685.635 59.09C685.23 58.61 684.72 58.235 684.105 57.965C683.49 57.68 682.77 57.5375 681.945 57.5375ZM696.33 77V53.915H699.593C700.163 53.915 700.56 54.02 700.785 54.23C701.01 54.44 701.16 54.8 701.235 55.31L701.573 58.1C702.398 56.675 703.365 55.55 704.475 54.725C705.585 53.9 706.83 53.4875 708.21 53.4875C709.35 53.4875 710.295 53.75 711.045 54.275L710.325 58.4375C710.28 58.7075 710.183 58.9025 710.033 59.0225C709.883 59.1275 709.68 59.18 709.425 59.18C709.2 59.18 708.893 59.1275 708.503 59.0225C708.113 58.9175 707.595 58.865 706.95 58.865C705.795 58.865 704.805 59.1875 703.98 59.8325C703.155 60.4625 702.458 61.3925 701.888 62.6225V77H696.33ZM723.401 77V43.565H728.958V56.4125C729.858 55.5575 730.848 54.8675 731.928 54.3425C733.008 53.8175 734.276 53.555 735.731 53.555C736.991 53.555 738.108 53.7725 739.083 54.2075C740.058 54.6275 740.868 55.2275 741.513 56.0075C742.173 56.7725 742.668 57.695 742.998 58.775C743.343 59.84 743.516 61.0175 743.516 62.3075V77H737.958V62.3075C737.958 60.8975 737.628 59.81 736.968 59.045C736.323 58.265 735.348 57.875 734.043 57.875C733.083 57.875 732.183 58.0925 731.343 58.5275C730.503 58.9625 729.708 59.555 728.958 60.305V77H723.401ZM767.067 77H764.569C764.044 77 763.632 76.925 763.332 76.775C763.032 76.61 762.807 76.2875 762.657 75.8075L762.162 74.165C761.577 74.69 760.999 75.155 760.429 75.56C759.874 75.95 759.297 76.28 758.697 76.55C758.097 76.82 757.459 77.0225 756.784 77.1575C756.109 77.2925 755.359 77.36 754.534 77.36C753.559 77.36 752.659 77.2325 751.834 76.9775C751.009 76.7075 750.297 76.31 749.697 75.785C749.112 75.26 748.654 74.6075 748.324 73.8275C747.994 73.0475 747.829 72.14 747.829 71.105C747.829 70.235 748.054 69.38 748.504 68.54C748.969 67.685 749.734 66.92 750.799 66.245C751.864 65.555 753.282 64.985 755.052 64.535C756.822 64.085 759.019 63.83 761.644 63.77V62.42C761.644 60.875 761.314 59.735 760.654 59C760.009 58.25 759.064 57.875 757.819 57.875C756.919 57.875 756.169 57.98 755.569 58.19C754.969 58.4 754.444 58.64 753.994 58.91C753.559 59.165 753.154 59.3975 752.779 59.6075C752.404 59.8175 751.992 59.9225 751.542 59.9225C751.167 59.9225 750.844 59.825 750.574 59.63C750.304 59.435 750.087 59.195 749.922 58.91L748.909 57.1325C751.564 54.7025 754.767 53.4875 758.517 53.4875C759.867 53.4875 761.067 53.7125 762.117 54.1625C763.182 54.5975 764.082 55.2125 764.817 56.0075C765.552 56.7875 766.107 57.725 766.482 58.82C766.872 59.915 767.067 61.115 767.067 62.42V77ZM756.267 73.535C756.837 73.535 757.362 73.4825 757.842 73.3775C758.322 73.2725 758.772 73.115 759.192 72.905C759.627 72.695 760.039 72.44 760.429 72.14C760.834 71.825 761.239 71.4575 761.644 71.0375V67.145C760.024 67.22 758.667 67.3625 757.572 67.5725C756.492 67.7675 755.622 68.0225 754.962 68.3375C754.302 68.6525 753.829 69.02 753.544 69.44C753.274 69.86 753.139 70.3175 753.139 70.8125C753.139 71.7875 753.424 72.485 753.994 72.905C754.579 73.325 755.337 73.535 756.267 73.535ZM772.532 77V53.915H775.794C776.364 53.915 776.762 54.02 776.987 54.23C777.212 54.44 777.362 54.8 777.437 55.31L777.774 58.1C778.599 56.675 779.567 55.55 780.677 54.725C781.787 53.9 783.032 53.4875 784.412 53.4875C785.552 53.4875 786.497 53.75 787.247 54.275L786.527 58.4375C786.482 58.7075 786.384 58.9025 786.234 59.0225C786.084 59.1275 785.882 59.18 785.627 59.18C785.402 59.18 785.094 59.1275 784.704 59.0225C784.314 58.9175 783.797 58.865 783.152 58.865C781.997 58.865 781.007 59.1875 780.182 59.8325C779.357 60.4625 778.659 61.3925 778.089 62.6225V77H772.532ZM807.146 77C806.426 77 805.953 76.6625 805.728 75.9875L805.278 73.76C804.798 74.3 804.296 74.7875 803.771 75.2225C803.246 75.6575 802.676 76.0325 802.061 76.3475C801.461 76.6625 800.808 76.9025 800.103 77.0675C799.413 77.2475 798.663 77.3375 797.853 77.3375C796.593 77.3375 795.438 77.075 794.388 76.55C793.338 76.025 792.431 75.2675 791.666 74.2775C790.916 73.2725 790.331 72.035 789.911 70.565C789.506 69.095 789.303 67.415 789.303 65.525C789.303 63.815 789.536 62.225 790.001 60.755C790.466 59.285 791.133 58.01 792.003 56.93C792.873 55.85 793.916 55.01 795.131 54.41C796.346 53.795 797.711 53.4875 799.226 53.4875C800.516 53.4875 801.618 53.6975 802.533 54.1175C803.448 54.5225 804.266 55.07 804.986 55.76V43.565H810.543V77H807.146ZM799.743 72.9275C800.898 72.9275 801.881 72.6875 802.691 72.2075C803.501 71.7275 804.266 71.045 804.986 70.16V59.81C804.356 59.045 803.666 58.505 802.916 58.19C802.181 57.875 801.386 57.7175 800.531 57.7175C799.691 57.7175 798.926 57.875 798.236 58.19C797.561 58.505 796.983 58.985 796.503 59.63C796.038 60.26 795.678 61.07 795.423 62.06C795.168 63.035 795.041 64.19 795.041 65.525C795.041 66.875 795.146 68.0225 795.356 68.9675C795.581 69.8975 795.896 70.6625 796.301 71.2625C796.706 71.8475 797.201 72.275 797.786 72.545C798.371 72.8 799.023 72.9275 799.743 72.9275ZM813.752 53.915H818.162C818.582 53.915 818.935 54.0125 819.22 54.2075C819.505 54.4025 819.685 54.65 819.76 54.95L823.067 67.28C823.247 67.955 823.39 68.615 823.495 69.26C823.615 69.905 823.727 70.55 823.832 71.195C823.997 70.55 824.17 69.905 824.35 69.26C824.545 68.615 824.747 67.955 824.957 67.28L828.782 54.905C828.872 54.605 829.052 54.3575 829.322 54.1625C829.592 53.9675 829.907 53.87 830.267 53.87H832.72C833.125 53.87 833.462 53.9675 833.732 54.1625C834.002 54.3575 834.182 54.605 834.272 54.905L838.052 67.505C838.247 68.15 838.42 68.78 838.57 69.395C838.735 69.995 838.892 70.6025 839.042 71.2175C839.147 70.5725 839.26 69.9275 839.38 69.2825C839.515 68.6375 839.68 67.97 839.875 67.28L843.295 54.95C843.37 54.65 843.55 54.4025 843.835 54.2075C844.12 54.0125 844.45 53.915 844.825 53.915H849.032L841.72 77H837.242C836.762 77 836.417 76.67 836.207 76.01L832.045 62.6675C831.91 62.2325 831.782 61.7975 831.662 61.3625C831.557 60.9125 831.467 60.47 831.392 60.035C831.302 60.485 831.205 60.935 831.1 61.385C830.995 61.82 830.875 62.2625 830.74 62.7125L826.532 76.01C826.322 76.67 825.917 77 825.317 77H821.065L813.752 53.915ZM870.25 77H867.753C867.228 77 866.815 76.925 866.515 76.775C866.215 76.61 865.99 76.2875 865.84 75.8075L865.345 74.165C864.76 74.69 864.183 75.155 863.613 75.56C863.058 75.95 862.48 76.28 861.88 76.55C861.28 76.82 860.643 77.0225 859.968 77.1575C859.293 77.2925 858.543 77.36 857.718 77.36C856.743 77.36 855.843 77.2325 855.018 76.9775C854.193 76.7075 853.48 76.31 852.88 75.785C852.295 75.26 851.838 74.6075 851.508 73.8275C851.178 73.0475 851.013 72.14 851.013 71.105C851.013 70.235 851.238 69.38 851.688 68.54C852.153 67.685 852.918 66.92 853.983 66.245C855.048 65.555 856.465 64.985 858.235 64.535C860.005 64.085 862.203 63.83 864.828 63.77V62.42C864.828 60.875 864.498 59.735 863.838 59C863.193 58.25 862.248 57.875 861.003 57.875C860.103 57.875 859.353 57.98 858.753 58.19C858.153 58.4 857.628 58.64 857.178 58.91C856.743 59.165 856.338 59.3975 855.963 59.6075C855.588 59.8175 855.175 59.9225 854.725 59.9225C854.35 59.9225 854.028 59.825 853.758 59.63C853.488 59.435 853.27 59.195 853.105 58.91L852.093 57.1325C854.748 54.7025 857.95 53.4875 861.7 53.4875C863.05 53.4875 864.25 53.7125 865.3 54.1625C866.365 54.5975 867.265 55.2125 868 56.0075C868.735 56.7875 869.29 57.725 869.665 58.82C870.055 59.915 870.25 61.115 870.25 62.42V77ZM859.45 73.535C860.02 73.535 860.545 73.4825 861.025 73.3775C861.505 73.2725 861.955 73.115 862.375 72.905C862.81 72.695 863.223 72.44 863.613 72.14C864.018 71.825 864.423 71.4575 864.828 71.0375V67.145C863.208 67.22 861.85 67.3625 860.755 67.5725C859.675 67.7675 858.805 68.0225 858.145 68.3375C857.485 68.6525 857.013 69.02 856.728 69.44C856.458 69.86 856.323 70.3175 856.323 70.8125C856.323 71.7875 856.608 72.485 857.178 72.905C857.763 73.325 858.52 73.535 859.45 73.535ZM875.715 77V53.915H878.978C879.548 53.915 879.945 54.02 880.17 54.23C880.395 54.44 880.545 54.8 880.62 55.31L880.958 58.1C881.783 56.675 882.75 55.55 883.86 54.725C884.97 53.9 886.215 53.4875 887.595 53.4875C888.735 53.4875 889.68 53.75 890.43 54.275L889.71 58.4375C889.665 58.7075 889.568 58.9025 889.418 59.0225C889.268 59.1275 889.065 59.18 888.81 59.18C888.585 59.18 888.278 59.1275 887.888 59.0225C887.498 58.9175 886.98 58.865 886.335 58.865C885.18 58.865 884.19 59.1875 883.365 59.8325C882.54 60.4625 881.843 61.3925 881.273 62.6225V77H875.715ZM903.624 53.555C905.079 53.555 906.414 53.7875 907.629 54.2525C908.859 54.7175 909.917 55.4 910.802 56.3C911.687 57.185 912.377 58.28 912.872 59.585C913.367 60.875 913.614 62.3525 913.614 64.0175C913.614 64.4375 913.592 64.79 913.547 65.075C913.517 65.345 913.449 65.5625 913.344 65.7275C913.254 65.8775 913.127 65.99 912.962 66.065C912.797 66.125 912.587 66.155 912.332 66.155H898.067C898.232 68.525 898.869 70.265 899.979 71.375C901.089 72.485 902.559 73.04 904.389 73.04C905.289 73.04 906.062 72.935 906.707 72.725C907.367 72.515 907.937 72.2825 908.417 72.0275C908.912 71.7725 909.339 71.54 909.699 71.33C910.074 71.12 910.434 71.015 910.779 71.015C911.004 71.015 911.199 71.06 911.364 71.15C911.529 71.24 911.672 71.3675 911.792 71.5325L913.412 73.5575C912.797 74.2775 912.107 74.885 911.342 75.38C910.577 75.86 909.774 76.25 908.934 76.55C908.109 76.835 907.262 77.0375 906.392 77.1575C905.537 77.2775 904.704 77.3375 903.894 77.3375C902.289 77.3375 900.797 77.075 899.417 76.55C898.037 76.01 896.837 75.2225 895.817 74.1875C894.797 73.1375 893.994 71.8475 893.409 70.3175C892.824 68.7725 892.532 66.9875 892.532 64.9625C892.532 63.3875 892.787 61.91 893.297 60.53C893.807 59.135 894.534 57.9275 895.479 56.9075C896.439 55.8725 897.602 55.055 898.967 54.455C900.347 53.855 901.899 53.555 903.624 53.555ZM903.737 57.5375C902.117 57.5375 900.849 57.995 899.934 58.91C899.019 59.825 898.434 61.1225 898.179 62.8025H908.619C908.619 62.0825 908.522 61.4075 908.327 60.7775C908.132 60.1325 907.832 59.57 907.427 59.09C907.022 58.61 906.512 58.235 905.897 57.965C905.282 57.68 904.562 57.5375 903.737 57.5375ZM924.011 53.915H928.421C928.841 53.915 929.194 54.0125 929.479 54.2075C929.764 54.4025 929.944 54.65 930.019 54.95L933.326 67.28C933.506 67.955 933.649 68.615 933.754 69.26C933.874 69.905 933.986 70.55 934.091 71.195C934.256 70.55 934.429 69.905 934.609 69.26C934.804 68.615 935.006 67.955 935.216 67.28L939.041 54.905C939.131 54.605 939.311 54.3575 939.581 54.1625C939.851 53.9675 940.166 53.87 940.526 53.87H942.979C943.384 53.87 943.721 53.9675 943.991 54.1625C944.261 54.3575 944.441 54.605 944.531 54.905L948.311 67.505C948.506 68.15 948.679 68.78 948.829 69.395C948.994 69.995 949.151 70.6025 949.301 71.2175C949.406 70.5725 949.519 69.9275 949.639 69.2825C949.774 68.6375 949.939 67.97 950.134 67.28L953.554 54.95C953.629 54.65 953.809 54.4025 954.094 54.2075C954.379 54.0125 954.709 53.915 955.084 53.915H959.291L951.979 77H947.501C947.021 77 946.676 76.67 946.466 76.01L942.304 62.6675C942.169 62.2325 942.041 61.7975 941.921 61.3625C941.816 60.9125 941.726 60.47 941.651 60.035C941.561 60.485 941.464 60.935 941.359 61.385C941.254 61.82 941.134 62.2625 940.999 62.7125L936.791 76.01C936.581 76.67 936.176 77 935.576 77H931.324L924.011 53.915ZM980.509 77H978.012C977.487 77 977.074 76.925 976.774 76.775C976.474 76.61 976.249 76.2875 976.099 75.8075L975.604 74.165C975.019 74.69 974.442 75.155 973.872 75.56C973.317 75.95 972.739 76.28 972.139 76.55C971.539 76.82 970.902 77.0225 970.227 77.1575C969.552 77.2925 968.802 77.36 967.977 77.36C967.002 77.36 966.102 77.2325 965.277 76.9775C964.452 76.7075 963.739 76.31 963.139 75.785C962.554 75.26 962.097 74.6075 961.767 73.8275C961.437 73.0475 961.272 72.14 961.272 71.105C961.272 70.235 961.497 69.38 961.947 68.54C962.412 67.685 963.177 66.92 964.242 66.245C965.307 65.555 966.724 64.985 968.494 64.535C970.264 64.085 972.462 63.83 975.087 63.77V62.42C975.087 60.875 974.757 59.735 974.097 59C973.452 58.25 972.507 57.875 971.262 57.875C970.362 57.875 969.612 57.98 969.012 58.19C968.412 58.4 967.887 58.64 967.437 58.91C967.002 59.165 966.597 59.3975 966.222 59.6075C965.847 59.8175 965.434 59.9225 964.984 59.9225C964.609 59.9225 964.287 59.825 964.017 59.63C963.747 59.435 963.529 59.195 963.364 58.91L962.352 57.1325C965.007 54.7025 968.209 53.4875 971.959 53.4875C973.309 53.4875 974.509 53.7125 975.559 54.1625C976.624 54.5975 977.524 55.2125 978.259 56.0075C978.994 56.7875 979.549 57.725 979.924 58.82C980.314 59.915 980.509 61.115 980.509 62.42V77ZM969.709 73.535C970.279 73.535 970.804 73.4825 971.284 73.3775C971.764 73.2725 972.214 73.115 972.634 72.905C973.069 72.695 973.482 72.44 973.872 72.14C974.277 71.825 974.682 71.4575 975.087 71.0375V67.145C973.467 67.22 972.109 67.3625 971.014 67.5725C969.934 67.7675 969.064 68.0225 968.404 68.3375C967.744 68.6525 967.272 69.02 966.987 69.44C966.717 69.86 966.582 70.3175 966.582 70.8125C966.582 71.7875 966.867 72.485 967.437 72.905C968.022 73.325 968.779 73.535 969.709 73.535ZM991.891 43.565V77H986.334V43.565H991.891ZM1004.11 43.565V77H998.551V43.565H1004.11ZM1019.95 53.555C1021.4 53.555 1022.74 53.7875 1023.95 54.2525C1025.18 54.7175 1026.24 55.4 1027.13 56.3C1028.01 57.185 1028.7 58.28 1029.2 59.585C1029.69 60.875 1029.94 62.3525 1029.94 64.0175C1029.94 64.4375 1029.92 64.79 1029.87 65.075C1029.84 65.345 1029.77 65.5625 1029.67 65.7275C1029.58 65.8775 1029.45 65.99 1029.29 66.065C1029.12 66.125 1028.91 66.155 1028.66 66.155H1014.39C1014.56 68.525 1015.19 70.265 1016.3 71.375C1017.41 72.485 1018.88 73.04 1020.71 73.04C1021.61 73.04 1022.39 72.935 1023.03 72.725C1023.69 72.515 1024.26 72.2825 1024.74 72.0275C1025.24 71.7725 1025.66 71.54 1026.02 71.33C1026.4 71.12 1026.76 71.015 1027.1 71.015C1027.33 71.015 1027.52 71.06 1027.69 71.15C1027.85 71.24 1028 71.3675 1028.12 71.5325L1029.74 73.5575C1029.12 74.2775 1028.43 74.885 1027.67 75.38C1026.9 75.86 1026.1 76.25 1025.26 76.55C1024.43 76.835 1023.59 77.0375 1022.72 77.1575C1021.86 77.2775 1021.03 77.3375 1020.22 77.3375C1018.61 77.3375 1017.12 77.075 1015.74 76.55C1014.36 76.01 1013.16 75.2225 1012.14 74.1875C1011.12 73.1375 1010.32 71.8475 1009.73 70.3175C1009.15 68.7725 1008.86 66.9875 1008.86 64.9625C1008.86 63.3875 1009.11 61.91 1009.62 60.53C1010.13 59.135 1010.86 57.9275 1011.8 56.9075C1012.76 55.8725 1013.93 55.055 1015.29 54.455C1016.67 53.855 1018.22 53.555 1019.95 53.555ZM1020.06 57.5375C1018.44 57.5375 1017.17 57.995 1016.26 58.91C1015.34 59.825 1014.76 61.1225 1014.5 62.8025H1024.94C1024.94 62.0825 1024.85 61.4075 1024.65 60.7775C1024.46 60.1325 1024.16 59.57 1023.75 59.09C1023.35 58.61 1022.84 58.235 1022.22 57.965C1021.61 57.68 1020.89 57.5375 1020.06 57.5375ZM1042.03 77.36C1040.03 77.36 1038.5 76.7975 1037.42 75.6725C1036.34 74.5325 1035.8 72.965 1035.8 70.97V58.0775H1033.46C1033.16 58.0775 1032.89 57.98 1032.67 57.785C1032.46 57.59 1032.35 57.2975 1032.35 56.9075V54.7025L1036.07 54.095L1037.24 47.795C1037.3 47.495 1037.43 47.2625 1037.64 47.0975C1037.87 46.9325 1038.14 46.85 1038.47 46.85H1041.35V54.1175H1047.43V58.0775H1041.35V70.5875C1041.35 71.3075 1041.53 71.87 1041.89 72.275C1042.25 72.68 1042.73 72.8825 1043.33 72.8825C1043.68 72.8825 1043.96 72.845 1044.19 72.77C1044.43 72.68 1044.63 72.59 1044.8 72.5C1044.98 72.41 1045.13 72.3275 1045.27 72.2525C1045.4 72.1625 1045.54 72.1175 1045.67 72.1175C1045.84 72.1175 1045.97 72.1625 1046.08 72.2525C1046.18 72.3275 1046.3 72.4475 1046.42 72.6125L1048.08 75.3125C1047.27 75.9875 1046.34 76.4975 1045.29 76.8425C1044.24 77.1875 1043.15 77.36 1042.03 77.36Z" fill="white"/>
<path d="M112.114 35H92.959V60.841H118.821V41.6863C118.821 40.8064 118.647 39.9353 118.31 39.1227C117.973 38.3101 117.478 37.572 116.855 36.9509C116.232 36.3297 115.493 35.8377 114.679 35.5029C113.865 35.1681 112.994 34.9972 112.114 35Z" fill="#142533"/>
<path d="M86.9874 35H83.6863C81.913 35 80.2123 35.7044 78.9584 36.9584C77.7044 38.2123 77 39.913 77 41.6863V44.9874H86.9874V35Z" fill="#142533"/>
<path d="M77 50.9588H86.9874V60.9461H77V50.9588Z" fill="#142533"/>
<path d="M108.916 76.8208H112.217C113.097 76.8208 113.968 76.6472 114.781 76.3098C115.593 75.9725 116.331 75.4781 116.952 74.855C117.574 74.2319 118.066 73.4923 118.4 72.6787C118.735 71.865 118.906 70.9933 118.903 70.1135V66.9175H108.916V76.8208Z" fill="#142533"/>
<path d="M92.959 66.9175H102.946V76.9049H92.959V66.9175Z" fill="#142533"/>
<path d="M77 66.9175V70.2186C77 71.9919 77.7044 73.6926 78.9584 74.9466C80.2123 76.2005 81.913 76.9049 83.6863 76.9049H86.9874V66.9175H77Z" fill="#142533"/>
<path d="M144.346 37.6703H140.436V74.2346H161.146V70.7443H144.346V37.6703Z" fill="#142533"/>
<path d="M173.719 47.3633C166.108 47.3633 160.746 53.0194 160.746 61.1564V62.0816C160.871 65.5236 162.321 68.7844 164.793 71.1824C167.266 73.5804 170.569 74.9301 174.014 74.9495H174.518C178.081 74.9433 181.524 73.6686 184.232 71.3541V71.2489L182.466 68.3684L182.277 68.4735C180.175 70.4347 177.414 71.5374 174.539 71.5643C173.224 71.5936 171.918 71.3545 170.698 70.8616C169.479 70.3687 168.373 69.6324 167.448 68.6976C166.524 67.7628 165.799 66.6492 165.319 65.4249C164.839 64.2006 164.614 62.8913 164.657 61.577H184.421V61.3667C184.421 61.3667 184.421 60.1262 184.421 59.5164C184.611 52.0942 180.3 47.3633 173.719 47.3633ZM164.867 58.2759C165.12 56.1649 166.14 54.2206 167.734 52.8132C169.327 51.4057 171.383 50.6335 173.509 50.6434C176.81 50.6434 180.426 52.6199 180.721 58.2759H164.867Z" fill="#142533"/>
<path d="M207.359 50.4541V51.8208C206.537 50.4506 205.376 49.315 203.988 48.5233C202.599 47.7316 201.031 47.3104 199.433 47.3002H198.949C191.947 47.3002 187.111 52.8511 187.111 60.9882C187.111 69.1253 191.737 74.8023 198.634 74.8023C200.39 74.886 202.135 74.4874 203.681 73.6497C205.226 72.8121 206.513 71.5673 207.401 70.0504V74.0664H211.102V37.6703H207.359V50.4541ZM199.327 71.354C194.491 71.354 191.296 67.1488 191.296 61.0513C191.296 54.9537 194.681 50.8536 199.433 50.8536C203.364 50.8536 207.359 54.0496 207.359 61.0513C207.359 68.6417 203.154 71.354 199.243 71.354H199.327Z" fill="#142533"/>
<path d="M233.747 50.9588V51.169C233.011 49.9285 230.761 47.2582 225.337 47.2582C218.44 47.2582 213.898 52.5147 213.898 60.5466C213.898 68.5786 218.65 74.0243 225.652 74.0243C227.264 74.144 228.879 73.8143 230.315 73.072C231.751 72.3297 232.954 71.2037 233.789 69.8191V73.4356C233.789 78.4819 230.593 81.3624 224.916 81.3624C222.469 81.3781 220.054 80.8086 217.872 79.7014L217.683 79.5963L216.232 82.7922L216.443 82.8974C219.091 84.2399 222.011 84.9591 224.979 85C231.056 85 237.595 81.9091 237.595 73.3515V48.1202H233.747V50.9588ZM226.115 70.7443C221.068 70.7443 217.704 66.8334 217.704 60.7569C217.704 54.6804 220.585 51.0639 225.526 51.0639C230.972 51.0639 233.558 54.2599 233.558 60.7569C233.558 67.254 231.056 70.7443 226.115 70.7443Z" fill="#142533"/>
<path d="M253.116 47.3633C245.483 47.3633 240.227 53.0194 240.227 61.0513V61.9765C240.336 65.4553 241.795 68.7549 244.295 71.1765C246.795 73.598 250.14 74.9512 253.62 74.9495H254.146C257.697 74.9293 261.125 73.6475 263.818 71.333L262.031 68.2632H261.82C259.726 70.223 256.972 71.3259 254.104 71.3541C252.788 71.3832 251.48 71.1442 250.26 70.6515C249.04 70.1588 247.933 69.4228 247.006 68.4884C246.079 67.5539 245.353 66.4406 244.871 65.2162C244.388 63.9918 244.16 62.682 244.2 61.3667H264.133V61.1564C264.133 61.1564 264.133 59.9159 264.133 59.3061C264.133 52.0942 259.802 47.3633 253.116 47.3633ZM244.348 58.2759C244.605 56.1631 245.63 54.2185 247.227 52.8115C248.824 51.4044 250.882 50.6329 253.01 50.6434C256.29 50.6434 259.907 52.6199 260.201 58.2759H244.348Z" fill="#142533"/>
<path d="M280.194 47.8679C279.669 47.8679 279.269 47.8679 278.744 47.6577C276.927 47.71 275.17 48.3217 273.714 49.4092C272.258 50.4967 271.173 52.0071 270.607 53.7342V47.8679H266.801V73.9192V74.1295H270.712V63.1118C270.725 61.4183 271.002 59.7371 271.532 58.1286C272.772 54.1127 275.548 51.5475 278.849 51.5475C279.261 51.5057 279.677 51.5057 280.089 51.5475H280.3V47.8679H280.194Z" fill="#142533"/>
<defs>
<filter id="filter0_d" x="342" y="-199" width="889" height="524" filterUnits="userSpaceOnUse" color-interpolation-filters="sRGB">
<feFlood flood-opacity="0" result="BackgroundImageFix"/>
<feColorMatrix in="SourceAlpha" type="matrix" values="0 0 0 0 0 0 0 0 0 0 0 0 0 0 0 0 0 0 127 0"/>
<feOffset dx="-6" dy="3"/>
<feGaussianBlur stdDeviation="5"/>
<feColorMatrix type="matrix" values="0 0 0 0 0.733333 0 0 0 0 0.733333 0 0 0 0 0.733333 0 0 0 0.5 0"/>
<feBlend mode="normal" in2="BackgroundImageFix" result="effect1_dropShadow"/>
<feBlend mode="normal" in="SourceGraphic" in2="effect1_dropShadow" result="shape"/>
</filter>
<linearGradient id="paint0_linear" x1="297" y1="40.5" x2="1554.5" y2="125.5" gradientUnits="userSpaceOnUse">
<stop stop-color="#6BC9B5"/>
<stop offset="0.805211" stop-color="#6BC9B5" stop-opacity="0"/>
<stop offset="0.975976" stop-color="#E8EDEA" stop-opacity="0.66"/>
</linearGradient>
</defs>
</svg>
