<svg viewBox="0 0 357 162" xmlns="http://www.w3.org/2000/svg">
<g filter="url(#filter0_d)">
<rect x="6" y="3" width="345" height="150" rx="3" fill="white"/>
</g>
<path d="M215.541 61H202.699V78.3248H220.038V65.4827C220.038 64.8928 219.922 64.3088 219.696 63.764C219.469 63.2192 219.138 62.7244 218.72 62.3079C218.302 61.8915 217.807 61.5616 217.261 61.3371C216.716 61.1127 216.131 60.9981 215.541 61Z" fill="#142533"/>
<path d="M198.696 61H196.483C195.294 61 194.154 61.4723 193.313 62.313C192.472 63.1536 192 64.2938 192 65.4827V67.6959H198.696V61Z" fill="#142533"/>
<path d="M192 71.6994H198.696V78.3953H192V71.6994Z" fill="#142533"/>
<path d="M213.398 89.0382H215.612C216.201 89.0382 216.786 88.9218 217.33 88.6957C217.875 88.4695 218.37 88.138 218.786 87.7203C219.203 87.3025 219.533 86.8067 219.757 86.2612C219.982 85.7157 220.096 85.1313 220.094 84.5414V82.3987H213.398V89.0382Z" fill="#142533"/>
<path d="M202.699 82.3987H209.395V89.0946H202.699V82.3987Z" fill="#142533"/>
<path d="M192 82.3987V84.6119C192 85.8008 192.472 86.941 193.313 87.7817C194.154 88.6223 195.294 89.0946 196.483 89.0946H198.696V82.3987H192Z" fill="#142533"/>
<path d="M237.151 62.7903H234.529V87.3043H248.415V84.9643H237.151V62.7903Z" fill="#142533"/>
<path d="M256.844 69.2888C251.741 69.2888 248.146 73.0808 248.146 78.5362V79.1565C248.23 81.4642 249.202 83.6503 250.86 85.258C252.518 86.8657 254.732 87.7706 257.041 87.7836H257.38C259.768 87.7794 262.077 86.9249 263.892 85.3731V85.3026L262.708 83.3714L262.581 83.4419C261.172 84.7567 259.321 85.496 257.394 85.5141C256.512 85.5337 255.636 85.3734 254.819 85.0429C254.002 84.7125 253.26 84.2188 252.64 83.5921C252.02 82.9654 251.534 82.2188 251.212 81.398C250.891 80.5772 250.739 79.6993 250.768 78.8182H264.019V78.6772C264.019 78.6772 264.019 77.8455 264.019 77.4367C264.146 72.4606 261.256 69.2888 256.844 69.2888ZM250.909 76.605C251.079 75.1897 251.763 73.8862 252.831 72.9426C253.9 71.999 255.278 71.4812 256.703 71.4879C258.916 71.4879 261.341 72.813 261.538 76.605H250.909Z" fill="#142533"/>
<path d="M279.397 71.361V72.2773C278.846 71.3587 278.067 70.5973 277.137 70.0665C276.206 69.5358 275.154 69.2534 274.083 69.2465H273.759C269.064 69.2465 265.822 72.968 265.822 78.4235C265.822 83.8789 268.924 87.685 273.547 87.685C274.725 87.7411 275.895 87.4738 276.931 86.9122C277.967 86.3506 278.83 85.5161 279.426 84.4991V87.1916H281.907V62.7903H279.397V71.361ZM274.012 85.3731C270.77 85.3731 268.628 82.5538 268.628 78.4657C268.628 74.3777 270.897 71.6289 274.083 71.6289C276.719 71.6289 279.397 73.7716 279.397 78.4657C279.397 83.5546 276.578 85.3731 273.956 85.3731H274.012Z" fill="#142533"/>
<path d="M297.088 71.6994V71.8403C296.595 71.0086 295.087 69.2184 291.45 69.2184C286.826 69.2184 283.781 72.7425 283.781 78.1274C283.781 83.5124 286.967 87.1634 291.661 87.1634C292.742 87.2436 293.824 87.0226 294.788 86.5249C295.751 86.0272 296.557 85.2723 297.117 84.3441V86.7687C297.117 90.1519 294.974 92.0831 291.168 92.0831C289.528 92.0936 287.908 91.7118 286.446 90.9695L286.319 90.899L285.346 93.0417L285.487 93.1122C287.262 94.0123 289.22 94.4945 291.21 94.5219C295.284 94.5219 299.668 92.4496 299.668 86.7123V69.7963H297.088V71.6994ZM291.971 84.9643C288.588 84.9643 286.333 82.3423 286.333 78.2684C286.333 74.1945 288.264 71.7698 291.577 71.7698C295.228 71.7698 296.962 73.9125 296.962 78.2684C296.962 82.6243 295.284 84.9643 291.971 84.9643Z" fill="#142533"/>
<path d="M310.075 69.2888C304.958 69.2888 301.434 73.0808 301.434 78.4657V79.086C301.507 81.4183 302.485 83.6305 304.161 85.254C305.837 86.8775 308.08 87.7848 310.413 87.7836H310.766C313.146 87.77 315.445 86.9107 317.25 85.359L316.052 83.3009H315.911C314.507 84.6148 312.66 85.3542 310.737 85.3731C309.855 85.3927 308.979 85.2324 308.16 84.9021C307.342 84.5718 306.6 84.0783 305.979 83.4518C305.358 82.8254 304.87 82.0789 304.547 81.2581C304.224 80.4372 304.071 79.5591 304.098 78.6772H317.462V78.5362C317.462 78.5362 317.462 77.7045 317.462 77.2957C317.462 72.4606 314.558 69.2888 310.075 69.2888ZM304.197 76.605C304.369 75.1885 305.056 73.8848 306.127 72.9415C307.198 71.9981 308.577 71.4809 310.004 71.4879C312.203 71.4879 314.628 72.813 314.825 76.605H304.197Z" fill="#142533"/>
<path d="M328.23 69.6271C327.877 69.6271 327.609 69.6271 327.257 69.4862C326.039 69.5213 324.861 69.9314 323.885 70.6605C322.909 71.3896 322.181 72.4022 321.802 73.5601V69.6271H319.25V87.0929V87.2339H321.872V79.8472C321.881 78.7118 322.066 77.5847 322.422 76.5063C323.253 73.8139 325.114 72.0941 327.327 72.0941C327.604 72.0661 327.883 72.0661 328.159 72.0941H328.3V69.6271H328.23Z" fill="#142533"/>
<path d="M44.72 73.624C45.448 73.624 46.08 73.56 46.616 73.432C47.16 73.296 47.676 73.112 48.164 72.88V69.724H45.992C45.784 69.724 45.62 69.668 45.5 69.556C45.38 69.436 45.32 69.292 45.32 69.124V67.3H51.092V74.32C50.652 74.64 50.192 74.92 49.712 75.16C49.24 75.392 48.732 75.584 48.188 75.736C47.652 75.888 47.076 76 46.46 76.072C45.844 76.152 45.18 76.192 44.468 76.192C43.204 76.192 42.04 75.972 40.976 75.532C39.912 75.092 38.992 74.48 38.216 73.696C37.44 72.912 36.832 71.976 36.392 70.888C35.96 69.8 35.744 68.612 35.744 67.324C35.744 66.02 35.956 64.824 36.38 63.736C36.804 62.648 37.404 61.712 38.18 60.928C38.964 60.144 39.912 59.536 41.024 59.104C42.136 58.672 43.384 58.456 44.768 58.456C46.184 58.456 47.408 58.668 48.44 59.092C49.48 59.508 50.36 60.052 51.08 60.724L50.144 62.188C49.96 62.484 49.716 62.632 49.412 62.632C49.22 62.632 49.024 62.568 48.824 62.44C48.568 62.288 48.304 62.136 48.032 61.984C47.768 61.832 47.472 61.7 47.144 61.588C46.824 61.476 46.46 61.384 46.052 61.312C45.652 61.24 45.188 61.204 44.66 61.204C43.804 61.204 43.028 61.348 42.332 61.636C41.644 61.924 41.056 62.336 40.568 62.872C40.08 63.408 39.704 64.052 39.44 64.804C39.176 65.556 39.044 66.396 39.044 67.324C39.044 68.324 39.184 69.216 39.464 70C39.744 70.776 40.136 71.432 40.64 71.968C41.144 72.504 41.744 72.916 42.44 73.204C43.136 73.484 43.896 73.624 44.72 73.624ZM59.0158 63.496C59.7918 63.496 60.5038 63.62 61.1518 63.868C61.8078 64.116 62.3718 64.48 62.8438 64.96C63.3158 65.432 63.6838 66.016 63.9478 66.712C64.2118 67.4 64.3438 68.188 64.3438 69.076C64.3438 69.3 64.3318 69.488 64.3078 69.64C64.2918 69.784 64.2558 69.9 64.1998 69.988C64.1518 70.068 64.0838 70.128 63.9958 70.168C63.9078 70.2 63.7958 70.216 63.6598 70.216H56.0518C56.1398 71.48 56.4798 72.408 57.0718 73C57.6638 73.592 58.4478 73.888 59.4238 73.888C59.9038 73.888 60.3158 73.832 60.6598 73.72C61.0118 73.608 61.3158 73.484 61.5718 73.348C61.8358 73.212 62.0638 73.088 62.2558 72.976C62.4558 72.864 62.6478 72.808 62.8318 72.808C62.9518 72.808 63.0558 72.832 63.1438 72.88C63.2318 72.928 63.3078 72.996 63.3718 73.084L64.2358 74.164C63.9078 74.548 63.5398 74.872 63.1318 75.136C62.7238 75.392 62.2958 75.6 61.8478 75.76C61.4078 75.912 60.9558 76.02 60.4918 76.084C60.0358 76.148 59.5918 76.18 59.1598 76.18C58.3038 76.18 57.5078 76.04 56.7718 75.76C56.0358 75.472 55.3958 75.052 54.8518 74.5C54.3078 73.94 53.8798 73.252 53.5678 72.436C53.2558 71.612 53.0998 70.66 53.0998 69.58C53.0998 68.74 53.2358 67.952 53.5078 67.216C53.7798 66.472 54.1678 65.828 54.6718 65.284C55.1838 64.732 55.8038 64.296 56.5318 63.976C57.2678 63.656 58.0958 63.496 59.0158 63.496ZM59.0758 65.62C58.2118 65.62 57.5358 65.864 57.0478 66.352C56.5598 66.84 56.2478 67.532 56.1118 68.428H61.6798C61.6798 68.044 61.6278 67.684 61.5238 67.348C61.4198 67.004 61.2598 66.704 61.0438 66.448C60.8278 66.192 60.5558 65.992 60.2278 65.848C59.8998 65.696 59.5158 65.62 59.0758 65.62ZM70.7921 76.192C69.7281 76.192 68.9081 75.892 68.3321 75.292C67.7561 74.684 67.4681 73.848 67.4681 72.784V65.908H66.2201C66.0601 65.908 65.9201 65.856 65.8001 65.752C65.6881 65.648 65.6321 65.492 65.6321 65.284V64.108L67.6121 63.784L68.2361 60.424C68.2681 60.264 68.3401 60.14 68.4521 60.052C68.5721 59.964 68.7201 59.92 68.8961 59.92H70.4321V63.796H73.6721V65.908H70.4321V72.58C70.4321 72.964 70.5281 73.264 70.7201 73.48C70.9121 73.696 71.1681 73.804 71.4881 73.804C71.6721 73.804 71.8241 73.784 71.9441 73.744C72.0721 73.696 72.1801 73.648 72.2681 73.6C72.3641 73.552 72.4481 73.508 72.5201 73.468C72.5921 73.42 72.6641 73.396 72.7361 73.396C72.8241 73.396 72.8961 73.42 72.9521 73.468C73.0081 73.508 73.0681 73.572 73.1321 73.66L74.0201 75.1C73.5881 75.46 73.0921 75.732 72.5321 75.916C71.9721 76.1 71.3921 76.192 70.7921 76.192ZM85.0379 79.384C84.9499 79.592 84.8339 79.748 84.6899 79.852C84.5539 79.964 84.3419 80.02 84.0539 80.02H81.8459L84.1499 75.088L79.1699 63.688H81.7619C82.0019 63.688 82.1859 63.744 82.3139 63.856C82.4419 63.968 82.5379 64.096 82.6019 64.24L85.2299 70.624C85.3179 70.832 85.3939 71.048 85.4579 71.272C85.5219 71.496 85.5779 71.72 85.6259 71.944C85.6899 71.712 85.7579 71.488 85.8299 71.272C85.9099 71.056 85.9939 70.836 86.0819 70.612L88.5539 64.24C88.6179 64.08 88.7219 63.948 88.8659 63.844C89.0179 63.74 89.1859 63.688 89.3699 63.688H91.7459L85.0379 79.384ZM98.3244 63.496C99.2444 63.496 100.076 63.644 100.82 63.94C101.572 64.236 102.212 64.656 102.74 65.2C103.268 65.744 103.676 66.408 103.964 67.192C104.252 67.976 104.396 68.852 104.396 69.82C104.396 70.796 104.252 71.676 103.964 72.46C103.676 73.244 103.268 73.912 102.74 74.464C102.212 75.016 101.572 75.44 100.82 75.736C100.076 76.032 99.2444 76.18 98.3244 76.18C97.4044 76.18 96.5684 76.032 95.8164 75.736C95.0644 75.44 94.4204 75.016 93.8844 74.464C93.3564 73.912 92.9444 73.244 92.6484 72.46C92.3604 71.676 92.2164 70.796 92.2164 69.82C92.2164 68.852 92.3604 67.976 92.6484 67.192C92.9444 66.408 93.3564 65.744 93.8844 65.2C94.4204 64.656 95.0644 64.236 95.8164 63.94C96.5684 63.644 97.4044 63.496 98.3244 63.496ZM98.3244 73.9C99.3484 73.9 100.104 73.556 100.592 72.868C101.088 72.18 101.336 71.172 101.336 69.844C101.336 68.516 101.088 67.504 100.592 66.808C100.104 66.112 99.3484 65.764 98.3244 65.764C97.2844 65.764 96.5164 66.116 96.0204 66.82C95.5244 67.516 95.2764 68.524 95.2764 69.844C95.2764 71.164 95.5244 72.172 96.0204 72.868C96.5164 73.556 97.2844 73.9 98.3244 73.9ZM109.421 63.688V71.512C109.421 72.264 109.593 72.848 109.937 73.264C110.289 73.672 110.813 73.876 111.509 73.876C112.021 73.876 112.501 73.764 112.949 73.54C113.397 73.308 113.821 72.992 114.221 72.592V63.688H117.185V76H115.373C114.989 76 114.737 75.82 114.617 75.46L114.413 74.476C114.157 74.732 113.893 74.968 113.621 75.184C113.349 75.392 113.057 75.572 112.745 75.724C112.441 75.868 112.109 75.98 111.749 76.06C111.397 76.148 111.017 76.192 110.609 76.192C109.937 76.192 109.341 76.08 108.821 75.856C108.309 75.624 107.877 75.3 107.525 74.884C107.173 74.468 106.905 73.976 106.721 73.408C106.545 72.832 106.457 72.2 106.457 71.512V63.688H109.421ZM120.35 76V63.688H122.09C122.394 63.688 122.606 63.744 122.726 63.856C122.846 63.968 122.926 64.16 122.966 64.432L123.146 65.92C123.586 65.16 124.102 64.56 124.694 64.12C125.286 63.68 125.95 63.46 126.686 63.46C127.294 63.46 127.798 63.6 128.198 63.88L127.814 66.1C127.79 66.244 127.738 66.348 127.658 66.412C127.578 66.468 127.47 66.496 127.334 66.496C127.214 66.496 127.05 66.468 126.842 66.412C126.634 66.356 126.358 66.328 126.014 66.328C125.398 66.328 124.87 66.5 124.43 66.844C123.99 67.18 123.618 67.676 123.314 68.332V76H120.35Z" fill="#163150"/>
<path d="M36.168 103V91.216H37.592V95.984C37.9387 95.616 38.3227 95.3227 38.744 95.104C39.1653 94.88 39.6507 94.768 40.2 94.768C40.6427 94.768 41.032 94.8427 41.368 94.992C41.7093 95.136 41.992 95.344 42.216 95.616C42.4453 95.8827 42.6187 96.2053 42.736 96.584C42.8533 96.9627 42.912 97.3813 42.912 97.84V103H41.488V97.84C41.488 97.2267 41.3467 96.752 41.064 96.416C40.7867 96.0747 40.36 95.904 39.784 95.904C39.3627 95.904 38.968 96.0053 38.6 96.208C38.2373 96.4107 37.9013 96.6853 37.592 97.032V103H36.168ZM51.0106 103H50.3786C50.24 103 50.128 102.979 50.0426 102.936C49.9573 102.893 49.9013 102.803 49.8746 102.664L49.7146 101.912C49.5013 102.104 49.2933 102.277 49.0906 102.432C48.888 102.581 48.6746 102.709 48.4506 102.816C48.2266 102.917 47.9866 102.995 47.7306 103.048C47.48 103.101 47.2 103.128 46.8906 103.128C46.576 103.128 46.28 103.085 46.0026 103C45.7306 102.909 45.4933 102.776 45.2906 102.6C45.088 102.424 44.9253 102.203 44.8026 101.936C44.6853 101.664 44.6266 101.344 44.6266 100.976C44.6266 100.656 44.7146 100.349 44.8906 100.056C45.0666 99.7573 45.3493 99.4933 45.7386 99.264C46.1333 99.0347 46.648 98.848 47.2826 98.704C47.9173 98.5547 48.6933 98.4693 49.6106 98.448V97.816C49.6106 97.1867 49.4746 96.712 49.2026 96.392C48.936 96.0667 48.5386 95.904 48.0106 95.904C47.664 95.904 47.3706 95.9493 47.1306 96.04C46.896 96.1253 46.6906 96.224 46.5146 96.336C46.344 96.4427 46.1946 96.5413 46.0666 96.632C45.944 96.7173 45.8213 96.76 45.6986 96.76C45.6026 96.76 45.5173 96.736 45.4426 96.688C45.3733 96.6347 45.3173 96.5707 45.2746 96.496L45.0186 96.04C45.4666 95.608 45.9493 95.2853 46.4666 95.072C46.984 94.8587 47.5573 94.752 48.1866 94.752C48.64 94.752 49.0426 94.8267 49.3946 94.976C49.7466 95.1253 50.0426 95.3333 50.2826 95.6C50.5226 95.8667 50.704 96.1893 50.8266 96.568C50.9493 96.9467 51.0106 97.3627 51.0106 97.816V103ZM47.3146 102.128C47.5653 102.128 47.7946 102.104 48.0026 102.056C48.2106 102.003 48.4053 101.931 48.5866 101.84C48.7733 101.744 48.9493 101.629 49.1146 101.496C49.2853 101.363 49.4506 101.211 49.6106 101.04V99.352C48.9546 99.3733 48.3973 99.4267 47.9386 99.512C47.48 99.592 47.1066 99.6987 46.8186 99.832C46.5306 99.9653 46.32 100.123 46.1866 100.304C46.0586 100.485 45.9946 100.688 45.9946 100.912C45.9946 101.125 46.0293 101.309 46.0986 101.464C46.168 101.619 46.2613 101.747 46.3786 101.848C46.496 101.944 46.6346 102.016 46.7946 102.064C46.9546 102.107 47.128 102.128 47.3146 102.128ZM53.168 103V94.896H53.984C54.1387 94.896 54.2453 94.9253 54.304 94.984C54.3627 95.0427 54.4027 95.144 54.424 95.288L54.52 96.552C54.7973 95.9867 55.1387 95.5467 55.544 95.232C55.9547 94.912 56.4347 94.752 56.984 94.752C57.208 94.752 57.4107 94.7787 57.592 94.832C57.7733 94.88 57.9413 94.9493 58.096 95.04L57.912 96.104C57.8747 96.2373 57.792 96.304 57.664 96.304C57.5893 96.304 57.4747 96.28 57.32 96.232C57.1653 96.1787 56.9493 96.152 56.672 96.152C56.176 96.152 55.76 96.296 55.424 96.584C55.0933 96.872 54.816 97.2907 54.592 97.84V103H53.168ZM65.3251 103C65.1225 103 64.9945 102.901 64.9411 102.704L64.8131 101.72C64.4665 102.141 64.0691 102.48 63.6211 102.736C63.1785 102.987 62.6691 103.112 62.0931 103.112C61.6291 103.112 61.2078 103.024 60.8291 102.848C60.4505 102.667 60.1278 102.403 59.8611 102.056C59.5945 101.709 59.3891 101.277 59.2451 100.76C59.1011 100.243 59.0291 99.648 59.0291 98.976C59.0291 98.3787 59.1091 97.824 59.2691 97.312C59.4291 96.7947 59.6585 96.3467 59.9571 95.968C60.2611 95.5893 60.6291 95.2933 61.0611 95.08C61.4931 94.8613 61.9838 94.752 62.5331 94.752C63.0291 94.752 63.4531 94.8373 63.8051 95.008C64.1571 95.1733 64.4718 95.408 64.7491 95.712V91.216H66.1731V103H65.3251ZM62.5651 101.96C63.0291 101.96 63.4345 101.853 63.7811 101.64C64.1331 101.427 64.4558 101.125 64.7491 100.736V96.816C64.4878 96.464 64.1998 96.2187 63.8851 96.08C63.5758 95.936 63.2318 95.864 62.8531 95.864C62.0958 95.864 61.5145 96.1333 61.1091 96.672C60.7038 97.2107 60.5011 97.9787 60.5011 98.976C60.5011 99.504 60.5465 99.9573 60.6371 100.336C60.7278 100.709 60.8611 101.019 61.0371 101.264C61.2131 101.504 61.4291 101.68 61.6851 101.792C61.9411 101.904 62.2345 101.96 62.5651 101.96ZM67.5026 94.896H68.6226C68.74 94.896 68.836 94.9253 68.9106 94.984C68.9853 95.0427 69.036 95.112 69.0626 95.192L70.6146 100.408C70.6573 100.6 70.6973 100.787 70.7346 100.968C70.772 101.144 70.804 101.323 70.8306 101.504C70.8733 101.323 70.9213 101.144 70.9746 100.968C71.028 100.787 71.084 100.6 71.1426 100.408L72.8546 95.16C72.8813 95.08 72.9266 95.0133 72.9906 94.96C73.06 94.9067 73.1453 94.88 73.2466 94.88H73.8626C73.9693 94.88 74.0573 94.9067 74.1266 94.96C74.196 95.0133 74.244 95.08 74.2706 95.16L75.9426 100.408C76.0013 100.595 76.052 100.779 76.0946 100.96C76.1426 101.141 76.188 101.32 76.2306 101.496C76.2573 101.32 76.292 101.136 76.3346 100.944C76.3773 100.752 76.4226 100.573 76.4706 100.408L78.0546 95.192C78.0813 95.1067 78.132 95.0373 78.2066 94.984C78.2813 94.9253 78.3693 94.896 78.4706 94.896H79.5426L76.9186 103H75.7906C75.652 103 75.556 102.909 75.5026 102.728L73.7106 97.232C73.668 97.1093 73.6333 96.9867 73.6066 96.864C73.58 96.736 73.5533 96.6107 73.5266 96.488C73.5 96.6107 73.4733 96.736 73.4466 96.864C73.42 96.992 73.3853 97.1173 73.3426 97.24L71.5266 102.728C71.468 102.909 71.3586 103 71.1986 103H70.1266L67.5026 94.896ZM86.7606 103H86.1286C85.99 103 85.878 102.979 85.7926 102.936C85.7073 102.893 85.6513 102.803 85.6246 102.664L85.4646 101.912C85.2513 102.104 85.0433 102.277 84.8406 102.432C84.638 102.581 84.4246 102.709 84.2006 102.816C83.9766 102.917 83.7366 102.995 83.4806 103.048C83.23 103.101 82.95 103.128 82.6406 103.128C82.326 103.128 82.03 103.085 81.7526 103C81.4806 102.909 81.2433 102.776 81.0406 102.6C80.838 102.424 80.6753 102.203 80.5526 101.936C80.4353 101.664 80.3766 101.344 80.3766 100.976C80.3766 100.656 80.4646 100.349 80.6406 100.056C80.8166 99.7573 81.0993 99.4933 81.4886 99.264C81.8833 99.0347 82.398 98.848 83.0326 98.704C83.6673 98.5547 84.4433 98.4693 85.3606 98.448V97.816C85.3606 97.1867 85.2246 96.712 84.9526 96.392C84.686 96.0667 84.2886 95.904 83.7606 95.904C83.414 95.904 83.1206 95.9493 82.8806 96.04C82.646 96.1253 82.4406 96.224 82.2646 96.336C82.094 96.4427 81.9446 96.5413 81.8166 96.632C81.694 96.7173 81.5713 96.76 81.4486 96.76C81.3526 96.76 81.2673 96.736 81.1926 96.688C81.1233 96.6347 81.0673 96.5707 81.0246 96.496L80.7686 96.04C81.2166 95.608 81.6993 95.2853 82.2166 95.072C82.734 94.8587 83.3073 94.752 83.9366 94.752C84.39 94.752 84.7926 94.8267 85.1446 94.976C85.4966 95.1253 85.7926 95.3333 86.0326 95.6C86.2726 95.8667 86.454 96.1893 86.5766 96.568C86.6993 96.9467 86.7606 97.3627 86.7606 97.816V103ZM83.0646 102.128C83.3153 102.128 83.5446 102.104 83.7526 102.056C83.9606 102.003 84.1553 101.931 84.3366 101.84C84.5233 101.744 84.6993 101.629 84.8646 101.496C85.0353 101.363 85.2006 101.211 85.3606 101.04V99.352C84.7046 99.3733 84.1473 99.4267 83.6886 99.512C83.23 99.592 82.8566 99.6987 82.5686 99.832C82.2806 99.9653 82.07 100.123 81.9366 100.304C81.8086 100.485 81.7446 100.688 81.7446 100.912C81.7446 101.125 81.7793 101.309 81.8486 101.464C81.918 101.619 82.0113 101.747 82.1286 101.848C82.246 101.944 82.3846 102.016 82.5446 102.064C82.7046 102.107 82.878 102.128 83.0646 102.128ZM88.918 103V94.896H89.734C89.8887 94.896 89.9953 94.9253 90.054 94.984C90.1127 95.0427 90.1527 95.144 90.174 95.288L90.27 96.552C90.5473 95.9867 90.8887 95.5467 91.294 95.232C91.7047 94.912 92.1847 94.752 92.734 94.752C92.958 94.752 93.1607 94.7787 93.342 94.832C93.5233 94.88 93.6913 94.9493 93.846 95.04L93.662 96.104C93.6247 96.2373 93.542 96.304 93.414 96.304C93.3393 96.304 93.2247 96.28 93.07 96.232C92.9153 96.1787 92.6993 96.152 92.422 96.152C91.926 96.152 91.51 96.296 91.174 96.584C90.8433 96.872 90.566 97.2907 90.342 97.84V103H88.918ZM98.5791 94.768C99.0645 94.768 99.5125 94.8507 99.9231 95.016C100.334 95.176 100.688 95.4107 100.987 95.72C101.286 96.024 101.518 96.4027 101.683 96.856C101.854 97.304 101.939 97.816 101.939 98.392C101.939 98.616 101.915 98.7653 101.867 98.84C101.819 98.9147 101.728 98.952 101.595 98.952H96.2031C96.2138 99.464 96.2831 99.9093 96.4111 100.288C96.5391 100.667 96.7151 100.984 96.9391 101.24C97.1631 101.491 97.4298 101.68 97.7391 101.808C98.0485 101.931 98.3951 101.992 98.7791 101.992C99.1365 101.992 99.4431 101.952 99.6991 101.872C99.9605 101.787 100.184 101.696 100.371 101.6C100.558 101.504 100.712 101.416 100.835 101.336C100.963 101.251 101.072 101.208 101.163 101.208C101.28 101.208 101.371 101.253 101.435 101.344L101.835 101.864C101.659 102.077 101.448 102.264 101.203 102.424C100.958 102.579 100.694 102.707 100.411 102.808C100.134 102.909 99.8458 102.984 99.5471 103.032C99.2485 103.085 98.9525 103.112 98.6591 103.112C98.0991 103.112 97.5818 103.019 97.1071 102.832C96.6378 102.64 96.2298 102.363 95.8831 102C95.5418 101.632 95.2751 101.179 95.0831 100.64C94.8911 100.101 94.7951 99.4827 94.7951 98.784C94.7951 98.2187 94.8805 97.6907 95.0511 97.2C95.2271 96.7093 95.4778 96.2853 95.8031 95.928C96.1285 95.5653 96.5258 95.2827 96.9951 95.08C97.4645 94.872 97.9925 94.768 98.5791 94.768ZM98.6111 95.816C97.9231 95.816 97.3818 96.016 96.9871 96.416C96.5925 96.8107 96.3471 97.36 96.2511 98.064H100.659C100.659 97.7333 100.614 97.432 100.523 97.16C100.432 96.8827 100.299 96.6453 100.123 96.448C99.9471 96.2453 99.7311 96.0907 99.4751 95.984C99.2245 95.872 98.9365 95.816 98.6111 95.816ZM105.8 94.896H106.92C107.037 94.896 107.133 94.9253 107.208 94.984C107.282 95.0427 107.333 95.112 107.36 95.192L108.912 100.408C108.954 100.6 108.994 100.787 109.032 100.968C109.069 101.144 109.101 101.323 109.128 101.504C109.17 101.323 109.218 101.144 109.272 100.968C109.325 100.787 109.381 100.6 109.44 100.408L111.152 95.16C111.178 95.08 111.224 95.0133 111.288 94.96C111.357 94.9067 111.442 94.88 111.544 94.88H112.16C112.266 94.88 112.354 94.9067 112.424 94.96C112.493 95.0133 112.541 95.08 112.568 95.16L114.24 100.408C114.298 100.595 114.349 100.779 114.392 100.96C114.44 101.141 114.485 101.32 114.528 101.496C114.554 101.32 114.589 101.136 114.632 100.944C114.674 100.752 114.72 100.573 114.768 100.408L116.352 95.192C116.378 95.1067 116.429 95.0373 116.504 94.984C116.578 94.9253 116.666 94.896 116.768 94.896H117.84L115.216 103H114.088C113.949 103 113.853 102.909 113.8 102.728L112.008 97.232C111.965 97.1093 111.93 96.9867 111.904 96.864C111.877 96.736 111.85 96.6107 111.824 96.488C111.797 96.6107 111.77 96.736 111.744 96.864C111.717 96.992 111.682 97.1173 111.64 97.24L109.824 102.728C109.765 102.909 109.656 103 109.496 103H108.424L105.8 94.896ZM125.058 103H124.426C124.287 103 124.175 102.979 124.09 102.936C124.004 102.893 123.948 102.803 123.922 102.664L123.762 101.912C123.548 102.104 123.34 102.277 123.138 102.432C122.935 102.581 122.722 102.709 122.498 102.816C122.274 102.917 122.034 102.995 121.778 103.048C121.527 103.101 121.247 103.128 120.938 103.128C120.623 103.128 120.327 103.085 120.049 103C119.778 102.909 119.54 102.776 119.338 102.6C119.135 102.424 118.972 102.203 118.85 101.936C118.732 101.664 118.674 101.344 118.674 100.976C118.674 100.656 118.762 100.349 118.938 100.056C119.114 99.7573 119.396 99.4933 119.786 99.264C120.18 99.0347 120.695 98.848 121.33 98.704C121.964 98.5547 122.74 98.4693 123.658 98.448V97.816C123.658 97.1867 123.522 96.712 123.25 96.392C122.983 96.0667 122.586 95.904 122.058 95.904C121.711 95.904 121.418 95.9493 121.178 96.04C120.943 96.1253 120.738 96.224 120.562 96.336C120.391 96.4427 120.242 96.5413 120.114 96.632C119.991 96.7173 119.868 96.76 119.746 96.76C119.65 96.76 119.564 96.736 119.49 96.688C119.42 96.6347 119.364 96.5707 119.322 96.496L119.066 96.04C119.514 95.608 119.996 95.2853 120.514 95.072C121.031 94.8587 121.604 94.752 122.234 94.752C122.687 94.752 123.09 94.8267 123.442 94.976C123.794 95.1253 124.09 95.3333 124.33 95.6C124.57 95.8667 124.751 96.1893 124.874 96.568C124.996 96.9467 125.058 97.3627 125.058 97.816V103ZM121.362 102.128C121.612 102.128 121.842 102.104 122.049 102.056C122.258 102.003 122.452 101.931 122.634 101.84C122.82 101.744 122.996 101.629 123.162 101.496C123.332 101.363 123.498 101.211 123.658 101.04V99.352C123.002 99.3733 122.444 99.4267 121.986 99.512C121.527 99.592 121.154 99.6987 120.866 99.832C120.578 99.9653 120.367 100.123 120.234 100.304C120.106 100.485 120.042 100.688 120.042 100.912C120.042 101.125 120.076 101.309 120.146 101.464C120.215 101.619 120.308 101.747 120.426 101.848C120.543 101.944 120.682 102.016 120.842 102.064C121.002 102.107 121.175 102.128 121.362 102.128ZM128.799 91.216V103H127.375V91.216H128.799ZM132.893 91.216V103H131.469V91.216H132.893ZM138.61 94.768C139.096 94.768 139.544 94.8507 139.954 95.016C140.365 95.176 140.72 95.4107 141.018 95.72C141.317 96.024 141.549 96.4027 141.714 96.856C141.885 97.304 141.97 97.816 141.97 98.392C141.97 98.616 141.946 98.7653 141.898 98.84C141.85 98.9147 141.76 98.952 141.626 98.952H136.234C136.245 99.464 136.314 99.9093 136.442 100.288C136.57 100.667 136.746 100.984 136.97 101.24C137.194 101.491 137.461 101.68 137.77 101.808C138.08 101.931 138.426 101.992 138.81 101.992C139.168 101.992 139.474 101.952 139.73 101.872C139.992 101.787 140.216 101.696 140.402 101.6C140.589 101.504 140.744 101.416 140.866 101.336C140.994 101.251 141.104 101.208 141.194 101.208C141.312 101.208 141.402 101.253 141.466 101.344L141.866 101.864C141.69 102.077 141.48 102.264 141.234 102.424C140.989 102.579 140.725 102.707 140.442 102.808C140.165 102.909 139.877 102.984 139.578 103.032C139.28 103.085 138.984 103.112 138.69 103.112C138.13 103.112 137.613 103.019 137.138 102.832C136.669 102.64 136.261 102.363 135.914 102C135.573 101.632 135.306 101.179 135.114 100.64C134.922 100.101 134.826 99.4827 134.826 98.784C134.826 98.2187 134.912 97.6907 135.082 97.2C135.258 96.7093 135.509 96.2853 135.834 95.928C136.16 95.5653 136.557 95.2827 137.026 95.08C137.496 94.872 138.024 94.768 138.61 94.768ZM138.642 95.816C137.954 95.816 137.413 96.016 137.018 96.416C136.624 96.8107 136.378 97.36 136.282 98.064H140.69C140.69 97.7333 140.645 97.432 140.554 97.16C140.464 96.8827 140.33 96.6453 140.154 96.448C139.978 96.2453 139.762 96.0907 139.506 95.984C139.256 95.872 138.968 95.816 138.642 95.816ZM146.249 103.128C145.609 103.128 145.116 102.949 144.769 102.592C144.428 102.235 144.257 101.72 144.257 101.048V96.088H143.281C143.196 96.088 143.124 96.064 143.065 96.016C143.006 95.9627 142.977 95.8827 142.977 95.776V95.208L144.305 95.04L144.633 92.536C144.644 92.456 144.678 92.392 144.737 92.344C144.796 92.2907 144.87 92.264 144.961 92.264H145.681V95.056H148.001V96.088H145.681V100.952C145.681 101.293 145.764 101.547 145.929 101.712C146.094 101.877 146.308 101.96 146.569 101.96C146.718 101.96 146.846 101.941 146.953 101.904C147.065 101.861 147.161 101.816 147.241 101.768C147.321 101.72 147.388 101.677 147.441 101.64C147.5 101.597 147.55 101.576 147.593 101.576C147.668 101.576 147.734 101.621 147.793 101.712L148.209 102.392C147.964 102.621 147.668 102.803 147.321 102.936C146.974 103.064 146.617 103.128 146.249 103.128Z" fill="#282D32"/>
<defs>
<filter id="filter0_d" x="0" y="0" width="357" height="162" filterUnits="userSpaceOnUse" color-interpolation-filters="sRGB">
<feFlood flood-opacity="0" result="BackgroundImageFix"/>
<feColorMatrix in="SourceAlpha" type="matrix" values="0 0 0 0 0 0 0 0 0 0 0 0 0 0 0 0 0 0 127 0"/>
<feOffset dy="3"/>
<feGaussianBlur stdDeviation="3"/>
<feColorMatrix type="matrix" values="0 0 0 0 0 0 0 0 0 0 0 0 0 0 0 0 0 0 0.07 0"/>
<feBlend mode="normal" in2="BackgroundImageFix" result="effect1_dropShadow"/>
<feBlend mode="normal" in="SourceGraphic" in2="effect1_dropShadow" result="shape"/>
</filter>
</defs>
</svg>
