<svg viewBox="0 0 345 150" xmlns="http://www.w3.org/2000/svg">
<rect width="345" height="150" rx="3" fill="white"/>
<path d="M209.541 58H196.699V75.3248H214.038V62.4827C214.038 61.8928 213.922 61.3088 213.696 60.764C213.469 60.2192 213.138 59.7244 212.72 59.3079C212.302 58.8915 211.807 58.5616 211.261 58.3371C210.716 58.1127 210.131 57.9981 209.541 58Z" fill="#142533"/>
<path d="M192.696 58H190.483C189.294 58 188.154 58.4723 187.313 59.313C186.472 60.1536 186 61.2938 186 62.4827V64.6959H192.696V58Z" fill="#142533"/>
<path d="M186 68.6993H192.696V75.3953H186V68.6993Z" fill="#142533"/>
<path d="M207.398 86.0382H209.612C210.201 86.0382 210.786 85.9218 211.33 85.6956C211.875 85.4695 212.37 85.138 212.786 84.7203C213.203 84.3025 213.533 83.8067 213.757 83.2612C213.982 82.7157 214.096 82.1312 214.094 81.5414V79.3987H207.398V86.0382Z" fill="#142533"/>
<path d="M196.699 79.3987H203.395V86.0946H196.699V79.3987Z" fill="#142533"/>
<path d="M186 79.3987V81.6119C186 82.8008 186.472 83.941 187.313 84.7816C188.154 85.6223 189.294 86.0946 190.483 86.0946H192.696V79.3987H186Z" fill="#142533"/>
<path d="M231.151 59.7902H228.529V84.3043H242.415V81.9643H231.151V59.7902Z" fill="#142533"/>
<path d="M250.844 66.2888C245.741 66.2888 242.146 70.0808 242.146 75.5362V76.1565C242.23 78.4642 243.202 80.6503 244.86 82.258C246.518 83.8657 248.732 84.7706 251.041 84.7836H251.38C253.768 84.7794 256.077 83.9249 257.892 82.3731V82.3026L256.708 80.3714L256.581 80.4419C255.172 81.7567 253.321 82.496 251.394 82.5141C250.512 82.5337 249.636 82.3734 248.819 82.0429C248.002 81.7125 247.26 81.2188 246.64 80.5921C246.02 79.9654 245.534 79.2188 245.212 78.398C244.891 77.5772 244.739 76.6993 244.768 75.8182H258.019V75.6772C258.019 75.6772 258.019 74.8455 258.019 74.4367C258.146 69.4606 255.256 66.2888 250.844 66.2888ZM244.909 73.605C245.079 72.1897 245.763 70.8862 246.831 69.9426C247.9 68.999 249.278 68.4812 250.703 68.4879C252.916 68.4879 255.341 69.813 255.538 73.605H244.909Z" fill="#142533"/>
<path d="M273.397 68.361V69.2773C272.846 68.3586 272.067 67.5973 271.137 67.0665C270.206 66.5357 269.154 66.2533 268.083 66.2465H267.759C263.064 66.2465 259.822 69.968 259.822 75.4234C259.822 80.8788 262.924 84.6849 267.547 84.6849C268.725 84.741 269.895 84.4738 270.931 83.9122C271.967 83.3506 272.83 82.5161 273.426 81.4991V84.1915H275.907V59.7902H273.397V68.361ZM268.012 82.3731C264.77 82.3731 262.628 79.5537 262.628 75.4657C262.628 71.3777 264.897 68.6288 268.083 68.6288C270.719 68.6288 273.397 70.7715 273.397 75.4657C273.397 80.5546 270.578 82.3731 267.956 82.3731H268.012Z" fill="#142533"/>
<path d="M291.088 68.6993V68.8403C290.595 68.0086 289.087 66.2183 285.45 66.2183C280.826 66.2183 277.781 69.7425 277.781 75.1274C277.781 80.5123 280.967 84.1634 285.661 84.1634C286.742 84.2436 287.824 84.0226 288.788 83.5249C289.751 83.0272 290.557 82.2723 291.117 81.344V83.7687C291.117 87.1519 288.974 89.0831 285.168 89.0831C283.528 89.0936 281.908 88.7118 280.446 87.9695L280.319 87.899L279.346 90.0417L279.487 90.1122C281.262 91.0123 283.22 91.4944 285.21 91.5218C289.284 91.5218 293.668 89.4496 293.668 83.7123V66.7963H291.088V68.6993ZM285.971 81.9643C282.588 81.9643 280.333 79.3423 280.333 75.2684C280.333 71.1944 282.264 68.7698 285.577 68.7698C289.228 68.7698 290.962 70.9125 290.962 75.2684C290.962 79.6242 289.284 81.9643 285.971 81.9643Z" fill="#142533"/>
<path d="M304.075 66.2888C298.958 66.2888 295.434 70.0808 295.434 75.4657V76.086C295.507 78.4183 296.485 80.6305 298.161 82.254C299.837 83.8775 302.08 84.7848 304.413 84.7836H304.766C307.146 84.77 309.445 83.9107 311.25 82.359L310.052 80.3009H309.911C308.507 81.6148 306.66 82.3542 304.737 82.3731C303.855 82.3927 302.979 82.2324 302.16 81.9021C301.342 81.5718 300.6 81.0783 299.979 80.4518C299.358 79.8254 298.87 79.0789 298.547 78.2581C298.224 77.4372 298.071 76.5591 298.098 75.6772H311.462V75.5362C311.462 75.5362 311.462 74.7045 311.462 74.2957C311.462 69.4606 308.558 66.2888 304.075 66.2888ZM298.197 73.605C298.369 72.1885 299.056 70.8848 300.127 69.9415C301.198 68.9981 302.577 68.4809 304.004 68.4879C306.203 68.4879 308.628 69.813 308.825 73.605H298.197Z" fill="#142533"/>
<path d="M322.23 66.6271C321.877 66.6271 321.609 66.6271 321.257 66.4861C320.039 66.5213 318.861 66.9314 317.885 67.6605C316.909 68.3896 316.181 69.4022 315.802 70.5601V66.6271H313.25V84.0929V84.2338H315.872V76.8472C315.881 75.7118 316.066 74.5847 316.422 73.5063C317.253 70.8138 319.114 69.094 321.327 69.094C321.604 69.066 321.883 69.066 322.159 69.094H322.3V66.6271H322.23Z" fill="#142533"/>
<path d="M38.72 70.624C39.448 70.624 40.08 70.56 40.616 70.432C41.16 70.296 41.676 70.112 42.164 69.88V66.724H39.992C39.784 66.724 39.62 66.668 39.5 66.556C39.38 66.436 39.32 66.292 39.32 66.124V64.3H45.092V71.32C44.652 71.64 44.192 71.92 43.712 72.16C43.24 72.392 42.732 72.584 42.188 72.736C41.652 72.888 41.076 73 40.46 73.072C39.844 73.152 39.18 73.192 38.468 73.192C37.204 73.192 36.04 72.972 34.976 72.532C33.912 72.092 32.992 71.48 32.216 70.696C31.44 69.912 30.832 68.976 30.392 67.888C29.96 66.8 29.744 65.612 29.744 64.324C29.744 63.02 29.956 61.824 30.38 60.736C30.804 59.648 31.404 58.712 32.18 57.928C32.964 57.144 33.912 56.536 35.024 56.104C36.136 55.672 37.384 55.456 38.768 55.456C40.184 55.456 41.408 55.668 42.44 56.092C43.48 56.508 44.36 57.052 45.08 57.724L44.144 59.188C43.96 59.484 43.716 59.632 43.412 59.632C43.22 59.632 43.024 59.568 42.824 59.44C42.568 59.288 42.304 59.136 42.032 58.984C41.768 58.832 41.472 58.7 41.144 58.588C40.824 58.476 40.46 58.384 40.052 58.312C39.652 58.24 39.188 58.204 38.66 58.204C37.804 58.204 37.028 58.348 36.332 58.636C35.644 58.924 35.056 59.336 34.568 59.872C34.08 60.408 33.704 61.052 33.44 61.804C33.176 62.556 33.044 63.396 33.044 64.324C33.044 65.324 33.184 66.216 33.464 67C33.744 67.776 34.136 68.432 34.64 68.968C35.144 69.504 35.744 69.916 36.44 70.204C37.136 70.484 37.896 70.624 38.72 70.624ZM53.0158 60.496C53.7918 60.496 54.5038 60.62 55.1518 60.868C55.8078 61.116 56.3718 61.48 56.8438 61.96C57.3158 62.432 57.6838 63.016 57.9478 63.712C58.2118 64.4 58.3438 65.188 58.3438 66.076C58.3438 66.3 58.3318 66.488 58.3078 66.64C58.2918 66.784 58.2558 66.9 58.1998 66.988C58.1518 67.068 58.0838 67.128 57.9958 67.168C57.9078 67.2 57.7958 67.216 57.6598 67.216H50.0518C50.1398 68.48 50.4798 69.408 51.0718 70C51.6638 70.592 52.4478 70.888 53.4238 70.888C53.9038 70.888 54.3158 70.832 54.6598 70.72C55.0118 70.608 55.3158 70.484 55.5718 70.348C55.8358 70.212 56.0638 70.088 56.2558 69.976C56.4558 69.864 56.6478 69.808 56.8318 69.808C56.9518 69.808 57.0558 69.832 57.1438 69.88C57.2318 69.928 57.3078 69.996 57.3718 70.084L58.2358 71.164C57.9078 71.548 57.5398 71.872 57.1318 72.136C56.7238 72.392 56.2958 72.6 55.8478 72.76C55.4078 72.912 54.9558 73.02 54.4918 73.084C54.0358 73.148 53.5918 73.18 53.1598 73.18C52.3038 73.18 51.5078 73.04 50.7718 72.76C50.0358 72.472 49.3958 72.052 48.8518 71.5C48.3078 70.94 47.8798 70.252 47.5678 69.436C47.2558 68.612 47.0998 67.66 47.0998 66.58C47.0998 65.74 47.2358 64.952 47.5078 64.216C47.7798 63.472 48.1678 62.828 48.6718 62.284C49.1838 61.732 49.8038 61.296 50.5318 60.976C51.2678 60.656 52.0958 60.496 53.0158 60.496ZM53.0758 62.62C52.2118 62.62 51.5358 62.864 51.0478 63.352C50.5598 63.84 50.2478 64.532 50.1118 65.428H55.6798C55.6798 65.044 55.6278 64.684 55.5238 64.348C55.4198 64.004 55.2598 63.704 55.0438 63.448C54.8278 63.192 54.5558 62.992 54.2278 62.848C53.8998 62.696 53.5158 62.62 53.0758 62.62ZM64.7921 73.192C63.7281 73.192 62.9081 72.892 62.3321 72.292C61.7561 71.684 61.4681 70.848 61.4681 69.784V62.908H60.2201C60.0601 62.908 59.9201 62.856 59.8001 62.752C59.6881 62.648 59.6321 62.492 59.6321 62.284V61.108L61.6121 60.784L62.2361 57.424C62.2681 57.264 62.3401 57.14 62.4521 57.052C62.5721 56.964 62.7201 56.92 62.8961 56.92H64.4321V60.796H67.6721V62.908H64.4321V69.58C64.4321 69.964 64.5281 70.264 64.7201 70.48C64.9121 70.696 65.1681 70.804 65.4881 70.804C65.6721 70.804 65.8241 70.784 65.9441 70.744C66.0721 70.696 66.1801 70.648 66.2681 70.6C66.3641 70.552 66.4481 70.508 66.5201 70.468C66.5921 70.42 66.6641 70.396 66.7361 70.396C66.8241 70.396 66.8961 70.42 66.9521 70.468C67.0081 70.508 67.0681 70.572 67.1321 70.66L68.0201 72.1C67.5881 72.46 67.0921 72.732 66.5321 72.916C65.9721 73.1 65.3921 73.192 64.7921 73.192ZM79.0379 76.384C78.9499 76.592 78.8339 76.748 78.6899 76.852C78.5539 76.964 78.3419 77.02 78.0539 77.02H75.8459L78.1499 72.088L73.1699 60.688H75.7619C76.0019 60.688 76.1859 60.744 76.3139 60.856C76.4419 60.968 76.5379 61.096 76.6019 61.24L79.2299 67.624C79.3179 67.832 79.3939 68.048 79.4579 68.272C79.5219 68.496 79.5779 68.72 79.6259 68.944C79.6899 68.712 79.7579 68.488 79.8299 68.272C79.9099 68.056 79.9939 67.836 80.0819 67.612L82.5539 61.24C82.6179 61.08 82.7219 60.948 82.8659 60.844C83.0179 60.74 83.1859 60.688 83.3699 60.688H85.7459L79.0379 76.384ZM92.3244 60.496C93.2444 60.496 94.0764 60.644 94.8204 60.94C95.5724 61.236 96.2124 61.656 96.7404 62.2C97.2684 62.744 97.6764 63.408 97.9644 64.192C98.2524 64.976 98.3964 65.852 98.3964 66.82C98.3964 67.796 98.2524 68.676 97.9644 69.46C97.6764 70.244 97.2684 70.912 96.7404 71.464C96.2124 72.016 95.5724 72.44 94.8204 72.736C94.0764 73.032 93.2444 73.18 92.3244 73.18C91.4044 73.18 90.5684 73.032 89.8164 72.736C89.0644 72.44 88.4204 72.016 87.8844 71.464C87.3564 70.912 86.9444 70.244 86.6484 69.46C86.3604 68.676 86.2164 67.796 86.2164 66.82C86.2164 65.852 86.3604 64.976 86.6484 64.192C86.9444 63.408 87.3564 62.744 87.8844 62.2C88.4204 61.656 89.0644 61.236 89.8164 60.94C90.5684 60.644 91.4044 60.496 92.3244 60.496ZM92.3244 70.9C93.3484 70.9 94.1044 70.556 94.5924 69.868C95.0884 69.18 95.3364 68.172 95.3364 66.844C95.3364 65.516 95.0884 64.504 94.5924 63.808C94.1044 63.112 93.3484 62.764 92.3244 62.764C91.2844 62.764 90.5164 63.116 90.0204 63.82C89.5244 64.516 89.2764 65.524 89.2764 66.844C89.2764 68.164 89.5244 69.172 90.0204 69.868C90.5164 70.556 91.2844 70.9 92.3244 70.9ZM103.421 60.688V68.512C103.421 69.264 103.593 69.848 103.937 70.264C104.289 70.672 104.813 70.876 105.509 70.876C106.021 70.876 106.501 70.764 106.949 70.54C107.397 70.308 107.821 69.992 108.221 69.592V60.688H111.185V73H109.373C108.989 73 108.737 72.82 108.617 72.46L108.413 71.476C108.157 71.732 107.893 71.968 107.621 72.184C107.349 72.392 107.057 72.572 106.745 72.724C106.441 72.868 106.109 72.98 105.749 73.06C105.397 73.148 105.017 73.192 104.609 73.192C103.937 73.192 103.341 73.08 102.821 72.856C102.309 72.624 101.877 72.3 101.525 71.884C101.173 71.468 100.905 70.976 100.721 70.408C100.545 69.832 100.457 69.2 100.457 68.512V60.688H103.421ZM114.35 73V60.688H116.09C116.394 60.688 116.606 60.744 116.726 60.856C116.846 60.968 116.926 61.16 116.966 61.432L117.146 62.92C117.586 62.16 118.102 61.56 118.694 61.12C119.286 60.68 119.95 60.46 120.686 60.46C121.294 60.46 121.798 60.6 122.198 60.88L121.814 63.1C121.79 63.244 121.738 63.348 121.658 63.412C121.578 63.468 121.47 63.496 121.334 63.496C121.214 63.496 121.05 63.468 120.842 63.412C120.634 63.356 120.358 63.328 120.014 63.328C119.398 63.328 118.87 63.5 118.43 63.844C117.99 64.18 117.618 64.676 117.314 65.332V73H114.35Z" fill="#163150"/>
<path d="M30.168 100V88.216H31.592V92.984C31.9387 92.616 32.3227 92.3227 32.744 92.104C33.1653 91.88 33.6507 91.768 34.2 91.768C34.6427 91.768 35.032 91.8427 35.368 91.992C35.7093 92.136 35.992 92.344 36.216 92.616C36.4453 92.8827 36.6187 93.2053 36.736 93.584C36.8533 93.9627 36.912 94.3813 36.912 94.84V100H35.488V94.84C35.488 94.2267 35.3467 93.752 35.064 93.416C34.7867 93.0747 34.36 92.904 33.784 92.904C33.3627 92.904 32.968 93.0053 32.6 93.208C32.2373 93.4107 31.9013 93.6853 31.592 94.032V100H30.168ZM45.0106 100H44.3786C44.24 100 44.128 99.9787 44.0426 99.936C43.9573 99.8933 43.9013 99.8027 43.8746 99.664L43.7146 98.912C43.5013 99.104 43.2933 99.2773 43.0906 99.432C42.888 99.5813 42.6746 99.7093 42.4506 99.816C42.2266 99.9173 41.9866 99.9947 41.7306 100.048C41.48 100.101 41.2 100.128 40.8906 100.128C40.576 100.128 40.28 100.085 40.0026 100C39.7306 99.9093 39.4933 99.776 39.2906 99.6C39.088 99.424 38.9253 99.2027 38.8026 98.936C38.6853 98.664 38.6266 98.344 38.6266 97.976C38.6266 97.656 38.7146 97.3493 38.8906 97.056C39.0666 96.7573 39.3493 96.4933 39.7386 96.264C40.1333 96.0347 40.648 95.848 41.2826 95.704C41.9173 95.5547 42.6933 95.4693 43.6106 95.448V94.816C43.6106 94.1867 43.4746 93.712 43.2026 93.392C42.936 93.0667 42.5386 92.904 42.0106 92.904C41.664 92.904 41.3706 92.9493 41.1306 93.04C40.896 93.1253 40.6906 93.224 40.5146 93.336C40.344 93.4427 40.1946 93.5413 40.0666 93.632C39.944 93.7173 39.8213 93.76 39.6986 93.76C39.6026 93.76 39.5173 93.736 39.4426 93.688C39.3733 93.6347 39.3173 93.5707 39.2746 93.496L39.0186 93.04C39.4666 92.608 39.9493 92.2853 40.4666 92.072C40.984 91.8587 41.5573 91.752 42.1866 91.752C42.64 91.752 43.0426 91.8267 43.3946 91.976C43.7466 92.1253 44.0426 92.3333 44.2826 92.6C44.5226 92.8667 44.704 93.1893 44.8266 93.568C44.9493 93.9467 45.0106 94.3627 45.0106 94.816V100ZM41.3146 99.128C41.5653 99.128 41.7946 99.104 42.0026 99.056C42.2106 99.0027 42.4053 98.9307 42.5866 98.84C42.7733 98.744 42.9493 98.6293 43.1146 98.496C43.2853 98.3627 43.4506 98.2107 43.6106 98.04V96.352C42.9546 96.3733 42.3973 96.4267 41.9386 96.512C41.48 96.592 41.1066 96.6987 40.8186 96.832C40.5306 96.9653 40.32 97.1227 40.1866 97.304C40.0586 97.4853 39.9946 97.688 39.9946 97.912C39.9946 98.1253 40.0293 98.3093 40.0986 98.464C40.168 98.6187 40.2613 98.7467 40.3786 98.848C40.496 98.944 40.6346 99.016 40.7946 99.064C40.9546 99.1067 41.128 99.128 41.3146 99.128ZM47.168 100V91.896H47.984C48.1387 91.896 48.2453 91.9253 48.304 91.984C48.3627 92.0427 48.4027 92.144 48.424 92.288L48.52 93.552C48.7973 92.9867 49.1387 92.5467 49.544 92.232C49.9547 91.912 50.4347 91.752 50.984 91.752C51.208 91.752 51.4107 91.7787 51.592 91.832C51.7733 91.88 51.9413 91.9493 52.096 92.04L51.912 93.104C51.8747 93.2373 51.792 93.304 51.664 93.304C51.5893 93.304 51.4747 93.28 51.32 93.232C51.1653 93.1787 50.9493 93.152 50.672 93.152C50.176 93.152 49.76 93.296 49.424 93.584C49.0933 93.872 48.816 94.2907 48.592 94.84V100H47.168ZM59.3251 100C59.1225 100 58.9945 99.9013 58.9411 99.704L58.8131 98.72C58.4665 99.1413 58.0691 99.48 57.6211 99.736C57.1785 99.9867 56.6691 100.112 56.0931 100.112C55.6291 100.112 55.2078 100.024 54.8291 99.848C54.4505 99.6667 54.1278 99.4027 53.8611 99.056C53.5945 98.7093 53.3891 98.2773 53.2451 97.76C53.1011 97.2427 53.0291 96.648 53.0291 95.976C53.0291 95.3787 53.1091 94.824 53.2691 94.312C53.4291 93.7947 53.6585 93.3467 53.9571 92.968C54.2611 92.5893 54.6291 92.2933 55.0611 92.08C55.4931 91.8613 55.9838 91.752 56.5331 91.752C57.0291 91.752 57.4531 91.8373 57.8051 92.008C58.1571 92.1733 58.4718 92.408 58.7491 92.712V88.216H60.1731V100H59.3251ZM56.5651 98.96C57.0291 98.96 57.4345 98.8533 57.7811 98.64C58.1331 98.4267 58.4558 98.1253 58.7491 97.736V93.816C58.4878 93.464 58.1998 93.2187 57.8851 93.08C57.5758 92.936 57.2318 92.864 56.8531 92.864C56.0958 92.864 55.5145 93.1333 55.1091 93.672C54.7038 94.2107 54.5011 94.9787 54.5011 95.976C54.5011 96.504 54.5465 96.9573 54.6371 97.336C54.7278 97.7093 54.8611 98.0187 55.0371 98.264C55.2131 98.504 55.4291 98.68 55.6851 98.792C55.9411 98.904 56.2345 98.96 56.5651 98.96ZM61.5026 91.896H62.6226C62.74 91.896 62.836 91.9253 62.9106 91.984C62.9853 92.0427 63.036 92.112 63.0626 92.192L64.6146 97.408C64.6573 97.6 64.6973 97.7867 64.7346 97.968C64.772 98.144 64.804 98.3227 64.8306 98.504C64.8733 98.3227 64.9213 98.144 64.9746 97.968C65.028 97.7867 65.084 97.6 65.1426 97.408L66.8546 92.16C66.8813 92.08 66.9266 92.0133 66.9906 91.96C67.06 91.9067 67.1453 91.88 67.2466 91.88H67.8626C67.9693 91.88 68.0573 91.9067 68.1266 91.96C68.196 92.0133 68.244 92.08 68.2706 92.16L69.9426 97.408C70.0013 97.5947 70.052 97.7787 70.0946 97.96C70.1426 98.1413 70.188 98.32 70.2306 98.496C70.2573 98.32 70.292 98.136 70.3346 97.944C70.3773 97.752 70.4226 97.5733 70.4706 97.408L72.0546 92.192C72.0813 92.1067 72.132 92.0373 72.2066 91.984C72.2813 91.9253 72.3693 91.896 72.4706 91.896H73.5426L70.9186 100H69.7906C69.652 100 69.556 99.9093 69.5026 99.728L67.7106 94.232C67.668 94.1093 67.6333 93.9867 67.6066 93.864C67.58 93.736 67.5533 93.6107 67.5266 93.488C67.5 93.6107 67.4733 93.736 67.4466 93.864C67.42 93.992 67.3853 94.1173 67.3426 94.24L65.5266 99.728C65.468 99.9093 65.3586 100 65.1986 100H64.1266L61.5026 91.896ZM80.7606 100H80.1286C79.99 100 79.878 99.9787 79.7926 99.936C79.7073 99.8933 79.6513 99.8027 79.6246 99.664L79.4646 98.912C79.2513 99.104 79.0433 99.2773 78.8406 99.432C78.638 99.5813 78.4246 99.7093 78.2006 99.816C77.9766 99.9173 77.7366 99.9947 77.4806 100.048C77.23 100.101 76.95 100.128 76.6406 100.128C76.326 100.128 76.03 100.085 75.7526 100C75.4806 99.9093 75.2433 99.776 75.0406 99.6C74.838 99.424 74.6753 99.2027 74.5526 98.936C74.4353 98.664 74.3766 98.344 74.3766 97.976C74.3766 97.656 74.4646 97.3493 74.6406 97.056C74.8166 96.7573 75.0993 96.4933 75.4886 96.264C75.8833 96.0347 76.398 95.848 77.0326 95.704C77.6673 95.5547 78.4433 95.4693 79.3606 95.448V94.816C79.3606 94.1867 79.2246 93.712 78.9526 93.392C78.686 93.0667 78.2886 92.904 77.7606 92.904C77.414 92.904 77.1206 92.9493 76.8806 93.04C76.646 93.1253 76.4406 93.224 76.2646 93.336C76.094 93.4427 75.9446 93.5413 75.8166 93.632C75.694 93.7173 75.5713 93.76 75.4486 93.76C75.3526 93.76 75.2673 93.736 75.1926 93.688C75.1233 93.6347 75.0673 93.5707 75.0246 93.496L74.7686 93.04C75.2166 92.608 75.6993 92.2853 76.2166 92.072C76.734 91.8587 77.3073 91.752 77.9366 91.752C78.39 91.752 78.7926 91.8267 79.1446 91.976C79.4966 92.1253 79.7926 92.3333 80.0326 92.6C80.2726 92.8667 80.454 93.1893 80.5766 93.568C80.6993 93.9467 80.7606 94.3627 80.7606 94.816V100ZM77.0646 99.128C77.3153 99.128 77.5446 99.104 77.7526 99.056C77.9606 99.0027 78.1553 98.9307 78.3366 98.84C78.5233 98.744 78.6993 98.6293 78.8646 98.496C79.0353 98.3627 79.2006 98.2107 79.3606 98.04V96.352C78.7046 96.3733 78.1473 96.4267 77.6886 96.512C77.23 96.592 76.8566 96.6987 76.5686 96.832C76.2806 96.9653 76.07 97.1227 75.9366 97.304C75.8086 97.4853 75.7446 97.688 75.7446 97.912C75.7446 98.1253 75.7793 98.3093 75.8486 98.464C75.918 98.6187 76.0113 98.7467 76.1286 98.848C76.246 98.944 76.3846 99.016 76.5446 99.064C76.7046 99.1067 76.878 99.128 77.0646 99.128ZM82.918 100V91.896H83.734C83.8887 91.896 83.9953 91.9253 84.054 91.984C84.1127 92.0427 84.1527 92.144 84.174 92.288L84.27 93.552C84.5473 92.9867 84.8887 92.5467 85.294 92.232C85.7047 91.912 86.1847 91.752 86.734 91.752C86.958 91.752 87.1607 91.7787 87.342 91.832C87.5233 91.88 87.6913 91.9493 87.846 92.04L87.662 93.104C87.6247 93.2373 87.542 93.304 87.414 93.304C87.3393 93.304 87.2247 93.28 87.07 93.232C86.9153 93.1787 86.6993 93.152 86.422 93.152C85.926 93.152 85.51 93.296 85.174 93.584C84.8433 93.872 84.566 94.2907 84.342 94.84V100H82.918ZM92.5791 91.768C93.0645 91.768 93.5125 91.8507 93.9231 92.016C94.3338 92.176 94.6885 92.4107 94.9871 92.72C95.2858 93.024 95.5178 93.4027 95.6831 93.856C95.8538 94.304 95.9391 94.816 95.9391 95.392C95.9391 95.616 95.9151 95.7653 95.8671 95.84C95.8191 95.9147 95.7285 95.952 95.5951 95.952H90.2031C90.2138 96.464 90.2831 96.9093 90.4111 97.288C90.5391 97.6667 90.7151 97.984 90.9391 98.24C91.1631 98.4907 91.4298 98.68 91.7391 98.808C92.0485 98.9307 92.3951 98.992 92.7791 98.992C93.1365 98.992 93.4431 98.952 93.6991 98.872C93.9605 98.7867 94.1845 98.696 94.3711 98.6C94.5578 98.504 94.7125 98.416 94.8351 98.336C94.9631 98.2507 95.0725 98.208 95.1631 98.208C95.2805 98.208 95.3711 98.2533 95.4351 98.344L95.8351 98.864C95.6591 99.0773 95.4485 99.264 95.2031 99.424C94.9578 99.5787 94.6938 99.7067 94.4111 99.808C94.1338 99.9093 93.8458 99.984 93.5471 100.032C93.2485 100.085 92.9525 100.112 92.6591 100.112C92.0991 100.112 91.5818 100.019 91.1071 99.832C90.6378 99.64 90.2298 99.3627 89.8831 99C89.5418 98.632 89.2751 98.1787 89.0831 97.64C88.8911 97.1013 88.7951 96.4827 88.7951 95.784C88.7951 95.2187 88.8805 94.6907 89.0511 94.2C89.2271 93.7093 89.4778 93.2853 89.8031 92.928C90.1285 92.5653 90.5258 92.2827 90.9951 92.08C91.4645 91.872 91.9925 91.768 92.5791 91.768ZM92.6111 92.816C91.9231 92.816 91.3818 93.016 90.9871 93.416C90.5925 93.8107 90.3471 94.36 90.2511 95.064H94.6591C94.6591 94.7333 94.6138 94.432 94.5231 94.16C94.4325 93.8827 94.2991 93.6453 94.1231 93.448C93.9471 93.2453 93.7311 93.0907 93.4751 92.984C93.2245 92.872 92.9365 92.816 92.6111 92.816ZM99.7995 91.896H100.92C101.037 91.896 101.133 91.9253 101.208 91.984C101.282 92.0427 101.333 92.112 101.36 92.192L102.912 97.408C102.954 97.6 102.994 97.7867 103.032 97.968C103.069 98.144 103.101 98.3227 103.128 98.504C103.17 98.3227 103.218 98.144 103.272 97.968C103.325 97.7867 103.381 97.6 103.44 97.408L105.152 92.16C105.178 92.08 105.224 92.0133 105.288 91.96C105.357 91.9067 105.442 91.88 105.544 91.88H106.16C106.266 91.88 106.354 91.9067 106.424 91.96C106.493 92.0133 106.541 92.08 106.568 92.16L108.24 97.408C108.298 97.5947 108.349 97.7787 108.392 97.96C108.44 98.1413 108.485 98.32 108.528 98.496C108.554 98.32 108.589 98.136 108.632 97.944C108.674 97.752 108.72 97.5733 108.768 97.408L110.352 92.192C110.378 92.1067 110.429 92.0373 110.504 91.984C110.578 91.9253 110.666 91.896 110.768 91.896H111.84L109.216 100H108.088C107.949 100 107.853 99.9093 107.8 99.728L106.008 94.232C105.965 94.1093 105.93 93.9867 105.904 93.864C105.877 93.736 105.85 93.6107 105.824 93.488C105.797 93.6107 105.77 93.736 105.744 93.864C105.717 93.992 105.682 94.1173 105.64 94.24L103.824 99.728C103.765 99.9093 103.656 100 103.496 100H102.424L99.7995 91.896ZM119.058 100H118.426C118.287 100 118.175 99.9787 118.09 99.936C118.004 99.8933 117.948 99.8027 117.922 99.664L117.762 98.912C117.548 99.104 117.34 99.2773 117.138 99.432C116.935 99.5813 116.722 99.7093 116.498 99.816C116.274 99.9173 116.034 99.9947 115.778 100.048C115.527 100.101 115.247 100.128 114.938 100.128C114.623 100.128 114.327 100.085 114.049 100C113.778 99.9093 113.54 99.776 113.338 99.6C113.135 99.424 112.972 99.2027 112.85 98.936C112.732 98.664 112.674 98.344 112.674 97.976C112.674 97.656 112.762 97.3493 112.938 97.056C113.114 96.7573 113.396 96.4933 113.786 96.264C114.18 96.0347 114.695 95.848 115.33 95.704C115.964 95.5547 116.74 95.4693 117.658 95.448V94.816C117.658 94.1867 117.522 93.712 117.25 93.392C116.983 93.0667 116.586 92.904 116.058 92.904C115.711 92.904 115.418 92.9493 115.178 93.04C114.943 93.1253 114.738 93.224 114.562 93.336C114.391 93.4427 114.242 93.5413 114.114 93.632C113.991 93.7173 113.868 93.76 113.746 93.76C113.65 93.76 113.564 93.736 113.49 93.688C113.42 93.6347 113.364 93.5707 113.322 93.496L113.066 93.04C113.514 92.608 113.996 92.2853 114.514 92.072C115.031 91.8587 115.604 91.752 116.234 91.752C116.687 91.752 117.09 91.8267 117.442 91.976C117.794 92.1253 118.09 92.3333 118.33 92.6C118.57 92.8667 118.751 93.1893 118.874 93.568C118.996 93.9467 119.058 94.3627 119.058 94.816V100ZM115.362 99.128C115.612 99.128 115.842 99.104 116.049 99.056C116.258 99.0027 116.452 98.9307 116.634 98.84C116.82 98.744 116.996 98.6293 117.162 98.496C117.332 98.3627 117.498 98.2107 117.658 98.04V96.352C117.002 96.3733 116.444 96.4267 115.986 96.512C115.527 96.592 115.154 96.6987 114.866 96.832C114.578 96.9653 114.367 97.1227 114.234 97.304C114.106 97.4853 114.042 97.688 114.042 97.912C114.042 98.1253 114.076 98.3093 114.146 98.464C114.215 98.6187 114.308 98.7467 114.426 98.848C114.543 98.944 114.682 99.016 114.842 99.064C115.002 99.1067 115.175 99.128 115.362 99.128ZM122.799 88.216V100H121.375V88.216H122.799ZM126.893 88.216V100H125.469V88.216H126.893ZM132.61 91.768C133.096 91.768 133.544 91.8507 133.954 92.016C134.365 92.176 134.72 92.4107 135.018 92.72C135.317 93.024 135.549 93.4027 135.714 93.856C135.885 94.304 135.97 94.816 135.97 95.392C135.97 95.616 135.946 95.7653 135.898 95.84C135.85 95.9147 135.76 95.952 135.626 95.952H130.234C130.245 96.464 130.314 96.9093 130.442 97.288C130.57 97.6667 130.746 97.984 130.97 98.24C131.194 98.4907 131.461 98.68 131.77 98.808C132.08 98.9307 132.426 98.992 132.81 98.992C133.168 98.992 133.474 98.952 133.73 98.872C133.992 98.7867 134.216 98.696 134.402 98.6C134.589 98.504 134.744 98.416 134.866 98.336C134.994 98.2507 135.104 98.208 135.194 98.208C135.312 98.208 135.402 98.2533 135.466 98.344L135.866 98.864C135.69 99.0773 135.48 99.264 135.234 99.424C134.989 99.5787 134.725 99.7067 134.442 99.808C134.165 99.9093 133.877 99.984 133.578 100.032C133.28 100.085 132.984 100.112 132.69 100.112C132.13 100.112 131.613 100.019 131.138 99.832C130.669 99.64 130.261 99.3627 129.914 99C129.573 98.632 129.306 98.1787 129.114 97.64C128.922 97.1013 128.826 96.4827 128.826 95.784C128.826 95.2187 128.912 94.6907 129.082 94.2C129.258 93.7093 129.509 93.2853 129.834 92.928C130.16 92.5653 130.557 92.2827 131.026 92.08C131.496 91.872 132.024 91.768 132.61 91.768ZM132.642 92.816C131.954 92.816 131.413 93.016 131.018 93.416C130.624 93.8107 130.378 94.36 130.282 95.064H134.69C134.69 94.7333 134.645 94.432 134.554 94.16C134.464 93.8827 134.33 93.6453 134.154 93.448C133.978 93.2453 133.762 93.0907 133.506 92.984C133.256 92.872 132.968 92.816 132.642 92.816ZM140.249 100.128C139.609 100.128 139.116 99.9493 138.769 99.592C138.428 99.2347 138.257 98.72 138.257 98.048V93.088H137.281C137.196 93.088 137.124 93.064 137.065 93.016C137.006 92.9627 136.977 92.8827 136.977 92.776V92.208L138.305 92.04L138.633 89.536C138.644 89.456 138.678 89.392 138.737 89.344C138.796 89.2907 138.87 89.264 138.961 89.264H139.681V92.056H142.001V93.088H139.681V97.952C139.681 98.2933 139.764 98.5467 139.929 98.712C140.094 98.8773 140.308 98.96 140.569 98.96C140.718 98.96 140.846 98.9413 140.953 98.904C141.065 98.8613 141.161 98.816 141.241 98.768C141.321 98.72 141.388 98.6773 141.441 98.64C141.5 98.5973 141.55 98.576 141.593 98.576C141.668 98.576 141.734 98.6213 141.793 98.712L142.209 99.392C141.964 99.6213 141.668 99.8027 141.321 99.936C140.974 100.064 140.617 100.128 140.249 100.128Z" fill="#282D32"/>
</svg>
