<svg viewBox="0 0 357 162" xmlns="http://www.w3.org/2000/svg">
<g filter="url(#filter0_d)">
<rect x="6" y="3" width="345" height="150" rx="3" fill="white"/>
</g>
<path d="M43.736 69.832C43.736 70.808 43.616 71.688 43.376 72.472C43.136 73.256 42.776 73.924 42.296 74.476C41.824 75.028 41.232 75.452 40.52 75.748C39.808 76.044 38.98 76.192 38.036 76.192C37.604 76.192 37.18 76.164 36.764 76.108C36.348 76.06 35.912 75.98 35.456 75.868L35.624 73.948C35.64 73.772 35.704 73.632 35.816 73.528C35.936 73.416 36.108 73.36 36.332 73.36C36.468 73.36 36.644 73.388 36.86 73.444C37.084 73.5 37.364 73.528 37.7 73.528C38.156 73.528 38.56 73.464 38.912 73.336C39.264 73.2 39.556 72.988 39.788 72.7C40.028 72.412 40.208 72.04 40.328 71.584C40.448 71.12 40.508 70.56 40.508 69.904V58.648H43.736V69.832ZM52.3166 63.496C53.2366 63.496 54.0686 63.644 54.8126 63.94C55.5646 64.236 56.2046 64.656 56.7326 65.2C57.2606 65.744 57.6686 66.408 57.9566 67.192C58.2446 67.976 58.3886 68.852 58.3886 69.82C58.3886 70.796 58.2446 71.676 57.9566 72.46C57.6686 73.244 57.2606 73.912 56.7326 74.464C56.2046 75.016 55.5646 75.44 54.8126 75.736C54.0686 76.032 53.2366 76.18 52.3166 76.18C51.3966 76.18 50.5606 76.032 49.8086 75.736C49.0566 75.44 48.4126 75.016 47.8766 74.464C47.3486 73.912 46.9366 73.244 46.6406 72.46C46.3526 71.676 46.2086 70.796 46.2086 69.82C46.2086 68.852 46.3526 67.976 46.6406 67.192C46.9366 66.408 47.3486 65.744 47.8766 65.2C48.4126 64.656 49.0566 64.236 49.8086 63.94C50.5606 63.644 51.3966 63.496 52.3166 63.496ZM52.3166 73.9C53.3406 73.9 54.0966 73.556 54.5846 72.868C55.0806 72.18 55.3286 71.172 55.3286 69.844C55.3286 68.516 55.0806 67.504 54.5846 66.808C54.0966 66.112 53.3406 65.764 52.3166 65.764C51.2766 65.764 50.5086 66.116 50.0126 66.82C49.5166 67.516 49.2686 68.524 49.2686 69.844C49.2686 71.164 49.5166 72.172 50.0126 72.868C50.5086 73.556 51.2766 73.9 52.3166 73.9ZM63.8572 63.688V76H60.8932V63.688H63.8572ZM64.3012 60.1C64.3012 60.356 64.2492 60.596 64.1452 60.82C64.0412 61.044 63.9012 61.24 63.7252 61.408C63.5572 61.576 63.3572 61.712 63.1252 61.816C62.8932 61.912 62.6452 61.96 62.3812 61.96C62.1252 61.96 61.8812 61.912 61.6492 61.816C61.4252 61.712 61.2292 61.576 61.0612 61.408C60.8932 61.24 60.7572 61.044 60.6532 60.82C60.5572 60.596 60.5092 60.356 60.5092 60.1C60.5092 59.836 60.5572 59.588 60.6532 59.356C60.7572 59.124 60.8932 58.924 61.0612 58.756C61.2292 58.588 61.4252 58.456 61.6492 58.36C61.8812 58.256 62.1252 58.204 62.3812 58.204C62.6452 58.204 62.8932 58.256 63.1252 58.36C63.3572 58.456 63.5572 58.588 63.7252 58.756C63.9012 58.924 64.0412 59.124 64.1452 59.356C64.2492 59.588 64.3012 59.836 64.3012 60.1ZM67.2168 76V63.688H69.0288C69.4128 63.688 69.6648 63.868 69.7848 64.228L69.9888 65.2C70.2368 64.944 70.4968 64.712 70.7688 64.504C71.0488 64.296 71.3408 64.116 71.6448 63.964C71.9568 63.812 72.2888 63.696 72.6408 63.616C72.9928 63.536 73.3768 63.496 73.7928 63.496C74.4648 63.496 75.0608 63.612 75.5808 63.844C76.1008 64.068 76.5328 64.388 76.8768 64.804C77.2288 65.212 77.4928 65.704 77.6688 66.28C77.8528 66.848 77.9448 67.476 77.9448 68.164V76H74.9808V68.164C74.9808 67.412 74.8048 66.832 74.4528 66.424C74.1088 66.008 73.5888 65.8 72.8928 65.8C72.3808 65.8 71.9008 65.916 71.4528 66.148C71.0048 66.38 70.5808 66.696 70.1808 67.096V76H67.2168ZM85.4981 76V63.688H87.3101C87.6941 63.688 87.9461 63.868 88.0661 64.228L88.2701 65.2C88.5181 64.944 88.7781 64.712 89.0501 64.504C89.3301 64.296 89.6221 64.116 89.9261 63.964C90.2381 63.812 90.5701 63.696 90.9221 63.616C91.2741 63.536 91.6581 63.496 92.0741 63.496C92.7461 63.496 93.3421 63.612 93.8621 63.844C94.3821 64.068 94.8141 64.388 95.1581 64.804C95.5101 65.212 95.7741 65.704 95.9501 66.28C96.1341 66.848 96.2261 67.476 96.2261 68.164V76H93.2621V68.164C93.2621 67.412 93.0861 66.832 92.7341 66.424C92.3901 66.008 91.8701 65.8 91.1741 65.8C90.6621 65.8 90.1821 65.916 89.7341 66.148C89.2861 66.38 88.8621 66.696 88.4621 67.096V76H85.4981ZM104.395 63.496C105.315 63.496 106.147 63.644 106.891 63.94C107.643 64.236 108.283 64.656 108.811 65.2C109.339 65.744 109.747 66.408 110.035 67.192C110.323 67.976 110.467 68.852 110.467 69.82C110.467 70.796 110.323 71.676 110.035 72.46C109.747 73.244 109.339 73.912 108.811 74.464C108.283 75.016 107.643 75.44 106.891 75.736C106.147 76.032 105.315 76.18 104.395 76.18C103.475 76.18 102.639 76.032 101.887 75.736C101.135 75.44 100.491 75.016 99.9547 74.464C99.4267 73.912 99.0147 73.244 98.7187 72.46C98.4307 71.676 98.2867 70.796 98.2867 69.82C98.2867 68.852 98.4307 67.976 98.7187 67.192C99.0147 66.408 99.4267 65.744 99.9547 65.2C100.491 64.656 101.135 64.236 101.887 63.94C102.639 63.644 103.475 63.496 104.395 63.496ZM104.395 73.9C105.419 73.9 106.175 73.556 106.663 72.868C107.159 72.18 107.407 71.172 107.407 69.844C107.407 68.516 107.159 67.504 106.663 66.808C106.175 66.112 105.419 65.764 104.395 65.764C103.355 65.764 102.587 66.116 102.091 66.82C101.595 67.516 101.347 68.524 101.347 69.844C101.347 71.164 101.595 72.172 102.091 72.868C102.587 73.556 103.355 73.9 104.395 73.9ZM111.279 63.688H113.631C113.855 63.688 114.043 63.74 114.195 63.844C114.347 63.948 114.443 64.08 114.483 64.24L116.247 70.816C116.343 71.176 116.419 71.528 116.475 71.872C116.539 72.216 116.599 72.56 116.655 72.904C116.743 72.56 116.835 72.216 116.931 71.872C117.035 71.528 117.143 71.176 117.255 70.816L119.295 64.216C119.343 64.056 119.439 63.924 119.583 63.82C119.727 63.716 119.895 63.664 120.087 63.664H121.395C121.611 63.664 121.791 63.716 121.935 63.82C122.079 63.924 122.175 64.056 122.223 64.216L124.239 70.936C124.343 71.28 124.435 71.616 124.515 71.944C124.603 72.264 124.687 72.588 124.767 72.916C124.823 72.572 124.883 72.228 124.947 71.884C125.019 71.54 125.107 71.184 125.211 70.816L127.035 64.24C127.075 64.08 127.171 63.948 127.323 63.844C127.475 63.74 127.651 63.688 127.851 63.688H130.095L126.195 76H123.807C123.551 76 123.367 75.824 123.255 75.472L121.035 68.356C120.963 68.124 120.895 67.892 120.831 67.66C120.775 67.42 120.727 67.184 120.687 66.952C120.639 67.192 120.587 67.432 120.531 67.672C120.475 67.904 120.411 68.14 120.339 68.38L118.095 75.472C117.983 75.824 117.767 76 117.447 76H115.179L111.279 63.688Z" fill="#163150"/>
<path d="M38.624 103.128C37.984 103.128 37.4907 102.949 37.144 102.592C36.8027 102.235 36.632 101.72 36.632 101.048V96.088H35.656C35.5707 96.088 35.4987 96.064 35.44 96.016C35.3813 95.9627 35.352 95.8827 35.352 95.776V95.208L36.68 95.04L37.008 92.536C37.0187 92.456 37.0533 92.392 37.112 92.344C37.1707 92.2907 37.2453 92.264 37.336 92.264H38.056V95.056H40.376V96.088H38.056V100.952C38.056 101.293 38.1387 101.547 38.304 101.712C38.4693 101.877 38.6827 101.96 38.944 101.96C39.0933 101.96 39.2213 101.941 39.328 101.904C39.44 101.861 39.536 101.816 39.616 101.768C39.696 101.72 39.7627 101.677 39.816 101.64C39.8747 101.597 39.9253 101.576 39.968 101.576C40.0427 101.576 40.1093 101.621 40.168 101.712L40.584 102.392C40.3387 102.621 40.0427 102.803 39.696 102.936C39.3493 103.064 38.992 103.128 38.624 103.128ZM42.1368 103V91.216H43.5608V95.984C43.9074 95.616 44.2914 95.3227 44.7128 95.104C45.1341 94.88 45.6194 94.768 46.1688 94.768C46.6114 94.768 47.0008 94.8427 47.3368 94.992C47.6781 95.136 47.9608 95.344 48.1848 95.616C48.4141 95.8827 48.5874 96.2053 48.7048 96.584C48.8221 96.9627 48.8808 97.3813 48.8808 97.84V103H47.4568V97.84C47.4568 97.2267 47.3154 96.752 47.0328 96.416C46.7554 96.0747 46.3288 95.904 45.7528 95.904C45.3314 95.904 44.9368 96.0053 44.5688 96.208C44.2061 96.4107 43.8701 96.6853 43.5608 97.032V103H42.1368ZM54.2354 94.768C54.7207 94.768 55.1687 94.8507 55.5794 95.016C55.99 95.176 56.3447 95.4107 56.6434 95.72C56.942 96.024 57.174 96.4027 57.3394 96.856C57.51 97.304 57.5954 97.816 57.5954 98.392C57.5954 98.616 57.5714 98.7653 57.5234 98.84C57.4754 98.9147 57.3847 98.952 57.2514 98.952H51.8594C51.87 99.464 51.9394 99.9093 52.0674 100.288C52.1954 100.667 52.3714 100.984 52.5954 101.24C52.8194 101.491 53.086 101.68 53.3954 101.808C53.7047 101.931 54.0514 101.992 54.4354 101.992C54.7927 101.992 55.0994 101.952 55.3554 101.872C55.6167 101.787 55.8407 101.696 56.0274 101.6C56.214 101.504 56.3687 101.416 56.4914 101.336C56.6194 101.251 56.7287 101.208 56.8194 101.208C56.9367 101.208 57.0274 101.253 57.0914 101.344L57.4914 101.864C57.3154 102.077 57.1047 102.264 56.8594 102.424C56.614 102.579 56.35 102.707 56.0674 102.808C55.79 102.909 55.502 102.984 55.2034 103.032C54.9047 103.085 54.6087 103.112 54.3154 103.112C53.7554 103.112 53.238 103.019 52.7634 102.832C52.294 102.64 51.886 102.363 51.5394 102C51.198 101.632 50.9314 101.179 50.7394 100.64C50.5474 100.101 50.4514 99.4827 50.4514 98.784C50.4514 98.2187 50.5367 97.6907 50.7074 97.2C50.8834 96.7093 51.134 96.2853 51.4594 95.928C51.7847 95.5653 52.182 95.2827 52.6514 95.08C53.1207 94.872 53.6487 94.768 54.2354 94.768ZM54.2674 95.816C53.5794 95.816 53.038 96.016 52.6434 96.416C52.2487 96.8107 52.0034 97.36 51.9074 98.064H56.3154C56.3154 97.7333 56.27 97.432 56.1794 97.16C56.0887 96.8827 55.9554 96.6453 55.7794 96.448C55.6034 96.2453 55.3874 96.0907 55.1314 95.984C54.8807 95.872 54.5927 95.816 54.2674 95.816ZM62.5118 103V94.896H63.3598C63.5624 94.896 63.6904 94.9947 63.7438 95.192L63.8558 96.072C64.2078 95.6827 64.5998 95.368 65.0318 95.128C65.4691 94.888 65.9731 94.768 66.5438 94.768C66.9864 94.768 67.3758 94.8427 67.7118 94.992C68.0531 95.136 68.3358 95.344 68.5598 95.616C68.7891 95.8827 68.9624 96.2053 69.0798 96.584C69.1971 96.9627 69.2558 97.3813 69.2558 97.84V103H67.8318V97.84C67.8318 97.2267 67.6904 96.752 67.4078 96.416C67.1304 96.0747 66.7038 95.904 66.1278 95.904C65.7064 95.904 65.3118 96.0053 64.9438 96.208C64.5811 96.4107 64.2451 96.6853 63.9358 97.032V103H62.5118ZM74.6824 94.768C75.2744 94.768 75.8077 94.8667 76.2824 95.064C76.7624 95.2613 77.1677 95.5413 77.4984 95.904C77.8344 96.2667 78.0904 96.7067 78.2664 97.224C78.4477 97.736 78.5384 98.3093 78.5384 98.944C78.5384 99.584 78.4477 100.16 78.2664 100.672C78.0904 101.184 77.8344 101.621 77.4984 101.984C77.1677 102.347 76.7624 102.627 76.2824 102.824C75.8077 103.016 75.2744 103.112 74.6824 103.112C74.0904 103.112 73.5544 103.016 73.0744 102.824C72.5997 102.627 72.1944 102.347 71.8584 101.984C71.5224 101.621 71.2637 101.184 71.0824 100.672C70.901 100.16 70.8104 99.584 70.8104 98.944C70.8104 98.3093 70.901 97.736 71.0824 97.224C71.2637 96.7067 71.5224 96.2667 71.8584 95.904C72.1944 95.5413 72.5997 95.2613 73.0744 95.064C73.5544 94.8667 74.0904 94.768 74.6824 94.768ZM74.6824 102C75.4824 102 76.0797 101.733 76.4744 101.2C76.869 100.661 77.0664 99.912 77.0664 98.952C77.0664 97.9867 76.869 97.2347 76.4744 96.696C76.0797 96.1573 75.4824 95.888 74.6824 95.888C74.277 95.888 73.925 95.9573 73.6264 96.096C73.3277 96.2347 73.077 96.4347 72.8744 96.696C72.677 96.9573 72.5277 97.28 72.4264 97.664C72.3304 98.0427 72.2824 98.472 72.2824 98.952C72.2824 99.432 72.3304 99.8613 72.4264 100.24C72.5277 100.619 72.677 100.939 72.8744 101.2C73.077 101.456 73.3277 101.653 73.6264 101.792C73.925 101.931 74.277 102 74.6824 102ZM79.925 97.6H83.877V98.808H79.925V97.6ZM87.4239 91.216V103H85.9999V91.216H87.4239ZM93.2136 94.768C93.8056 94.768 94.339 94.8667 94.8136 95.064C95.2936 95.2613 95.699 95.5413 96.0296 95.904C96.3656 96.2667 96.6216 96.7067 96.7976 97.224C96.979 97.736 97.0696 98.3093 97.0696 98.944C97.0696 99.584 96.979 100.16 96.7976 100.672C96.6216 101.184 96.3656 101.621 96.0296 101.984C95.699 102.347 95.2936 102.627 94.8136 102.824C94.339 103.016 93.8056 103.112 93.2136 103.112C92.6216 103.112 92.0856 103.016 91.6056 102.824C91.131 102.627 90.7256 102.347 90.3896 101.984C90.0536 101.621 89.795 101.184 89.6136 100.672C89.4323 100.16 89.3416 99.584 89.3416 98.944C89.3416 98.3093 89.4323 97.736 89.6136 97.224C89.795 96.7067 90.0536 96.2667 90.3896 95.904C90.7256 95.5413 91.131 95.2613 91.6056 95.064C92.0856 94.8667 92.6216 94.768 93.2136 94.768ZM93.2136 102C94.0136 102 94.611 101.733 95.0056 101.2C95.4003 100.661 95.5976 99.912 95.5976 98.952C95.5976 97.9867 95.4003 97.2347 95.0056 96.696C94.611 96.1573 94.0136 95.888 93.2136 95.888C92.8083 95.888 92.4563 95.9573 92.1576 96.096C91.859 96.2347 91.6083 96.4347 91.4056 96.696C91.2083 96.9573 91.059 97.28 90.9576 97.664C90.8616 98.0427 90.8136 98.472 90.8136 98.952C90.8136 99.432 90.8616 99.8613 90.9576 100.24C91.059 100.619 91.2083 100.939 91.4056 101.2C91.6083 101.456 91.859 101.653 92.1576 101.792C92.4563 101.931 92.8083 102 93.2136 102ZM103.464 96.232C103.4 96.3493 103.302 96.408 103.168 96.408C103.088 96.408 102.998 96.3787 102.896 96.32C102.795 96.2613 102.67 96.1973 102.52 96.128C102.376 96.0533 102.203 95.9867 102 95.928C101.798 95.864 101.558 95.832 101.28 95.832C101.04 95.832 100.824 95.864 100.632 95.928C100.44 95.9867 100.275 96.0693 100.136 96.176C100.003 96.2827 99.8989 96.408 99.8243 96.552C99.7549 96.6907 99.7203 96.8427 99.7203 97.008C99.7203 97.216 99.7789 97.3893 99.8963 97.528C100.019 97.6667 100.179 97.7867 100.376 97.888C100.574 97.9893 100.798 98.08 101.048 98.16C101.299 98.2347 101.555 98.3173 101.816 98.408C102.083 98.4933 102.342 98.5893 102.592 98.696C102.843 98.8027 103.067 98.936 103.264 99.096C103.462 99.256 103.619 99.4533 103.736 99.688C103.859 99.9173 103.92 100.195 103.92 100.52C103.92 100.893 103.854 101.24 103.72 101.56C103.587 101.875 103.39 102.149 103.128 102.384C102.867 102.613 102.547 102.795 102.168 102.928C101.79 103.061 101.352 103.128 100.856 103.128C100.291 103.128 99.7789 103.037 99.3203 102.856C98.8616 102.669 98.4723 102.432 98.1523 102.144L98.4883 101.6C98.5309 101.531 98.5816 101.477 98.6403 101.44C98.6989 101.403 98.7763 101.384 98.8723 101.384C98.9683 101.384 99.0696 101.421 99.1763 101.496C99.2829 101.571 99.4109 101.653 99.5603 101.744C99.7149 101.835 99.8989 101.917 100.112 101.992C100.331 102.067 100.603 102.104 100.928 102.104C101.206 102.104 101.448 102.069 101.656 102C101.864 101.925 102.038 101.827 102.176 101.704C102.315 101.581 102.416 101.44 102.48 101.28C102.55 101.12 102.584 100.949 102.584 100.768C102.584 100.544 102.523 100.36 102.4 100.216C102.283 100.067 102.126 99.9413 101.928 99.84C101.731 99.7333 101.504 99.6427 101.248 99.568C100.998 99.488 100.739 99.4053 100.472 99.32C100.211 99.2347 99.9523 99.1387 99.6963 99.032C99.4456 98.92 99.2216 98.7813 99.0243 98.616C98.8269 98.4507 98.6669 98.248 98.5443 98.008C98.4269 97.7627 98.3683 97.4667 98.3683 97.12C98.3683 96.8107 98.4323 96.5147 98.5603 96.232C98.6883 95.944 98.8749 95.6933 99.1203 95.48C99.3656 95.2613 99.6669 95.088 100.024 94.96C100.382 94.832 100.79 94.768 101.248 94.768C101.782 94.768 102.259 94.8533 102.68 95.024C103.107 95.1893 103.475 95.4187 103.784 95.712L103.464 96.232ZM110.402 96.232C110.338 96.3493 110.239 96.408 110.106 96.408C110.026 96.408 109.935 96.3787 109.834 96.32C109.732 96.2613 109.607 96.1973 109.458 96.128C109.314 96.0533 109.14 95.9867 108.938 95.928C108.735 95.864 108.495 95.832 108.218 95.832C107.978 95.832 107.762 95.864 107.57 95.928C107.378 95.9867 107.212 96.0693 107.074 96.176C106.94 96.2827 106.836 96.408 106.762 96.552C106.692 96.6907 106.658 96.8427 106.658 97.008C106.658 97.216 106.716 97.3893 106.834 97.528C106.956 97.6667 107.116 97.7867 107.314 97.888C107.511 97.9893 107.735 98.08 107.986 98.16C108.236 98.2347 108.492 98.3173 108.754 98.408C109.02 98.4933 109.279 98.5893 109.53 98.696C109.78 98.8027 110.004 98.936 110.202 99.096C110.399 99.256 110.556 99.4533 110.674 99.688C110.796 99.9173 110.858 100.195 110.858 100.52C110.858 100.893 110.791 101.24 110.658 101.56C110.524 101.875 110.327 102.149 110.066 102.384C109.804 102.613 109.484 102.795 109.106 102.928C108.727 103.061 108.29 103.128 107.794 103.128C107.228 103.128 106.716 103.037 106.258 102.856C105.799 102.669 105.41 102.432 105.09 102.144L105.426 101.6C105.468 101.531 105.519 101.477 105.578 101.44C105.636 101.403 105.714 101.384 105.81 101.384C105.906 101.384 106.007 101.421 106.114 101.496C106.22 101.571 106.348 101.653 106.498 101.744C106.652 101.835 106.836 101.917 107.05 101.992C107.268 102.067 107.54 102.104 107.866 102.104C108.143 102.104 108.386 102.069 108.594 102C108.802 101.925 108.975 101.827 109.114 101.704C109.252 101.581 109.354 101.44 109.418 101.28C109.487 101.12 109.522 100.949 109.522 100.768C109.522 100.544 109.46 100.36 109.338 100.216C109.22 100.067 109.063 99.9413 108.866 99.84C108.668 99.7333 108.442 99.6427 108.186 99.568C107.935 99.488 107.676 99.4053 107.41 99.32C107.148 99.2347 106.89 99.1387 106.634 99.032C106.383 98.92 106.159 98.7813 105.962 98.616C105.764 98.4507 105.604 98.248 105.482 98.008C105.364 97.7627 105.306 97.4667 105.306 97.12C105.306 96.8107 105.37 96.5147 105.498 96.232C105.626 95.944 105.812 95.6933 106.058 95.48C106.303 95.2613 106.604 95.088 106.962 94.96C107.319 94.832 107.727 94.768 108.186 94.768C108.719 94.768 109.196 94.8533 109.618 95.024C110.044 95.1893 110.412 95.4187 110.722 95.712L110.402 96.232ZM117.377 91.216V103H115.953V91.216H117.377ZM123.167 94.768C123.759 94.768 124.292 94.8667 124.767 95.064C125.247 95.2613 125.652 95.5413 125.983 95.904C126.319 96.2667 126.575 96.7067 126.751 97.224C126.932 97.736 127.023 98.3093 127.023 98.944C127.023 99.584 126.932 100.16 126.751 100.672C126.575 101.184 126.319 101.621 125.983 101.984C125.652 102.347 125.247 102.627 124.767 102.824C124.292 103.016 123.759 103.112 123.167 103.112C122.575 103.112 122.039 103.016 121.559 102.824C121.084 102.627 120.679 102.347 120.343 101.984C120.007 101.621 119.748 101.184 119.567 100.672C119.385 100.16 119.295 99.584 119.295 98.944C119.295 98.3093 119.385 97.736 119.567 97.224C119.748 96.7067 120.007 96.2667 120.343 95.904C120.679 95.5413 121.084 95.2613 121.559 95.064C122.039 94.8667 122.575 94.768 123.167 94.768ZM123.167 102C123.967 102 124.564 101.733 124.959 101.2C125.353 100.661 125.551 99.912 125.551 98.952C125.551 97.9867 125.353 97.2347 124.959 96.696C124.564 96.1573 123.967 95.888 123.167 95.888C122.761 95.888 122.409 95.9573 122.111 96.096C121.812 96.2347 121.561 96.4347 121.359 96.696C121.161 96.9573 121.012 97.28 120.911 97.664C120.815 98.0427 120.767 98.472 120.767 98.952C120.767 99.432 120.815 99.8613 120.911 100.24C121.012 100.619 121.161 100.939 121.359 101.2C121.561 101.456 121.812 101.653 122.111 101.792C122.409 101.931 122.761 102 123.167 102ZM131.233 103.128C130.593 103.128 130.1 102.949 129.753 102.592C129.412 102.235 129.241 101.72 129.241 101.048V96.088H128.265C128.18 96.088 128.108 96.064 128.049 96.016C127.991 95.9627 127.961 95.8827 127.961 95.776V95.208L129.289 95.04L129.617 92.536C129.628 92.456 129.663 92.392 129.721 92.344C129.78 92.2907 129.855 92.264 129.945 92.264H130.665V95.056H132.985V96.088H130.665V100.952C130.665 101.293 130.748 101.547 130.913 101.712C131.079 101.877 131.292 101.96 131.553 101.96C131.703 101.96 131.831 101.941 131.937 101.904C132.049 101.861 132.145 101.816 132.225 101.768C132.305 101.72 132.372 101.677 132.425 101.64C132.484 101.597 132.535 101.576 132.577 101.576C132.652 101.576 132.719 101.621 132.777 101.712L133.193 102.392C132.948 102.621 132.652 102.803 132.305 102.936C131.959 103.064 131.601 103.128 131.233 103.128ZM137.202 103.128C136.562 103.128 136.069 102.949 135.722 102.592C135.381 102.235 135.21 101.72 135.21 101.048V96.088H134.234C134.149 96.088 134.077 96.064 134.018 96.016C133.959 95.9627 133.93 95.8827 133.93 95.776V95.208L135.258 95.04L135.586 92.536C135.597 92.456 135.631 92.392 135.69 92.344C135.749 92.2907 135.823 92.264 135.914 92.264H136.634V95.056H138.954V96.088H136.634V100.952C136.634 101.293 136.717 101.547 136.882 101.712C137.047 101.877 137.261 101.96 137.522 101.96C137.671 101.96 137.799 101.941 137.906 101.904C138.018 101.861 138.114 101.816 138.194 101.768C138.274 101.72 138.341 101.677 138.394 101.64C138.453 101.597 138.503 101.576 138.546 101.576C138.621 101.576 138.687 101.621 138.746 101.712L139.162 102.392C138.917 102.621 138.621 102.803 138.274 102.936C137.927 103.064 137.57 103.128 137.202 103.128ZM143.923 94.768C144.408 94.768 144.856 94.8507 145.267 95.016C145.678 95.176 146.032 95.4107 146.331 95.72C146.63 96.024 146.862 96.4027 147.027 96.856C147.198 97.304 147.283 97.816 147.283 98.392C147.283 98.616 147.259 98.7653 147.211 98.84C147.163 98.9147 147.072 98.952 146.939 98.952H141.547C141.558 99.464 141.627 99.9093 141.755 100.288C141.883 100.667 142.059 100.984 142.283 101.24C142.507 101.491 142.774 101.68 143.083 101.808C143.392 101.931 143.739 101.992 144.123 101.992C144.48 101.992 144.787 101.952 145.043 101.872C145.304 101.787 145.528 101.696 145.715 101.6C145.902 101.504 146.056 101.416 146.179 101.336C146.307 101.251 146.416 101.208 146.507 101.208C146.624 101.208 146.715 101.253 146.779 101.344L147.179 101.864C147.003 102.077 146.792 102.264 146.547 102.424C146.302 102.579 146.038 102.707 145.755 102.808C145.478 102.909 145.19 102.984 144.891 103.032C144.592 103.085 144.296 103.112 144.003 103.112C143.443 103.112 142.926 103.019 142.451 102.832C141.982 102.64 141.574 102.363 141.227 102C140.886 101.632 140.619 101.179 140.427 100.64C140.235 100.101 140.139 99.4827 140.139 98.784C140.139 98.2187 140.224 97.6907 140.395 97.2C140.571 96.7093 140.822 96.2853 141.147 95.928C141.472 95.5653 141.87 95.2827 142.339 95.08C142.808 94.872 143.336 94.768 143.923 94.768ZM143.955 95.816C143.267 95.816 142.726 96.016 142.331 96.416C141.936 96.8107 141.691 97.36 141.595 98.064H146.003C146.003 97.7333 145.958 97.432 145.867 97.16C145.776 96.8827 145.643 96.6453 145.467 96.448C145.291 96.2453 145.075 96.0907 144.819 95.984C144.568 95.872 144.28 95.816 143.955 95.816ZM149.106 103V94.896H149.922C150.076 94.896 150.183 94.9253 150.242 94.984C150.3 95.0427 150.34 95.144 150.362 95.288L150.458 96.552C150.735 95.9867 151.076 95.5467 151.482 95.232C151.892 94.912 152.372 94.752 152.922 94.752C153.146 94.752 153.348 94.7787 153.53 94.832C153.711 94.88 153.879 94.9493 154.034 95.04L153.85 96.104C153.812 96.2373 153.73 96.304 153.602 96.304C153.527 96.304 153.412 96.28 153.258 96.232C153.103 96.1787 152.887 96.152 152.61 96.152C152.114 96.152 151.698 96.296 151.362 96.584C151.031 96.872 150.754 97.2907 150.53 97.84V103H149.106ZM157.935 105.392C157.887 105.499 157.825 105.584 157.751 105.648C157.681 105.712 157.572 105.744 157.423 105.744H156.367L157.847 102.528L154.503 94.896H155.735C155.857 94.896 155.953 94.928 156.023 94.992C156.092 95.0507 156.143 95.1173 156.175 95.192L158.343 100.296C158.391 100.413 158.431 100.531 158.463 100.648C158.5 100.765 158.532 100.885 158.559 101.008C158.596 100.885 158.633 100.765 158.671 100.648C158.708 100.531 158.751 100.411 158.799 100.288L160.903 95.192C160.935 95.1067 160.988 95.0373 161.063 94.984C161.143 94.9253 161.228 94.896 161.319 94.896H162.455L157.935 105.392Z" fill="#282D32"/>
<path fill-rule="evenodd" clip-rule="evenodd" d="M188.761 62.8684C188.676 62.0868 189.089 62.001 189.306 62.0558C189.306 62.0558 192.894 63.58 200.06 63.7051C207.225 63.8301 211.168 62.1092 211.168 62.1092C211.386 62.0555 211.798 62.1433 211.709 62.9245C211.62 63.7056 211.485 65.9626 211.428 66.9935L215.552 67.0036C216.058 66.9867 216.994 67.2784 216.687 68.5799C216.625 68.8447 216.533 69.2977 216.416 69.8792C215.81 72.8709 214.516 79.2654 212.967 80.9426C211.879 82.2422 210.412 82.8899 209.272 83.1583C208.322 83.4407 207.332 83.3912 206.989 83.3739C206.94 83.3714 206.904 83.3697 206.884 83.3695C206.122 84.5073 204.173 86.9659 202.478 87.6999C201.926 87.8991 201.93 88.0999 201.934 88.2577C201.934 88.2706 201.934 88.2832 201.934 88.2953C202.021 89.7606 202.389 93.039 203.167 94.43C203.27 94.6376 203.299 94.7956 203.319 94.9039C203.341 95.0224 203.352 95.0817 203.437 95.0819L204.468 95.0843C204.576 95.0845 204.837 95.0853 205.01 95.3028C205.102 95.419 205.265 95.4163 205.441 95.4135C205.678 95.4095 205.94 95.4053 206.094 95.6851C206.26 95.9848 206.225 96.3049 206.208 96.4698C206.204 96.5057 206.201 96.5342 206.201 96.5537L207.829 96.5577C208.028 96.5581 208.425 96.6567 208.424 97.0474L208.416 100.303C208.416 100.362 208.412 100.411 208.408 100.451C208.393 100.629 208.393 100.629 208.85 100.63L210.26 100.633C210.351 100.634 210.532 100.645 210.53 101.122L210.527 102.587C210.527 102.696 210.526 102.913 210.038 102.912L190.237 102.863C189.749 102.862 189.749 102.645 189.75 102.537L189.753 101.072C189.754 100.594 189.935 100.584 190.026 100.584L191.437 100.587C191.893 100.588 191.893 100.588 191.879 100.41C191.875 100.37 191.871 100.322 191.871 100.263L191.879 97.0069C191.88 96.6164 192.279 96.5197 192.477 96.5201L194.105 96.5241C194.105 96.5047 194.102 96.4762 194.099 96.4401C194.082 96.2753 194.049 95.955 194.216 95.6562C194.372 95.377 194.634 95.3825 194.87 95.3877C195.047 95.3913 195.209 95.3947 195.302 95.279C195.476 95.0623 195.737 95.063 195.845 95.0632L196.876 95.0657C196.961 95.0661 196.972 95.0068 196.995 94.8885C197.015 94.7802 197.045 94.6224 197.149 94.4153C197.934 93.0282 198.318 89.7516 198.412 88.2868C198.412 88.2746 198.413 88.2621 198.413 88.2494V88.2492C198.417 88.0913 198.423 87.8906 197.871 87.6885C196.18 86.9464 194.243 84.4782 193.486 83.3368C193.466 83.3368 193.431 83.3384 193.382 83.3406H193.382H193.381H193.381C193.038 83.3562 192.048 83.4011 191.099 83.114C189.961 82.84 188.497 82.1852 187.415 80.8803C185.874 79.1955 184.612 72.7948 184.021 69.8C183.906 69.2179 183.817 68.7645 183.755 68.4995C183.455 67.1964 184.392 66.9093 184.899 66.9287L189.023 66.9387C188.971 65.9076 188.846 63.65 188.761 62.8684ZM186.01 68.7428C185.375 68.7317 185.526 69.4734 185.641 70.0377C185.655 70.111 185.67 70.1811 185.682 70.2465C185.785 70.8142 186.265 73.1547 187.527 76.92C188.79 80.6854 191.23 80.9593 192.293 80.6258C191.565 79.0534 190.031 74.0205 189.721 72.2793C189.412 70.538 189.028 68.7954 188.575 68.7875L186.01 68.7428ZM214.766 70.2619C214.891 69.6995 215.054 68.9606 214.42 68.9606H211.854C211.402 68.9606 210.987 70.6961 210.647 72.4316C210.307 74.1671 208.685 79.1725 207.93 80.7321C208.987 81.0841 211.432 80.8528 212.76 77.1101C214.088 73.3673 214.608 71.0357 214.722 70.4697C214.735 70.4047 214.75 70.3348 214.766 70.2619ZM203.881 76.0971L200.183 78.4249L196.5 76.0715L200.172 81.4256V81.4272L200.172 81.4264L200.173 81.4272V81.4256L203.881 76.0971ZM200.219 68.2159V68.2125L200.218 68.2142L200.217 68.2125L200.217 68.2159L196.481 74.5994L200.187 76.9234L200.187 76.9245L200.188 76.924L200.189 76.9245V76.9234L203.91 74.6253L200.219 68.2159Z" fill="#FFB636"/>
<path d="M211.556 62.2228C211.547 63.2646 206.506 64.0653 200.297 64.0111C194.088 63.9569 188.911 63.0658 188.92 62.0239C188.929 60.9821 194.121 60.1841 200.33 60.2383C206.539 60.2925 211.566 61.181 211.556 62.2228Z" fill="#FFD469"/>
<path d="M208.297 65.9366C208.852 65.9366 208.951 65.9366 209.957 65.5845C209.832 66.2539 209.176 71.3271 208.951 72.1233C208.349 74.2509 207.669 77.5386 206.788 78.1742C206.621 78.2948 205.883 78.1742 205.608 77.9971C205.334 77.8201 206.285 75.9963 207.442 72.1233C208.096 67.9485 207.895 66.1378 208.297 65.9366Z" fill="#FFCC4E"/>
<path d="M238.317 60.5928C245.171 60.5928 250.728 66.2418 250.728 73.2102V80.4653C250.728 87.4336 245.171 93.0825 238.317 93.0825C237.241 93.0825 236.196 92.9433 235.2 92.6811V93.5376C235.2 98.6353 231.116 102.777 226.047 102.86L225.893 102.861V75.1028L225.907 75.1024L225.907 73.2102C225.907 66.2418 231.463 60.5928 238.317 60.5928ZM293.893 60.5928C300.751 60.5928 306.311 66.2741 306.311 73.2823V80.5789C306.311 87.587 300.751 93.2683 293.893 93.2683C287.035 93.2683 281.476 87.587 281.476 80.5789V73.2823C281.476 66.2741 287.035 60.5928 293.893 60.5928ZM266.102 59.9932C272.96 59.9932 278.519 65.6745 278.519 72.6827V79.9792C278.519 86.9874 272.96 92.6688 266.102 92.6688C259.244 92.6688 253.684 86.9874 253.684 79.9792V72.6827C253.684 65.6745 259.244 59.9932 266.102 59.9932ZM318.728 51V83.1917C318.728 88.3734 314.577 92.5837 309.424 92.6675L309.267 92.6688V60.4769C309.267 55.243 313.503 51 318.728 51ZM293.893 70.1099C292.179 70.1099 290.789 71.5303 290.789 73.2823V80.5789C290.789 82.3309 292.179 83.7511 293.893 83.7511C295.608 83.7511 296.998 82.3309 296.998 80.5789V73.2823C296.998 71.5303 295.608 70.1099 293.893 70.1099ZM238.317 70.0558C236.604 70.0558 235.215 71.468 235.215 73.2102V80.4653C235.215 82.2073 236.604 83.6195 238.317 83.6195C240.031 83.6195 241.42 82.2073 241.42 80.4653V73.2102C241.42 71.468 240.031 70.0558 238.317 70.0558ZM266.102 69.5104C264.387 69.5104 262.997 70.9306 262.997 72.6827V79.9792C262.997 81.7313 264.387 83.1517 266.102 83.1517C267.816 83.1517 269.206 81.7313 269.206 79.9792V72.6827C269.206 70.9306 267.816 69.5104 266.102 69.5104Z" fill="url(#paint0_linear)"/>
<path d="M283.975 101.341H283.717C283.461 101.341 283.235 101.1 283.235 100.726V98.9584H283.786C284.042 98.9584 284.237 98.7888 284.237 98.5476C284.237 98.4256 284.192 98.3172 284.109 98.2395C284.026 98.1624 283.912 98.1215 283.786 98.1215H283.235V97.1302C283.235 96.8595 283.033 96.659 282.761 96.659C282.488 96.659 282.286 96.8595 282.286 97.1302V98.1215H282.032C281.905 98.1215 281.791 98.1624 281.709 98.2395C281.625 98.3172 281.58 98.4256 281.58 98.5476C281.58 98.7888 281.776 98.9584 282.032 98.9584H282.286V100.726C282.286 101.607 282.898 102.283 283.717 102.283H283.854C284.149 102.283 284.397 102.097 284.397 101.812C284.397 101.554 284.222 101.341 283.975 101.341Z" fill="url(#paint1_linear)"/>
<path fill-rule="evenodd" clip-rule="evenodd" d="M289.699 100.131V100.13C289.692 98.8509 288.785 97.9407 287.517 97.9407C286.879 97.9407 286.33 98.166 285.94 98.5556C285.551 98.9451 285.326 99.4939 285.326 100.131C285.326 100.764 285.551 101.311 285.94 101.699C286.33 102.088 286.879 102.313 287.517 102.313C288.151 102.313 288.698 102.088 289.086 101.699C289.475 101.311 289.699 100.764 289.699 100.131ZM287.517 98.8076C287.887 98.8076 288.197 98.9449 288.416 99.1755C288.634 99.4067 288.766 99.7372 288.766 100.131C288.766 100.524 288.634 100.853 288.416 101.082C288.198 101.311 287.887 101.446 287.517 101.446C287.146 101.446 286.834 101.311 286.613 101.081C286.393 100.852 286.26 100.524 286.26 100.131C286.26 99.3486 286.784 98.8076 287.517 98.8076Z" fill="url(#paint2_linear)"/>
<path fill-rule="evenodd" clip-rule="evenodd" d="M293.006 103.994C292.258 103.994 291.577 103.697 291.124 103.13C291.04 103.028 291.009 102.908 291.029 102.794C291.049 102.68 291.119 102.58 291.221 102.511L291.222 102.51C291.449 102.36 291.724 102.427 291.873 102.621C292.126 102.942 292.514 103.128 293.021 103.128C293.361 103.128 293.671 103.003 293.897 102.767C294.122 102.531 294.27 102.176 294.27 101.706V101.647C293.934 102.066 293.446 102.313 292.869 102.313C292.274 102.313 291.762 102.086 291.4 101.697C291.038 101.308 290.83 100.762 290.83 100.131C290.83 99.4939 291.055 98.9451 291.444 98.5556C291.834 98.166 292.382 97.9407 293.021 97.9407C294.289 97.9407 295.196 98.8509 295.204 100.13V100.131V101.759C295.204 102.998 294.307 103.994 293.006 103.994ZM293.021 101.446C292.65 101.446 292.338 101.311 292.117 101.081C291.897 100.852 291.764 100.524 291.764 100.131C291.764 99.3486 292.288 98.8076 293.021 98.8076C293.391 98.8076 293.701 98.9449 293.92 99.1755C294.138 99.4067 294.27 99.7372 294.27 100.131C294.27 100.524 294.138 100.853 293.92 101.082C293.701 101.311 293.391 101.446 293.021 101.446Z" fill="url(#paint3_linear)"/>
<path fill-rule="evenodd" clip-rule="evenodd" d="M300.012 101.204C299.845 101.067 299.599 101.073 299.417 101.209C299.227 101.348 298.882 101.476 298.593 101.476C297.904 101.476 297.396 101.075 297.251 100.489H300.02C300.144 100.489 300.256 100.448 300.337 100.37C300.419 100.293 300.464 100.185 300.464 100.063C300.464 99.4492 300.282 98.9182 299.939 98.5392C299.594 98.1591 299.095 97.9407 298.479 97.9407C297.855 97.9407 297.318 98.1664 296.936 98.5563C296.555 98.9459 296.334 99.4943 296.334 100.131C296.334 100.765 296.567 101.312 296.969 101.7C297.371 102.089 297.937 102.313 298.593 102.313C299.075 102.313 299.666 102.119 300.026 101.833C300.13 101.753 300.186 101.643 300.182 101.523C300.178 101.405 300.116 101.294 300.014 101.205L300.012 101.204ZM298.479 98.7774C298.798 98.7774 299.048 98.8842 299.23 99.0616C299.392 99.2188 299.504 99.4367 299.558 99.6973H297.259C297.324 99.4365 297.452 99.2196 297.634 99.0625C297.84 98.8842 298.123 98.7774 298.479 98.7774Z" fill="url(#paint4_linear)"/>
<path d="M303.505 101.341H303.247C302.99 101.341 302.765 101.1 302.765 100.726V98.9584H303.315C303.571 98.9584 303.767 98.7888 303.767 98.5476C303.767 98.4256 303.721 98.3172 303.638 98.2395C303.555 98.1624 303.442 98.1215 303.315 98.1215H302.765V97.1302C302.765 96.8595 302.563 96.659 302.29 96.659C302.018 96.659 301.816 96.8595 301.816 97.1302V98.1215H301.561C301.434 98.1215 301.321 98.1624 301.238 98.2395C301.155 98.3172 301.109 98.4256 301.109 98.5476C301.109 98.7888 301.305 98.9584 301.561 98.9584H301.816V100.726C301.816 101.607 302.427 102.283 303.247 102.283H303.383C303.678 102.283 303.926 102.097 303.926 101.812C303.926 101.554 303.751 101.341 303.505 101.341Z" fill="url(#paint5_linear)"/>
<path d="M307.229 97.9331C306.77 97.9331 306.354 98.0754 306.033 98.3238V96.6854C306.033 96.5497 305.984 96.4289 305.897 96.3418C305.809 96.2546 305.687 96.2067 305.551 96.2067C305.414 96.2067 305.292 96.2546 305.204 96.3418C305.117 96.4289 305.068 96.5497 305.068 96.6854V101.812C305.068 101.948 305.117 102.068 305.204 102.156C305.292 102.243 305.414 102.291 305.551 102.291C305.687 102.291 305.809 102.243 305.897 102.156C305.984 102.068 306.033 101.948 306.033 101.812V99.6859C306.033 99.2014 306.469 98.8152 307.077 98.8152C307.405 98.8152 307.681 98.9064 307.874 99.0882C308.066 99.2688 308.189 99.5507 308.189 99.9573V101.812C308.189 102.083 308.398 102.291 308.671 102.291C308.944 102.291 309.153 102.083 309.153 101.812V99.9573C309.153 99.3115 308.949 98.8034 308.601 98.4566C308.253 98.1099 307.77 97.9331 307.229 97.9331Z" fill="url(#paint6_linear)"/>
<path fill-rule="evenodd" clip-rule="evenodd" d="M314.104 100.489H311.335C311.48 101.075 311.988 101.476 312.677 101.476C312.966 101.476 313.311 101.348 313.501 101.209C313.683 101.073 313.929 101.067 314.096 101.204L314.098 101.205C314.2 101.294 314.262 101.405 314.266 101.523C314.27 101.643 314.214 101.753 314.11 101.833C313.75 102.119 313.159 102.313 312.677 102.313C312.021 102.313 311.455 102.089 311.053 101.7C310.651 101.312 310.418 100.765 310.418 100.131C310.418 99.4943 310.638 98.9459 311.02 98.5563C311.402 98.1664 311.939 97.9407 312.563 97.9407C313.179 97.9407 313.678 98.1591 314.023 98.5392C314.366 98.9182 314.548 99.4492 314.548 100.063C314.548 100.185 314.503 100.293 314.421 100.37C314.34 100.448 314.228 100.489 314.104 100.489ZM312.563 98.7774C312.882 98.7774 313.132 98.8842 313.314 99.0616C313.476 99.2188 313.588 99.4367 313.642 99.6973H311.343C311.408 99.4365 311.536 99.2196 311.718 99.0625C311.924 98.8842 312.207 98.7774 312.563 98.7774Z" fill="url(#paint7_linear)"/>
<path d="M317.856 97.9255C317.404 97.9255 316.985 98.0896 316.671 98.362C316.659 98.2558 316.622 98.1633 316.552 98.0936C316.465 98.007 316.342 97.9709 316.201 97.9709C316.062 97.9709 315.94 98.0098 315.853 98.0964C315.766 98.1829 315.727 98.3041 315.727 98.4419V101.812C315.727 101.953 315.766 102.075 315.854 102.161C315.941 102.247 316.064 102.283 316.201 102.283C316.343 102.283 316.466 102.244 316.552 102.157C316.639 102.07 316.676 101.948 316.676 101.812V99.6105C316.676 99.303 316.836 99.0697 317.113 98.9303C317.394 98.789 317.798 98.7445 318.269 98.8357C318.381 98.861 318.495 98.8594 318.594 98.811C318.696 98.7611 318.767 98.6678 318.799 98.5402C318.821 98.4518 318.813 98.3641 318.773 98.2839C318.735 98.2051 318.669 98.1392 318.585 98.0869C318.419 97.9834 318.169 97.9255 317.856 97.9255Z" fill="url(#paint8_linear)"/>
<defs>
<filter id="filter0_d" x="0" y="0" width="357" height="162" filterUnits="userSpaceOnUse" color-interpolation-filters="sRGB">
<feFlood flood-opacity="0" result="BackgroundImageFix"/>
<feColorMatrix in="SourceAlpha" type="matrix" values="0 0 0 0 0 0 0 0 0 0 0 0 0 0 0 0 0 0 127 0"/>
<feOffset dy="3"/>
<feGaussianBlur stdDeviation="3"/>
<feColorMatrix type="matrix" values="0 0 0 0 0 0 0 0 0 0 0 0 0 0 0 0 0 0 0.07 0"/>
<feBlend mode="normal" in2="BackgroundImageFix" result="effect1_dropShadow"/>
<feBlend mode="normal" in="SourceGraphic" in2="effect1_dropShadow" result="shape"/>
</filter>
<linearGradient id="paint0_linear" x1="272.31" y1="51" x2="272.31" y2="102.861" gradientUnits="userSpaceOnUse">
<stop stop-color="#7E46F2"/>
<stop offset="1" stop-color="#46279A"/>
</linearGradient>
<linearGradient id="paint1_linear" x1="300.195" y1="96.2067" x2="300.195" y2="103.994" gradientUnits="userSpaceOnUse">
<stop stop-color="#7E46F2"/>
<stop offset="1" stop-color="#46279A"/>
</linearGradient>
<linearGradient id="paint2_linear" x1="300.195" y1="96.2067" x2="300.195" y2="103.994" gradientUnits="userSpaceOnUse">
<stop stop-color="#7E46F2"/>
<stop offset="1" stop-color="#46279A"/>
</linearGradient>
<linearGradient id="paint3_linear" x1="300.196" y1="96.2067" x2="300.196" y2="103.994" gradientUnits="userSpaceOnUse">
<stop stop-color="#7E46F2"/>
<stop offset="1" stop-color="#46279A"/>
</linearGradient>
<linearGradient id="paint4_linear" x1="300.196" y1="96.2067" x2="300.196" y2="103.994" gradientUnits="userSpaceOnUse">
<stop stop-color="#7E46F2"/>
<stop offset="1" stop-color="#46279A"/>
</linearGradient>
<linearGradient id="paint5_linear" x1="300.195" y1="96.2067" x2="300.195" y2="103.994" gradientUnits="userSpaceOnUse">
<stop stop-color="#7E46F2"/>
<stop offset="1" stop-color="#46279A"/>
</linearGradient>
<linearGradient id="paint6_linear" x1="300.196" y1="96.2067" x2="300.196" y2="103.994" gradientUnits="userSpaceOnUse">
<stop stop-color="#7E46F2"/>
<stop offset="1" stop-color="#46279A"/>
</linearGradient>
<linearGradient id="paint7_linear" x1="300.196" y1="96.2067" x2="300.196" y2="103.994" gradientUnits="userSpaceOnUse">
<stop stop-color="#7E46F2"/>
<stop offset="1" stop-color="#46279A"/>
</linearGradient>
<linearGradient id="paint8_linear" x1="300.196" y1="96.2067" x2="300.196" y2="103.994" gradientUnits="userSpaceOnUse">
<stop stop-color="#7E46F2"/>
<stop offset="1" stop-color="#46279A"/>
</linearGradient>
</defs>
</svg>
