<svg viewBox="0 0 1200 120" xmlns="http://www.w3.org/2000/svg">
<g clip-path="url(#clip0)">
<rect width="1200" height="120" fill="white"/>
<mask id="mask0" mask-type="alpha" maskUnits="userSpaceOnUse" x="0" y="0" width="1200" height="120">
<rect width="1200" height="120" fill="white"/>
</mask>
<g mask="url(#mask0)">
<g filter="url(#filter0_d)">
<ellipse cx="792.5" cy="60" rx="434.5" ry="252" fill="url(#paint0_linear)"/>
</g>
</g>
<path d="M475.38 65.435C475.38 67.265 475.155 68.915 474.705 70.385C474.255 71.855 473.58 73.1075 472.68 74.1425C471.795 75.1775 470.685 75.9725 469.35 76.5275C468.015 77.0825 466.463 77.36 464.693 77.36C463.883 77.36 463.088 77.3075 462.307 77.2025C461.528 77.1125 460.71 76.9625 459.855 76.7525L460.17 73.1525C460.2 72.8225 460.32 72.56 460.53 72.365C460.755 72.155 461.078 72.05 461.498 72.05C461.753 72.05 462.083 72.1025 462.488 72.2075C462.908 72.3125 463.433 72.365 464.063 72.365C464.918 72.365 465.675 72.245 466.335 72.005C466.995 71.75 467.543 71.3525 467.978 70.8125C468.428 70.2725 468.765 69.575 468.99 68.72C469.215 67.85 469.328 66.8 469.328 65.57V44.465H475.38V65.435ZM491.469 53.555C493.194 53.555 494.754 53.8325 496.149 54.3875C497.559 54.9425 498.759 55.73 499.749 56.75C500.739 57.77 501.504 59.015 502.044 60.485C502.584 61.955 502.854 63.5975 502.854 65.4125C502.854 67.2425 502.584 68.8925 502.044 70.3625C501.504 71.8325 500.739 73.085 499.749 74.12C498.759 75.155 497.559 75.95 496.149 76.505C494.754 77.06 493.194 77.3375 491.469 77.3375C489.744 77.3375 488.176 77.06 486.766 76.505C485.356 75.95 484.149 75.155 483.144 74.12C482.154 73.085 481.381 71.8325 480.826 70.3625C480.286 68.8925 480.016 67.2425 480.016 65.4125C480.016 63.5975 480.286 61.955 480.826 60.485C481.381 59.015 482.154 57.77 483.144 56.75C484.149 55.73 485.356 54.9425 486.766 54.3875C488.176 53.8325 489.744 53.555 491.469 53.555ZM491.469 73.0625C493.389 73.0625 494.806 72.4175 495.721 71.1275C496.651 69.8375 497.116 67.9475 497.116 65.4575C497.116 62.9675 496.651 61.07 495.721 59.765C494.806 58.46 493.389 57.8075 491.469 57.8075C489.519 57.8075 488.079 58.4675 487.149 59.7875C486.219 61.0925 485.754 62.9825 485.754 65.4575C485.754 67.9325 486.219 69.8225 487.149 71.1275C488.079 72.4175 489.519 73.0625 491.469 73.0625ZM513.107 53.915V77H507.55V53.915H513.107ZM513.94 47.1875C513.94 47.6675 513.842 48.1175 513.647 48.5375C513.452 48.9575 513.19 49.325 512.86 49.64C512.545 49.955 512.17 50.21 511.735 50.405C511.3 50.585 510.835 50.675 510.34 50.675C509.86 50.675 509.402 50.585 508.967 50.405C508.547 50.21 508.18 49.955 507.865 49.64C507.55 49.325 507.295 48.9575 507.1 48.5375C506.92 48.1175 506.83 47.6675 506.83 47.1875C506.83 46.6925 506.92 46.2275 507.1 45.7925C507.295 45.3575 507.55 44.9825 507.865 44.6675C508.18 44.3525 508.547 44.105 508.967 43.925C509.402 43.73 509.86 43.6325 510.34 43.6325C510.835 43.6325 511.3 43.73 511.735 43.925C512.17 44.105 512.545 44.3525 512.86 44.6675C513.19 44.9825 513.452 45.3575 513.647 45.7925C513.842 46.2275 513.94 46.6925 513.94 47.1875ZM519.407 77V53.915H522.804C523.524 53.915 523.997 54.2525 524.222 54.9275L524.604 56.75C525.069 56.27 525.557 55.835 526.067 55.445C526.592 55.055 527.139 54.7175 527.709 54.4325C528.294 54.1475 528.917 53.93 529.577 53.78C530.237 53.63 530.957 53.555 531.737 53.555C532.997 53.555 534.114 53.7725 535.089 54.2075C536.064 54.6275 536.874 55.2275 537.519 56.0075C538.179 56.7725 538.674 57.695 539.004 58.775C539.349 59.84 539.522 61.0175 539.522 62.3075V77H533.964V62.3075C533.964 60.8975 533.634 59.81 532.974 59.045C532.329 58.265 531.354 57.875 530.049 57.875C529.089 57.875 528.189 58.0925 527.349 58.5275C526.509 58.9625 525.714 59.555 524.964 60.305V77H519.407ZM561.266 77.36C559.271 77.36 557.734 76.7975 556.654 75.6725C555.574 74.5325 555.034 72.965 555.034 70.97V58.0775H552.694C552.394 58.0775 552.131 57.98 551.906 57.785C551.696 57.59 551.591 57.2975 551.591 56.9075V54.7025L555.304 54.095L556.474 47.795C556.534 47.495 556.669 47.2625 556.879 47.0975C557.104 46.9325 557.381 46.85 557.711 46.85H560.591V54.1175H566.666V58.0775H560.591V70.5875C560.591 71.3075 560.771 71.87 561.131 72.275C561.491 72.68 561.971 72.8825 562.571 72.8825C562.916 72.8825 563.201 72.845 563.426 72.77C563.666 72.68 563.869 72.59 564.034 72.5C564.214 72.41 564.371 72.3275 564.506 72.2525C564.641 72.1625 564.776 72.1175 564.911 72.1175C565.076 72.1175 565.211 72.1625 565.316 72.2525C565.421 72.3275 565.534 72.4475 565.654 72.6125L567.319 75.3125C566.509 75.9875 565.579 76.4975 564.529 76.8425C563.479 77.1875 562.391 77.36 561.266 77.36ZM571.086 77V43.565H576.644V56.4125C577.544 55.5575 578.534 54.8675 579.614 54.3425C580.694 53.8175 581.961 53.555 583.416 53.555C584.676 53.555 585.794 53.7725 586.769 54.2075C587.744 54.6275 588.554 55.2275 589.199 56.0075C589.859 56.7725 590.354 57.695 590.684 58.775C591.029 59.84 591.201 61.0175 591.201 62.3075V77H585.644V62.3075C585.644 60.8975 585.314 59.81 584.654 59.045C584.009 58.265 583.034 57.875 581.729 57.875C580.769 57.875 579.869 58.0925 579.029 58.5275C578.189 58.9625 577.394 59.555 576.644 60.305V77H571.086ZM606.202 53.555C607.657 53.555 608.992 53.7875 610.207 54.2525C611.437 54.7175 612.495 55.4 613.38 56.3C614.265 57.185 614.955 58.28 615.45 59.585C615.945 60.875 616.192 62.3525 616.192 64.0175C616.192 64.4375 616.17 64.79 616.125 65.075C616.095 65.345 616.027 65.5625 615.922 65.7275C615.832 65.8775 615.705 65.99 615.54 66.065C615.375 66.125 615.165 66.155 614.91 66.155H600.645C600.81 68.525 601.447 70.265 602.557 71.375C603.667 72.485 605.137 73.04 606.967 73.04C607.867 73.04 608.64 72.935 609.285 72.725C609.945 72.515 610.515 72.2825 610.995 72.0275C611.49 71.7725 611.917 71.54 612.277 71.33C612.652 71.12 613.012 71.015 613.357 71.015C613.582 71.015 613.777 71.06 613.942 71.15C614.107 71.24 614.25 71.3675 614.37 71.5325L615.99 73.5575C615.375 74.2775 614.685 74.885 613.92 75.38C613.155 75.86 612.352 76.25 611.512 76.55C610.687 76.835 609.84 77.0375 608.97 77.1575C608.115 77.2775 607.282 77.3375 606.472 77.3375C604.867 77.3375 603.375 77.075 601.995 76.55C600.615 76.01 599.415 75.2225 598.395 74.1875C597.375 73.1375 596.572 71.8475 595.987 70.3175C595.402 68.7725 595.11 66.9875 595.11 64.9625C595.11 63.3875 595.365 61.91 595.875 60.53C596.385 59.135 597.112 57.9275 598.057 56.9075C599.017 55.8725 600.18 55.055 601.545 54.455C602.925 53.855 604.477 53.555 606.202 53.555ZM606.315 57.5375C604.695 57.5375 603.427 57.995 602.512 58.91C601.597 59.825 601.012 61.1225 600.757 62.8025H611.197C611.197 62.0825 611.1 61.4075 610.905 60.7775C610.71 60.1325 610.41 59.57 610.005 59.09C609.6 58.61 609.09 58.235 608.475 57.965C607.86 57.68 607.14 57.5375 606.315 57.5375ZM629.402 77V53.915H632.799C633.519 53.915 633.992 54.2525 634.217 54.9275L634.599 56.75C635.064 56.27 635.552 55.835 636.062 55.445C636.587 55.055 637.134 54.7175 637.704 54.4325C638.289 54.1475 638.912 53.93 639.572 53.78C640.232 53.63 640.952 53.555 641.732 53.555C642.992 53.555 644.109 53.7725 645.084 54.2075C646.059 54.6275 646.869 55.2275 647.514 56.0075C648.174 56.7725 648.669 57.695 648.999 58.775C649.344 59.84 649.517 61.0175 649.517 62.3075V77H643.959V62.3075C643.959 60.8975 643.629 59.81 642.969 59.045C642.324 58.265 641.349 57.875 640.044 57.875C639.084 57.875 638.184 58.0925 637.344 58.5275C636.504 58.9625 635.709 59.555 634.959 60.305V77H629.402ZM664.833 53.555C666.558 53.555 668.118 53.8325 669.513 54.3875C670.923 54.9425 672.123 55.73 673.113 56.75C674.103 57.77 674.868 59.015 675.408 60.485C675.948 61.955 676.218 63.5975 676.218 65.4125C676.218 67.2425 675.948 68.8925 675.408 70.3625C674.868 71.8325 674.103 73.085 673.113 74.12C672.123 75.155 670.923 75.95 669.513 76.505C668.118 77.06 666.558 77.3375 664.833 77.3375C663.108 77.3375 661.54 77.06 660.13 76.505C658.72 75.95 657.513 75.155 656.508 74.12C655.518 73.085 654.745 71.8325 654.19 70.3625C653.65 68.8925 653.38 67.2425 653.38 65.4125C653.38 63.5975 653.65 61.955 654.19 60.485C654.745 59.015 655.518 57.77 656.508 56.75C657.513 55.73 658.72 54.9425 660.13 54.3875C661.54 53.8325 663.108 53.555 664.833 53.555ZM664.833 73.0625C666.753 73.0625 668.17 72.4175 669.085 71.1275C670.015 69.8375 670.48 67.9475 670.48 65.4575C670.48 62.9675 670.015 61.07 669.085 59.765C668.17 58.46 666.753 57.8075 664.833 57.8075C662.883 57.8075 661.443 58.4675 660.513 59.7875C659.583 61.0925 659.118 62.9825 659.118 65.4575C659.118 67.9325 659.583 69.8225 660.513 71.1275C661.443 72.4175 662.883 73.0625 664.833 73.0625ZM679.834 61.0925H691.489V65.7275H679.834V61.0925ZM702.643 43.565V77H697.086V43.565H702.643ZM718.798 53.555C720.523 53.555 722.083 53.8325 723.478 54.3875C724.888 54.9425 726.088 55.73 727.078 56.75C728.068 57.77 728.833 59.015 729.373 60.485C729.913 61.955 730.183 63.5975 730.183 65.4125C730.183 67.2425 729.913 68.8925 729.373 70.3625C728.833 71.8325 728.068 73.085 727.078 74.12C726.088 75.155 724.888 75.95 723.478 76.505C722.083 77.06 720.523 77.3375 718.798 77.3375C717.073 77.3375 715.505 77.06 714.095 76.505C712.685 75.95 711.478 75.155 710.473 74.12C709.483 73.085 708.71 71.8325 708.155 70.3625C707.615 68.8925 707.345 67.2425 707.345 65.4125C707.345 63.5975 707.615 61.955 708.155 60.485C708.71 59.015 709.483 57.77 710.473 56.75C711.478 55.73 712.685 54.9425 714.095 54.3875C715.505 53.8325 717.073 53.555 718.798 53.555ZM718.798 73.0625C720.718 73.0625 722.135 72.4175 723.05 71.1275C723.98 69.8375 724.445 67.9475 724.445 65.4575C724.445 62.9675 723.98 61.07 723.05 59.765C722.135 58.46 720.718 57.8075 718.798 57.8075C716.848 57.8075 715.408 58.4675 714.478 59.7875C713.548 61.0925 713.083 62.9825 713.083 65.4575C713.083 67.9325 713.548 69.8225 714.478 71.1275C715.408 72.4175 716.848 73.0625 718.798 73.0625ZM748.221 58.415C748.071 58.655 747.914 58.8275 747.749 58.9325C747.584 59.0225 747.374 59.0675 747.119 59.0675C746.849 59.0675 746.556 58.9925 746.241 58.8425C745.941 58.6925 745.589 58.5275 745.184 58.3475C744.779 58.1525 744.314 57.98 743.789 57.83C743.279 57.68 742.671 57.605 741.966 57.605C740.871 57.605 740.009 57.8375 739.379 58.3025C738.749 58.7675 738.434 59.375 738.434 60.125C738.434 60.62 738.591 61.04 738.906 61.385C739.236 61.715 739.664 62.0075 740.189 62.2625C740.729 62.5175 741.336 62.75 742.011 62.96C742.686 63.155 743.376 63.3725 744.081 63.6125C744.786 63.8525 745.476 64.13 746.151 64.445C746.826 64.745 747.426 65.135 747.951 65.615C748.491 66.08 748.919 66.6425 749.234 67.3025C749.564 67.9625 749.729 68.7575 749.729 69.6875C749.729 70.7975 749.526 71.825 749.121 72.77C748.716 73.7 748.124 74.51 747.344 75.2C746.564 75.875 745.596 76.4075 744.441 76.7975C743.301 77.1725 741.989 77.36 740.504 77.36C739.709 77.36 738.929 77.285 738.164 77.135C737.414 77 736.686 76.805 735.981 76.55C735.291 76.295 734.646 75.995 734.046 75.65C733.461 75.305 732.944 74.93 732.494 74.525L733.776 72.41C733.941 72.155 734.136 71.96 734.361 71.825C734.586 71.69 734.871 71.6225 735.216 71.6225C735.561 71.6225 735.884 71.72 736.184 71.915C736.499 72.11 736.859 72.32 737.264 72.545C737.669 72.77 738.141 72.98 738.681 73.175C739.236 73.37 739.934 73.4675 740.774 73.4675C741.434 73.4675 741.996 73.3925 742.461 73.2425C742.941 73.0775 743.331 72.8675 743.631 72.6125C743.946 72.3575 744.171 72.065 744.306 71.735C744.456 71.39 744.531 71.0375 744.531 70.6775C744.531 70.1375 744.366 69.695 744.036 69.35C743.721 69.005 743.294 68.705 742.754 68.45C742.229 68.195 741.621 67.97 740.931 67.775C740.256 67.565 739.559 67.34 738.839 67.1C738.134 66.86 737.436 66.5825 736.746 66.2675C736.071 65.9375 735.464 65.525 734.924 65.03C734.399 64.535 733.971 63.9275 733.641 63.2075C733.326 62.4875 733.169 61.6175 733.169 60.5975C733.169 59.6525 733.356 58.7525 733.731 57.8975C734.106 57.0425 734.654 56.3 735.374 55.67C736.109 55.025 737.016 54.515 738.096 54.14C739.191 53.75 740.451 53.555 741.876 53.555C743.466 53.555 744.914 53.8175 746.219 54.3425C747.524 54.8675 748.611 55.5575 749.481 56.4125L748.221 58.415ZM767.865 58.415C767.715 58.655 767.557 58.8275 767.392 58.9325C767.227 59.0225 767.017 59.0675 766.762 59.0675C766.492 59.0675 766.2 58.9925 765.885 58.8425C765.585 58.6925 765.232 58.5275 764.827 58.3475C764.422 58.1525 763.957 57.98 763.432 57.83C762.922 57.68 762.315 57.605 761.61 57.605C760.515 57.605 759.652 57.8375 759.022 58.3025C758.392 58.7675 758.077 59.375 758.077 60.125C758.077 60.62 758.235 61.04 758.55 61.385C758.88 61.715 759.307 62.0075 759.832 62.2625C760.372 62.5175 760.98 62.75 761.655 62.96C762.33 63.155 763.02 63.3725 763.725 63.6125C764.43 63.8525 765.12 64.13 765.795 64.445C766.47 64.745 767.07 65.135 767.595 65.615C768.135 66.08 768.562 66.6425 768.877 67.3025C769.207 67.9625 769.372 68.7575 769.372 69.6875C769.372 70.7975 769.17 71.825 768.765 72.77C768.36 73.7 767.767 74.51 766.987 75.2C766.207 75.875 765.24 76.4075 764.085 76.7975C762.945 77.1725 761.632 77.36 760.147 77.36C759.352 77.36 758.572 77.285 757.807 77.135C757.057 77 756.33 76.805 755.625 76.55C754.935 76.295 754.29 75.995 753.69 75.65C753.105 75.305 752.587 74.93 752.137 74.525L753.42 72.41C753.585 72.155 753.78 71.96 754.005 71.825C754.23 71.69 754.515 71.6225 754.86 71.6225C755.205 71.6225 755.527 71.72 755.827 71.915C756.142 72.11 756.502 72.32 756.907 72.545C757.312 72.77 757.785 72.98 758.325 73.175C758.88 73.37 759.577 73.4675 760.417 73.4675C761.077 73.4675 761.64 73.3925 762.105 73.2425C762.585 73.0775 762.975 72.8675 763.275 72.6125C763.59 72.3575 763.815 72.065 763.95 71.735C764.1 71.39 764.175 71.0375 764.175 70.6775C764.175 70.1375 764.01 69.695 763.68 69.35C763.365 69.005 762.937 68.705 762.397 68.45C761.872 68.195 761.265 67.97 760.575 67.775C759.9 67.565 759.202 67.34 758.482 67.1C757.777 66.86 757.08 66.5825 756.39 66.2675C755.715 65.9375 755.107 65.525 754.567 65.03C754.042 64.535 753.615 63.9275 753.285 63.2075C752.97 62.4875 752.812 61.6175 752.812 60.5975C752.812 59.6525 753 58.7525 753.375 57.8975C753.75 57.0425 754.297 56.3 755.017 55.67C755.752 55.025 756.66 54.515 757.74 54.14C758.835 53.75 760.095 53.555 761.52 53.555C763.11 53.555 764.557 53.8175 765.862 54.3425C767.167 54.8675 768.255 55.5575 769.125 56.4125L767.865 58.415ZM788.425 43.565V77H782.867V43.565H788.425ZM804.579 53.555C806.304 53.555 807.864 53.8325 809.259 54.3875C810.669 54.9425 811.869 55.73 812.859 56.75C813.849 57.77 814.614 59.015 815.154 60.485C815.694 61.955 815.964 63.5975 815.964 65.4125C815.964 67.2425 815.694 68.8925 815.154 70.3625C814.614 71.8325 813.849 73.085 812.859 74.12C811.869 75.155 810.669 75.95 809.259 76.505C807.864 77.06 806.304 77.3375 804.579 77.3375C802.854 77.3375 801.286 77.06 799.876 76.505C798.466 75.95 797.259 75.155 796.254 74.12C795.264 73.085 794.491 71.8325 793.936 70.3625C793.396 68.8925 793.126 67.2425 793.126 65.4125C793.126 63.5975 793.396 61.955 793.936 60.485C794.491 59.015 795.264 57.77 796.254 56.75C797.259 55.73 798.466 54.9425 799.876 54.3875C801.286 53.8325 802.854 53.555 804.579 53.555ZM804.579 73.0625C806.499 73.0625 807.916 72.4175 808.831 71.1275C809.761 69.8375 810.226 67.9475 810.226 65.4575C810.226 62.9675 809.761 61.07 808.831 59.765C807.916 58.46 806.499 57.8075 804.579 57.8075C802.629 57.8075 801.189 58.4675 800.259 59.7875C799.329 61.0925 798.864 62.9825 798.864 65.4575C798.864 67.9325 799.329 69.8225 800.259 71.1275C801.189 72.4175 802.629 73.0625 804.579 73.0625ZM827.883 77.36C825.888 77.36 824.35 76.7975 823.27 75.6725C822.19 74.5325 821.65 72.965 821.65 70.97V58.0775H819.31C819.01 58.0775 818.748 57.98 818.523 57.785C818.313 57.59 818.208 57.2975 818.208 56.9075V54.7025L821.92 54.095L823.09 47.795C823.15 47.495 823.285 47.2625 823.495 47.0975C823.72 46.9325 823.998 46.85 824.328 46.85H827.208V54.1175H833.283V58.0775H827.208V70.5875C827.208 71.3075 827.388 71.87 827.748 72.275C828.108 72.68 828.588 72.8825 829.188 72.8825C829.533 72.8825 829.818 72.845 830.043 72.77C830.283 72.68 830.485 72.59 830.65 72.5C830.83 72.41 830.988 72.3275 831.123 72.2525C831.258 72.1625 831.393 72.1175 831.528 72.1175C831.693 72.1175 831.828 72.1625 831.933 72.2525C832.038 72.3275 832.15 72.4475 832.27 72.6125L833.935 75.3125C833.125 75.9875 832.195 76.4975 831.145 76.8425C830.095 77.1875 829.008 77.36 827.883 77.36ZM845.285 77.36C843.29 77.36 841.752 76.7975 840.672 75.6725C839.592 74.5325 839.052 72.965 839.052 70.97V58.0775H836.712C836.412 58.0775 836.15 57.98 835.925 57.785C835.715 57.59 835.61 57.2975 835.61 56.9075V54.7025L839.322 54.095L840.492 47.795C840.552 47.495 840.687 47.2625 840.897 47.0975C841.122 46.9325 841.4 46.85 841.73 46.85H844.61V54.1175H850.685V58.0775H844.61V70.5875C844.61 71.3075 844.79 71.87 845.15 72.275C845.51 72.68 845.99 72.8825 846.59 72.8825C846.935 72.8825 847.22 72.845 847.445 72.77C847.685 72.68 847.887 72.59 848.052 72.5C848.232 72.41 848.39 72.3275 848.525 72.2525C848.66 72.1625 848.795 72.1175 848.93 72.1175C849.095 72.1175 849.23 72.1625 849.335 72.2525C849.44 72.3275 849.552 72.4475 849.672 72.6125L851.337 75.3125C850.527 75.9875 849.597 76.4975 848.547 76.8425C847.497 77.1875 846.41 77.36 845.285 77.36ZM864.645 53.555C866.1 53.555 867.435 53.7875 868.65 54.2525C869.88 54.7175 870.937 55.4 871.822 56.3C872.707 57.185 873.397 58.28 873.892 59.585C874.387 60.875 874.635 62.3525 874.635 64.0175C874.635 64.4375 874.612 64.79 874.567 65.075C874.537 65.345 874.47 65.5625 874.365 65.7275C874.275 65.8775 874.147 65.99 873.982 66.065C873.817 66.125 873.607 66.155 873.352 66.155H859.087C859.252 68.525 859.89 70.265 861 71.375C862.11 72.485 863.58 73.04 865.41 73.04C866.31 73.04 867.082 72.935 867.727 72.725C868.387 72.515 868.957 72.2825 869.437 72.0275C869.932 71.7725 870.36 71.54 870.72 71.33C871.095 71.12 871.455 71.015 871.8 71.015C872.025 71.015 872.22 71.06 872.385 71.15C872.55 71.24 872.692 71.3675 872.812 71.5325L874.432 73.5575C873.817 74.2775 873.127 74.885 872.362 75.38C871.597 75.86 870.795 76.25 869.955 76.55C869.13 76.835 868.282 77.0375 867.412 77.1575C866.557 77.2775 865.725 77.3375 864.915 77.3375C863.31 77.3375 861.817 77.075 860.437 76.55C859.057 76.01 857.857 75.2225 856.837 74.1875C855.817 73.1375 855.015 71.8475 854.43 70.3175C853.845 68.7725 853.552 66.9875 853.552 64.9625C853.552 63.3875 853.807 61.91 854.317 60.53C854.827 59.135 855.555 57.9275 856.5 56.9075C857.46 55.8725 858.622 55.055 859.987 54.455C861.367 53.855 862.92 53.555 864.645 53.555ZM864.757 57.5375C863.137 57.5375 861.87 57.995 860.955 58.91C860.04 59.825 859.455 61.1225 859.2 62.8025H869.64C869.64 62.0825 869.542 61.4075 869.347 60.7775C869.152 60.1325 868.852 59.57 868.447 59.09C868.042 58.61 867.532 58.235 866.917 57.965C866.302 57.68 865.582 57.5375 864.757 57.5375ZM879.143 77V53.915H882.405C882.975 53.915 883.373 54.02 883.598 54.23C883.823 54.44 883.973 54.8 884.048 55.31L884.385 58.1C885.21 56.675 886.178 55.55 887.288 54.725C888.398 53.9 889.643 53.4875 891.023 53.4875C892.163 53.4875 893.108 53.75 893.858 54.275L893.138 58.4375C893.093 58.7075 892.995 58.9025 892.845 59.0225C892.695 59.1275 892.493 59.18 892.238 59.18C892.013 59.18 891.705 59.1275 891.315 59.0225C890.925 58.9175 890.408 58.865 889.763 58.865C888.608 58.865 887.618 59.1875 886.793 59.8325C885.968 60.4625 885.27 61.3925 884.7 62.6225V77H879.143ZM905.702 83.345C905.537 83.735 905.319 84.0275 905.049 84.2225C904.794 84.4325 904.397 84.5375 903.857 84.5375H899.717L904.037 75.29L894.699 53.915H899.559C900.009 53.915 900.354 54.02 900.594 54.23C900.834 54.44 901.014 54.68 901.134 54.95L906.062 66.92C906.227 67.31 906.369 67.715 906.489 68.135C906.609 68.555 906.714 68.975 906.804 69.395C906.924 68.96 907.052 68.54 907.187 68.135C907.337 67.73 907.494 67.3175 907.659 66.8975L912.294 54.95C912.414 54.65 912.609 54.4025 912.879 54.2075C913.164 54.0125 913.479 53.915 913.824 53.915H918.279L905.702 83.345ZM929.336 44.465V57.335C929.336 58.7 929.269 60.0425 929.134 61.3625C928.999 62.6675 928.819 64.055 928.594 65.525H924.836C924.611 64.055 924.431 62.6675 924.296 61.3625C924.161 60.0425 924.094 58.7 924.094 57.335V44.465H929.336ZM923.239 73.94C923.239 73.475 923.321 73.0325 923.486 72.6125C923.666 72.1925 923.906 71.8325 924.206 71.5325C924.521 71.2325 924.889 70.9925 925.309 70.8125C925.729 70.6325 926.179 70.5425 926.659 70.5425C927.124 70.5425 927.566 70.6325 927.986 70.8125C928.406 70.9925 928.766 71.2325 929.066 71.5325C929.366 71.8325 929.606 72.1925 929.786 72.6125C929.966 73.0325 930.056 73.475 930.056 73.94C930.056 74.42 929.966 74.87 929.786 75.29C929.606 75.695 929.366 76.0475 929.066 76.3475C928.766 76.6475 928.406 76.88 927.986 77.045C927.566 77.225 927.124 77.315 926.659 77.315C926.179 77.315 925.729 77.225 925.309 77.045C924.889 76.88 924.521 76.6475 924.206 76.3475C923.906 76.0475 923.666 75.695 923.486 75.29C923.321 74.87 923.239 74.42 923.239 73.94Z" fill="white"/>
<g clip-path="url(#clip1)">
<path fill-rule="evenodd" clip-rule="evenodd" d="M87.4726 37.4536C87.3477 36.3042 87.9545 36.178 88.2734 36.2586C88.2734 36.2586 93.5502 38.5 104.088 38.6839C114.625 38.8679 120.424 36.3371 120.424 36.3371C120.744 36.2581 121.35 36.3873 121.219 37.536C121.089 38.6848 120.889 42.0039 120.806 43.5198L126.87 43.5346C127.615 43.5099 128.992 43.9388 128.54 45.8529C128.448 46.2422 128.314 46.9084 128.14 47.7636C127.25 52.1631 125.347 61.5668 123.07 64.0332C121.469 65.9444 119.312 66.8969 117.635 67.2916C116.239 67.707 114.782 67.6341 114.278 67.6087C114.206 67.605 114.154 67.6025 114.124 67.6022C113.002 69.2754 110.137 72.8911 107.644 73.9704C106.832 74.2634 106.838 74.5587 106.844 74.7908C106.844 74.8098 106.844 74.8282 106.844 74.8461C106.972 77.0008 107.514 81.8221 108.657 83.8676C108.809 84.1729 108.852 84.4053 108.881 84.5645C108.913 84.7388 108.929 84.826 109.054 84.8263L110.57 84.8299C110.73 84.8302 111.113 84.8313 111.368 85.1511C111.504 85.3221 111.742 85.3182 112.002 85.314C112.349 85.3081 112.735 85.302 112.962 85.7134C113.206 86.1542 113.155 86.6249 113.129 86.8673C113.123 86.9201 113.119 86.962 113.119 86.9908L115.513 86.9967C115.805 86.9972 116.39 87.1422 116.389 87.7168L116.377 92.5048C116.377 92.5919 116.37 92.6631 116.365 92.7215C116.342 92.9832 116.342 92.9832 117.014 92.9849L119.089 92.9899C119.222 92.9905 119.488 93.007 119.486 93.7092L119.481 95.8637C119.48 96.0235 119.48 96.3425 118.761 96.3408L89.643 96.2696C88.9248 96.2679 88.9256 95.9486 88.926 95.7891L88.9312 93.6346C88.9329 92.9324 89.1988 92.917 89.332 92.9173L91.4067 92.9224C92.0784 92.924 92.0784 92.924 92.0567 92.662C92.0519 92.6036 92.046 92.5324 92.0462 92.4453L92.0579 87.6573C92.0593 87.083 92.6449 86.9408 92.9375 86.9413L95.3314 86.9472C95.3314 86.9187 95.3271 86.8768 95.3217 86.8238C95.2968 86.5813 95.2485 86.1103 95.4941 85.671C95.7235 85.2603 96.1087 85.2684 96.4562 85.276C96.7159 85.2813 96.9545 85.2863 97.0914 85.1162C97.3475 84.7975 97.7305 84.7986 97.8902 84.7989L99.4063 84.8025C99.5313 84.8031 99.5477 84.7159 99.5805 84.5419C99.6106 84.3827 99.6544 84.1506 99.8076 83.8461C100.962 81.8062 101.527 76.9877 101.665 74.8335C101.665 74.8157 101.666 74.7972 101.666 74.7785V74.7782C101.672 74.5461 101.68 74.2508 100.869 73.9536C98.3821 72.8623 95.5343 69.2327 94.4212 67.5542C94.3913 67.5542 94.3391 67.5564 94.2674 67.5598H94.267H94.2663H94.2662C93.7624 67.5827 92.3056 67.6486 90.9109 67.2265C89.2361 66.8235 87.084 65.8606 85.4927 63.9416C83.2272 61.464 81.3702 52.0511 80.5013 47.6471C80.3325 46.7911 80.2009 46.1243 80.111 45.7345C79.6688 43.8183 81.0476 43.3961 81.7924 43.4245L87.8569 43.4393C87.7808 41.923 87.5974 38.603 87.4726 37.4536ZM83.4261 46.0923C82.4931 46.076 82.7147 47.1668 82.8833 47.9967C82.9051 48.1045 82.9261 48.2076 82.9436 48.3036C83.0955 49.1386 83.8012 52.5805 85.6578 58.1176C87.5145 63.655 91.1034 64.0578 92.6657 63.5673C91.5962 61.255 89.3393 53.8536 88.8845 51.293C88.4298 48.7324 87.8641 46.1698 87.1984 46.1582L83.4261 46.0923ZM125.715 48.3263C125.898 47.4993 126.139 46.4126 125.206 46.4126H121.433C120.767 46.4126 120.157 48.9648 119.657 51.517C119.158 54.0693 116.772 61.4302 115.662 63.7238C117.216 64.2413 120.811 63.9011 122.764 58.3972C124.717 52.893 125.483 49.4643 125.649 48.6319C125.669 48.5363 125.691 48.4335 125.715 48.3263ZM109.708 56.9075L104.269 60.3307L98.8526 56.8698L104.253 64.7436V64.7458L104.253 64.7447L104.254 64.7458V64.7436L109.708 56.9075ZM104.322 45.3176V45.3125L104.32 45.315L104.319 45.3125L104.319 45.3175L98.8253 54.705L104.275 58.1226L104.275 58.1243L104.276 58.1235L104.278 58.1243V58.1226L109.751 54.743L104.322 45.3176Z" fill="#FFB636"/>
<path d="M120.994 36.5041C120.981 38.0362 113.568 39.2136 104.436 39.1339C95.3051 39.0542 87.6917 37.7438 87.7051 36.2117C87.7185 34.6796 95.3536 33.506 104.485 33.5857C113.616 33.6654 121.008 34.972 120.994 36.5041Z" fill="#FFD469"/>
<path d="M116.202 41.9655C117.018 41.9655 117.164 41.9655 118.643 41.4478C118.46 42.4321 117.495 49.8927 117.164 51.0637C116.279 54.1924 115.279 59.0273 113.983 59.962C113.737 60.1394 112.652 59.962 112.248 59.7016C111.844 59.4413 113.244 56.7592 114.945 51.0637C115.907 44.9243 115.611 42.2614 116.202 41.9655Z" fill="#FFCC4E"/>
<path d="M160.35 34.1071C170.429 34.1071 178.6 42.4144 178.6 52.662V63.3313C178.6 73.5788 170.429 81.886 160.35 81.886C158.767 81.886 157.231 81.6813 155.766 81.2958V82.5553C155.766 90.0519 149.76 96.1433 142.305 96.2645L142.078 96.2662V55.4452L142.099 55.4447L142.1 52.662C142.1 42.4144 150.271 34.1071 160.35 34.1071ZM242.079 34.1071C252.164 34.1071 260.34 42.4619 260.34 52.7682V63.4983C260.34 73.8045 252.164 82.1592 242.079 82.1592C231.994 82.1592 223.818 73.8045 223.818 63.4983V52.7682C223.818 42.4619 231.994 34.1071 242.079 34.1071ZM201.209 33.2254C211.294 33.2254 219.47 41.5802 219.47 51.8863V62.6165C219.47 72.9226 211.294 81.2776 201.209 81.2776C191.124 81.2776 182.948 72.9226 182.948 62.6165V51.8863C182.948 41.5802 191.124 33.2254 201.209 33.2254ZM278.601 20V67.3408C278.601 74.9609 272.496 81.1525 264.918 81.2757L264.688 81.2776V33.9367C264.688 26.2397 270.917 20 278.601 20ZM242.079 48.1028C239.558 48.1028 237.514 50.1916 237.514 52.7682V63.4983C237.514 66.0749 239.558 68.1634 242.079 68.1634C244.6 68.1634 246.644 66.0749 246.644 63.4983V52.7682C246.644 50.1916 244.6 48.1028 242.079 48.1028ZM160.35 48.0232C157.83 48.0232 155.787 50.1 155.787 52.662V63.3313C155.787 65.893 157.83 67.9698 160.35 67.9698C162.87 67.9698 164.912 65.893 164.912 63.3313V52.662C164.912 50.1 162.87 48.0232 160.35 48.0232ZM201.209 47.2211C198.688 47.2211 196.644 49.3098 196.644 51.8863V62.6165C196.644 65.193 198.688 67.2818 201.209 67.2818C203.73 67.2818 205.774 65.193 205.774 62.6165V51.8863C205.774 49.3098 203.73 47.2211 201.209 47.2211Z" fill="url(#paint1_linear)"/>
<path d="M227.493 94.0305H227.114C226.736 94.0305 226.405 93.6771 226.405 93.1268V90.5271H227.214C227.591 90.5271 227.879 90.2777 227.879 89.9229C227.879 89.7436 227.812 89.5841 227.689 89.4699C227.568 89.3565 227.401 89.2964 227.214 89.2964H226.405V87.8386C226.405 87.4405 226.108 87.1456 225.707 87.1456C225.306 87.1456 225.009 87.4405 225.009 87.8386V89.2964H224.635C224.449 89.2964 224.282 89.3565 224.16 89.4699C224.037 89.5841 223.971 89.7436 223.971 89.9229C223.971 90.2777 224.258 90.5271 224.635 90.5271H225.009V93.1268C225.009 94.4215 225.908 95.4162 227.114 95.4162H227.315C227.749 95.4162 228.113 95.1425 228.113 94.7235C228.113 94.3436 227.856 94.0305 227.493 94.0305Z" fill="url(#paint2_linear)"/>
<path fill-rule="evenodd" clip-rule="evenodd" d="M235.912 92.2511V92.2502C235.9 90.3689 234.567 89.0304 232.702 89.0304C231.763 89.0304 230.956 89.3617 230.384 89.9346C229.811 90.5075 229.48 91.3145 229.48 92.2511C229.48 93.1824 229.811 93.9863 230.384 94.5578C230.956 95.1293 231.763 95.4606 232.702 95.4606C233.635 95.4606 234.439 95.129 235.01 94.5578C235.581 93.9863 235.912 93.1824 235.912 92.2511ZM232.702 90.3053C233.246 90.3053 233.703 90.5072 234.024 90.8463C234.345 91.1863 234.539 91.6723 234.539 92.2511C234.539 92.8298 234.346 93.3125 234.024 93.6497C233.703 93.9863 233.246 94.1857 232.702 94.1857C232.157 94.1857 231.697 93.986 231.373 93.6491C231.049 93.312 230.854 92.8293 230.854 92.2511C230.854 91.1008 231.625 90.3053 232.702 90.3053Z" fill="url(#paint3_linear)"/>
<path fill-rule="evenodd" clip-rule="evenodd" d="M240.773 97.9329C239.675 97.9329 238.673 97.496 238.007 96.6617C237.883 96.5111 237.837 96.3354 237.867 96.167C237.896 95.9997 237.999 95.8525 238.149 95.7508L238.15 95.75C238.485 95.5287 238.889 95.6284 239.108 95.9136C239.48 96.3851 240.051 96.6581 240.795 96.6581C241.296 96.6581 241.753 96.4745 242.085 96.1273C242.416 95.7804 242.632 95.2595 242.632 94.5681V94.4801C242.139 95.0977 241.421 95.4606 240.572 95.4606C239.697 95.4606 238.945 95.1268 238.412 94.5541C237.881 93.9821 237.574 93.1793 237.574 92.2511C237.574 91.3145 237.905 90.5075 238.477 89.9346C239.05 89.3617 239.857 89.0304 240.795 89.0304C242.661 89.0304 243.994 90.3689 244.006 92.2502V92.2511V94.6458C244.006 96.4673 242.688 97.9329 240.773 97.9329ZM240.795 94.1857C240.251 94.1857 239.791 93.986 239.467 93.6491C239.143 93.312 238.948 92.8293 238.948 92.2511C238.948 91.1008 239.718 90.3053 240.795 90.3053C241.34 90.3053 241.796 90.5072 242.118 90.8463C242.439 91.1863 242.632 91.6723 242.632 92.2511C242.632 92.8298 242.439 93.3125 242.118 93.6497C241.797 93.9863 241.34 94.1857 240.795 94.1857Z" fill="url(#paint4_linear)"/>
<path fill-rule="evenodd" clip-rule="evenodd" d="M251.077 93.8293C250.831 93.6284 250.47 93.6365 250.201 93.8363C249.922 94.0413 249.415 94.2298 248.989 94.2298C247.977 94.2298 247.23 93.6402 247.017 92.7776H251.089C251.271 92.7776 251.435 92.717 251.555 92.6036C251.675 92.4896 251.742 92.3304 251.742 92.1513C251.742 91.2488 251.474 90.4678 250.969 89.9106C250.462 89.3516 249.728 89.0304 248.822 89.0304C247.905 89.0304 247.114 89.3622 246.553 89.9357C245.992 90.5086 245.668 91.315 245.668 92.2511C245.668 93.1837 246.011 93.9882 246.602 94.5595C247.193 95.1301 248.025 95.4606 248.989 95.4606C249.699 95.4606 250.568 95.1745 251.097 94.7547C251.25 94.6368 251.333 94.4745 251.327 94.2988C251.322 94.1256 251.23 93.9614 251.08 93.8315L251.077 93.8293ZM248.822 90.2608C249.291 90.2608 249.66 90.4178 249.927 90.6787C250.165 90.91 250.33 91.2304 250.41 91.6136H247.029C247.124 91.2301 247.312 90.9111 247.579 90.6801C247.883 90.4178 248.299 90.2608 248.822 90.2608Z" fill="url(#paint5_linear)"/>
<path d="M256.212 94.0305H255.832C255.455 94.0305 255.124 93.6771 255.124 93.1268V90.5271H255.933C256.31 90.5271 256.597 90.2777 256.597 89.9229C256.597 89.7436 256.531 89.5841 256.408 89.4699C256.287 89.3565 256.119 89.2964 255.933 89.2964H255.124V87.8386C255.124 87.4405 254.827 87.1456 254.426 87.1456C254.025 87.1456 253.728 87.4405 253.728 87.8386V89.2964H253.354C253.167 89.2964 253 89.3565 252.879 89.4699C252.756 89.5841 252.689 89.7436 252.689 89.9229C252.689 90.2777 252.977 90.5271 253.354 90.5271H253.728V93.1268C253.728 94.4215 254.627 95.4162 255.832 95.4162H256.034C256.467 95.4162 256.832 95.1425 256.832 94.7235C256.832 94.3436 256.574 94.0305 256.212 94.0305Z" fill="url(#paint6_linear)"/>
<path d="M261.689 89.0193C261.014 89.0193 260.403 89.2285 259.93 89.5939V87.1844C259.93 86.9849 259.859 86.8073 259.73 86.6791C259.601 86.5509 259.422 86.4805 259.221 86.4805C259.02 86.4805 258.841 86.5509 258.712 86.6791C258.583 86.8073 258.512 86.9849 258.512 87.1844V94.7235C258.512 94.9229 258.583 95.1006 258.712 95.2288C258.841 95.357 259.02 95.4274 259.221 95.4274C259.422 95.4274 259.601 95.357 259.73 95.2288C259.859 95.1006 259.93 94.9229 259.93 94.7235V91.5969C259.93 90.8844 260.571 90.3165 261.465 90.3165C261.948 90.3165 262.354 90.4506 262.638 90.7179C262.92 90.9835 263.101 91.3981 263.101 91.9961V94.7235C263.101 95.1215 263.409 95.4274 263.81 95.4274C264.211 95.4274 264.519 95.1215 264.519 94.7235V91.9961C264.519 91.0464 264.218 90.2992 263.706 89.7891C263.194 89.2794 262.484 89.0193 261.689 89.0193Z" fill="url(#paint7_linear)"/>
<path fill-rule="evenodd" clip-rule="evenodd" d="M271.8 92.7776H267.728C267.941 93.6402 268.688 94.2298 269.701 94.2298C270.126 94.2298 270.633 94.0413 270.912 93.836C271.181 93.6365 271.543 93.6284 271.788 93.8293L271.791 93.8315C271.941 93.9614 272.033 94.1256 272.038 94.2988C272.044 94.4745 271.961 94.6368 271.808 94.7547C271.279 95.1745 270.41 95.4606 269.701 95.4606C268.736 95.4606 267.904 95.1301 267.313 94.5595C266.722 93.9882 266.379 93.1837 266.379 92.2511C266.379 91.315 266.703 90.5086 267.264 89.9357C267.825 89.3622 268.616 89.0304 269.533 89.0304C270.439 89.0304 271.174 89.3516 271.68 89.9106C272.185 90.4678 272.453 91.2488 272.453 92.1513C272.453 92.3304 272.386 92.4896 272.266 92.6036C272.146 92.717 271.982 92.7776 271.8 92.7776ZM269.533 90.2608C270.002 90.2608 270.371 90.4178 270.638 90.6787C270.876 90.91 271.041 91.2304 271.121 91.6136H267.74C267.835 91.2301 268.023 90.9111 268.29 90.6801C268.594 90.4178 269.01 90.2608 269.533 90.2608Z" fill="url(#paint8_linear)"/>
<path d="M277.318 89.0081C276.652 89.0081 276.036 89.2494 275.575 89.65C275.557 89.4938 275.503 89.3578 275.399 89.2553C275.271 89.1279 275.09 89.0748 274.884 89.0748C274.679 89.0748 274.5 89.1321 274.372 89.2595C274.244 89.3865 274.186 89.5648 274.186 89.7676V94.7234C274.186 94.9307 274.243 95.1097 274.372 95.2365C274.501 95.3625 274.681 95.4161 274.884 95.4161C275.092 95.4161 275.273 95.3592 275.4 95.2307C275.527 95.1027 275.581 94.9242 275.581 94.7234V91.486C275.581 91.0337 275.817 90.6907 276.225 90.4857C276.638 90.2779 277.232 90.2125 277.925 90.3466C278.089 90.3838 278.257 90.3815 278.402 90.3103C278.553 90.2368 278.656 90.0997 278.703 89.912C278.736 89.7821 278.724 89.653 278.666 89.5352C278.61 89.4192 278.513 89.3223 278.39 89.2455C278.145 89.0933 277.778 89.0081 277.318 89.0081Z" fill="url(#paint9_linear)"/>
</g>
<path d="M1198.28 35.1704L1226.5 23.0752" stroke="#424242" stroke-width="2.08429" stroke-miterlimit="10" stroke-linecap="round" stroke-linejoin="round"/>
<path d="M1201.8 21.2541L1148.4 42.7021L1152.69 53.3813L1206.09 31.9332L1201.8 21.2541Z" fill="#FFD166" stroke="#163150" stroke-width="2.08429" stroke-miterlimit="10" stroke-linecap="round" stroke-linejoin="round"/>
<path d="M1208.09 110.392L1176.08 105L1175 111.403L1207.02 116.795L1208.09 110.392Z" fill="#FFD166" stroke="#163150" stroke-width="1.17602" stroke-miterlimit="10" stroke-linecap="round" stroke-linejoin="round"/>
<path d="M1177.07 32.5468L1149.99 43.4232L1153.36 51.8043L1180.43 40.9278L1177.07 32.5468Z" fill="#FFAE25"/>
<path d="M1192.87 108.549L1176.63 105.815L1175.78 110.84L1192.02 113.574L1192.87 108.549Z" fill="#FFAE25"/>
<path d="M1186.07 73.9913C1185.74 89.4455 1172.92 101.612 1157.63 101.283C1156.15 101.283 1154.5 101.118 1153.19 100.79C1140.04 98.3234 1130.17 86.6506 1130.34 72.6761C1130.66 58.866 1141.02 47.5219 1154.34 45.7134C1155.82 45.549 1157.3 45.3846 1158.78 45.3846C1174.07 45.8779 1186.23 58.5371 1186.07 73.9913Z" fill="#FFAE25" stroke="#163150" stroke-width="2.08429" stroke-miterlimit="10" stroke-linecap="round" stroke-linejoin="round"/>
<path opacity="0.7" d="M1186 74.1204C1185.67 88.7716 1172.96 100.306 1157.8 99.9938C1156.33 99.9938 1154.7 99.838 1153.39 99.5263C1145.57 93.1358 1140.84 83.6282 1141 73.1852C1141.17 62.5865 1146.55 53.3904 1154.53 47.3117C1156 47.1558 1157.47 47 1158.94 47C1174.1 47.4676 1186.16 59.4691 1186 74.1204Z" fill="#FFD166"/>
<path d="M1176.54 102.434C1192.34 102.434 1205.14 89.626 1205.14 73.8269C1205.14 58.0279 1192.34 45.2202 1176.54 45.2202C1160.74 45.2202 1147.93 58.0279 1147.93 73.8269C1147.93 89.626 1160.74 102.434 1176.54 102.434Z" fill="url(#paint10_radial)" stroke="#163150" stroke-width="2.08429" stroke-miterlimit="10" stroke-linecap="round" stroke-linejoin="round"/>
<path d="M1096.3 96.4239C1105.85 98.5374 1115.31 92.506 1117.42 82.9523C1119.54 73.3985 1113.51 63.9404 1103.95 61.8268C1094.4 59.7133 1084.94 65.7448 1082.83 75.2986C1080.71 84.8523 1086.75 94.3104 1096.3 96.4239Z" fill="url(#paint11_radial)" stroke="#163150" stroke-width="1.29085" stroke-miterlimit="10" stroke-linecap="round" stroke-linejoin="round"/>
<path d="M984.204 102.33C991.496 103.943 998.716 99.339 1000.33 92.0465C1001.94 84.754 997.339 77.5344 990.046 75.9211C982.754 74.3078 975.534 78.9118 973.921 86.2043C972.307 93.4968 976.911 100.716 984.204 102.33Z" fill="url(#paint12_radial)" stroke="#163150" stroke-width="0.985326" stroke-miterlimit="10" stroke-linecap="round" stroke-linejoin="round"/>
<path d="M1165.4 40.536C1178.38 31.9937 1186.42 21.3011 1183.36 16.6533L1177.33 8.41546L1130.31 39.3498L1136.35 47.5876C1139.41 52.2354 1152.41 49.0783 1165.4 40.536Z" fill="#FFAE25" stroke="#163050" stroke-width="2.08429" stroke-miterlimit="10" stroke-linecap="round" stroke-linejoin="round"/>
<path d="M1154.51 123.851C1164.62 122.639 1172.47 118.72 1172.04 115.099L1170.91 108.501L1134.28 112.892L1135.41 119.491C1135.85 123.112 1144.4 125.064 1154.51 123.851Z" fill="#FFAE25" stroke="#163050" stroke-width="1.36617" stroke-miterlimit="10" stroke-linecap="round" stroke-linejoin="round"/>
<path d="M1183.22 16.575L1177.18 8.33712C1178.82 10.5689 1176.98 17.0076 1171.18 22.5652L1177.58 30.6334C1182.51 25.2009 1185.07 19.3915 1183.22 16.575Z" fill="#FFD166"/>
<path d="M1171.98 115.012L1170.85 108.413C1171.15 110.201 1168.19 113.439 1163.16 115.004L1164.56 121.607C1169.04 119.863 1172.24 117.206 1171.98 115.012Z" fill="#FFD166"/>
<path d="M1051.62 117.536C1064.6 108.994 1072.64 98.3011 1069.59 93.6533L1063.55 85.4155L1016.54 116.35L1022.58 124.588C1025.63 129.235 1038.64 126.078 1051.62 117.536Z" fill="#FFAE25" stroke="#163050" stroke-width="2.08429" stroke-miterlimit="10" stroke-linecap="round" stroke-linejoin="round"/>
<path d="M1068.64 93.2248L1063.03 85.5814C1064.55 87.6521 1062.84 93.6261 1057.47 98.7828L1063.4 106.269C1067.98 101.228 1070.36 95.838 1068.64 93.2248Z" fill="#FFD166"/>
<ellipse cx="1153.82" cy="23.8827" rx="28.1378" ry="10.074" transform="rotate(-33.3459 1153.82 23.8827)" fill="#FFD166" stroke="#163050" stroke-width="2.08429" stroke-miterlimit="10" stroke-linecap="round" stroke-linejoin="round"/>
<ellipse cx="1152.59" cy="110.697" rx="18.4434" ry="6.60318" transform="rotate(-6.83727 1152.59 110.697)" fill="#FFD166" stroke="#163050" stroke-width="1.36617" stroke-miterlimit="10" stroke-linecap="round" stroke-linejoin="round"/>
<ellipse cx="1040.04" cy="100.883" rx="28.1378" ry="10.074" transform="rotate(-33.3459 1040.04 100.883)" fill="#FFD166" stroke="#163050" stroke-width="2.08429" stroke-miterlimit="10" stroke-linecap="round" stroke-linejoin="round"/>
<path d="M1165.4 40.5361C1178.38 31.9938 1186.42 21.3012 1183.36 16.6534L1177.33 8.41557" stroke="#163050" stroke-width="2.08429" stroke-miterlimit="10" stroke-linecap="round" stroke-linejoin="round"/>
<path d="M1096.7 21.5999C1106.91 25.1226 1114.17 30.9412 1112.91 34.5961L1110.25 41.1804L1073.29 28.4238L1075.94 21.8396C1077.2 18.1846 1086.5 18.0773 1096.7 21.5999Z" fill="#FFD166" stroke="#163050" stroke-width="1.44845" stroke-miterlimit="10" stroke-linecap="round" stroke-linejoin="round"/>
<ellipse rx="19.554" ry="7.00082" transform="matrix(0.945305 0.326189 0.326189 -0.945305 1091.77 34.8021)" fill="#FFAE25" stroke="#163050" stroke-width="1.44845" stroke-miterlimit="10" stroke-linecap="round" stroke-linejoin="round"/>
<path d="M1029.48 42.4952C1019.27 46.0178 1012.02 51.8364 1013.28 55.4914L1015.93 62.0756L1052.9 49.319L1050.25 42.7348C1048.99 39.0799 1039.69 38.9726 1029.48 42.4952Z" fill="#FFD166" stroke="#163050" stroke-width="1.44845" stroke-miterlimit="10" stroke-linecap="round" stroke-linejoin="round"/>
<ellipse cx="1034.42" cy="55.6973" rx="19.554" ry="7.00082" transform="rotate(160.962 1034.42 55.6973)" fill="#FFAE25" stroke="#163050" stroke-width="1.44845" stroke-miterlimit="10" stroke-linecap="round" stroke-linejoin="round"/>
<path d="M1176.39 54.6032L1195.24 73.4486L1176.39 92.2941L1157.55 73.4486L1176.39 54.6032Z" fill="#FFC524"/>
<path d="M1176.39 79.5981L1157.53 73.4477L1176.39 54.6026L1195.25 73.4477L1176.39 79.5981Z" fill="#FEBE44"/>
<path d="M1164.09 72.2176H1172.7L1176.39 68.1174L1180.49 72.2176H1189.1L1176.39 58.4822L1164.09 72.2176Z" fill="white"/>
<path opacity="0.42" d="M1176.39 92.2929V54.6026L1195.24 73.4477L1176.39 92.2929Z" fill="#D9A547"/>
<path d="M1102.61 67.4815L1111.48 81.3984L1097.57 90.2733L1088.69 76.3563L1102.61 67.4815Z" fill="#FFC524"/>
<path d="M1099.27 82.5962L1088.68 76.3539L1102.61 67.4813L1111.49 81.4002L1099.27 82.5962Z" fill="#FEBE44"/>
<path d="M1092.81 76.4875L1098.02 77.6394L1100.8 75.6536L1102.73 78.6816L1107.94 79.8334L1102.09 69.8272L1092.81 76.4875Z" fill="white"/>
<path opacity="0.42" d="M1097.57 90.2729L1102.61 67.4814L1111.49 81.3982L1097.57 90.2729Z" fill="#D9A547"/>
<path d="M989.021 80.2376L995.795 90.8606L985.172 97.635L978.398 87.0119L989.021 80.2376Z" fill="#FFC524"/>
<path d="M986.47 91.7748L978.392 87.01L989.022 80.2374L995.804 90.8619L986.47 91.7748Z" fill="#FEBE44"/>
<path d="M981.545 87.1118L985.519 87.9911L987.641 86.4753L989.115 88.7866L993.089 89.6658L988.625 82.0279L981.545 87.1118Z" fill="white"/>
<path opacity="0.42" d="M985.175 97.6345L989.023 80.2374L995.798 90.8602L985.175 97.6345Z" fill="#D9A547"/>
<path d="M1148.83 18.1899L1159.29 20.8868L1156.59 31.3436L1146.13 28.6468L1148.83 18.1899Z" fill="#FFC524"/>
<path d="M1153.98 26.9128L1146.13 28.6496L1148.83 18.1897L1159.29 20.8832L1153.98 26.9128Z" fill="#FEBE44"/>
<path d="M1148.16 26.8696L1151.17 25.0968L1151.61 22.9061L1153.89 23.4929L1156.89 21.7201L1149.63 19.5436L1148.16 26.8696Z" fill="white"/>
<path opacity="0.42" d="M1156.59 31.3432L1148.83 18.1897L1159.29 20.8865L1156.59 31.3432Z" fill="#D9A547"/>
<path d="M1151.33 105.898L1156.68 110.539L1152.04 115.883L1146.69 111.242L1151.33 105.898Z" fill="#FFC524"/>
<path d="M1151.8 112.52L1146.69 111.242L1151.33 105.898L1156.68 110.538L1151.8 112.52Z" fill="#FEBE44"/>
<path d="M1148.4 110.794L1150.68 110.633L1151.59 109.478L1152.75 110.487L1155.03 110.327L1151.41 106.925L1148.4 110.794Z" fill="white"/>
<path opacity="0.42" d="M1152.04 115.883L1151.33 105.898L1156.68 110.539L1152.04 115.883Z" fill="#D9A547"/>
<path d="M1035.05 95.1899L1045.51 97.8868L1042.81 108.344L1032.36 105.647L1035.05 95.1899Z" fill="#FFC524"/>
<path d="M1040.2 103.913L1032.35 105.65L1035.05 95.1897L1045.52 97.8832L1040.2 103.913Z" fill="#FEBE44"/>
<path d="M1034.38 103.87L1037.39 102.097L1037.83 99.9061L1040.11 100.493L1043.11 98.7201L1035.85 96.5436L1034.38 103.87Z" fill="white"/>
<path opacity="0.42" d="M1042.81 108.343L1035.05 95.1897L1045.51 97.8865L1042.81 108.343Z" fill="#D9A547"/>
</g>
<defs>
<filter id="filter0_d" x="342" y="-199" width="889" height="524" filterUnits="userSpaceOnUse" color-interpolation-filters="sRGB">
<feFlood flood-opacity="0" result="BackgroundImageFix"/>
<feColorMatrix in="SourceAlpha" type="matrix" values="0 0 0 0 0 0 0 0 0 0 0 0 0 0 0 0 0 0 127 0"/>
<feOffset dx="-6" dy="3"/>
<feGaussianBlur stdDeviation="5"/>
<feColorMatrix type="matrix" values="0 0 0 0 0.733333 0 0 0 0 0.733333 0 0 0 0 0.733333 0 0 0 0.5 0"/>
<feBlend mode="normal" in2="BackgroundImageFix" result="effect1_dropShadow"/>
<feBlend mode="normal" in="SourceGraphic" in2="effect1_dropShadow" result="shape"/>
</filter>
<linearGradient id="paint0_linear" x1="297" y1="40.5" x2="1554.5" y2="125.5" gradientUnits="userSpaceOnUse">
<stop stop-color="#47279B"/>
<stop offset="0.458333" stop-color="#7440E2"/>
<stop offset="0.760417" stop-color="#FFB636"/>
</linearGradient>
<linearGradient id="paint1_linear" x1="210.34" y1="20" x2="210.34" y2="96.2662" gradientUnits="userSpaceOnUse">
<stop stop-color="#7E46F2"/>
<stop offset="1" stop-color="#46279A"/>
</linearGradient>
<linearGradient id="paint2_linear" x1="251.345" y1="86.4805" x2="251.345" y2="97.933" gradientUnits="userSpaceOnUse">
<stop stop-color="#7E46F2"/>
<stop offset="1" stop-color="#46279A"/>
</linearGradient>
<linearGradient id="paint3_linear" x1="251.346" y1="86.4804" x2="251.346" y2="97.9329" gradientUnits="userSpaceOnUse">
<stop stop-color="#7E46F2"/>
<stop offset="1" stop-color="#46279A"/>
</linearGradient>
<linearGradient id="paint4_linear" x1="251.347" y1="86.4804" x2="251.347" y2="97.9329" gradientUnits="userSpaceOnUse">
<stop stop-color="#7E46F2"/>
<stop offset="1" stop-color="#46279A"/>
</linearGradient>
<linearGradient id="paint5_linear" x1="251.348" y1="86.4804" x2="251.348" y2="97.9329" gradientUnits="userSpaceOnUse">
<stop stop-color="#7E46F2"/>
<stop offset="1" stop-color="#46279A"/>
</linearGradient>
<linearGradient id="paint6_linear" x1="251.345" y1="86.4805" x2="251.345" y2="97.933" gradientUnits="userSpaceOnUse">
<stop stop-color="#7E46F2"/>
<stop offset="1" stop-color="#46279A"/>
</linearGradient>
<linearGradient id="paint7_linear" x1="251.346" y1="86.4805" x2="251.346" y2="97.933" gradientUnits="userSpaceOnUse">
<stop stop-color="#7E46F2"/>
<stop offset="1" stop-color="#46279A"/>
</linearGradient>
<linearGradient id="paint8_linear" x1="251.346" y1="86.4804" x2="251.346" y2="97.9329" gradientUnits="userSpaceOnUse">
<stop stop-color="#7E46F2"/>
<stop offset="1" stop-color="#46279A"/>
</linearGradient>
<linearGradient id="paint9_linear" x1="251.347" y1="86.4804" x2="251.347" y2="97.9329" gradientUnits="userSpaceOnUse">
<stop stop-color="#7E46F2"/>
<stop offset="1" stop-color="#46279A"/>
</linearGradient>
<radialGradient id="paint10_radial" cx="0" cy="0" r="1" gradientUnits="userSpaceOnUse" gradientTransform="translate(1159.65 58.8835) rotate(32.9925) scale(23.3351)">
<stop offset="0.0648649" stop-color="#FFEA80"/>
<stop offset="0.1087" stop-color="#FFE77D"/>
<stop offset="0.4689" stop-color="#FFD76C"/>
<stop offset="0.735" stop-color="#FFD166"/>
</radialGradient>
<radialGradient id="paint11_radial" cx="0" cy="0" r="1" gradientUnits="userSpaceOnUse" gradientTransform="translate(1091.91 67.8295) rotate(45.4668) scale(14.452)">
<stop offset="0.0648649" stop-color="#FFEA80"/>
<stop offset="0.1087" stop-color="#FFE77D"/>
<stop offset="0.4689" stop-color="#FFD76C"/>
<stop offset="0.735" stop-color="#FFD166"/>
</radialGradient>
<radialGradient id="paint12_radial" cx="0" cy="0" r="1" gradientUnits="userSpaceOnUse" gradientTransform="translate(980.855 80.5031) rotate(45.4668) scale(11.0315)">
<stop offset="0.0648649" stop-color="#FFEA80"/>
<stop offset="0.1087" stop-color="#FFE77D"/>
<stop offset="0.4689" stop-color="#FFD76C"/>
<stop offset="0.735" stop-color="#FFD166"/>
</radialGradient>
<clipPath id="clip0">
<rect width="1200" height="120" fill="white"/>
</clipPath>
<clipPath id="clip1">
<rect width="200" height="79.3296" fill="white" transform="translate(79 20)"/>
</clipPath>
</defs>
</svg>
