<svg viewBox="0 0 345 150" xmlns="http://www.w3.org/2000/svg">
<rect width="345" height="150" rx="3" fill="white"/>
<path d="M37.736 66.832C37.736 67.808 37.616 68.688 37.376 69.472C37.136 70.256 36.776 70.924 36.296 71.476C35.824 72.028 35.232 72.452 34.52 72.748C33.808 73.044 32.98 73.192 32.036 73.192C31.604 73.192 31.18 73.164 30.764 73.108C30.348 73.06 29.912 72.98 29.456 72.868L29.624 70.948C29.64 70.772 29.704 70.632 29.816 70.528C29.936 70.416 30.108 70.36 30.332 70.36C30.468 70.36 30.644 70.388 30.86 70.444C31.084 70.5 31.364 70.528 31.7 70.528C32.156 70.528 32.56 70.464 32.912 70.336C33.264 70.2 33.556 69.988 33.788 69.7C34.028 69.412 34.208 69.04 34.328 68.584C34.448 68.12 34.508 67.56 34.508 66.904V55.648H37.736V66.832ZM46.3166 60.496C47.2366 60.496 48.0686 60.644 48.8126 60.94C49.5646 61.236 50.2046 61.656 50.7326 62.2C51.2606 62.744 51.6686 63.408 51.9566 64.192C52.2446 64.976 52.3886 65.852 52.3886 66.82C52.3886 67.796 52.2446 68.676 51.9566 69.46C51.6686 70.244 51.2606 70.912 50.7326 71.464C50.2046 72.016 49.5646 72.44 48.8126 72.736C48.0686 73.032 47.2366 73.18 46.3166 73.18C45.3966 73.18 44.5606 73.032 43.8086 72.736C43.0566 72.44 42.4126 72.016 41.8766 71.464C41.3486 70.912 40.9366 70.244 40.6406 69.46C40.3526 68.676 40.2086 67.796 40.2086 66.82C40.2086 65.852 40.3526 64.976 40.6406 64.192C40.9366 63.408 41.3486 62.744 41.8766 62.2C42.4126 61.656 43.0566 61.236 43.8086 60.94C44.5606 60.644 45.3966 60.496 46.3166 60.496ZM46.3166 70.9C47.3406 70.9 48.0966 70.556 48.5846 69.868C49.0806 69.18 49.3286 68.172 49.3286 66.844C49.3286 65.516 49.0806 64.504 48.5846 63.808C48.0966 63.112 47.3406 62.764 46.3166 62.764C45.2766 62.764 44.5086 63.116 44.0126 63.82C43.5166 64.516 43.2686 65.524 43.2686 66.844C43.2686 68.164 43.5166 69.172 44.0126 69.868C44.5086 70.556 45.2766 70.9 46.3166 70.9ZM57.8572 60.688V73H54.8932V60.688H57.8572ZM58.3012 57.1C58.3012 57.356 58.2492 57.596 58.1452 57.82C58.0412 58.044 57.9012 58.24 57.7252 58.408C57.5572 58.576 57.3572 58.712 57.1252 58.816C56.8932 58.912 56.6452 58.96 56.3812 58.96C56.1252 58.96 55.8812 58.912 55.6492 58.816C55.4252 58.712 55.2292 58.576 55.0612 58.408C54.8932 58.24 54.7572 58.044 54.6532 57.82C54.5572 57.596 54.5092 57.356 54.5092 57.1C54.5092 56.836 54.5572 56.588 54.6532 56.356C54.7572 56.124 54.8932 55.924 55.0612 55.756C55.2292 55.588 55.4252 55.456 55.6492 55.36C55.8812 55.256 56.1252 55.204 56.3812 55.204C56.6452 55.204 56.8932 55.256 57.1252 55.36C57.3572 55.456 57.5572 55.588 57.7252 55.756C57.9012 55.924 58.0412 56.124 58.1452 56.356C58.2492 56.588 58.3012 56.836 58.3012 57.1ZM61.2168 73V60.688H63.0288C63.4128 60.688 63.6648 60.868 63.7848 61.228L63.9888 62.2C64.2368 61.944 64.4968 61.712 64.7688 61.504C65.0488 61.296 65.3408 61.116 65.6448 60.964C65.9568 60.812 66.2888 60.696 66.6408 60.616C66.9928 60.536 67.3768 60.496 67.7928 60.496C68.4648 60.496 69.0608 60.612 69.5808 60.844C70.1008 61.068 70.5328 61.388 70.8768 61.804C71.2288 62.212 71.4928 62.704 71.6688 63.28C71.8528 63.848 71.9448 64.476 71.9448 65.164V73H68.9808V65.164C68.9808 64.412 68.8048 63.832 68.4528 63.424C68.1088 63.008 67.5888 62.8 66.8928 62.8C66.3808 62.8 65.9008 62.916 65.4528 63.148C65.0048 63.38 64.5808 63.696 64.1808 64.096V73H61.2168ZM79.4981 73V60.688H81.3101C81.6941 60.688 81.9461 60.868 82.0661 61.228L82.2701 62.2C82.5181 61.944 82.7781 61.712 83.0501 61.504C83.3301 61.296 83.6221 61.116 83.9261 60.964C84.2381 60.812 84.5701 60.696 84.9221 60.616C85.2741 60.536 85.6581 60.496 86.0741 60.496C86.7461 60.496 87.3421 60.612 87.8621 60.844C88.3821 61.068 88.8141 61.388 89.1581 61.804C89.5101 62.212 89.7741 62.704 89.9501 63.28C90.1341 63.848 90.2261 64.476 90.2261 65.164V73H87.2621V65.164C87.2621 64.412 87.0861 63.832 86.7341 63.424C86.3901 63.008 85.8701 62.8 85.1741 62.8C84.6621 62.8 84.1821 62.916 83.7341 63.148C83.2861 63.38 82.8621 63.696 82.4621 64.096V73H79.4981ZM98.3947 60.496C99.3147 60.496 100.147 60.644 100.891 60.94C101.643 61.236 102.283 61.656 102.811 62.2C103.339 62.744 103.747 63.408 104.035 64.192C104.323 64.976 104.467 65.852 104.467 66.82C104.467 67.796 104.323 68.676 104.035 69.46C103.747 70.244 103.339 70.912 102.811 71.464C102.283 72.016 101.643 72.44 100.891 72.736C100.147 73.032 99.3147 73.18 98.3947 73.18C97.4747 73.18 96.6387 73.032 95.8867 72.736C95.1347 72.44 94.4907 72.016 93.9547 71.464C93.4267 70.912 93.0147 70.244 92.7187 69.46C92.4307 68.676 92.2867 67.796 92.2867 66.82C92.2867 65.852 92.4307 64.976 92.7187 64.192C93.0147 63.408 93.4267 62.744 93.9547 62.2C94.4907 61.656 95.1347 61.236 95.8867 60.94C96.6387 60.644 97.4747 60.496 98.3947 60.496ZM98.3947 70.9C99.4187 70.9 100.175 70.556 100.663 69.868C101.159 69.18 101.407 68.172 101.407 66.844C101.407 65.516 101.159 64.504 100.663 63.808C100.175 63.112 99.4187 62.764 98.3947 62.764C97.3547 62.764 96.5867 63.116 96.0907 63.82C95.5947 64.516 95.3467 65.524 95.3467 66.844C95.3467 68.164 95.5947 69.172 96.0907 69.868C96.5867 70.556 97.3547 70.9 98.3947 70.9ZM105.279 60.688H107.631C107.855 60.688 108.043 60.74 108.195 60.844C108.347 60.948 108.443 61.08 108.483 61.24L110.247 67.816C110.343 68.176 110.419 68.528 110.475 68.872C110.539 69.216 110.599 69.56 110.655 69.904C110.743 69.56 110.835 69.216 110.931 68.872C111.035 68.528 111.143 68.176 111.255 67.816L113.295 61.216C113.343 61.056 113.439 60.924 113.583 60.82C113.727 60.716 113.895 60.664 114.087 60.664H115.395C115.611 60.664 115.791 60.716 115.935 60.82C116.079 60.924 116.175 61.056 116.223 61.216L118.239 67.936C118.343 68.28 118.435 68.616 118.515 68.944C118.603 69.264 118.687 69.588 118.767 69.916C118.823 69.572 118.883 69.228 118.947 68.884C119.019 68.54 119.107 68.184 119.211 67.816L121.035 61.24C121.075 61.08 121.171 60.948 121.323 60.844C121.475 60.74 121.651 60.688 121.851 60.688H124.095L120.195 73H117.807C117.551 73 117.367 72.824 117.255 72.472L115.035 65.356C114.963 65.124 114.895 64.892 114.831 64.66C114.775 64.42 114.727 64.184 114.687 63.952C114.639 64.192 114.587 64.432 114.531 64.672C114.475 64.904 114.411 65.14 114.339 65.38L112.095 72.472C111.983 72.824 111.767 73 111.447 73H109.179L105.279 60.688Z" fill="#163150"/>
<path d="M32.624 100.128C31.984 100.128 31.4907 99.9493 31.144 99.592C30.8027 99.2347 30.632 98.72 30.632 98.048V93.088H29.656C29.5707 93.088 29.4987 93.064 29.44 93.016C29.3813 92.9627 29.352 92.8827 29.352 92.776V92.208L30.68 92.04L31.008 89.536C31.0187 89.456 31.0533 89.392 31.112 89.344C31.1707 89.2907 31.2453 89.264 31.336 89.264H32.056V92.056H34.376V93.088H32.056V97.952C32.056 98.2933 32.1387 98.5467 32.304 98.712C32.4693 98.8773 32.6827 98.96 32.944 98.96C33.0933 98.96 33.2213 98.9413 33.328 98.904C33.44 98.8613 33.536 98.816 33.616 98.768C33.696 98.72 33.7627 98.6773 33.816 98.64C33.8747 98.5973 33.9253 98.576 33.968 98.576C34.0427 98.576 34.1093 98.6213 34.168 98.712L34.584 99.392C34.3387 99.6213 34.0427 99.8027 33.696 99.936C33.3493 100.064 32.992 100.128 32.624 100.128ZM36.1368 100V88.216H37.5608V92.984C37.9074 92.616 38.2914 92.3227 38.7128 92.104C39.1341 91.88 39.6194 91.768 40.1688 91.768C40.6114 91.768 41.0008 91.8427 41.3368 91.992C41.6781 92.136 41.9608 92.344 42.1848 92.616C42.4141 92.8827 42.5874 93.2053 42.7048 93.584C42.8221 93.9627 42.8808 94.3813 42.8808 94.84V100H41.4568V94.84C41.4568 94.2267 41.3154 93.752 41.0328 93.416C40.7554 93.0747 40.3288 92.904 39.7528 92.904C39.3314 92.904 38.9368 93.0053 38.5688 93.208C38.2061 93.4107 37.8701 93.6853 37.5608 94.032V100H36.1368ZM48.2354 91.768C48.7207 91.768 49.1687 91.8507 49.5794 92.016C49.99 92.176 50.3447 92.4107 50.6434 92.72C50.942 93.024 51.174 93.4027 51.3394 93.856C51.51 94.304 51.5954 94.816 51.5954 95.392C51.5954 95.616 51.5714 95.7653 51.5234 95.84C51.4754 95.9147 51.3847 95.952 51.2514 95.952H45.8594C45.87 96.464 45.9394 96.9093 46.0674 97.288C46.1954 97.6667 46.3714 97.984 46.5954 98.24C46.8194 98.4907 47.086 98.68 47.3954 98.808C47.7047 98.9307 48.0514 98.992 48.4354 98.992C48.7927 98.992 49.0994 98.952 49.3554 98.872C49.6167 98.7867 49.8407 98.696 50.0274 98.6C50.214 98.504 50.3687 98.416 50.4914 98.336C50.6194 98.2507 50.7287 98.208 50.8194 98.208C50.9367 98.208 51.0274 98.2533 51.0914 98.344L51.4914 98.864C51.3154 99.0773 51.1047 99.264 50.8594 99.424C50.614 99.5787 50.35 99.7067 50.0674 99.808C49.79 99.9093 49.502 99.984 49.2034 100.032C48.9047 100.085 48.6087 100.112 48.3154 100.112C47.7554 100.112 47.238 100.019 46.7634 99.832C46.294 99.64 45.886 99.3627 45.5394 99C45.198 98.632 44.9314 98.1787 44.7394 97.64C44.5474 97.1013 44.4514 96.4827 44.4514 95.784C44.4514 95.2187 44.5367 94.6907 44.7074 94.2C44.8834 93.7093 45.134 93.2853 45.4594 92.928C45.7847 92.5653 46.182 92.2827 46.6514 92.08C47.1207 91.872 47.6487 91.768 48.2354 91.768ZM48.2674 92.816C47.5794 92.816 47.038 93.016 46.6434 93.416C46.2487 93.8107 46.0034 94.36 45.9074 95.064H50.3154C50.3154 94.7333 50.27 94.432 50.1794 94.16C50.0887 93.8827 49.9554 93.6453 49.7794 93.448C49.6034 93.2453 49.3874 93.0907 49.1314 92.984C48.8807 92.872 48.5927 92.816 48.2674 92.816ZM56.5118 100V91.896H57.3598C57.5624 91.896 57.6904 91.9947 57.7438 92.192L57.8558 93.072C58.2078 92.6827 58.5998 92.368 59.0318 92.128C59.4691 91.888 59.9731 91.768 60.5438 91.768C60.9864 91.768 61.3758 91.8427 61.7118 91.992C62.0531 92.136 62.3358 92.344 62.5598 92.616C62.7891 92.8827 62.9624 93.2053 63.0798 93.584C63.1971 93.9627 63.2558 94.3813 63.2558 94.84V100H61.8318V94.84C61.8318 94.2267 61.6904 93.752 61.4078 93.416C61.1304 93.0747 60.7038 92.904 60.1278 92.904C59.7064 92.904 59.3118 93.0053 58.9438 93.208C58.5811 93.4107 58.2451 93.6853 57.9358 94.032V100H56.5118ZM68.6824 91.768C69.2744 91.768 69.8077 91.8667 70.2824 92.064C70.7624 92.2613 71.1677 92.5413 71.4984 92.904C71.8344 93.2667 72.0904 93.7067 72.2664 94.224C72.4477 94.736 72.5384 95.3093 72.5384 95.944C72.5384 96.584 72.4477 97.16 72.2664 97.672C72.0904 98.184 71.8344 98.6213 71.4984 98.984C71.1677 99.3467 70.7624 99.6267 70.2824 99.824C69.8077 100.016 69.2744 100.112 68.6824 100.112C68.0904 100.112 67.5544 100.016 67.0744 99.824C66.5997 99.6267 66.1944 99.3467 65.8584 98.984C65.5224 98.6213 65.2637 98.184 65.0824 97.672C64.901 97.16 64.8104 96.584 64.8104 95.944C64.8104 95.3093 64.901 94.736 65.0824 94.224C65.2637 93.7067 65.5224 93.2667 65.8584 92.904C66.1944 92.5413 66.5997 92.2613 67.0744 92.064C67.5544 91.8667 68.0904 91.768 68.6824 91.768ZM68.6824 99C69.4824 99 70.0797 98.7333 70.4744 98.2C70.869 97.6613 71.0664 96.912 71.0664 95.952C71.0664 94.9867 70.869 94.2347 70.4744 93.696C70.0797 93.1573 69.4824 92.888 68.6824 92.888C68.277 92.888 67.925 92.9573 67.6264 93.096C67.3277 93.2347 67.077 93.4347 66.8744 93.696C66.677 93.9573 66.5277 94.28 66.4264 94.664C66.3304 95.0427 66.2824 95.472 66.2824 95.952C66.2824 96.432 66.3304 96.8613 66.4264 97.24C66.5277 97.6187 66.677 97.9387 66.8744 98.2C67.077 98.456 67.3277 98.6533 67.6264 98.792C67.925 98.9307 68.277 99 68.6824 99ZM73.925 94.6H77.877V95.808H73.925V94.6ZM81.4239 88.216V100H79.9999V88.216H81.4239ZM87.2136 91.768C87.8056 91.768 88.339 91.8667 88.8136 92.064C89.2936 92.2613 89.699 92.5413 90.0296 92.904C90.3656 93.2667 90.6216 93.7067 90.7976 94.224C90.979 94.736 91.0696 95.3093 91.0696 95.944C91.0696 96.584 90.979 97.16 90.7976 97.672C90.6216 98.184 90.3656 98.6213 90.0296 98.984C89.699 99.3467 89.2936 99.6267 88.8136 99.824C88.339 100.016 87.8056 100.112 87.2136 100.112C86.6216 100.112 86.0856 100.016 85.6056 99.824C85.131 99.6267 84.7256 99.3467 84.3896 98.984C84.0536 98.6213 83.795 98.184 83.6136 97.672C83.4323 97.16 83.3416 96.584 83.3416 95.944C83.3416 95.3093 83.4323 94.736 83.6136 94.224C83.795 93.7067 84.0536 93.2667 84.3896 92.904C84.7256 92.5413 85.131 92.2613 85.6056 92.064C86.0856 91.8667 86.6216 91.768 87.2136 91.768ZM87.2136 99C88.0136 99 88.611 98.7333 89.0056 98.2C89.4003 97.6613 89.5976 96.912 89.5976 95.952C89.5976 94.9867 89.4003 94.2347 89.0056 93.696C88.611 93.1573 88.0136 92.888 87.2136 92.888C86.8083 92.888 86.4563 92.9573 86.1576 93.096C85.859 93.2347 85.6083 93.4347 85.4056 93.696C85.2083 93.9573 85.059 94.28 84.9576 94.664C84.8616 95.0427 84.8136 95.472 84.8136 95.952C84.8136 96.432 84.8616 96.8613 84.9576 97.24C85.059 97.6187 85.2083 97.9387 85.4056 98.2C85.6083 98.456 85.859 98.6533 86.1576 98.792C86.4563 98.9307 86.8083 99 87.2136 99ZM97.4643 93.232C97.4003 93.3493 97.3016 93.408 97.1683 93.408C97.0883 93.408 96.9976 93.3787 96.8963 93.32C96.7949 93.2613 96.6696 93.1973 96.5203 93.128C96.3763 93.0533 96.2029 92.9867 96.0003 92.928C95.7976 92.864 95.5576 92.832 95.2803 92.832C95.0403 92.832 94.8243 92.864 94.6323 92.928C94.4403 92.9867 94.2749 93.0693 94.1363 93.176C94.0029 93.2827 93.8989 93.408 93.8243 93.552C93.7549 93.6907 93.7203 93.8427 93.7203 94.008C93.7203 94.216 93.7789 94.3893 93.8963 94.528C94.0189 94.6667 94.1789 94.7867 94.3763 94.888C94.5736 94.9893 94.7976 95.08 95.0483 95.16C95.2989 95.2347 95.5549 95.3173 95.8163 95.408C96.0829 95.4933 96.3416 95.5893 96.5923 95.696C96.8429 95.8027 97.0669 95.936 97.2643 96.096C97.4616 96.256 97.6189 96.4533 97.7363 96.688C97.8589 96.9173 97.9203 97.1947 97.9203 97.52C97.9203 97.8933 97.8536 98.24 97.7203 98.56C97.5869 98.8747 97.3896 99.1493 97.1283 99.384C96.8669 99.6133 96.5469 99.7947 96.1683 99.928C95.7896 100.061 95.3523 100.128 94.8563 100.128C94.2909 100.128 93.7789 100.037 93.3203 99.856C92.8616 99.6693 92.4723 99.432 92.1523 99.144L92.4883 98.6C92.5309 98.5307 92.5816 98.4773 92.6403 98.44C92.6989 98.4027 92.7763 98.384 92.8723 98.384C92.9683 98.384 93.0696 98.4213 93.1763 98.496C93.2829 98.5707 93.4109 98.6533 93.5603 98.744C93.7149 98.8347 93.8989 98.9173 94.1123 98.992C94.3309 99.0667 94.6029 99.104 94.9283 99.104C95.2056 99.104 95.4483 99.0693 95.6562 99C95.8643 98.9253 96.0376 98.8267 96.1762 98.704C96.3149 98.5813 96.4163 98.44 96.4803 98.28C96.5496 98.12 96.5843 97.9493 96.5843 97.768C96.5843 97.544 96.5229 97.36 96.4003 97.216C96.2829 97.0667 96.1256 96.9413 95.9283 96.84C95.7309 96.7333 95.5043 96.6427 95.2483 96.568C94.9976 96.488 94.7389 96.4053 94.4723 96.32C94.2109 96.2347 93.9523 96.1387 93.6963 96.032C93.4456 95.92 93.2216 95.7813 93.0243 95.616C92.8269 95.4507 92.6669 95.248 92.5443 95.008C92.4269 94.7627 92.3683 94.4667 92.3683 94.12C92.3683 93.8107 92.4323 93.5147 92.5603 93.232C92.6883 92.944 92.8749 92.6933 93.1203 92.48C93.3656 92.2613 93.6669 92.088 94.0243 91.96C94.3816 91.832 94.7896 91.768 95.2483 91.768C95.7816 91.768 96.2589 91.8533 96.6803 92.024C97.1069 92.1893 97.4749 92.4187 97.7843 92.712L97.4643 93.232ZM104.402 93.232C104.338 93.3493 104.239 93.408 104.106 93.408C104.026 93.408 103.935 93.3787 103.834 93.32C103.732 93.2613 103.607 93.1973 103.458 93.128C103.314 93.0533 103.14 92.9867 102.938 92.928C102.735 92.864 102.495 92.832 102.218 92.832C101.978 92.832 101.762 92.864 101.57 92.928C101.378 92.9867 101.212 93.0693 101.074 93.176C100.94 93.2827 100.836 93.408 100.762 93.552C100.692 93.6907 100.658 93.8427 100.658 94.008C100.658 94.216 100.716 94.3893 100.834 94.528C100.956 94.6667 101.116 94.7867 101.314 94.888C101.511 94.9893 101.735 95.08 101.986 95.16C102.236 95.2347 102.492 95.3173 102.754 95.408C103.02 95.4933 103.279 95.5893 103.53 95.696C103.78 95.8027 104.004 95.936 104.202 96.096C104.399 96.256 104.556 96.4533 104.674 96.688C104.796 96.9173 104.858 97.1947 104.858 97.52C104.858 97.8933 104.791 98.24 104.658 98.56C104.524 98.8747 104.327 99.1493 104.066 99.384C103.804 99.6133 103.484 99.7947 103.106 99.928C102.727 100.061 102.29 100.128 101.794 100.128C101.228 100.128 100.716 100.037 100.258 99.856C99.7991 99.6693 99.4098 99.432 99.0898 99.144L99.4258 98.6C99.4684 98.5307 99.5191 98.4773 99.5778 98.44C99.6364 98.4027 99.7138 98.384 99.8098 98.384C99.9058 98.384 100.007 98.4213 100.114 98.496C100.22 98.5707 100.348 98.6533 100.498 98.744C100.652 98.8347 100.836 98.9173 101.05 98.992C101.268 99.0667 101.54 99.104 101.866 99.104C102.143 99.104 102.386 99.0693 102.594 99C102.802 98.9253 102.975 98.8267 103.114 98.704C103.252 98.5813 103.354 98.44 103.418 98.28C103.487 98.12 103.522 97.9493 103.522 97.768C103.522 97.544 103.46 97.36 103.338 97.216C103.22 97.0667 103.063 96.9413 102.866 96.84C102.668 96.7333 102.442 96.6427 102.186 96.568C101.935 96.488 101.676 96.4053 101.41 96.32C101.148 96.2347 100.89 96.1387 100.634 96.032C100.383 95.92 100.159 95.7813 99.9618 95.616C99.7644 95.4507 99.6044 95.248 99.4818 95.008C99.3644 94.7627 99.3058 94.4667 99.3058 94.12C99.3058 93.8107 99.3698 93.5147 99.4978 93.232C99.6258 92.944 99.8124 92.6933 100.058 92.48C100.303 92.2613 100.604 92.088 100.962 91.96C101.319 91.832 101.727 91.768 102.186 91.768C102.719 91.768 103.196 91.8533 103.618 92.024C104.044 92.1893 104.412 92.4187 104.722 92.712L104.402 93.232ZM111.377 88.216V100H109.953V88.216H111.377ZM117.167 91.768C117.759 91.768 118.292 91.8667 118.767 92.064C119.247 92.2613 119.652 92.5413 119.983 92.904C120.319 93.2667 120.575 93.7067 120.751 94.224C120.932 94.736 121.023 95.3093 121.023 95.944C121.023 96.584 120.932 97.16 120.751 97.672C120.575 98.184 120.319 98.6213 119.983 98.984C119.652 99.3467 119.247 99.6267 118.767 99.824C118.292 100.016 117.759 100.112 117.167 100.112C116.575 100.112 116.039 100.016 115.559 99.824C115.084 99.6267 114.679 99.3467 114.343 98.984C114.007 98.6213 113.748 98.184 113.567 97.672C113.385 97.16 113.295 96.584 113.295 95.944C113.295 95.3093 113.385 94.736 113.567 94.224C113.748 93.7067 114.007 93.2667 114.343 92.904C114.679 92.5413 115.084 92.2613 115.559 92.064C116.039 91.8667 116.575 91.768 117.167 91.768ZM117.167 99C117.967 99 118.564 98.7333 118.959 98.2C119.353 97.6613 119.551 96.912 119.551 95.952C119.551 94.9867 119.353 94.2347 118.959 93.696C118.564 93.1573 117.967 92.888 117.167 92.888C116.761 92.888 116.409 92.9573 116.111 93.096C115.812 93.2347 115.561 93.4347 115.359 93.696C115.161 93.9573 115.012 94.28 114.911 94.664C114.815 95.0427 114.767 95.472 114.767 95.952C114.767 96.432 114.815 96.8613 114.911 97.24C115.012 97.6187 115.161 97.9387 115.359 98.2C115.561 98.456 115.812 98.6533 116.111 98.792C116.409 98.9307 116.761 99 117.167 99ZM125.233 100.128C124.593 100.128 124.1 99.9493 123.753 99.592C123.412 99.2347 123.241 98.72 123.241 98.048V93.088H122.265C122.18 93.088 122.108 93.064 122.049 93.016C121.991 92.9627 121.961 92.8827 121.961 92.776V92.208L123.289 92.04L123.617 89.536C123.628 89.456 123.663 89.392 123.721 89.344C123.78 89.2907 123.855 89.264 123.945 89.264H124.665V92.056H126.985V93.088H124.665V97.952C124.665 98.2933 124.748 98.5467 124.913 98.712C125.079 98.8773 125.292 98.96 125.553 98.96C125.703 98.96 125.831 98.9413 125.937 98.904C126.049 98.8613 126.145 98.816 126.225 98.768C126.305 98.72 126.372 98.6773 126.425 98.64C126.484 98.5973 126.535 98.576 126.577 98.576C126.652 98.576 126.719 98.6213 126.777 98.712L127.193 99.392C126.948 99.6213 126.652 99.8027 126.305 99.936C125.959 100.064 125.601 100.128 125.233 100.128ZM131.202 100.128C130.562 100.128 130.069 99.9493 129.722 99.592C129.381 99.2347 129.21 98.72 129.21 98.048V93.088H128.234C128.149 93.088 128.077 93.064 128.018 93.016C127.959 92.9627 127.93 92.8827 127.93 92.776V92.208L129.258 92.04L129.586 89.536C129.597 89.456 129.631 89.392 129.69 89.344C129.749 89.2907 129.823 89.264 129.914 89.264H130.634V92.056H132.954V93.088H130.634V97.952C130.634 98.2933 130.717 98.5467 130.882 98.712C131.047 98.8773 131.261 98.96 131.522 98.96C131.671 98.96 131.799 98.9413 131.906 98.904C132.018 98.8613 132.114 98.816 132.194 98.768C132.274 98.72 132.341 98.6773 132.394 98.64C132.453 98.5973 132.503 98.576 132.546 98.576C132.621 98.576 132.687 98.6213 132.746 98.712L133.162 99.392C132.917 99.6213 132.621 99.8027 132.274 99.936C131.927 100.064 131.57 100.128 131.202 100.128ZM137.923 91.768C138.408 91.768 138.856 91.8507 139.267 92.016C139.678 92.176 140.032 92.4107 140.331 92.72C140.63 93.024 140.862 93.4027 141.027 93.856C141.198 94.304 141.283 94.816 141.283 95.392C141.283 95.616 141.259 95.7653 141.211 95.84C141.163 95.9147 141.072 95.952 140.939 95.952H135.547C135.558 96.464 135.627 96.9093 135.755 97.288C135.883 97.6667 136.059 97.984 136.283 98.24C136.507 98.4907 136.774 98.68 137.083 98.808C137.392 98.9307 137.739 98.992 138.123 98.992C138.48 98.992 138.787 98.952 139.043 98.872C139.304 98.7867 139.528 98.696 139.715 98.6C139.902 98.504 140.056 98.416 140.179 98.336C140.307 98.2507 140.416 98.208 140.507 98.208C140.624 98.208 140.715 98.2533 140.779 98.344L141.179 98.864C141.003 99.0773 140.792 99.264 140.547 99.424C140.302 99.5787 140.038 99.7067 139.755 99.808C139.478 99.9093 139.19 99.984 138.891 100.032C138.592 100.085 138.296 100.112 138.003 100.112C137.443 100.112 136.926 100.019 136.451 99.832C135.982 99.64 135.574 99.3627 135.227 99C134.886 98.632 134.619 98.1787 134.427 97.64C134.235 97.1013 134.139 96.4827 134.139 95.784C134.139 95.2187 134.224 94.6907 134.395 94.2C134.571 93.7093 134.822 93.2853 135.147 92.928C135.472 92.5653 135.87 92.2827 136.339 92.08C136.808 91.872 137.336 91.768 137.923 91.768ZM137.955 92.816C137.267 92.816 136.726 93.016 136.331 93.416C135.936 93.8107 135.691 94.36 135.595 95.064H140.003C140.003 94.7333 139.958 94.432 139.867 94.16C139.776 93.8827 139.643 93.6453 139.467 93.448C139.291 93.2453 139.075 93.0907 138.819 92.984C138.568 92.872 138.28 92.816 137.955 92.816ZM143.106 100V91.896H143.922C144.076 91.896 144.183 91.9253 144.242 91.984C144.3 92.0427 144.34 92.144 144.362 92.288L144.458 93.552C144.735 92.9867 145.076 92.5467 145.482 92.232C145.892 91.912 146.372 91.752 146.922 91.752C147.146 91.752 147.348 91.7787 147.53 91.832C147.711 91.88 147.879 91.9493 148.034 92.04L147.85 93.104C147.812 93.2373 147.73 93.304 147.602 93.304C147.527 93.304 147.412 93.28 147.258 93.232C147.103 93.1787 146.887 93.152 146.61 93.152C146.114 93.152 145.698 93.296 145.362 93.584C145.031 93.872 144.754 94.2907 144.53 94.84V100H143.106ZM151.935 102.392C151.887 102.499 151.825 102.584 151.751 102.648C151.681 102.712 151.572 102.744 151.423 102.744H150.367L151.847 99.528L148.503 91.896H149.735C149.857 91.896 149.953 91.928 150.023 91.992C150.092 92.0507 150.143 92.1173 150.175 92.192L152.343 97.296C152.391 97.4133 152.431 97.5307 152.463 97.648C152.5 97.7653 152.532 97.8853 152.559 98.008C152.596 97.8853 152.633 97.7653 152.671 97.648C152.708 97.5307 152.751 97.4107 152.799 97.288L154.903 92.192C154.935 92.1067 154.988 92.0373 155.063 91.984C155.143 91.9253 155.228 91.896 155.319 91.896H156.455L151.935 102.392Z" fill="#282D32"/>
<path fill-rule="evenodd" clip-rule="evenodd" d="M182.761 59.8684C182.676 59.0868 183.089 59.001 183.306 59.0558C183.306 59.0558 186.894 60.58 194.06 60.7051C201.225 60.8302 205.168 59.1093 205.168 59.1093C205.386 59.0555 205.798 59.1434 205.709 59.9245C205.62 60.7057 205.485 62.9627 205.428 63.9935L209.552 64.0036C210.058 63.9867 210.994 64.2784 210.687 65.58C210.625 65.8447 210.533 66.2977 210.416 66.8792C209.81 69.8709 208.516 76.2654 206.967 77.9426C205.879 79.2422 204.412 79.8899 203.272 80.1583C202.322 80.4408 201.332 80.3912 200.989 80.3739C200.94 80.3714 200.904 80.3697 200.884 80.3695C200.122 81.5073 198.173 83.9659 196.478 84.6999C195.926 84.8991 195.93 85.0999 195.934 85.2577C195.934 85.2707 195.934 85.2832 195.934 85.2954C196.021 86.7606 196.389 90.039 197.167 91.43C197.27 91.6376 197.299 91.7956 197.319 91.9039C197.341 92.0224 197.352 92.0817 197.437 92.0819L198.468 92.0843C198.576 92.0845 198.837 92.0853 199.01 92.3028C199.102 92.419 199.265 92.4164 199.441 92.4135C199.678 92.4095 199.94 92.4053 200.094 92.6851C200.26 92.9849 200.225 93.3049 200.208 93.4698C200.204 93.5057 200.201 93.5342 200.201 93.5537L201.829 93.5577C202.028 93.5581 202.425 93.6567 202.424 94.0474L202.416 97.3032C202.416 97.3625 202.412 97.4109 202.408 97.4506C202.393 97.6286 202.393 97.6286 202.85 97.6298L204.26 97.6332C204.351 97.6336 204.532 97.6448 204.53 98.1223L204.527 99.5873C204.527 99.696 204.526 99.9129 204.038 99.9117L184.237 99.8633C183.749 99.8622 183.749 99.6451 183.75 99.5366L183.753 98.0716C183.754 97.594 183.935 97.5836 184.026 97.5838L185.437 97.5872C185.893 97.5884 185.893 97.5884 185.879 97.4102C185.875 97.3705 185.871 97.322 185.871 97.2628L185.879 94.007C185.88 93.6164 186.279 93.5197 186.477 93.5201L188.105 93.5241C188.105 93.5047 188.102 93.4762 188.099 93.4402C188.082 93.2753 188.049 92.955 188.216 92.6563C188.372 92.377 188.634 92.3826 188.87 92.3877C189.047 92.3913 189.209 92.3947 189.302 92.279C189.476 92.0623 189.737 92.0631 189.845 92.0633L190.876 92.0657C190.961 92.0661 190.972 92.0068 190.995 91.8885C191.015 91.7802 191.045 91.6224 191.149 91.4154C191.934 90.0282 192.318 86.7517 192.412 85.2868C192.412 85.2747 192.413 85.2621 192.413 85.2494V85.2492C192.417 85.0914 192.423 84.8906 191.871 84.6885C190.18 83.9464 188.243 81.4782 187.486 80.3369C187.466 80.3369 187.431 80.3384 187.382 80.3407H187.382H187.381H187.381C187.038 80.3562 186.048 80.4011 185.099 80.1141C183.961 79.84 182.497 79.1852 181.415 77.8803C179.874 76.1955 178.612 69.7948 178.021 66.8001C177.906 66.218 177.817 65.7646 177.755 65.4995C177.455 64.1965 178.392 63.9093 178.899 63.9287L183.023 63.9387C182.971 62.9076 182.846 60.65 182.761 59.8684ZM180.01 65.7428C179.375 65.7317 179.526 66.4734 179.641 67.0377C179.655 67.1111 179.67 67.1811 179.682 67.2465C179.785 67.8142 180.265 70.1547 181.527 73.92C182.79 77.6854 185.23 77.9593 186.293 77.6258C185.565 76.0534 184.031 71.0205 183.721 69.2793C183.412 67.538 183.028 65.7954 182.575 65.7876L180.01 65.7428ZM208.766 67.2619C208.891 66.6995 209.054 65.9606 208.42 65.9606H205.854C205.402 65.9606 204.987 67.6961 204.647 69.4316C204.307 71.1671 202.685 76.1725 201.93 77.7322C202.987 78.0841 205.432 77.8528 206.76 74.1101C208.088 70.3673 208.608 68.0357 208.722 67.4697C208.735 67.4047 208.75 67.3348 208.766 67.2619ZM197.881 73.0971L194.183 75.4249L190.5 73.0715L194.172 78.4256V78.4272L194.172 78.4264L194.173 78.4272V78.4256L197.881 73.0971ZM194.219 65.216V65.2125L194.218 65.2142L194.217 65.2125L194.217 65.2159L190.481 71.5994L194.187 73.9234L194.187 73.9245L194.188 73.924L194.189 73.9245V73.9234L197.91 71.6253L194.219 65.216Z" fill="#FFB636"/>
<path d="M205.556 59.2228C205.547 60.2646 200.506 61.0653 194.297 61.0111C188.088 60.9569 182.911 60.0658 182.92 59.0239C182.929 57.9821 188.121 57.1841 194.33 57.2383C200.539 57.2925 205.566 58.181 205.556 59.2228Z" fill="#FFD469"/>
<path d="M202.297 62.9366C202.852 62.9366 202.951 62.9366 203.957 62.5845C203.832 63.2539 203.176 68.327 202.951 69.1233C202.349 71.2508 201.669 74.5386 200.788 75.1741C200.621 75.2948 199.883 75.1741 199.608 74.9971C199.334 74.8201 200.285 72.9962 201.442 69.1233C202.096 64.9485 201.895 63.1378 202.297 62.9366Z" fill="#FFCC4E"/>
<path d="M232.317 57.5928C239.171 57.5928 244.728 63.2418 244.728 70.2102V77.4653C244.728 84.4336 239.171 90.0825 232.317 90.0825C231.241 90.0825 230.196 89.9433 229.2 89.6811V90.5376C229.2 95.6353 225.116 99.7774 220.047 99.8599L219.893 99.861V72.1028L219.907 72.1024L219.907 70.2102C219.907 63.2418 225.463 57.5928 232.317 57.5928ZM287.893 57.5928C294.751 57.5928 300.311 63.2741 300.311 70.2823V77.5789C300.311 84.587 294.751 90.2683 287.893 90.2683C281.035 90.2683 275.476 84.587 275.476 77.5789V70.2823C275.476 63.2741 281.035 57.5928 287.893 57.5928ZM260.102 56.9932C266.96 56.9932 272.519 62.6745 272.519 69.6827V76.9792C272.519 83.9874 266.96 89.6688 260.102 89.6688C253.244 89.6688 247.684 83.9874 247.684 76.9792V69.6827C247.684 62.6745 253.244 56.9932 260.102 56.9932ZM312.728 48V80.1917C312.728 85.3734 308.577 89.5837 303.424 89.6675L303.267 89.6688V57.4769C303.267 52.243 307.503 48 312.728 48ZM287.893 67.1099C286.179 67.1099 284.789 68.5303 284.789 70.2823V77.5789C284.789 79.3309 286.179 80.7511 287.893 80.7511C289.608 80.7511 290.998 79.3309 290.998 77.5789V70.2823C290.998 68.5303 289.608 67.1099 287.893 67.1099ZM232.317 67.0558C230.604 67.0558 229.215 68.468 229.215 70.2102V77.4653C229.215 79.2073 230.604 80.6195 232.317 80.6195C234.031 80.6195 235.42 79.2073 235.42 77.4653V70.2102C235.42 68.468 234.031 67.0558 232.317 67.0558ZM260.102 66.5104C258.387 66.5104 256.997 67.9306 256.997 69.6827V76.9792C256.997 78.7313 258.387 80.1517 260.102 80.1517C261.816 80.1517 263.206 78.7313 263.206 76.9792V69.6827C263.206 67.9306 261.816 66.5104 260.102 66.5104Z" fill="url(#paint0_linear)"/>
<path d="M277.975 98.3407H277.717C277.461 98.3407 277.235 98.1005 277.235 97.7263V95.9585H277.786C278.042 95.9585 278.237 95.7888 278.237 95.5476C278.237 95.4257 278.192 95.3172 278.109 95.2395C278.026 95.1624 277.912 95.1216 277.786 95.1216H277.235V94.1302C277.235 93.8596 277.033 93.659 276.761 93.659C276.488 93.659 276.286 93.8596 276.286 94.1302V95.1216H276.032C275.905 95.1216 275.791 95.1624 275.709 95.2395C275.625 95.3172 275.58 95.4257 275.58 95.5476C275.58 95.7888 275.776 95.9585 276.032 95.9585H276.286V97.7263C276.286 98.6067 276.898 99.283 277.717 99.283H277.854C278.149 99.283 278.397 99.0969 278.397 98.812C278.397 98.5537 278.222 98.3407 277.975 98.3407Z" fill="url(#paint1_linear)"/>
<path fill-rule="evenodd" clip-rule="evenodd" d="M283.699 97.1307V97.1302C283.692 95.8509 282.785 94.9407 281.517 94.9407C280.879 94.9407 280.33 95.1659 279.94 95.5555C279.551 95.9451 279.326 96.4938 279.326 97.1307C279.326 97.764 279.551 98.3107 279.94 98.6993C280.33 99.0879 280.879 99.3132 281.517 99.3132C282.151 99.3132 282.698 99.0877 283.086 98.6993C283.475 98.3107 283.699 97.764 283.699 97.1307ZM281.517 95.8076C281.887 95.8076 282.197 95.9449 282.416 96.1755C282.634 96.4067 282.766 96.7372 282.766 97.1307C282.766 97.5243 282.634 97.8525 282.416 98.0818C282.198 98.3107 281.887 98.4463 281.517 98.4463C281.146 98.4463 280.834 98.3105 280.613 98.0814C280.393 97.8521 280.26 97.5239 280.26 97.1307C280.26 96.3485 280.784 95.8076 281.517 95.8076Z" fill="url(#paint2_linear)"/>
<path fill-rule="evenodd" clip-rule="evenodd" d="M287.006 100.994C286.258 100.994 285.577 100.697 285.124 100.13C285.04 100.028 285.009 99.9081 285.029 99.7936C285.049 99.6798 285.119 99.5797 285.221 99.5105L285.222 99.51C285.449 99.3595 285.724 99.4273 285.873 99.6213C286.126 99.9419 286.514 100.127 287.021 100.127C287.361 100.127 287.671 100.003 287.897 99.7666C288.122 99.5307 288.27 99.1764 288.27 98.7063V98.6465C287.934 99.0665 287.446 99.3132 286.869 99.3132C286.274 99.3132 285.762 99.0862 285.4 98.6968C285.038 98.3078 284.83 97.7619 284.83 97.1307C284.83 96.4938 285.055 95.9451 285.444 95.5555C285.834 95.1659 286.382 94.9407 287.021 94.9407C288.289 94.9407 289.196 95.8509 289.204 97.1302V97.1307V98.7591C289.204 99.9977 288.307 100.994 287.006 100.994ZM287.021 98.4463C286.65 98.4463 286.338 98.3105 286.117 98.0814C285.897 97.8521 285.764 97.5239 285.764 97.1307C285.764 96.3485 286.288 95.8076 287.021 95.8076C287.391 95.8076 287.701 95.9449 287.92 96.1755C288.138 96.4067 288.27 96.7372 288.27 97.1307C288.27 97.5243 288.138 97.8525 287.92 98.0818C287.701 98.3107 287.391 98.4463 287.021 98.4463Z" fill="url(#paint3_linear)"/>
<path fill-rule="evenodd" clip-rule="evenodd" d="M294.012 98.2039C293.845 98.0673 293.599 98.0729 293.417 98.2087C293.227 98.3481 292.882 98.4763 292.593 98.4763C291.904 98.4763 291.396 98.0753 291.251 97.4888H294.02C294.144 97.4888 294.256 97.4476 294.337 97.3704C294.419 97.2929 294.464 97.1847 294.464 97.0629C294.464 96.4492 294.282 95.9181 293.939 95.5392C293.594 95.1591 293.095 94.9407 292.479 94.9407C291.855 94.9407 291.318 95.1663 290.936 95.5563C290.555 95.9459 290.334 96.4942 290.334 97.1307C290.334 97.765 290.567 98.312 290.969 98.7004C291.371 99.0885 291.937 99.3132 292.593 99.3132C293.075 99.3132 293.666 99.1187 294.026 98.8332C294.13 98.753 294.186 98.6427 294.182 98.5232C294.178 98.4054 294.116 98.2938 294.014 98.2054L294.012 98.2039ZM292.479 95.7774C292.798 95.7774 293.048 95.8841 293.23 96.0615C293.392 96.2188 293.504 96.4367 293.558 96.6973H291.259C291.324 96.4365 291.452 96.2196 291.634 96.0625C291.84 95.8841 292.123 95.7774 292.479 95.7774Z" fill="url(#paint4_linear)"/>
<path d="M297.505 98.3407H297.247C296.99 98.3407 296.765 98.1005 296.765 97.7263V95.9585H297.315C297.571 95.9585 297.767 95.7888 297.767 95.5476C297.767 95.4257 297.721 95.3172 297.638 95.2395C297.555 95.1624 297.442 95.1216 297.315 95.1216H296.765V94.1302C296.765 93.8596 296.563 93.659 296.29 93.659C296.018 93.659 295.816 93.8596 295.816 94.1302V95.1216H295.561C295.434 95.1216 295.321 95.1624 295.238 95.2395C295.155 95.3172 295.109 95.4257 295.109 95.5476C295.109 95.7888 295.305 95.9585 295.561 95.9585H295.816V97.7263C295.816 98.6067 296.427 99.283 297.247 99.283H297.383C297.678 99.283 297.926 99.0969 297.926 98.812C297.926 98.5537 297.751 98.3407 297.505 98.3407Z" fill="url(#paint5_linear)"/>
<path d="M301.229 94.9331C300.77 94.9331 300.354 95.0754 300.033 95.3238V93.6854C300.033 93.5498 299.984 93.429 299.897 93.3418C299.809 93.2546 299.687 93.2067 299.551 93.2067C299.414 93.2067 299.292 93.2546 299.204 93.3418C299.117 93.429 299.068 93.5498 299.068 93.6854V98.812C299.068 98.9476 299.117 99.0684 299.204 99.1556C299.292 99.2428 299.414 99.2906 299.551 99.2906C299.687 99.2906 299.809 99.2428 299.897 99.1556C299.984 99.0684 300.033 98.9476 300.033 98.812V96.6859C300.033 96.2014 300.469 95.8152 301.077 95.8152C301.405 95.8152 301.681 95.9064 301.874 96.0882C302.066 96.2688 302.189 96.5507 302.189 96.9574V98.812C302.189 99.0826 302.398 99.2906 302.671 99.2906C302.944 99.2906 303.153 99.0826 303.153 98.812V96.9574C303.153 96.3116 302.949 95.8035 302.601 95.4566C302.253 95.11 301.77 94.9331 301.229 94.9331Z" fill="url(#paint6_linear)"/>
<path fill-rule="evenodd" clip-rule="evenodd" d="M308.104 97.4888H305.335C305.48 98.0753 305.988 98.4763 306.677 98.4763C306.966 98.4763 307.311 98.3481 307.501 98.2085C307.683 98.0729 307.929 98.0673 308.096 98.2039L308.098 98.2054C308.2 98.2938 308.262 98.4054 308.266 98.5232C308.27 98.6427 308.214 98.753 308.11 98.8332C307.75 99.1187 307.159 99.3132 306.677 99.3132C306.021 99.3132 305.455 99.0885 305.053 98.7004C304.651 98.312 304.418 97.765 304.418 97.1307C304.418 96.4942 304.638 95.9459 305.02 95.5563C305.402 95.1663 305.939 94.9407 306.563 94.9407C307.179 94.9407 307.678 95.1591 308.023 95.5392C308.366 95.9181 308.548 96.4492 308.548 97.0629C308.548 97.1847 308.503 97.2929 308.421 97.3704C308.34 97.4476 308.228 97.4888 308.104 97.4888ZM306.563 95.7774C306.882 95.7774 307.132 95.8841 307.314 96.0615C307.476 96.2188 307.588 96.4367 307.642 96.6973H305.343C305.408 96.4365 305.536 96.2196 305.718 96.0625C305.924 95.8841 306.207 95.7774 306.563 95.7774Z" fill="url(#paint7_linear)"/>
<path d="M311.856 94.9255C311.404 94.9255 310.985 95.0896 310.671 95.362C310.659 95.2558 310.622 95.1633 310.552 95.0936C310.465 95.007 310.342 94.9709 310.201 94.9709C310.062 94.9709 309.94 95.0098 309.853 95.0964C309.766 95.1829 309.727 95.304 309.727 95.4419V98.8119C309.727 98.9529 309.766 99.0746 309.854 99.1608C309.941 99.2465 310.064 99.283 310.201 99.283C310.343 99.283 310.466 99.2442 310.552 99.1568C310.639 99.0699 310.676 98.9485 310.676 98.8119V96.6105C310.676 96.3029 310.836 96.0697 311.113 95.9303C311.394 95.789 311.798 95.7445 312.269 95.8357C312.381 95.8609 312.495 95.8594 312.594 95.811C312.696 95.761 312.767 95.6678 312.799 95.5401C312.821 95.4518 312.813 95.3641 312.773 95.2839C312.735 95.2051 312.669 95.1392 312.585 95.0869C312.419 94.9834 312.169 94.9255 311.856 94.9255Z" fill="url(#paint8_linear)"/>
<defs>
<linearGradient id="paint0_linear" x1="266.31" y1="48" x2="266.31" y2="99.861" gradientUnits="userSpaceOnUse">
<stop stop-color="#7E46F2"/>
<stop offset="1" stop-color="#46279A"/>
</linearGradient>
<linearGradient id="paint1_linear" x1="294.195" y1="93.2067" x2="294.195" y2="100.994" gradientUnits="userSpaceOnUse">
<stop stop-color="#7E46F2"/>
<stop offset="1" stop-color="#46279A"/>
</linearGradient>
<linearGradient id="paint2_linear" x1="294.195" y1="93.2067" x2="294.195" y2="100.994" gradientUnits="userSpaceOnUse">
<stop stop-color="#7E46F2"/>
<stop offset="1" stop-color="#46279A"/>
</linearGradient>
<linearGradient id="paint3_linear" x1="294.196" y1="93.2067" x2="294.196" y2="100.994" gradientUnits="userSpaceOnUse">
<stop stop-color="#7E46F2"/>
<stop offset="1" stop-color="#46279A"/>
</linearGradient>
<linearGradient id="paint4_linear" x1="294.196" y1="93.2067" x2="294.196" y2="100.994" gradientUnits="userSpaceOnUse">
<stop stop-color="#7E46F2"/>
<stop offset="1" stop-color="#46279A"/>
</linearGradient>
<linearGradient id="paint5_linear" x1="294.195" y1="93.2067" x2="294.195" y2="100.994" gradientUnits="userSpaceOnUse">
<stop stop-color="#7E46F2"/>
<stop offset="1" stop-color="#46279A"/>
</linearGradient>
<linearGradient id="paint6_linear" x1="294.196" y1="93.2067" x2="294.196" y2="100.994" gradientUnits="userSpaceOnUse">
<stop stop-color="#7E46F2"/>
<stop offset="1" stop-color="#46279A"/>
</linearGradient>
<linearGradient id="paint7_linear" x1="294.196" y1="93.2067" x2="294.196" y2="100.994" gradientUnits="userSpaceOnUse">
<stop stop-color="#7E46F2"/>
<stop offset="1" stop-color="#46279A"/>
</linearGradient>
<linearGradient id="paint8_linear" x1="294.196" y1="93.2067" x2="294.196" y2="100.994" gradientUnits="userSpaceOnUse">
<stop stop-color="#7E46F2"/>
<stop offset="1" stop-color="#46279A"/>
</linearGradient>
</defs>
</svg>
