<svg viewBox="0 0 1200 120" xmlns="http://www.w3.org/2000/svg">
<rect width="1200" height="120" fill="white"/>
<mask id="mask0" mask-type="alpha" maskUnits="userSpaceOnUse" x="0" y="0" width="1200" height="120">
<rect width="1200" height="120" fill="white"/>
</mask>
<g mask="url(#mask0)">
<g filter="url(#filter0_d)">
<ellipse cx="792.5" cy="60" rx="434.5" ry="252" fill="url(#paint0_linear)"/>
</g>
</g>
<path d="M477.225 72.545C478.59 72.545 479.775 72.425 480.78 72.185C481.8 71.93 482.768 71.585 483.683 71.15V65.2325H479.61C479.22 65.2325 478.913 65.1275 478.688 64.9175C478.463 64.6925 478.35 64.4225 478.35 64.1075V60.6875H489.173V73.85C488.348 74.45 487.485 74.975 486.585 75.425C485.7 75.86 484.748 76.22 483.728 76.505C482.723 76.79 481.643 77 480.488 77.135C479.333 77.285 478.088 77.36 476.753 77.36C474.383 77.36 472.2 76.9475 470.205 76.1225C468.21 75.2975 466.485 74.15 465.03 72.68C463.575 71.21 462.435 69.455 461.61 67.415C460.8 65.375 460.395 63.1475 460.395 60.7325C460.395 58.2875 460.793 56.045 461.588 54.005C462.383 51.965 463.508 50.21 464.963 48.74C466.433 47.27 468.21 46.13 470.295 45.32C472.38 44.51 474.72 44.105 477.315 44.105C479.97 44.105 482.265 44.5025 484.2 45.2975C486.15 46.0775 487.8 47.0975 489.15 48.3575L487.395 51.1025C487.05 51.6575 486.593 51.935 486.023 51.935C485.663 51.935 485.295 51.815 484.92 51.575C484.44 51.29 483.945 51.005 483.435 50.72C482.94 50.435 482.385 50.1875 481.77 49.9775C481.17 49.7675 480.488 49.595 479.723 49.46C478.973 49.325 478.103 49.2575 477.113 49.2575C475.508 49.2575 474.053 49.5275 472.748 50.0675C471.458 50.6075 470.355 51.38 469.44 52.385C468.525 53.39 467.82 54.5975 467.325 56.0075C466.83 57.4175 466.583 58.9925 466.583 60.7325C466.583 62.6075 466.845 64.28 467.37 65.75C467.895 67.205 468.63 68.435 469.575 69.44C470.52 70.445 471.645 71.2175 472.95 71.7575C474.255 72.2825 475.68 72.545 477.225 72.545ZM504.03 53.555C505.485 53.555 506.82 53.7875 508.035 54.2525C509.265 54.7175 510.322 55.4 511.207 56.3C512.092 57.185 512.782 58.28 513.277 59.585C513.772 60.875 514.02 62.3525 514.02 64.0175C514.02 64.4375 513.997 64.79 513.952 65.075C513.922 65.345 513.855 65.5625 513.75 65.7275C513.66 65.8775 513.532 65.99 513.367 66.065C513.202 66.125 512.992 66.155 512.737 66.155H498.472C498.637 68.525 499.275 70.265 500.385 71.375C501.495 72.485 502.965 73.04 504.795 73.04C505.695 73.04 506.467 72.935 507.112 72.725C507.772 72.515 508.342 72.2825 508.822 72.0275C509.317 71.7725 509.745 71.54 510.105 71.33C510.48 71.12 510.84 71.015 511.185 71.015C511.41 71.015 511.605 71.06 511.77 71.15C511.935 71.24 512.077 71.3675 512.197 71.5325L513.817 73.5575C513.202 74.2775 512.512 74.885 511.747 75.38C510.982 75.86 510.18 76.25 509.34 76.55C508.515 76.835 507.667 77.0375 506.797 77.1575C505.942 77.2775 505.11 77.3375 504.3 77.3375C502.695 77.3375 501.202 77.075 499.822 76.55C498.442 76.01 497.242 75.2225 496.222 74.1875C495.202 73.1375 494.4 71.8475 493.815 70.3175C493.23 68.7725 492.937 66.9875 492.937 64.9625C492.937 63.3875 493.192 61.91 493.702 60.53C494.212 59.135 494.94 57.9275 495.885 56.9075C496.845 55.8725 498.007 55.055 499.372 54.455C500.752 53.855 502.305 53.555 504.03 53.555ZM504.142 57.5375C502.522 57.5375 501.255 57.995 500.34 58.91C499.425 59.825 498.84 61.1225 498.585 62.8025H509.025C509.025 62.0825 508.927 61.4075 508.732 60.7775C508.537 60.1325 508.237 59.57 507.832 59.09C507.427 58.61 506.917 58.235 506.302 57.965C505.687 57.68 504.967 57.5375 504.142 57.5375ZM526.11 77.36C524.115 77.36 522.578 76.7975 521.498 75.6725C520.418 74.5325 519.878 72.965 519.878 70.97V58.0775H517.538C517.238 58.0775 516.975 57.98 516.75 57.785C516.54 57.59 516.435 57.2975 516.435 56.9075V54.7025L520.148 54.095L521.318 47.795C521.378 47.495 521.513 47.2625 521.723 47.0975C521.948 46.9325 522.225 46.85 522.555 46.85H525.435V54.1175H531.51V58.0775H525.435V70.5875C525.435 71.3075 525.615 71.87 525.975 72.275C526.335 72.68 526.815 72.8825 527.415 72.8825C527.76 72.8825 528.045 72.845 528.27 72.77C528.51 72.68 528.713 72.59 528.878 72.5C529.058 72.41 529.215 72.3275 529.35 72.2525C529.485 72.1625 529.62 72.1175 529.755 72.1175C529.92 72.1175 530.055 72.1625 530.16 72.2525C530.265 72.3275 530.378 72.4475 530.498 72.6125L532.163 75.3125C531.353 75.9875 530.423 76.4975 529.373 76.8425C528.323 77.1875 527.235 77.36 526.11 77.36ZM552.821 83.345C552.656 83.735 552.439 84.0275 552.169 84.2225C551.914 84.4325 551.516 84.5375 550.976 84.5375H546.836L551.156 75.29L541.819 53.915H546.679C547.129 53.915 547.474 54.02 547.714 54.23C547.954 54.44 548.134 54.68 548.254 54.95L553.181 66.92C553.346 67.31 553.489 67.715 553.609 68.135C553.729 68.555 553.834 68.975 553.924 69.395C554.044 68.96 554.171 68.54 554.306 68.135C554.456 67.73 554.614 67.3175 554.779 66.8975L559.414 54.95C559.534 54.65 559.729 54.4025 559.999 54.2075C560.284 54.0125 560.599 53.915 560.944 53.915H565.399L552.821 83.345ZM577.733 53.555C579.458 53.555 581.018 53.8325 582.413 54.3875C583.823 54.9425 585.023 55.73 586.013 56.75C587.003 57.77 587.768 59.015 588.308 60.485C588.848 61.955 589.118 63.5975 589.118 65.4125C589.118 67.2425 588.848 68.8925 588.308 70.3625C587.768 71.8325 587.003 73.085 586.013 74.12C585.023 75.155 583.823 75.95 582.413 76.505C581.018 77.06 579.458 77.3375 577.733 77.3375C576.008 77.3375 574.441 77.06 573.031 76.505C571.621 75.95 570.413 75.155 569.408 74.12C568.418 73.085 567.646 71.8325 567.091 70.3625C566.551 68.8925 566.281 67.2425 566.281 65.4125C566.281 63.5975 566.551 61.955 567.091 60.485C567.646 59.015 568.418 57.77 569.408 56.75C570.413 55.73 571.621 54.9425 573.031 54.3875C574.441 53.8325 576.008 53.555 577.733 53.555ZM577.733 73.0625C579.653 73.0625 581.071 72.4175 581.986 71.1275C582.916 69.8375 583.381 67.9475 583.381 65.4575C583.381 62.9675 582.916 61.07 581.986 59.765C581.071 58.46 579.653 57.8075 577.733 57.8075C575.783 57.8075 574.343 58.4675 573.413 59.7875C572.483 61.0925 572.018 62.9825 572.018 65.4575C572.018 67.9325 572.483 69.8225 573.413 71.1275C574.343 72.4175 575.783 73.0625 577.733 73.0625ZM598.539 53.915V68.585C598.539 69.995 598.862 71.09 599.507 71.87C600.167 72.635 601.149 73.0175 602.454 73.0175C603.414 73.0175 604.314 72.8075 605.154 72.3875C605.994 71.9525 606.789 71.36 607.539 70.61V53.915H613.097V77H609.699C608.979 77 608.507 76.6625 608.282 75.9875L607.899 74.1425C607.419 74.6225 606.924 75.065 606.414 75.47C605.904 75.86 605.357 76.1975 604.772 76.4825C604.202 76.7525 603.579 76.9625 602.904 77.1125C602.244 77.2775 601.532 77.36 600.767 77.36C599.507 77.36 598.389 77.15 597.414 76.73C596.454 76.295 595.644 75.6875 594.984 74.9075C594.324 74.1275 593.822 73.205 593.477 72.14C593.147 71.06 592.982 69.875 592.982 68.585V53.915H598.539ZM619.031 77V53.915H622.293C622.863 53.915 623.261 54.02 623.486 54.23C623.711 54.44 623.861 54.8 623.936 55.31L624.273 58.1C625.098 56.675 626.066 55.55 627.176 54.725C628.286 53.9 629.531 53.4875 630.911 53.4875C632.051 53.4875 632.996 53.75 633.746 54.275L633.026 58.4375C632.981 58.7075 632.883 58.9025 632.733 59.0225C632.583 59.1275 632.381 59.18 632.126 59.18C631.901 59.18 631.593 59.1275 631.203 59.0225C630.813 58.9175 630.296 58.865 629.651 58.865C628.496 58.865 627.506 59.1875 626.681 59.8325C625.856 60.4625 625.158 61.3925 624.588 62.6225V77H619.031ZM655.956 53.555C657.681 53.555 659.241 53.8325 660.636 54.3875C662.046 54.9425 663.246 55.73 664.236 56.75C665.226 57.77 665.991 59.015 666.531 60.485C667.071 61.955 667.341 63.5975 667.341 65.4125C667.341 67.2425 667.071 68.8925 666.531 70.3625C665.991 71.8325 665.226 73.085 664.236 74.12C663.246 75.155 662.046 75.95 660.636 76.505C659.241 77.06 657.681 77.3375 655.956 77.3375C654.231 77.3375 652.663 77.06 651.253 76.505C649.843 75.95 648.636 75.155 647.631 74.12C646.641 73.085 645.868 71.8325 645.313 70.3625C644.773 68.8925 644.503 67.2425 644.503 65.4125C644.503 63.5975 644.773 61.955 645.313 60.485C645.868 59.015 646.641 57.77 647.631 56.75C648.636 55.73 649.843 54.9425 651.253 54.3875C652.663 53.8325 654.231 53.555 655.956 53.555ZM655.956 73.0625C657.876 73.0625 659.293 72.4175 660.208 71.1275C661.138 69.8375 661.603 67.9475 661.603 65.4575C661.603 62.9675 661.138 61.07 660.208 59.765C659.293 58.46 657.876 57.8075 655.956 57.8075C654.006 57.8075 652.566 58.4675 651.636 59.7875C650.706 61.0925 650.241 62.9825 650.241 65.4575C650.241 67.9325 650.706 69.8225 651.636 71.1275C652.566 72.4175 654.006 73.0625 655.956 73.0625ZM668.865 53.915H673.275C673.695 53.915 674.047 54.0125 674.332 54.2075C674.617 54.4025 674.797 54.65 674.872 54.95L678.18 67.28C678.36 67.955 678.502 68.615 678.607 69.26C678.727 69.905 678.84 70.55 678.945 71.195C679.11 70.55 679.282 69.905 679.462 69.26C679.657 68.615 679.86 67.955 680.07 67.28L683.895 54.905C683.985 54.605 684.165 54.3575 684.435 54.1625C684.705 53.9675 685.02 53.87 685.38 53.87H687.832C688.237 53.87 688.575 53.9675 688.845 54.1625C689.115 54.3575 689.295 54.605 689.385 54.905L693.165 67.505C693.36 68.15 693.532 68.78 693.682 69.395C693.847 69.995 694.005 70.6025 694.155 71.2175C694.26 70.5725 694.372 69.9275 694.492 69.2825C694.627 68.6375 694.792 67.97 694.987 67.28L698.407 54.95C698.482 54.65 698.662 54.4025 698.947 54.2075C699.232 54.0125 699.562 53.915 699.937 53.915H704.145L696.832 77H692.355C691.875 77 691.53 76.67 691.32 76.01L687.157 62.6675C687.022 62.2325 686.895 61.7975 686.775 61.3625C686.67 60.9125 686.58 60.47 686.505 60.035C686.415 60.485 686.317 60.935 686.212 61.385C686.107 61.82 685.987 62.2625 685.852 62.7125L681.645 76.01C681.435 76.67 681.03 77 680.43 77H676.177L668.865 53.915ZM707.273 77V53.915H710.67C711.39 53.915 711.863 54.2525 712.088 54.9275L712.47 56.75C712.935 56.27 713.423 55.835 713.933 55.445C714.458 55.055 715.005 54.7175 715.575 54.4325C716.16 54.1475 716.783 53.93 717.443 53.78C718.103 53.63 718.823 53.555 719.603 53.555C720.863 53.555 721.98 53.7725 722.955 54.2075C723.93 54.6275 724.74 55.2275 725.385 56.0075C726.045 56.7725 726.54 57.695 726.87 58.775C727.215 59.84 727.388 61.0175 727.388 62.3075V77H721.83V62.3075C721.83 60.8975 721.5 59.81 720.84 59.045C720.195 58.265 719.22 57.875 717.915 57.875C716.955 57.875 716.055 58.0925 715.215 58.5275C714.375 58.9625 713.58 59.555 712.83 60.305V77H707.273ZM741.55 77V53.915H744.948C745.668 53.915 746.14 54.2525 746.365 54.9275L746.748 56.75C747.213 56.27 747.7 55.835 748.21 55.445C748.735 55.055 749.283 54.7175 749.853 54.4325C750.438 54.1475 751.06 53.93 751.72 53.78C752.38 53.63 753.1 53.555 753.88 53.555C755.14 53.555 756.258 53.7725 757.233 54.2075C758.208 54.6275 759.018 55.2275 759.663 56.0075C760.323 56.7725 760.818 57.695 761.148 58.775C761.493 59.84 761.665 61.0175 761.665 62.3075V77H756.108V62.3075C756.108 60.8975 755.778 59.81 755.118 59.045C754.473 58.265 753.498 57.875 752.193 57.875C751.233 57.875 750.333 58.0925 749.493 58.5275C748.653 58.9625 747.858 59.555 747.108 60.305V77H741.55ZM776.981 53.555C778.706 53.555 780.266 53.8325 781.661 54.3875C783.071 54.9425 784.271 55.73 785.261 56.75C786.251 57.77 787.016 59.015 787.556 60.485C788.096 61.955 788.366 63.5975 788.366 65.4125C788.366 67.2425 788.096 68.8925 787.556 70.3625C787.016 71.8325 786.251 73.085 785.261 74.12C784.271 75.155 783.071 75.95 781.661 76.505C780.266 77.06 778.706 77.3375 776.981 77.3375C775.256 77.3375 773.689 77.06 772.279 76.505C770.869 75.95 769.661 75.155 768.656 74.12C767.666 73.085 766.894 71.8325 766.339 70.3625C765.799 68.8925 765.529 67.2425 765.529 65.4125C765.529 63.5975 765.799 61.955 766.339 60.485C766.894 59.015 767.666 57.77 768.656 56.75C769.661 55.73 770.869 54.9425 772.279 54.3875C773.689 53.8325 775.256 53.555 776.981 53.555ZM776.981 73.0625C778.901 73.0625 780.319 72.4175 781.234 71.1275C782.164 69.8375 782.629 67.9475 782.629 65.4575C782.629 62.9675 782.164 61.07 781.234 59.765C780.319 58.46 778.901 57.8075 776.981 57.8075C775.031 57.8075 773.591 58.4675 772.661 59.7875C771.731 61.0925 771.266 62.9825 771.266 65.4575C771.266 67.9325 771.731 69.8225 772.661 71.1275C773.591 72.4175 775.031 73.0625 776.981 73.0625ZM808.947 77C808.227 77 807.755 76.6625 807.53 75.9875L807.08 73.76C806.6 74.3 806.097 74.7875 805.572 75.2225C805.047 75.6575 804.477 76.0325 803.862 76.3475C803.262 76.6625 802.61 76.9025 801.905 77.0675C801.215 77.2475 800.465 77.3375 799.655 77.3375C798.395 77.3375 797.24 77.075 796.19 76.55C795.14 76.025 794.232 75.2675 793.467 74.2775C792.717 73.2725 792.132 72.035 791.712 70.565C791.307 69.095 791.105 67.415 791.105 65.525C791.105 63.815 791.337 62.225 791.802 60.755C792.267 59.285 792.935 58.01 793.805 56.93C794.675 55.85 795.717 55.01 796.932 54.41C798.147 53.795 799.512 53.4875 801.027 53.4875C802.317 53.4875 803.42 53.6975 804.335 54.1175C805.25 54.5225 806.067 55.07 806.787 55.76V43.565H812.345V77H808.947ZM801.545 72.9275C802.7 72.9275 803.682 72.6875 804.492 72.2075C805.302 71.7275 806.067 71.045 806.787 70.16V59.81C806.157 59.045 805.467 58.505 804.717 58.19C803.982 57.875 803.187 57.7175 802.332 57.7175C801.492 57.7175 800.727 57.875 800.037 58.19C799.362 58.505 798.785 58.985 798.305 59.63C797.84 60.26 797.48 61.07 797.225 62.06C796.97 63.035 796.842 64.19 796.842 65.525C796.842 66.875 796.947 68.0225 797.157 68.9675C797.382 69.8975 797.697 70.6625 798.102 71.2625C798.507 71.8475 799.002 72.275 799.587 72.545C800.172 72.8 800.825 72.9275 801.545 72.9275ZM827.906 53.555C829.361 53.555 830.696 53.7875 831.911 54.2525C833.141 54.7175 834.199 55.4 835.084 56.3C835.969 57.185 836.659 58.28 837.154 59.585C837.649 60.875 837.896 62.3525 837.896 64.0175C837.896 64.4375 837.874 64.79 837.829 65.075C837.799 65.345 837.731 65.5625 837.626 65.7275C837.536 65.8775 837.409 65.99 837.244 66.065C837.079 66.125 836.869 66.155 836.614 66.155H822.349C822.514 68.525 823.151 70.265 824.261 71.375C825.371 72.485 826.841 73.04 828.671 73.04C829.571 73.04 830.344 72.935 830.989 72.725C831.649 72.515 832.219 72.2825 832.699 72.0275C833.194 71.7725 833.621 71.54 833.981 71.33C834.356 71.12 834.716 71.015 835.061 71.015C835.286 71.015 835.481 71.06 835.646 71.15C835.811 71.24 835.954 71.3675 836.074 71.5325L837.694 73.5575C837.079 74.2775 836.389 74.885 835.624 75.38C834.859 75.86 834.056 76.25 833.216 76.55C832.391 76.835 831.544 77.0375 830.674 77.1575C829.819 77.2775 828.986 77.3375 828.176 77.3375C826.571 77.3375 825.079 77.075 823.699 76.55C822.319 76.01 821.119 75.2225 820.099 74.1875C819.079 73.1375 818.276 71.8475 817.691 70.3175C817.106 68.7725 816.814 66.9875 816.814 64.9625C816.814 63.3875 817.069 61.91 817.579 60.53C818.089 59.135 818.816 57.9275 819.761 56.9075C820.721 55.8725 821.884 55.055 823.249 54.455C824.629 53.855 826.181 53.555 827.906 53.555ZM828.019 57.5375C826.399 57.5375 825.131 57.995 824.216 58.91C823.301 59.825 822.716 61.1225 822.461 62.8025H832.901C832.901 62.0825 832.804 61.4075 832.609 60.7775C832.414 60.1325 832.114 59.57 831.709 59.09C831.304 58.61 830.794 58.235 830.179 57.965C829.564 57.68 828.844 57.5375 828.019 57.5375ZM858.688 77.36C856.693 77.36 855.156 76.7975 854.076 75.6725C852.996 74.5325 852.456 72.965 852.456 70.97V58.0775H850.116C849.816 58.0775 849.553 57.98 849.328 57.785C849.118 57.59 849.013 57.2975 849.013 56.9075V54.7025L852.726 54.095L853.896 47.795C853.956 47.495 854.091 47.2625 854.301 47.0975C854.526 46.9325 854.803 46.85 855.133 46.85H858.013V54.1175H864.088V58.0775H858.013V70.5875C858.013 71.3075 858.193 71.87 858.553 72.275C858.913 72.68 859.393 72.8825 859.993 72.8825C860.338 72.8825 860.623 72.845 860.848 72.77C861.088 72.68 861.291 72.59 861.456 72.5C861.636 72.41 861.793 72.3275 861.928 72.2525C862.063 72.1625 862.198 72.1175 862.333 72.1175C862.498 72.1175 862.633 72.1625 862.738 72.2525C862.843 72.3275 862.956 72.4475 863.076 72.6125L864.741 75.3125C863.931 75.9875 863.001 76.4975 861.951 76.8425C860.901 77.1875 859.813 77.36 858.688 77.36ZM878.363 53.555C880.088 53.555 881.648 53.8325 883.043 54.3875C884.453 54.9425 885.653 55.73 886.643 56.75C887.633 57.77 888.398 59.015 888.938 60.485C889.478 61.955 889.748 63.5975 889.748 65.4125C889.748 67.2425 889.478 68.8925 888.938 70.3625C888.398 71.8325 887.633 73.085 886.643 74.12C885.653 75.155 884.453 75.95 883.043 76.505C881.648 77.06 880.088 77.3375 878.363 77.3375C876.638 77.3375 875.071 77.06 873.661 76.505C872.251 75.95 871.043 75.155 870.038 74.12C869.048 73.085 868.276 71.8325 867.721 70.3625C867.181 68.8925 866.911 67.2425 866.911 65.4125C866.911 63.5975 867.181 61.955 867.721 60.485C868.276 59.015 869.048 57.77 870.038 56.75C871.043 55.73 872.251 54.9425 873.661 54.3875C875.071 53.8325 876.638 53.555 878.363 53.555ZM878.363 73.0625C880.283 73.0625 881.701 72.4175 882.616 71.1275C883.546 69.8375 884.011 67.9475 884.011 65.4575C884.011 62.9675 883.546 61.07 882.616 59.765C881.701 58.46 880.283 57.8075 878.363 57.8075C876.413 57.8075 874.973 58.4675 874.043 59.7875C873.113 61.0925 872.648 62.9825 872.648 65.4575C872.648 67.9325 873.113 69.8225 874.043 71.1275C874.973 72.4175 876.413 73.0625 878.363 73.0625ZM910.329 77C909.609 77 909.137 76.6625 908.912 75.9875L908.462 73.76C907.982 74.3 907.479 74.7875 906.954 75.2225C906.429 75.6575 905.859 76.0325 905.244 76.3475C904.644 76.6625 903.992 76.9025 903.287 77.0675C902.597 77.2475 901.847 77.3375 901.037 77.3375C899.777 77.3375 898.622 77.075 897.572 76.55C896.522 76.025 895.614 75.2675 894.849 74.2775C894.099 73.2725 893.514 72.035 893.094 70.565C892.689 69.095 892.487 67.415 892.487 65.525C892.487 63.815 892.719 62.225 893.184 60.755C893.649 59.285 894.317 58.01 895.187 56.93C896.057 55.85 897.099 55.01 898.314 54.41C899.529 53.795 900.894 53.4875 902.409 53.4875C903.699 53.4875 904.802 53.6975 905.717 54.1175C906.632 54.5225 907.449 55.07 908.169 55.76V43.565H913.727V77H910.329ZM902.927 72.9275C904.082 72.9275 905.064 72.6875 905.874 72.2075C906.684 71.7275 907.449 71.045 908.169 70.16V59.81C907.539 59.045 906.849 58.505 906.099 58.19C905.364 57.875 904.569 57.7175 903.714 57.7175C902.874 57.7175 902.109 57.875 901.419 58.19C900.744 58.505 900.167 58.985 899.687 59.63C899.222 60.26 898.862 61.07 898.607 62.06C898.352 63.035 898.224 64.19 898.224 65.525C898.224 66.875 898.329 68.0225 898.539 68.9675C898.764 69.8975 899.079 70.6625 899.484 71.2625C899.889 71.8475 900.384 72.275 900.969 72.545C901.554 72.8 902.207 72.9275 902.927 72.9275ZM937.838 77H935.341C934.816 77 934.403 76.925 934.103 76.775C933.803 76.61 933.578 76.2875 933.428 75.8075L932.933 74.165C932.348 74.69 931.771 75.155 931.201 75.56C930.646 75.95 930.068 76.28 929.468 76.55C928.868 76.82 928.231 77.0225 927.556 77.1575C926.881 77.2925 926.131 77.36 925.306 77.36C924.331 77.36 923.431 77.2325 922.606 76.9775C921.781 76.7075 921.068 76.31 920.468 75.785C919.883 75.26 919.426 74.6075 919.096 73.8275C918.766 73.0475 918.601 72.14 918.601 71.105C918.601 70.235 918.826 69.38 919.276 68.54C919.741 67.685 920.506 66.92 921.571 66.245C922.636 65.555 924.053 64.985 925.823 64.535C927.593 64.085 929.791 63.83 932.416 63.77V62.42C932.416 60.875 932.086 59.735 931.426 59C930.781 58.25 929.836 57.875 928.591 57.875C927.691 57.875 926.941 57.98 926.341 58.19C925.741 58.4 925.216 58.64 924.766 58.91C924.331 59.165 923.926 59.3975 923.551 59.6075C923.176 59.8175 922.763 59.9225 922.313 59.9225C921.938 59.9225 921.616 59.825 921.346 59.63C921.076 59.435 920.858 59.195 920.693 58.91L919.681 57.1325C922.336 54.7025 925.538 53.4875 929.288 53.4875C930.638 53.4875 931.838 53.7125 932.888 54.1625C933.953 54.5975 934.853 55.2125 935.588 56.0075C936.323 56.7875 936.878 57.725 937.253 58.82C937.643 59.915 937.838 61.115 937.838 62.42V77ZM927.038 73.535C927.608 73.535 928.133 73.4825 928.613 73.3775C929.093 73.2725 929.543 73.115 929.963 72.905C930.398 72.695 930.811 72.44 931.201 72.14C931.606 71.825 932.011 71.4575 932.416 71.0375V67.145C930.796 67.22 929.438 67.3625 928.343 67.5725C927.263 67.7675 926.393 68.0225 925.733 68.3375C925.073 68.6525 924.601 69.02 924.316 69.44C924.046 69.86 923.911 70.3175 923.911 70.8125C923.911 71.7875 924.196 72.485 924.766 72.905C925.351 73.325 926.108 73.535 927.038 73.535ZM950.702 83.345C950.537 83.735 950.319 84.0275 950.049 84.2225C949.794 84.4325 949.397 84.5375 948.857 84.5375H944.717L949.037 75.29L939.699 53.915H944.559C945.009 53.915 945.354 54.02 945.594 54.23C945.834 54.44 946.014 54.68 946.134 54.95L951.062 66.92C951.227 67.31 951.369 67.715 951.489 68.135C951.609 68.555 951.714 68.975 951.804 69.395C951.924 68.96 952.052 68.54 952.187 68.135C952.337 67.73 952.494 67.3175 952.659 66.8975L957.294 54.95C957.414 54.65 957.609 54.4025 957.879 54.2075C958.164 54.0125 958.479 53.915 958.824 53.915H963.279L950.702 83.345Z" fill="white"/>
<path d="M147.474 71.4615C150.654 69.1078 152.754 65.3229 152.754 61.029C152.754 53.8726 146.965 48.0838 139.808 48.0838C132.652 48.0838 126.863 53.8726 126.863 61.029C126.863 68.1854 132.652 73.9742 139.808 73.9742C141.24 73.9742 142.607 73.7516 143.88 73.3063L148.492 78.3317H153.899L147.474 71.4615ZM131.698 61.029C131.698 56.1308 135.324 52.1869 139.777 52.1869C144.23 52.1869 147.855 56.1626 147.855 61.029C147.855 65.9272 144.23 69.8712 139.777 69.8712C135.324 69.8712 131.698 65.9272 131.698 61.029Z" fill="#00C4C4"/>
<path d="M167.892 55.6219V65.4501V66.5951V68.5035H167.924C167.447 69.6803 166.047 70.5073 164.394 70.5073C162.358 70.5073 160.672 69.2032 160.672 67.5811V63.7962V55.6537H156.633V68.5035C156.633 68.5671 156.633 68.6625 156.633 68.7261C156.633 71.6523 159.464 74.006 162.93 74.006C165.284 74.006 167.352 72.8928 168.433 71.2707V73.1472H171.486V68.4717V60.2657V55.5901H167.892V55.6219Z" fill="#00C4C4"/>
<path d="M181.92 55.6219H177.689V73.9742H181.92V55.6219Z" fill="#00C4C4"/>
<path d="M179.821 53.7454C181.507 53.7454 182.874 52.3783 182.874 50.6919C182.874 49.0056 181.507 47.6385 179.821 47.6385C178.135 47.6385 176.768 49.0056 176.768 50.6919C176.768 52.3783 178.135 53.7454 179.821 53.7454Z" fill="#00C4C4"/>
<path d="M197.282 63.4145L203.771 55.6219H199.318L195.278 60.4565L193.593 62.4921H192.066V62.4603V55.7491V47.6385H187.836V56.099L187.74 56.1626L187.836 56.2581V73.9742H192.066V65.132H192.511H193.879L194.769 66.4361L199.922 73.9742H204.502L197.282 63.4145Z" fill="#00C4C4"/>
<path d="M224.955 47.8612V65.9272L212.328 49.4197L211.119 47.8612H208.098V51.2327V74.1968H212.328V56.6715L224.955 72.861L226.005 74.1968H229.185V47.8612H224.955Z" fill="#00C4C4"/>
<path d="M242.448 55.6219C237.582 55.6219 233.67 59.725 233.67 64.814C233.67 69.903 237.614 74.006 242.448 74.006C247.315 74.006 251.227 69.903 251.227 64.814C251.227 59.725 247.283 55.6219 242.448 55.6219ZM242.448 70.5709C239.872 70.5709 237.773 67.9628 237.773 64.7822C237.773 61.6015 239.872 58.9934 242.448 58.9934C245.025 58.9934 247.124 61.6015 247.124 64.7822C247.124 67.9628 245.025 70.5709 242.448 70.5709Z" fill="#00C4C4"/>
<path d="M266.238 47.8612V57.1804C264.966 55.9082 263.344 55.1448 261.594 55.1448C257.459 55.1448 254.088 59.3751 254.088 64.5595C254.088 69.7439 257.459 73.9742 261.594 73.9742C263.344 73.9742 264.966 73.2108 266.238 71.9386V73.9742H270.468V47.8612H266.238ZM262.962 70.5709C260.64 70.5709 258.763 67.9628 258.763 64.7822C258.763 61.6015 260.64 58.9934 262.962 58.9934C264.298 58.9934 265.475 59.8522 266.238 61.1562V68.4081C265.443 69.7439 264.266 70.5709 262.962 70.5709Z" fill="#00C4C4"/>
<path d="M284.528 70.5709C281.41 70.5709 278.866 68.2172 278.453 65.1638H286.849C288.249 65.1638 289.68 65.1638 291.08 65.132C291.143 64.9094 291.366 63.9552 291.302 62.7147C291.302 62.4603 291.143 60.2656 289.839 58.4845C288.09 56.0672 284.623 54.8904 281.601 55.6219C277.53 56.5761 275.145 60.7428 275.081 64.4641C275.017 68.8852 278.198 72.861 281.888 73.7515C283.732 74.1968 285.482 73.8152 286.372 73.5289C288.821 72.7655 290.284 71.1752 290.793 70.5073L288.917 68.5989C287.835 69.8394 286.277 70.5709 284.528 70.5709ZM283.192 58.4527C285.513 58.4527 287.422 60.0112 287.422 61.9514C287.422 62.0786 287.422 62.2058 287.39 62.3331H278.993C278.961 62.2058 278.961 62.0786 278.961 61.9514C278.993 60.0112 280.87 58.4527 283.192 58.4527Z" fill="#00C4C4"/>
<path d="M90.5718 77.8545C80.2347 77.8545 71.8697 69.4895 71.8697 59.1524C71.8697 48.8154 80.2347 40.4503 90.5718 40.4503C104.153 40.4503 113.027 54.3815 107.779 66.5633L95.8198 62.6511L112.709 79.5403C117.671 74.165 120.692 67.0086 120.692 59.1206C120.692 42.4859 107.207 29 90.5718 29C73.9371 29 60.4512 42.4859 60.4512 59.1206C60.4512 75.7553 73.9371 89.2412 90.5718 89.2412C96.3923 89.2412 101.799 87.5873 106.411 84.7565L119.802 90.1L102.913 73.179C99.6048 76.0734 95.2791 77.8545 90.5718 77.8545Z" fill="#1DB9DE"/>
<defs>
<filter id="filter0_d" x="342" y="-199" width="889" height="524" filterUnits="userSpaceOnUse" color-interpolation-filters="sRGB">
<feFlood flood-opacity="0" result="BackgroundImageFix"/>
<feColorMatrix in="SourceAlpha" type="matrix" values="0 0 0 0 0 0 0 0 0 0 0 0 0 0 0 0 0 0 127 0"/>
<feOffset dx="-6" dy="3"/>
<feGaussianBlur stdDeviation="5"/>
<feColorMatrix type="matrix" values="0 0 0 0 0.733333 0 0 0 0 0.733333 0 0 0 0 0.733333 0 0 0 0.5 0"/>
<feBlend mode="normal" in2="BackgroundImageFix" result="effect1_dropShadow"/>
<feBlend mode="normal" in="SourceGraphic" in2="effect1_dropShadow" result="shape"/>
</filter>
<linearGradient id="paint0_linear" x1="358" y1="60" x2="1348.5" y2="60" gradientUnits="userSpaceOnUse">
<stop stop-color="#00C4C4"/>
<stop offset="0.497042" stop-color="#1BBAD9"/>
<stop offset="1" stop-color="#23B4F1"/>
</linearGradient>
</defs>
</svg>
