<svg width="345" height="150" viewBox="0 0 345 150" fill="none" xmlns="http://www.w3.org/2000/svg">
<rect width="345" height="150" rx="3" fill="white"/>
<path d="M38.72 56.624C39.448 56.624 40.08 56.56 40.616 56.432C41.16 56.296 41.676 56.112 42.164 55.88V52.724H39.992C39.784 52.724 39.62 52.668 39.5 52.556C39.38 52.436 39.32 52.292 39.32 52.124V50.3H45.092V57.32C44.652 57.64 44.192 57.92 43.712 58.16C43.24 58.392 42.732 58.584 42.188 58.736C41.652 58.888 41.076 59 40.46 59.072C39.844 59.152 39.18 59.192 38.468 59.192C37.204 59.192 36.04 58.972 34.976 58.532C33.912 58.092 32.992 57.48 32.216 56.696C31.44 55.912 30.832 54.976 30.392 53.888C29.96 52.8 29.744 51.612 29.744 50.324C29.744 49.02 29.956 47.824 30.38 46.736C30.804 45.648 31.404 44.712 32.18 43.928C32.964 43.144 33.912 42.536 35.024 42.104C36.136 41.672 37.384 41.456 38.768 41.456C40.184 41.456 41.408 41.668 42.44 42.092C43.48 42.508 44.36 43.052 45.08 43.724L44.144 45.188C43.96 45.484 43.716 45.632 43.412 45.632C43.22 45.632 43.024 45.568 42.824 45.44C42.568 45.288 42.304 45.136 42.032 44.984C41.768 44.832 41.472 44.7 41.144 44.588C40.824 44.476 40.46 44.384 40.052 44.312C39.652 44.24 39.188 44.204 38.66 44.204C37.804 44.204 37.028 44.348 36.332 44.636C35.644 44.924 35.056 45.336 34.568 45.872C34.08 46.408 33.704 47.052 33.44 47.804C33.176 48.556 33.044 49.396 33.044 50.324C33.044 51.324 33.184 52.216 33.464 53C33.744 53.776 34.136 54.432 34.64 54.968C35.144 55.504 35.744 55.916 36.44 56.204C37.136 56.484 37.896 56.624 38.72 56.624ZM53.0158 46.496C53.7918 46.496 54.5038 46.62 55.1518 46.868C55.8078 47.116 56.3718 47.48 56.8438 47.96C57.3158 48.432 57.6838 49.016 57.9478 49.712C58.2118 50.4 58.3438 51.188 58.3438 52.076C58.3438 52.3 58.3318 52.488 58.3078 52.64C58.2918 52.784 58.2558 52.9 58.1998 52.988C58.1518 53.068 58.0838 53.128 57.9958 53.168C57.9078 53.2 57.7958 53.216 57.6598 53.216H50.0518C50.1398 54.48 50.4798 55.408 51.0718 56C51.6638 56.592 52.4478 56.888 53.4238 56.888C53.9038 56.888 54.3158 56.832 54.6598 56.72C55.0118 56.608 55.3158 56.484 55.5718 56.348C55.8358 56.212 56.0638 56.088 56.2558 55.976C56.4558 55.864 56.6478 55.808 56.8318 55.808C56.9518 55.808 57.0558 55.832 57.1438 55.88C57.2318 55.928 57.3078 55.996 57.3718 56.084L58.2358 57.164C57.9078 57.548 57.5398 57.872 57.1318 58.136C56.7238 58.392 56.2958 58.6 55.8478 58.76C55.4078 58.912 54.9558 59.02 54.4918 59.084C54.0358 59.148 53.5918 59.18 53.1598 59.18C52.3038 59.18 51.5078 59.04 50.7718 58.76C50.0358 58.472 49.3958 58.052 48.8518 57.5C48.3078 56.94 47.8798 56.252 47.5678 55.436C47.2558 54.612 47.0998 53.66 47.0998 52.58C47.0998 51.74 47.2358 50.952 47.5078 50.216C47.7798 49.472 48.1678 48.828 48.6718 48.284C49.1838 47.732 49.8038 47.296 50.5318 46.976C51.2678 46.656 52.0958 46.496 53.0158 46.496ZM53.0758 48.62C52.2118 48.62 51.5358 48.864 51.0478 49.352C50.5598 49.84 50.2478 50.532 50.1118 51.428H55.6798C55.6798 51.044 55.6278 50.684 55.5238 50.348C55.4198 50.004 55.2598 49.704 55.0438 49.448C54.8278 49.192 54.5558 48.992 54.2278 48.848C53.8998 48.696 53.5158 48.62 53.0758 48.62ZM64.7921 59.192C63.7281 59.192 62.9081 58.892 62.3321 58.292C61.7561 57.684 61.4681 56.848 61.4681 55.784V48.908H60.2201C60.0601 48.908 59.9201 48.856 59.8001 48.752C59.6881 48.648 59.6321 48.492 59.6321 48.284V47.108L61.6121 46.784L62.2361 43.424C62.2681 43.264 62.3401 43.14 62.4521 43.052C62.5721 42.964 62.7201 42.92 62.8961 42.92H64.4321V46.796H67.6721V48.908H64.4321V55.58C64.4321 55.964 64.5281 56.264 64.7201 56.48C64.9121 56.696 65.1681 56.804 65.4881 56.804C65.6721 56.804 65.8241 56.784 65.9441 56.744C66.0721 56.696 66.1801 56.648 66.2681 56.6C66.3641 56.552 66.4481 56.508 66.5201 56.468C66.5921 56.42 66.6641 56.396 66.7361 56.396C66.8241 56.396 66.8961 56.42 66.9521 56.468C67.0081 56.508 67.0681 56.572 67.1321 56.66L68.0201 58.1C67.5881 58.46 67.0921 58.732 66.5321 58.916C65.9721 59.1 65.3921 59.192 64.7921 59.192ZM79.0379 62.384C78.9499 62.592 78.8339 62.748 78.6899 62.852C78.5539 62.964 78.3419 63.02 78.0539 63.02H75.8459L78.1499 58.088L73.1699 46.688H75.7619C76.0019 46.688 76.1859 46.744 76.3139 46.856C76.4419 46.968 76.5379 47.096 76.6019 47.24L79.2299 53.624C79.3179 53.832 79.3939 54.048 79.4579 54.272C79.5219 54.496 79.5779 54.72 79.6259 54.944C79.6899 54.712 79.7579 54.488 79.8299 54.272C79.9099 54.056 79.9939 53.836 80.0819 53.612L82.5539 47.24C82.6179 47.08 82.7219 46.948 82.8659 46.844C83.0179 46.74 83.1859 46.688 83.3699 46.688H85.7459L79.0379 62.384ZM92.3244 46.496C93.2444 46.496 94.0764 46.644 94.8204 46.94C95.5724 47.236 96.2124 47.656 96.7404 48.2C97.2684 48.744 97.6764 49.408 97.9644 50.192C98.2524 50.976 98.3964 51.852 98.3964 52.82C98.3964 53.796 98.2524 54.676 97.9644 55.46C97.6764 56.244 97.2684 56.912 96.7404 57.464C96.2124 58.016 95.5724 58.44 94.8204 58.736C94.0764 59.032 93.2444 59.18 92.3244 59.18C91.4044 59.18 90.5684 59.032 89.8164 58.736C89.0644 58.44 88.4204 58.016 87.8844 57.464C87.3564 56.912 86.9444 56.244 86.6484 55.46C86.3604 54.676 86.2164 53.796 86.2164 52.82C86.2164 51.852 86.3604 50.976 86.6484 50.192C86.9444 49.408 87.3564 48.744 87.8844 48.2C88.4204 47.656 89.0644 47.236 89.8164 46.94C90.5684 46.644 91.4044 46.496 92.3244 46.496ZM92.3244 56.9C93.3484 56.9 94.1044 56.556 94.5924 55.868C95.0884 55.18 95.3364 54.172 95.3364 52.844C95.3364 51.516 95.0884 50.504 94.5924 49.808C94.1044 49.112 93.3484 48.764 92.3244 48.764C91.2844 48.764 90.5164 49.116 90.0204 49.82C89.5244 50.516 89.2764 51.524 89.2764 52.844C89.2764 54.164 89.5244 55.172 90.0204 55.868C90.5164 56.556 91.2844 56.9 92.3244 56.9ZM103.421 46.688V54.512C103.421 55.264 103.593 55.848 103.937 56.264C104.289 56.672 104.813 56.876 105.509 56.876C106.021 56.876 106.501 56.764 106.949 56.54C107.397 56.308 107.821 55.992 108.221 55.592V46.688H111.185V59H109.373C108.989 59 108.737 58.82 108.617 58.46L108.413 57.476C108.157 57.732 107.893 57.968 107.621 58.184C107.349 58.392 107.057 58.572 106.745 58.724C106.441 58.868 106.109 58.98 105.749 59.06C105.397 59.148 105.017 59.192 104.609 59.192C103.937 59.192 103.341 59.08 102.821 58.856C102.309 58.624 101.877 58.3 101.525 57.884C101.173 57.468 100.905 56.976 100.721 56.408C100.545 55.832 100.457 55.2 100.457 54.512V46.688H103.421ZM114.35 59V46.688H116.09C116.394 46.688 116.606 46.744 116.726 46.856C116.846 46.968 116.926 47.16 116.966 47.432L117.146 48.92C117.586 48.16 118.102 47.56 118.694 47.12C119.286 46.68 119.95 46.46 120.686 46.46C121.294 46.46 121.798 46.6 122.198 46.88L121.814 49.1C121.79 49.244 121.738 49.348 121.658 49.412C121.578 49.468 121.47 49.496 121.334 49.496C121.214 49.496 121.05 49.468 120.842 49.412C120.634 49.356 120.358 49.328 120.014 49.328C119.398 49.328 118.87 49.5 118.43 49.844C117.99 50.18 117.618 50.676 117.314 51.332V59H114.35ZM35.84 75.496C36.76 75.496 37.592 75.644 38.336 75.94C39.088 76.236 39.728 76.656 40.256 77.2C40.784 77.744 41.192 78.408 41.48 79.192C41.768 79.976 41.912 80.852 41.912 81.82C41.912 82.796 41.768 83.676 41.48 84.46C41.192 85.244 40.784 85.912 40.256 86.464C39.728 87.016 39.088 87.44 38.336 87.736C37.592 88.032 36.76 88.18 35.84 88.18C34.92 88.18 34.084 88.032 33.332 87.736C32.58 87.44 31.936 87.016 31.4 86.464C30.872 85.912 30.46 85.244 30.164 84.46C29.876 83.676 29.732 82.796 29.732 81.82C29.732 80.852 29.876 79.976 30.164 79.192C30.46 78.408 30.872 77.744 31.4 77.2C31.936 76.656 32.58 76.236 33.332 75.94C34.084 75.644 34.92 75.496 35.84 75.496ZM35.84 85.9C36.864 85.9 37.62 85.556 38.108 84.868C38.604 84.18 38.852 83.172 38.852 81.844C38.852 80.516 38.604 79.504 38.108 78.808C37.62 78.112 36.864 77.764 35.84 77.764C34.8 77.764 34.032 78.116 33.536 78.82C33.04 79.516 32.792 80.524 32.792 81.844C32.792 83.164 33.04 84.172 33.536 84.868C34.032 85.556 34.8 85.9 35.84 85.9ZM42.7246 75.688H45.0766C45.3006 75.688 45.4886 75.74 45.6406 75.844C45.7926 75.948 45.8886 76.08 45.9286 76.24L47.6926 82.816C47.7886 83.176 47.8646 83.528 47.9206 83.872C47.9846 84.216 48.0446 84.56 48.1006 84.904C48.1886 84.56 48.2806 84.216 48.3766 83.872C48.4806 83.528 48.5886 83.176 48.7006 82.816L50.7406 76.216C50.7886 76.056 50.8846 75.924 51.0286 75.82C51.1726 75.716 51.3406 75.664 51.5326 75.664H52.8406C53.0566 75.664 53.2366 75.716 53.3806 75.82C53.5246 75.924 53.6206 76.056 53.6686 76.216L55.6846 82.936C55.7886 83.28 55.8806 83.616 55.9606 83.944C56.0486 84.264 56.1326 84.588 56.2126 84.916C56.2686 84.572 56.3286 84.228 56.3926 83.884C56.4646 83.54 56.5526 83.184 56.6566 82.816L58.4806 76.24C58.5206 76.08 58.6166 75.948 58.7686 75.844C58.9206 75.74 59.0966 75.688 59.2966 75.688H61.5406L57.6406 88H55.2526C54.9966 88 54.8126 87.824 54.7006 87.472L52.4806 80.356C52.4086 80.124 52.3406 79.892 52.2766 79.66C52.2206 79.42 52.1726 79.184 52.1326 78.952C52.0846 79.192 52.0326 79.432 51.9766 79.672C51.9206 79.904 51.8566 80.14 51.7846 80.38L49.5406 87.472C49.4286 87.824 49.2126 88 48.8926 88H46.6246L42.7246 75.688ZM63.209 88V75.688H65.021C65.405 75.688 65.657 75.868 65.777 76.228L65.981 77.2C66.229 76.944 66.489 76.712 66.761 76.504C67.041 76.296 67.333 76.116 67.637 75.964C67.949 75.812 68.281 75.696 68.633 75.616C68.985 75.536 69.369 75.496 69.785 75.496C70.457 75.496 71.053 75.612 71.573 75.844C72.093 76.068 72.525 76.388 72.869 76.804C73.221 77.212 73.485 77.704 73.661 78.28C73.845 78.848 73.937 79.476 73.937 80.164V88H70.973V80.164C70.973 79.412 70.797 78.832 70.445 78.424C70.101 78.008 69.581 77.8 68.885 77.8C68.373 77.8 67.893 77.916 67.445 78.148C66.997 78.38 66.573 78.696 66.173 79.096V88H63.209ZM81.4902 88V75.688H83.3023C83.6863 75.688 83.9383 75.868 84.0583 76.228L84.2623 77.2C84.5103 76.944 84.7703 76.712 85.0423 76.504C85.3223 76.296 85.6143 76.116 85.9183 75.964C86.2303 75.812 86.5623 75.696 86.9143 75.616C87.2663 75.536 87.6503 75.496 88.0663 75.496C88.7383 75.496 89.3343 75.612 89.8543 75.844C90.3743 76.068 90.8063 76.388 91.1503 76.804C91.5023 77.212 91.7663 77.704 91.9423 78.28C92.1263 78.848 92.2183 79.476 92.2183 80.164V88H89.2543V80.164C89.2543 79.412 89.0783 78.832 88.7263 78.424C88.3823 78.008 87.8623 77.8 87.1663 77.8C86.6543 77.8 86.1743 77.916 85.7263 78.148C85.2783 78.38 84.8543 78.696 84.4543 79.096V88H81.4902ZM100.387 75.496C101.307 75.496 102.139 75.644 102.883 75.94C103.635 76.236 104.275 76.656 104.803 77.2C105.331 77.744 105.739 78.408 106.027 79.192C106.315 79.976 106.459 80.852 106.459 81.82C106.459 82.796 106.315 83.676 106.027 84.46C105.739 85.244 105.331 85.912 104.803 86.464C104.275 87.016 103.635 87.44 102.883 87.736C102.139 88.032 101.307 88.18 100.387 88.18C99.4669 88.18 98.6309 88.032 97.8789 87.736C97.1269 87.44 96.4829 87.016 95.9469 86.464C95.4189 85.912 95.0069 85.244 94.7109 84.46C94.4229 83.676 94.2789 82.796 94.2789 81.82C94.2789 80.852 94.4229 79.976 94.7109 79.192C95.0069 78.408 95.4189 77.744 95.9469 77.2C96.4829 76.656 97.1269 76.236 97.8789 75.94C98.6309 75.644 99.4669 75.496 100.387 75.496ZM100.387 85.9C101.411 85.9 102.167 85.556 102.655 84.868C103.151 84.18 103.399 83.172 103.399 81.844C103.399 80.516 103.151 79.504 102.655 78.808C102.167 78.112 101.411 77.764 100.387 77.764C99.3469 77.764 98.5789 78.116 98.0829 78.82C97.5869 79.516 97.3389 80.524 97.3389 81.844C97.3389 83.164 97.5869 84.172 98.0829 84.868C98.5789 85.556 99.3469 85.9 100.387 85.9ZM117.436 88C117.052 88 116.8 87.82 116.68 87.46L116.44 86.272C116.184 86.56 115.916 86.82 115.636 87.052C115.356 87.284 115.052 87.484 114.724 87.652C114.404 87.82 114.056 87.948 113.68 88.036C113.312 88.132 112.912 88.18 112.48 88.18C111.808 88.18 111.192 88.04 110.632 87.76C110.072 87.48 109.588 87.076 109.18 86.548C108.78 86.012 108.468 85.352 108.244 84.568C108.028 83.784 107.92 82.888 107.92 81.88C107.92 80.968 108.044 80.12 108.292 79.336C108.54 78.552 108.896 77.872 109.36 77.296C109.824 76.72 110.38 76.272 111.028 75.952C111.676 75.624 112.404 75.46 113.212 75.46C113.9 75.46 114.488 75.572 114.976 75.796C115.464 76.012 115.9 76.304 116.284 76.672V70.168H119.247V88H117.436ZM113.488 85.828C114.104 85.828 114.628 85.7 115.06 85.444C115.492 85.188 115.9 84.824 116.284 84.352V78.832C115.948 78.424 115.58 78.136 115.18 77.968C114.788 77.8 114.364 77.716 113.908 77.716C113.46 77.716 113.052 77.8 112.684 77.968C112.324 78.136 112.016 78.392 111.76 78.736C111.512 79.072 111.32 79.504 111.184 80.032C111.048 80.552 110.98 81.168 110.98 81.88C110.98 82.6 111.036 83.212 111.148 83.716C111.268 84.212 111.436 84.62 111.652 84.94C111.868 85.252 112.132 85.48 112.444 85.624C112.756 85.76 113.104 85.828 113.488 85.828ZM127.547 75.496C128.323 75.496 129.035 75.62 129.683 75.868C130.339 76.116 130.903 76.48 131.375 76.96C131.847 77.432 132.215 78.016 132.479 78.712C132.743 79.4 132.875 80.188 132.875 81.076C132.875 81.3 132.863 81.488 132.839 81.64C132.823 81.784 132.787 81.9 132.731 81.988C132.683 82.068 132.615 82.128 132.527 82.168C132.439 82.2 132.327 82.216 132.191 82.216H124.583C124.671 83.48 125.011 84.408 125.603 85C126.195 85.592 126.979 85.888 127.955 85.888C128.435 85.888 128.847 85.832 129.191 85.72C129.543 85.608 129.847 85.484 130.103 85.348C130.367 85.212 130.595 85.088 130.787 84.976C130.987 84.864 131.179 84.808 131.363 84.808C131.483 84.808 131.587 84.832 131.675 84.88C131.763 84.928 131.839 84.996 131.903 85.084L132.767 86.164C132.439 86.548 132.071 86.872 131.663 87.136C131.255 87.392 130.827 87.6 130.379 87.76C129.939 87.912 129.487 88.02 129.023 88.084C128.567 88.148 128.123 88.18 127.691 88.18C126.835 88.18 126.039 88.04 125.303 87.76C124.567 87.472 123.927 87.052 123.383 86.5C122.839 85.94 122.411 85.252 122.099 84.436C121.787 83.612 121.631 82.66 121.631 81.58C121.631 80.74 121.767 79.952 122.039 79.216C122.311 78.472 122.699 77.828 123.203 77.284C123.715 76.732 124.335 76.296 125.063 75.976C125.799 75.656 126.627 75.496 127.547 75.496ZM127.607 77.62C126.743 77.62 126.067 77.864 125.579 78.352C125.091 78.84 124.779 79.532 124.643 80.428H130.211C130.211 80.044 130.159 79.684 130.055 79.348C129.951 79.004 129.791 78.704 129.575 78.448C129.359 78.192 129.087 77.992 128.759 77.848C128.431 77.696 128.047 77.62 127.607 77.62Z" fill="#163150"/>
<path d="M32.624 112.128C31.984 112.128 31.4907 111.949 31.144 111.592C30.8027 111.235 30.632 110.72 30.632 110.048V105.088H29.656C29.5707 105.088 29.4987 105.064 29.44 105.016C29.3813 104.963 29.352 104.883 29.352 104.776V104.208L30.68 104.04L31.008 101.536C31.0187 101.456 31.0533 101.392 31.112 101.344C31.1707 101.291 31.2453 101.264 31.336 101.264H32.056V104.056H34.376V105.088H32.056V109.952C32.056 110.293 32.1387 110.547 32.304 110.712C32.4693 110.877 32.6827 110.96 32.944 110.96C33.0933 110.96 33.2213 110.941 33.328 110.904C33.44 110.861 33.536 110.816 33.616 110.768C33.696 110.72 33.7627 110.677 33.816 110.64C33.8747 110.597 33.9253 110.576 33.968 110.576C34.0427 110.576 34.1093 110.621 34.168 110.712L34.584 111.392C34.3387 111.621 34.0427 111.803 33.696 111.936C33.3493 112.064 32.992 112.128 32.624 112.128ZM39.4168 103.768C40.0088 103.768 40.5421 103.867 41.0168 104.064C41.4968 104.261 41.9021 104.541 42.2328 104.904C42.5688 105.267 42.8248 105.707 43.0008 106.224C43.1821 106.736 43.2728 107.309 43.2728 107.944C43.2728 108.584 43.1821 109.16 43.0008 109.672C42.8248 110.184 42.5688 110.621 42.2328 110.984C41.9021 111.347 41.4968 111.627 41.0168 111.824C40.5421 112.016 40.0088 112.112 39.4168 112.112C38.8248 112.112 38.2888 112.016 37.8088 111.824C37.3341 111.627 36.9288 111.347 36.5928 110.984C36.2568 110.621 35.9981 110.184 35.8168 109.672C35.6354 109.16 35.5448 108.584 35.5448 107.944C35.5448 107.309 35.6354 106.736 35.8168 106.224C35.9981 105.707 36.2568 105.267 36.5928 104.904C36.9288 104.541 37.3341 104.261 37.8088 104.064C38.2888 103.867 38.8248 103.768 39.4168 103.768ZM39.4168 111C40.2168 111 40.8141 110.733 41.2088 110.2C41.6034 109.661 41.8008 108.912 41.8008 107.952C41.8008 106.987 41.6034 106.235 41.2088 105.696C40.8141 105.157 40.2168 104.888 39.4168 104.888C39.0114 104.888 38.6594 104.957 38.3608 105.096C38.0621 105.235 37.8114 105.435 37.6088 105.696C37.4114 105.957 37.2621 106.28 37.1608 106.664C37.0648 107.043 37.0168 107.472 37.0168 107.952C37.0168 108.432 37.0648 108.861 37.1608 109.24C37.2621 109.619 37.4114 109.939 37.6088 110.2C37.8114 110.456 38.0621 110.653 38.3608 110.792C38.6594 110.931 39.0114 111 39.4168 111ZM50.7314 112C50.5287 112 50.4007 111.901 50.3474 111.704L50.2194 110.72C49.8727 111.141 49.4754 111.48 49.0274 111.736C48.5847 111.987 48.0754 112.112 47.4994 112.112C47.0354 112.112 46.614 112.024 46.2354 111.848C45.8567 111.667 45.534 111.403 45.2674 111.056C45.0007 110.709 44.7954 110.277 44.6514 109.76C44.5074 109.243 44.4354 108.648 44.4354 107.976C44.4354 107.379 44.5154 106.824 44.6754 106.312C44.8354 105.795 45.0647 105.347 45.3634 104.968C45.6674 104.589 46.0354 104.293 46.4674 104.08C46.8994 103.861 47.39 103.752 47.9394 103.752C48.4354 103.752 48.8594 103.837 49.2114 104.008C49.5634 104.173 49.878 104.408 50.1554 104.712V100.216H51.5794V112H50.7314ZM47.9714 110.96C48.4354 110.96 48.8407 110.853 49.1874 110.64C49.5394 110.427 49.862 110.125 50.1554 109.736V105.816C49.894 105.464 49.606 105.219 49.2914 105.08C48.982 104.936 48.638 104.864 48.2594 104.864C47.502 104.864 46.9207 105.133 46.5154 105.672C46.11 106.211 45.9074 106.979 45.9074 107.976C45.9074 108.504 45.9527 108.957 46.0434 109.336C46.134 109.709 46.2674 110.019 46.4434 110.264C46.6194 110.504 46.8354 110.68 47.0914 110.792C47.3474 110.904 47.6407 110.96 47.9714 110.96ZM59.9169 112H59.2849C59.1462 112 59.0342 111.979 58.9489 111.936C58.8635 111.893 58.8075 111.803 58.7809 111.664L58.6209 110.912C58.4075 111.104 58.1995 111.277 57.9969 111.432C57.7942 111.581 57.5809 111.709 57.3569 111.816C57.1329 111.917 56.8929 111.995 56.6369 112.048C56.3862 112.101 56.1062 112.128 55.7969 112.128C55.4822 112.128 55.1862 112.085 54.9089 112C54.6369 111.909 54.3995 111.776 54.1969 111.6C53.9942 111.424 53.8315 111.203 53.7089 110.936C53.5915 110.664 53.5329 110.344 53.5329 109.976C53.5329 109.656 53.6209 109.349 53.7969 109.056C53.9729 108.757 54.2555 108.493 54.6449 108.264C55.0395 108.035 55.5542 107.848 56.1889 107.704C56.8235 107.555 57.5995 107.469 58.5169 107.448V106.816C58.5169 106.187 58.3809 105.712 58.1089 105.392C57.8422 105.067 57.4449 104.904 56.9169 104.904C56.5702 104.904 56.2769 104.949 56.0369 105.04C55.8022 105.125 55.5969 105.224 55.4209 105.336C55.2502 105.443 55.1009 105.541 54.9729 105.632C54.8502 105.717 54.7275 105.76 54.6049 105.76C54.5089 105.76 54.4235 105.736 54.3489 105.688C54.2795 105.635 54.2235 105.571 54.1809 105.496L53.9249 105.04C54.3729 104.608 54.8555 104.285 55.3729 104.072C55.8902 103.859 56.4635 103.752 57.0929 103.752C57.5462 103.752 57.9489 103.827 58.3009 103.976C58.6529 104.125 58.9489 104.333 59.1889 104.6C59.4289 104.867 59.6102 105.189 59.7329 105.568C59.8555 105.947 59.9169 106.363 59.9169 106.816V112ZM56.2209 111.128C56.4715 111.128 56.7009 111.104 56.9089 111.056C57.1169 111.003 57.3115 110.931 57.4929 110.84C57.6795 110.744 57.8555 110.629 58.0209 110.496C58.1915 110.363 58.3569 110.211 58.5169 110.04V108.352C57.8609 108.373 57.3035 108.427 56.8449 108.512C56.3862 108.592 56.0129 108.699 55.7249 108.832C55.4369 108.965 55.2262 109.123 55.0929 109.304C54.9649 109.485 54.9009 109.688 54.9009 109.912C54.9009 110.125 54.9355 110.309 55.0049 110.464C55.0742 110.619 55.1675 110.747 55.2849 110.848C55.4022 110.944 55.5409 111.016 55.7009 111.064C55.8609 111.107 56.0342 111.128 56.2209 111.128ZM64.2003 114.392C64.1523 114.499 64.0909 114.584 64.0163 114.648C63.9469 114.712 63.8376 114.744 63.6883 114.744H62.6323L64.1123 111.528L60.7683 103.896H62.0003C62.1229 103.896 62.2189 103.928 62.2883 103.992C62.3576 104.051 62.4083 104.117 62.4403 104.192L64.6083 109.296C64.6563 109.413 64.6963 109.531 64.7283 109.648C64.7656 109.765 64.7976 109.885 64.8243 110.008C64.8616 109.885 64.8989 109.765 64.9363 109.648C64.9736 109.531 65.0163 109.411 65.0642 109.288L67.1683 104.192C67.2003 104.107 67.2536 104.037 67.3283 103.984C67.4083 103.925 67.4936 103.896 67.5843 103.896H68.7203L64.2003 114.392ZM72.0495 103.896H73.1695C73.2868 103.896 73.3828 103.925 73.4575 103.984C73.5322 104.043 73.5828 104.112 73.6095 104.192L75.1615 109.408C75.2042 109.6 75.2442 109.787 75.2815 109.968C75.3188 110.144 75.3508 110.323 75.3775 110.504C75.4202 110.323 75.4682 110.144 75.5215 109.968C75.5748 109.787 75.6308 109.6 75.6895 109.408L77.4015 104.16C77.4282 104.08 77.4735 104.013 77.5375 103.96C77.6068 103.907 77.6922 103.88 77.7935 103.88H78.4095C78.5162 103.88 78.6042 103.907 78.6735 103.96C78.7428 104.013 78.7908 104.08 78.8175 104.16L80.4895 109.408C80.5482 109.595 80.5988 109.779 80.6415 109.96C80.6895 110.141 80.7348 110.32 80.7775 110.496C80.8042 110.32 80.8388 110.136 80.8815 109.944C80.9242 109.752 80.9695 109.573 81.0175 109.408L82.6015 104.192C82.6282 104.107 82.6788 104.037 82.7535 103.984C82.8282 103.925 82.9162 103.896 83.0175 103.896H84.0895L81.4655 112H80.3375C80.1988 112 80.1028 111.909 80.0495 111.728L78.2575 106.232C78.2148 106.109 78.1802 105.987 78.1535 105.864C78.1268 105.736 78.1002 105.611 78.0735 105.488C78.0468 105.611 78.0202 105.736 77.9935 105.864C77.9668 105.992 77.9322 106.117 77.8895 106.24L76.0735 111.728C76.0148 111.909 75.9055 112 75.7455 112H74.6735L72.0495 103.896ZM86.9395 103.896V112H85.5155V103.896H86.9395ZM87.2595 101.352C87.2595 101.491 87.2302 101.621 87.1715 101.744C87.1182 101.861 87.0435 101.968 86.9475 102.064C86.8568 102.155 86.7502 102.227 86.6275 102.28C86.5048 102.333 86.3742 102.36 86.2355 102.36C86.0968 102.36 85.9662 102.333 85.8435 102.28C85.7262 102.227 85.6195 102.155 85.5235 102.064C85.4328 101.968 85.3608 101.861 85.3075 101.744C85.2542 101.621 85.2275 101.491 85.2275 101.352C85.2275 101.213 85.2542 101.083 85.3075 100.96C85.3608 100.832 85.4328 100.723 85.5235 100.632C85.6195 100.536 85.7262 100.461 85.8435 100.408C85.9662 100.355 86.0968 100.328 86.2355 100.328C86.3742 100.328 86.5048 100.355 86.6275 100.408C86.7502 100.461 86.8568 100.536 86.9475 100.632C87.0435 100.723 87.1182 100.832 87.1715 100.96C87.2302 101.083 87.2595 101.213 87.2595 101.352ZM91.9053 112.128C91.2653 112.128 90.7719 111.949 90.4253 111.592C90.0839 111.235 89.9133 110.72 89.9133 110.048V105.088H88.9373C88.8519 105.088 88.7799 105.064 88.7213 105.016C88.6626 104.963 88.6333 104.883 88.6333 104.776V104.208L89.9613 104.04L90.2893 101.536C90.2999 101.456 90.3346 101.392 90.3932 101.344C90.4519 101.291 90.5266 101.264 90.6173 101.264H91.3373V104.056H93.6573V105.088H91.3373V109.952C91.3373 110.293 91.4199 110.547 91.5853 110.712C91.7506 110.877 91.9639 110.96 92.2253 110.96C92.3746 110.96 92.5026 110.941 92.6093 110.904C92.7213 110.861 92.8173 110.816 92.8973 110.768C92.9773 110.72 93.0439 110.677 93.0973 110.64C93.1559 110.597 93.2066 110.576 93.2493 110.576C93.3239 110.576 93.3906 110.621 93.4493 110.712L93.8653 111.392C93.6199 111.621 93.3239 111.803 92.9773 111.936C92.6306 112.064 92.2733 112.128 91.9053 112.128ZM95.418 112V100.216H96.842V104.984C97.1887 104.616 97.5727 104.323 97.994 104.104C98.4153 103.88 98.9007 103.768 99.45 103.768C99.8927 103.768 100.282 103.843 100.618 103.992C100.959 104.136 101.242 104.344 101.466 104.616C101.695 104.883 101.869 105.205 101.986 105.584C102.103 105.963 102.162 106.381 102.162 106.84V112H100.738V106.84C100.738 106.227 100.597 105.752 100.314 105.416C100.037 105.075 99.61 104.904 99.034 104.904C98.6127 104.904 98.218 105.005 97.85 105.208C97.4873 105.411 97.1513 105.685 96.842 106.032V112H95.418Z" fill="#282D32"/>
<g clip-path="url(#clip0)">
<path d="M222.353 73.5958C222.353 74.3432 222.275 75.0597 222.121 75.7454C221.966 76.4235 221.741 77.0591 221.447 77.6524C221.161 78.2456 220.809 78.7926 220.391 79.2934C219.973 79.7866 219.497 80.2219 218.963 80.5994L223.223 85.2222H220.646C220.275 85.2222 219.938 85.1722 219.636 85.072C219.342 84.9718 219.071 84.7869 218.824 84.5172L216.363 81.8129C215.968 81.9207 215.561 82.0017 215.144 82.0556C214.733 82.1095 214.304 82.1364 213.855 82.1364C212.586 82.1364 211.425 81.9246 210.372 81.5009C209.327 81.0694 208.43 80.4723 207.679 79.7095C206.936 78.9468 206.359 78.0452 205.949 77.0052C205.539 75.9573 205.334 74.8209 205.334 73.5958C205.334 72.3708 205.539 71.2381 205.949 70.198C206.359 69.1502 206.936 68.2449 207.679 67.4821C208.43 66.7194 209.327 66.1261 210.372 65.7023C211.425 65.2708 212.586 65.0551 213.855 65.0551C215.124 65.0551 216.281 65.2708 217.326 65.7023C218.371 66.1338 219.265 66.7309 220.008 67.4937C220.751 68.2487 221.327 69.1502 221.737 70.198C222.148 71.2381 222.353 72.3708 222.353 73.5958ZM219.149 73.5958C219.149 72.6789 219.025 71.8584 218.777 71.1341C218.537 70.4022 218.189 69.782 217.732 69.2735C217.276 68.765 216.719 68.3759 216.061 68.1062C215.411 67.8365 214.675 67.7017 213.855 67.7017C213.035 67.7017 212.295 67.8365 211.638 68.1062C210.98 68.3759 210.419 68.765 209.954 69.2735C209.498 69.782 209.146 70.4022 208.898 71.1341C208.65 71.8584 208.526 72.6789 208.526 73.5958C208.526 74.5127 208.65 75.3371 208.898 76.0691C209.146 76.7932 209.498 77.4097 209.954 77.9181C210.419 78.4189 210.98 78.8042 211.638 79.0739C212.295 79.3436 213.035 79.4784 213.855 79.4784C214.675 79.4784 215.411 79.3436 216.061 79.0739C216.719 78.8042 217.276 78.4189 217.732 77.9181C218.189 77.4097 218.537 76.7932 218.777 76.0691C219.025 75.3371 219.149 74.5127 219.149 73.5958Z" fill="#11151A"/>
<path d="M226.354 70.0941V77.6293C226.354 78.3535 226.52 78.9159 226.853 79.3166C227.193 79.7095 227.7 79.906 228.374 79.906C228.869 79.906 229.333 79.7982 229.767 79.5824C230.2 79.359 230.61 79.0546 230.997 78.6694V70.0941H233.865V81.9516H232.112C231.74 81.9516 231.497 81.7782 231.38 81.4315L231.183 80.4838C230.935 80.7304 230.68 80.9577 230.417 81.1657C230.154 81.3661 229.871 81.5394 229.569 81.6858C229.275 81.8245 228.954 81.9324 228.606 82.0094C228.265 82.0942 227.898 82.1365 227.503 82.1365C226.853 82.1365 226.276 82.0286 225.773 81.8129C225.278 81.5894 224.86 81.2774 224.519 80.8768C224.179 80.4761 223.92 80.0023 223.742 79.4553C223.571 78.9006 223.486 78.2918 223.486 77.6293V70.0941H226.354Z" fill="#11151A"/>
<path d="M239.049 70.0941V81.9516H236.182V70.0941H239.049ZM239.479 66.6385C239.479 66.885 239.429 67.1162 239.328 67.3319C239.228 67.5477 239.092 67.7364 238.922 67.8982C238.759 68.06 238.566 68.1909 238.341 68.2911C238.117 68.3836 237.877 68.4298 237.622 68.4298C237.374 68.4298 237.138 68.3836 236.913 68.2911C236.697 68.1909 236.507 68.06 236.345 67.8982C236.182 67.7364 236.05 67.5477 235.95 67.3319C235.857 67.1162 235.811 66.885 235.811 66.6385C235.811 66.3842 235.857 66.1453 235.95 65.922C236.05 65.6985 236.182 65.5059 236.345 65.3441C236.507 65.1823 236.697 65.0551 236.913 64.9627C237.138 64.8625 237.374 64.8125 237.622 64.8125C237.877 64.8125 238.117 64.8625 238.341 64.9627C238.566 65.0551 238.759 65.1823 238.922 65.3441C239.092 65.5059 239.228 65.6985 239.328 65.922C239.429 66.1453 239.479 66.3842 239.479 66.6385Z" fill="#11151A"/>
<path d="M249.742 72.6019C249.656 72.7098 249.571 72.7945 249.486 72.8562C249.408 72.9178 249.293 72.9486 249.138 72.9486C248.99 72.9486 248.847 72.9062 248.708 72.8215C248.569 72.7291 248.402 72.6289 248.209 72.521C248.015 72.4054 247.783 72.3053 247.512 72.2205C247.249 72.1281 246.92 72.0819 246.526 72.0819C246.023 72.0819 245.582 72.1743 245.202 72.3592C244.823 72.5365 244.506 72.7945 244.25 73.1335C244.003 73.4725 243.817 73.8847 243.693 74.3701C243.569 74.8478 243.507 75.391 243.507 75.9997C243.507 76.6315 243.573 77.194 243.705 77.687C243.844 78.1801 244.041 78.5962 244.297 78.9352C244.552 79.2665 244.862 79.5207 245.226 79.698C245.589 79.8675 245.999 79.9522 246.456 79.9522C246.913 79.9522 247.28 79.8983 247.559 79.7904C247.845 79.6749 248.085 79.5516 248.279 79.4206C248.472 79.2819 248.638 79.1586 248.778 79.0508C248.925 78.9352 249.087 78.8774 249.265 78.8774C249.497 78.8774 249.671 78.966 249.788 79.1432L250.612 80.1834C250.294 80.5532 249.95 80.8653 249.579 81.1195C249.207 81.3661 248.82 81.5663 248.418 81.7205C248.023 81.8669 247.613 81.9709 247.187 82.0325C246.762 82.0941 246.34 82.1249 245.922 82.1249C245.187 82.1249 244.494 81.9901 243.844 81.7205C243.194 81.443 242.625 81.0424 242.138 80.5185C241.658 79.9946 241.275 79.3551 240.988 78.6C240.71 77.8373 240.57 76.9705 240.57 75.9997C240.57 75.1291 240.694 74.3239 240.942 73.5843C241.197 72.8369 241.569 72.1936 242.056 71.6542C242.544 71.1072 243.147 70.6796 243.867 70.3714C244.587 70.0632 245.415 69.9092 246.352 69.9092C247.242 69.9092 248.019 70.0517 248.685 70.3367C249.358 70.6218 249.962 71.0301 250.496 71.5618L249.742 72.6019Z" fill="#11151A"/>
<path d="M254.409 64.7778V74.6128H254.942C255.136 74.6128 255.287 74.5859 255.395 74.5319C255.504 74.4781 255.619 74.3779 255.743 74.2315L258.704 70.591C258.835 70.4369 258.975 70.3174 259.121 70.2327C259.268 70.1403 259.462 70.0941 259.702 70.0941H262.326L258.622 74.4973C258.49 74.659 258.355 74.8093 258.216 74.948C258.077 75.0789 257.926 75.1946 257.763 75.2947C257.926 75.4103 258.069 75.5451 258.193 75.6992C258.316 75.8533 258.441 76.0189 258.564 76.1962L262.535 81.9516H259.945C259.721 81.9516 259.531 81.9131 259.377 81.836C259.222 81.7589 259.082 81.628 258.959 81.443L255.929 76.9474C255.813 76.7701 255.697 76.6546 255.581 76.6006C255.465 76.5468 255.29 76.5197 255.058 76.5197H254.409V81.9516H251.541V64.7778H254.409Z" fill="#11151A"/>
<path d="M265.189 65.2401C265.329 65.2401 265.444 65.2477 265.538 65.2632C265.63 65.2709 265.712 65.294 265.781 65.3325C265.859 65.3634 265.932 65.4134 266.002 65.4828C266.072 65.5444 266.149 65.6292 266.234 65.737L275.045 76.9127C275.014 76.643 274.991 76.3811 274.976 76.1269C274.968 75.8649 274.964 75.6221 274.964 75.3988V65.2401H277.715V81.9516H276.102C275.854 81.9516 275.649 81.9131 275.486 81.836C275.324 81.7589 275.165 81.6203 275.01 81.4199L266.234 70.2905C266.258 70.5371 266.273 70.7836 266.281 71.0301C266.296 71.269 266.304 71.4886 266.304 71.6889V81.9516H263.553V65.2401H265.189Z" fill="#11151A"/>
<path d="M285.094 69.9092C285.985 69.9092 286.789 70.0517 287.509 70.3367C288.236 70.6218 288.856 71.0263 289.367 71.5502C289.877 72.0741 290.272 72.7136 290.551 73.4687C290.829 74.2237 290.969 75.0674 290.969 75.9997C290.969 76.9397 290.829 77.7872 290.551 78.5422C290.272 79.2973 289.877 79.9406 289.367 80.4723C288.856 81.0039 288.236 81.4123 287.509 81.6973C286.789 81.9824 285.985 82.1249 285.094 82.1249C284.204 82.1249 283.395 81.9824 282.668 81.6973C281.94 81.4123 281.318 81.0039 280.799 80.4723C280.289 79.9406 279.89 79.2973 279.603 78.5422C279.325 77.7872 279.186 76.9397 279.186 75.9997C279.186 75.0674 279.325 74.2237 279.603 73.4687C279.89 72.7136 280.289 72.0741 280.799 71.5502C281.318 71.0263 281.94 70.6218 282.668 70.3367C283.395 70.0517 284.204 69.9092 285.094 69.9092ZM285.094 79.9291C286.085 79.9291 286.817 79.5978 287.289 78.9352C287.769 78.2725 288.009 77.3018 288.009 76.0229C288.009 74.7438 287.769 73.7692 287.289 73.0989C286.817 72.4285 286.085 72.0934 285.094 72.0934C284.089 72.0934 283.346 72.4325 282.866 73.1104C282.386 73.7807 282.146 74.7516 282.146 76.0229C282.146 77.2941 282.386 78.2649 282.866 78.9352C283.346 79.5978 284.089 79.9291 285.094 79.9291Z" fill="#11151A"/>
<path d="M300.658 81.9516C300.287 81.9516 300.043 81.7782 299.928 81.4315L299.695 80.2874C299.448 80.5647 299.188 80.8151 298.917 81.0386C298.647 81.2621 298.353 81.4546 298.035 81.6165C297.726 81.7782 297.389 81.9015 297.026 81.9862C296.669 82.0787 296.282 82.1249 295.865 82.1249C295.214 82.1249 294.618 81.9901 294.076 81.7205C293.535 81.4508 293.066 81.0617 292.672 80.5532C292.285 80.037 291.983 79.4013 291.766 78.6462C291.557 77.8912 291.453 77.0283 291.453 76.0575C291.453 75.1791 291.573 74.3624 291.813 73.6074C292.052 72.8524 292.397 72.1974 292.846 71.6427C293.295 71.0879 293.833 70.6565 294.459 70.3483C295.087 70.0324 295.791 69.8744 296.572 69.8744C297.238 69.8744 297.807 69.9823 298.279 70.1981C298.751 70.4061 299.173 70.6873 299.545 71.0417V64.7778H302.411V81.9516H300.658ZM296.84 79.8597C297.435 79.8597 297.942 79.7365 298.36 79.49C298.778 79.2434 299.173 78.8928 299.545 78.4382V73.122C299.219 72.7291 298.863 72.4517 298.476 72.2899C298.097 72.1281 297.687 72.0472 297.246 72.0472C296.812 72.0472 296.418 72.1281 296.062 72.2899C295.714 72.4517 295.416 72.6982 295.168 73.0295C294.928 73.3532 294.742 73.7692 294.61 74.2777C294.479 74.7785 294.413 75.3717 294.413 76.0575C294.413 76.7509 294.467 77.3403 294.576 77.8257C294.691 78.3034 294.854 78.6964 295.063 79.0045C295.272 79.305 295.528 79.5246 295.829 79.6633C296.131 79.7942 296.468 79.8597 296.84 79.8597Z" fill="#11151A"/>
<path d="M309.514 69.9092C310.265 69.9092 310.954 70.0285 311.58 70.2674C312.215 70.5062 312.761 70.8568 313.217 71.3191C313.674 71.7737 314.03 72.3361 314.285 73.0064C314.54 73.669 314.668 74.4279 314.668 75.2831C314.668 75.4989 314.657 75.6799 314.634 75.8263C314.618 75.965 314.583 76.0767 314.529 76.1615C314.483 76.2385 314.417 76.2964 314.331 76.3349C314.246 76.3657 314.139 76.3811 314.007 76.3811H306.646C306.731 77.5984 307.06 78.4922 307.634 79.0623C308.206 79.6325 308.964 79.9175 309.908 79.9175C310.373 79.9175 310.771 79.8636 311.105 79.7557C311.445 79.6478 311.739 79.5285 311.987 79.3974C312.242 79.2665 312.463 79.147 312.649 79.0392C312.842 78.9313 313.027 78.8774 313.205 78.8774C313.322 78.8774 313.422 78.9005 313.507 78.9468C313.593 78.993 313.666 79.0585 313.728 79.1432L314.563 80.1834C314.246 80.5532 313.891 80.8653 313.496 81.1195C313.101 81.3661 312.687 81.5663 312.254 81.7205C311.828 81.8669 311.391 81.9709 310.942 82.0325C310.5 82.0941 310.071 82.1249 309.653 82.1249C308.825 82.1249 308.055 81.9901 307.343 81.7205C306.631 81.443 306.012 81.0386 305.485 80.5069C304.959 79.9677 304.546 79.305 304.243 78.5191C303.941 77.7255 303.791 76.8087 303.791 75.7685C303.791 74.9596 303.923 74.2006 304.186 73.4918C304.449 72.7753 304.824 72.155 305.312 71.6311C305.807 71.0995 306.407 70.6796 307.111 70.3714C307.823 70.0632 308.624 69.9092 309.514 69.9092ZM309.572 71.9548C308.736 71.9548 308.083 72.1897 307.61 72.6597C307.138 73.1297 306.836 73.7962 306.705 74.659H312.091C312.091 74.2893 312.041 73.9425 311.94 73.6189C311.84 73.2877 311.685 72.9987 311.475 72.7522C311.267 72.5056 311.003 72.313 310.686 72.1743C310.369 72.0279 309.997 71.9548 309.572 71.9548Z" fill="#11151A"/>
<path d="M180.058 86.9834C173.174 86.9834 167.604 81.507 167.604 74.7397C167.604 67.9724 173.174 62.4961 180.058 62.4961C189.103 62.4961 195.012 71.6164 191.517 79.5914L183.553 77.0302L194.8 88.0869C198.104 84.5679 200.117 79.8828 200.117 74.7189C200.117 63.8287 191.136 55 180.058 55C168.981 55 160 63.8287 160 74.7189C160 85.6091 168.981 94.4378 180.058 94.4378C183.934 94.4378 187.535 93.355 190.606 91.5019L199.524 95L188.277 83.9224C186.074 85.8172 183.193 86.9834 180.058 86.9834Z" fill="#40C6F0"/>
</g>
<defs>
<clipPath id="clip0">
<rect width="154.667" height="40" fill="white" transform="translate(160 55)"/>
</clipPath>
</defs>
</svg>
