<svg viewBox="0 0 357 162" xmlns="http://www.w3.org/2000/svg">
<g filter="url(#filter0_d)">
<rect x="6" y="3" width="345" height="150" rx="3" fill="white"/>
</g>
<path d="M44.72 59.624C45.448 59.624 46.08 59.56 46.616 59.432C47.16 59.296 47.676 59.112 48.164 58.88V55.724H45.992C45.784 55.724 45.62 55.668 45.5 55.556C45.38 55.436 45.32 55.292 45.32 55.124V53.3H51.092V60.32C50.652 60.64 50.192 60.92 49.712 61.16C49.24 61.392 48.732 61.584 48.188 61.736C47.652 61.888 47.076 62 46.46 62.072C45.844 62.152 45.18 62.192 44.468 62.192C43.204 62.192 42.04 61.972 40.976 61.532C39.912 61.092 38.992 60.48 38.216 59.696C37.44 58.912 36.832 57.976 36.392 56.888C35.96 55.8 35.744 54.612 35.744 53.324C35.744 52.02 35.956 50.824 36.38 49.736C36.804 48.648 37.404 47.712 38.18 46.928C38.964 46.144 39.912 45.536 41.024 45.104C42.136 44.672 43.384 44.456 44.768 44.456C46.184 44.456 47.408 44.668 48.44 45.092C49.48 45.508 50.36 46.052 51.08 46.724L50.144 48.188C49.96 48.484 49.716 48.632 49.412 48.632C49.22 48.632 49.024 48.568 48.824 48.44C48.568 48.288 48.304 48.136 48.032 47.984C47.768 47.832 47.472 47.7 47.144 47.588C46.824 47.476 46.46 47.384 46.052 47.312C45.652 47.24 45.188 47.204 44.66 47.204C43.804 47.204 43.028 47.348 42.332 47.636C41.644 47.924 41.056 48.336 40.568 48.872C40.08 49.408 39.704 50.052 39.44 50.804C39.176 51.556 39.044 52.396 39.044 53.324C39.044 54.324 39.184 55.216 39.464 56C39.744 56.776 40.136 57.432 40.64 57.968C41.144 58.504 41.744 58.916 42.44 59.204C43.136 59.484 43.896 59.624 44.72 59.624ZM59.0158 49.496C59.7918 49.496 60.5038 49.62 61.1518 49.868C61.8078 50.116 62.3718 50.48 62.8438 50.96C63.3158 51.432 63.6838 52.016 63.9478 52.712C64.2118 53.4 64.3438 54.188 64.3438 55.076C64.3438 55.3 64.3318 55.488 64.3078 55.64C64.2918 55.784 64.2558 55.9 64.1998 55.988C64.1518 56.068 64.0838 56.128 63.9958 56.168C63.9078 56.2 63.7958 56.216 63.6598 56.216H56.0518C56.1398 57.48 56.4798 58.408 57.0718 59C57.6638 59.592 58.4478 59.888 59.4238 59.888C59.9038 59.888 60.3158 59.832 60.6598 59.72C61.0118 59.608 61.3158 59.484 61.5718 59.348C61.8358 59.212 62.0638 59.088 62.2558 58.976C62.4558 58.864 62.6478 58.808 62.8318 58.808C62.9518 58.808 63.0558 58.832 63.1438 58.88C63.2318 58.928 63.3078 58.996 63.3718 59.084L64.2358 60.164C63.9078 60.548 63.5398 60.872 63.1318 61.136C62.7238 61.392 62.2958 61.6 61.8478 61.76C61.4078 61.912 60.9558 62.02 60.4918 62.084C60.0358 62.148 59.5918 62.18 59.1598 62.18C58.3038 62.18 57.5078 62.04 56.7718 61.76C56.0358 61.472 55.3958 61.052 54.8518 60.5C54.3078 59.94 53.8798 59.252 53.5678 58.436C53.2558 57.612 53.0998 56.66 53.0998 55.58C53.0998 54.74 53.2358 53.952 53.5078 53.216C53.7798 52.472 54.1678 51.828 54.6718 51.284C55.1838 50.732 55.8038 50.296 56.5318 49.976C57.2678 49.656 58.0958 49.496 59.0158 49.496ZM59.0758 51.62C58.2118 51.62 57.5358 51.864 57.0478 52.352C56.5598 52.84 56.2478 53.532 56.1118 54.428H61.6798C61.6798 54.044 61.6278 53.684 61.5238 53.348C61.4198 53.004 61.2598 52.704 61.0438 52.448C60.8278 52.192 60.5558 51.992 60.2278 51.848C59.8998 51.696 59.5158 51.62 59.0758 51.62ZM70.7921 62.192C69.7281 62.192 68.9081 61.892 68.3321 61.292C67.7561 60.684 67.4681 59.848 67.4681 58.784V51.908H66.2201C66.0601 51.908 65.9201 51.856 65.8001 51.752C65.6881 51.648 65.6321 51.492 65.6321 51.284V50.108L67.6121 49.784L68.2361 46.424C68.2681 46.264 68.3401 46.14 68.4521 46.052C68.5721 45.964 68.7201 45.92 68.8961 45.92H70.4321V49.796H73.6721V51.908H70.4321V58.58C70.4321 58.964 70.5281 59.264 70.7201 59.48C70.9121 59.696 71.1681 59.804 71.4881 59.804C71.6721 59.804 71.8241 59.784 71.9441 59.744C72.0721 59.696 72.1801 59.648 72.2681 59.6C72.3641 59.552 72.4481 59.508 72.5201 59.468C72.5921 59.42 72.6641 59.396 72.7361 59.396C72.8241 59.396 72.8961 59.42 72.9521 59.468C73.0081 59.508 73.0681 59.572 73.1321 59.66L74.0201 61.1C73.5881 61.46 73.0921 61.732 72.5321 61.916C71.9721 62.1 71.3921 62.192 70.7921 62.192ZM85.0379 65.384C84.9499 65.592 84.8339 65.748 84.6899 65.852C84.5539 65.964 84.3419 66.02 84.0539 66.02H81.8459L84.1499 61.088L79.1699 49.688H81.7619C82.0019 49.688 82.1859 49.744 82.3139 49.856C82.4419 49.968 82.5379 50.096 82.6019 50.24L85.2299 56.624C85.3179 56.832 85.3939 57.048 85.4579 57.272C85.5219 57.496 85.5779 57.72 85.6259 57.944C85.6899 57.712 85.7579 57.488 85.8299 57.272C85.9099 57.056 85.9939 56.836 86.0819 56.612L88.5539 50.24C88.6179 50.08 88.7219 49.948 88.8659 49.844C89.0179 49.74 89.1859 49.688 89.3699 49.688H91.7459L85.0379 65.384ZM98.3244 49.496C99.2444 49.496 100.076 49.644 100.82 49.94C101.572 50.236 102.212 50.656 102.74 51.2C103.268 51.744 103.676 52.408 103.964 53.192C104.252 53.976 104.396 54.852 104.396 55.82C104.396 56.796 104.252 57.676 103.964 58.46C103.676 59.244 103.268 59.912 102.74 60.464C102.212 61.016 101.572 61.44 100.82 61.736C100.076 62.032 99.2444 62.18 98.3244 62.18C97.4044 62.18 96.5684 62.032 95.8164 61.736C95.0644 61.44 94.4204 61.016 93.8844 60.464C93.3564 59.912 92.9444 59.244 92.6484 58.46C92.3604 57.676 92.2164 56.796 92.2164 55.82C92.2164 54.852 92.3604 53.976 92.6484 53.192C92.9444 52.408 93.3564 51.744 93.8844 51.2C94.4204 50.656 95.0644 50.236 95.8164 49.94C96.5684 49.644 97.4044 49.496 98.3244 49.496ZM98.3244 59.9C99.3484 59.9 100.104 59.556 100.592 58.868C101.088 58.18 101.336 57.172 101.336 55.844C101.336 54.516 101.088 53.504 100.592 52.808C100.104 52.112 99.3484 51.764 98.3244 51.764C97.2844 51.764 96.5164 52.116 96.0204 52.82C95.5244 53.516 95.2764 54.524 95.2764 55.844C95.2764 57.164 95.5244 58.172 96.0204 58.868C96.5164 59.556 97.2844 59.9 98.3244 59.9ZM109.421 49.688V57.512C109.421 58.264 109.593 58.848 109.937 59.264C110.289 59.672 110.813 59.876 111.509 59.876C112.021 59.876 112.501 59.764 112.949 59.54C113.397 59.308 113.821 58.992 114.221 58.592V49.688H117.185V62H115.373C114.989 62 114.737 61.82 114.617 61.46L114.413 60.476C114.157 60.732 113.893 60.968 113.621 61.184C113.349 61.392 113.057 61.572 112.745 61.724C112.441 61.868 112.109 61.98 111.749 62.06C111.397 62.148 111.017 62.192 110.609 62.192C109.937 62.192 109.341 62.08 108.821 61.856C108.309 61.624 107.877 61.3 107.525 60.884C107.173 60.468 106.905 59.976 106.721 59.408C106.545 58.832 106.457 58.2 106.457 57.512V49.688H109.421ZM120.35 62V49.688H122.09C122.394 49.688 122.606 49.744 122.726 49.856C122.846 49.968 122.926 50.16 122.966 50.432L123.146 51.92C123.586 51.16 124.102 50.56 124.694 50.12C125.286 49.68 125.95 49.46 126.686 49.46C127.294 49.46 127.798 49.6 128.198 49.88L127.814 52.1C127.79 52.244 127.738 52.348 127.658 52.412C127.578 52.468 127.47 52.496 127.334 52.496C127.214 52.496 127.05 52.468 126.842 52.412C126.634 52.356 126.358 52.328 126.014 52.328C125.398 52.328 124.87 52.5 124.43 52.844C123.99 53.18 123.618 53.676 123.314 54.332V62H120.35ZM41.84 78.496C42.76 78.496 43.592 78.644 44.336 78.94C45.088 79.236 45.728 79.656 46.256 80.2C46.784 80.744 47.192 81.408 47.48 82.192C47.768 82.976 47.912 83.852 47.912 84.82C47.912 85.796 47.768 86.676 47.48 87.46C47.192 88.244 46.784 88.912 46.256 89.464C45.728 90.016 45.088 90.44 44.336 90.736C43.592 91.032 42.76 91.18 41.84 91.18C40.92 91.18 40.084 91.032 39.332 90.736C38.58 90.44 37.936 90.016 37.4 89.464C36.872 88.912 36.46 88.244 36.164 87.46C35.876 86.676 35.732 85.796 35.732 84.82C35.732 83.852 35.876 82.976 36.164 82.192C36.46 81.408 36.872 80.744 37.4 80.2C37.936 79.656 38.58 79.236 39.332 78.94C40.084 78.644 40.92 78.496 41.84 78.496ZM41.84 88.9C42.864 88.9 43.62 88.556 44.108 87.868C44.604 87.18 44.852 86.172 44.852 84.844C44.852 83.516 44.604 82.504 44.108 81.808C43.62 81.112 42.864 80.764 41.84 80.764C40.8 80.764 40.032 81.116 39.536 81.82C39.04 82.516 38.792 83.524 38.792 84.844C38.792 86.164 39.04 87.172 39.536 87.868C40.032 88.556 40.8 88.9 41.84 88.9ZM48.7246 78.688H51.0766C51.3006 78.688 51.4886 78.74 51.6406 78.844C51.7926 78.948 51.8886 79.08 51.9286 79.24L53.6926 85.816C53.7886 86.176 53.8646 86.528 53.9206 86.872C53.9846 87.216 54.0446 87.56 54.1006 87.904C54.1886 87.56 54.2806 87.216 54.3766 86.872C54.4806 86.528 54.5886 86.176 54.7006 85.816L56.7406 79.216C56.7886 79.056 56.8846 78.924 57.0286 78.82C57.1726 78.716 57.3406 78.664 57.5326 78.664H58.8406C59.0566 78.664 59.2366 78.716 59.3806 78.82C59.5246 78.924 59.6206 79.056 59.6686 79.216L61.6846 85.936C61.7886 86.28 61.8806 86.616 61.9606 86.944C62.0486 87.264 62.1326 87.588 62.2126 87.916C62.2686 87.572 62.3286 87.228 62.3926 86.884C62.4646 86.54 62.5526 86.184 62.6566 85.816L64.4806 79.24C64.5206 79.08 64.6166 78.948 64.7686 78.844C64.9206 78.74 65.0966 78.688 65.2966 78.688H67.5406L63.6406 91H61.2526C60.9966 91 60.8126 90.824 60.7006 90.472L58.4806 83.356C58.4086 83.124 58.3406 82.892 58.2766 82.66C58.2206 82.42 58.1726 82.184 58.1326 81.952C58.0846 82.192 58.0326 82.432 57.9766 82.672C57.9206 82.904 57.8566 83.14 57.7846 83.38L55.5406 90.472C55.4286 90.824 55.2126 91 54.8926 91H52.6246L48.7246 78.688ZM69.209 91V78.688H71.021C71.405 78.688 71.657 78.868 71.777 79.228L71.981 80.2C72.229 79.944 72.489 79.712 72.761 79.504C73.041 79.296 73.333 79.116 73.637 78.964C73.949 78.812 74.281 78.696 74.633 78.616C74.985 78.536 75.369 78.496 75.785 78.496C76.457 78.496 77.053 78.612 77.573 78.844C78.093 79.068 78.525 79.388 78.869 79.804C79.221 80.212 79.485 80.704 79.661 81.28C79.845 81.848 79.937 82.476 79.937 83.164V91H76.973V83.164C76.973 82.412 76.797 81.832 76.445 81.424C76.101 81.008 75.581 80.8 74.885 80.8C74.373 80.8 73.893 80.916 73.445 81.148C72.997 81.38 72.573 81.696 72.173 82.096V91H69.209ZM87.4902 91V78.688H89.3023C89.6863 78.688 89.9383 78.868 90.0583 79.228L90.2623 80.2C90.5103 79.944 90.7703 79.712 91.0423 79.504C91.3223 79.296 91.6143 79.116 91.9183 78.964C92.2303 78.812 92.5623 78.696 92.9143 78.616C93.2663 78.536 93.6503 78.496 94.0663 78.496C94.7383 78.496 95.3343 78.612 95.8543 78.844C96.3743 79.068 96.8063 79.388 97.1503 79.804C97.5023 80.212 97.7663 80.704 97.9423 81.28C98.1263 81.848 98.2183 82.476 98.2183 83.164V91H95.2543V83.164C95.2543 82.412 95.0783 81.832 94.7263 81.424C94.3823 81.008 93.8623 80.8 93.1663 80.8C92.6543 80.8 92.1743 80.916 91.7263 81.148C91.2783 81.38 90.8543 81.696 90.4543 82.096V91H87.4902ZM106.387 78.496C107.307 78.496 108.139 78.644 108.883 78.94C109.635 79.236 110.275 79.656 110.803 80.2C111.331 80.744 111.739 81.408 112.027 82.192C112.315 82.976 112.459 83.852 112.459 84.82C112.459 85.796 112.315 86.676 112.027 87.46C111.739 88.244 111.331 88.912 110.803 89.464C110.275 90.016 109.635 90.44 108.883 90.736C108.139 91.032 107.307 91.18 106.387 91.18C105.467 91.18 104.631 91.032 103.879 90.736C103.127 90.44 102.483 90.016 101.947 89.464C101.419 88.912 101.007 88.244 100.711 87.46C100.423 86.676 100.279 85.796 100.279 84.82C100.279 83.852 100.423 82.976 100.711 82.192C101.007 81.408 101.419 80.744 101.947 80.2C102.483 79.656 103.127 79.236 103.879 78.94C104.631 78.644 105.467 78.496 106.387 78.496ZM106.387 88.9C107.411 88.9 108.167 88.556 108.655 87.868C109.151 87.18 109.399 86.172 109.399 84.844C109.399 83.516 109.151 82.504 108.655 81.808C108.167 81.112 107.411 80.764 106.387 80.764C105.347 80.764 104.579 81.116 104.083 81.82C103.587 82.516 103.339 83.524 103.339 84.844C103.339 86.164 103.587 87.172 104.083 87.868C104.579 88.556 105.347 88.9 106.387 88.9ZM123.436 91C123.052 91 122.8 90.82 122.68 90.46L122.44 89.272C122.184 89.56 121.916 89.82 121.636 90.052C121.356 90.284 121.052 90.484 120.724 90.652C120.404 90.82 120.056 90.948 119.68 91.036C119.312 91.132 118.912 91.18 118.48 91.18C117.808 91.18 117.192 91.04 116.632 90.76C116.072 90.48 115.588 90.076 115.18 89.548C114.78 89.012 114.468 88.352 114.244 87.568C114.028 86.784 113.92 85.888 113.92 84.88C113.92 83.968 114.044 83.12 114.292 82.336C114.54 81.552 114.896 80.872 115.36 80.296C115.824 79.72 116.38 79.272 117.028 78.952C117.676 78.624 118.404 78.46 119.212 78.46C119.9 78.46 120.488 78.572 120.976 78.796C121.464 79.012 121.9 79.304 122.284 79.672V73.168H125.247V91H123.436ZM119.488 88.828C120.104 88.828 120.628 88.7 121.06 88.444C121.492 88.188 121.9 87.824 122.284 87.352V81.832C121.948 81.424 121.58 81.136 121.18 80.968C120.788 80.8 120.364 80.716 119.908 80.716C119.46 80.716 119.052 80.8 118.684 80.968C118.324 81.136 118.016 81.392 117.76 81.736C117.512 82.072 117.32 82.504 117.184 83.032C117.048 83.552 116.98 84.168 116.98 84.88C116.98 85.6 117.036 86.212 117.148 86.716C117.268 87.212 117.436 87.62 117.652 87.94C117.868 88.252 118.132 88.48 118.444 88.624C118.756 88.76 119.104 88.828 119.488 88.828ZM133.547 78.496C134.323 78.496 135.035 78.62 135.683 78.868C136.339 79.116 136.903 79.48 137.375 79.96C137.847 80.432 138.215 81.016 138.479 81.712C138.743 82.4 138.875 83.188 138.875 84.076C138.875 84.3 138.863 84.488 138.839 84.64C138.823 84.784 138.787 84.9 138.731 84.988C138.683 85.068 138.615 85.128 138.527 85.168C138.439 85.2 138.327 85.216 138.191 85.216H130.583C130.671 86.48 131.011 87.408 131.603 88C132.195 88.592 132.979 88.888 133.955 88.888C134.435 88.888 134.847 88.832 135.191 88.72C135.543 88.608 135.847 88.484 136.103 88.348C136.367 88.212 136.595 88.088 136.787 87.976C136.987 87.864 137.179 87.808 137.363 87.808C137.483 87.808 137.587 87.832 137.675 87.88C137.763 87.928 137.839 87.996 137.903 88.084L138.767 89.164C138.439 89.548 138.071 89.872 137.663 90.136C137.255 90.392 136.827 90.6 136.379 90.76C135.939 90.912 135.487 91.02 135.023 91.084C134.567 91.148 134.123 91.18 133.691 91.18C132.835 91.18 132.039 91.04 131.303 90.76C130.567 90.472 129.927 90.052 129.383 89.5C128.839 88.94 128.411 88.252 128.099 87.436C127.787 86.612 127.631 85.66 127.631 84.58C127.631 83.74 127.767 82.952 128.039 82.216C128.311 81.472 128.699 80.828 129.203 80.284C129.715 79.732 130.335 79.296 131.063 78.976C131.799 78.656 132.627 78.496 133.547 78.496ZM133.607 80.62C132.743 80.62 132.067 80.864 131.579 81.352C131.091 81.84 130.779 82.532 130.643 83.428H136.211C136.211 83.044 136.159 82.684 136.055 82.348C135.951 82.004 135.791 81.704 135.575 81.448C135.359 81.192 135.087 80.992 134.759 80.848C134.431 80.696 134.047 80.62 133.607 80.62Z" fill="#163150"/>
<path d="M38.624 115.128C37.984 115.128 37.4907 114.949 37.144 114.592C36.8027 114.235 36.632 113.72 36.632 113.048V108.088H35.656C35.5707 108.088 35.4987 108.064 35.44 108.016C35.3813 107.963 35.352 107.883 35.352 107.776V107.208L36.68 107.04L37.008 104.536C37.0187 104.456 37.0533 104.392 37.112 104.344C37.1707 104.291 37.2453 104.264 37.336 104.264H38.056V107.056H40.376V108.088H38.056V112.952C38.056 113.293 38.1387 113.547 38.304 113.712C38.4693 113.877 38.6827 113.96 38.944 113.96C39.0933 113.96 39.2213 113.941 39.328 113.904C39.44 113.861 39.536 113.816 39.616 113.768C39.696 113.72 39.7627 113.677 39.816 113.64C39.8747 113.597 39.9253 113.576 39.968 113.576C40.0427 113.576 40.1093 113.621 40.168 113.712L40.584 114.392C40.3387 114.621 40.0427 114.803 39.696 114.936C39.3493 115.064 38.992 115.128 38.624 115.128ZM45.4168 106.768C46.0088 106.768 46.5421 106.867 47.0168 107.064C47.4968 107.261 47.9021 107.541 48.2328 107.904C48.5688 108.267 48.8248 108.707 49.0008 109.224C49.1821 109.736 49.2728 110.309 49.2728 110.944C49.2728 111.584 49.1821 112.16 49.0008 112.672C48.8248 113.184 48.5688 113.621 48.2328 113.984C47.9021 114.347 47.4968 114.627 47.0168 114.824C46.5421 115.016 46.0088 115.112 45.4168 115.112C44.8248 115.112 44.2888 115.016 43.8088 114.824C43.3341 114.627 42.9288 114.347 42.5928 113.984C42.2568 113.621 41.9981 113.184 41.8168 112.672C41.6354 112.16 41.5448 111.584 41.5448 110.944C41.5448 110.309 41.6354 109.736 41.8168 109.224C41.9981 108.707 42.2568 108.267 42.5928 107.904C42.9288 107.541 43.3341 107.261 43.8088 107.064C44.2888 106.867 44.8248 106.768 45.4168 106.768ZM45.4168 114C46.2168 114 46.8141 113.733 47.2088 113.2C47.6034 112.661 47.8008 111.912 47.8008 110.952C47.8008 109.987 47.6034 109.235 47.2088 108.696C46.8141 108.157 46.2168 107.888 45.4168 107.888C45.0114 107.888 44.6594 107.957 44.3608 108.096C44.0621 108.235 43.8114 108.435 43.6088 108.696C43.4114 108.957 43.2621 109.28 43.1608 109.664C43.0648 110.043 43.0168 110.472 43.0168 110.952C43.0168 111.432 43.0648 111.861 43.1608 112.24C43.2621 112.619 43.4114 112.939 43.6088 113.2C43.8114 113.456 44.0621 113.653 44.3608 113.792C44.6594 113.931 45.0114 114 45.4168 114ZM56.7314 115C56.5287 115 56.4007 114.901 56.3474 114.704L56.2194 113.72C55.8727 114.141 55.4754 114.48 55.0274 114.736C54.5847 114.987 54.0754 115.112 53.4994 115.112C53.0354 115.112 52.614 115.024 52.2354 114.848C51.8567 114.667 51.534 114.403 51.2674 114.056C51.0007 113.709 50.7954 113.277 50.6514 112.76C50.5074 112.243 50.4354 111.648 50.4354 110.976C50.4354 110.379 50.5154 109.824 50.6754 109.312C50.8354 108.795 51.0647 108.347 51.3634 107.968C51.6674 107.589 52.0354 107.293 52.4674 107.08C52.8994 106.861 53.39 106.752 53.9394 106.752C54.4354 106.752 54.8594 106.837 55.2114 107.008C55.5634 107.173 55.878 107.408 56.1554 107.712V103.216H57.5794V115H56.7314ZM53.9714 113.96C54.4354 113.96 54.8407 113.853 55.1874 113.64C55.5394 113.427 55.862 113.125 56.1554 112.736V108.816C55.894 108.464 55.606 108.219 55.2914 108.08C54.982 107.936 54.638 107.864 54.2594 107.864C53.502 107.864 52.9207 108.133 52.5154 108.672C52.11 109.211 51.9074 109.979 51.9074 110.976C51.9074 111.504 51.9527 111.957 52.0434 112.336C52.134 112.709 52.2674 113.019 52.4434 113.264C52.6194 113.504 52.8354 113.68 53.0914 113.792C53.3474 113.904 53.6407 113.96 53.9714 113.96ZM65.9169 115H65.2849C65.1462 115 65.0342 114.979 64.9489 114.936C64.8635 114.893 64.8075 114.803 64.7809 114.664L64.6209 113.912C64.4075 114.104 64.1995 114.277 63.9969 114.432C63.7942 114.581 63.5809 114.709 63.3569 114.816C63.1329 114.917 62.8929 114.995 62.6369 115.048C62.3862 115.101 62.1062 115.128 61.7969 115.128C61.4822 115.128 61.1862 115.085 60.9089 115C60.6369 114.909 60.3995 114.776 60.1969 114.6C59.9942 114.424 59.8315 114.203 59.7089 113.936C59.5915 113.664 59.5329 113.344 59.5329 112.976C59.5329 112.656 59.6209 112.349 59.7969 112.056C59.9729 111.757 60.2555 111.493 60.6449 111.264C61.0395 111.035 61.5542 110.848 62.1889 110.704C62.8235 110.555 63.5995 110.469 64.5169 110.448V109.816C64.5169 109.187 64.3809 108.712 64.1089 108.392C63.8422 108.067 63.4449 107.904 62.9169 107.904C62.5702 107.904 62.2769 107.949 62.0369 108.04C61.8022 108.125 61.5969 108.224 61.4209 108.336C61.2502 108.443 61.1009 108.541 60.9729 108.632C60.8502 108.717 60.7275 108.76 60.6049 108.76C60.5089 108.76 60.4235 108.736 60.3489 108.688C60.2795 108.635 60.2235 108.571 60.1809 108.496L59.9249 108.04C60.3729 107.608 60.8555 107.285 61.3729 107.072C61.8902 106.859 62.4635 106.752 63.0929 106.752C63.5462 106.752 63.9489 106.827 64.3009 106.976C64.6529 107.125 64.9489 107.333 65.1889 107.6C65.4289 107.867 65.6102 108.189 65.7329 108.568C65.8555 108.947 65.9169 109.363 65.9169 109.816V115ZM62.2209 114.128C62.4715 114.128 62.7009 114.104 62.9089 114.056C63.1169 114.003 63.3115 113.931 63.4929 113.84C63.6795 113.744 63.8555 113.629 64.0209 113.496C64.1915 113.363 64.3569 113.211 64.5169 113.04V111.352C63.8609 111.373 63.3035 111.427 62.8449 111.512C62.3862 111.592 62.0129 111.699 61.7249 111.832C61.4369 111.965 61.2262 112.123 61.0929 112.304C60.9649 112.485 60.9009 112.688 60.9009 112.912C60.9009 113.125 60.9355 113.309 61.0049 113.464C61.0742 113.619 61.1675 113.747 61.2849 113.848C61.4022 113.944 61.5409 114.016 61.7009 114.064C61.8609 114.107 62.0342 114.128 62.2209 114.128ZM70.2003 117.392C70.1523 117.499 70.0909 117.584 70.0163 117.648C69.9469 117.712 69.8376 117.744 69.6883 117.744H68.6323L70.1123 114.528L66.7683 106.896H68.0003C68.1229 106.896 68.2189 106.928 68.2883 106.992C68.3576 107.051 68.4083 107.117 68.4403 107.192L70.6083 112.296C70.6563 112.413 70.6963 112.531 70.7283 112.648C70.7656 112.765 70.7976 112.885 70.8243 113.008C70.8616 112.885 70.8989 112.765 70.9363 112.648C70.9736 112.531 71.0163 112.411 71.0642 112.288L73.1683 107.192C73.2003 107.107 73.2536 107.037 73.3283 106.984C73.4083 106.925 73.4936 106.896 73.5843 106.896H74.7203L70.2003 117.392ZM78.0495 106.896H79.1695C79.2868 106.896 79.3828 106.925 79.4575 106.984C79.5322 107.043 79.5828 107.112 79.6095 107.192L81.1615 112.408C81.2042 112.6 81.2442 112.787 81.2815 112.968C81.3188 113.144 81.3508 113.323 81.3775 113.504C81.4202 113.323 81.4682 113.144 81.5215 112.968C81.5748 112.787 81.6308 112.6 81.6895 112.408L83.4015 107.16C83.4282 107.08 83.4735 107.013 83.5375 106.96C83.6068 106.907 83.6922 106.88 83.7935 106.88H84.4095C84.5162 106.88 84.6042 106.907 84.6735 106.96C84.7428 107.013 84.7908 107.08 84.8175 107.16L86.4895 112.408C86.5482 112.595 86.5988 112.779 86.6415 112.96C86.6895 113.141 86.7348 113.32 86.7775 113.496C86.8042 113.32 86.8388 113.136 86.8815 112.944C86.9242 112.752 86.9695 112.573 87.0175 112.408L88.6015 107.192C88.6282 107.107 88.6788 107.037 88.7535 106.984C88.8282 106.925 88.9162 106.896 89.0175 106.896H90.0895L87.4655 115H86.3375C86.1988 115 86.1028 114.909 86.0495 114.728L84.2575 109.232C84.2148 109.109 84.1802 108.987 84.1535 108.864C84.1268 108.736 84.1002 108.611 84.0735 108.488C84.0468 108.611 84.0202 108.736 83.9935 108.864C83.9668 108.992 83.9322 109.117 83.8895 109.24L82.0735 114.728C82.0148 114.909 81.9055 115 81.7455 115H80.6735L78.0495 106.896ZM92.9395 106.896V115H91.5155V106.896H92.9395ZM93.2595 104.352C93.2595 104.491 93.2302 104.621 93.1715 104.744C93.1182 104.861 93.0435 104.968 92.9475 105.064C92.8568 105.155 92.7502 105.227 92.6275 105.28C92.5048 105.333 92.3742 105.36 92.2355 105.36C92.0968 105.36 91.9662 105.333 91.8435 105.28C91.7262 105.227 91.6195 105.155 91.5235 105.064C91.4328 104.968 91.3608 104.861 91.3075 104.744C91.2542 104.621 91.2275 104.491 91.2275 104.352C91.2275 104.213 91.2542 104.083 91.3075 103.96C91.3608 103.832 91.4328 103.723 91.5235 103.632C91.6195 103.536 91.7262 103.461 91.8435 103.408C91.9662 103.355 92.0968 103.328 92.2355 103.328C92.3742 103.328 92.5048 103.355 92.6275 103.408C92.7502 103.461 92.8568 103.536 92.9475 103.632C93.0435 103.723 93.1182 103.832 93.1715 103.96C93.2302 104.083 93.2595 104.213 93.2595 104.352ZM97.9053 115.128C97.2653 115.128 96.7719 114.949 96.4253 114.592C96.0839 114.235 95.9133 113.72 95.9133 113.048V108.088H94.9373C94.8519 108.088 94.7799 108.064 94.7213 108.016C94.6626 107.963 94.6333 107.883 94.6333 107.776V107.208L95.9613 107.04L96.2893 104.536C96.2999 104.456 96.3346 104.392 96.3932 104.344C96.4519 104.291 96.5266 104.264 96.6173 104.264H97.3373V107.056H99.6573V108.088H97.3373V112.952C97.3373 113.293 97.4199 113.547 97.5853 113.712C97.7506 113.877 97.9639 113.96 98.2253 113.96C98.3746 113.96 98.5026 113.941 98.6093 113.904C98.7213 113.861 98.8173 113.816 98.8973 113.768C98.9773 113.72 99.0439 113.677 99.0973 113.64C99.1559 113.597 99.2066 113.576 99.2493 113.576C99.3239 113.576 99.3906 113.621 99.4493 113.712L99.8653 114.392C99.6199 114.621 99.3239 114.803 98.9773 114.936C98.6306 115.064 98.2733 115.128 97.9053 115.128ZM101.418 115V103.216H102.842V107.984C103.189 107.616 103.573 107.323 103.994 107.104C104.415 106.88 104.901 106.768 105.45 106.768C105.893 106.768 106.282 106.843 106.618 106.992C106.959 107.136 107.242 107.344 107.466 107.616C107.695 107.883 107.869 108.205 107.986 108.584C108.103 108.963 108.162 109.381 108.162 109.84V115H106.738V109.84C106.738 109.227 106.597 108.752 106.314 108.416C106.037 108.075 105.61 107.904 105.034 107.904C104.613 107.904 104.218 108.005 103.85 108.208C103.487 108.411 103.151 108.685 102.842 109.032V115H101.418Z" fill="#282D32"/>
<path d="M232.536 86.5625C234.675 84.9792 236.087 82.4332 236.087 79.5449C236.087 74.731 232.194 70.8371 227.38 70.8371C222.566 70.8371 218.672 74.731 218.672 79.5449C218.672 84.3588 222.566 88.2527 227.38 88.2527C228.342 88.2527 229.262 88.1029 230.118 87.8034L233.221 91.1838H236.858L232.536 86.5625ZM221.924 79.5449C221.924 76.25 224.363 73.597 227.358 73.597C230.354 73.597 232.793 76.2714 232.793 79.5449C232.793 82.8397 230.354 85.4927 227.358 85.4927C224.363 85.4927 221.924 82.8397 221.924 79.5449Z" fill="#00C4C4"/>
<path d="M246.271 75.9077V82.5188V83.289V84.5727H246.293C245.972 85.3643 245.03 85.9206 243.918 85.9206C242.548 85.9206 241.414 85.0434 241.414 83.9522V81.4062V75.9291H238.697V84.5727C238.697 84.6155 238.697 84.6797 238.697 84.7225C238.697 86.6908 240.601 88.2741 242.934 88.2741C244.517 88.2741 245.907 87.5252 246.635 86.4341V87.6964H248.689V84.5513V79.0314V75.8863H246.271V75.9077Z" fill="#00C4C4"/>
<path d="M255.707 75.9077H252.861V88.2527H255.707V75.9077Z" fill="#00C4C4"/>
<path d="M254.294 74.6454C255.429 74.6454 256.348 73.7258 256.348 72.5914C256.348 71.4571 255.429 70.5375 254.294 70.5375C253.16 70.5375 252.24 71.4571 252.24 72.5914C252.24 73.7258 253.16 74.6454 254.294 74.6454Z" fill="#00C4C4"/>
<path d="M266.042 81.1495L270.406 75.9077H267.411L264.694 79.1597L263.56 80.529H262.533V80.5076V75.9933V70.5375H259.687V76.2286L259.623 76.2714L259.687 76.3356V88.2527H262.533V82.3048H262.832H263.752L264.351 83.182L267.817 88.2527H270.898L266.042 81.1495Z" fill="#00C4C4"/>
<path d="M284.656 70.6873V82.8397L276.162 71.7356L275.349 70.6873H273.316V72.9552V88.4024H276.162V76.6137L284.656 87.5038L285.362 88.4024H287.501V70.6873H284.656Z" fill="#00C4C4"/>
<path d="M296.423 75.9077C293.149 75.9077 290.518 78.6677 290.518 82.0909C290.518 85.5141 293.171 88.2741 296.423 88.2741C299.696 88.2741 302.328 85.5141 302.328 82.0909C302.328 78.6677 299.675 75.9077 296.423 75.9077ZM296.423 85.9634C294.69 85.9634 293.278 84.209 293.278 82.0695C293.278 79.93 294.69 78.1756 296.423 78.1756C298.156 78.1756 299.568 79.93 299.568 82.0695C299.568 84.209 298.156 85.9634 296.423 85.9634Z" fill="#00C4C4"/>
<path d="M312.423 70.6873V76.956C311.567 76.1002 310.476 75.5868 309.299 75.5868C306.518 75.5868 304.25 78.4323 304.25 81.9197C304.25 85.4071 306.518 88.2527 309.299 88.2527C310.476 88.2527 311.567 87.7392 312.423 86.8834V88.2527H315.268V70.6873H312.423ZM310.219 85.9634C308.657 85.9634 307.395 84.209 307.395 82.0695C307.395 79.93 308.657 78.1756 310.219 78.1756C311.118 78.1756 311.909 78.7532 312.423 79.6304V84.5085C311.888 85.4071 311.096 85.9634 310.219 85.9634Z" fill="#00C4C4"/>
<path d="M324.728 85.9634C322.631 85.9634 320.92 84.3802 320.642 82.3262H326.29C327.231 82.3262 328.194 82.3262 329.135 82.3048C329.178 82.1551 329.328 81.5132 329.285 80.6788C329.285 80.5077 329.178 79.0314 328.301 77.8333C327.124 76.2072 324.792 75.4156 322.76 75.9077C320.021 76.5496 318.416 79.3523 318.374 81.8555C318.331 84.8295 320.47 87.5038 322.952 88.1029C324.193 88.4024 325.37 88.1457 325.969 87.9531C327.616 87.4397 328.601 86.3699 328.943 85.9206L327.681 84.6369C326.953 85.4713 325.905 85.9634 324.728 85.9634ZM323.829 77.8119C325.391 77.8119 326.675 78.8602 326.675 80.1653C326.675 80.2509 326.675 80.3365 326.654 80.4221H321.005C320.984 80.3365 320.984 80.2509 320.984 80.1653C321.005 78.8602 322.268 77.8119 323.829 77.8119Z" fill="#00C4C4"/>
<path d="M194.261 90.8629C187.308 90.8629 181.681 85.236 181.681 78.2826C181.681 71.3292 187.308 65.7022 194.261 65.7022C203.397 65.7022 209.366 75.0733 205.836 83.2676L197.791 80.636L209.152 91.9968C212.49 88.3811 214.522 83.5671 214.522 78.2612C214.522 67.0715 205.451 58 194.261 58C183.072 58 174 67.0715 174 78.2612C174 89.4508 183.072 98.5223 194.261 98.5223C198.176 98.5223 201.814 97.4098 204.916 95.5056L213.923 99.1L202.562 87.7178C200.337 89.6648 197.428 90.8629 194.261 90.8629Z" fill="#1DB9DE"/>
<defs>
<filter id="filter0_d" x="0" y="0" width="357" height="162" filterUnits="userSpaceOnUse" color-interpolation-filters="sRGB">
<feFlood flood-opacity="0" result="BackgroundImageFix"/>
<feColorMatrix in="SourceAlpha" type="matrix" values="0 0 0 0 0 0 0 0 0 0 0 0 0 0 0 0 0 0 127 0"/>
<feOffset dy="3"/>
<feGaussianBlur stdDeviation="3"/>
<feColorMatrix type="matrix" values="0 0 0 0 0 0 0 0 0 0 0 0 0 0 0 0 0 0 0.07 0"/>
<feBlend mode="normal" in2="BackgroundImageFix" result="effect1_dropShadow"/>
<feBlend mode="normal" in="SourceGraphic" in2="effect1_dropShadow" result="shape"/>
</filter>
</defs>
</svg>
