<svg viewBox="0 0 345 150" xmlns="http://www.w3.org/2000/svg">
<rect width="345" height="150" rx="3" fill="white"/>
<path d="M38.72 56.624C39.448 56.624 40.08 56.56 40.616 56.432C41.16 56.296 41.676 56.112 42.164 55.88V52.724H39.992C39.784 52.724 39.62 52.668 39.5 52.556C39.38 52.436 39.32 52.292 39.32 52.124V50.3H45.092V57.32C44.652 57.64 44.192 57.92 43.712 58.16C43.24 58.392 42.732 58.584 42.188 58.736C41.652 58.888 41.076 59 40.46 59.072C39.844 59.152 39.18 59.192 38.468 59.192C37.204 59.192 36.04 58.972 34.976 58.532C33.912 58.092 32.992 57.48 32.216 56.696C31.44 55.912 30.832 54.976 30.392 53.888C29.96 52.8 29.744 51.612 29.744 50.324C29.744 49.02 29.956 47.824 30.38 46.736C30.804 45.648 31.404 44.712 32.18 43.928C32.964 43.144 33.912 42.536 35.024 42.104C36.136 41.672 37.384 41.456 38.768 41.456C40.184 41.456 41.408 41.668 42.44 42.092C43.48 42.508 44.36 43.052 45.08 43.724L44.144 45.188C43.96 45.484 43.716 45.632 43.412 45.632C43.22 45.632 43.024 45.568 42.824 45.44C42.568 45.288 42.304 45.136 42.032 44.984C41.768 44.832 41.472 44.7 41.144 44.588C40.824 44.476 40.46 44.384 40.052 44.312C39.652 44.24 39.188 44.204 38.66 44.204C37.804 44.204 37.028 44.348 36.332 44.636C35.644 44.924 35.056 45.336 34.568 45.872C34.08 46.408 33.704 47.052 33.44 47.804C33.176 48.556 33.044 49.396 33.044 50.324C33.044 51.324 33.184 52.216 33.464 53C33.744 53.776 34.136 54.432 34.64 54.968C35.144 55.504 35.744 55.916 36.44 56.204C37.136 56.484 37.896 56.624 38.72 56.624ZM53.0158 46.496C53.7918 46.496 54.5038 46.62 55.1518 46.868C55.8078 47.116 56.3718 47.48 56.8438 47.96C57.3158 48.432 57.6838 49.016 57.9478 49.712C58.2118 50.4 58.3438 51.188 58.3438 52.076C58.3438 52.3 58.3318 52.488 58.3078 52.64C58.2918 52.784 58.2558 52.9 58.1998 52.988C58.1518 53.068 58.0838 53.128 57.9958 53.168C57.9078 53.2 57.7958 53.216 57.6598 53.216H50.0518C50.1398 54.48 50.4798 55.408 51.0718 56C51.6638 56.592 52.4478 56.888 53.4238 56.888C53.9038 56.888 54.3158 56.832 54.6598 56.72C55.0118 56.608 55.3158 56.484 55.5718 56.348C55.8358 56.212 56.0638 56.088 56.2558 55.976C56.4558 55.864 56.6478 55.808 56.8318 55.808C56.9518 55.808 57.0558 55.832 57.1438 55.88C57.2318 55.928 57.3078 55.996 57.3718 56.084L58.2358 57.164C57.9078 57.548 57.5398 57.872 57.1318 58.136C56.7238 58.392 56.2958 58.6 55.8478 58.76C55.4078 58.912 54.9558 59.02 54.4918 59.084C54.0358 59.148 53.5918 59.18 53.1598 59.18C52.3038 59.18 51.5078 59.04 50.7718 58.76C50.0358 58.472 49.3958 58.052 48.8518 57.5C48.3078 56.94 47.8798 56.252 47.5678 55.436C47.2558 54.612 47.0998 53.66 47.0998 52.58C47.0998 51.74 47.2358 50.952 47.5078 50.216C47.7798 49.472 48.1678 48.828 48.6718 48.284C49.1838 47.732 49.8038 47.296 50.5318 46.976C51.2678 46.656 52.0958 46.496 53.0158 46.496ZM53.0758 48.62C52.2118 48.62 51.5358 48.864 51.0478 49.352C50.5598 49.84 50.2478 50.532 50.1118 51.428H55.6798C55.6798 51.044 55.6278 50.684 55.5238 50.348C55.4198 50.004 55.2598 49.704 55.0438 49.448C54.8278 49.192 54.5558 48.992 54.2278 48.848C53.8998 48.696 53.5158 48.62 53.0758 48.62ZM64.7921 59.192C63.7281 59.192 62.9081 58.892 62.3321 58.292C61.7561 57.684 61.4681 56.848 61.4681 55.784V48.908H60.2201C60.0601 48.908 59.9201 48.856 59.8001 48.752C59.6881 48.648 59.6321 48.492 59.6321 48.284V47.108L61.6121 46.784L62.2361 43.424C62.2681 43.264 62.3401 43.14 62.4521 43.052C62.5721 42.964 62.7201 42.92 62.8961 42.92H64.4321V46.796H67.6721V48.908H64.4321V55.58C64.4321 55.964 64.5281 56.264 64.7201 56.48C64.9121 56.696 65.1681 56.804 65.4881 56.804C65.6721 56.804 65.8241 56.784 65.9441 56.744C66.0721 56.696 66.1801 56.648 66.2681 56.6C66.3641 56.552 66.4481 56.508 66.5201 56.468C66.5921 56.42 66.6641 56.396 66.7361 56.396C66.8241 56.396 66.8961 56.42 66.9521 56.468C67.0081 56.508 67.0681 56.572 67.1321 56.66L68.0201 58.1C67.5881 58.46 67.0921 58.732 66.5321 58.916C65.9721 59.1 65.3921 59.192 64.7921 59.192ZM79.0379 62.384C78.9499 62.592 78.8339 62.748 78.6899 62.852C78.5539 62.964 78.3419 63.02 78.0539 63.02H75.8459L78.1499 58.088L73.1699 46.688H75.7619C76.0019 46.688 76.1859 46.744 76.3139 46.856C76.4419 46.968 76.5379 47.096 76.6019 47.24L79.2299 53.624C79.3179 53.832 79.3939 54.048 79.4579 54.272C79.5219 54.496 79.5779 54.72 79.6259 54.944C79.6899 54.712 79.7579 54.488 79.8299 54.272C79.9099 54.056 79.9939 53.836 80.0819 53.612L82.5539 47.24C82.6179 47.08 82.7219 46.948 82.8659 46.844C83.0179 46.74 83.1859 46.688 83.3699 46.688H85.7459L79.0379 62.384ZM92.3244 46.496C93.2444 46.496 94.0764 46.644 94.8204 46.94C95.5724 47.236 96.2124 47.656 96.7404 48.2C97.2684 48.744 97.6764 49.408 97.9644 50.192C98.2524 50.976 98.3964 51.852 98.3964 52.82C98.3964 53.796 98.2524 54.676 97.9644 55.46C97.6764 56.244 97.2684 56.912 96.7404 57.464C96.2124 58.016 95.5724 58.44 94.8204 58.736C94.0764 59.032 93.2444 59.18 92.3244 59.18C91.4044 59.18 90.5684 59.032 89.8164 58.736C89.0644 58.44 88.4204 58.016 87.8844 57.464C87.3564 56.912 86.9444 56.244 86.6484 55.46C86.3604 54.676 86.2164 53.796 86.2164 52.82C86.2164 51.852 86.3604 50.976 86.6484 50.192C86.9444 49.408 87.3564 48.744 87.8844 48.2C88.4204 47.656 89.0644 47.236 89.8164 46.94C90.5684 46.644 91.4044 46.496 92.3244 46.496ZM92.3244 56.9C93.3484 56.9 94.1044 56.556 94.5924 55.868C95.0884 55.18 95.3364 54.172 95.3364 52.844C95.3364 51.516 95.0884 50.504 94.5924 49.808C94.1044 49.112 93.3484 48.764 92.3244 48.764C91.2844 48.764 90.5164 49.116 90.0204 49.82C89.5244 50.516 89.2764 51.524 89.2764 52.844C89.2764 54.164 89.5244 55.172 90.0204 55.868C90.5164 56.556 91.2844 56.9 92.3244 56.9ZM103.421 46.688V54.512C103.421 55.264 103.593 55.848 103.937 56.264C104.289 56.672 104.813 56.876 105.509 56.876C106.021 56.876 106.501 56.764 106.949 56.54C107.397 56.308 107.821 55.992 108.221 55.592V46.688H111.185V59H109.373C108.989 59 108.737 58.82 108.617 58.46L108.413 57.476C108.157 57.732 107.893 57.968 107.621 58.184C107.349 58.392 107.057 58.572 106.745 58.724C106.441 58.868 106.109 58.98 105.749 59.06C105.397 59.148 105.017 59.192 104.609 59.192C103.937 59.192 103.341 59.08 102.821 58.856C102.309 58.624 101.877 58.3 101.525 57.884C101.173 57.468 100.905 56.976 100.721 56.408C100.545 55.832 100.457 55.2 100.457 54.512V46.688H103.421ZM114.35 59V46.688H116.09C116.394 46.688 116.606 46.744 116.726 46.856C116.846 46.968 116.926 47.16 116.966 47.432L117.146 48.92C117.586 48.16 118.102 47.56 118.694 47.12C119.286 46.68 119.95 46.46 120.686 46.46C121.294 46.46 121.798 46.6 122.198 46.88L121.814 49.1C121.79 49.244 121.738 49.348 121.658 49.412C121.578 49.468 121.47 49.496 121.334 49.496C121.214 49.496 121.05 49.468 120.842 49.412C120.634 49.356 120.358 49.328 120.014 49.328C119.398 49.328 118.87 49.5 118.43 49.844C117.99 50.18 117.618 50.676 117.314 51.332V59H114.35ZM35.84 75.496C36.76 75.496 37.592 75.644 38.336 75.94C39.088 76.236 39.728 76.656 40.256 77.2C40.784 77.744 41.192 78.408 41.48 79.192C41.768 79.976 41.912 80.852 41.912 81.82C41.912 82.796 41.768 83.676 41.48 84.46C41.192 85.244 40.784 85.912 40.256 86.464C39.728 87.016 39.088 87.44 38.336 87.736C37.592 88.032 36.76 88.18 35.84 88.18C34.92 88.18 34.084 88.032 33.332 87.736C32.58 87.44 31.936 87.016 31.4 86.464C30.872 85.912 30.46 85.244 30.164 84.46C29.876 83.676 29.732 82.796 29.732 81.82C29.732 80.852 29.876 79.976 30.164 79.192C30.46 78.408 30.872 77.744 31.4 77.2C31.936 76.656 32.58 76.236 33.332 75.94C34.084 75.644 34.92 75.496 35.84 75.496ZM35.84 85.9C36.864 85.9 37.62 85.556 38.108 84.868C38.604 84.18 38.852 83.172 38.852 81.844C38.852 80.516 38.604 79.504 38.108 78.808C37.62 78.112 36.864 77.764 35.84 77.764C34.8 77.764 34.032 78.116 33.536 78.82C33.04 79.516 32.792 80.524 32.792 81.844C32.792 83.164 33.04 84.172 33.536 84.868C34.032 85.556 34.8 85.9 35.84 85.9ZM42.7246 75.688H45.0766C45.3006 75.688 45.4886 75.74 45.6406 75.844C45.7926 75.948 45.8886 76.08 45.9286 76.24L47.6926 82.816C47.7886 83.176 47.8646 83.528 47.9206 83.872C47.9846 84.216 48.0446 84.56 48.1006 84.904C48.1886 84.56 48.2806 84.216 48.3766 83.872C48.4806 83.528 48.5886 83.176 48.7006 82.816L50.7406 76.216C50.7886 76.056 50.8846 75.924 51.0286 75.82C51.1726 75.716 51.3406 75.664 51.5326 75.664H52.8406C53.0566 75.664 53.2366 75.716 53.3806 75.82C53.5246 75.924 53.6206 76.056 53.6686 76.216L55.6846 82.936C55.7886 83.28 55.8806 83.616 55.9606 83.944C56.0486 84.264 56.1326 84.588 56.2126 84.916C56.2686 84.572 56.3286 84.228 56.3926 83.884C56.4646 83.54 56.5526 83.184 56.6566 82.816L58.4806 76.24C58.5206 76.08 58.6166 75.948 58.7686 75.844C58.9206 75.74 59.0966 75.688 59.2966 75.688H61.5406L57.6406 88H55.2526C54.9966 88 54.8126 87.824 54.7006 87.472L52.4806 80.356C52.4086 80.124 52.3406 79.892 52.2766 79.66C52.2206 79.42 52.1726 79.184 52.1326 78.952C52.0846 79.192 52.0326 79.432 51.9766 79.672C51.9206 79.904 51.8566 80.14 51.7846 80.38L49.5406 87.472C49.4286 87.824 49.2126 88 48.8926 88H46.6246L42.7246 75.688ZM63.209 88V75.688H65.021C65.405 75.688 65.657 75.868 65.777 76.228L65.981 77.2C66.229 76.944 66.489 76.712 66.761 76.504C67.041 76.296 67.333 76.116 67.637 75.964C67.949 75.812 68.281 75.696 68.633 75.616C68.985 75.536 69.369 75.496 69.785 75.496C70.457 75.496 71.053 75.612 71.573 75.844C72.093 76.068 72.525 76.388 72.869 76.804C73.221 77.212 73.485 77.704 73.661 78.28C73.845 78.848 73.937 79.476 73.937 80.164V88H70.973V80.164C70.973 79.412 70.797 78.832 70.445 78.424C70.101 78.008 69.581 77.8 68.885 77.8C68.373 77.8 67.893 77.916 67.445 78.148C66.997 78.38 66.573 78.696 66.173 79.096V88H63.209ZM81.4902 88V75.688H83.3023C83.6863 75.688 83.9383 75.868 84.0583 76.228L84.2623 77.2C84.5103 76.944 84.7703 76.712 85.0423 76.504C85.3223 76.296 85.6143 76.116 85.9183 75.964C86.2303 75.812 86.5623 75.696 86.9143 75.616C87.2663 75.536 87.6503 75.496 88.0663 75.496C88.7383 75.496 89.3343 75.612 89.8543 75.844C90.3743 76.068 90.8063 76.388 91.1503 76.804C91.5023 77.212 91.7663 77.704 91.9423 78.28C92.1263 78.848 92.2183 79.476 92.2183 80.164V88H89.2543V80.164C89.2543 79.412 89.0783 78.832 88.7263 78.424C88.3823 78.008 87.8623 77.8 87.1663 77.8C86.6543 77.8 86.1743 77.916 85.7263 78.148C85.2783 78.38 84.8543 78.696 84.4543 79.096V88H81.4902ZM100.387 75.496C101.307 75.496 102.139 75.644 102.883 75.94C103.635 76.236 104.275 76.656 104.803 77.2C105.331 77.744 105.739 78.408 106.027 79.192C106.315 79.976 106.459 80.852 106.459 81.82C106.459 82.796 106.315 83.676 106.027 84.46C105.739 85.244 105.331 85.912 104.803 86.464C104.275 87.016 103.635 87.44 102.883 87.736C102.139 88.032 101.307 88.18 100.387 88.18C99.4669 88.18 98.6309 88.032 97.8789 87.736C97.1269 87.44 96.4829 87.016 95.9469 86.464C95.4189 85.912 95.0069 85.244 94.7109 84.46C94.4229 83.676 94.2789 82.796 94.2789 81.82C94.2789 80.852 94.4229 79.976 94.7109 79.192C95.0069 78.408 95.4189 77.744 95.9469 77.2C96.4829 76.656 97.1269 76.236 97.8789 75.94C98.6309 75.644 99.4669 75.496 100.387 75.496ZM100.387 85.9C101.411 85.9 102.167 85.556 102.655 84.868C103.151 84.18 103.399 83.172 103.399 81.844C103.399 80.516 103.151 79.504 102.655 78.808C102.167 78.112 101.411 77.764 100.387 77.764C99.3469 77.764 98.5789 78.116 98.0829 78.82C97.5869 79.516 97.3389 80.524 97.3389 81.844C97.3389 83.164 97.5869 84.172 98.0829 84.868C98.5789 85.556 99.3469 85.9 100.387 85.9ZM117.436 88C117.052 88 116.8 87.82 116.68 87.46L116.44 86.272C116.184 86.56 115.916 86.82 115.636 87.052C115.356 87.284 115.052 87.484 114.724 87.652C114.404 87.82 114.056 87.948 113.68 88.036C113.312 88.132 112.912 88.18 112.48 88.18C111.808 88.18 111.192 88.04 110.632 87.76C110.072 87.48 109.588 87.076 109.18 86.548C108.78 86.012 108.468 85.352 108.244 84.568C108.028 83.784 107.92 82.888 107.92 81.88C107.92 80.968 108.044 80.12 108.292 79.336C108.54 78.552 108.896 77.872 109.36 77.296C109.824 76.72 110.38 76.272 111.028 75.952C111.676 75.624 112.404 75.46 113.212 75.46C113.9 75.46 114.488 75.572 114.976 75.796C115.464 76.012 115.9 76.304 116.284 76.672V70.168H119.247V88H117.436ZM113.488 85.828C114.104 85.828 114.628 85.7 115.06 85.444C115.492 85.188 115.9 84.824 116.284 84.352V78.832C115.948 78.424 115.58 78.136 115.18 77.968C114.788 77.8 114.364 77.716 113.908 77.716C113.46 77.716 113.052 77.8 112.684 77.968C112.324 78.136 112.016 78.392 111.76 78.736C111.512 79.072 111.32 79.504 111.184 80.032C111.048 80.552 110.98 81.168 110.98 81.88C110.98 82.6 111.036 83.212 111.148 83.716C111.268 84.212 111.436 84.62 111.652 84.94C111.868 85.252 112.132 85.48 112.444 85.624C112.756 85.76 113.104 85.828 113.488 85.828ZM127.547 75.496C128.323 75.496 129.035 75.62 129.683 75.868C130.339 76.116 130.903 76.48 131.375 76.96C131.847 77.432 132.215 78.016 132.479 78.712C132.743 79.4 132.875 80.188 132.875 81.076C132.875 81.3 132.863 81.488 132.839 81.64C132.823 81.784 132.787 81.9 132.731 81.988C132.683 82.068 132.615 82.128 132.527 82.168C132.439 82.2 132.327 82.216 132.191 82.216H124.583C124.671 83.48 125.011 84.408 125.603 85C126.195 85.592 126.979 85.888 127.955 85.888C128.435 85.888 128.847 85.832 129.191 85.72C129.543 85.608 129.847 85.484 130.103 85.348C130.367 85.212 130.595 85.088 130.787 84.976C130.987 84.864 131.179 84.808 131.363 84.808C131.483 84.808 131.587 84.832 131.675 84.88C131.763 84.928 131.839 84.996 131.903 85.084L132.767 86.164C132.439 86.548 132.071 86.872 131.663 87.136C131.255 87.392 130.827 87.6 130.379 87.76C129.939 87.912 129.487 88.02 129.023 88.084C128.567 88.148 128.123 88.18 127.691 88.18C126.835 88.18 126.039 88.04 125.303 87.76C124.567 87.472 123.927 87.052 123.383 86.5C122.839 85.94 122.411 85.252 122.099 84.436C121.787 83.612 121.631 82.66 121.631 81.58C121.631 80.74 121.767 79.952 122.039 79.216C122.311 78.472 122.699 77.828 123.203 77.284C123.715 76.732 124.335 76.296 125.063 75.976C125.799 75.656 126.627 75.496 127.547 75.496ZM127.607 77.62C126.743 77.62 126.067 77.864 125.579 78.352C125.091 78.84 124.779 79.532 124.643 80.428H130.211C130.211 80.044 130.159 79.684 130.055 79.348C129.951 79.004 129.791 78.704 129.575 78.448C129.359 78.192 129.087 77.992 128.759 77.848C128.431 77.696 128.047 77.62 127.607 77.62Z" fill="#163150"/>
<path d="M32.624 112.128C31.984 112.128 31.4907 111.949 31.144 111.592C30.8027 111.235 30.632 110.72 30.632 110.048V105.088H29.656C29.5707 105.088 29.4987 105.064 29.44 105.016C29.3813 104.963 29.352 104.883 29.352 104.776V104.208L30.68 104.04L31.008 101.536C31.0187 101.456 31.0533 101.392 31.112 101.344C31.1707 101.291 31.2453 101.264 31.336 101.264H32.056V104.056H34.376V105.088H32.056V109.952C32.056 110.293 32.1387 110.547 32.304 110.712C32.4693 110.877 32.6827 110.96 32.944 110.96C33.0933 110.96 33.2213 110.941 33.328 110.904C33.44 110.861 33.536 110.816 33.616 110.768C33.696 110.72 33.7627 110.677 33.816 110.64C33.8747 110.597 33.9253 110.576 33.968 110.576C34.0427 110.576 34.1093 110.621 34.168 110.712L34.584 111.392C34.3387 111.621 34.0427 111.803 33.696 111.936C33.3493 112.064 32.992 112.128 32.624 112.128ZM39.4168 103.768C40.0088 103.768 40.5421 103.867 41.0168 104.064C41.4968 104.261 41.9021 104.541 42.2328 104.904C42.5688 105.267 42.8248 105.707 43.0008 106.224C43.1821 106.736 43.2728 107.309 43.2728 107.944C43.2728 108.584 43.1821 109.16 43.0008 109.672C42.8248 110.184 42.5688 110.621 42.2328 110.984C41.9021 111.347 41.4968 111.627 41.0168 111.824C40.5421 112.016 40.0088 112.112 39.4168 112.112C38.8248 112.112 38.2888 112.016 37.8088 111.824C37.3341 111.627 36.9288 111.347 36.5928 110.984C36.2568 110.621 35.9981 110.184 35.8168 109.672C35.6354 109.16 35.5448 108.584 35.5448 107.944C35.5448 107.309 35.6354 106.736 35.8168 106.224C35.9981 105.707 36.2568 105.267 36.5928 104.904C36.9288 104.541 37.3341 104.261 37.8088 104.064C38.2888 103.867 38.8248 103.768 39.4168 103.768ZM39.4168 111C40.2168 111 40.8141 110.733 41.2088 110.2C41.6034 109.661 41.8008 108.912 41.8008 107.952C41.8008 106.987 41.6034 106.235 41.2088 105.696C40.8141 105.157 40.2168 104.888 39.4168 104.888C39.0114 104.888 38.6594 104.957 38.3608 105.096C38.0621 105.235 37.8114 105.435 37.6088 105.696C37.4114 105.957 37.2621 106.28 37.1608 106.664C37.0648 107.043 37.0168 107.472 37.0168 107.952C37.0168 108.432 37.0648 108.861 37.1608 109.24C37.2621 109.619 37.4114 109.939 37.6088 110.2C37.8114 110.456 38.0621 110.653 38.3608 110.792C38.6594 110.931 39.0114 111 39.4168 111ZM50.7314 112C50.5287 112 50.4007 111.901 50.3474 111.704L50.2194 110.72C49.8727 111.141 49.4754 111.48 49.0274 111.736C48.5847 111.987 48.0754 112.112 47.4994 112.112C47.0354 112.112 46.614 112.024 46.2354 111.848C45.8567 111.667 45.534 111.403 45.2674 111.056C45.0007 110.709 44.7954 110.277 44.6514 109.76C44.5074 109.243 44.4354 108.648 44.4354 107.976C44.4354 107.379 44.5154 106.824 44.6754 106.312C44.8354 105.795 45.0647 105.347 45.3634 104.968C45.6674 104.589 46.0354 104.293 46.4674 104.08C46.8994 103.861 47.39 103.752 47.9394 103.752C48.4354 103.752 48.8594 103.837 49.2114 104.008C49.5634 104.173 49.878 104.408 50.1554 104.712V100.216H51.5794V112H50.7314ZM47.9714 110.96C48.4354 110.96 48.8407 110.853 49.1874 110.64C49.5394 110.427 49.862 110.125 50.1554 109.736V105.816C49.894 105.464 49.606 105.219 49.2914 105.08C48.982 104.936 48.638 104.864 48.2594 104.864C47.502 104.864 46.9207 105.133 46.5154 105.672C46.11 106.211 45.9074 106.979 45.9074 107.976C45.9074 108.504 45.9527 108.957 46.0434 109.336C46.134 109.709 46.2674 110.019 46.4434 110.264C46.6194 110.504 46.8354 110.68 47.0914 110.792C47.3474 110.904 47.6407 110.96 47.9714 110.96ZM59.9169 112H59.2849C59.1462 112 59.0342 111.979 58.9489 111.936C58.8635 111.893 58.8075 111.803 58.7809 111.664L58.6209 110.912C58.4075 111.104 58.1995 111.277 57.9969 111.432C57.7942 111.581 57.5809 111.709 57.3569 111.816C57.1329 111.917 56.8929 111.995 56.6369 112.048C56.3862 112.101 56.1062 112.128 55.7969 112.128C55.4822 112.128 55.1862 112.085 54.9089 112C54.6369 111.909 54.3995 111.776 54.1969 111.6C53.9942 111.424 53.8315 111.203 53.7089 110.936C53.5915 110.664 53.5329 110.344 53.5329 109.976C53.5329 109.656 53.6209 109.349 53.7969 109.056C53.9729 108.757 54.2555 108.493 54.6449 108.264C55.0395 108.035 55.5542 107.848 56.1889 107.704C56.8235 107.555 57.5995 107.469 58.5169 107.448V106.816C58.5169 106.187 58.3809 105.712 58.1089 105.392C57.8422 105.067 57.4449 104.904 56.9169 104.904C56.5702 104.904 56.2769 104.949 56.0369 105.04C55.8022 105.125 55.5969 105.224 55.4209 105.336C55.2502 105.443 55.1009 105.541 54.9729 105.632C54.8502 105.717 54.7275 105.76 54.6049 105.76C54.5089 105.76 54.4235 105.736 54.3489 105.688C54.2795 105.635 54.2235 105.571 54.1809 105.496L53.9249 105.04C54.3729 104.608 54.8555 104.285 55.3729 104.072C55.8902 103.859 56.4635 103.752 57.0929 103.752C57.5462 103.752 57.9489 103.827 58.3009 103.976C58.6529 104.125 58.9489 104.333 59.1889 104.6C59.4289 104.867 59.6102 105.189 59.7329 105.568C59.8555 105.947 59.9169 106.363 59.9169 106.816V112ZM56.2209 111.128C56.4715 111.128 56.7009 111.104 56.9089 111.056C57.1169 111.003 57.3115 110.931 57.4929 110.84C57.6795 110.744 57.8555 110.629 58.0209 110.496C58.1915 110.363 58.3569 110.211 58.5169 110.04V108.352C57.8609 108.373 57.3035 108.427 56.8449 108.512C56.3862 108.592 56.0129 108.699 55.7249 108.832C55.4369 108.965 55.2262 109.123 55.0929 109.304C54.9649 109.485 54.9009 109.688 54.9009 109.912C54.9009 110.125 54.9355 110.309 55.0049 110.464C55.0742 110.619 55.1675 110.747 55.2849 110.848C55.4022 110.944 55.5409 111.016 55.7009 111.064C55.8609 111.107 56.0342 111.128 56.2209 111.128ZM64.2003 114.392C64.1523 114.499 64.0909 114.584 64.0163 114.648C63.9469 114.712 63.8376 114.744 63.6883 114.744H62.6323L64.1123 111.528L60.7683 103.896H62.0003C62.1229 103.896 62.2189 103.928 62.2883 103.992C62.3576 104.051 62.4083 104.117 62.4403 104.192L64.6083 109.296C64.6563 109.413 64.6963 109.531 64.7283 109.648C64.7656 109.765 64.7976 109.885 64.8243 110.008C64.8616 109.885 64.8989 109.765 64.9363 109.648C64.9736 109.531 65.0163 109.411 65.0642 109.288L67.1683 104.192C67.2003 104.107 67.2536 104.037 67.3283 103.984C67.4083 103.925 67.4936 103.896 67.5843 103.896H68.7203L64.2003 114.392ZM72.0495 103.896H73.1695C73.2868 103.896 73.3828 103.925 73.4575 103.984C73.5322 104.043 73.5828 104.112 73.6095 104.192L75.1615 109.408C75.2042 109.6 75.2442 109.787 75.2815 109.968C75.3188 110.144 75.3508 110.323 75.3775 110.504C75.4202 110.323 75.4682 110.144 75.5215 109.968C75.5748 109.787 75.6308 109.6 75.6895 109.408L77.4015 104.16C77.4282 104.08 77.4735 104.013 77.5375 103.96C77.6068 103.907 77.6922 103.88 77.7935 103.88H78.4095C78.5162 103.88 78.6042 103.907 78.6735 103.96C78.7428 104.013 78.7908 104.08 78.8175 104.16L80.4895 109.408C80.5482 109.595 80.5988 109.779 80.6415 109.96C80.6895 110.141 80.7348 110.32 80.7775 110.496C80.8042 110.32 80.8388 110.136 80.8815 109.944C80.9242 109.752 80.9695 109.573 81.0175 109.408L82.6015 104.192C82.6282 104.107 82.6788 104.037 82.7535 103.984C82.8282 103.925 82.9162 103.896 83.0175 103.896H84.0895L81.4655 112H80.3375C80.1988 112 80.1028 111.909 80.0495 111.728L78.2575 106.232C78.2148 106.109 78.1802 105.987 78.1535 105.864C78.1268 105.736 78.1002 105.611 78.0735 105.488C78.0468 105.611 78.0202 105.736 77.9935 105.864C77.9668 105.992 77.9322 106.117 77.8895 106.24L76.0735 111.728C76.0148 111.909 75.9055 112 75.7455 112H74.6735L72.0495 103.896ZM86.9395 103.896V112H85.5155V103.896H86.9395ZM87.2595 101.352C87.2595 101.491 87.2302 101.621 87.1715 101.744C87.1182 101.861 87.0435 101.968 86.9475 102.064C86.8568 102.155 86.7502 102.227 86.6275 102.28C86.5048 102.333 86.3742 102.36 86.2355 102.36C86.0968 102.36 85.9662 102.333 85.8435 102.28C85.7262 102.227 85.6195 102.155 85.5235 102.064C85.4328 101.968 85.3608 101.861 85.3075 101.744C85.2542 101.621 85.2275 101.491 85.2275 101.352C85.2275 101.213 85.2542 101.083 85.3075 100.96C85.3608 100.832 85.4328 100.723 85.5235 100.632C85.6195 100.536 85.7262 100.461 85.8435 100.408C85.9662 100.355 86.0968 100.328 86.2355 100.328C86.3742 100.328 86.5048 100.355 86.6275 100.408C86.7502 100.461 86.8568 100.536 86.9475 100.632C87.0435 100.723 87.1182 100.832 87.1715 100.96C87.2302 101.083 87.2595 101.213 87.2595 101.352ZM91.9053 112.128C91.2653 112.128 90.7719 111.949 90.4253 111.592C90.0839 111.235 89.9133 110.72 89.9133 110.048V105.088H88.9373C88.8519 105.088 88.7799 105.064 88.7213 105.016C88.6626 104.963 88.6333 104.883 88.6333 104.776V104.208L89.9613 104.04L90.2893 101.536C90.2999 101.456 90.3346 101.392 90.3932 101.344C90.4519 101.291 90.5266 101.264 90.6173 101.264H91.3373V104.056H93.6573V105.088H91.3373V109.952C91.3373 110.293 91.4199 110.547 91.5853 110.712C91.7506 110.877 91.9639 110.96 92.2253 110.96C92.3746 110.96 92.5026 110.941 92.6093 110.904C92.7213 110.861 92.8173 110.816 92.8973 110.768C92.9773 110.72 93.0439 110.677 93.0973 110.64C93.1559 110.597 93.2066 110.576 93.2493 110.576C93.3239 110.576 93.3906 110.621 93.4493 110.712L93.8653 111.392C93.6199 111.621 93.3239 111.803 92.9773 111.936C92.6306 112.064 92.2733 112.128 91.9053 112.128ZM95.418 112V100.216H96.842V104.984C97.1887 104.616 97.5727 104.323 97.994 104.104C98.4153 103.88 98.9007 103.768 99.45 103.768C99.8927 103.768 100.282 103.843 100.618 103.992C100.959 104.136 101.242 104.344 101.466 104.616C101.695 104.883 101.869 105.205 101.986 105.584C102.103 105.963 102.162 106.381 102.162 106.84V112H100.738V106.84C100.738 106.227 100.597 105.752 100.314 105.416C100.037 105.075 99.61 104.904 99.034 104.904C98.6127 104.904 98.218 105.005 97.85 105.208C97.4873 105.411 97.1513 105.685 96.842 106.032V112H95.418Z" fill="#282D32"/>
<path d="M226.536 83.5625C228.675 81.9792 230.087 79.4332 230.087 76.5449C230.087 71.731 226.194 67.8371 221.38 67.8371C216.566 67.8371 212.672 71.731 212.672 76.5449C212.672 81.3588 216.566 85.2527 221.38 85.2527C222.342 85.2527 223.262 85.1029 224.118 84.8034L227.221 88.1838H230.858L226.536 83.5625ZM215.924 76.5449C215.924 73.25 218.363 70.597 221.358 70.597C224.354 70.597 226.793 73.2714 226.793 76.5449C226.793 79.8397 224.354 82.4927 221.358 82.4927C218.363 82.4927 215.924 79.8397 215.924 76.5449Z" fill="#00C4C4"/>
<path d="M240.273 72.9077V79.5188V80.289V81.5727H240.294C239.974 82.3643 239.032 82.9206 237.92 82.9206C236.55 82.9206 235.416 82.0434 235.416 80.9522V78.4062V72.9291H232.699V81.5727C232.699 81.6155 232.699 81.6797 232.699 81.7225C232.699 83.6908 234.603 85.2741 236.935 85.2741C238.519 85.2741 239.909 84.5252 240.637 83.4341V84.6964H242.691V81.5513V76.0314V72.8863H240.273V72.9077Z" fill="#00C4C4"/>
<path d="M249.707 72.9077H246.861V85.2527H249.707V72.9077Z" fill="#00C4C4"/>
<path d="M248.294 71.6454C249.429 71.6454 250.348 70.7258 250.348 69.5914C250.348 68.4571 249.429 67.5375 248.294 67.5375C247.16 67.5375 246.24 68.4571 246.24 69.5914C246.24 70.7258 247.16 71.6454 248.294 71.6454Z" fill="#00C4C4"/>
<path d="M260.042 78.1495L264.406 72.9077H261.411L258.694 76.1597L257.56 77.529H256.533V77.5076V72.9933V67.5375H253.687V73.2286L253.623 73.2714L253.687 73.3356V85.2527H256.533V79.3048H256.832H257.752L258.351 80.182L261.817 85.2527H264.898L260.042 78.1495Z" fill="#00C4C4"/>
<path d="M278.656 67.6873V79.8397L270.162 68.7356L269.349 67.6873H267.316V69.9552V85.4024H270.162V73.6137L278.656 84.5038L279.362 85.4024H281.501V67.6873H278.656Z" fill="#00C4C4"/>
<path d="M290.423 72.9077C287.149 72.9077 284.518 75.6677 284.518 79.0909C284.518 82.5141 287.171 85.2741 290.423 85.2741C293.696 85.2741 296.328 82.5141 296.328 79.0909C296.328 75.6677 293.675 72.9077 290.423 72.9077ZM290.423 82.9634C288.69 82.9634 287.278 81.209 287.278 79.0695C287.278 76.93 288.69 75.1756 290.423 75.1756C292.156 75.1756 293.568 76.93 293.568 79.0695C293.568 81.209 292.156 82.9634 290.423 82.9634Z" fill="#00C4C4"/>
<path d="M306.425 67.6873V73.956C305.569 73.1002 304.478 72.5868 303.301 72.5868C300.52 72.5868 298.252 75.4323 298.252 78.9197C298.252 82.4071 300.52 85.2527 303.301 85.2527C304.478 85.2527 305.569 84.7392 306.425 83.8834V85.2527H309.27V67.6873H306.425ZM304.221 82.9634C302.659 82.9634 301.397 81.209 301.397 79.0695C301.397 76.93 302.659 75.1756 304.221 75.1756C305.12 75.1756 305.911 75.7532 306.425 76.6304V81.5085C305.89 82.4071 305.098 82.9634 304.221 82.9634Z" fill="#00C4C4"/>
<path d="M318.728 82.9634C316.631 82.9634 314.92 81.3801 314.642 79.3262H320.29C321.231 79.3262 322.194 79.3262 323.135 79.3048C323.178 79.1551 323.328 78.5132 323.285 77.6788C323.285 77.5076 323.178 76.0314 322.301 74.8332C321.124 73.2072 318.792 72.4156 316.76 72.9077C314.021 73.5495 312.416 76.3523 312.374 78.8555C312.331 81.8294 314.47 84.5038 316.952 85.1029C318.193 85.4024 319.37 85.1457 319.969 84.9531C321.616 84.4397 322.601 83.3699 322.943 82.9206L321.681 81.6369C320.953 82.4713 319.905 82.9634 318.728 82.9634ZM317.829 74.8119C319.391 74.8119 320.675 75.8602 320.675 77.1653C320.675 77.2509 320.675 77.3365 320.654 77.4221H315.005C314.984 77.3365 314.984 77.2509 314.984 77.1653C315.005 75.8602 316.268 74.8119 317.829 74.8119Z" fill="#00C4C4"/>
<path d="M188.261 87.8629C181.308 87.8629 175.681 82.236 175.681 75.2826C175.681 68.3292 181.308 62.7022 188.261 62.7022C197.397 62.7022 203.366 72.0733 199.836 80.2676L191.791 77.636L203.152 88.9968C206.49 85.3811 208.522 80.5671 208.522 75.2612C208.522 64.0715 199.451 55 188.261 55C177.072 55 168 64.0715 168 75.2612C168 86.4508 177.072 95.5223 188.261 95.5223C192.176 95.5223 195.814 94.4098 198.916 92.5056L207.923 96.1L196.562 84.7178C194.337 86.6648 191.428 87.8629 188.261 87.8629Z" fill="#1DB9DE"/>
</svg>
