<svg width="345" height="150" viewBox="0 0 345 150" fill="none" xmlns="http://www.w3.org/2000/svg">
<rect width="345" height="150" rx="3" fill="white"/>
<path d="M40.052 57.804C39.964 57.98 39.86 58.104 39.74 58.176C39.628 58.248 39.492 58.284 39.332 58.284C39.172 58.284 38.992 58.224 38.792 58.104C38.592 57.976 38.356 57.836 38.084 57.684C37.812 57.532 37.492 57.396 37.124 57.276C36.764 57.148 36.336 57.084 35.84 57.084C35.392 57.084 35 57.14 34.664 57.252C34.336 57.356 34.056 57.504 33.824 57.696C33.6 57.888 33.432 58.12 33.32 58.392C33.208 58.656 33.152 58.948 33.152 59.268C33.152 59.676 33.264 60.016 33.488 60.288C33.72 60.56 34.024 60.792 34.4 60.984C34.776 61.176 35.204 61.348 35.684 61.5C36.164 61.652 36.652 61.816 37.148 61.992C37.652 62.16 38.144 62.36 38.624 62.592C39.104 62.816 39.532 63.104 39.908 63.456C40.284 63.8 40.584 64.224 40.808 64.728C41.04 65.232 41.156 65.844 41.156 66.564C41.156 67.348 41.02 68.084 40.748 68.772C40.484 69.452 40.092 70.048 39.572 70.56C39.06 71.064 38.432 71.464 37.688 71.76C36.944 72.048 36.092 72.192 35.132 72.192C34.58 72.192 34.036 72.136 33.5 72.024C32.964 71.92 32.448 71.768 31.952 71.568C31.464 71.368 31.004 71.128 30.572 70.848C30.148 70.568 29.768 70.256 29.432 69.912L30.368 68.364C30.456 68.252 30.56 68.16 30.68 68.088C30.808 68.008 30.948 67.968 31.1 67.968C31.3 67.968 31.516 68.052 31.748 68.22C31.98 68.38 32.252 68.56 32.564 68.76C32.884 68.96 33.256 69.144 33.68 69.312C34.112 69.472 34.628 69.552 35.228 69.552C36.148 69.552 36.86 69.336 37.364 68.904C37.868 68.464 38.12 67.836 38.12 67.02C38.12 66.564 38.004 66.192 37.772 65.904C37.548 65.616 37.248 65.376 36.872 65.184C36.496 64.984 36.068 64.816 35.588 64.68C35.108 64.544 34.62 64.396 34.124 64.236C33.628 64.076 33.14 63.884 32.66 63.66C32.18 63.436 31.752 63.144 31.376 62.784C31 62.424 30.696 61.976 30.464 61.44C30.24 60.896 30.128 60.228 30.128 59.436C30.128 58.804 30.252 58.188 30.5 57.588C30.756 56.988 31.124 56.456 31.604 55.992C32.092 55.528 32.688 55.156 33.392 54.876C34.096 54.596 34.9 54.456 35.804 54.456C36.828 54.456 37.772 54.616 38.636 54.936C39.5 55.256 40.236 55.704 40.844 56.28L40.052 57.804ZM41.9512 59.688H44.3032C44.5272 59.688 44.7152 59.74 44.8672 59.844C45.0192 59.948 45.1152 60.08 45.1552 60.24L46.9192 66.816C47.0152 67.176 47.0912 67.528 47.1472 67.872C47.2112 68.216 47.2712 68.56 47.3272 68.904C47.4152 68.56 47.5072 68.216 47.6032 67.872C47.7072 67.528 47.8152 67.176 47.9272 66.816L49.9672 60.216C50.0152 60.056 50.1112 59.924 50.2552 59.82C50.3992 59.716 50.5672 59.664 50.7592 59.664H52.0672C52.2832 59.664 52.4632 59.716 52.6072 59.82C52.7512 59.924 52.8472 60.056 52.8952 60.216L54.9112 66.936C55.0152 67.28 55.1072 67.616 55.1872 67.944C55.2752 68.264 55.3592 68.588 55.4392 68.916C55.4952 68.572 55.5552 68.228 55.6192 67.884C55.6912 67.54 55.7792 67.184 55.8832 66.816L57.7072 60.24C57.7472 60.08 57.8432 59.948 57.9952 59.844C58.1472 59.74 58.3232 59.688 58.5232 59.688H60.7672L56.8672 72H54.4792C54.2232 72 54.0392 71.824 53.9272 71.472L51.7072 64.356C51.6352 64.124 51.5672 63.892 51.5032 63.66C51.4472 63.42 51.3992 63.184 51.3592 62.952C51.3112 63.192 51.2592 63.432 51.2032 63.672C51.1472 63.904 51.0832 64.14 51.0112 64.38L48.7672 71.472C48.6552 71.824 48.4392 72 48.1192 72H45.8512L41.9512 59.688ZM72.0836 72H70.7516C70.4716 72 70.2516 71.96 70.0916 71.88C69.9316 71.792 69.8116 71.62 69.7316 71.364L69.4676 70.488C69.1556 70.768 68.8476 71.016 68.5436 71.232C68.2476 71.44 67.9396 71.616 67.6196 71.76C67.2996 71.904 66.9596 72.012 66.5996 72.084C66.2396 72.156 65.8396 72.192 65.3996 72.192C64.8796 72.192 64.3996 72.124 63.9596 71.988C63.5196 71.844 63.1396 71.632 62.8196 71.352C62.5076 71.072 62.2636 70.724 62.0876 70.308C61.9116 69.892 61.8236 69.408 61.8236 68.856C61.8236 68.392 61.9436 67.936 62.1836 67.488C62.4316 67.032 62.8396 66.624 63.4076 66.264C63.9756 65.896 64.7316 65.592 65.6756 65.352C66.6196 65.112 67.7916 64.976 69.1916 64.944V64.224C69.1916 63.4 69.0156 62.792 68.6636 62.4C68.3196 62 67.8156 61.8 67.1516 61.8C66.6716 61.8 66.2716 61.856 65.9516 61.968C65.6316 62.08 65.3516 62.208 65.1116 62.352C64.8796 62.488 64.6636 62.612 64.4636 62.724C64.2636 62.836 64.0436 62.892 63.8036 62.892C63.6036 62.892 63.4316 62.84 63.2876 62.736C63.1436 62.632 63.0276 62.504 62.9396 62.352L62.3996 61.404C63.8156 60.108 65.5236 59.46 67.5236 59.46C68.2436 59.46 68.8836 59.58 69.4436 59.82C70.0116 60.052 70.4916 60.38 70.8836 60.804C71.2756 61.22 71.5716 61.72 71.7716 62.304C71.9796 62.888 72.0836 63.528 72.0836 64.224V72ZM66.3236 70.152C66.6276 70.152 66.9076 70.124 67.1636 70.068C67.4196 70.012 67.6596 69.928 67.8836 69.816C68.1156 69.704 68.3356 69.568 68.5436 69.408C68.7596 69.24 68.9756 69.044 69.1916 68.82V66.744C68.3276 66.784 67.6036 66.86 67.0196 66.972C66.4436 67.076 65.9796 67.212 65.6276 67.38C65.2756 67.548 65.0236 67.744 64.8716 67.968C64.7276 68.192 64.6556 68.436 64.6556 68.7C64.6556 69.22 64.8076 69.592 65.1116 69.816C65.4236 70.04 65.8276 70.152 66.3236 70.152ZM74.9981 76.02V59.688H76.8101C77.0021 59.688 77.1661 59.732 77.3021 59.82C77.4381 59.908 77.5261 60.044 77.5661 60.228L77.8061 61.368C78.3021 60.8 78.8701 60.34 79.5101 59.988C80.1581 59.636 80.9141 59.46 81.7781 59.46C82.4501 59.46 83.0621 59.6 83.6141 59.88C84.1741 60.16 84.6541 60.568 85.0541 61.104C85.4621 61.632 85.7741 62.288 85.9901 63.072C86.2141 63.848 86.3261 64.74 86.3261 65.748C86.3261 66.668 86.2021 67.52 85.9541 68.304C85.7061 69.088 85.3501 69.768 84.8861 70.344C84.4301 70.92 83.8741 71.372 83.2181 71.7C82.5701 72.02 81.8421 72.18 81.0341 72.18C80.3381 72.18 79.7461 72.076 79.2581 71.868C78.7781 71.652 78.3461 71.356 77.9621 70.98V76.02H74.9981ZM80.7581 61.8C80.1421 61.8 79.6141 61.932 79.1741 62.196C78.7421 62.452 78.3381 62.816 77.9621 63.288V68.808C78.2981 69.224 78.6621 69.516 79.0541 69.684C79.4541 69.844 79.8821 69.924 80.3381 69.924C80.7861 69.924 81.1901 69.84 81.5501 69.672C81.9181 69.504 82.2261 69.248 82.4741 68.904C82.7301 68.56 82.9261 68.128 83.0621 67.608C83.1981 67.08 83.2661 66.46 83.2661 65.748C83.2661 65.028 83.2061 64.42 83.0861 63.924C82.9741 63.42 82.8101 63.012 82.5941 62.7C82.3781 62.388 82.1141 62.16 81.8021 62.016C81.4981 61.872 81.1501 61.8 80.7581 61.8ZM108.629 72H106.133C105.853 72 105.621 71.932 105.437 71.796C105.261 71.652 105.133 71.476 105.053 71.268L103.757 67.728H96.569L95.273 71.268C95.209 71.452 95.081 71.62 94.889 71.772C94.705 71.924 94.477 72 94.205 72H91.697L98.513 54.648H101.813L108.629 72ZM97.397 65.448H102.929L100.817 59.676C100.721 59.42 100.613 59.12 100.493 58.776C100.381 58.424 100.269 58.044 100.157 57.636C100.045 58.044 99.933 58.424 99.821 58.776C99.717 59.128 99.613 59.436 99.509 59.7L97.397 65.448ZM117.556 62.088C117.476 62.216 117.392 62.308 117.304 62.364C117.216 62.412 117.104 62.436 116.968 62.436C116.824 62.436 116.668 62.396 116.5 62.316C116.34 62.236 116.152 62.148 115.936 62.052C115.72 61.948 115.472 61.856 115.192 61.776C114.92 61.696 114.596 61.656 114.22 61.656C113.636 61.656 113.176 61.78 112.84 62.028C112.504 62.276 112.336 62.6 112.336 63C112.336 63.264 112.42 63.488 112.588 63.672C112.764 63.848 112.992 64.004 113.272 64.14C113.56 64.276 113.884 64.4 114.244 64.512C114.604 64.616 114.972 64.732 115.348 64.86C115.724 64.988 116.092 65.136 116.452 65.304C116.812 65.464 117.132 65.672 117.412 65.928C117.7 66.176 117.928 66.476 118.096 66.828C118.272 67.18 118.36 67.604 118.36 68.1C118.36 68.692 118.252 69.24 118.036 69.744C117.82 70.24 117.504 70.672 117.088 71.04C116.672 71.4 116.156 71.684 115.54 71.892C114.932 72.092 114.232 72.192 113.44 72.192C113.016 72.192 112.6 72.152 112.192 72.072C111.792 72 111.404 71.896 111.028 71.76C110.66 71.624 110.316 71.464 109.996 71.28C109.684 71.096 109.408 70.896 109.168 70.68L109.852 69.552C109.94 69.416 110.044 69.312 110.164 69.24C110.284 69.168 110.436 69.132 110.62 69.132C110.804 69.132 110.976 69.184 111.136 69.288C111.304 69.392 111.496 69.504 111.712 69.624C111.928 69.744 112.18 69.856 112.468 69.96C112.764 70.064 113.136 70.116 113.584 70.116C113.936 70.116 114.236 70.076 114.484 69.996C114.74 69.908 114.948 69.796 115.108 69.66C115.276 69.524 115.396 69.368 115.468 69.192C115.548 69.008 115.588 68.82 115.588 68.628C115.588 68.34 115.5 68.104 115.324 67.92C115.156 67.736 114.928 67.576 114.64 67.44C114.36 67.304 114.036 67.184 113.668 67.08C113.308 66.968 112.936 66.848 112.552 66.72C112.176 66.592 111.804 66.444 111.436 66.276C111.076 66.1 110.752 65.88 110.464 65.616C110.184 65.352 109.956 65.028 109.78 64.644C109.612 64.26 109.528 63.796 109.528 63.252C109.528 62.748 109.628 62.268 109.828 61.812C110.028 61.356 110.32 60.96 110.704 60.624C111.096 60.28 111.58 60.008 112.156 59.808C112.74 59.6 113.412 59.496 114.172 59.496C115.02 59.496 115.792 59.636 116.488 59.916C117.184 60.196 117.764 60.564 118.228 61.02L117.556 62.088ZM128.033 62.088C127.953 62.216 127.869 62.308 127.781 62.364C127.693 62.412 127.581 62.436 127.445 62.436C127.301 62.436 127.145 62.396 126.977 62.316C126.817 62.236 126.629 62.148 126.413 62.052C126.197 61.948 125.949 61.856 125.669 61.776C125.397 61.696 125.073 61.656 124.697 61.656C124.113 61.656 123.653 61.78 123.317 62.028C122.981 62.276 122.813 62.6 122.813 63C122.813 63.264 122.897 63.488 123.065 63.672C123.241 63.848 123.469 64.004 123.749 64.14C124.037 64.276 124.361 64.4 124.721 64.512C125.081 64.616 125.449 64.732 125.825 64.86C126.201 64.988 126.569 65.136 126.929 65.304C127.289 65.464 127.609 65.672 127.889 65.928C128.177 66.176 128.405 66.476 128.573 66.828C128.749 67.18 128.837 67.604 128.837 68.1C128.837 68.692 128.729 69.24 128.513 69.744C128.297 70.24 127.981 70.672 127.565 71.04C127.149 71.4 126.633 71.684 126.017 71.892C125.409 72.092 124.709 72.192 123.917 72.192C123.493 72.192 123.077 72.152 122.669 72.072C122.269 72 121.881 71.896 121.505 71.76C121.137 71.624 120.793 71.464 120.473 71.28C120.161 71.096 119.885 70.896 119.645 70.68L120.329 69.552C120.417 69.416 120.521 69.312 120.641 69.24C120.761 69.168 120.913 69.132 121.097 69.132C121.281 69.132 121.453 69.184 121.613 69.288C121.781 69.392 121.973 69.504 122.189 69.624C122.405 69.744 122.657 69.856 122.945 69.96C123.241 70.064 123.613 70.116 124.061 70.116C124.413 70.116 124.713 70.076 124.961 69.996C125.217 69.908 125.425 69.796 125.585 69.66C125.753 69.524 125.873 69.368 125.945 69.192C126.025 69.008 126.065 68.82 126.065 68.628C126.065 68.34 125.977 68.104 125.801 67.92C125.633 67.736 125.405 67.576 125.117 67.44C124.837 67.304 124.513 67.184 124.145 67.08C123.785 66.968 123.413 66.848 123.029 66.72C122.653 66.592 122.281 66.444 121.913 66.276C121.553 66.1 121.229 65.88 120.941 65.616C120.661 65.352 120.433 65.028 120.257 64.644C120.089 64.26 120.005 63.796 120.005 63.252C120.005 62.748 120.105 62.268 120.305 61.812C120.505 61.356 120.797 60.96 121.181 60.624C121.573 60.28 122.057 60.008 122.633 59.808C123.217 59.6 123.889 59.496 124.649 59.496C125.497 59.496 126.269 59.636 126.965 59.916C127.661 60.196 128.241 60.564 128.705 61.02L128.033 62.088ZM136.289 59.496C137.065 59.496 137.777 59.62 138.425 59.868C139.081 60.116 139.645 60.48 140.117 60.96C140.589 61.432 140.957 62.016 141.221 62.712C141.485 63.4 141.617 64.188 141.617 65.076C141.617 65.3 141.605 65.488 141.581 65.64C141.565 65.784 141.529 65.9 141.473 65.988C141.425 66.068 141.357 66.128 141.269 66.168C141.181 66.2 141.069 66.216 140.933 66.216H133.325C133.413 67.48 133.753 68.408 134.345 69C134.937 69.592 135.721 69.888 136.697 69.888C137.177 69.888 137.589 69.832 137.933 69.72C138.285 69.608 138.589 69.484 138.845 69.348C139.109 69.212 139.337 69.088 139.529 68.976C139.729 68.864 139.921 68.808 140.105 68.808C140.225 68.808 140.329 68.832 140.417 68.88C140.505 68.928 140.581 68.996 140.645 69.084L141.509 70.164C141.181 70.548 140.813 70.872 140.405 71.136C139.997 71.392 139.569 71.6 139.121 71.76C138.681 71.912 138.229 72.02 137.765 72.084C137.309 72.148 136.865 72.18 136.433 72.18C135.577 72.18 134.781 72.04 134.045 71.76C133.309 71.472 132.669 71.052 132.125 70.5C131.581 69.94 131.153 69.252 130.841 68.436C130.529 67.612 130.373 66.66 130.373 65.58C130.373 64.74 130.509 63.952 130.781 63.216C131.053 62.472 131.441 61.828 131.945 61.284C132.457 60.732 133.077 60.296 133.805 59.976C134.541 59.656 135.369 59.496 136.289 59.496ZM136.349 61.62C135.485 61.62 134.809 61.864 134.321 62.352C133.833 62.84 133.521 63.532 133.385 64.428H138.953C138.953 64.044 138.901 63.684 138.797 63.348C138.693 63.004 138.533 62.704 138.317 62.448C138.101 62.192 137.829 61.992 137.501 61.848C137.173 61.696 136.789 61.62 136.349 61.62ZM148.066 72.192C147.002 72.192 146.182 71.892 145.605 71.292C145.03 70.684 144.742 69.848 144.742 68.784V61.908H143.494C143.334 61.908 143.194 61.856 143.074 61.752C142.962 61.648 142.906 61.492 142.906 61.284V60.108L144.886 59.784L145.51 56.424C145.542 56.264 145.614 56.14 145.726 56.052C145.846 55.964 145.994 55.92 146.17 55.92H147.706V59.796H150.946V61.908H147.706V68.58C147.706 68.964 147.802 69.264 147.994 69.48C148.186 69.696 148.442 69.804 148.762 69.804C148.946 69.804 149.098 69.784 149.217 69.744C149.346 69.696 149.454 69.648 149.542 69.6C149.638 69.552 149.722 69.508 149.794 69.468C149.866 69.42 149.938 69.396 150.01 69.396C150.098 69.396 150.17 69.42 150.226 69.468C150.282 69.508 150.342 69.572 150.406 69.66L151.294 71.1C150.862 71.46 150.366 71.732 149.806 71.916C149.246 72.1 148.666 72.192 148.066 72.192ZM160.611 62.088C160.531 62.216 160.447 62.308 160.359 62.364C160.271 62.412 160.159 62.436 160.023 62.436C159.879 62.436 159.723 62.396 159.555 62.316C159.395 62.236 159.207 62.148 158.991 62.052C158.775 61.948 158.527 61.856 158.247 61.776C157.975 61.696 157.651 61.656 157.275 61.656C156.691 61.656 156.231 61.78 155.895 62.028C155.559 62.276 155.391 62.6 155.391 63C155.391 63.264 155.475 63.488 155.643 63.672C155.819 63.848 156.047 64.004 156.327 64.14C156.615 64.276 156.939 64.4 157.299 64.512C157.659 64.616 158.027 64.732 158.403 64.86C158.779 64.988 159.147 65.136 159.507 65.304C159.867 65.464 160.187 65.672 160.467 65.928C160.755 66.176 160.983 66.476 161.151 66.828C161.327 67.18 161.415 67.604 161.415 68.1C161.415 68.692 161.307 69.24 161.091 69.744C160.875 70.24 160.559 70.672 160.143 71.04C159.727 71.4 159.211 71.684 158.595 71.892C157.987 72.092 157.287 72.192 156.495 72.192C156.071 72.192 155.655 72.152 155.247 72.072C154.847 72 154.459 71.896 154.083 71.76C153.715 71.624 153.371 71.464 153.051 71.28C152.739 71.096 152.463 70.896 152.223 70.68L152.907 69.552C152.995 69.416 153.099 69.312 153.219 69.24C153.339 69.168 153.491 69.132 153.675 69.132C153.859 69.132 154.031 69.184 154.191 69.288C154.359 69.392 154.551 69.504 154.767 69.624C154.983 69.744 155.235 69.856 155.523 69.96C155.819 70.064 156.191 70.116 156.639 70.116C156.991 70.116 157.291 70.076 157.539 69.996C157.795 69.908 158.003 69.796 158.163 69.66C158.331 69.524 158.451 69.368 158.523 69.192C158.603 69.008 158.643 68.82 158.643 68.628C158.643 68.34 158.555 68.104 158.379 67.92C158.211 67.736 157.983 67.576 157.695 67.44C157.415 67.304 157.091 67.184 156.723 67.08C156.363 66.968 155.991 66.848 155.607 66.72C155.231 66.592 154.859 66.444 154.491 66.276C154.131 66.1 153.807 65.88 153.519 65.616C153.239 65.352 153.011 65.028 152.835 64.644C152.667 64.26 152.583 63.796 152.583 63.252C152.583 62.748 152.683 62.268 152.883 61.812C153.083 61.356 153.375 60.96 153.759 60.624C154.151 60.28 154.635 60.008 155.211 59.808C155.795 59.6 156.467 59.496 157.227 59.496C158.075 59.496 158.847 59.636 159.543 59.916C160.239 60.196 160.819 60.564 161.283 61.02L160.611 62.088Z" fill="#163150"/>
<path d="M41.304 90.896L38.68 99H37.552C37.4133 99 37.3173 98.9093 37.264 98.728L35.472 93.232C35.4293 93.1093 35.3947 92.9867 35.368 92.864C35.3413 92.736 35.3147 92.6107 35.288 92.488C35.2613 92.6107 35.2347 92.736 35.208 92.864C35.1813 92.9867 35.1467 93.112 35.104 93.24L33.28 98.728C33.232 98.9093 33.1253 99 32.96 99H31.888L29.264 90.896H30.384C30.496 90.896 30.5893 90.9253 30.664 90.984C30.744 91.0427 30.7973 91.112 30.824 91.192L32.376 96.408C32.4667 96.792 32.5387 97.1547 32.592 97.496C32.64 97.32 32.688 97.1413 32.736 96.96C32.7893 96.7787 32.8453 96.5947 32.904 96.408L34.616 91.16C34.6427 91.08 34.688 91.0133 34.752 90.96C34.8213 90.9067 34.904 90.88 35 90.88H35.624C35.7307 90.88 35.8187 90.9067 35.888 90.96C35.9573 91.0133 36.0053 91.08 36.032 91.16L37.704 96.408C37.7627 96.5947 37.816 96.7787 37.864 96.96C37.912 97.1413 37.9573 97.32 38 97.496C38.0267 97.32 38.0587 97.144 38.096 96.968C38.1387 96.7867 38.184 96.6 38.232 96.408L39.816 91.192C39.8427 91.1067 39.8933 91.0373 39.968 90.984C40.0427 90.9253 40.1307 90.896 40.232 90.896H41.304ZM44.1945 90.896V99H42.7705V90.896H44.1945ZM44.4985 88.352C44.4985 88.4907 44.4692 88.6213 44.4105 88.744C44.3572 88.8613 44.2825 88.968 44.1865 89.064C44.0958 89.1547 43.9865 89.2267 43.8585 89.28C43.7358 89.3333 43.6052 89.36 43.4665 89.36C43.3278 89.36 43.1972 89.3333 43.0745 89.28C42.9572 89.2267 42.8532 89.1547 42.7625 89.064C42.6718 88.968 42.5998 88.8613 42.5465 88.744C42.4932 88.6213 42.4665 88.4907 42.4665 88.352C42.4665 88.2133 42.4932 88.0827 42.5465 87.96C42.5998 87.832 42.6718 87.7227 42.7625 87.632C42.8532 87.536 42.9572 87.4613 43.0745 87.408C43.1972 87.3547 43.3278 87.328 43.4665 87.328C43.6052 87.328 43.7358 87.3547 43.8585 87.408C43.9865 87.4613 44.0958 87.536 44.1865 87.632C44.2825 87.7227 44.3572 87.832 44.4105 87.96C44.4692 88.0827 44.4985 88.2133 44.4985 88.352ZM49.0223 99.128C48.3823 99.128 47.8889 98.9493 47.5423 98.592C47.2009 98.2347 47.0303 97.72 47.0303 97.048V92.088H46.0543C45.9689 92.088 45.8969 92.064 45.8383 92.016C45.7796 91.9627 45.7503 91.8827 45.7503 91.776V91.208L47.0783 91.04L47.4062 88.536C47.4223 88.456 47.4569 88.392 47.5103 88.344C47.5689 88.2907 47.6436 88.264 47.7343 88.264H48.4543V91.056H50.7983V92.088H48.4543V96.952C48.4543 97.2933 48.5369 97.5467 48.7023 97.712C48.8676 97.8773 49.0809 97.96 49.3423 97.96C49.4916 97.96 49.6196 97.9413 49.7263 97.904C49.8383 97.8613 49.9343 97.816 50.0143 97.768C50.0943 97.72 50.1609 97.6773 50.2143 97.64C50.2729 97.5973 50.3236 97.576 50.3663 97.576C50.4409 97.576 50.5076 97.6213 50.5663 97.712L50.9823 98.392C50.7369 98.6213 50.4409 98.8027 50.0943 98.936C49.7476 99.064 49.3903 99.128 49.0223 99.128ZM53.7006 91.976C54.0473 91.608 54.4313 91.3147 54.8526 91.096C55.274 90.8773 55.7593 90.768 56.3086 90.768C56.7513 90.768 57.1406 90.8427 57.4766 90.992C57.818 91.136 58.1006 91.344 58.3246 91.616C58.554 91.8827 58.7273 92.2053 58.8446 92.584C58.962 92.9627 59.0206 93.3813 59.0206 93.84V99H57.5886V93.84C57.5886 93.2267 57.4473 92.752 57.1646 92.416C56.8873 92.0747 56.4633 91.904 55.8926 91.904C55.4713 91.904 55.0766 92.0053 54.7086 92.208C54.346 92.4107 54.01 92.6853 53.7006 93.032V99H52.2686V87.216H53.7006V91.976Z" fill="#282D32"/>
<mask id="mask0" mask-type="alpha" maskUnits="userSpaceOnUse" x="203" y="29" width="75" height="76">
<path fill-rule="evenodd" clip-rule="evenodd" d="M203 29.4468H277.894V104.34H203V29.4468Z" fill="white"/>
</mask>
<g mask="url(#mask0)">
<path fill-rule="evenodd" clip-rule="evenodd" d="M240.386 35.4893C223.178 35.4893 209.228 49.4572 209.228 66.6873C209.228 83.9177 223.178 97.8856 240.386 97.8856C257.594 97.8856 271.544 83.9177 271.544 66.6873C271.544 49.4572 257.594 35.4893 240.386 35.4893Z" fill="white"/>
<path fill-rule="evenodd" clip-rule="evenodd" d="M240.447 29.2495C219.766 29.2495 203 46.0145 203 66.695C203 87.3758 219.766 104.141 240.447 104.141C261.128 104.141 277.894 87.3758 277.894 66.695C277.894 46.0145 261.128 29.2495 240.447 29.2495ZM264.119 63.3267C262.84 64.6229 260.784 64.6444 259.528 63.3744L254.872 58.6669C252.853 56.6255 249.549 56.6598 247.492 58.7435L242.75 63.5489C242.011 64.2976 241.013 64.6182 240.06 64.5132C239.333 64.4524 238.627 64.1443 238.075 63.5863L233.418 58.8785C231.399 56.837 228.095 56.8713 226.038 58.9554L221.296 63.7608C220.016 65.0569 217.961 65.0784 216.705 63.8084C214.686 61.767 214.716 58.4226 216.773 56.3388L226.149 46.8394C228.206 44.7556 231.51 44.721 233.529 46.7624L240.506 53.8173L247.603 46.6275C249.66 44.5437 252.964 44.5091 254.983 46.5509L264.187 55.8572C266.206 57.8986 266.176 61.243 264.119 63.3267ZM253.987 78.9344L244.353 88.6952C242.24 90.8364 238.812 90.8382 236.696 88.6993L227.053 78.9487C224.937 76.8098 224.936 73.3401 227.049 71.199C228.363 69.8671 230.496 69.8661 231.812 71.1965L236.69 76.1287C238.806 78.2679 242.234 78.2661 244.347 76.1249L249.22 71.1875C250.534 69.8555 252.667 69.8543 253.983 71.1847C256.098 73.3236 256.1 76.7933 253.987 78.9344Z" fill="#007A99"/>
</g>
<circle cx="284.915" cy="91.4679" r="28.0851" fill="white"/>
<path fill-rule="evenodd" clip-rule="evenodd" d="M286.849 89.862C287.061 90.7296 287.166 91.6332 287.151 92.5546L291.002 92.0887C291.619 92.014 292.222 92.3134 292.535 92.8507C292.849 93.3879 292.814 94.0603 292.445 94.5616L290.569 97.1162C294.787 98.7003 299.621 96.3957 300.418 91.5213C301.088 87.4239 298.353 83.5879 294.358 82.9214C293.5 82.7783 292.655 82.792 291.848 82.941L292.411 87.4892C292.515 88.3296 291.93 89.1003 291.093 89.2258L286.849 89.862ZM277.879 85.0231C281.649 85.6521 284.295 89.1035 284.016 92.934L278.018 93.6597C277.178 93.7613 276.573 94.5144 276.653 95.3571L277.085 99.8766C276.555 99.9073 276.012 99.8798 275.465 99.7885C271.472 99.1223 268.74 95.2898 269.409 91.1941C270.079 87.0985 273.886 84.357 277.879 85.0231ZM274.962 102.868C275.778 103.004 276.589 103.041 277.382 102.987L277.935 108.776C277.995 109.411 278.436 109.946 279.048 110.125C279.66 110.305 280.319 110.093 280.713 109.592L282.918 106.781C286.806 108.519 290.958 108.428 294.302 106.87C297.835 105.224 300.437 101.941 300.766 97.6122C302.131 96.1979 303.12 94.3212 303.495 92.0251C304.437 86.267 300.597 80.7987 294.871 79.8434C293.713 79.6502 292.565 79.6573 291.465 79.8404L290.756 74.1116C290.678 73.4786 290.222 72.9574 289.606 72.7957C288.99 72.6339 288.336 72.8642 287.957 73.3771L285.832 76.2471C281.875 74.6012 277.674 74.7496 274.333 76.3613C270.669 78.129 268.072 81.6593 268.105 86.3009C267.221 87.5685 266.6 89.0517 266.333 90.681C265.392 96.4409 269.233 101.912 274.962 102.868ZM271.888 82.9732C272.642 81.2857 273.99 79.9897 275.685 79.1722C278.437 77.8446 282.134 77.7836 285.608 79.5843C286.288 79.9365 287.123 79.7426 287.579 79.1266L288.14 78.368L289.129 86.3651L285.625 86.8905C284.096 84.3486 281.523 82.4675 278.383 81.9436C276.072 81.558 273.817 81.9683 271.888 82.9732ZM293.319 86.3835C293.595 85.5677 294.48 85.1326 295.295 85.4115C297.588 86.196 299.005 88.5635 298.604 91.0197C298.329 92.6995 297.265 94.058 295.851 94.7518C295.079 95.1309 294.145 94.8104 293.765 94.0361C293.384 93.2618 293.701 92.3268 294.473 91.9478C295.007 91.6858 295.42 91.1667 295.528 90.5065C295.687 89.5337 295.122 88.6485 294.295 88.3656C293.48 88.0867 293.043 87.1992 293.319 86.3835ZM296.99 100.061C293.946 101.181 290.364 100.893 287.385 98.9912C287.021 98.7591 286.77 98.3865 286.691 97.9622C286.611 97.5379 286.711 97.0997 286.967 96.7519L287.799 95.6195L279.902 96.575L280.668 104.596L281.25 103.854C281.723 103.252 282.563 103.082 283.233 103.453C286.611 105.328 290.235 105.322 292.986 104.041C294.767 103.211 296.194 101.847 296.99 100.061ZM275.064 88.9034C274.469 88.2802 273.482 88.2573 272.86 88.8524C272.237 89.4474 272.214 90.4351 272.809 91.0583L274.04 92.3488L272.976 93.4635C272.382 94.0868 272.404 95.0744 273.027 95.6694C273.65 96.2645 274.637 96.2416 275.232 95.6184L279.578 91.0627C280.173 90.4395 280.15 89.4518 279.527 88.8568C278.904 88.2617 277.917 88.2846 277.323 88.9079L276.195 90.0894L275.064 88.9034Z" fill="#007A99"/>
</svg>
