<svg width="1200" height="120" viewBox="0 0 1200 120" fill="none" xmlns="http://www.w3.org/2000/svg">
<rect width="1200" height="120" fill="white"/>
<mask id="mask0" mask-type="alpha" maskUnits="userSpaceOnUse" x="0" y="0" width="1200" height="120">
<rect width="1200" height="120" fill="white"/>
</mask>
<g mask="url(#mask0)">
<g filter="url(#filter0_d)">
<ellipse cx="843.5" cy="60" rx="434.5" ry="252" fill="url(#paint0_linear)"/>
</g>
</g>
<path d="M493.723 50.3825C493.558 50.7125 493.363 50.945 493.138 51.08C492.928 51.215 492.673 51.2825 492.373 51.2825C492.073 51.2825 491.735 51.17 491.36 50.945C490.985 50.705 490.543 50.4425 490.033 50.1575C489.523 49.8725 488.923 49.6175 488.233 49.3925C487.558 49.1525 486.755 49.0325 485.825 49.0325C484.985 49.0325 484.25 49.1375 483.62 49.3475C483.005 49.5425 482.48 49.82 482.045 50.18C481.625 50.54 481.31 50.975 481.1 51.485C480.89 51.98 480.785 52.5275 480.785 53.1275C480.785 53.8925 480.995 54.53 481.415 55.04C481.85 55.55 482.42 55.985 483.125 56.345C483.83 56.705 484.633 57.0275 485.533 57.3125C486.433 57.5975 487.348 57.905 488.278 58.235C489.223 58.55 490.145 58.925 491.045 59.36C491.945 59.78 492.748 60.32 493.453 60.98C494.158 61.625 494.72 62.42 495.14 63.365C495.575 64.31 495.793 65.4575 495.793 66.8075C495.793 68.2775 495.538 69.6575 495.028 70.9475C494.533 72.2225 493.798 73.34 492.823 74.3C491.863 75.245 490.685 75.995 489.29 76.55C487.895 77.09 486.298 77.36 484.498 77.36C483.463 77.36 482.443 77.255 481.438 77.045C480.433 76.85 479.465 76.565 478.535 76.19C477.62 75.815 476.758 75.365 475.948 74.84C475.153 74.315 474.44 73.73 473.81 73.085L475.565 70.1825C475.73 69.9725 475.925 69.8 476.15 69.665C476.39 69.515 476.653 69.44 476.938 69.44C477.313 69.44 477.718 69.5975 478.153 69.9125C478.588 70.2125 479.098 70.55 479.683 70.925C480.283 71.3 480.98 71.645 481.775 71.96C482.585 72.26 483.553 72.41 484.678 72.41C486.403 72.41 487.738 72.005 488.683 71.195C489.628 70.37 490.1 69.1925 490.1 67.6625C490.1 66.8075 489.883 66.11 489.448 65.57C489.028 65.03 488.465 64.58 487.76 64.22C487.055 63.845 486.253 63.53 485.353 63.275C484.453 63.02 483.538 62.7425 482.608 62.4425C481.678 62.1425 480.763 61.7825 479.863 61.3625C478.963 60.9425 478.16 60.395 477.455 59.72C476.75 59.045 476.18 58.205 475.745 57.2C475.325 56.18 475.115 54.9275 475.115 53.4425C475.115 52.2575 475.348 51.1025 475.812 49.9775C476.293 48.8525 476.983 47.855 477.883 46.985C478.798 46.115 479.915 45.4175 481.235 44.8925C482.555 44.3675 484.063 44.105 485.758 44.105C487.678 44.105 489.448 44.405 491.068 45.005C492.688 45.605 494.068 46.445 495.208 47.525L493.723 50.3825ZM497.283 53.915H501.693C502.113 53.915 502.466 54.0125 502.751 54.2075C503.036 54.4025 503.216 54.65 503.291 54.95L506.598 67.28C506.778 67.955 506.921 68.615 507.026 69.26C507.146 69.905 507.258 70.55 507.363 71.195C507.528 70.55 507.701 69.905 507.881 69.26C508.076 68.615 508.278 67.955 508.488 67.28L512.313 54.905C512.403 54.605 512.583 54.3575 512.853 54.1625C513.123 53.9675 513.438 53.87 513.798 53.87H516.251C516.656 53.87 516.993 53.9675 517.263 54.1625C517.533 54.3575 517.713 54.605 517.803 54.905L521.583 67.505C521.778 68.15 521.951 68.78 522.101 69.395C522.266 69.995 522.423 70.6025 522.573 71.2175C522.678 70.5725 522.791 69.9275 522.911 69.2825C523.046 68.6375 523.211 67.97 523.406 67.28L526.826 54.95C526.901 54.65 527.081 54.4025 527.366 54.2075C527.651 54.0125 527.981 53.915 528.356 53.915H532.563L525.251 77H520.773C520.293 77 519.948 76.67 519.738 76.01L515.576 62.6675C515.441 62.2325 515.313 61.7975 515.193 61.3625C515.088 60.9125 514.998 60.47 514.923 60.035C514.833 60.485 514.736 60.935 514.631 61.385C514.526 61.82 514.406 62.2625 514.271 62.7125L510.063 76.01C509.853 76.67 509.448 77 508.848 77H504.596L497.283 53.915ZM553.782 77H551.284C550.759 77 550.347 76.925 550.047 76.775C549.747 76.61 549.522 76.2875 549.372 75.8075L548.877 74.165C548.292 74.69 547.714 75.155 547.144 75.56C546.589 75.95 546.012 76.28 545.412 76.55C544.812 76.82 544.174 77.0225 543.499 77.1575C542.824 77.2925 542.074 77.36 541.249 77.36C540.274 77.36 539.374 77.2325 538.549 76.9775C537.724 76.7075 537.012 76.31 536.412 75.785C535.827 75.26 535.369 74.6075 535.039 73.8275C534.709 73.0475 534.544 72.14 534.544 71.105C534.544 70.235 534.769 69.38 535.219 68.54C535.684 67.685 536.449 66.92 537.514 66.245C538.579 65.555 539.997 64.985 541.767 64.535C543.537 64.085 545.734 63.83 548.359 63.77V62.42C548.359 60.875 548.029 59.735 547.369 59C546.724 58.25 545.779 57.875 544.534 57.875C543.634 57.875 542.884 57.98 542.284 58.19C541.684 58.4 541.159 58.64 540.709 58.91C540.274 59.165 539.869 59.3975 539.494 59.6075C539.119 59.8175 538.707 59.9225 538.257 59.9225C537.882 59.9225 537.559 59.825 537.289 59.63C537.019 59.435 536.802 59.195 536.637 58.91L535.624 57.1325C538.279 54.7025 541.482 53.4875 545.232 53.4875C546.582 53.4875 547.782 53.7125 548.832 54.1625C549.897 54.5975 550.797 55.2125 551.532 56.0075C552.267 56.7875 552.822 57.725 553.197 58.82C553.587 59.915 553.782 61.115 553.782 62.42V77ZM542.982 73.535C543.552 73.535 544.077 73.4825 544.557 73.3775C545.037 73.2725 545.487 73.115 545.907 72.905C546.342 72.695 546.754 72.44 547.144 72.14C547.549 71.825 547.954 71.4575 548.359 71.0375V67.145C546.739 67.22 545.382 67.3625 544.287 67.5725C543.207 67.7675 542.337 68.0225 541.677 68.3375C541.017 68.6525 540.544 69.02 540.259 69.44C539.989 69.86 539.854 70.3175 539.854 70.8125C539.854 71.7875 540.139 72.485 540.709 72.905C541.294 73.325 542.052 73.535 542.982 73.535ZM559.246 84.5375V53.915H562.644C563.004 53.915 563.311 53.9975 563.566 54.1625C563.821 54.3275 563.986 54.5825 564.061 54.9275L564.511 57.065C565.441 56 566.506 55.1375 567.706 54.4775C568.921 53.8175 570.339 53.4875 571.959 53.4875C573.219 53.4875 574.366 53.75 575.401 54.275C576.451 54.8 577.351 55.565 578.101 56.57C578.866 57.56 579.451 58.79 579.856 60.26C580.276 61.715 580.486 63.3875 580.486 65.2775C580.486 67.0025 580.254 68.6 579.789 70.07C579.324 71.54 578.656 72.815 577.786 73.895C576.931 74.975 575.889 75.8225 574.659 76.4375C573.444 77.0375 572.079 77.3375 570.564 77.3375C569.259 77.3375 568.149 77.1425 567.234 76.7525C566.334 76.3475 565.524 75.7925 564.804 75.0875V84.5375H559.246ZM570.046 57.875C568.891 57.875 567.901 58.1225 567.076 58.6175C566.266 59.0975 565.509 59.78 564.804 60.665V71.015C565.434 71.795 566.116 72.3425 566.851 72.6575C567.601 72.9575 568.404 73.1075 569.259 73.1075C570.099 73.1075 570.856 72.95 571.531 72.635C572.221 72.32 572.799 71.84 573.264 71.195C573.744 70.55 574.111 69.74 574.366 68.765C574.621 67.775 574.749 66.6125 574.749 65.2775C574.749 63.9275 574.636 62.7875 574.411 61.8575C574.201 60.9125 573.894 60.1475 573.489 59.5625C573.084 58.9775 572.589 58.55 572.004 58.28C571.434 58.01 570.781 57.875 570.046 57.875ZM601.582 83.345C601.417 83.735 601.199 84.0275 600.929 84.2225C600.674 84.4325 600.277 84.5375 599.737 84.5375H595.597L599.917 75.29L590.579 53.915H595.439C595.889 53.915 596.234 54.02 596.474 54.23C596.714 54.44 596.894 54.68 597.014 54.95L601.942 66.92C602.107 67.31 602.249 67.715 602.369 68.135C602.489 68.555 602.594 68.975 602.684 69.395C602.804 68.96 602.932 68.54 603.067 68.135C603.217 67.73 603.374 67.3175 603.539 66.8975L608.174 54.95C608.294 54.65 608.489 54.4025 608.759 54.2075C609.044 54.0125 609.359 53.915 609.704 53.915H614.159L601.582 83.345ZM626.494 53.555C628.219 53.555 629.779 53.8325 631.174 54.3875C632.584 54.9425 633.784 55.73 634.774 56.75C635.764 57.77 636.529 59.015 637.069 60.485C637.609 61.955 637.879 63.5975 637.879 65.4125C637.879 67.2425 637.609 68.8925 637.069 70.3625C636.529 71.8325 635.764 73.085 634.774 74.12C633.784 75.155 632.584 75.95 631.174 76.505C629.779 77.06 628.219 77.3375 626.494 77.3375C624.769 77.3375 623.201 77.06 621.791 76.505C620.381 75.95 619.174 75.155 618.169 74.12C617.179 73.085 616.406 71.8325 615.851 70.3625C615.311 68.8925 615.041 67.2425 615.041 65.4125C615.041 63.5975 615.311 61.955 615.851 60.485C616.406 59.015 617.179 57.77 618.169 56.75C619.174 55.73 620.381 54.9425 621.791 54.3875C623.201 53.8325 624.769 53.555 626.494 53.555ZM626.494 73.0625C628.414 73.0625 629.831 72.4175 630.746 71.1275C631.676 69.8375 632.141 67.9475 632.141 65.4575C632.141 62.9675 631.676 61.07 630.746 59.765C629.831 58.46 628.414 57.8075 626.494 57.8075C624.544 57.8075 623.104 58.4675 622.174 59.7875C621.244 61.0925 620.779 62.9825 620.779 65.4575C620.779 67.9325 621.244 69.8225 622.174 71.1275C623.104 72.4175 624.544 73.0625 626.494 73.0625ZM647.3 53.915V68.585C647.3 69.995 647.623 71.09 648.268 71.87C648.928 72.635 649.91 73.0175 651.215 73.0175C652.175 73.0175 653.075 72.8075 653.915 72.3875C654.755 71.9525 655.55 71.36 656.3 70.61V53.915H661.858V77H658.46C657.74 77 657.268 76.6625 657.043 75.9875L656.66 74.1425C656.18 74.6225 655.685 75.065 655.175 75.47C654.665 75.86 654.118 76.1975 653.533 76.4825C652.963 76.7525 652.34 76.9625 651.665 77.1125C651.005 77.2775 650.293 77.36 649.528 77.36C648.268 77.36 647.15 77.15 646.175 76.73C645.215 76.295 644.405 75.6875 643.745 74.9075C643.085 74.1275 642.583 73.205 642.238 72.14C641.908 71.06 641.743 69.875 641.743 68.585V53.915H647.3ZM667.791 77V53.915H671.054C671.624 53.915 672.021 54.02 672.246 54.23C672.471 54.44 672.621 54.8 672.696 55.31L673.034 58.1C673.859 56.675 674.826 55.55 675.936 54.725C677.046 53.9 678.291 53.4875 679.671 53.4875C680.811 53.4875 681.756 53.75 682.506 54.275L681.786 58.4375C681.741 58.7075 681.644 58.9025 681.494 59.0225C681.344 59.1275 681.141 59.18 680.886 59.18C680.661 59.18 680.354 59.1275 679.964 59.0225C679.574 58.9175 679.056 58.865 678.411 58.865C677.256 58.865 676.266 59.1875 675.441 59.8325C674.616 60.4625 673.919 61.3925 673.349 62.6225V77H667.791ZM712.952 77H710.454C709.929 77 709.517 76.925 709.217 76.775C708.917 76.61 708.692 76.2875 708.542 75.8075L708.047 74.165C707.462 74.69 706.884 75.155 706.314 75.56C705.759 75.95 705.182 76.28 704.582 76.55C703.982 76.82 703.344 77.0225 702.669 77.1575C701.994 77.2925 701.244 77.36 700.419 77.36C699.444 77.36 698.544 77.2325 697.719 76.9775C696.894 76.7075 696.182 76.31 695.582 75.785C694.997 75.26 694.539 74.6075 694.209 73.8275C693.879 73.0475 693.714 72.14 693.714 71.105C693.714 70.235 693.939 69.38 694.389 68.54C694.854 67.685 695.619 66.92 696.684 66.245C697.749 65.555 699.167 64.985 700.937 64.535C702.707 64.085 704.904 63.83 707.529 63.77V62.42C707.529 60.875 707.199 59.735 706.539 59C705.894 58.25 704.949 57.875 703.704 57.875C702.804 57.875 702.054 57.98 701.454 58.19C700.854 58.4 700.329 58.64 699.879 58.91C699.444 59.165 699.039 59.3975 698.664 59.6075C698.289 59.8175 697.877 59.9225 697.427 59.9225C697.052 59.9225 696.729 59.825 696.459 59.63C696.189 59.435 695.972 59.195 695.807 58.91L694.794 57.1325C697.449 54.7025 700.652 53.4875 704.402 53.4875C705.752 53.4875 706.952 53.7125 708.002 54.1625C709.067 54.5975 709.967 55.2125 710.702 56.0075C711.437 56.7875 711.992 57.725 712.367 58.82C712.757 59.915 712.952 61.115 712.952 62.42V77ZM702.152 73.535C702.722 73.535 703.247 73.4825 703.727 73.3775C704.207 73.2725 704.657 73.115 705.077 72.905C705.512 72.695 705.924 72.44 706.314 72.14C706.719 71.825 707.124 71.4575 707.529 71.0375V67.145C705.909 67.22 704.552 67.3625 703.457 67.5725C702.377 67.7675 701.507 68.0225 700.847 68.3375C700.187 68.6525 699.714 69.02 699.429 69.44C699.159 69.86 699.024 70.3175 699.024 70.8125C699.024 71.7875 699.309 72.485 699.879 72.905C700.464 73.325 701.222 73.535 702.152 73.535ZM732.119 58.415C731.969 58.655 731.811 58.8275 731.646 58.9325C731.481 59.0225 731.271 59.0675 731.016 59.0675C730.746 59.0675 730.454 58.9925 730.139 58.8425C729.839 58.6925 729.486 58.5275 729.081 58.3475C728.676 58.1525 728.211 57.98 727.686 57.83C727.176 57.68 726.569 57.605 725.864 57.605C724.769 57.605 723.906 57.8375 723.276 58.3025C722.646 58.7675 722.331 59.375 722.331 60.125C722.331 60.62 722.489 61.04 722.804 61.385C723.134 61.715 723.561 62.0075 724.086 62.2625C724.626 62.5175 725.234 62.75 725.909 62.96C726.584 63.155 727.274 63.3725 727.979 63.6125C728.684 63.8525 729.374 64.13 730.049 64.445C730.724 64.745 731.324 65.135 731.849 65.615C732.389 66.08 732.816 66.6425 733.131 67.3025C733.461 67.9625 733.626 68.7575 733.626 69.6875C733.626 70.7975 733.424 71.825 733.019 72.77C732.614 73.7 732.021 74.51 731.241 75.2C730.461 75.875 729.494 76.4075 728.339 76.7975C727.199 77.1725 725.886 77.36 724.401 77.36C723.606 77.36 722.826 77.285 722.061 77.135C721.311 77 720.584 76.805 719.879 76.55C719.189 76.295 718.544 75.995 717.944 75.65C717.359 75.305 716.841 74.93 716.391 74.525L717.674 72.41C717.839 72.155 718.034 71.96 718.259 71.825C718.484 71.69 718.769 71.6225 719.114 71.6225C719.459 71.6225 719.781 71.72 720.081 71.915C720.396 72.11 720.756 72.32 721.161 72.545C721.566 72.77 722.039 72.98 722.579 73.175C723.134 73.37 723.831 73.4675 724.671 73.4675C725.331 73.4675 725.894 73.3925 726.359 73.2425C726.839 73.0775 727.229 72.8675 727.529 72.6125C727.844 72.3575 728.069 72.065 728.204 71.735C728.354 71.39 728.429 71.0375 728.429 70.6775C728.429 70.1375 728.264 69.695 727.934 69.35C727.619 69.005 727.191 68.705 726.651 68.45C726.126 68.195 725.519 67.97 724.829 67.775C724.154 67.565 723.456 67.34 722.736 67.1C722.031 66.86 721.334 66.5825 720.644 66.2675C719.969 65.9375 719.361 65.525 718.821 65.03C718.296 64.535 717.869 63.9275 717.539 63.2075C717.224 62.4875 717.066 61.6175 717.066 60.5975C717.066 59.6525 717.254 58.7525 717.629 57.8975C718.004 57.0425 718.551 56.3 719.271 55.67C720.006 55.025 720.914 54.515 721.994 54.14C723.089 53.75 724.349 53.555 725.774 53.555C727.364 53.555 728.811 53.8175 730.116 54.3425C731.421 54.8675 732.509 55.5575 733.379 56.4125L732.119 58.415ZM751.762 58.415C751.612 58.655 751.455 58.8275 751.29 58.9325C751.125 59.0225 750.915 59.0675 750.66 59.0675C750.39 59.0675 750.097 58.9925 749.782 58.8425C749.482 58.6925 749.13 58.5275 748.725 58.3475C748.32 58.1525 747.855 57.98 747.33 57.83C746.82 57.68 746.212 57.605 745.507 57.605C744.412 57.605 743.55 57.8375 742.92 58.3025C742.29 58.7675 741.975 59.375 741.975 60.125C741.975 60.62 742.132 61.04 742.447 61.385C742.777 61.715 743.205 62.0075 743.73 62.2625C744.27 62.5175 744.877 62.75 745.552 62.96C746.227 63.155 746.917 63.3725 747.622 63.6125C748.327 63.8525 749.017 64.13 749.692 64.445C750.367 64.745 750.967 65.135 751.492 65.615C752.032 66.08 752.46 66.6425 752.775 67.3025C753.105 67.9625 753.27 68.7575 753.27 69.6875C753.27 70.7975 753.067 71.825 752.662 72.77C752.257 73.7 751.665 74.51 750.885 75.2C750.105 75.875 749.137 76.4075 747.982 76.7975C746.842 77.1725 745.53 77.36 744.045 77.36C743.25 77.36 742.47 77.285 741.705 77.135C740.955 77 740.227 76.805 739.522 76.55C738.832 76.295 738.187 75.995 737.587 75.65C737.002 75.305 736.485 74.93 736.035 74.525L737.317 72.41C737.482 72.155 737.677 71.96 737.902 71.825C738.127 71.69 738.412 71.6225 738.757 71.6225C739.102 71.6225 739.425 71.72 739.725 71.915C740.04 72.11 740.4 72.32 740.805 72.545C741.21 72.77 741.682 72.98 742.222 73.175C742.777 73.37 743.475 73.4675 744.315 73.4675C744.975 73.4675 745.537 73.3925 746.002 73.2425C746.482 73.0775 746.872 72.8675 747.172 72.6125C747.487 72.3575 747.712 72.065 747.847 71.735C747.997 71.39 748.072 71.0375 748.072 70.6775C748.072 70.1375 747.907 69.695 747.577 69.35C747.262 69.005 746.835 68.705 746.295 68.45C745.77 68.195 745.162 67.97 744.472 67.775C743.797 67.565 743.1 67.34 742.38 67.1C741.675 66.86 740.977 66.5825 740.287 66.2675C739.612 65.9375 739.005 65.525 738.465 65.03C737.94 64.535 737.512 63.9275 737.182 63.2075C736.867 62.4875 736.71 61.6175 736.71 60.5975C736.71 59.6525 736.897 58.7525 737.272 57.8975C737.647 57.0425 738.195 56.3 738.915 55.67C739.65 55.025 740.557 54.515 741.637 54.14C742.732 53.75 743.992 53.555 745.417 53.555C747.007 53.555 748.455 53.8175 749.76 54.3425C751.065 54.8675 752.152 55.5575 753.022 56.4125L751.762 58.415ZM767.243 53.555C768.698 53.555 770.033 53.7875 771.248 54.2525C772.478 54.7175 773.536 55.4 774.421 56.3C775.306 57.185 775.996 58.28 776.491 59.585C776.986 60.875 777.233 62.3525 777.233 64.0175C777.233 64.4375 777.211 64.79 777.166 65.075C777.136 65.345 777.068 65.5625 776.963 65.7275C776.873 65.8775 776.746 65.99 776.581 66.065C776.416 66.125 776.206 66.155 775.951 66.155H761.686C761.851 68.525 762.488 70.265 763.598 71.375C764.708 72.485 766.178 73.04 768.008 73.04C768.908 73.04 769.681 72.935 770.326 72.725C770.986 72.515 771.556 72.2825 772.036 72.0275C772.531 71.7725 772.958 71.54 773.318 71.33C773.693 71.12 774.053 71.015 774.398 71.015C774.623 71.015 774.818 71.06 774.983 71.15C775.148 71.24 775.291 71.3675 775.411 71.5325L777.031 73.5575C776.416 74.2775 775.726 74.885 774.961 75.38C774.196 75.86 773.393 76.25 772.553 76.55C771.728 76.835 770.881 77.0375 770.011 77.1575C769.156 77.2775 768.323 77.3375 767.513 77.3375C765.908 77.3375 764.416 77.075 763.036 76.55C761.656 76.01 760.456 75.2225 759.436 74.1875C758.416 73.1375 757.613 71.8475 757.028 70.3175C756.443 68.7725 756.151 66.9875 756.151 64.9625C756.151 63.3875 756.406 61.91 756.916 60.53C757.426 59.135 758.153 57.9275 759.098 56.9075C760.058 55.8725 761.221 55.055 762.586 54.455C763.966 53.855 765.518 53.555 767.243 53.555ZM767.356 57.5375C765.736 57.5375 764.468 57.995 763.553 58.91C762.638 59.825 762.053 61.1225 761.798 62.8025H772.238C772.238 62.0825 772.141 61.4075 771.946 60.7775C771.751 60.1325 771.451 59.57 771.046 59.09C770.641 58.61 770.131 58.235 769.516 57.965C768.901 57.68 768.181 57.5375 767.356 57.5375ZM789.324 77.36C787.329 77.36 785.791 76.7975 784.711 75.6725C783.631 74.5325 783.091 72.965 783.091 70.97V58.0775H780.751C780.451 58.0775 780.189 57.98 779.964 57.785C779.754 57.59 779.649 57.2975 779.649 56.9075V54.7025L783.361 54.095L784.531 47.795C784.591 47.495 784.726 47.2625 784.936 47.0975C785.161 46.9325 785.439 46.85 785.769 46.85H788.649V54.1175H794.724V58.0775H788.649V70.5875C788.649 71.3075 788.829 71.87 789.189 72.275C789.549 72.68 790.029 72.8825 790.629 72.8825C790.974 72.8825 791.259 72.845 791.484 72.77C791.724 72.68 791.926 72.59 792.091 72.5C792.271 72.41 792.429 72.3275 792.564 72.2525C792.699 72.1625 792.834 72.1175 792.969 72.1175C793.134 72.1175 793.269 72.1625 793.374 72.2525C793.479 72.3275 793.591 72.4475 793.711 72.6125L795.376 75.3125C794.566 75.9875 793.636 76.4975 792.586 76.8425C791.536 77.1875 790.449 77.36 789.324 77.36ZM812.846 58.415C812.696 58.655 812.539 58.8275 812.374 58.9325C812.209 59.0225 811.999 59.0675 811.744 59.0675C811.474 59.0675 811.181 58.9925 810.866 58.8425C810.566 58.6925 810.214 58.5275 809.809 58.3475C809.404 58.1525 808.939 57.98 808.414 57.83C807.904 57.68 807.296 57.605 806.591 57.605C805.496 57.605 804.634 57.8375 804.004 58.3025C803.374 58.7675 803.059 59.375 803.059 60.125C803.059 60.62 803.216 61.04 803.531 61.385C803.861 61.715 804.289 62.0075 804.814 62.2625C805.354 62.5175 805.961 62.75 806.636 62.96C807.311 63.155 808.001 63.3725 808.706 63.6125C809.411 63.8525 810.101 64.13 810.776 64.445C811.451 64.745 812.051 65.135 812.576 65.615C813.116 66.08 813.544 66.6425 813.859 67.3025C814.189 67.9625 814.354 68.7575 814.354 69.6875C814.354 70.7975 814.151 71.825 813.746 72.77C813.341 73.7 812.749 74.51 811.969 75.2C811.189 75.875 810.221 76.4075 809.066 76.7975C807.926 77.1725 806.614 77.36 805.129 77.36C804.334 77.36 803.554 77.285 802.789 77.135C802.039 77 801.311 76.805 800.606 76.55C799.916 76.295 799.271 75.995 798.671 75.65C798.086 75.305 797.569 74.93 797.119 74.525L798.401 72.41C798.566 72.155 798.761 71.96 798.986 71.825C799.211 71.69 799.496 71.6225 799.841 71.6225C800.186 71.6225 800.509 71.72 800.809 71.915C801.124 72.11 801.484 72.32 801.889 72.545C802.294 72.77 802.766 72.98 803.306 73.175C803.861 73.37 804.559 73.4675 805.399 73.4675C806.059 73.4675 806.621 73.3925 807.086 73.2425C807.566 73.0775 807.956 72.8675 808.256 72.6125C808.571 72.3575 808.796 72.065 808.931 71.735C809.081 71.39 809.156 71.0375 809.156 70.6775C809.156 70.1375 808.991 69.695 808.661 69.35C808.346 69.005 807.919 68.705 807.379 68.45C806.854 68.195 806.246 67.97 805.556 67.775C804.881 67.565 804.184 67.34 803.464 67.1C802.759 66.86 802.061 66.5825 801.371 66.2675C800.696 65.9375 800.089 65.525 799.549 65.03C799.024 64.535 798.596 63.9275 798.266 63.2075C797.951 62.4875 797.794 61.6175 797.794 60.5975C797.794 59.6525 797.981 58.7525 798.356 57.8975C798.731 57.0425 799.279 56.3 799.999 55.67C800.734 55.025 801.641 54.515 802.721 54.14C803.816 53.75 805.076 53.555 806.501 53.555C808.091 53.555 809.539 53.8175 810.844 54.3425C812.149 54.8675 813.236 55.5575 814.106 56.4125L812.846 58.415ZM835.071 77.36C833.076 77.36 831.539 76.7975 830.459 75.6725C829.379 74.5325 828.839 72.965 828.839 70.97V58.0775H826.499C826.199 58.0775 825.936 57.98 825.711 57.785C825.501 57.59 825.396 57.2975 825.396 56.9075V54.7025L829.109 54.095L830.279 47.795C830.339 47.495 830.474 47.2625 830.684 47.0975C830.909 46.9325 831.186 46.85 831.516 46.85H834.396V54.1175H840.471V58.0775H834.396V70.5875C834.396 71.3075 834.576 71.87 834.936 72.275C835.296 72.68 835.776 72.8825 836.376 72.8825C836.721 72.8825 837.006 72.845 837.231 72.77C837.471 72.68 837.674 72.59 837.839 72.5C838.019 72.41 838.176 72.3275 838.311 72.2525C838.446 72.1625 838.581 72.1175 838.716 72.1175C838.881 72.1175 839.016 72.1625 839.121 72.2525C839.226 72.3275 839.339 72.4475 839.459 72.6125L841.124 75.3125C840.314 75.9875 839.384 76.4975 838.334 76.8425C837.284 77.1875 836.196 77.36 835.071 77.36ZM854.746 53.555C856.471 53.555 858.031 53.8325 859.426 54.3875C860.836 54.9425 862.036 55.73 863.026 56.75C864.016 57.77 864.781 59.015 865.321 60.485C865.861 61.955 866.131 63.5975 866.131 65.4125C866.131 67.2425 865.861 68.8925 865.321 70.3625C864.781 71.8325 864.016 73.085 863.026 74.12C862.036 75.155 860.836 75.95 859.426 76.505C858.031 77.06 856.471 77.3375 854.746 77.3375C853.021 77.3375 851.453 77.06 850.043 76.505C848.633 75.95 847.426 75.155 846.421 74.12C845.431 73.085 844.658 71.8325 844.103 70.3625C843.563 68.8925 843.293 67.2425 843.293 65.4125C843.293 63.5975 843.563 61.955 844.103 60.485C844.658 59.015 845.431 57.77 846.421 56.75C847.426 55.73 848.633 54.9425 850.043 54.3875C851.453 53.8325 853.021 53.555 854.746 53.555ZM854.746 73.0625C856.666 73.0625 858.083 72.4175 858.998 71.1275C859.928 69.8375 860.393 67.9475 860.393 65.4575C860.393 62.9675 859.928 61.07 858.998 59.765C858.083 58.46 856.666 57.8075 854.746 57.8075C852.796 57.8075 851.356 58.4675 850.426 59.7875C849.496 61.0925 849.031 62.9825 849.031 65.4575C849.031 67.9325 849.496 69.8225 850.426 71.1275C851.356 72.4175 852.796 73.0625 854.746 73.0625ZM886.712 77C885.992 77 885.52 76.6625 885.295 75.9875L884.845 73.76C884.365 74.3 883.862 74.7875 883.337 75.2225C882.812 75.6575 882.242 76.0325 881.627 76.3475C881.027 76.6625 880.375 76.9025 879.67 77.0675C878.98 77.2475 878.23 77.3375 877.42 77.3375C876.16 77.3375 875.005 77.075 873.955 76.55C872.905 76.025 871.997 75.2675 871.232 74.2775C870.482 73.2725 869.897 72.035 869.477 70.565C869.072 69.095 868.87 67.415 868.87 65.525C868.87 63.815 869.102 62.225 869.567 60.755C870.032 59.285 870.7 58.01 871.57 56.93C872.44 55.85 873.482 55.01 874.697 54.41C875.912 53.795 877.277 53.4875 878.792 53.4875C880.082 53.4875 881.185 53.6975 882.1 54.1175C883.015 54.5225 883.832 55.07 884.552 55.76V43.565H890.11V77H886.712ZM879.31 72.9275C880.465 72.9275 881.447 72.6875 882.257 72.2075C883.067 71.7275 883.832 71.045 884.552 70.16V59.81C883.922 59.045 883.232 58.505 882.482 58.19C881.747 57.875 880.952 57.7175 880.097 57.7175C879.257 57.7175 878.492 57.875 877.802 58.19C877.127 58.505 876.55 58.985 876.07 59.63C875.605 60.26 875.245 61.07 874.99 62.06C874.735 63.035 874.607 64.19 874.607 65.525C874.607 66.875 874.712 68.0225 874.922 68.9675C875.147 69.8975 875.462 70.6625 875.867 71.2625C876.272 71.8475 876.767 72.275 877.352 72.545C877.937 72.8 878.59 72.9275 879.31 72.9275ZM914.221 77H911.724C911.199 77 910.786 76.925 910.486 76.775C910.186 76.61 909.961 76.2875 909.811 75.8075L909.316 74.165C908.731 74.69 908.154 75.155 907.584 75.56C907.029 75.95 906.451 76.28 905.851 76.55C905.251 76.82 904.614 77.0225 903.939 77.1575C903.264 77.2925 902.514 77.36 901.689 77.36C900.714 77.36 899.814 77.2325 898.989 76.9775C898.164 76.7075 897.451 76.31 896.851 75.785C896.266 75.26 895.809 74.6075 895.479 73.8275C895.149 73.0475 894.984 72.14 894.984 71.105C894.984 70.235 895.209 69.38 895.659 68.54C896.124 67.685 896.889 66.92 897.954 66.245C899.019 65.555 900.436 64.985 902.206 64.535C903.976 64.085 906.174 63.83 908.799 63.77V62.42C908.799 60.875 908.469 59.735 907.809 59C907.164 58.25 906.219 57.875 904.974 57.875C904.074 57.875 903.324 57.98 902.724 58.19C902.124 58.4 901.599 58.64 901.149 58.91C900.714 59.165 900.309 59.3975 899.934 59.6075C899.559 59.8175 899.146 59.9225 898.696 59.9225C898.321 59.9225 897.999 59.825 897.729 59.63C897.459 59.435 897.241 59.195 897.076 58.91L896.064 57.1325C898.719 54.7025 901.921 53.4875 905.671 53.4875C907.021 53.4875 908.221 53.7125 909.271 54.1625C910.336 54.5975 911.236 55.2125 911.971 56.0075C912.706 56.7875 913.261 57.725 913.636 58.82C914.026 59.915 914.221 61.115 914.221 62.42V77ZM903.421 73.535C903.991 73.535 904.516 73.4825 904.996 73.3775C905.476 73.2725 905.926 73.115 906.346 72.905C906.781 72.695 907.194 72.44 907.584 72.14C907.989 71.825 908.394 71.4575 908.799 71.0375V67.145C907.179 67.22 905.821 67.3625 904.726 67.5725C903.646 67.7675 902.776 68.0225 902.116 68.3375C901.456 68.6525 900.984 69.02 900.699 69.44C900.429 69.86 900.294 70.3175 900.294 70.8125C900.294 71.7875 900.579 72.485 901.149 72.905C901.734 73.325 902.491 73.535 903.421 73.535ZM927.085 83.345C926.92 83.735 926.702 84.0275 926.432 84.2225C926.177 84.4325 925.78 84.5375 925.24 84.5375H921.1L925.42 75.29L916.082 53.915H920.942C921.392 53.915 921.737 54.02 921.977 54.23C922.217 54.44 922.397 54.68 922.517 54.95L927.445 66.92C927.61 67.31 927.752 67.715 927.872 68.135C927.992 68.555 928.097 68.975 928.187 69.395C928.307 68.96 928.435 68.54 928.57 68.135C928.72 67.73 928.877 67.3175 929.042 66.8975L933.677 54.95C933.797 54.65 933.992 54.4025 934.262 54.2075C934.547 54.0125 934.862 53.915 935.207 53.915H939.662L927.085 83.345Z" fill="white"/>
<mask id="mask1" mask-type="alpha" maskUnits="userSpaceOnUse" x="28" y="22" width="64" height="64">
<path fill-rule="evenodd" clip-rule="evenodd" d="M28 22H92V86H28V22Z" fill="white"/>
</mask>
<g mask="url(#mask1)">
<path fill-rule="evenodd" clip-rule="evenodd" d="M59.9481 27.1636C45.2431 27.1636 33.3223 39.0998 33.3223 53.8237C33.3223 68.5479 45.2431 80.4841 59.9481 80.4841C74.6531 80.4841 86.5742 68.5479 86.5742 53.8237C86.5742 39.0998 74.6531 27.1636 59.9481 27.1636Z" fill="white"/>
<path fill-rule="evenodd" clip-rule="evenodd" d="M59.9999 21.8315C42.3269 21.8315 28 36.158 28 53.8304C28 71.5031 42.3269 85.8295 59.9999 85.8295C77.6728 85.8295 92 71.5031 92 53.8304C92 36.158 77.6728 21.8315 59.9999 21.8315ZM80.2293 50.9518C79.136 52.0594 77.3795 52.0777 76.3062 50.9925L72.3275 46.9697C70.6021 45.2252 67.7784 45.2545 66.0209 47.0352L61.9681 51.1416C61.3365 51.7814 60.4842 52.0554 59.6698 51.9656C59.0483 51.9137 58.4447 51.6504 57.9729 51.1735L53.9939 47.1505C52.2685 45.406 49.4449 45.4353 47.6876 47.2163L43.6345 51.3226C42.5413 52.4303 40.7848 52.4486 39.7115 51.3634C37.9861 49.6189 38.0119 46.761 39.7695 44.9803L47.7818 36.8626C49.5394 35.0819 52.3628 35.0523 54.0884 36.7968L60.051 42.8255L66.1154 36.6815C67.873 34.9008 70.6964 34.8713 72.4217 36.616L80.2876 44.5687C82.0129 46.3131 81.9868 49.1711 80.2293 50.9518ZM71.5708 64.2894L63.3383 72.6305C61.5325 74.4602 58.6029 74.4618 56.7952 72.634L48.5542 64.3016C46.7463 62.4738 46.745 59.5089 48.5508 57.6792C49.6741 56.541 51.4964 56.5402 52.6211 57.6771L56.7896 61.8918C58.5975 63.7199 61.5269 63.7183 63.3327 61.8886L67.4973 57.6693C68.6203 56.5311 70.4429 56.53 71.5673 57.6669C73.3749 59.4948 73.3765 62.4597 71.5708 64.2894Z" fill="#007A99"/>
</g>
<path d="M146.077 62.4C146.258 62.7413 146.424 63.0987 146.573 63.472C146.733 63.8347 146.888 64.2027 147.037 64.576C147.186 64.192 147.341 63.8133 147.501 63.44C147.661 63.0667 147.832 62.7093 148.013 62.368L154.861 49.552C154.946 49.392 155.032 49.264 155.117 49.168C155.213 49.072 155.314 49.0027 155.421 48.96C155.538 48.9173 155.666 48.8907 155.805 48.88C155.944 48.8693 156.109 48.864 156.301 48.864H159.549V72H155.757V57.056C155.757 56.7787 155.762 56.4747 155.773 56.144C155.794 55.8133 155.821 55.4773 155.853 55.136L148.861 68.256C148.701 68.5547 148.493 68.7893 148.237 68.96C147.981 69.12 147.682 69.2 147.341 69.2H146.749C146.408 69.2 146.109 69.12 145.853 68.96C145.597 68.7893 145.389 68.5547 145.229 68.256L138.141 55.088C138.184 55.44 138.21 55.7867 138.221 56.128C138.242 56.4587 138.253 56.768 138.253 57.056V72H134.461V48.864H137.709C137.901 48.864 138.066 48.8693 138.205 48.88C138.344 48.8907 138.466 48.9173 138.573 48.96C138.69 49.0027 138.797 49.072 138.893 49.168C138.989 49.264 139.08 49.392 139.165 49.552L146.077 62.4ZM169.811 76.512C169.694 76.7893 169.539 76.9973 169.347 77.136C169.166 77.2853 168.883 77.36 168.499 77.36H165.555L168.627 70.784L161.987 55.584H165.443C165.763 55.584 166.008 55.6587 166.179 55.808C166.35 55.9573 166.478 56.128 166.563 56.32L170.067 64.832C170.184 65.1093 170.286 65.3973 170.371 65.696C170.456 65.9947 170.531 66.2933 170.595 66.592C170.68 66.2827 170.771 65.984 170.867 65.696C170.974 65.408 171.086 65.1147 171.203 64.816L174.499 56.32C174.584 56.1067 174.723 55.9307 174.915 55.792C175.118 55.6533 175.342 55.584 175.587 55.584H178.755L169.811 76.512ZM197.178 66.544C197.412 66.544 197.615 66.6347 197.786 66.816L199.482 68.656C198.543 69.8187 197.386 70.7093 196.01 71.328C194.644 71.9467 193.002 72.256 191.082 72.256C189.364 72.256 187.818 71.9627 186.442 71.376C185.076 70.7893 183.908 69.9733 182.938 68.928C181.967 67.8827 181.22 66.6347 180.698 65.184C180.186 63.7333 179.93 62.1493 179.93 60.432C179.93 58.6933 180.218 57.104 180.794 55.664C181.37 54.2133 182.18 52.9653 183.226 51.92C184.271 50.8747 185.519 50.064 186.97 49.488C188.431 48.9013 190.042 48.608 191.802 48.608C193.519 48.608 195.018 48.8853 196.298 49.44C197.588 49.984 198.692 50.7093 199.61 51.616L198.17 53.616C198.084 53.744 197.972 53.856 197.834 53.952C197.706 54.048 197.524 54.096 197.29 54.096C197.044 54.096 196.794 54 196.538 53.808C196.282 53.616 195.956 53.408 195.562 53.184C195.167 52.96 194.666 52.752 194.058 52.56C193.46 52.368 192.698 52.272 191.77 52.272C190.682 52.272 189.679 52.464 188.762 52.848C187.855 53.2213 187.071 53.76 186.41 54.464C185.759 55.168 185.247 56.0267 184.874 57.04C184.511 58.0427 184.33 59.1733 184.33 60.432C184.33 61.7333 184.511 62.8907 184.874 63.904C185.247 64.9173 185.748 65.7707 186.378 66.464C187.007 67.1573 187.748 67.6907 188.602 68.064C189.455 68.4267 190.372 68.608 191.354 68.608C191.94 68.608 192.468 68.576 192.938 68.512C193.418 68.448 193.855 68.3467 194.25 68.208C194.655 68.0693 195.034 67.8933 195.385 67.68C195.748 67.456 196.106 67.184 196.458 66.864C196.564 66.768 196.676 66.6933 196.794 66.64C196.911 66.576 197.039 66.544 197.178 66.544ZM202.518 72V55.584H204.838C205.244 55.584 205.526 55.6587 205.686 55.808C205.846 55.9573 205.953 56.2133 206.006 56.576L206.246 58.56C206.833 57.5467 207.521 56.7467 208.31 56.16C209.1 55.5733 209.985 55.28 210.966 55.28C211.777 55.28 212.449 55.4667 212.982 55.84L212.47 58.8C212.438 58.992 212.369 59.1307 212.262 59.216C212.156 59.2907 212.012 59.328 211.83 59.328C211.67 59.328 211.452 59.2907 211.174 59.216C210.897 59.1413 210.529 59.104 210.07 59.104C209.249 59.104 208.545 59.3333 207.958 59.792C207.372 60.24 206.876 60.9013 206.47 61.776V72H202.518ZM221.405 76.512C221.287 76.7893 221.133 76.9973 220.941 77.136C220.759 77.2853 220.477 77.36 220.093 77.36H217.149L220.221 70.784L213.581 55.584H217.037C217.357 55.584 217.602 55.6587 217.773 55.808C217.943 55.9573 218.071 56.128 218.157 56.32L221.661 64.832C221.778 65.1093 221.879 65.3973 221.965 65.696C222.05 65.9947 222.125 66.2933 222.189 66.592C222.274 66.2827 222.365 65.984 222.461 65.696C222.567 65.408 222.679 65.1147 222.797 64.816L226.093 56.32C226.178 56.1067 226.317 55.9307 226.509 55.792C226.711 55.6533 226.935 55.584 227.181 55.584H230.349L221.405 76.512ZM232.643 77.36V55.584H235.059C235.315 55.584 235.534 55.6427 235.715 55.76C235.897 55.8773 236.014 56.0587 236.067 56.304L236.387 57.824C237.049 57.0667 237.806 56.4533 238.659 55.984C239.523 55.5147 240.531 55.28 241.683 55.28C242.579 55.28 243.395 55.4667 244.131 55.84C244.878 56.2133 245.518 56.7573 246.051 57.472C246.595 58.176 247.011 59.0507 247.299 60.096C247.598 61.1307 247.747 62.32 247.747 63.664C247.747 64.8907 247.582 66.0267 247.251 67.072C246.921 68.1173 246.446 69.024 245.827 69.792C245.219 70.56 244.478 71.1627 243.603 71.6C242.739 72.0267 241.769 72.24 240.691 72.24C239.763 72.24 238.974 72.1013 238.323 71.824C237.683 71.536 237.107 71.1413 236.595 70.64V77.36H232.643ZM240.323 58.4C239.502 58.4 238.798 58.576 238.211 58.928C237.635 59.2693 237.097 59.7547 236.595 60.384V67.744C237.043 68.2987 237.529 68.688 238.051 68.912C238.585 69.1253 239.155 69.232 239.763 69.232C240.361 69.232 240.899 69.12 241.379 68.896C241.87 68.672 242.281 68.3307 242.611 67.872C242.953 67.4133 243.214 66.8373 243.395 66.144C243.577 65.44 243.667 64.6133 243.667 63.664C243.667 62.704 243.587 61.8933 243.427 61.232C243.278 60.56 243.059 60.016 242.771 59.6C242.483 59.184 242.131 58.88 241.715 58.688C241.31 58.496 240.846 58.4 240.323 58.4ZM256.129 72.256C254.71 72.256 253.617 71.856 252.849 71.056C252.081 70.2453 251.697 69.1307 251.697 67.712V58.544H250.033C249.82 58.544 249.633 58.4747 249.473 58.336C249.324 58.1973 249.249 57.9893 249.249 57.712V56.144L251.889 55.712L252.721 51.232C252.764 51.0187 252.86 50.8533 253.009 50.736C253.169 50.6187 253.366 50.56 253.601 50.56H255.649V55.728H259.969V58.544H255.649V67.44C255.649 67.952 255.777 68.352 256.033 68.64C256.289 68.928 256.63 69.072 257.057 69.072C257.302 69.072 257.505 69.0453 257.665 68.992C257.836 68.928 257.98 68.864 258.097 68.8C258.225 68.736 258.337 68.6773 258.433 68.624C258.529 68.56 258.625 68.528 258.721 68.528C258.838 68.528 258.934 68.56 259.009 68.624C259.084 68.6773 259.164 68.7627 259.249 68.88L260.433 70.8C259.857 71.28 259.196 71.6427 258.449 71.888C257.702 72.1333 256.929 72.256 256.129 72.256ZM270.12 55.328C271.347 55.328 272.456 55.5253 273.448 55.92C274.451 56.3147 275.304 56.8747 276.008 57.6C276.712 58.3253 277.256 59.2107 277.64 60.256C278.024 61.3013 278.216 62.4693 278.216 63.76C278.216 65.0613 278.024 66.2347 277.64 67.28C277.256 68.3253 276.712 69.216 276.008 69.952C275.304 70.688 274.451 71.2533 273.448 71.648C272.456 72.0427 271.347 72.24 270.12 72.24C268.893 72.24 267.779 72.0427 266.776 71.648C265.773 71.2533 264.915 70.688 264.2 69.952C263.496 69.216 262.947 68.3253 262.552 67.28C262.168 66.2347 261.976 65.0613 261.976 63.76C261.976 62.4693 262.168 61.3013 262.552 60.256C262.947 59.2107 263.496 58.3253 264.2 57.6C264.915 56.8747 265.773 56.3147 266.776 55.92C267.779 55.5253 268.893 55.328 270.12 55.328ZM270.12 69.2C271.485 69.2 272.493 68.7413 273.144 67.824C273.805 66.9067 274.136 65.5627 274.136 63.792C274.136 62.0213 273.805 60.672 273.144 59.744C272.493 58.816 271.485 58.352 270.12 58.352C268.733 58.352 267.709 58.8213 267.048 59.76C266.387 60.688 266.056 62.032 266.056 63.792C266.056 65.552 266.387 66.896 267.048 67.824C267.709 68.7413 268.733 69.2 270.12 69.2ZM300.111 53.072C299.994 53.3067 299.855 53.472 299.695 53.568C299.546 53.664 299.364 53.712 299.151 53.712C298.938 53.712 298.698 53.632 298.431 53.472C298.164 53.3013 297.85 53.1147 297.487 52.912C297.124 52.7093 296.698 52.528 296.207 52.368C295.727 52.1973 295.156 52.112 294.495 52.112C293.898 52.112 293.375 52.1867 292.927 52.336C292.49 52.4747 292.116 52.672 291.807 52.928C291.508 53.184 291.284 53.4933 291.135 53.856C290.986 54.208 290.911 54.5973 290.911 55.024C290.911 55.568 291.06 56.0213 291.359 56.384C291.668 56.7467 292.074 57.056 292.575 57.312C293.076 57.568 293.647 57.7973 294.287 58C294.927 58.2027 295.578 58.4213 296.239 58.656C296.911 58.88 297.567 59.1467 298.207 59.456C298.847 59.7547 299.418 60.1387 299.919 60.608C300.42 61.0667 300.82 61.632 301.119 62.304C301.428 62.976 301.583 63.792 301.583 64.752C301.583 65.7973 301.402 66.7787 301.039 67.696C300.687 68.6027 300.164 69.3973 299.471 70.08C298.788 70.752 297.951 71.2853 296.959 71.68C295.967 72.064 294.831 72.256 293.551 72.256C292.815 72.256 292.09 72.1813 291.375 72.032C290.66 71.8933 289.972 71.6907 289.311 71.424C288.66 71.1573 288.047 70.8373 287.471 70.464C286.906 70.0907 286.399 69.6747 285.951 69.216L287.199 67.152C287.316 67.0027 287.455 66.88 287.615 66.784C287.786 66.6773 287.972 66.624 288.175 66.624C288.442 66.624 288.73 66.736 289.039 66.96C289.348 67.1733 289.711 67.4133 290.127 67.68C290.554 67.9467 291.05 68.192 291.615 68.416C292.191 68.6293 292.879 68.736 293.679 68.736C294.906 68.736 295.855 68.448 296.527 67.872C297.199 67.2853 297.535 66.448 297.535 65.36C297.535 64.752 297.38 64.256 297.071 63.872C296.772 63.488 296.372 63.168 295.871 62.912C295.37 62.6453 294.799 62.4213 294.159 62.24C293.519 62.0587 292.868 61.8613 292.207 61.648C291.546 61.4347 290.895 61.1787 290.255 60.88C289.615 60.5813 289.044 60.192 288.543 59.712C288.042 59.232 287.636 58.6347 287.327 57.92C287.028 57.1947 286.879 56.304 286.879 55.248C286.879 54.4053 287.044 53.584 287.375 52.784C287.716 51.984 288.207 51.2747 288.847 50.656C289.498 50.0373 290.292 49.5413 291.231 49.168C292.17 48.7947 293.242 48.608 294.447 48.608C295.812 48.608 297.071 48.8213 298.223 49.248C299.375 49.6747 300.356 50.272 301.167 51.04L300.111 53.072ZM302.723 48.864H306.339C306.713 48.864 307.022 48.9547 307.267 49.136C307.523 49.3067 307.694 49.5413 307.779 49.84L311.715 63.68C311.811 64.0213 311.897 64.3947 311.971 64.8C312.057 65.1947 312.137 65.616 312.211 66.064C312.297 65.616 312.387 65.1947 312.483 64.8C312.59 64.3947 312.702 64.0213 312.819 63.68L317.363 49.84C317.449 49.5947 317.614 49.3707 317.859 49.168C318.115 48.9653 318.425 48.864 318.787 48.864H320.051C320.425 48.864 320.734 48.9547 320.979 49.136C321.225 49.3067 321.395 49.5413 321.491 49.84L326.003 63.68C326.238 64.3627 326.441 65.12 326.611 65.952C326.686 65.536 326.761 65.136 326.835 64.752C326.921 64.368 327.006 64.0107 327.091 63.68L331.027 49.84C331.102 49.5733 331.267 49.344 331.523 49.152C331.779 48.96 332.089 48.864 332.451 48.864H335.827L328.643 72H324.755L319.699 56.192C319.635 55.9893 319.566 55.7707 319.491 55.536C319.427 55.3013 319.363 55.0507 319.299 54.784C319.235 55.0507 319.166 55.3013 319.091 55.536C319.027 55.7707 318.963 55.9893 318.899 56.192L313.795 72H309.907L302.723 48.864ZM356.828 72H353.5C353.127 72 352.818 71.9093 352.572 71.728C352.338 71.536 352.167 71.3013 352.06 71.024L350.332 66.304H340.748L339.02 71.024C338.935 71.2693 338.764 71.4933 338.508 71.696C338.263 71.8987 337.959 72 337.596 72H334.252L343.34 48.864H347.74L356.828 72ZM341.852 63.264H349.228L346.412 55.568C346.284 55.2267 346.14 54.8267 345.98 54.368C345.831 53.8987 345.682 53.392 345.532 52.848C345.383 53.392 345.234 53.8987 345.084 54.368C344.946 54.8373 344.807 55.248 344.668 55.6L341.852 63.264ZM363.659 63.856V72H359.355V48.864H366.891C368.438 48.864 369.776 49.0453 370.907 49.408C372.038 49.7707 372.971 50.2773 373.707 50.928C374.443 51.5787 374.987 52.3573 375.339 53.264C375.691 54.1707 375.867 55.1627 375.867 56.24C375.867 57.36 375.68 58.3893 375.307 59.328C374.934 60.256 374.374 61.056 373.627 61.728C372.88 62.4 371.947 62.9227 370.827 63.296C369.707 63.6693 368.395 63.856 366.891 63.856H363.659ZM363.659 60.496H366.891C367.68 60.496 368.368 60.4 368.955 60.208C369.542 60.0053 370.027 59.7227 370.411 59.36C370.795 58.9867 371.083 58.5387 371.275 58.016C371.467 57.4827 371.563 56.8907 371.563 56.24C371.563 55.6213 371.467 55.0613 371.275 54.56C371.083 54.0587 370.795 53.632 370.411 53.28C370.027 52.928 369.542 52.6613 368.955 52.48C368.368 52.288 367.68 52.192 366.891 52.192H363.659V60.496Z" fill="#007A99"/>
<circle cx="98" cy="75" r="24" fill="white"/>
<path fill-rule="evenodd" clip-rule="evenodd" d="M99.6528 73.6276C99.8338 74.369 99.9235 75.1411 99.9113 75.9285L103.202 75.5304C103.729 75.4666 104.244 75.7224 104.512 76.1815C104.78 76.6406 104.75 77.2152 104.435 77.6436L102.832 79.8266C106.436 81.1803 110.567 79.2109 111.248 75.0455C111.821 71.5441 109.484 68.2661 106.07 67.6966C105.337 67.5742 104.614 67.5859 103.925 67.7133L104.406 71.5999C104.495 72.318 103.995 72.9767 103.279 73.0839L99.6528 73.6276ZM91.9877 69.4925C95.2093 70.03 97.4706 72.9794 97.2317 76.2527L92.1064 76.8729C91.3888 76.9597 90.8712 77.6033 90.94 78.3234L91.3088 82.1855C90.8558 82.2118 90.3925 82.1883 89.9247 82.1102C86.5125 81.541 84.1776 78.2658 84.7498 74.7659C85.322 71.2661 88.5755 68.9233 91.9877 69.4925ZM89.4945 84.7418C90.192 84.8582 90.885 84.8895 91.5626 84.8431L92.0351 89.7908C92.0869 90.3335 92.4637 90.79 92.9865 90.9434C93.5094 91.0968 94.0728 90.9162 94.4093 90.4874L96.2938 88.0859C99.6161 89.5708 103.164 89.4928 106.022 88.1615C109.041 86.7551 111.265 83.9492 111.545 80.2504C112.712 79.0419 113.557 77.4381 113.878 75.476C114.682 70.5554 111.401 65.8826 106.508 65.0663C105.518 64.9011 104.538 64.9072 103.597 65.0636L102.992 60.1681C102.925 59.6272 102.536 59.1818 102.009 59.0436C101.482 58.9054 100.924 59.1022 100.599 59.5404L98.7837 61.9931C95.4026 60.5865 91.8127 60.7134 88.9577 62.0906C85.8263 63.6012 83.6073 66.618 83.6354 70.5844C82.88 71.6677 82.3489 72.9351 82.1213 74.3274C81.3166 79.2495 84.5996 83.9252 89.4945 84.7418ZM86.8682 67.7408C87.5126 66.2987 88.6643 65.1912 90.1124 64.4927C92.4641 63.3582 95.6241 63.306 98.5925 64.8448C99.1731 65.1458 99.8867 64.98 100.276 64.4537L100.756 63.8054L101.602 70.6393L98.6072 71.0883C97.3005 68.9161 95.1014 67.3086 92.4179 66.8609C90.443 66.5314 88.5166 66.882 86.8682 67.7408ZM105.182 70.655C105.418 69.9579 106.174 69.5861 106.871 69.8244C108.83 70.4948 110.041 72.518 109.698 74.6169C109.463 76.0523 108.553 77.2132 107.346 77.8062C106.686 78.1301 105.888 77.8562 105.562 77.1945C105.237 76.5329 105.508 75.7339 106.168 75.41C106.624 75.1861 106.977 74.7425 107.069 74.1784C107.205 73.347 106.722 72.5905 106.016 72.3488C105.319 72.1105 104.946 71.3521 105.182 70.655ZM108.318 82.3428C105.717 83.3003 102.656 83.0544 100.111 81.4289C99.7998 81.2305 99.5851 80.9122 99.5175 80.5496C99.4498 80.187 99.5353 79.8125 99.7536 79.5153L100.464 78.5476L93.7163 79.3641L94.3709 86.2187L94.8685 85.5846C95.2725 85.0697 95.9903 84.9246 96.5624 85.242C99.4497 86.8439 102.546 86.8392 104.897 85.7441C106.419 85.0349 107.639 83.8693 108.318 82.3428ZM89.582 72.8084C89.0739 72.2758 88.2305 72.2563 87.6982 72.7648C87.166 73.2733 87.1465 74.1173 87.6546 74.6499L88.7068 75.7527L87.7979 76.7052C87.2898 77.2378 87.3093 78.0818 87.8416 78.5903C88.3738 79.0988 89.2172 79.0792 89.7253 78.5466L93.4396 74.6536C93.9478 74.121 93.9282 73.2771 93.396 72.7686C92.8638 72.2601 92.0204 72.2796 91.5122 72.8122L90.5489 73.8219L89.582 72.8084Z" fill="#007A99"/>
<g filter="url(#filter1_d)">
<circle cx="1001.11" cy="54.1109" r="29.1109" fill="white"/>
</g>
<path d="M1009.65 48.1691C1009.03 47.8131 1008.23 47.8131 1007.52 48.1691L1002.57 51.1068L999.211 52.9763L994.347 55.9139C993.728 56.27 992.932 56.27 992.225 55.9139L988.422 53.5994C987.803 53.2433 987.361 52.5312 987.361 51.73V47.2789C987.361 46.5668 987.714 45.8546 988.422 45.4095L992.225 43.184C992.844 42.8279 993.64 42.8279 994.347 43.184L998.15 45.4985C998.769 45.8546 999.211 46.5668 999.211 47.368V50.3056L1002.57 48.3472V45.3205C1002.57 44.6083 1002.22 43.8961 1001.51 43.451L994.435 39.2671C993.816 38.911 993.02 38.911 992.313 39.2671L985.061 43.5401C984.354 43.8961 984 44.6083 984 45.3205V53.6884C984 54.4006 984.354 55.1128 985.061 55.5579L992.225 59.7418C992.844 60.0979 993.64 60.0979 994.347 59.7418L999.211 56.8932L1002.57 54.9347L1007.44 52.0861C1008.05 51.73 1008.85 51.73 1009.56 52.0861L1013.36 54.3116C1013.98 54.6677 1014.42 55.3798 1014.42 56.181V60.632C1014.42 61.3442 1014.07 62.0564 1013.36 62.5015L1009.65 64.727C1009.03 65.0831 1008.23 65.0831 1007.52 64.727L1003.72 62.5015C1003.1 62.1454 1002.66 61.4332 1002.66 60.632V57.7834L999.299 59.7418V62.6795C999.299 63.3917 999.653 64.1039 1000.36 64.549L1007.52 68.7329C1008.14 69.089 1008.94 69.089 1009.65 68.7329L1016.81 64.549C1017.43 64.1929 1017.87 63.4807 1017.87 62.6795V54.2226C1017.87 53.5104 1017.52 52.7982 1016.81 52.3531L1009.65 48.1691Z" fill="#8247E5"/>
<g filter="url(#filter2_d)">
<circle cx="1100.11" cy="54.1109" r="29.1109" fill="white"/>
</g>
<g clip-path="url(#clip0)">
<path d="M1092.78 52.3549L1099.08 46.0617L1105.37 52.3576L1109.04 48.6959L1099.08 38.7383L1089.12 48.6929L1092.78 52.3546L1092.78 52.3549ZM1082.88 54.9405L1086.54 51.2782L1090.2 54.9397L1086.54 58.6016L1082.88 54.9405ZM1092.78 57.5265L1099.08 63.8193L1105.37 57.5235L1109.04 61.1833L1109.04 61.1852L1099.08 71.1427L1089.12 61.1881L1089.12 61.1829L1092.78 57.5261L1092.78 57.5265ZM1107.96 54.9421L1111.62 51.2802L1115.28 54.9418L1111.62 58.6036L1107.96 54.9421Z" fill="#F3BA2F"/>
<path d="M1102.79 54.9377H1102.79L1099.08 51.2222L1096.33 53.9676L1096.02 54.2832L1095.36 54.934L1095.36 54.939L1095.36 54.9443L1099.08 58.6572L1102.79 54.9416L1102.79 54.9395L1102.79 54.9377" fill="#F3BA2F"/>
</g>
<g filter="url(#filter3_d)">
<circle cx="1050.37" cy="65.1109" r="29.1109" fill="white"/>
</g>
<g clip-path="url(#clip1)">
<path d="M1049.72 46.126L1049.46 46.997V72.2692L1049.72 72.525L1061.63 65.5908L1049.72 46.126Z" fill="#343434"/>
<path d="M1049.72 46.126L1037.81 65.5908L1049.72 72.525V60.2586V46.126Z" fill="#8C8C8C"/>
<path d="M1049.72 74.747L1049.58 74.9232V83.9256L1049.72 84.3475L1061.63 67.8164L1049.72 74.747Z" fill="#3C3C3B"/>
<path d="M1049.72 84.3475V74.747L1037.81 67.8164L1049.72 84.3475Z" fill="#8C8C8C"/>
<path d="M1049.73 72.5247L1061.63 65.5905L1049.73 60.2583V72.5247Z" fill="#141414"/>
<path d="M1037.81 65.5905L1049.72 72.5247V60.2583L1037.81 65.5905Z" fill="#393939"/>
</g>
<defs>
<filter id="filter0_d" x="393" y="-199" width="889" height="524" filterUnits="userSpaceOnUse" color-interpolation-filters="sRGB">
<feFlood flood-opacity="0" result="BackgroundImageFix"/>
<feColorMatrix in="SourceAlpha" type="matrix" values="0 0 0 0 0 0 0 0 0 0 0 0 0 0 0 0 0 0 127 0" result="hardAlpha"/>
<feOffset dx="-6" dy="3"/>
<feGaussianBlur stdDeviation="5"/>
<feColorMatrix type="matrix" values="0 0 0 0 0.733333 0 0 0 0 0.733333 0 0 0 0 0.733333 0 0 0 0.5 0"/>
<feBlend mode="normal" in2="BackgroundImageFix" result="effect1_dropShadow"/>
<feBlend mode="normal" in="SourceGraphic" in2="effect1_dropShadow" result="shape"/>
</filter>
<filter id="filter1_d" x="966.297" y="19.2968" width="71.5299" height="71.5299" filterUnits="userSpaceOnUse" color-interpolation-filters="sRGB">
<feFlood flood-opacity="0" result="BackgroundImageFix"/>
<feColorMatrix in="SourceAlpha" type="matrix" values="0 0 0 0 0 0 0 0 0 0 0 0 0 0 0 0 0 0 127 0" result="hardAlpha"/>
<feOffset dx="0.950866" dy="0.950866"/>
<feGaussianBlur stdDeviation="3.32704"/>
<feColorMatrix type="matrix" values="0 0 0 0 0.709804 0 0 0 0 0.74902 0 0 0 0 0.780392 0 0 0 0.49 0"/>
<feBlend mode="normal" in2="BackgroundImageFix" result="effect1_dropShadow"/>
<feBlend mode="normal" in="SourceGraphic" in2="effect1_dropShadow" result="shape"/>
</filter>
<filter id="filter2_d" x="1065.3" y="19.2968" width="71.5299" height="71.5299" filterUnits="userSpaceOnUse" color-interpolation-filters="sRGB">
<feFlood flood-opacity="0" result="BackgroundImageFix"/>
<feColorMatrix in="SourceAlpha" type="matrix" values="0 0 0 0 0 0 0 0 0 0 0 0 0 0 0 0 0 0 127 0" result="hardAlpha"/>
<feOffset dx="0.950866" dy="0.950866"/>
<feGaussianBlur stdDeviation="3.32704"/>
<feColorMatrix type="matrix" values="0 0 0 0 0.709804 0 0 0 0 0.74902 0 0 0 0 0.780392 0 0 0 0.49 0"/>
<feBlend mode="normal" in2="BackgroundImageFix" result="effect1_dropShadow"/>
<feBlend mode="normal" in="SourceGraphic" in2="effect1_dropShadow" result="shape"/>
</filter>
<filter id="filter3_d" x="1015.55" y="30.2968" width="71.5299" height="71.5299" filterUnits="userSpaceOnUse" color-interpolation-filters="sRGB">
<feFlood flood-opacity="0" result="BackgroundImageFix"/>
<feColorMatrix in="SourceAlpha" type="matrix" values="0 0 0 0 0 0 0 0 0 0 0 0 0 0 0 0 0 0 127 0" result="hardAlpha"/>
<feOffset dx="0.950866" dy="0.950866"/>
<feGaussianBlur stdDeviation="3.32704"/>
<feColorMatrix type="matrix" values="0 0 0 0 0.709804 0 0 0 0 0.74902 0 0 0 0 0.780392 0 0 0 0.49 0"/>
<feBlend mode="normal" in2="BackgroundImageFix" result="effect1_dropShadow"/>
<feBlend mode="normal" in="SourceGraphic" in2="effect1_dropShadow" result="shape"/>
</filter>
<linearGradient id="paint0_linear" x1="24.5" y1="60" x2="1399.5" y2="59.9999" gradientUnits="userSpaceOnUse">
<stop stop-color="#007A99"/>
<stop offset="0.627813" stop-color="#006077"/>
<stop offset="1" stop-color="#55B6E2"/>
</linearGradient>
<clipPath id="clip0">
<rect width="34.4297" height="34.4297" fill="white" transform="translate(1082.81 36.814)"/>
</clipPath>
<clipPath id="clip1">
<rect width="26.6662" height="38.2215" fill="white" transform="translate(1037.12 46.126)"/>
</clipPath>
</defs>
</svg>