<svg viewBox="0 0 1200 120" xmlns="http://www.w3.org/2000/svg">
<rect width="1200" height="120" fill="white"/>
<mask id="mask0" mask-type="alpha" maskUnits="userSpaceOnUse" x="0" y="0" width="1200" height="120">
<rect width="1200" height="120" fill="white"/>
</mask>
<g mask="url(#mask0)">
<g filter="url(#filter0_d)">
<ellipse cx="792.5" cy="60" rx="434.5" ry="252" fill="url(#paint0_linear)"/>
</g>
</g>
<path d="M477.225 72.545C478.59 72.545 479.775 72.425 480.78 72.185C481.8 71.93 482.768 71.585 483.683 71.15V65.2325H479.61C479.22 65.2325 478.913 65.1275 478.688 64.9175C478.463 64.6925 478.35 64.4225 478.35 64.1075V60.6875H489.173V73.85C488.348 74.45 487.485 74.975 486.585 75.425C485.7 75.86 484.748 76.22 483.728 76.505C482.723 76.79 481.643 77 480.488 77.135C479.333 77.285 478.088 77.36 476.753 77.36C474.383 77.36 472.2 76.9475 470.205 76.1225C468.21 75.2975 466.485 74.15 465.03 72.68C463.575 71.21 462.435 69.455 461.61 67.415C460.8 65.375 460.395 63.1475 460.395 60.7325C460.395 58.2875 460.793 56.045 461.588 54.005C462.383 51.965 463.508 50.21 464.963 48.74C466.433 47.27 468.21 46.13 470.295 45.32C472.38 44.51 474.72 44.105 477.315 44.105C479.97 44.105 482.265 44.5025 484.2 45.2975C486.15 46.0775 487.8 47.0975 489.15 48.3575L487.395 51.1025C487.05 51.6575 486.593 51.935 486.023 51.935C485.663 51.935 485.295 51.815 484.92 51.575C484.44 51.29 483.945 51.005 483.435 50.72C482.94 50.435 482.385 50.1875 481.77 49.9775C481.17 49.7675 480.488 49.595 479.723 49.46C478.973 49.325 478.103 49.2575 477.113 49.2575C475.508 49.2575 474.053 49.5275 472.748 50.0675C471.458 50.6075 470.355 51.38 469.44 52.385C468.525 53.39 467.82 54.5975 467.325 56.0075C466.83 57.4175 466.583 58.9925 466.583 60.7325C466.583 62.6075 466.845 64.28 467.37 65.75C467.895 67.205 468.63 68.435 469.575 69.44C470.52 70.445 471.645 71.2175 472.95 71.7575C474.255 72.2825 475.68 72.545 477.225 72.545ZM504.03 53.555C505.485 53.555 506.82 53.7875 508.035 54.2525C509.265 54.7175 510.322 55.4 511.207 56.3C512.092 57.185 512.782 58.28 513.277 59.585C513.772 60.875 514.02 62.3525 514.02 64.0175C514.02 64.4375 513.997 64.79 513.952 65.075C513.922 65.345 513.855 65.5625 513.75 65.7275C513.66 65.8775 513.532 65.99 513.367 66.065C513.202 66.125 512.992 66.155 512.737 66.155H498.472C498.637 68.525 499.275 70.265 500.385 71.375C501.495 72.485 502.965 73.04 504.795 73.04C505.695 73.04 506.467 72.935 507.112 72.725C507.772 72.515 508.342 72.2825 508.822 72.0275C509.317 71.7725 509.745 71.54 510.105 71.33C510.48 71.12 510.84 71.015 511.185 71.015C511.41 71.015 511.605 71.06 511.77 71.15C511.935 71.24 512.077 71.3675 512.197 71.5325L513.817 73.5575C513.202 74.2775 512.512 74.885 511.747 75.38C510.982 75.86 510.18 76.25 509.34 76.55C508.515 76.835 507.667 77.0375 506.797 77.1575C505.942 77.2775 505.11 77.3375 504.3 77.3375C502.695 77.3375 501.202 77.075 499.822 76.55C498.442 76.01 497.242 75.2225 496.222 74.1875C495.202 73.1375 494.4 71.8475 493.815 70.3175C493.23 68.7725 492.937 66.9875 492.937 64.9625C492.937 63.3875 493.192 61.91 493.702 60.53C494.212 59.135 494.94 57.9275 495.885 56.9075C496.845 55.8725 498.007 55.055 499.372 54.455C500.752 53.855 502.305 53.555 504.03 53.555ZM504.142 57.5375C502.522 57.5375 501.255 57.995 500.34 58.91C499.425 59.825 498.84 61.1225 498.585 62.8025H509.025C509.025 62.0825 508.927 61.4075 508.732 60.7775C508.537 60.1325 508.237 59.57 507.832 59.09C507.427 58.61 506.917 58.235 506.302 57.965C505.687 57.68 504.967 57.5375 504.142 57.5375ZM526.11 77.36C524.115 77.36 522.578 76.7975 521.498 75.6725C520.418 74.5325 519.878 72.965 519.878 70.97V58.0775H517.538C517.238 58.0775 516.975 57.98 516.75 57.785C516.54 57.59 516.435 57.2975 516.435 56.9075V54.7025L520.148 54.095L521.318 47.795C521.378 47.495 521.513 47.2625 521.723 47.0975C521.948 46.9325 522.225 46.85 522.555 46.85H525.435V54.1175H531.51V58.0775H525.435V70.5875C525.435 71.3075 525.615 71.87 525.975 72.275C526.335 72.68 526.815 72.8825 527.415 72.8825C527.76 72.8825 528.045 72.845 528.27 72.77C528.51 72.68 528.713 72.59 528.878 72.5C529.058 72.41 529.215 72.3275 529.35 72.2525C529.485 72.1625 529.62 72.1175 529.755 72.1175C529.92 72.1175 530.055 72.1625 530.16 72.2525C530.265 72.3275 530.378 72.4475 530.498 72.6125L532.163 75.3125C531.353 75.9875 530.423 76.4975 529.373 76.8425C528.323 77.1875 527.235 77.36 526.11 77.36ZM562.721 77H560.224C559.699 77 559.286 76.925 558.986 76.775C558.686 76.61 558.461 76.2875 558.311 75.8075L557.816 74.165C557.231 74.69 556.654 75.155 556.084 75.56C555.529 75.95 554.951 76.28 554.351 76.55C553.751 76.82 553.114 77.0225 552.439 77.1575C551.764 77.2925 551.014 77.36 550.189 77.36C549.214 77.36 548.314 77.2325 547.489 76.9775C546.664 76.7075 545.951 76.31 545.351 75.785C544.766 75.26 544.309 74.6075 543.979 73.8275C543.649 73.0475 543.484 72.14 543.484 71.105C543.484 70.235 543.709 69.38 544.159 68.54C544.624 67.685 545.389 66.92 546.454 66.245C547.519 65.555 548.936 64.985 550.706 64.535C552.476 64.085 554.674 63.83 557.299 63.77V62.42C557.299 60.875 556.969 59.735 556.309 59C555.664 58.25 554.719 57.875 553.474 57.875C552.574 57.875 551.824 57.98 551.224 58.19C550.624 58.4 550.099 58.64 549.649 58.91C549.214 59.165 548.809 59.3975 548.434 59.6075C548.059 59.8175 547.646 59.9225 547.196 59.9225C546.821 59.9225 546.499 59.825 546.229 59.63C545.959 59.435 545.741 59.195 545.576 58.91L544.564 57.1325C547.219 54.7025 550.421 53.4875 554.171 53.4875C555.521 53.4875 556.721 53.7125 557.771 54.1625C558.836 54.5975 559.736 55.2125 560.471 56.0075C561.206 56.7875 561.761 57.725 562.136 58.82C562.526 59.915 562.721 61.115 562.721 62.42V77ZM551.921 73.535C552.491 73.535 553.016 73.4825 553.496 73.3775C553.976 73.2725 554.426 73.115 554.846 72.905C555.281 72.695 555.694 72.44 556.084 72.14C556.489 71.825 556.894 71.4575 557.299 71.0375V67.145C555.679 67.22 554.321 67.3625 553.226 67.5725C552.146 67.7675 551.276 68.0225 550.616 68.3375C549.956 68.6525 549.484 69.02 549.199 69.44C548.929 69.86 548.794 70.3175 548.794 70.8125C548.794 71.7875 549.079 72.485 549.649 72.905C550.234 73.325 550.991 73.535 551.921 73.535ZM600.129 44.465V49.4375H590.342V77H584.289V49.4375H574.457V44.465H600.129ZM600.046 77V53.915H603.309C603.879 53.915 604.276 54.02 604.501 54.23C604.726 54.44 604.876 54.8 604.951 55.31L605.289 58.1C606.114 56.675 607.081 55.55 608.191 54.725C609.301 53.9 610.546 53.4875 611.926 53.4875C613.066 53.4875 614.011 53.75 614.761 54.275L614.041 58.4375C613.996 58.7075 613.899 58.9025 613.749 59.0225C613.599 59.1275 613.396 59.18 613.141 59.18C612.916 59.18 612.609 59.1275 612.219 59.0225C611.829 58.9175 611.311 58.865 610.666 58.865C609.511 58.865 608.521 59.1875 607.696 59.8325C606.871 60.4625 606.174 61.3925 605.604 62.6225V77H600.046ZM627.955 53.555C629.41 53.555 630.745 53.7875 631.96 54.2525C633.19 54.7175 634.248 55.4 635.133 56.3C636.018 57.185 636.708 58.28 637.203 59.585C637.698 60.875 637.945 62.3525 637.945 64.0175C637.945 64.4375 637.923 64.79 637.878 65.075C637.848 65.345 637.78 65.5625 637.675 65.7275C637.585 65.8775 637.458 65.99 637.293 66.065C637.128 66.125 636.918 66.155 636.663 66.155H622.398C622.563 68.525 623.2 70.265 624.31 71.375C625.42 72.485 626.89 73.04 628.72 73.04C629.62 73.04 630.393 72.935 631.038 72.725C631.698 72.515 632.268 72.2825 632.748 72.0275C633.243 71.7725 633.67 71.54 634.03 71.33C634.405 71.12 634.765 71.015 635.11 71.015C635.335 71.015 635.53 71.06 635.695 71.15C635.86 71.24 636.003 71.3675 636.123 71.5325L637.743 73.5575C637.128 74.2775 636.438 74.885 635.673 75.38C634.908 75.86 634.105 76.25 633.265 76.55C632.44 76.835 631.593 77.0375 630.723 77.1575C629.868 77.2775 629.035 77.3375 628.225 77.3375C626.62 77.3375 625.128 77.075 623.748 76.55C622.368 76.01 621.168 75.2225 620.148 74.1875C619.128 73.1375 618.325 71.8475 617.74 70.3175C617.155 68.7725 616.863 66.9875 616.863 64.9625C616.863 63.3875 617.118 61.91 617.628 60.53C618.138 59.135 618.865 57.9275 619.81 56.9075C620.77 55.8725 621.933 55.055 623.298 54.455C624.678 53.855 626.23 53.555 627.955 53.555ZM628.068 57.5375C626.448 57.5375 625.18 57.995 624.265 58.91C623.35 59.825 622.765 61.1225 622.51 62.8025H632.95C632.95 62.0825 632.853 61.4075 632.658 60.7775C632.463 60.1325 632.163 59.57 631.758 59.09C631.353 58.61 630.843 58.235 630.228 57.965C629.613 57.68 628.893 57.5375 628.068 57.5375ZM659.148 56.21C659.148 56.6 659.073 56.9825 658.923 57.3575C658.788 57.7175 658.623 58.025 658.428 58.28L647.448 72.725H658.833V77H640.991V74.6825C640.991 74.4275 641.051 74.1275 641.171 73.7825C641.291 73.4225 641.478 73.085 641.733 72.77L652.803 58.1675H641.643V53.915H659.148V56.21ZM673.446 53.555C675.171 53.555 676.731 53.8325 678.126 54.3875C679.536 54.9425 680.736 55.73 681.726 56.75C682.716 57.77 683.481 59.015 684.021 60.485C684.561 61.955 684.831 63.5975 684.831 65.4125C684.831 67.2425 684.561 68.8925 684.021 70.3625C683.481 71.8325 682.716 73.085 681.726 74.12C680.736 75.155 679.536 75.95 678.126 76.505C676.731 77.06 675.171 77.3375 673.446 77.3375C671.721 77.3375 670.154 77.06 668.744 76.505C667.334 75.95 666.126 75.155 665.121 74.12C664.131 73.085 663.359 71.8325 662.804 70.3625C662.264 68.8925 661.994 67.2425 661.994 65.4125C661.994 63.5975 662.264 61.955 662.804 60.485C663.359 59.015 664.131 57.77 665.121 56.75C666.126 55.73 667.334 54.9425 668.744 54.3875C670.154 53.8325 671.721 53.555 673.446 53.555ZM673.446 73.0625C675.366 73.0625 676.784 72.4175 677.699 71.1275C678.629 69.8375 679.094 67.9475 679.094 65.4575C679.094 62.9675 678.629 61.07 677.699 59.765C676.784 58.46 675.366 57.8075 673.446 57.8075C671.496 57.8075 670.056 58.4675 669.126 59.7875C668.196 61.0925 667.731 62.9825 667.731 65.4575C667.731 67.9325 668.196 69.8225 669.126 71.1275C670.056 72.4175 671.496 73.0625 673.446 73.0625ZM689.167 77V53.915H692.43C693 53.915 693.397 54.02 693.622 54.23C693.847 54.44 693.997 54.8 694.072 55.31L694.41 58.1C695.235 56.675 696.202 55.55 697.312 54.725C698.422 53.9 699.667 53.4875 701.047 53.4875C702.187 53.4875 703.132 53.75 703.882 54.275L703.162 58.4375C703.117 58.7075 703.02 58.9025 702.87 59.0225C702.72 59.1275 702.517 59.18 702.262 59.18C702.037 59.18 701.73 59.1275 701.34 59.0225C700.95 58.9175 700.432 58.865 699.787 58.865C698.632 58.865 697.642 59.1875 696.817 59.8325C695.992 60.4625 695.295 61.3925 694.725 62.6225V77H689.167ZM716.238 77V43.565H721.795V56.4125C722.695 55.5575 723.685 54.8675 724.765 54.3425C725.845 53.8175 727.113 53.555 728.568 53.555C729.828 53.555 730.945 53.7725 731.92 54.2075C732.895 54.6275 733.705 55.2275 734.35 56.0075C735.01 56.7725 735.505 57.695 735.835 58.775C736.18 59.84 736.353 61.0175 736.353 62.3075V77H730.795V62.3075C730.795 60.8975 730.465 59.81 729.805 59.045C729.16 58.265 728.185 57.875 726.88 57.875C725.92 57.875 725.02 58.0925 724.18 58.5275C723.34 58.9625 722.545 59.555 721.795 60.305V77H716.238ZM759.904 77H757.406C756.881 77 756.469 76.925 756.169 76.775C755.869 76.61 755.644 76.2875 755.494 75.8075L754.999 74.165C754.414 74.69 753.836 75.155 753.266 75.56C752.711 75.95 752.134 76.28 751.534 76.55C750.934 76.82 750.296 77.0225 749.621 77.1575C748.946 77.2925 748.196 77.36 747.371 77.36C746.396 77.36 745.496 77.2325 744.671 76.9775C743.846 76.7075 743.134 76.31 742.534 75.785C741.949 75.26 741.491 74.6075 741.161 73.8275C740.831 73.0475 740.666 72.14 740.666 71.105C740.666 70.235 740.891 69.38 741.341 68.54C741.806 67.685 742.571 66.92 743.636 66.245C744.701 65.555 746.119 64.985 747.889 64.535C749.659 64.085 751.856 63.83 754.481 63.77V62.42C754.481 60.875 754.151 59.735 753.491 59C752.846 58.25 751.901 57.875 750.656 57.875C749.756 57.875 749.006 57.98 748.406 58.19C747.806 58.4 747.281 58.64 746.831 58.91C746.396 59.165 745.991 59.3975 745.616 59.6075C745.241 59.8175 744.829 59.9225 744.379 59.9225C744.004 59.9225 743.681 59.825 743.411 59.63C743.141 59.435 742.924 59.195 742.759 58.91L741.746 57.1325C744.401 54.7025 747.604 53.4875 751.354 53.4875C752.704 53.4875 753.904 53.7125 754.954 54.1625C756.019 54.5975 756.919 55.2125 757.654 56.0075C758.389 56.7875 758.944 57.725 759.319 58.82C759.709 59.915 759.904 61.115 759.904 62.42V77ZM749.104 73.535C749.674 73.535 750.199 73.4825 750.679 73.3775C751.159 73.2725 751.609 73.115 752.029 72.905C752.464 72.695 752.876 72.44 753.266 72.14C753.671 71.825 754.076 71.4575 754.481 71.0375V67.145C752.861 67.22 751.504 67.3625 750.409 67.5725C749.329 67.7675 748.459 68.0225 747.799 68.3375C747.139 68.6525 746.666 69.02 746.381 69.44C746.111 69.86 745.976 70.3175 745.976 70.8125C745.976 71.7875 746.261 72.485 746.831 72.905C747.416 73.325 748.174 73.535 749.104 73.535ZM765.368 77V53.915H768.631C769.201 53.915 769.598 54.02 769.823 54.23C770.048 54.44 770.198 54.8 770.273 55.31L770.611 58.1C771.436 56.675 772.403 55.55 773.513 54.725C774.623 53.9 775.868 53.4875 777.248 53.4875C778.388 53.4875 779.333 53.75 780.083 54.275L779.363 58.4375C779.318 58.7075 779.221 58.9025 779.071 59.0225C778.921 59.1275 778.718 59.18 778.463 59.18C778.238 59.18 777.931 59.1275 777.541 59.0225C777.151 58.9175 776.633 58.865 775.988 58.865C774.833 58.865 773.843 59.1875 773.018 59.8325C772.193 60.4625 771.496 61.3925 770.926 62.6225V77H765.368ZM799.983 77C799.263 77 798.79 76.6625 798.565 75.9875L798.115 73.76C797.635 74.3 797.133 74.7875 796.608 75.2225C796.083 75.6575 795.513 76.0325 794.898 76.3475C794.298 76.6625 793.645 76.9025 792.94 77.0675C792.25 77.2475 791.5 77.3375 790.69 77.3375C789.43 77.3375 788.275 77.075 787.225 76.55C786.175 76.025 785.268 75.2675 784.503 74.2775C783.753 73.2725 783.168 72.035 782.748 70.565C782.343 69.095 782.14 67.415 782.14 65.525C782.14 63.815 782.373 62.225 782.838 60.755C783.303 59.285 783.97 58.01 784.84 56.93C785.71 55.85 786.753 55.01 787.968 54.41C789.183 53.795 790.548 53.4875 792.063 53.4875C793.353 53.4875 794.455 53.6975 795.37 54.1175C796.285 54.5225 797.103 55.07 797.823 55.76V43.565H803.38V77H799.983ZM792.58 72.9275C793.735 72.9275 794.718 72.6875 795.528 72.2075C796.338 71.7275 797.103 71.045 797.823 70.16V59.81C797.193 59.045 796.503 58.505 795.753 58.19C795.018 57.875 794.223 57.7175 793.368 57.7175C792.528 57.7175 791.763 57.875 791.073 58.19C790.398 58.505 789.82 58.985 789.34 59.63C788.875 60.26 788.515 61.07 788.26 62.06C788.005 63.035 787.878 64.19 787.878 65.525C787.878 66.875 787.983 68.0225 788.193 68.9675C788.418 69.8975 788.733 70.6625 789.138 71.2625C789.543 71.8475 790.038 72.275 790.623 72.545C791.208 72.8 791.86 72.9275 792.58 72.9275ZM806.589 53.915H810.999C811.419 53.915 811.772 54.0125 812.057 54.2075C812.342 54.4025 812.522 54.65 812.597 54.95L815.904 67.28C816.084 67.955 816.227 68.615 816.332 69.26C816.452 69.905 816.564 70.55 816.669 71.195C816.834 70.55 817.007 69.905 817.187 69.26C817.382 68.615 817.584 67.955 817.794 67.28L821.619 54.905C821.709 54.605 821.889 54.3575 822.159 54.1625C822.429 53.9675 822.744 53.87 823.104 53.87H825.557C825.962 53.87 826.299 53.9675 826.569 54.1625C826.839 54.3575 827.019 54.605 827.109 54.905L830.889 67.505C831.084 68.15 831.257 68.78 831.407 69.395C831.572 69.995 831.729 70.6025 831.879 71.2175C831.984 70.5725 832.097 69.9275 832.217 69.2825C832.352 68.6375 832.517 67.97 832.712 67.28L836.132 54.95C836.207 54.65 836.387 54.4025 836.672 54.2075C836.957 54.0125 837.287 53.915 837.662 53.915H841.869L834.557 77H830.079C829.599 77 829.254 76.67 829.044 76.01L824.882 62.6675C824.747 62.2325 824.619 61.7975 824.499 61.3625C824.394 60.9125 824.304 60.47 824.229 60.035C824.139 60.485 824.042 60.935 823.937 61.385C823.832 61.82 823.712 62.2625 823.577 62.7125L819.369 76.01C819.159 76.67 818.754 77 818.154 77H813.902L806.589 53.915ZM863.087 77H860.59C860.065 77 859.652 76.925 859.352 76.775C859.052 76.61 858.827 76.2875 858.677 75.8075L858.182 74.165C857.597 74.69 857.02 75.155 856.45 75.56C855.895 75.95 855.317 76.28 854.717 76.55C854.117 76.82 853.48 77.0225 852.805 77.1575C852.13 77.2925 851.38 77.36 850.555 77.36C849.58 77.36 848.68 77.2325 847.855 76.9775C847.03 76.7075 846.317 76.31 845.717 75.785C845.132 75.26 844.675 74.6075 844.345 73.8275C844.015 73.0475 843.85 72.14 843.85 71.105C843.85 70.235 844.075 69.38 844.525 68.54C844.99 67.685 845.755 66.92 846.82 66.245C847.885 65.555 849.302 64.985 851.072 64.535C852.842 64.085 855.04 63.83 857.665 63.77V62.42C857.665 60.875 857.335 59.735 856.675 59C856.03 58.25 855.085 57.875 853.84 57.875C852.94 57.875 852.19 57.98 851.59 58.19C850.99 58.4 850.465 58.64 850.015 58.91C849.58 59.165 849.175 59.3975 848.8 59.6075C848.425 59.8175 848.012 59.9225 847.562 59.9225C847.187 59.9225 846.865 59.825 846.595 59.63C846.325 59.435 846.107 59.195 845.942 58.91L844.93 57.1325C847.585 54.7025 850.787 53.4875 854.537 53.4875C855.887 53.4875 857.087 53.7125 858.137 54.1625C859.202 54.5975 860.102 55.2125 860.837 56.0075C861.572 56.7875 862.127 57.725 862.502 58.82C862.892 59.915 863.087 61.115 863.087 62.42V77ZM852.287 73.535C852.857 73.535 853.382 73.4825 853.862 73.3775C854.342 73.2725 854.792 73.115 855.212 72.905C855.647 72.695 856.06 72.44 856.45 72.14C856.855 71.825 857.26 71.4575 857.665 71.0375V67.145C856.045 67.22 854.687 67.3625 853.592 67.5725C852.512 67.7675 851.642 68.0225 850.982 68.3375C850.322 68.6525 849.85 69.02 849.565 69.44C849.295 69.86 849.16 70.3175 849.16 70.8125C849.16 71.7875 849.445 72.485 850.015 72.905C850.6 73.325 851.357 73.535 852.287 73.535ZM868.552 77V53.915H871.815C872.385 53.915 872.782 54.02 873.007 54.23C873.232 54.44 873.382 54.8 873.457 55.31L873.795 58.1C874.62 56.675 875.587 55.55 876.697 54.725C877.807 53.9 879.052 53.4875 880.432 53.4875C881.572 53.4875 882.517 53.75 883.267 54.275L882.547 58.4375C882.502 58.7075 882.405 58.9025 882.255 59.0225C882.105 59.1275 881.902 59.18 881.647 59.18C881.422 59.18 881.115 59.1275 880.725 59.0225C880.335 58.9175 879.817 58.865 879.172 58.865C878.017 58.865 877.027 59.1875 876.202 59.8325C875.377 60.4625 874.68 61.3925 874.11 62.6225V77H868.552ZM896.461 53.555C897.916 53.555 899.251 53.7875 900.466 54.2525C901.696 54.7175 902.754 55.4 903.639 56.3C904.524 57.185 905.214 58.28 905.709 59.585C906.204 60.875 906.451 62.3525 906.451 64.0175C906.451 64.4375 906.429 64.79 906.384 65.075C906.354 65.345 906.286 65.5625 906.181 65.7275C906.091 65.8775 905.964 65.99 905.799 66.065C905.634 66.125 905.424 66.155 905.169 66.155H890.904C891.069 68.525 891.706 70.265 892.816 71.375C893.926 72.485 895.396 73.04 897.226 73.04C898.126 73.04 898.899 72.935 899.544 72.725C900.204 72.515 900.774 72.2825 901.254 72.0275C901.749 71.7725 902.176 71.54 902.536 71.33C902.911 71.12 903.271 71.015 903.616 71.015C903.841 71.015 904.036 71.06 904.201 71.15C904.366 71.24 904.509 71.3675 904.629 71.5325L906.249 73.5575C905.634 74.2775 904.944 74.885 904.179 75.38C903.414 75.86 902.611 76.25 901.771 76.55C900.946 76.835 900.099 77.0375 899.229 77.1575C898.374 77.2775 897.541 77.3375 896.731 77.3375C895.126 77.3375 893.634 77.075 892.254 76.55C890.874 76.01 889.674 75.2225 888.654 74.1875C887.634 73.1375 886.831 71.8475 886.246 70.3175C885.661 68.7725 885.369 66.9875 885.369 64.9625C885.369 63.3875 885.624 61.91 886.134 60.53C886.644 59.135 887.371 57.9275 888.316 56.9075C889.276 55.8725 890.439 55.055 891.804 54.455C893.184 53.855 894.736 53.555 896.461 53.555ZM896.574 57.5375C894.954 57.5375 893.686 57.995 892.771 58.91C891.856 59.825 891.271 61.1225 891.016 62.8025H901.456C901.456 62.0825 901.359 61.4075 901.164 60.7775C900.969 60.1325 900.669 59.57 900.264 59.09C899.859 58.61 899.349 58.235 898.734 57.965C898.119 57.68 897.399 57.5375 896.574 57.5375ZM916.848 53.915H921.258C921.678 53.915 922.03 54.0125 922.315 54.2075C922.6 54.4025 922.78 54.65 922.855 54.95L926.163 67.28C926.343 67.955 926.485 68.615 926.59 69.26C926.71 69.905 926.823 70.55 926.928 71.195C927.093 70.55 927.265 69.905 927.445 69.26C927.64 68.615 927.843 67.955 928.053 67.28L931.878 54.905C931.968 54.605 932.148 54.3575 932.418 54.1625C932.688 53.9675 933.003 53.87 933.363 53.87H935.815C936.22 53.87 936.558 53.9675 936.828 54.1625C937.098 54.3575 937.278 54.605 937.368 54.905L941.148 67.505C941.343 68.15 941.515 68.78 941.665 69.395C941.83 69.995 941.988 70.6025 942.138 71.2175C942.243 70.5725 942.355 69.9275 942.475 69.2825C942.61 68.6375 942.775 67.97 942.97 67.28L946.39 54.95C946.465 54.65 946.645 54.4025 946.93 54.2075C947.215 54.0125 947.545 53.915 947.92 53.915H952.128L944.815 77H940.338C939.858 77 939.513 76.67 939.303 76.01L935.14 62.6675C935.005 62.2325 934.878 61.7975 934.758 61.3625C934.653 60.9125 934.563 60.47 934.488 60.035C934.398 60.485 934.3 60.935 934.195 61.385C934.09 61.82 933.97 62.2625 933.835 62.7125L929.628 76.01C929.418 76.67 929.013 77 928.413 77H924.16L916.848 53.915ZM973.346 77H970.849C970.324 77 969.911 76.925 969.611 76.775C969.311 76.61 969.086 76.2875 968.936 75.8075L968.441 74.165C967.856 74.69 967.279 75.155 966.709 75.56C966.154 75.95 965.576 76.28 964.976 76.55C964.376 76.82 963.739 77.0225 963.064 77.1575C962.389 77.2925 961.639 77.36 960.814 77.36C959.839 77.36 958.939 77.2325 958.114 76.9775C957.289 76.7075 956.576 76.31 955.976 75.785C955.391 75.26 954.934 74.6075 954.604 73.8275C954.274 73.0475 954.109 72.14 954.109 71.105C954.109 70.235 954.334 69.38 954.784 68.54C955.249 67.685 956.014 66.92 957.079 66.245C958.144 65.555 959.561 64.985 961.331 64.535C963.101 64.085 965.299 63.83 967.924 63.77V62.42C967.924 60.875 967.594 59.735 966.934 59C966.289 58.25 965.344 57.875 964.099 57.875C963.199 57.875 962.449 57.98 961.849 58.19C961.249 58.4 960.724 58.64 960.274 58.91C959.839 59.165 959.434 59.3975 959.059 59.6075C958.684 59.8175 958.271 59.9225 957.821 59.9225C957.446 59.9225 957.124 59.825 956.854 59.63C956.584 59.435 956.366 59.195 956.201 58.91L955.189 57.1325C957.844 54.7025 961.046 53.4875 964.796 53.4875C966.146 53.4875 967.346 53.7125 968.396 54.1625C969.461 54.5975 970.361 55.2125 971.096 56.0075C971.831 56.7875 972.386 57.725 972.761 58.82C973.151 59.915 973.346 61.115 973.346 62.42V77ZM962.546 73.535C963.116 73.535 963.641 73.4825 964.121 73.3775C964.601 73.2725 965.051 73.115 965.471 72.905C965.906 72.695 966.319 72.44 966.709 72.14C967.114 71.825 967.519 71.4575 967.924 71.0375V67.145C966.304 67.22 964.946 67.3625 963.851 67.5725C962.771 67.7675 961.901 68.0225 961.241 68.3375C960.581 68.6525 960.109 69.02 959.824 69.44C959.554 69.86 959.419 70.3175 959.419 70.8125C959.419 71.7875 959.704 72.485 960.274 72.905C960.859 73.325 961.616 73.535 962.546 73.535ZM984.728 43.565V77H979.171V43.565H984.728ZM996.945 43.565V77H991.388V43.565H996.945ZM1012.78 53.555C1014.24 53.555 1015.57 53.7875 1016.79 54.2525C1018.02 54.7175 1019.08 55.4 1019.96 56.3C1020.85 57.185 1021.54 58.28 1022.03 59.585C1022.53 60.875 1022.77 62.3525 1022.77 64.0175C1022.77 64.4375 1022.75 64.79 1022.71 65.075C1022.68 65.345 1022.61 65.5625 1022.5 65.7275C1022.41 65.8775 1022.29 65.99 1022.12 66.065C1021.96 66.125 1021.75 66.155 1021.49 66.155H1007.23C1007.39 68.525 1008.03 70.265 1009.14 71.375C1010.25 72.485 1011.72 73.04 1013.55 73.04C1014.45 73.04 1015.22 72.935 1015.87 72.725C1016.53 72.515 1017.1 72.2825 1017.58 72.0275C1018.07 71.7725 1018.5 71.54 1018.86 71.33C1019.23 71.12 1019.59 71.015 1019.94 71.015C1020.16 71.015 1020.36 71.06 1020.52 71.15C1020.69 71.24 1020.83 71.3675 1020.95 71.5325L1022.57 73.5575C1021.96 74.2775 1021.27 74.885 1020.5 75.38C1019.74 75.86 1018.93 76.25 1018.09 76.55C1017.27 76.835 1016.42 77.0375 1015.55 77.1575C1014.7 77.2775 1013.86 77.3375 1013.05 77.3375C1011.45 77.3375 1009.96 77.075 1008.58 76.55C1007.2 76.01 1006 75.2225 1004.98 74.1875C1003.96 73.1375 1003.15 71.8475 1002.57 70.3175C1001.98 68.7725 1001.69 66.9875 1001.69 64.9625C1001.69 63.3875 1001.95 61.91 1002.46 60.53C1002.97 59.135 1003.69 57.9275 1004.64 56.9075C1005.6 55.8725 1006.76 55.055 1008.13 54.455C1009.51 53.855 1011.06 53.555 1012.78 53.555ZM1012.9 57.5375C1011.28 57.5375 1010.01 57.995 1009.09 58.91C1008.18 59.825 1007.59 61.1225 1007.34 62.8025H1017.78C1017.78 62.0825 1017.68 61.4075 1017.49 60.7775C1017.29 60.1325 1016.99 59.57 1016.59 59.09C1016.18 58.61 1015.67 58.235 1015.06 57.965C1014.44 57.68 1013.72 57.5375 1012.9 57.5375ZM1034.87 77.36C1032.87 77.36 1031.33 76.7975 1030.25 75.6725C1029.17 74.5325 1028.63 72.965 1028.63 70.97V58.0775H1026.29C1025.99 58.0775 1025.73 57.98 1025.51 57.785C1025.3 57.59 1025.19 57.2975 1025.19 56.9075V54.7025L1028.9 54.095L1030.07 47.795C1030.13 47.495 1030.27 47.2625 1030.48 47.0975C1030.7 46.9325 1030.98 46.85 1031.31 46.85H1034.19V54.1175H1040.27V58.0775H1034.19V70.5875C1034.19 71.3075 1034.37 71.87 1034.73 72.275C1035.09 72.68 1035.57 72.8825 1036.17 72.8825C1036.52 72.8825 1036.8 72.845 1037.02 72.77C1037.27 72.68 1037.47 72.59 1037.63 72.5C1037.81 72.41 1037.97 72.3275 1038.11 72.2525C1038.24 72.1625 1038.38 72.1175 1038.51 72.1175C1038.68 72.1175 1038.81 72.1625 1038.92 72.2525C1039.02 72.3275 1039.13 72.4475 1039.25 72.6125L1040.92 75.3125C1040.11 75.9875 1039.18 76.4975 1038.13 76.8425C1037.08 77.1875 1035.99 77.36 1034.87 77.36Z" fill="white"/>
<g clip-path="url(#clip0)">
<path d="M92.4947 31.5689C84.6404 31.5689 78.2724 37.9366 78.2724 45.7912V51.1089C75.516 51.6019 72.7344 52.2829 72.7344 53.1532V81.0152C72.7344 81.0152 72.7344 81.7966 73.5854 82.1349C76.7277 83.3852 89.0647 87.7579 91.896 88.7592C92.269 88.8912 92.3477 88.8876 92.477 88.8876C92.613 88.8876 92.6834 88.8922 93.0534 88.7612C95.8794 87.7622 108.259 83.3786 111.382 82.1422C112.193 81.8212 112.216 81.0266 112.216 81.0266V53.1546C112.216 52.2846 109.473 51.6019 106.716 51.1086V45.7909C106.717 37.9366 100.349 31.5689 92.4947 31.5689ZM92.4947 38.3659C97.1147 38.3659 99.9254 41.1712 99.9254 45.7912V50.4239C94.709 50.0439 90.2764 50.0439 85.0594 50.4239V45.7912C85.0594 41.1709 87.874 38.3659 92.4947 38.3659ZM92.4764 57.2632C98.9394 57.2736 104.372 57.7549 104.372 58.6749C104.372 58.6749 104.372 75.7819 104.372 76.0349C104.372 76.2882 104.332 76.3309 104.092 76.4219C103.852 76.5132 93.0424 80.4196 93.0424 80.4196C93.0424 80.4196 92.5987 80.5669 92.4767 80.5669C92.3384 80.5669 91.8944 80.4136 91.8944 80.4136C91.8944 80.4136 81.0894 76.5109 80.8467 76.4192C80.6037 76.3279 80.5724 76.2806 80.5724 76.0252C80.5724 75.7439 80.5724 58.6742 80.5724 58.6742C80.5724 57.7292 86.0137 57.2529 92.4764 57.2632Z" fill="black"/>
<path d="M130.535 76.2797V57.259H123.602V50.4413H145.256V57.259H138.36V76.2797H130.535Z" fill="black"/>
<path d="M162.804 76.2797L159.241 68.145H156.413V76.2797H148.588V50.4413H162.378C168.421 50.4413 171.676 54.4698 171.676 59.312C171.676 63.768 169.08 66.13 167.027 67.1373L171.715 76.2794H162.804V76.2797H162.804ZM163.734 59.2728C163.734 57.879 162.494 57.2584 161.177 57.2584H156.412V61.3257H161.177C162.494 61.3254 163.734 60.707 163.734 59.2728Z" fill="black"/>
<path d="M175.775 76.2797V50.4413H195.377V57.259H183.6V59.816H195.106V66.6346H183.6V69.4614H195.377V76.2797H175.775Z" fill="black"/>
<path d="M199.447 76.2845V70.0868L209.286 57.2641H199.447V50.4464H219.629V56.6056L209.751 69.4668H219.9V76.2845H199.447Z" fill="black"/>
<path d="M221.818 63.3854C221.818 55.4434 227.977 50.0202 235.957 50.0202C243.937 50.0202 250.097 55.4434 250.097 63.3854C250.097 71.3261 243.937 76.7493 235.957 76.7493C227.977 76.7493 221.818 71.3261 221.818 63.3854ZM242.156 63.3854C242.156 59.7819 239.715 56.9156 235.957 56.9156C232.2 56.9156 229.759 59.7822 229.759 63.3854C229.759 66.9876 232.199 69.8536 235.957 69.8536C239.715 69.8536 242.156 66.987 242.156 63.3854Z" fill="black"/>
<path d="M267.648 76.2845L264.086 68.1498H261.257V76.2845H253.432V50.4464H267.223C273.267 50.4464 276.521 54.4749 276.521 59.3167C276.521 63.7727 273.925 66.1347 271.871 67.1427L276.559 76.2848H267.648V76.2845ZM268.578 59.2778C268.578 57.8837 267.339 57.2634 266.021 57.2634H261.256V61.3308H266.021C267.338 61.3311 268.578 60.7121 268.578 59.2778Z" fill="black"/>
</g>
<defs>
<filter id="filter0_d" x="342" y="-199" width="889" height="524" filterUnits="userSpaceOnUse" color-interpolation-filters="sRGB">
<feFlood flood-opacity="0" result="BackgroundImageFix"/>
<feColorMatrix in="SourceAlpha" type="matrix" values="0 0 0 0 0 0 0 0 0 0 0 0 0 0 0 0 0 0 127 0"/>
<feOffset dx="-6" dy="3"/>
<feGaussianBlur stdDeviation="5"/>
<feColorMatrix type="matrix" values="0 0 0 0 0.733333 0 0 0 0 0.733333 0 0 0 0 0.733333 0 0 0 0.5 0"/>
<feBlend mode="normal" in2="BackgroundImageFix" result="effect1_dropShadow"/>
<feBlend mode="normal" in="SourceGraphic" in2="effect1_dropShadow" result="shape"/>
</filter>
<linearGradient id="paint0_linear" x1="155.5" y1="52" x2="1600.5" y2="59.9999" gradientUnits="userSpaceOnUse">
<stop stop-color="#01B757"/>
<stop offset="0.936291" stop-color="white" stop-opacity="0.57"/>
<stop offset="1" stop-color="#E8EDEA" stop-opacity="0.66"/>
</linearGradient>
<clipPath id="clip0">
<rect width="228.661" height="70" fill="white" transform="translate(59.8672 25)"/>
</clipPath>
</defs>
</svg>
