<svg viewBox="0 0 345 150" xmlns="http://www.w3.org/2000/svg">
<rect width="345" height="150" rx="3" fill="white"/>
<path d="M38.72 69.624C39.448 69.624 40.08 69.56 40.616 69.432C41.16 69.296 41.676 69.112 42.164 68.88V65.724H39.992C39.784 65.724 39.62 65.668 39.5 65.556C39.38 65.436 39.32 65.292 39.32 65.124V63.3H45.092V70.32C44.652 70.64 44.192 70.92 43.712 71.16C43.24 71.392 42.732 71.584 42.188 71.736C41.652 71.888 41.076 72 40.46 72.072C39.844 72.152 39.18 72.192 38.468 72.192C37.204 72.192 36.04 71.972 34.976 71.532C33.912 71.092 32.992 70.48 32.216 69.696C31.44 68.912 30.832 67.976 30.392 66.888C29.96 65.8 29.744 64.612 29.744 63.324C29.744 62.02 29.956 60.824 30.38 59.736C30.804 58.648 31.404 57.712 32.18 56.928C32.964 56.144 33.912 55.536 35.024 55.104C36.136 54.672 37.384 54.456 38.768 54.456C40.184 54.456 41.408 54.668 42.44 55.092C43.48 55.508 44.36 56.052 45.08 56.724L44.144 58.188C43.96 58.484 43.716 58.632 43.412 58.632C43.22 58.632 43.024 58.568 42.824 58.44C42.568 58.288 42.304 58.136 42.032 57.984C41.768 57.832 41.472 57.7 41.144 57.588C40.824 57.476 40.46 57.384 40.052 57.312C39.652 57.24 39.188 57.204 38.66 57.204C37.804 57.204 37.028 57.348 36.332 57.636C35.644 57.924 35.056 58.336 34.568 58.872C34.08 59.408 33.704 60.052 33.44 60.804C33.176 61.556 33.044 62.396 33.044 63.324C33.044 64.324 33.184 65.216 33.464 66C33.744 66.776 34.136 67.432 34.64 67.968C35.144 68.504 35.744 68.916 36.44 69.204C37.136 69.484 37.896 69.624 38.72 69.624ZM53.0158 59.496C53.7918 59.496 54.5038 59.62 55.1518 59.868C55.8078 60.116 56.3718 60.48 56.8438 60.96C57.3158 61.432 57.6838 62.016 57.9478 62.712C58.2118 63.4 58.3438 64.188 58.3438 65.076C58.3438 65.3 58.3318 65.488 58.3078 65.64C58.2918 65.784 58.2558 65.9 58.1998 65.988C58.1518 66.068 58.0838 66.128 57.9958 66.168C57.9078 66.2 57.7958 66.216 57.6598 66.216H50.0518C50.1398 67.48 50.4798 68.408 51.0718 69C51.6638 69.592 52.4478 69.888 53.4238 69.888C53.9038 69.888 54.3158 69.832 54.6598 69.72C55.0118 69.608 55.3158 69.484 55.5718 69.348C55.8358 69.212 56.0638 69.088 56.2558 68.976C56.4558 68.864 56.6478 68.808 56.8318 68.808C56.9518 68.808 57.0558 68.832 57.1438 68.88C57.2318 68.928 57.3078 68.996 57.3718 69.084L58.2358 70.164C57.9078 70.548 57.5398 70.872 57.1318 71.136C56.7238 71.392 56.2958 71.6 55.8478 71.76C55.4078 71.912 54.9558 72.02 54.4918 72.084C54.0358 72.148 53.5918 72.18 53.1598 72.18C52.3038 72.18 51.5078 72.04 50.7718 71.76C50.0358 71.472 49.3958 71.052 48.8518 70.5C48.3078 69.94 47.8798 69.252 47.5678 68.436C47.2558 67.612 47.0998 66.66 47.0998 65.58C47.0998 64.74 47.2358 63.952 47.5078 63.216C47.7798 62.472 48.1678 61.828 48.6718 61.284C49.1838 60.732 49.8038 60.296 50.5318 59.976C51.2678 59.656 52.0958 59.496 53.0158 59.496ZM53.0758 61.62C52.2118 61.62 51.5358 61.864 51.0478 62.352C50.5598 62.84 50.2478 63.532 50.1118 64.428H55.6798C55.6798 64.044 55.6278 63.684 55.5238 63.348C55.4198 63.004 55.2598 62.704 55.0438 62.448C54.8278 62.192 54.5558 61.992 54.2278 61.848C53.8998 61.696 53.5158 61.62 53.0758 61.62ZM64.7921 72.192C63.7281 72.192 62.9081 71.892 62.3321 71.292C61.7561 70.684 61.4681 69.848 61.4681 68.784V61.908H60.2201C60.0601 61.908 59.9201 61.856 59.8001 61.752C59.6881 61.648 59.6321 61.492 59.6321 61.284V60.108L61.6121 59.784L62.2361 56.424C62.2681 56.264 62.3401 56.14 62.4521 56.052C62.5721 55.964 62.7201 55.92 62.8961 55.92H64.4321V59.796H67.6721V61.908H64.4321V68.58C64.4321 68.964 64.5281 69.264 64.7201 69.48C64.9121 69.696 65.1681 69.804 65.4881 69.804C65.6721 69.804 65.8241 69.784 65.9441 69.744C66.0721 69.696 66.1801 69.648 66.2681 69.6C66.3641 69.552 66.4481 69.508 66.5201 69.468C66.5921 69.42 66.6641 69.396 66.7361 69.396C66.8241 69.396 66.8961 69.42 66.9521 69.468C67.0081 69.508 67.0681 69.572 67.1321 69.66L68.0201 71.1C67.5881 71.46 67.0921 71.732 66.5321 71.916C65.9721 72.1 65.3921 72.192 64.7921 72.192ZM79.0379 75.384C78.9499 75.592 78.8339 75.748 78.6899 75.852C78.5539 75.964 78.3419 76.02 78.0539 76.02H75.8459L78.1499 71.088L73.1699 59.688H75.7619C76.0019 59.688 76.1859 59.744 76.3139 59.856C76.4419 59.968 76.5379 60.096 76.6019 60.24L79.2299 66.624C79.3179 66.832 79.3939 67.048 79.4579 67.272C79.5219 67.496 79.5779 67.72 79.6259 67.944C79.6899 67.712 79.7579 67.488 79.8299 67.272C79.9099 67.056 79.9939 66.836 80.0819 66.612L82.5539 60.24C82.6179 60.08 82.7219 59.948 82.8659 59.844C83.0179 59.74 83.1859 59.688 83.3699 59.688H85.7459L79.0379 75.384ZM92.3244 59.496C93.2444 59.496 94.0764 59.644 94.8204 59.94C95.5724 60.236 96.2124 60.656 96.7404 61.2C97.2684 61.744 97.6764 62.408 97.9644 63.192C98.2524 63.976 98.3964 64.852 98.3964 65.82C98.3964 66.796 98.2524 67.676 97.9644 68.46C97.6764 69.244 97.2684 69.912 96.7404 70.464C96.2124 71.016 95.5724 71.44 94.8204 71.736C94.0764 72.032 93.2444 72.18 92.3244 72.18C91.4044 72.18 90.5684 72.032 89.8164 71.736C89.0644 71.44 88.4204 71.016 87.8844 70.464C87.3564 69.912 86.9444 69.244 86.6484 68.46C86.3604 67.676 86.2164 66.796 86.2164 65.82C86.2164 64.852 86.3604 63.976 86.6484 63.192C86.9444 62.408 87.3564 61.744 87.8844 61.2C88.4204 60.656 89.0644 60.236 89.8164 59.94C90.5684 59.644 91.4044 59.496 92.3244 59.496ZM92.3244 69.9C93.3484 69.9 94.1044 69.556 94.5924 68.868C95.0884 68.18 95.3364 67.172 95.3364 65.844C95.3364 64.516 95.0884 63.504 94.5924 62.808C94.1044 62.112 93.3484 61.764 92.3244 61.764C91.2844 61.764 90.5164 62.116 90.0204 62.82C89.5244 63.516 89.2764 64.524 89.2764 65.844C89.2764 67.164 89.5244 68.172 90.0204 68.868C90.5164 69.556 91.2844 69.9 92.3244 69.9ZM103.421 59.688V67.512C103.421 68.264 103.593 68.848 103.937 69.264C104.289 69.672 104.813 69.876 105.509 69.876C106.021 69.876 106.501 69.764 106.949 69.54C107.397 69.308 107.821 68.992 108.221 68.592V59.688H111.185V72H109.373C108.989 72 108.737 71.82 108.617 71.46L108.413 70.476C108.157 70.732 107.893 70.968 107.621 71.184C107.349 71.392 107.057 71.572 106.745 71.724C106.441 71.868 106.109 71.98 105.749 72.06C105.397 72.148 105.017 72.192 104.609 72.192C103.937 72.192 103.341 72.08 102.821 71.856C102.309 71.624 101.877 71.3 101.525 70.884C101.173 70.468 100.905 69.976 100.721 69.408C100.545 68.832 100.457 68.2 100.457 67.512V59.688H103.421ZM114.35 72V59.688H116.09C116.394 59.688 116.606 59.744 116.726 59.856C116.846 59.968 116.926 60.16 116.966 60.432L117.146 61.92C117.586 61.16 118.102 60.56 118.694 60.12C119.286 59.68 119.95 59.46 120.686 59.46C121.294 59.46 121.798 59.6 122.198 59.88L121.814 62.1C121.79 62.244 121.738 62.348 121.658 62.412C121.578 62.468 121.47 62.496 121.334 62.496C121.214 62.496 121.05 62.468 120.842 62.412C120.634 62.356 120.358 62.328 120.014 62.328C119.398 62.328 118.87 62.5 118.43 62.844C117.99 63.18 117.618 63.676 117.314 64.332V72H114.35Z" fill="#163150"/>
<path d="M30.168 99V87.216H31.592V91.984C31.9387 91.616 32.3227 91.3227 32.744 91.104C33.1653 90.88 33.6507 90.768 34.2 90.768C34.6427 90.768 35.032 90.8427 35.368 90.992C35.7093 91.136 35.992 91.344 36.216 91.616C36.4453 91.8827 36.6187 92.2053 36.736 92.584C36.8533 92.9627 36.912 93.3813 36.912 93.84V99H35.488V93.84C35.488 93.2267 35.3467 92.752 35.064 92.416C34.7867 92.0747 34.36 91.904 33.784 91.904C33.3627 91.904 32.968 92.0053 32.6 92.208C32.2373 92.4107 31.9013 92.6853 31.592 93.032V99H30.168ZM45.0106 99H44.3786C44.24 99 44.128 98.9787 44.0426 98.936C43.9573 98.8933 43.9013 98.8027 43.8746 98.664L43.7146 97.912C43.5013 98.104 43.2933 98.2773 43.0906 98.432C42.888 98.5813 42.6746 98.7093 42.4506 98.816C42.2266 98.9173 41.9866 98.9947 41.7306 99.048C41.48 99.1013 41.2 99.128 40.8906 99.128C40.576 99.128 40.28 99.0853 40.0026 99C39.7306 98.9093 39.4933 98.776 39.2906 98.6C39.088 98.424 38.9253 98.2027 38.8026 97.936C38.6853 97.664 38.6266 97.344 38.6266 96.976C38.6266 96.656 38.7146 96.3493 38.8906 96.056C39.0666 95.7573 39.3493 95.4933 39.7386 95.264C40.1333 95.0347 40.648 94.848 41.2826 94.704C41.9173 94.5547 42.6933 94.4693 43.6106 94.448V93.816C43.6106 93.1867 43.4746 92.712 43.2026 92.392C42.936 92.0667 42.5386 91.904 42.0106 91.904C41.664 91.904 41.3706 91.9493 41.1306 92.04C40.896 92.1253 40.6906 92.224 40.5146 92.336C40.344 92.4427 40.1946 92.5413 40.0666 92.632C39.944 92.7173 39.8213 92.76 39.6986 92.76C39.6026 92.76 39.5173 92.736 39.4426 92.688C39.3733 92.6347 39.3173 92.5707 39.2746 92.496L39.0186 92.04C39.4666 91.608 39.9493 91.2853 40.4666 91.072C40.984 90.8587 41.5573 90.752 42.1866 90.752C42.64 90.752 43.0426 90.8267 43.3946 90.976C43.7466 91.1253 44.0426 91.3333 44.2826 91.6C44.5226 91.8667 44.704 92.1893 44.8266 92.568C44.9493 92.9467 45.0106 93.3627 45.0106 93.816V99ZM41.3146 98.128C41.5653 98.128 41.7946 98.104 42.0026 98.056C42.2106 98.0027 42.4053 97.9307 42.5866 97.84C42.7733 97.744 42.9493 97.6293 43.1146 97.496C43.2853 97.3627 43.4506 97.2107 43.6106 97.04V95.352C42.9546 95.3733 42.3973 95.4267 41.9386 95.512C41.48 95.592 41.1066 95.6987 40.8186 95.832C40.5306 95.9653 40.32 96.1227 40.1866 96.304C40.0586 96.4853 39.9946 96.688 39.9946 96.912C39.9946 97.1253 40.0293 97.3093 40.0986 97.464C40.168 97.6187 40.2613 97.7467 40.3786 97.848C40.496 97.944 40.6346 98.016 40.7946 98.064C40.9546 98.1067 41.128 98.128 41.3146 98.128ZM47.168 99V90.896H47.984C48.1387 90.896 48.2453 90.9253 48.304 90.984C48.3627 91.0427 48.4027 91.144 48.424 91.288L48.52 92.552C48.7973 91.9867 49.1387 91.5467 49.544 91.232C49.9547 90.912 50.4347 90.752 50.984 90.752C51.208 90.752 51.4107 90.7787 51.592 90.832C51.7733 90.88 51.9413 90.9493 52.096 91.04L51.912 92.104C51.8747 92.2373 51.792 92.304 51.664 92.304C51.5893 92.304 51.4747 92.28 51.32 92.232C51.1653 92.1787 50.9493 92.152 50.672 92.152C50.176 92.152 49.76 92.296 49.424 92.584C49.0933 92.872 48.816 93.2907 48.592 93.84V99H47.168ZM59.3251 99C59.1225 99 58.9945 98.9013 58.9411 98.704L58.8131 97.72C58.4665 98.1413 58.0691 98.48 57.6211 98.736C57.1785 98.9867 56.6691 99.112 56.0931 99.112C55.6291 99.112 55.2078 99.024 54.8291 98.848C54.4505 98.6667 54.1278 98.4027 53.8611 98.056C53.5945 97.7093 53.3891 97.2773 53.2451 96.76C53.1011 96.2427 53.0291 95.648 53.0291 94.976C53.0291 94.3787 53.1091 93.824 53.2691 93.312C53.4291 92.7947 53.6585 92.3467 53.9571 91.968C54.2611 91.5893 54.6291 91.2933 55.0611 91.08C55.4931 90.8613 55.9838 90.752 56.5331 90.752C57.0291 90.752 57.4531 90.8373 57.8051 91.008C58.1571 91.1733 58.4718 91.408 58.7491 91.712V87.216H60.1731V99H59.3251ZM56.5651 97.96C57.0291 97.96 57.4345 97.8533 57.7811 97.64C58.1331 97.4267 58.4558 97.1253 58.7491 96.736V92.816C58.4878 92.464 58.1998 92.2187 57.8851 92.08C57.5758 91.936 57.2318 91.864 56.8531 91.864C56.0958 91.864 55.5145 92.1333 55.1091 92.672C54.7038 93.2107 54.5011 93.9787 54.5011 94.976C54.5011 95.504 54.5465 95.9573 54.6371 96.336C54.7278 96.7093 54.8611 97.0187 55.0371 97.264C55.2131 97.504 55.4291 97.68 55.6851 97.792C55.9411 97.904 56.2345 97.96 56.5651 97.96ZM61.5026 90.896H62.6226C62.74 90.896 62.836 90.9253 62.9106 90.984C62.9853 91.0427 63.036 91.112 63.0626 91.192L64.6146 96.408C64.6573 96.6 64.6973 96.7867 64.7346 96.968C64.772 97.144 64.804 97.3227 64.8306 97.504C64.8733 97.3227 64.9213 97.144 64.9746 96.968C65.028 96.7867 65.084 96.6 65.1426 96.408L66.8546 91.16C66.8813 91.08 66.9266 91.0133 66.9906 90.96C67.06 90.9067 67.1453 90.88 67.2466 90.88H67.8626C67.9693 90.88 68.0573 90.9067 68.1266 90.96C68.196 91.0133 68.244 91.08 68.2706 91.16L69.9426 96.408C70.0013 96.5947 70.052 96.7787 70.0946 96.96C70.1426 97.1413 70.188 97.32 70.2306 97.496C70.2573 97.32 70.292 97.136 70.3346 96.944C70.3773 96.752 70.4226 96.5733 70.4706 96.408L72.0546 91.192C72.0813 91.1067 72.132 91.0373 72.2066 90.984C72.2813 90.9253 72.3693 90.896 72.4706 90.896H73.5426L70.9186 99H69.7906C69.652 99 69.556 98.9093 69.5026 98.728L67.7106 93.232C67.668 93.1093 67.6333 92.9867 67.6066 92.864C67.58 92.736 67.5533 92.6107 67.5266 92.488C67.5 92.6107 67.4733 92.736 67.4466 92.864C67.42 92.992 67.3853 93.1173 67.3426 93.24L65.5266 98.728C65.468 98.9093 65.3586 99 65.1986 99H64.1266L61.5026 90.896ZM80.7606 99H80.1286C79.99 99 79.878 98.9787 79.7926 98.936C79.7073 98.8933 79.6513 98.8027 79.6246 98.664L79.4646 97.912C79.2513 98.104 79.0433 98.2773 78.8406 98.432C78.638 98.5813 78.4246 98.7093 78.2006 98.816C77.9766 98.9173 77.7366 98.9947 77.4806 99.048C77.23 99.1013 76.95 99.128 76.6406 99.128C76.326 99.128 76.03 99.0853 75.7526 99C75.4806 98.9093 75.2433 98.776 75.0406 98.6C74.838 98.424 74.6753 98.2027 74.5526 97.936C74.4353 97.664 74.3766 97.344 74.3766 96.976C74.3766 96.656 74.4646 96.3493 74.6406 96.056C74.8166 95.7573 75.0993 95.4933 75.4886 95.264C75.8833 95.0347 76.398 94.848 77.0326 94.704C77.6673 94.5547 78.4433 94.4693 79.3606 94.448V93.816C79.3606 93.1867 79.2246 92.712 78.9526 92.392C78.686 92.0667 78.2886 91.904 77.7606 91.904C77.414 91.904 77.1206 91.9493 76.8806 92.04C76.646 92.1253 76.4406 92.224 76.2646 92.336C76.094 92.4427 75.9446 92.5413 75.8166 92.632C75.694 92.7173 75.5713 92.76 75.4486 92.76C75.3526 92.76 75.2673 92.736 75.1926 92.688C75.1233 92.6347 75.0673 92.5707 75.0246 92.496L74.7686 92.04C75.2166 91.608 75.6993 91.2853 76.2166 91.072C76.734 90.8587 77.3073 90.752 77.9366 90.752C78.39 90.752 78.7926 90.8267 79.1446 90.976C79.4966 91.1253 79.7926 91.3333 80.0326 91.6C80.2726 91.8667 80.454 92.1893 80.5766 92.568C80.6993 92.9467 80.7606 93.3627 80.7606 93.816V99ZM77.0646 98.128C77.3153 98.128 77.5446 98.104 77.7526 98.056C77.9606 98.0027 78.1553 97.9307 78.3366 97.84C78.5233 97.744 78.6993 97.6293 78.8646 97.496C79.0353 97.3627 79.2006 97.2107 79.3606 97.04V95.352C78.7046 95.3733 78.1473 95.4267 77.6886 95.512C77.23 95.592 76.8566 95.6987 76.5686 95.832C76.2806 95.9653 76.07 96.1227 75.9366 96.304C75.8086 96.4853 75.7446 96.688 75.7446 96.912C75.7446 97.1253 75.7793 97.3093 75.8486 97.464C75.918 97.6187 76.0113 97.7467 76.1286 97.848C76.246 97.944 76.3846 98.016 76.5446 98.064C76.7046 98.1067 76.878 98.128 77.0646 98.128ZM82.918 99V90.896H83.734C83.8887 90.896 83.9953 90.9253 84.054 90.984C84.1127 91.0427 84.1527 91.144 84.174 91.288L84.27 92.552C84.5473 91.9867 84.8887 91.5467 85.294 91.232C85.7047 90.912 86.1847 90.752 86.734 90.752C86.958 90.752 87.1607 90.7787 87.342 90.832C87.5233 90.88 87.6913 90.9493 87.846 91.04L87.662 92.104C87.6247 92.2373 87.542 92.304 87.414 92.304C87.3393 92.304 87.2247 92.28 87.07 92.232C86.9153 92.1787 86.6993 92.152 86.422 92.152C85.926 92.152 85.51 92.296 85.174 92.584C84.8433 92.872 84.566 93.2907 84.342 93.84V99H82.918ZM92.5791 90.768C93.0645 90.768 93.5125 90.8507 93.9231 91.016C94.3338 91.176 94.6885 91.4107 94.9871 91.72C95.2858 92.024 95.5178 92.4027 95.6831 92.856C95.8538 93.304 95.9391 93.816 95.9391 94.392C95.9391 94.616 95.9151 94.7653 95.8671 94.84C95.8191 94.9147 95.7285 94.952 95.5951 94.952H90.2031C90.2138 95.464 90.2831 95.9093 90.4111 96.288C90.5391 96.6667 90.7151 96.984 90.9391 97.24C91.1631 97.4907 91.4298 97.68 91.7391 97.808C92.0485 97.9307 92.3951 97.992 92.7791 97.992C93.1365 97.992 93.4431 97.952 93.6991 97.872C93.9605 97.7867 94.1845 97.696 94.3711 97.6C94.5578 97.504 94.7125 97.416 94.8351 97.336C94.9631 97.2507 95.0725 97.208 95.1631 97.208C95.2805 97.208 95.3711 97.2533 95.4351 97.344L95.8351 97.864C95.6591 98.0773 95.4485 98.264 95.2031 98.424C94.9578 98.5787 94.6938 98.7067 94.4111 98.808C94.1338 98.9093 93.8458 98.984 93.5471 99.032C93.2485 99.0853 92.9525 99.112 92.6591 99.112C92.0991 99.112 91.5818 99.0187 91.1071 98.832C90.6378 98.64 90.2298 98.3627 89.8831 98C89.5418 97.632 89.2751 97.1787 89.0831 96.64C88.8911 96.1013 88.7951 95.4827 88.7951 94.784C88.7951 94.2187 88.8805 93.6907 89.0511 93.2C89.2271 92.7093 89.4778 92.2853 89.8031 91.928C90.1285 91.5653 90.5258 91.2827 90.9951 91.08C91.4645 90.872 91.9925 90.768 92.5791 90.768ZM92.6111 91.816C91.9231 91.816 91.3818 92.016 90.9871 92.416C90.5925 92.8107 90.3471 93.36 90.2511 94.064H94.6591C94.6591 93.7333 94.6138 93.432 94.5231 93.16C94.4325 92.8827 94.2991 92.6453 94.1231 92.448C93.9471 92.2453 93.7311 92.0907 93.4751 91.984C93.2245 91.872 92.9365 91.816 92.6111 91.816ZM99.7995 90.896H100.92C101.037 90.896 101.133 90.9253 101.208 90.984C101.282 91.0427 101.333 91.112 101.36 91.192L102.912 96.408C102.954 96.6 102.994 96.7867 103.032 96.968C103.069 97.144 103.101 97.3227 103.128 97.504C103.17 97.3227 103.218 97.144 103.272 96.968C103.325 96.7867 103.381 96.6 103.44 96.408L105.152 91.16C105.178 91.08 105.224 91.0133 105.288 90.96C105.357 90.9067 105.442 90.88 105.544 90.88H106.16C106.266 90.88 106.354 90.9067 106.424 90.96C106.493 91.0133 106.541 91.08 106.568 91.16L108.24 96.408C108.298 96.5947 108.349 96.7787 108.392 96.96C108.44 97.1413 108.485 97.32 108.528 97.496C108.554 97.32 108.589 97.136 108.632 96.944C108.674 96.752 108.72 96.5733 108.768 96.408L110.352 91.192C110.378 91.1067 110.429 91.0373 110.504 90.984C110.578 90.9253 110.666 90.896 110.768 90.896H111.84L109.216 99H108.088C107.949 99 107.853 98.9093 107.8 98.728L106.008 93.232C105.965 93.1093 105.93 92.9867 105.904 92.864C105.877 92.736 105.85 92.6107 105.824 92.488C105.797 92.6107 105.77 92.736 105.744 92.864C105.717 92.992 105.682 93.1173 105.64 93.24L103.824 98.728C103.765 98.9093 103.656 99 103.496 99H102.424L99.7995 90.896ZM119.058 99H118.426C118.287 99 118.175 98.9787 118.09 98.936C118.004 98.8933 117.948 98.8027 117.922 98.664L117.762 97.912C117.548 98.104 117.34 98.2773 117.138 98.432C116.935 98.5813 116.722 98.7093 116.498 98.816C116.274 98.9173 116.034 98.9947 115.778 99.048C115.527 99.1013 115.247 99.128 114.938 99.128C114.623 99.128 114.327 99.0853 114.049 99C113.778 98.9093 113.54 98.776 113.338 98.6C113.135 98.424 112.972 98.2027 112.85 97.936C112.732 97.664 112.674 97.344 112.674 96.976C112.674 96.656 112.762 96.3493 112.938 96.056C113.114 95.7573 113.396 95.4933 113.786 95.264C114.18 95.0347 114.695 94.848 115.33 94.704C115.964 94.5547 116.74 94.4693 117.658 94.448V93.816C117.658 93.1867 117.522 92.712 117.25 92.392C116.983 92.0667 116.586 91.904 116.058 91.904C115.711 91.904 115.418 91.9493 115.178 92.04C114.943 92.1253 114.738 92.224 114.562 92.336C114.391 92.4427 114.242 92.5413 114.114 92.632C113.991 92.7173 113.868 92.76 113.746 92.76C113.65 92.76 113.564 92.736 113.49 92.688C113.42 92.6347 113.364 92.5707 113.322 92.496L113.066 92.04C113.514 91.608 113.996 91.2853 114.514 91.072C115.031 90.8587 115.604 90.752 116.234 90.752C116.687 90.752 117.09 90.8267 117.442 90.976C117.794 91.1253 118.09 91.3333 118.33 91.6C118.57 91.8667 118.751 92.1893 118.874 92.568C118.996 92.9467 119.058 93.3627 119.058 93.816V99ZM115.362 98.128C115.612 98.128 115.842 98.104 116.049 98.056C116.258 98.0027 116.452 97.9307 116.634 97.84C116.82 97.744 116.996 97.6293 117.162 97.496C117.332 97.3627 117.498 97.2107 117.658 97.04V95.352C117.002 95.3733 116.444 95.4267 115.986 95.512C115.527 95.592 115.154 95.6987 114.866 95.832C114.578 95.9653 114.367 96.1227 114.234 96.304C114.106 96.4853 114.042 96.688 114.042 96.912C114.042 97.1253 114.076 97.3093 114.146 97.464C114.215 97.6187 114.308 97.7467 114.426 97.848C114.543 97.944 114.682 98.016 114.842 98.064C115.002 98.1067 115.175 98.128 115.362 98.128ZM122.799 87.216V99H121.375V87.216H122.799ZM126.893 87.216V99H125.469V87.216H126.893ZM132.61 90.768C133.096 90.768 133.544 90.8507 133.954 91.016C134.365 91.176 134.72 91.4107 135.018 91.72C135.317 92.024 135.549 92.4027 135.714 92.856C135.885 93.304 135.97 93.816 135.97 94.392C135.97 94.616 135.946 94.7653 135.898 94.84C135.85 94.9147 135.76 94.952 135.626 94.952H130.234C130.245 95.464 130.314 95.9093 130.442 96.288C130.57 96.6667 130.746 96.984 130.97 97.24C131.194 97.4907 131.461 97.68 131.77 97.808C132.08 97.9307 132.426 97.992 132.81 97.992C133.168 97.992 133.474 97.952 133.73 97.872C133.992 97.7867 134.216 97.696 134.402 97.6C134.589 97.504 134.744 97.416 134.866 97.336C134.994 97.2507 135.104 97.208 135.194 97.208C135.312 97.208 135.402 97.2533 135.466 97.344L135.866 97.864C135.69 98.0773 135.48 98.264 135.234 98.424C134.989 98.5787 134.725 98.7067 134.442 98.808C134.165 98.9093 133.877 98.984 133.578 99.032C133.28 99.0853 132.984 99.112 132.69 99.112C132.13 99.112 131.613 99.0187 131.138 98.832C130.669 98.64 130.261 98.3627 129.914 98C129.573 97.632 129.306 97.1787 129.114 96.64C128.922 96.1013 128.826 95.4827 128.826 94.784C128.826 94.2187 128.912 93.6907 129.082 93.2C129.258 92.7093 129.509 92.2853 129.834 91.928C130.16 91.5653 130.557 91.2827 131.026 91.08C131.496 90.872 132.024 90.768 132.61 90.768ZM132.642 91.816C131.954 91.816 131.413 92.016 131.018 92.416C130.624 92.8107 130.378 93.36 130.282 94.064H134.69C134.69 93.7333 134.645 93.432 134.554 93.16C134.464 92.8827 134.33 92.6453 134.154 92.448C133.978 92.2453 133.762 92.0907 133.506 91.984C133.256 91.872 132.968 91.816 132.642 91.816ZM140.249 99.128C139.609 99.128 139.116 98.9493 138.769 98.592C138.428 98.2347 138.257 97.72 138.257 97.048V92.088H137.281C137.196 92.088 137.124 92.064 137.065 92.016C137.006 91.9627 136.977 91.8827 136.977 91.776V91.208L138.305 91.04L138.633 88.536C138.644 88.456 138.678 88.392 138.737 88.344C138.796 88.2907 138.87 88.264 138.961 88.264H139.681V91.056H142.001V92.088H139.681V96.952C139.681 97.2933 139.764 97.5467 139.929 97.712C140.094 97.8773 140.308 97.96 140.569 97.96C140.718 97.96 140.846 97.9413 140.953 97.904C141.065 97.8613 141.161 97.816 141.241 97.768C141.321 97.72 141.388 97.6773 141.441 97.64C141.5 97.5973 141.55 97.576 141.593 97.576C141.668 97.576 141.734 97.6213 141.793 97.712L142.209 98.392C141.964 98.6213 141.668 98.8027 141.321 98.936C140.974 99.064 140.617 99.128 140.249 99.128Z" fill="#282D32"/>
<path d="M192.507 55.5044C187.121 55.5044 182.755 59.8708 182.755 65.2569V68.9033C180.864 69.2413 178.957 69.7083 178.957 70.3051V89.4104C178.957 89.4104 178.957 89.9462 179.541 90.1782C181.695 91.0356 190.155 94.034 192.096 94.7206C192.352 94.8111 192.406 94.8086 192.495 94.8086C192.588 94.8086 192.636 94.8118 192.89 94.722C194.828 94.037 203.317 91.031 205.458 90.1832C206.014 89.9631 206.03 89.4182 206.03 89.4182V70.306C206.03 69.7094 204.149 69.2413 202.259 68.903V65.2566C202.259 59.8708 197.893 55.5044 192.507 55.5044ZM192.507 60.1652C195.675 60.1652 197.602 62.0889 197.602 65.2569V68.4335C194.025 68.173 190.986 68.173 187.408 68.4335V65.2569C187.408 62.0886 189.339 60.1652 192.507 60.1652ZM192.494 73.1234C196.926 73.1304 200.652 73.4605 200.652 74.0914C200.652 74.0914 200.652 85.8219 200.652 85.9954C200.652 86.1691 200.624 86.1983 200.459 86.2607C200.295 86.3234 192.883 89.002 192.883 89.002C192.883 89.002 192.578 89.103 192.495 89.103C192.4 89.103 192.095 88.9979 192.095 88.9979C192.095 88.9979 184.686 86.3218 184.52 86.2589C184.353 86.1963 184.332 86.1638 184.332 85.9887C184.332 85.7958 184.332 74.0909 184.332 74.0909C184.332 73.4429 188.063 73.1163 192.494 73.1234Z" fill="black"/>
<path d="M218.592 86.1632V73.1205H213.838V68.4455H228.687V73.1205H223.958V86.1632H218.592Z" fill="black"/>
<path d="M240.721 86.1632L238.277 80.5851H236.338V86.1632H230.973V68.4455H240.429C244.572 68.4455 246.804 71.2079 246.804 74.5282C246.804 77.5838 245.024 79.2034 243.617 79.8942L246.831 86.163H240.721V86.1632H240.721ZM241.358 74.5013C241.358 73.5456 240.508 73.12 239.605 73.12H236.338V75.9091H239.605C240.508 75.9088 241.358 75.4848 241.358 74.5013Z" fill="black"/>
<path d="M249.615 86.1632V68.4455H263.056V73.1205H254.981V74.8738H262.871V79.5494H254.981V81.4878H263.056V86.1632H249.615Z" fill="black"/>
<path d="M265.848 86.1665V81.9166L272.594 73.1239H265.848V68.4489H279.687V72.6724L272.913 81.4915H279.872V86.1665H265.848Z" fill="black"/>
<path d="M281.186 77.3214C281.186 71.8755 285.409 68.1567 290.881 68.1567C296.352 68.1567 300.577 71.8755 300.577 77.3214C300.577 82.7665 296.352 86.4853 290.881 86.4853C285.409 86.4853 281.186 82.7665 281.186 77.3214ZM295.131 77.3214C295.131 74.8504 293.458 72.885 290.881 72.885C288.304 72.885 286.63 74.8506 286.63 77.3214C286.63 79.7915 288.304 81.7567 290.881 81.7567C293.457 81.7567 295.131 79.7911 295.131 77.3214Z" fill="black"/>
<path d="M312.614 86.1665L310.171 80.5884H308.231V86.1665H302.865V68.4489H312.322C316.466 68.4489 318.698 71.2113 318.698 74.5315C318.698 77.587 316.918 79.2067 315.51 79.8979L318.724 86.1667H312.614V86.1665ZM313.252 74.5048C313.252 73.5488 312.402 73.1235 311.498 73.1235H308.231V75.9125H311.498C312.401 75.9128 313.252 75.4883 313.252 74.5048Z" fill="black"/>
</svg>
