<svg viewBox="0 0 1200 120" xmlns="http://www.w3.org/2000/svg">
<rect width="1200" height="120" fill="white"/>
<mask id="mask0" mask-type="alpha" maskUnits="userSpaceOnUse" x="0" y="0" width="1200" height="120">
<rect width="1200" height="120" fill="white"/>
</mask>
<g mask="url(#mask0)">
<g filter="url(#filter0_d)">
<ellipse cx="792.5" cy="60" rx="434.5" ry="252" fill="url(#paint0_linear)"/>
</g>
</g>
<path d="M462.285 77V44.465H473.513C475.643 44.465 477.458 44.6675 478.958 45.0725C480.473 45.4775 481.71 46.055 482.67 46.805C483.645 47.555 484.358 48.4625 484.808 49.5275C485.258 50.5925 485.483 51.7925 485.483 53.1275C485.483 53.8925 485.37 54.6275 485.145 55.3325C484.92 56.0225 484.568 56.675 484.088 57.29C483.623 57.89 483.023 58.4375 482.288 58.9325C481.568 59.4275 480.705 59.8475 479.7 60.1925C484.17 61.1975 486.405 63.6125 486.405 67.4375C486.405 68.8175 486.143 70.0925 485.618 71.2625C485.093 72.4325 484.328 73.445 483.323 74.3C482.318 75.14 481.08 75.8 479.61 76.28C478.14 76.76 476.46 77 474.57 77H462.285ZM468.338 62.735V72.275H474.48C475.605 72.275 476.543 72.14 477.293 71.87C478.058 71.6 478.665 71.24 479.115 70.79C479.58 70.34 479.91 69.815 480.105 69.215C480.315 68.615 480.42 67.9775 480.42 67.3025C480.42 66.5975 480.308 65.9675 480.083 65.4125C479.858 64.8425 479.505 64.3625 479.025 63.9725C478.545 63.5675 477.93 63.26 477.18 63.05C476.43 62.84 475.523 62.735 474.458 62.735H468.338ZM468.338 58.55H473.175C475.23 58.55 476.79 58.175 477.855 57.425C478.92 56.675 479.453 55.4825 479.453 53.8475C479.453 52.1525 478.973 50.945 478.013 50.225C477.053 49.505 475.553 49.145 473.513 49.145H468.338V58.55ZM496.367 53.915V68.585C496.367 69.995 496.689 71.09 497.334 71.87C497.994 72.635 498.977 73.0175 500.282 73.0175C501.242 73.0175 502.142 72.8075 502.982 72.3875C503.822 71.9525 504.617 71.36 505.367 70.61V53.915H510.924V77H507.527C506.807 77 506.334 76.6625 506.109 75.9875L505.727 74.1425C505.247 74.6225 504.752 75.065 504.242 75.47C503.732 75.86 503.184 76.1975 502.599 76.4825C502.029 76.7525 501.407 76.9625 500.732 77.1125C500.072 77.2775 499.359 77.36 498.594 77.36C497.334 77.36 496.217 77.15 495.242 76.73C494.282 76.295 493.472 75.6875 492.812 74.9075C492.152 74.1275 491.649 73.205 491.304 72.14C490.974 71.06 490.809 69.875 490.809 68.585V53.915H496.367ZM525.048 83.345C524.883 83.735 524.665 84.0275 524.395 84.2225C524.14 84.4325 523.743 84.5375 523.203 84.5375H519.063L523.383 75.29L514.045 53.915H518.905C519.355 53.915 519.7 54.02 519.94 54.23C520.18 54.44 520.36 54.68 520.48 54.95L525.408 66.92C525.573 67.31 525.715 67.715 525.835 68.135C525.955 68.555 526.06 68.975 526.15 69.395C526.27 68.96 526.398 68.54 526.533 68.135C526.683 67.73 526.84 67.3175 527.005 66.8975L531.64 54.95C531.76 54.65 531.955 54.4025 532.225 54.2075C532.51 54.0125 532.825 53.915 533.17 53.915H537.625L525.048 83.345ZM567.643 77H565.146C564.621 77 564.208 76.925 563.908 76.775C563.608 76.61 563.383 76.2875 563.233 75.8075L562.738 74.165C562.153 74.69 561.576 75.155 561.006 75.56C560.451 75.95 559.873 76.28 559.273 76.55C558.673 76.82 558.036 77.0225 557.361 77.1575C556.686 77.2925 555.936 77.36 555.111 77.36C554.136 77.36 553.236 77.2325 552.411 76.9775C551.586 76.7075 550.873 76.31 550.273 75.785C549.688 75.26 549.231 74.6075 548.901 73.8275C548.571 73.0475 548.406 72.14 548.406 71.105C548.406 70.235 548.631 69.38 549.081 68.54C549.546 67.685 550.311 66.92 551.376 66.245C552.441 65.555 553.858 64.985 555.628 64.535C557.398 64.085 559.596 63.83 562.221 63.77V62.42C562.221 60.875 561.891 59.735 561.231 59C560.586 58.25 559.641 57.875 558.396 57.875C557.496 57.875 556.746 57.98 556.146 58.19C555.546 58.4 555.021 58.64 554.571 58.91C554.136 59.165 553.731 59.3975 553.356 59.6075C552.981 59.8175 552.568 59.9225 552.118 59.9225C551.743 59.9225 551.421 59.825 551.151 59.63C550.881 59.435 550.663 59.195 550.498 58.91L549.486 57.1325C552.141 54.7025 555.343 53.4875 559.093 53.4875C560.443 53.4875 561.643 53.7125 562.693 54.1625C563.758 54.5975 564.658 55.2125 565.393 56.0075C566.128 56.7875 566.683 57.725 567.058 58.82C567.448 59.915 567.643 61.115 567.643 62.42V77ZM556.843 73.535C557.413 73.535 557.938 73.4825 558.418 73.3775C558.898 73.2725 559.348 73.115 559.768 72.905C560.203 72.695 560.616 72.44 561.006 72.14C561.411 71.825 561.816 71.4575 562.221 71.0375V67.145C560.601 67.22 559.243 67.3625 558.148 67.5725C557.068 67.7675 556.198 68.0225 555.538 68.3375C554.878 68.6525 554.406 69.02 554.121 69.44C553.851 69.86 553.716 70.3175 553.716 70.8125C553.716 71.7875 554.001 72.485 554.571 72.905C555.156 73.325 555.913 73.535 556.843 73.535ZM580.481 73.94C580.481 73.475 580.564 73.0325 580.729 72.6125C580.909 72.1925 581.149 71.8325 581.449 71.5325C581.764 71.2325 582.131 70.9925 582.551 70.8125C582.971 70.6325 583.421 70.5425 583.901 70.5425C584.366 70.5425 584.809 70.6325 585.229 70.8125C585.649 70.9925 586.009 71.2325 586.309 71.5325C586.609 71.8325 586.849 72.1925 587.029 72.6125C587.209 73.0325 587.299 73.475 587.299 73.94C587.299 74.42 587.209 74.87 587.029 75.29C586.849 75.695 586.609 76.0475 586.309 76.3475C586.009 76.6475 585.649 76.88 585.229 77.045C584.809 77.225 584.366 77.315 583.901 77.315C583.421 77.315 582.971 77.225 582.551 77.045C582.131 76.88 581.764 76.6475 581.449 76.3475C581.149 76.0475 580.909 75.695 580.729 75.29C580.564 74.87 580.481 74.42 580.481 73.94ZM608.139 58.7975C607.974 59.0075 607.809 59.1725 607.644 59.2925C607.494 59.4125 607.269 59.4725 606.969 59.4725C606.684 59.4725 606.406 59.39 606.136 59.225C605.866 59.045 605.544 58.85 605.169 58.64C604.794 58.415 604.344 58.22 603.819 58.055C603.309 57.875 602.671 57.785 601.906 57.785C600.931 57.785 600.076 57.965 599.341 58.325C598.606 58.67 597.991 59.1725 597.496 59.8325C597.016 60.4925 596.656 61.295 596.416 62.24C596.176 63.17 596.056 64.2275 596.056 65.4125C596.056 66.6425 596.184 67.7375 596.439 68.6975C596.709 69.6575 597.091 70.4675 597.586 71.1275C598.081 71.7725 598.681 72.2675 599.386 72.6125C600.091 72.9425 600.886 73.1075 601.771 73.1075C602.656 73.1075 603.369 73.0025 603.909 72.7925C604.464 72.5675 604.929 72.3275 605.304 72.0725C605.679 71.8025 606.001 71.5625 606.271 71.3525C606.556 71.1275 606.871 71.015 607.216 71.015C607.666 71.015 608.004 71.1875 608.229 71.5325L609.826 73.5575C609.211 74.2775 608.544 74.885 607.824 75.38C607.104 75.86 606.354 76.25 605.574 76.55C604.809 76.835 604.014 77.0375 603.189 77.1575C602.364 77.2775 601.546 77.3375 600.736 77.3375C599.311 77.3375 597.969 77.075 596.709 76.55C595.449 76.01 594.346 75.23 593.401 74.21C592.471 73.19 591.729 71.945 591.174 70.475C590.634 68.99 590.364 67.3025 590.364 65.4125C590.364 63.7175 590.604 62.15 591.084 60.71C591.579 59.255 592.299 58.0025 593.244 56.9525C594.189 55.8875 595.359 55.055 596.754 54.455C598.149 53.855 599.754 53.555 601.569 53.555C603.294 53.555 604.801 53.8325 606.091 54.3875C607.396 54.9425 608.566 55.7375 609.601 56.7725L608.139 58.7975ZM613.362 77V53.915H616.624C617.194 53.915 617.592 54.02 617.817 54.23C618.042 54.44 618.192 54.8 618.267 55.31L618.604 58.1C619.429 56.675 620.397 55.55 621.507 54.725C622.617 53.9 623.862 53.4875 625.242 53.4875C626.382 53.4875 627.327 53.75 628.077 54.275L627.357 58.4375C627.312 58.7075 627.214 58.9025 627.064 59.0225C626.914 59.1275 626.712 59.18 626.457 59.18C626.232 59.18 625.924 59.1275 625.534 59.0225C625.144 58.9175 624.627 58.865 623.982 58.865C622.827 58.865 621.837 59.1875 621.012 59.8325C620.187 60.4625 619.489 61.3925 618.919 62.6225V77H613.362ZM639.921 83.345C639.756 83.735 639.538 84.0275 639.268 84.2225C639.013 84.4325 638.616 84.5375 638.076 84.5375H633.936L638.256 75.29L628.918 53.915H633.778C634.228 53.915 634.573 54.02 634.813 54.23C635.053 54.44 635.233 54.68 635.353 54.95L640.281 66.92C640.446 67.31 640.588 67.715 640.708 68.135C640.828 68.555 640.933 68.975 641.023 69.395C641.143 68.96 641.271 68.54 641.406 68.135C641.556 67.73 641.713 67.3175 641.878 66.8975L646.513 54.95C646.633 54.65 646.828 54.4025 647.098 54.2075C647.383 54.0125 647.698 53.915 648.043 53.915H652.498L639.921 83.345ZM655.725 84.5375V53.915H659.122C659.482 53.915 659.79 53.9975 660.045 54.1625C660.3 54.3275 660.465 54.5825 660.54 54.9275L660.99 57.065C661.92 56 662.985 55.1375 664.185 54.4775C665.4 53.8175 666.817 53.4875 668.437 53.4875C669.697 53.4875 670.845 53.75 671.88 54.275C672.93 54.8 673.83 55.565 674.58 56.57C675.345 57.56 675.93 58.79 676.335 60.26C676.755 61.715 676.965 63.3875 676.965 65.2775C676.965 67.0025 676.732 68.6 676.267 70.07C675.802 71.54 675.135 72.815 674.265 73.895C673.41 74.975 672.367 75.8225 671.137 76.4375C669.922 77.0375 668.557 77.3375 667.042 77.3375C665.737 77.3375 664.627 77.1425 663.712 76.7525C662.812 76.3475 662.002 75.7925 661.282 75.0875V84.5375H655.725ZM666.525 57.875C665.37 57.875 664.38 58.1225 663.555 58.6175C662.745 59.0975 661.987 59.78 661.282 60.665V71.015C661.912 71.795 662.595 72.3425 663.33 72.6575C664.08 72.9575 664.882 73.1075 665.737 73.1075C666.577 73.1075 667.335 72.95 668.01 72.635C668.7 72.32 669.277 71.84 669.742 71.195C670.222 70.55 670.59 69.74 670.845 68.765C671.1 67.775 671.227 66.6125 671.227 65.2775C671.227 63.9275 671.115 62.7875 670.89 61.8575C670.68 60.9125 670.372 60.1475 669.967 59.5625C669.562 58.9775 669.067 58.55 668.482 58.28C667.912 58.01 667.26 57.875 666.525 57.875ZM688.752 77.36C686.757 77.36 685.219 76.7975 684.139 75.6725C683.059 74.5325 682.519 72.965 682.519 70.97V58.0775H680.179C679.879 58.0775 679.617 57.98 679.392 57.785C679.182 57.59 679.077 57.2975 679.077 56.9075V54.7025L682.789 54.095L683.959 47.795C684.019 47.495 684.154 47.2625 684.364 47.0975C684.589 46.9325 684.867 46.85 685.197 46.85H688.077V54.1175H694.152V58.0775H688.077V70.5875C688.077 71.3075 688.257 71.87 688.617 72.275C688.977 72.68 689.457 72.8825 690.057 72.8825C690.402 72.8825 690.687 72.845 690.912 72.77C691.152 72.68 691.354 72.59 691.519 72.5C691.699 72.41 691.857 72.3275 691.992 72.2525C692.127 72.1625 692.262 72.1175 692.397 72.1175C692.562 72.1175 692.697 72.1625 692.802 72.2525C692.907 72.3275 693.019 72.4475 693.139 72.6125L694.804 75.3125C693.994 75.9875 693.064 76.4975 692.014 76.8425C690.964 77.1875 689.877 77.36 688.752 77.36ZM708.427 53.555C710.152 53.555 711.712 53.8325 713.107 54.3875C714.517 54.9425 715.717 55.73 716.707 56.75C717.697 57.77 718.462 59.015 719.002 60.485C719.542 61.955 719.812 63.5975 719.812 65.4125C719.812 67.2425 719.542 68.8925 719.002 70.3625C718.462 71.8325 717.697 73.085 716.707 74.12C715.717 75.155 714.517 75.95 713.107 76.505C711.712 77.06 710.152 77.3375 708.427 77.3375C706.702 77.3375 705.134 77.06 703.724 76.505C702.314 75.95 701.107 75.155 700.102 74.12C699.112 73.085 698.339 71.8325 697.784 70.3625C697.244 68.8925 696.974 67.2425 696.974 65.4125C696.974 63.5975 697.244 61.955 697.784 60.485C698.339 59.015 699.112 57.77 700.102 56.75C701.107 55.73 702.314 54.9425 703.724 54.3875C705.134 53.8325 706.702 53.555 708.427 53.555ZM708.427 73.0625C710.347 73.0625 711.764 72.4175 712.679 71.1275C713.609 69.8375 714.074 67.9475 714.074 65.4575C714.074 62.9675 713.609 61.07 712.679 59.765C711.764 58.46 710.347 57.8075 708.427 57.8075C706.477 57.8075 705.037 58.4675 704.107 59.7875C703.177 61.0925 702.712 62.9825 702.712 65.4575C702.712 67.9325 703.177 69.8225 704.107 71.1275C705.037 72.4175 706.477 73.0625 708.427 73.0625ZM749.094 77C748.374 77 747.901 76.6625 747.676 75.9875L747.226 73.76C746.746 74.3 746.244 74.7875 745.719 75.2225C745.194 75.6575 744.624 76.0325 744.009 76.3475C743.409 76.6625 742.756 76.9025 742.051 77.0675C741.361 77.2475 740.611 77.3375 739.801 77.3375C738.541 77.3375 737.386 77.075 736.336 76.55C735.286 76.025 734.379 75.2675 733.614 74.2775C732.864 73.2725 732.279 72.035 731.859 70.565C731.454 69.095 731.251 67.415 731.251 65.525C731.251 63.815 731.484 62.225 731.949 60.755C732.414 59.285 733.081 58.01 733.951 56.93C734.821 55.85 735.864 55.01 737.079 54.41C738.294 53.795 739.659 53.4875 741.174 53.4875C742.464 53.4875 743.566 53.6975 744.481 54.1175C745.396 54.5225 746.214 55.07 746.934 55.76V43.565H752.491V77H749.094ZM741.691 72.9275C742.846 72.9275 743.829 72.6875 744.639 72.2075C745.449 71.7275 746.214 71.045 746.934 70.16V59.81C746.304 59.045 745.614 58.505 744.864 58.19C744.129 57.875 743.334 57.7175 742.479 57.7175C741.639 57.7175 740.874 57.875 740.184 58.19C739.509 58.505 738.931 58.985 738.451 59.63C737.986 60.26 737.626 61.07 737.371 62.06C737.116 63.035 736.989 64.19 736.989 65.525C736.989 66.875 737.094 68.0225 737.304 68.9675C737.529 69.8975 737.844 70.6625 738.249 71.2625C738.654 71.8475 739.149 72.275 739.734 72.545C740.319 72.8 740.971 72.9275 741.691 72.9275ZM768.368 53.555C770.093 53.555 771.653 53.8325 773.048 54.3875C774.458 54.9425 775.658 55.73 776.648 56.75C777.638 57.77 778.403 59.015 778.943 60.485C779.483 61.955 779.753 63.5975 779.753 65.4125C779.753 67.2425 779.483 68.8925 778.943 70.3625C778.403 71.8325 777.638 73.085 776.648 74.12C775.658 75.155 774.458 75.95 773.048 76.505C771.653 77.06 770.093 77.3375 768.368 77.3375C766.643 77.3375 765.075 77.06 763.665 76.505C762.255 75.95 761.048 75.155 760.043 74.12C759.053 73.085 758.28 71.8325 757.725 70.3625C757.185 68.8925 756.915 67.2425 756.915 65.4125C756.915 63.5975 757.185 61.955 757.725 60.485C758.28 59.015 759.053 57.77 760.043 56.75C761.048 55.73 762.255 54.9425 763.665 54.3875C765.075 53.8325 766.643 53.555 768.368 53.555ZM768.368 73.0625C770.288 73.0625 771.705 72.4175 772.62 71.1275C773.55 69.8375 774.015 67.9475 774.015 65.4575C774.015 62.9675 773.55 61.07 772.62 59.765C771.705 58.46 770.288 57.8075 768.368 57.8075C766.418 57.8075 764.978 58.4675 764.048 59.7875C763.118 61.0925 762.653 62.9825 762.653 65.4575C762.653 67.9325 763.118 69.8225 764.048 71.1275C764.978 72.4175 766.418 73.0625 768.368 73.0625ZM784.089 77V53.915H787.487C788.207 53.915 788.679 54.2525 788.904 54.9275L789.264 56.6375C789.669 56.1875 790.089 55.775 790.524 55.4C790.974 55.025 791.447 54.7025 791.942 54.4325C792.452 54.1625 792.992 53.9525 793.562 53.8025C794.147 53.6375 794.784 53.555 795.474 53.555C796.929 53.555 798.122 53.9525 799.052 54.7475C799.997 55.5275 800.702 56.57 801.167 57.875C801.527 57.11 801.977 56.4575 802.517 55.9175C803.057 55.3625 803.649 54.9125 804.294 54.5675C804.939 54.2225 805.622 53.9675 806.342 53.8025C807.077 53.6375 807.812 53.555 808.547 53.555C809.822 53.555 810.954 53.75 811.944 54.14C812.934 54.53 813.767 55.1 814.442 55.85C815.117 56.6 815.627 57.515 815.972 58.595C816.332 59.675 816.512 60.9125 816.512 62.3075V77H810.954V62.3075C810.954 60.8375 810.632 59.735 809.987 59C809.342 58.25 808.397 57.875 807.152 57.875C806.582 57.875 806.049 57.9725 805.554 58.1675C805.074 58.3625 804.647 58.6475 804.272 59.0225C803.912 59.3825 803.627 59.84 803.417 60.395C803.207 60.95 803.102 61.5875 803.102 62.3075V77H797.522V62.3075C797.522 60.7625 797.207 59.6375 796.577 58.9325C795.962 58.2275 795.047 57.875 793.832 57.875C793.037 57.875 792.287 58.0775 791.582 58.4825C790.892 58.8725 790.247 59.4125 789.647 60.1025V77H784.089ZM840.06 77H837.563C837.038 77 836.625 76.925 836.325 76.775C836.025 76.61 835.8 76.2875 835.65 75.8075L835.155 74.165C834.57 74.69 833.993 75.155 833.423 75.56C832.868 75.95 832.29 76.28 831.69 76.55C831.09 76.82 830.453 77.0225 829.778 77.1575C829.103 77.2925 828.353 77.36 827.528 77.36C826.553 77.36 825.653 77.2325 824.828 76.9775C824.003 76.7075 823.29 76.31 822.69 75.785C822.105 75.26 821.648 74.6075 821.318 73.8275C820.988 73.0475 820.823 72.14 820.823 71.105C820.823 70.235 821.048 69.38 821.498 68.54C821.963 67.685 822.728 66.92 823.793 66.245C824.858 65.555 826.275 64.985 828.045 64.535C829.815 64.085 832.013 63.83 834.638 63.77V62.42C834.638 60.875 834.308 59.735 833.648 59C833.003 58.25 832.058 57.875 830.813 57.875C829.913 57.875 829.163 57.98 828.563 58.19C827.963 58.4 827.438 58.64 826.988 58.91C826.553 59.165 826.148 59.3975 825.773 59.6075C825.398 59.8175 824.985 59.9225 824.535 59.9225C824.16 59.9225 823.838 59.825 823.568 59.63C823.298 59.435 823.08 59.195 822.915 58.91L821.903 57.1325C824.558 54.7025 827.76 53.4875 831.51 53.4875C832.86 53.4875 834.06 53.7125 835.11 54.1625C836.175 54.5975 837.075 55.2125 837.81 56.0075C838.545 56.7875 839.1 57.725 839.475 58.82C839.865 59.915 840.06 61.115 840.06 62.42V77ZM829.26 73.535C829.83 73.535 830.355 73.4825 830.835 73.3775C831.315 73.2725 831.765 73.115 832.185 72.905C832.62 72.695 833.033 72.44 833.423 72.14C833.828 71.825 834.233 71.4575 834.638 71.0375V67.145C833.018 67.22 831.66 67.3625 830.565 67.5725C829.485 67.7675 828.615 68.0225 827.955 68.3375C827.295 68.6525 826.823 69.02 826.538 69.44C826.268 69.86 826.133 70.3175 826.133 70.8125C826.133 71.7875 826.418 72.485 826.988 72.905C827.573 73.325 828.33 73.535 829.26 73.535ZM851.442 53.915V77H845.885V53.915H851.442ZM852.275 47.1875C852.275 47.6675 852.177 48.1175 851.982 48.5375C851.787 48.9575 851.525 49.325 851.195 49.64C850.88 49.955 850.505 50.21 850.07 50.405C849.635 50.585 849.17 50.675 848.675 50.675C848.195 50.675 847.737 50.585 847.302 50.405C846.882 50.21 846.515 49.955 846.2 49.64C845.885 49.325 845.63 48.9575 845.435 48.5375C845.255 48.1175 845.165 47.6675 845.165 47.1875C845.165 46.6925 845.255 46.2275 845.435 45.7925C845.63 45.3575 845.885 44.9825 846.2 44.6675C846.515 44.3525 846.882 44.105 847.302 43.925C847.737 43.73 848.195 43.6325 848.675 43.6325C849.17 43.6325 849.635 43.73 850.07 43.925C850.505 44.105 850.88 44.3525 851.195 44.6675C851.525 44.9825 851.787 45.3575 851.982 45.7925C852.177 46.2275 852.275 46.6925 852.275 47.1875ZM857.741 77V53.915H861.139C861.859 53.915 862.331 54.2525 862.556 54.9275L862.939 56.75C863.404 56.27 863.891 55.835 864.401 55.445C864.926 55.055 865.474 54.7175 866.044 54.4325C866.629 54.1475 867.251 53.93 867.911 53.78C868.571 53.63 869.291 53.555 870.071 53.555C871.331 53.555 872.449 53.7725 873.424 54.2075C874.399 54.6275 875.209 55.2275 875.854 56.0075C876.514 56.7725 877.009 57.695 877.339 58.775C877.684 59.84 877.856 61.0175 877.856 62.3075V77H872.299V62.3075C872.299 60.8975 871.969 59.81 871.309 59.045C870.664 58.265 869.689 57.875 868.384 57.875C867.424 57.875 866.524 58.0925 865.684 58.5275C864.844 58.9625 864.049 59.555 863.299 60.305V77H857.741ZM899.601 77.36C897.606 77.36 896.069 76.7975 894.989 75.6725C893.909 74.5325 893.369 72.965 893.369 70.97V58.0775H891.029C890.729 58.0775 890.466 57.98 890.241 57.785C890.031 57.59 889.926 57.2975 889.926 56.9075V54.7025L893.639 54.095L894.809 47.795C894.869 47.495 895.004 47.2625 895.214 47.0975C895.439 46.9325 895.716 46.85 896.046 46.85H898.926V54.1175H905.001V58.0775H898.926V70.5875C898.926 71.3075 899.106 71.87 899.466 72.275C899.826 72.68 900.306 72.8825 900.906 72.8825C901.251 72.8825 901.536 72.845 901.761 72.77C902.001 72.68 902.204 72.59 902.369 72.5C902.549 72.41 902.706 72.3275 902.841 72.2525C902.976 72.1625 903.111 72.1175 903.246 72.1175C903.411 72.1175 903.546 72.1625 903.651 72.2525C903.756 72.3275 903.869 72.4475 903.989 72.6125L905.654 75.3125C904.844 75.9875 903.914 76.4975 902.864 76.8425C901.814 77.1875 900.726 77.36 899.601 77.36ZM919.276 53.555C921.001 53.555 922.561 53.8325 923.956 54.3875C925.366 54.9425 926.566 55.73 927.556 56.75C928.546 57.77 929.311 59.015 929.851 60.485C930.391 61.955 930.661 63.5975 930.661 65.4125C930.661 67.2425 930.391 68.8925 929.851 70.3625C929.311 71.8325 928.546 73.085 927.556 74.12C926.566 75.155 925.366 75.95 923.956 76.505C922.561 77.06 921.001 77.3375 919.276 77.3375C917.551 77.3375 915.984 77.06 914.574 76.505C913.164 75.95 911.956 75.155 910.951 74.12C909.961 73.085 909.189 71.8325 908.634 70.3625C908.094 68.8925 907.824 67.2425 907.824 65.4125C907.824 63.5975 908.094 61.955 908.634 60.485C909.189 59.015 909.961 57.77 910.951 56.75C911.956 55.73 913.164 54.9425 914.574 54.3875C915.984 53.8325 917.551 53.555 919.276 53.555ZM919.276 73.0625C921.196 73.0625 922.614 72.4175 923.529 71.1275C924.459 69.8375 924.924 67.9475 924.924 65.4575C924.924 62.9675 924.459 61.07 923.529 59.765C922.614 58.46 921.196 57.8075 919.276 57.8075C917.326 57.8075 915.886 58.4675 914.956 59.7875C914.026 61.0925 913.561 62.9825 913.561 65.4575C913.561 67.9325 914.026 69.8225 914.956 71.1275C915.886 72.4175 917.326 73.0625 919.276 73.0625ZM951.242 77C950.522 77 950.05 76.6625 949.825 75.9875L949.375 73.76C948.895 74.3 948.392 74.7875 947.867 75.2225C947.342 75.6575 946.772 76.0325 946.157 76.3475C945.557 76.6625 944.905 76.9025 944.2 77.0675C943.51 77.2475 942.76 77.3375 941.95 77.3375C940.69 77.3375 939.535 77.075 938.485 76.55C937.435 76.025 936.527 75.2675 935.762 74.2775C935.012 73.2725 934.427 72.035 934.007 70.565C933.602 69.095 933.4 67.415 933.4 65.525C933.4 63.815 933.632 62.225 934.097 60.755C934.562 59.285 935.23 58.01 936.1 56.93C936.97 55.85 938.012 55.01 939.227 54.41C940.442 53.795 941.807 53.4875 943.322 53.4875C944.612 53.4875 945.715 53.6975 946.63 54.1175C947.545 54.5225 948.362 55.07 949.082 55.76V43.565H954.64V77H951.242ZM943.84 72.9275C944.995 72.9275 945.977 72.6875 946.787 72.2075C947.597 71.7275 948.362 71.045 949.082 70.16V59.81C948.452 59.045 947.762 58.505 947.012 58.19C946.277 57.875 945.482 57.7175 944.627 57.7175C943.787 57.7175 943.022 57.875 942.332 58.19C941.657 58.505 941.08 58.985 940.6 59.63C940.135 60.26 939.775 61.07 939.52 62.06C939.265 63.035 939.137 64.19 939.137 65.525C939.137 66.875 939.242 68.0225 939.452 68.9675C939.677 69.8975 939.992 70.6625 940.397 71.2625C940.802 71.8475 941.297 72.275 941.882 72.545C942.467 72.8 943.12 72.9275 943.84 72.9275ZM978.751 77H976.254C975.729 77 975.316 76.925 975.016 76.775C974.716 76.61 974.491 76.2875 974.341 75.8075L973.846 74.165C973.261 74.69 972.684 75.155 972.114 75.56C971.559 75.95 970.981 76.28 970.381 76.55C969.781 76.82 969.144 77.0225 968.469 77.1575C967.794 77.2925 967.044 77.36 966.219 77.36C965.244 77.36 964.344 77.2325 963.519 76.9775C962.694 76.7075 961.981 76.31 961.381 75.785C960.796 75.26 960.339 74.6075 960.009 73.8275C959.679 73.0475 959.514 72.14 959.514 71.105C959.514 70.235 959.739 69.38 960.189 68.54C960.654 67.685 961.419 66.92 962.484 66.245C963.549 65.555 964.966 64.985 966.736 64.535C968.506 64.085 970.704 63.83 973.329 63.77V62.42C973.329 60.875 972.999 59.735 972.339 59C971.694 58.25 970.749 57.875 969.504 57.875C968.604 57.875 967.854 57.98 967.254 58.19C966.654 58.4 966.129 58.64 965.679 58.91C965.244 59.165 964.839 59.3975 964.464 59.6075C964.089 59.8175 963.676 59.9225 963.226 59.9225C962.851 59.9225 962.529 59.825 962.259 59.63C961.989 59.435 961.771 59.195 961.606 58.91L960.594 57.1325C963.249 54.7025 966.451 53.4875 970.201 53.4875C971.551 53.4875 972.751 53.7125 973.801 54.1625C974.866 54.5975 975.766 55.2125 976.501 56.0075C977.236 56.7875 977.791 57.725 978.166 58.82C978.556 59.915 978.751 61.115 978.751 62.42V77ZM967.951 73.535C968.521 73.535 969.046 73.4825 969.526 73.3775C970.006 73.2725 970.456 73.115 970.876 72.905C971.311 72.695 971.724 72.44 972.114 72.14C972.519 71.825 972.924 71.4575 973.329 71.0375V67.145C971.709 67.22 970.351 67.3625 969.256 67.5725C968.176 67.7675 967.306 68.0225 966.646 68.3375C965.986 68.6525 965.514 69.02 965.229 69.44C964.959 69.86 964.824 70.3175 964.824 70.8125C964.824 71.7875 965.109 72.485 965.679 72.905C966.264 73.325 967.021 73.535 967.951 73.535ZM991.615 83.345C991.45 83.735 991.233 84.0275 990.963 84.2225C990.708 84.4325 990.31 84.5375 989.77 84.5375H985.63L989.95 75.29L980.613 53.915H985.473C985.923 53.915 986.268 54.02 986.508 54.23C986.748 54.44 986.928 54.68 987.048 54.95L991.975 66.92C992.14 67.31 992.283 67.715 992.403 68.135C992.523 68.555 992.628 68.975 992.718 69.395C992.838 68.96 992.965 68.54 993.1 68.135C993.25 67.73 993.408 67.3175 993.573 66.8975L998.208 54.95C998.328 54.65 998.523 54.4025 998.793 54.2075C999.078 54.0125 999.393 53.915 999.738 53.915H1004.19L991.615 83.345Z" fill="white"/>
<path d="M148.646 56.308C146.358 56.308 144.58 55.6847 143.311 54.438C142.043 53.1913 141.408 51.424 141.408 49.136V40.6H145.764V49.004C145.764 51.468 146.74 52.7 148.69 52.7C150.626 52.7 151.594 51.468 151.594 49.004V40.6H155.884V49.136C155.884 51.424 155.25 53.1913 153.981 54.438C152.713 55.6847 150.934 56.308 148.646 56.308ZM173.484 40.6V56H169.898L163.1 47.794V56H158.832V40.6H162.418L169.216 48.806V40.6H173.484ZM181.976 56.308C180.73 56.308 179.52 56.154 178.346 55.846C177.173 55.538 176.22 55.1273 175.486 54.614L176.916 51.402C177.606 51.8567 178.405 52.2233 179.314 52.502C180.224 52.7807 181.118 52.92 181.998 52.92C183.67 52.92 184.506 52.502 184.506 51.666C184.506 51.226 184.268 50.8997 183.791 50.687C183.315 50.4743 182.548 50.2507 181.492 50.016C180.334 49.7667 179.366 49.499 178.588 49.213C177.811 48.927 177.144 48.4687 176.586 47.838C176.029 47.2073 175.75 46.3567 175.75 45.286C175.75 44.3473 176.007 43.5003 176.52 42.745C177.034 41.9897 177.8 41.392 178.819 40.952C179.839 40.512 181.089 40.292 182.57 40.292C183.582 40.292 184.58 40.4057 185.562 40.633C186.545 40.8603 187.41 41.194 188.158 41.634L186.816 44.868C185.35 44.076 183.927 43.68 182.548 43.68C181.683 43.68 181.052 43.8083 180.656 44.065C180.26 44.3217 180.062 44.6553 180.062 45.066C180.062 45.4767 180.297 45.7847 180.766 45.99C181.236 46.1953 181.991 46.408 183.032 46.628C184.206 46.8773 185.177 47.145 185.947 47.431C186.717 47.717 187.385 48.1717 187.949 48.795C188.514 49.4183 188.796 50.2653 188.796 51.336C188.796 52.26 188.54 53.096 188.026 53.844C187.513 54.592 186.743 55.1897 185.716 55.637C184.69 56.0843 183.443 56.308 181.976 56.308ZM194.076 44.054H189.346V40.6H203.14V44.054H198.432V56H194.076V44.054ZM212.534 56.308C210.906 56.308 209.443 55.9633 208.145 55.274C206.847 54.5847 205.828 53.6313 205.087 52.414C204.347 51.1967 203.976 49.8253 203.976 48.3C203.976 46.7747 204.347 45.4033 205.087 44.186C205.828 42.9687 206.847 42.0153 208.145 41.326C209.443 40.6367 210.906 40.292 212.534 40.292C214.162 40.292 215.625 40.6367 216.923 41.326C218.221 42.0153 219.241 42.9687 219.981 44.186C220.722 45.4033 221.092 46.7747 221.092 48.3C221.092 49.8253 220.722 51.1967 219.981 52.414C219.241 53.6313 218.221 54.5847 216.923 55.274C215.625 55.9633 214.162 56.308 212.534 56.308ZM212.534 52.7C213.312 52.7 214.016 52.5167 214.646 52.15C215.277 51.7833 215.776 51.2663 216.142 50.599C216.509 49.9317 216.692 49.1653 216.692 48.3C216.692 47.4347 216.509 46.6683 216.142 46.001C215.776 45.3337 215.277 44.8167 214.646 44.45C214.016 44.0833 213.312 43.9 212.534 43.9C211.757 43.9 211.053 44.0833 210.422 44.45C209.792 44.8167 209.293 45.3337 208.926 46.001C208.56 46.6683 208.376 47.4347 208.376 48.3C208.376 49.1653 208.56 49.9317 208.926 50.599C209.293 51.2663 209.792 51.7833 210.422 52.15C211.053 52.5167 211.757 52.7 212.534 52.7ZM230.42 40.6C231.814 40.6 233.024 40.831 234.05 41.293C235.077 41.755 235.869 42.415 236.426 43.273C236.984 44.131 237.262 45.1393 237.262 46.298C237.262 47.4567 236.984 48.4613 236.426 49.312C235.869 50.1627 235.077 50.819 234.05 51.281C233.024 51.743 231.814 51.974 230.42 51.974H227.736V56H223.38V40.6H230.42ZM230.156 48.542C231.051 48.542 231.726 48.3477 232.18 47.959C232.635 47.5703 232.862 47.0167 232.862 46.298C232.862 45.5793 232.635 45.022 232.18 44.626C231.726 44.23 231.051 44.032 230.156 44.032H227.736V48.542H230.156ZM246.634 40.6C248.028 40.6 249.238 40.831 250.264 41.293C251.291 41.755 252.083 42.415 252.64 43.273C253.198 44.131 253.476 45.1393 253.476 46.298C253.476 47.4567 253.198 48.4613 252.64 49.312C252.083 50.1627 251.291 50.819 250.264 51.281C249.238 51.743 248.028 51.974 246.634 51.974H243.95V56H239.594V40.6H246.634ZM246.37 48.542C247.265 48.542 247.94 48.3477 248.394 47.959C248.849 47.5703 249.076 47.0167 249.076 46.298C249.076 45.5793 248.849 45.022 248.394 44.626C247.94 44.23 247.265 44.032 246.37 44.032H243.95V48.542H246.37ZM266.126 53.008H259.614L258.404 56H253.96L260.758 40.6H265.048L271.868 56H267.336L266.126 53.008ZM264.85 49.796L262.87 44.868L260.89 49.796H264.85ZM284.936 47.97C285.816 48.278 286.506 48.7583 287.004 49.411C287.503 50.0637 287.752 50.852 287.752 51.776C287.752 53.1253 287.21 54.1667 286.124 54.9C285.039 55.6333 283.47 56 281.416 56H273.1V40.6H280.976C282.942 40.6 284.438 40.963 285.464 41.689C286.491 42.415 287.004 43.394 287.004 44.626C287.004 45.3593 286.825 46.0157 286.465 46.595C286.106 47.1743 285.596 47.6327 284.936 47.97ZM277.412 43.746V46.716H280.404C281.871 46.716 282.604 46.2173 282.604 45.22C282.604 44.2373 281.871 43.746 280.404 43.746H277.412ZM281.064 52.854C282.59 52.854 283.352 52.3333 283.352 51.292C283.352 50.2507 282.59 49.73 281.064 49.73H277.412V52.854H281.064ZM290.018 40.6H294.374V52.546H301.722V56H290.018V40.6ZM315.802 52.634V56H303.438V40.6H315.516V43.966H307.75V46.562H314.592V49.818H307.75V52.634H315.802ZM141.54 64.6H148.822C150.509 64.6 152.005 64.9153 153.31 65.546C154.616 66.1767 155.628 67.0713 156.346 68.23C157.065 69.3887 157.424 70.7453 157.424 72.3C157.424 73.8547 157.065 75.2113 156.346 76.37C155.628 77.5287 154.616 78.4233 153.31 79.054C152.005 79.6847 150.509 80 148.822 80H141.54V64.6ZM148.646 76.524C149.966 76.524 151.026 76.15 151.825 75.402C152.625 74.654 153.024 73.62 153.024 72.3C153.024 70.98 152.625 69.946 151.825 69.198C151.026 68.45 149.966 68.076 148.646 68.076H145.896V76.524H148.646ZM167.478 80.308C165.85 80.308 164.387 79.9633 163.089 79.274C161.791 78.5847 160.772 77.6313 160.031 76.414C159.291 75.1967 158.92 73.8253 158.92 72.3C158.92 70.7747 159.291 69.4033 160.031 68.186C160.772 66.9687 161.791 66.0153 163.089 65.326C164.387 64.6367 165.85 64.292 167.478 64.292C169.106 64.292 170.569 64.6367 171.867 65.326C173.165 66.0153 174.185 66.9687 174.925 68.186C175.666 69.4033 176.036 70.7747 176.036 72.3C176.036 73.8253 175.666 75.1967 174.925 76.414C174.185 77.6313 173.165 78.5847 171.867 79.274C170.569 79.9633 169.106 80.308 167.478 80.308ZM167.478 76.7C168.256 76.7 168.96 76.5167 169.59 76.15C170.221 75.7833 170.72 75.2663 171.086 74.599C171.453 73.9317 171.636 73.1653 171.636 72.3C171.636 71.4347 171.453 70.6683 171.086 70.001C170.72 69.3337 170.221 68.8167 169.59 68.45C168.96 68.0833 168.256 67.9 167.478 67.9C166.701 67.9 165.997 68.0833 165.366 68.45C164.736 68.8167 164.237 69.3337 163.87 70.001C163.504 70.6683 163.32 71.4347 163.32 72.3C163.32 73.1653 163.504 73.9317 163.87 74.599C164.237 75.2663 164.736 75.7833 165.366 76.15C165.997 76.5167 166.701 76.7 167.478 76.7ZM192.228 80L192.184 71.838L188.224 78.482H186.288L182.35 72.058V80H178.324V64.6H181.91L187.322 73.488L192.602 64.6H196.188L196.232 80H192.228ZM209.63 77.008H203.118L201.908 80H197.464L204.262 64.6H208.552L215.372 80H210.84L209.63 77.008ZM208.354 73.796L206.374 68.868L204.394 73.796H208.354ZM216.604 64.6H220.96V80H216.604V64.6ZM238.714 64.6V80H235.128L228.33 71.794V80H224.062V64.6H227.648L234.446 72.806V64.6H238.714ZM247.206 80.308C245.96 80.308 244.75 80.154 243.576 79.846C242.403 79.538 241.45 79.1273 240.716 78.614L242.146 75.402C242.836 75.8567 243.635 76.2233 244.544 76.502C245.454 76.7807 246.348 76.92 247.228 76.92C248.9 76.92 249.736 76.502 249.736 75.666C249.736 75.226 249.498 74.8997 249.021 74.687C248.545 74.4743 247.778 74.2507 246.722 74.016C245.564 73.7667 244.596 73.499 243.818 73.213C243.041 72.927 242.374 72.4687 241.816 71.838C241.259 71.2073 240.98 70.3567 240.98 69.286C240.98 68.3473 241.237 67.5003 241.75 66.745C242.264 65.9897 243.03 65.392 244.049 64.952C245.069 64.512 246.319 64.292 247.8 64.292C248.812 64.292 249.81 64.4057 250.792 64.633C251.775 64.8603 252.64 65.194 253.388 65.634L252.046 68.868C250.58 68.076 249.157 67.68 247.778 67.68C246.913 67.68 246.282 67.8083 245.886 68.065C245.49 68.3217 245.292 68.6553 245.292 69.066C245.292 69.4767 245.527 69.7847 245.996 69.99C246.466 70.1953 247.221 70.408 248.262 70.628C249.436 70.8773 250.407 71.145 251.177 71.431C251.947 71.717 252.615 72.1717 253.179 72.795C253.744 73.4183 254.026 74.2653 254.026 75.336C254.026 76.26 253.77 77.096 253.256 77.844C252.743 78.592 251.973 79.1897 250.946 79.637C249.92 80.0843 248.673 80.308 247.206 80.308Z" fill="#010617"/>
<path fill-rule="evenodd" clip-rule="evenodd" d="M124 32V54L60 80L124 32Z" fill="#2FE9FF"/>
<path fill-rule="evenodd" clip-rule="evenodd" d="M112 31V69C112 80.0457 103.046 89 92 89C80.9543 89 72 80.0457 72 69V53L84 46.4V69C84 72.866 87.134 76 91 76C94.866 76 98 72.866 98 69V38.7L112 31Z" fill="#4C47F7"/>
<defs>
<filter id="filter0_d" x="342" y="-199" width="889" height="524" filterUnits="userSpaceOnUse" color-interpolation-filters="sRGB">
<feFlood flood-opacity="0" result="BackgroundImageFix"/>
<feColorMatrix in="SourceAlpha" type="matrix" values="0 0 0 0 0 0 0 0 0 0 0 0 0 0 0 0 0 0 127 0"/>
<feOffset dx="-6" dy="3"/>
<feGaussianBlur stdDeviation="5"/>
<feColorMatrix type="matrix" values="0 0 0 0 0.733333 0 0 0 0 0.733333 0 0 0 0 0.733333 0 0 0 0.5 0"/>
<feBlend mode="normal" in2="BackgroundImageFix" result="effect1_dropShadow"/>
<feBlend mode="normal" in="SourceGraphic" in2="effect1_dropShadow" result="shape"/>
</filter>
<linearGradient id="paint0_linear" x1="155.5" y1="52" x2="1208.5" y2="59.9999" gradientUnits="userSpaceOnUse">
<stop stop-color="#4A4DEE"/>
<stop offset="0.89619" stop-color="#71E6FC"/>
<stop offset="1" stop-color="#71E6FC"/>
</linearGradient>
</defs>
</svg>
