<svg viewBox="0 0 345 150" xmlns="http://www.w3.org/2000/svg">
<rect width="345" height="150" rx="3" fill="white"/>
<path d="M30.752 72V54.648H36.74C37.876 54.648 38.844 54.756 39.644 54.972C40.452 55.188 41.112 55.496 41.624 55.896C42.144 56.296 42.524 56.78 42.764 57.348C43.004 57.916 43.124 58.556 43.124 59.268C43.124 59.676 43.064 60.068 42.944 60.444C42.824 60.812 42.636 61.16 42.38 61.488C42.132 61.808 41.812 62.1 41.42 62.364C41.036 62.628 40.576 62.852 40.04 63.036C42.424 63.572 43.616 64.86 43.616 66.9C43.616 67.636 43.476 68.316 43.196 68.94C42.916 69.564 42.508 70.104 41.972 70.56C41.436 71.008 40.776 71.36 39.992 71.616C39.208 71.872 38.312 72 37.304 72H30.752ZM33.98 64.392V69.48H37.256C37.856 69.48 38.356 69.408 38.756 69.264C39.164 69.12 39.488 68.928 39.728 68.688C39.976 68.448 40.152 68.168 40.256 67.848C40.368 67.528 40.424 67.188 40.424 66.828C40.424 66.452 40.364 66.116 40.244 65.82C40.124 65.516 39.936 65.26 39.68 65.052C39.424 64.836 39.096 64.672 38.696 64.56C38.296 64.448 37.812 64.392 37.244 64.392H33.98ZM33.98 62.16H36.56C37.656 62.16 38.488 61.96 39.056 61.56C39.624 61.16 39.908 60.524 39.908 59.652C39.908 58.748 39.652 58.104 39.14 57.72C38.628 57.336 37.828 57.144 36.74 57.144H33.98V62.16ZM48.9288 59.688V67.512C48.9288 68.264 49.1008 68.848 49.4448 69.264C49.7968 69.672 50.3208 69.876 51.0168 69.876C51.5288 69.876 52.0088 69.764 52.4568 69.54C52.9048 69.308 53.3288 68.992 53.7288 68.592V59.688H56.6928V72H54.8808C54.4968 72 54.2448 71.82 54.1248 71.46L53.9208 70.476C53.6648 70.732 53.4008 70.968 53.1288 71.184C52.8568 71.392 52.5648 71.572 52.2528 71.724C51.9488 71.868 51.6168 71.98 51.2568 72.06C50.9048 72.148 50.5248 72.192 50.1168 72.192C49.4448 72.192 48.8488 72.08 48.3288 71.856C47.8168 71.624 47.3848 71.3 47.0328 70.884C46.6808 70.468 46.4128 69.976 46.2288 69.408C46.0528 68.832 45.9648 68.2 45.9648 67.512V59.688H48.9288ZM64.2254 75.384C64.1374 75.592 64.0214 75.748 63.8774 75.852C63.7414 75.964 63.5294 76.02 63.2414 76.02H61.0334L63.3374 71.088L58.3574 59.688H60.9494C61.1894 59.688 61.3734 59.744 61.5014 59.856C61.6294 59.968 61.7254 60.096 61.7894 60.24L64.4174 66.624C64.5054 66.832 64.5814 67.048 64.6454 67.272C64.7094 67.496 64.7654 67.72 64.8134 67.944C64.8774 67.712 64.9454 67.488 65.0174 67.272C65.0974 67.056 65.1814 66.836 65.2694 66.612L67.7414 60.24C67.8054 60.08 67.9094 59.948 68.0534 59.844C68.2054 59.74 68.3734 59.688 68.5574 59.688H70.9334L64.2254 75.384ZM86.9429 72H85.6109C85.3309 72 85.1109 71.96 84.9509 71.88C84.7909 71.792 84.6709 71.62 84.5909 71.364L84.3269 70.488C84.0149 70.768 83.7069 71.016 83.4029 71.232C83.1069 71.44 82.7989 71.616 82.4789 71.76C82.1589 71.904 81.8189 72.012 81.4589 72.084C81.0989 72.156 80.6989 72.192 80.2589 72.192C79.7389 72.192 79.2589 72.124 78.8189 71.988C78.3789 71.844 77.9989 71.632 77.6789 71.352C77.3669 71.072 77.1229 70.724 76.9469 70.308C76.7709 69.892 76.6829 69.408 76.6829 68.856C76.6829 68.392 76.8029 67.936 77.0429 67.488C77.2909 67.032 77.6989 66.624 78.2669 66.264C78.8349 65.896 79.5909 65.592 80.5349 65.352C81.4789 65.112 82.6509 64.976 84.0509 64.944V64.224C84.0509 63.4 83.8749 62.792 83.5229 62.4C83.1789 62 82.6749 61.8 82.0109 61.8C81.5309 61.8 81.1309 61.856 80.8109 61.968C80.4909 62.08 80.2109 62.208 79.9709 62.352C79.7389 62.488 79.5229 62.612 79.3229 62.724C79.1229 62.836 78.9029 62.892 78.6629 62.892C78.4629 62.892 78.2909 62.84 78.1469 62.736C78.0029 62.632 77.8869 62.504 77.7989 62.352L77.2589 61.404C78.6749 60.108 80.3829 59.46 82.3829 59.46C83.1029 59.46 83.7429 59.58 84.3029 59.82C84.8709 60.052 85.3509 60.38 85.7429 60.804C86.1349 61.22 86.4309 61.72 86.6309 62.304C86.8389 62.888 86.9429 63.528 86.9429 64.224V72ZM81.1829 70.152C81.4869 70.152 81.7669 70.124 82.0229 70.068C82.2789 70.012 82.5189 69.928 82.7429 69.816C82.9749 69.704 83.1949 69.568 83.4029 69.408C83.6189 69.24 83.8349 69.044 84.0509 68.82V66.744C83.1869 66.784 82.4629 66.86 81.8789 66.972C81.3029 67.076 80.8389 67.212 80.4869 67.38C80.1349 67.548 79.8829 67.744 79.7309 67.968C79.5869 68.192 79.5149 68.436 79.5149 68.7C79.5149 69.22 79.6669 69.592 79.9709 69.816C80.2829 70.04 80.6869 70.152 81.1829 70.152ZM93.7901 70.368C93.7901 70.12 93.8341 69.884 93.9221 69.66C94.0181 69.436 94.1461 69.244 94.3061 69.084C94.4741 68.924 94.6701 68.796 94.8941 68.7C95.1181 68.604 95.3581 68.556 95.6141 68.556C95.8621 68.556 96.0981 68.604 96.3221 68.7C96.5461 68.796 96.7381 68.924 96.8981 69.084C97.0581 69.244 97.1861 69.436 97.2821 69.66C97.3781 69.884 97.4261 70.12 97.4261 70.368C97.4261 70.624 97.3781 70.864 97.2821 71.088C97.1861 71.304 97.0581 71.492 96.8981 71.652C96.7381 71.812 96.5461 71.936 96.3221 72.024C96.0981 72.12 95.8621 72.168 95.6141 72.168C95.3581 72.168 95.1181 72.12 94.8941 72.024C94.6701 71.936 94.4741 71.812 94.3061 71.652C94.1461 71.492 94.0181 71.304 93.9221 71.088C93.8341 70.864 93.7901 70.624 93.7901 70.368ZM108.541 62.292C108.453 62.404 108.365 62.492 108.277 62.556C108.197 62.62 108.077 62.652 107.917 62.652C107.765 62.652 107.617 62.608 107.473 62.52C107.329 62.424 107.157 62.32 106.957 62.208C106.757 62.088 106.517 61.984 106.237 61.896C105.965 61.8 105.625 61.752 105.217 61.752C104.697 61.752 104.241 61.848 103.849 62.04C103.457 62.224 103.129 62.492 102.865 62.844C102.609 63.196 102.417 63.624 102.289 64.128C102.161 64.624 102.097 65.188 102.097 65.82C102.097 66.476 102.165 67.06 102.301 67.572C102.445 68.084 102.649 68.516 102.913 68.868C103.177 69.212 103.497 69.476 103.873 69.66C104.249 69.836 104.673 69.924 105.145 69.924C105.617 69.924 105.997 69.868 106.285 69.756C106.581 69.636 106.829 69.508 107.029 69.372C107.229 69.228 107.401 69.1 107.545 68.988C107.697 68.868 107.865 68.808 108.049 68.808C108.289 68.808 108.469 68.9 108.589 69.084L109.441 70.164C109.113 70.548 108.757 70.872 108.373 71.136C107.989 71.392 107.589 71.6 107.173 71.76C106.765 71.912 106.341 72.02 105.901 72.084C105.461 72.148 105.025 72.18 104.593 72.18C103.833 72.18 103.117 72.04 102.445 71.76C101.773 71.472 101.185 71.056 100.681 70.512C100.185 69.968 99.7887 69.304 99.4927 68.52C99.2047 67.728 99.0607 66.828 99.0607 65.82C99.0607 64.916 99.1887 64.08 99.4447 63.312C99.7087 62.536 100.093 61.868 100.597 61.308C101.101 60.74 101.725 60.296 102.469 59.976C103.213 59.656 104.069 59.496 105.037 59.496C105.957 59.496 106.761 59.644 107.449 59.94C108.145 60.236 108.769 60.66 109.321 61.212L108.541 62.292ZM111.326 72V59.688H113.066C113.37 59.688 113.582 59.744 113.702 59.856C113.822 59.968 113.902 60.16 113.942 60.432L114.122 61.92C114.562 61.16 115.078 60.56 115.67 60.12C116.262 59.68 116.926 59.46 117.662 59.46C118.27 59.46 118.774 59.6 119.174 59.88L118.79 62.1C118.766 62.244 118.714 62.348 118.634 62.412C118.554 62.468 118.446 62.496 118.31 62.496C118.19 62.496 118.026 62.468 117.818 62.412C117.61 62.356 117.334 62.328 116.99 62.328C116.374 62.328 115.846 62.5 115.406 62.844C114.966 63.18 114.594 63.676 114.29 64.332V72H111.326ZM125.491 75.384C125.403 75.592 125.287 75.748 125.143 75.852C125.007 75.964 124.795 76.02 124.507 76.02H122.299L124.603 71.088L119.623 59.688H122.215C122.455 59.688 122.639 59.744 122.767 59.856C122.895 59.968 122.991 60.096 123.055 60.24L125.683 66.624C125.771 66.832 125.847 67.048 125.911 67.272C125.975 67.496 126.031 67.72 126.079 67.944C126.143 67.712 126.211 67.488 126.283 67.272C126.363 67.056 126.447 66.836 126.535 66.612L129.007 60.24C129.071 60.08 129.175 59.948 129.319 59.844C129.471 59.74 129.639 59.688 129.823 59.688H132.199L125.491 75.384ZM133.92 76.02V59.688H135.732C135.924 59.688 136.088 59.732 136.224 59.82C136.36 59.908 136.448 60.044 136.488 60.228L136.728 61.368C137.224 60.8 137.792 60.34 138.432 59.988C139.08 59.636 139.836 59.46 140.7 59.46C141.372 59.46 141.984 59.6 142.536 59.88C143.096 60.16 143.576 60.568 143.976 61.104C144.384 61.632 144.696 62.288 144.912 63.072C145.136 63.848 145.248 64.74 145.248 65.748C145.248 66.668 145.124 67.52 144.876 68.304C144.628 69.088 144.272 69.768 143.808 70.344C143.352 70.92 142.796 71.372 142.14 71.7C141.492 72.02 140.764 72.18 139.956 72.18C139.26 72.18 138.668 72.076 138.18 71.868C137.7 71.652 137.268 71.356 136.884 70.98V76.02H133.92ZM139.68 61.8C139.064 61.8 138.536 61.932 138.096 62.196C137.664 62.452 137.26 62.816 136.884 63.288V68.808C137.22 69.224 137.584 69.516 137.976 69.684C138.376 69.844 138.804 69.924 139.26 69.924C139.708 69.924 140.112 69.84 140.472 69.672C140.84 69.504 141.148 69.248 141.396 68.904C141.652 68.56 141.848 68.128 141.984 67.608C142.12 67.08 142.188 66.46 142.188 65.748C142.188 65.028 142.128 64.42 142.008 63.924C141.896 63.42 141.732 63.012 141.516 62.7C141.3 62.388 141.036 62.16 140.724 62.016C140.42 61.872 140.072 61.8 139.68 61.8ZM151.534 72.192C150.47 72.192 149.65 71.892 149.074 71.292C148.498 70.684 148.21 69.848 148.21 68.784V61.908H146.962C146.802 61.908 146.662 61.856 146.542 61.752C146.43 61.648 146.374 61.492 146.374 61.284V60.108L148.354 59.784L148.978 56.424C149.01 56.264 149.082 56.14 149.194 56.052C149.314 55.964 149.462 55.92 149.638 55.92H151.174V59.796H154.414V61.908H151.174V68.58C151.174 68.964 151.27 69.264 151.462 69.48C151.654 69.696 151.91 69.804 152.23 69.804C152.414 69.804 152.566 69.784 152.686 69.744C152.814 69.696 152.922 69.648 153.01 69.6C153.106 69.552 153.19 69.508 153.262 69.468C153.334 69.42 153.406 69.396 153.478 69.396C153.566 69.396 153.638 69.42 153.694 69.468C153.75 69.508 153.81 69.572 153.874 69.66L154.762 71.1C154.33 71.46 153.834 71.732 153.274 71.916C152.714 72.1 152.134 72.192 151.534 72.192ZM162.028 59.496C162.948 59.496 163.78 59.644 164.524 59.94C165.276 60.236 165.916 60.656 166.444 61.2C166.972 61.744 167.38 62.408 167.668 63.192C167.956 63.976 168.1 64.852 168.1 65.82C168.1 66.796 167.956 67.676 167.668 68.46C167.38 69.244 166.972 69.912 166.444 70.464C165.916 71.016 165.276 71.44 164.524 71.736C163.78 72.032 162.948 72.18 162.028 72.18C161.108 72.18 160.272 72.032 159.52 71.736C158.768 71.44 158.124 71.016 157.588 70.464C157.06 69.912 156.648 69.244 156.352 68.46C156.064 67.676 155.92 66.796 155.92 65.82C155.92 64.852 156.064 63.976 156.352 63.192C156.648 62.408 157.06 61.744 157.588 61.2C158.124 60.656 158.768 60.236 159.52 59.94C160.272 59.644 161.108 59.496 162.028 59.496ZM162.028 69.9C163.052 69.9 163.808 69.556 164.296 68.868C164.792 68.18 165.04 67.172 165.04 65.844C165.04 64.516 164.792 63.504 164.296 62.808C163.808 62.112 163.052 61.764 162.028 61.764C160.988 61.764 160.22 62.116 159.724 62.82C159.228 63.516 158.98 64.524 158.98 65.844C158.98 67.164 159.228 68.172 159.724 68.868C160.22 69.556 160.988 69.9 162.028 69.9Z" fill="#163150"/>
<path d="M35.872 99C35.6693 99 35.5413 98.9013 35.488 98.704L35.36 97.72C35.0133 98.1413 34.616 98.48 34.168 98.736C33.7253 98.9867 33.216 99.112 32.64 99.112C32.176 99.112 31.7547 99.024 31.376 98.848C30.9973 98.6667 30.6747 98.4027 30.408 98.056C30.1413 97.7093 29.936 97.2773 29.792 96.76C29.648 96.2427 29.576 95.648 29.576 94.976C29.576 94.3787 29.656 93.824 29.816 93.312C29.976 92.7947 30.2053 92.3467 30.504 91.968C30.808 91.5893 31.176 91.2933 31.608 91.08C32.04 90.8613 32.5307 90.752 33.08 90.752C33.576 90.752 34 90.8373 34.352 91.008C34.704 91.1733 35.0187 91.408 35.296 91.712V87.216H36.72V99H35.872ZM33.112 97.96C33.576 97.96 33.9813 97.8533 34.328 97.64C34.68 97.4267 35.0027 97.1253 35.296 96.736V92.816C35.0347 92.464 34.7467 92.2187 34.432 92.08C34.1227 91.936 33.7787 91.864 33.4 91.864C32.6427 91.864 32.0613 92.1333 31.656 92.672C31.2507 93.2107 31.048 93.9787 31.048 94.976C31.048 95.504 31.0933 95.9573 31.184 96.336C31.2747 96.7093 31.408 97.0187 31.584 97.264C31.76 97.504 31.976 97.68 32.232 97.792C32.488 97.904 32.7813 97.96 33.112 97.96ZM42.3855 90.768C42.9775 90.768 43.5108 90.8667 43.9855 91.064C44.4655 91.2613 44.8708 91.5413 45.2015 91.904C45.5375 92.2667 45.7935 92.7067 45.9695 93.224C46.1508 93.736 46.2415 94.3093 46.2415 94.944C46.2415 95.584 46.1508 96.16 45.9695 96.672C45.7935 97.184 45.5375 97.6213 45.2015 97.984C44.8708 98.3467 44.4655 98.6267 43.9855 98.824C43.5108 99.016 42.9775 99.112 42.3855 99.112C41.7935 99.112 41.2575 99.016 40.7775 98.824C40.3028 98.6267 39.8975 98.3467 39.5615 97.984C39.2255 97.6213 38.9668 97.184 38.7855 96.672C38.6042 96.16 38.5135 95.584 38.5135 94.944C38.5135 94.3093 38.6042 93.736 38.7855 93.224C38.9668 92.7067 39.2255 92.2667 39.5615 91.904C39.8975 91.5413 40.3028 91.2613 40.7775 91.064C41.2575 90.8667 41.7935 90.768 42.3855 90.768ZM42.3855 98C43.1855 98 43.7828 97.7333 44.1775 97.2C44.5722 96.6613 44.7695 95.912 44.7695 94.952C44.7695 93.9867 44.5722 93.2347 44.1775 92.696C43.7828 92.1573 43.1855 91.888 42.3855 91.888C41.9802 91.888 41.6282 91.9573 41.3295 92.096C41.0308 92.2347 40.7802 92.4347 40.5775 92.696C40.3802 92.9573 40.2308 93.28 40.1295 93.664C40.0335 94.0427 39.9855 94.472 39.9855 94.952C39.9855 95.432 40.0335 95.8613 40.1295 96.24C40.2308 96.6187 40.3802 96.9387 40.5775 97.2C40.7802 97.456 41.0308 97.6533 41.3295 97.792C41.6282 97.9307 41.9802 98 42.3855 98ZM47.9961 99V90.896H48.8441C49.0468 90.896 49.1748 90.9947 49.2281 91.192L49.3321 92.024C49.6308 91.656 49.9641 91.3547 50.3321 91.12C50.7055 90.8853 51.1375 90.768 51.6281 90.768C52.1775 90.768 52.6201 90.92 52.9561 91.224C53.2975 91.528 53.5428 91.9387 53.6921 92.456C53.8041 92.1627 53.9508 91.9093 54.1321 91.696C54.3188 91.4827 54.5268 91.3067 54.7561 91.168C54.9855 91.0293 55.2281 90.928 55.4841 90.864C55.7455 90.8 56.0095 90.768 56.2761 90.768C56.7028 90.768 57.0815 90.8373 57.4121 90.976C57.7481 91.1093 58.0308 91.3067 58.2601 91.568C58.4948 91.8293 58.6735 92.152 58.7961 92.536C58.9188 92.9147 58.9801 93.3493 58.9801 93.84V99H57.5561V93.84C57.5561 93.2053 57.4175 92.7253 57.1401 92.4C56.8628 92.0693 56.4601 91.904 55.9321 91.904C55.6975 91.904 55.4735 91.9467 55.2601 92.032C55.0521 92.112 54.8681 92.232 54.7081 92.392C54.5481 92.552 54.4201 92.7547 54.3241 93C54.2335 93.24 54.1881 93.52 54.1881 93.84V99H52.7641V93.84C52.7641 93.1893 52.6335 92.704 52.3721 92.384C52.1108 92.064 51.7295 91.904 51.2281 91.904C50.8761 91.904 50.5481 92 50.2441 92.192C49.9455 92.3787 49.6708 92.6347 49.4201 92.96V99H47.9961ZM67.0888 99H66.4568C66.3181 99 66.2061 98.9787 66.1208 98.936C66.0354 98.8933 65.9794 98.8027 65.9528 98.664L65.7928 97.912C65.5794 98.104 65.3714 98.2773 65.1688 98.432C64.9661 98.5813 64.7528 98.7093 64.5288 98.816C64.3048 98.9173 64.0648 98.9947 63.8088 99.048C63.5581 99.1013 63.2781 99.128 62.9688 99.128C62.6541 99.128 62.3581 99.0853 62.0807 99C61.8088 98.9093 61.5714 98.776 61.3688 98.6C61.1661 98.424 61.0034 98.2027 60.8808 97.936C60.7634 97.664 60.7048 97.344 60.7048 96.976C60.7048 96.656 60.7928 96.3493 60.9688 96.056C61.1448 95.7573 61.4274 95.4933 61.8168 95.264C62.2114 95.0347 62.7261 94.848 63.3608 94.704C63.9954 94.5547 64.7714 94.4693 65.6888 94.448V93.816C65.6888 93.1867 65.5528 92.712 65.2808 92.392C65.0141 92.0667 64.6168 91.904 64.0888 91.904C63.7421 91.904 63.4488 91.9493 63.2088 92.04C62.9741 92.1253 62.7688 92.224 62.5928 92.336C62.4221 92.4427 62.2728 92.5413 62.1448 92.632C62.0221 92.7173 61.8994 92.76 61.7768 92.76C61.6808 92.76 61.5954 92.736 61.5208 92.688C61.4514 92.6347 61.3954 92.5707 61.3528 92.496L61.0968 92.04C61.5448 91.608 62.0274 91.2853 62.5448 91.072C63.0621 90.8587 63.6354 90.752 64.2648 90.752C64.7181 90.752 65.1208 90.8267 65.4728 90.976C65.8248 91.1253 66.1208 91.3333 66.3608 91.6C66.6008 91.8667 66.7821 92.1893 66.9048 92.568C67.0274 92.9467 67.0888 93.3627 67.0888 93.816V99ZM63.3928 98.128C63.6434 98.128 63.8728 98.104 64.0807 98.056C64.2888 98.0027 64.4834 97.9307 64.6648 97.84C64.8514 97.744 65.0274 97.6293 65.1928 97.496C65.3634 97.3627 65.5288 97.2107 65.6888 97.04V95.352C65.0328 95.3733 64.4754 95.4267 64.0168 95.512C63.5581 95.592 63.1848 95.6987 62.8968 95.832C62.6088 95.9653 62.3981 96.1227 62.2648 96.304C62.1368 96.4853 62.0728 96.688 62.0728 96.912C62.0728 97.1253 62.1074 97.3093 62.1768 97.464C62.2461 97.6187 62.3394 97.7467 62.4568 97.848C62.5741 97.944 62.7128 98.016 62.8728 98.064C63.0328 98.1067 63.2061 98.128 63.3928 98.128ZM70.8301 90.896V99H69.4061V90.896H70.8301ZM71.1501 88.352C71.1501 88.4907 71.1208 88.6213 71.0621 88.744C71.0088 88.8613 70.9341 88.968 70.8381 89.064C70.7475 89.1547 70.6408 89.2267 70.5181 89.28C70.3955 89.3333 70.2648 89.36 70.1261 89.36C69.9875 89.36 69.8568 89.3333 69.7341 89.28C69.6168 89.2267 69.5101 89.1547 69.4141 89.064C69.3235 88.968 69.2515 88.8613 69.1981 88.744C69.1448 88.6213 69.1181 88.4907 69.1181 88.352C69.1181 88.2133 69.1448 88.0827 69.1981 87.96C69.2515 87.832 69.3235 87.7227 69.4141 87.632C69.5101 87.536 69.6168 87.4613 69.7341 87.408C69.8568 87.3547 69.9875 87.328 70.1261 87.328C70.2648 87.328 70.3955 87.3547 70.5181 87.408C70.6408 87.4613 70.7475 87.536 70.8381 87.632C70.9341 87.7227 71.0088 87.832 71.0621 87.96C71.1208 88.0827 71.1501 88.2133 71.1501 88.352ZM73.3399 99V90.896H74.1879C74.3905 90.896 74.5185 90.9947 74.5719 91.192L74.6839 92.072C75.0359 91.6827 75.4279 91.368 75.8599 91.128C76.2972 90.888 76.8012 90.768 77.3719 90.768C77.8145 90.768 78.2039 90.8427 78.5399 90.992C78.8812 91.136 79.1639 91.344 79.3879 91.616C79.6172 91.8827 79.7905 92.2053 79.9079 92.584C80.0252 92.9627 80.0839 93.3813 80.0839 93.84V99H78.6599V93.84C78.6599 93.2267 78.5185 92.752 78.2359 92.416C77.9585 92.0747 77.5319 91.904 76.9559 91.904C76.5345 91.904 76.1399 92.0053 75.7719 92.208C75.4092 92.4107 75.0732 92.6853 74.7639 93.032V99H73.3399ZM84.2683 90.896H85.3883C85.5056 90.896 85.6016 90.9253 85.6763 90.984C85.7509 91.0427 85.8016 91.112 85.8283 91.192L87.3803 96.408C87.4229 96.6 87.4629 96.7867 87.5003 96.968C87.5376 97.144 87.5696 97.3227 87.5963 97.504C87.6389 97.3227 87.6869 97.144 87.7403 96.968C87.7936 96.7867 87.8496 96.6 87.9083 96.408L89.6203 91.16C89.6469 91.08 89.6923 91.0133 89.7563 90.96C89.8256 90.9067 89.9109 90.88 90.0123 90.88H90.6283C90.7349 90.88 90.8229 90.9067 90.8923 90.96C90.9616 91.0133 91.0096 91.08 91.0363 91.16L92.7083 96.408C92.7669 96.5947 92.8176 96.7787 92.8603 96.96C92.9083 97.1413 92.9536 97.32 92.9963 97.496C93.0229 97.32 93.0576 97.136 93.1003 96.944C93.1429 96.752 93.1883 96.5733 93.2363 96.408L94.8203 91.192C94.8469 91.1067 94.8976 91.0373 94.9723 90.984C95.0469 90.9253 95.1349 90.896 95.2363 90.896H96.3083L93.6843 99H92.5563C92.4176 99 92.3216 98.9093 92.2683 98.728L90.4763 93.232C90.4336 93.1093 90.3989 92.9867 90.3723 92.864C90.3456 92.736 90.3189 92.6107 90.2923 92.488C90.2656 92.6107 90.2389 92.736 90.2123 92.864C90.1856 92.992 90.1509 93.1173 90.1083 93.24L88.2923 98.728C88.2336 98.9093 88.1243 99 87.9643 99H86.8923L84.2683 90.896ZM99.1583 90.896V99H97.7343V90.896H99.1583ZM99.4783 88.352C99.4783 88.4907 99.4489 88.6213 99.3903 88.744C99.3369 88.8613 99.2623 88.968 99.1663 89.064C99.0756 89.1547 98.9689 89.2267 98.8463 89.28C98.7236 89.3333 98.5929 89.36 98.4543 89.36C98.3156 89.36 98.1849 89.3333 98.0623 89.28C97.9449 89.2267 97.8383 89.1547 97.7423 89.064C97.6516 88.968 97.5796 88.8613 97.5263 88.744C97.4729 88.6213 97.4463 88.4907 97.4463 88.352C97.4463 88.2133 97.4729 88.0827 97.5263 87.96C97.5796 87.832 97.6516 87.7227 97.7423 87.632C97.8383 87.536 97.9449 87.4613 98.0623 87.408C98.1849 87.3547 98.3156 87.328 98.4543 87.328C98.5929 87.328 98.7236 87.3547 98.8463 87.408C98.9689 87.4613 99.0756 87.536 99.1663 87.632C99.2623 87.7227 99.3369 87.832 99.3903 87.96C99.4489 88.0827 99.4783 88.2133 99.4783 88.352ZM104.124 99.128C103.484 99.128 102.991 98.9493 102.644 98.592C102.303 98.2347 102.132 97.72 102.132 97.048V92.088H101.156C101.071 92.088 100.999 92.064 100.94 92.016C100.881 91.9627 100.852 91.8827 100.852 91.776V91.208L102.18 91.04L102.508 88.536C102.519 88.456 102.553 88.392 102.612 88.344C102.671 88.2907 102.745 88.264 102.836 88.264H103.556V91.056H105.876V92.088H103.556V96.952C103.556 97.2933 103.639 97.5467 103.804 97.712C103.969 97.8773 104.183 97.96 104.444 97.96C104.593 97.96 104.721 97.9413 104.828 97.904C104.94 97.8613 105.036 97.816 105.116 97.768C105.196 97.72 105.263 97.6773 105.316 97.64C105.375 97.5973 105.425 97.576 105.468 97.576C105.543 97.576 105.609 97.6213 105.668 97.712L106.084 98.392C105.839 98.6213 105.543 98.8027 105.196 98.936C104.849 99.064 104.492 99.128 104.124 99.128ZM107.637 99V87.216H109.061V91.984C109.407 91.616 109.791 91.3227 110.213 91.104C110.634 90.88 111.119 90.768 111.669 90.768C112.111 90.768 112.501 90.8427 112.837 90.992C113.178 91.136 113.461 91.344 113.685 91.616C113.914 91.8827 114.087 92.2053 114.205 92.584C114.322 92.9627 114.381 93.3813 114.381 93.84V99H112.957V93.84C112.957 93.2267 112.815 92.752 112.533 92.416C112.255 92.0747 111.829 91.904 111.253 91.904C110.831 91.904 110.437 92.0053 110.069 92.208C109.706 92.4107 109.37 92.6853 109.061 93.032V99H107.637Z" fill="#282D32"/>
<path d="M233.977 72.7466C232.842 72.7466 231.96 72.4373 231.331 71.8189C230.701 71.2004 230.387 70.3236 230.387 69.1886V64.9539H232.548V69.1231C232.548 70.3455 233.032 70.9566 233.999 70.9566C234.96 70.9566 235.44 70.3455 235.44 69.1231V64.9539H237.568V69.1886C237.568 70.3236 237.253 71.2004 236.624 71.8189C235.995 72.4373 235.113 72.7466 233.977 72.7466ZM246.299 64.9539V72.5938H244.52L241.148 68.5228V72.5938H239.031V64.9539H240.81L244.182 69.0249V64.9539H246.299ZM250.512 72.7466C249.894 72.7466 249.294 72.6702 248.711 72.5174C248.129 72.3646 247.656 72.1608 247.293 71.9062L248.002 70.3127C248.344 70.5383 248.741 70.7202 249.192 70.8584C249.643 70.9967 250.087 71.0658 250.523 71.0658C251.353 71.0658 251.767 70.8584 251.767 70.4437C251.767 70.2254 251.649 70.0635 251.413 69.958C251.176 69.8525 250.796 69.7416 250.272 69.6251C249.697 69.5014 249.217 69.3687 248.831 69.2268C248.446 69.0849 248.115 68.8575 247.838 68.5446C247.562 68.2318 247.424 67.8098 247.424 67.2786C247.424 66.8129 247.551 66.3928 247.806 66.018C248.06 65.6433 248.44 65.3468 248.946 65.1285C249.452 64.9103 250.072 64.8011 250.807 64.8011C251.309 64.8011 251.804 64.8575 252.291 64.9703C252.779 65.0831 253.208 65.2486 253.579 65.4669L252.913 67.0712C252.186 66.6783 251.48 66.4819 250.796 66.4819C250.367 66.4819 250.054 66.5455 249.857 66.6729C249.661 66.8002 249.563 66.9657 249.563 67.1695C249.563 67.3732 249.679 67.526 249.912 67.6279C250.145 67.7297 250.52 67.8352 251.036 67.9444C251.618 68.0681 252.1 68.2008 252.482 68.3427C252.864 68.4846 253.195 68.7102 253.475 69.0194C253.756 69.3286 253.896 69.7488 253.896 70.28C253.896 70.7384 253.768 71.1531 253.514 71.5242C253.259 71.8953 252.877 72.1918 252.368 72.4137C251.858 72.6356 251.24 72.7466 250.512 72.7466ZM256.515 66.6674H254.168V64.9539H261.012V66.6674H258.676V72.5938H256.515V66.6674ZM265.672 72.7466C264.864 72.7466 264.138 72.5756 263.495 72.2336C262.851 71.8916 262.345 71.4187 261.977 70.8148C261.61 70.2109 261.426 69.5305 261.426 68.7738C261.426 68.0171 261.61 67.3368 261.977 66.7329C262.345 66.129 262.851 65.6561 263.495 65.3141C264.138 64.9721 264.864 64.8011 265.672 64.8011C266.48 64.8011 267.205 64.9721 267.849 65.3141C268.493 65.6561 268.999 66.129 269.366 66.7329C269.734 67.3368 269.917 68.0171 269.917 68.7738C269.917 69.5305 269.734 70.2109 269.366 70.8148C268.999 71.4187 268.493 71.8916 267.849 72.2336C267.205 72.5756 266.48 72.7466 265.672 72.7466ZM265.672 70.9566C266.058 70.9566 266.407 70.8657 266.72 70.6838C267.033 70.5019 267.28 70.2454 267.462 69.9144C267.644 69.5833 267.735 69.2031 267.735 68.7738C267.735 68.3445 267.644 67.9644 267.462 67.6333C267.28 67.3023 267.033 67.0458 266.72 66.8639C266.407 66.682 266.058 66.591 265.672 66.591C265.286 66.591 264.937 66.682 264.624 66.8639C264.311 67.0458 264.064 67.3023 263.882 67.6333C263.7 67.9644 263.609 68.3445 263.609 68.7738C263.609 69.2031 263.7 69.5833 263.882 69.9144C264.064 70.2454 264.311 70.5019 264.624 70.6838C264.937 70.8657 265.286 70.9566 265.672 70.9566ZM274.545 64.9539C275.236 64.9539 275.837 65.0685 276.346 65.2977C276.855 65.5269 277.248 65.8543 277.525 66.28C277.801 66.7056 277.939 67.2058 277.939 67.7807C277.939 68.3555 277.801 68.8539 277.525 69.2759C277.248 69.6979 276.855 70.0235 276.346 70.2527C275.837 70.4819 275.236 70.5965 274.545 70.5965H273.213V72.5938H271.053V64.9539H274.545ZM274.414 68.8939C274.858 68.8939 275.193 68.7975 275.418 68.6047C275.644 68.4119 275.756 68.1372 275.756 67.7807C275.756 67.4241 275.644 67.1476 275.418 66.9512C275.193 66.7547 274.858 66.6565 274.414 66.6565H273.213V68.8939H274.414ZM282.589 64.9539C283.28 64.9539 283.88 65.0685 284.39 65.2977C284.899 65.5269 285.292 65.8543 285.568 66.28C285.845 66.7056 285.983 67.2058 285.983 67.7807C285.983 68.3555 285.845 68.8539 285.568 69.2759C285.292 69.6979 284.899 70.0235 284.39 70.2527C283.88 70.4819 283.28 70.5965 282.589 70.5965H281.257V72.5938H279.096V64.9539H282.589ZM282.458 68.8939C282.902 68.8939 283.236 68.7975 283.462 68.6047C283.687 68.4119 283.8 68.1372 283.8 67.7807C283.8 67.4241 283.687 67.1476 283.462 66.9512C283.236 66.7547 282.902 66.6565 282.458 66.6565H281.257V68.8939H282.458ZM292.259 71.1094H289.028L288.428 72.5938H286.223L289.596 64.9539H291.724L295.107 72.5938H292.859L292.259 71.1094ZM291.626 69.516L290.643 67.0712L289.661 69.516H291.626ZM301.59 68.6101C302.027 68.7629 302.369 69.0012 302.616 69.325C302.863 69.6488 302.987 70.0399 302.987 70.4983C302.987 71.1677 302.718 71.6843 302.179 72.0481C301.641 72.4119 300.862 72.5938 299.844 72.5938H295.718V64.9539H299.626C300.601 64.9539 301.343 65.134 301.852 65.4942C302.361 65.8543 302.616 66.34 302.616 66.9512C302.616 67.315 302.527 67.6406 302.349 67.928C302.17 68.2154 301.917 68.4428 301.59 68.6101ZM297.857 66.5146V67.988H299.342C300.069 67.988 300.433 67.7406 300.433 67.2459C300.433 66.7584 300.069 66.5146 299.342 66.5146H297.857ZM299.669 71.033C300.426 71.033 300.804 70.7748 300.804 70.2581C300.804 69.7415 300.426 69.4832 299.669 69.4832H297.857V71.033H299.669ZM304.111 64.9539H306.272V70.8802H309.917V72.5938H304.111V64.9539ZM316.902 70.9239V72.5938H310.769V64.9539H316.761V66.6238H312.908V67.9116H316.302V69.5269H312.908V70.9239H316.902ZM230.452 76.8602H234.065C234.902 76.8602 235.644 77.0166 236.291 77.3295C236.939 77.6423 237.441 78.0862 237.797 78.661C238.154 79.2358 238.332 79.9088 238.332 80.6801C238.332 81.4514 238.154 82.1244 237.797 82.6992C237.441 83.274 236.939 83.7178 236.291 84.0307C235.644 84.3436 234.902 84.5 234.065 84.5H230.452V76.8602ZM233.977 82.7756C234.632 82.7756 235.158 82.59 235.555 82.219C235.951 81.8479 236.149 81.3349 236.149 80.6801C236.149 80.0252 235.951 79.5123 235.555 79.1412C235.158 78.7701 234.632 78.5846 233.977 78.5846H232.613V82.7756H233.977ZM243.32 84.6528C242.512 84.6528 241.786 84.4818 241.143 84.1398C240.499 83.7979 239.993 83.3249 239.625 82.721C239.258 82.1171 239.074 81.4368 239.074 80.6801C239.074 79.9234 239.258 79.2431 239.625 78.6392C239.993 78.0352 240.499 77.5623 241.143 77.2203C241.786 76.8784 242.512 76.7074 243.32 76.7074C244.128 76.7074 244.853 76.8784 245.497 77.2203C246.141 77.5623 246.647 78.0352 247.014 78.6392C247.382 79.2431 247.565 79.9234 247.565 80.6801C247.565 81.4368 247.382 82.1171 247.014 82.721C246.647 83.3249 246.141 83.7979 245.497 84.1398C244.853 84.4818 244.128 84.6528 243.32 84.6528ZM243.32 82.8629C243.706 82.8629 244.055 82.7719 244.368 82.59C244.681 82.4081 244.928 82.1517 245.11 81.8206C245.292 81.4895 245.383 81.1094 245.383 80.6801C245.383 80.2508 245.292 79.8706 245.11 79.5396C244.928 79.2085 244.681 78.952 244.368 78.7701C244.055 78.5882 243.706 78.4973 243.32 78.4973C242.934 78.4973 242.585 78.5882 242.272 78.7701C241.959 78.952 241.712 79.2085 241.53 79.5396C241.348 79.8706 241.257 80.2508 241.257 80.6801C241.257 81.1094 241.348 81.4895 241.53 81.8206C241.712 82.1517 241.959 82.4081 242.272 82.59C242.585 82.7719 242.934 82.8629 243.32 82.8629ZM255.598 84.5L255.576 80.4509L253.612 83.7469H252.651L250.698 80.56V84.5H248.701V76.8602H250.48L253.164 81.2694L255.784 76.8602H257.563L257.585 84.5H255.598ZM264.231 83.0157H261.001L260.4 84.5H258.196L261.568 76.8602H263.696L267.08 84.5H264.832L264.231 83.0157ZM263.598 81.4222L262.616 78.9775L261.634 81.4222H263.598ZM267.691 76.8602H269.852V84.5H267.691V76.8602ZM278.66 76.8602V84.5H276.881L273.508 80.4291V84.5H271.391V76.8602H273.17L276.542 80.9311V76.8602H278.66ZM282.872 84.6528C282.254 84.6528 281.654 84.5764 281.072 84.4236C280.49 84.2708 280.017 84.0671 279.653 83.8124L280.362 82.219C280.704 82.4445 281.101 82.6264 281.552 82.7647C282.003 82.9029 282.447 82.972 282.883 82.972C283.713 82.972 284.128 82.7647 284.128 82.3499C284.128 82.1317 284.009 81.9698 283.773 81.8643C283.536 81.7588 283.156 81.6478 282.632 81.5314C282.058 81.4077 281.577 81.2749 281.192 81.133C280.806 80.9911 280.475 80.7638 280.198 80.4509C279.922 80.138 279.784 79.716 279.784 79.1849C279.784 78.7192 279.911 78.299 280.166 77.9243C280.42 77.5496 280.801 77.2531 281.306 77.0348C281.812 76.8165 282.432 76.7074 283.167 76.7074C283.669 76.7074 284.164 76.7638 284.651 76.8765C285.139 76.9893 285.568 77.1548 285.939 77.3731L285.274 78.9775C284.546 78.5846 283.84 78.3881 283.156 78.3881C282.727 78.3881 282.414 78.4518 282.218 78.5791C282.021 78.7065 281.923 78.872 281.923 79.0757C281.923 79.2795 282.039 79.4322 282.272 79.5341C282.505 79.636 282.88 79.7415 283.396 79.8506C283.978 79.9743 284.46 80.1071 284.842 80.249C285.224 80.3909 285.555 80.6164 285.836 80.9257C286.116 81.2349 286.256 81.6551 286.256 82.1862C286.256 82.6446 286.128 83.0594 285.874 83.4304C285.619 83.8015 285.237 84.098 284.728 84.3199C284.219 84.5418 283.6 84.6528 282.872 84.6528Z" fill="#010617"/>
<path fill-rule="evenodd" clip-rule="evenodd" d="M221.75 60.6875V71.6016L190 84.5L221.75 60.6875Z" fill="#2FE9FF"/>
<path fill-rule="evenodd" clip-rule="evenodd" d="M215.797 60.1914V79.043C215.797 84.5227 211.355 88.9648 205.875 88.9648C200.395 88.9648 195.953 84.5227 195.953 79.043V71.1055L201.906 67.8312V79.043C201.906 80.9609 203.461 82.5156 205.379 82.5156C207.297 82.5156 208.852 80.9609 208.852 79.043V64.0113L215.797 60.1914Z" fill="#4C47F7"/>
</svg>
