<svg viewBox="0 0 357 162" xmlns="http://www.w3.org/2000/svg">
<g filter="url(#filter0_d)">
<rect x="6" y="3" width="345" height="150" rx="3" fill="white"/>
</g>
<path d="M36.752 75V57.648H42.74C43.876 57.648 44.844 57.756 45.644 57.972C46.452 58.188 47.112 58.496 47.624 58.896C48.144 59.296 48.524 59.78 48.764 60.348C49.004 60.916 49.124 61.556 49.124 62.268C49.124 62.676 49.064 63.068 48.944 63.444C48.824 63.812 48.636 64.16 48.38 64.488C48.132 64.808 47.812 65.1 47.42 65.364C47.036 65.628 46.576 65.852 46.04 66.036C48.424 66.572 49.616 67.86 49.616 69.9C49.616 70.636 49.476 71.316 49.196 71.94C48.916 72.564 48.508 73.104 47.972 73.56C47.436 74.008 46.776 74.36 45.992 74.616C45.208 74.872 44.312 75 43.304 75H36.752ZM39.98 67.392V72.48H43.256C43.856 72.48 44.356 72.408 44.756 72.264C45.164 72.12 45.488 71.928 45.728 71.688C45.976 71.448 46.152 71.168 46.256 70.848C46.368 70.528 46.424 70.188 46.424 69.828C46.424 69.452 46.364 69.116 46.244 68.82C46.124 68.516 45.936 68.26 45.68 68.052C45.424 67.836 45.096 67.672 44.696 67.56C44.296 67.448 43.812 67.392 43.244 67.392H39.98ZM39.98 65.16H42.56C43.656 65.16 44.488 64.96 45.056 64.56C45.624 64.16 45.908 63.524 45.908 62.652C45.908 61.748 45.652 61.104 45.14 60.72C44.628 60.336 43.828 60.144 42.74 60.144H39.98V65.16ZM54.9288 62.688V70.512C54.9288 71.264 55.1008 71.848 55.4448 72.264C55.7968 72.672 56.3208 72.876 57.0168 72.876C57.5288 72.876 58.0088 72.764 58.4568 72.54C58.9048 72.308 59.3288 71.992 59.7288 71.592V62.688H62.6928V75H60.8808C60.4968 75 60.2448 74.82 60.1248 74.46L59.9208 73.476C59.6648 73.732 59.4008 73.968 59.1288 74.184C58.8568 74.392 58.5648 74.572 58.2528 74.724C57.9488 74.868 57.6168 74.98 57.2568 75.06C56.9048 75.148 56.5248 75.192 56.1168 75.192C55.4448 75.192 54.8488 75.08 54.3288 74.856C53.8168 74.624 53.3848 74.3 53.0328 73.884C52.6808 73.468 52.4128 72.976 52.2288 72.408C52.0528 71.832 51.9648 71.2 51.9648 70.512V62.688H54.9288ZM70.2254 78.384C70.1374 78.592 70.0214 78.748 69.8774 78.852C69.7414 78.964 69.5294 79.02 69.2414 79.02H67.0334L69.3374 74.088L64.3574 62.688H66.9494C67.1894 62.688 67.3734 62.744 67.5014 62.856C67.6294 62.968 67.7254 63.096 67.7894 63.24L70.4174 69.624C70.5054 69.832 70.5814 70.048 70.6454 70.272C70.7094 70.496 70.7654 70.72 70.8134 70.944C70.8774 70.712 70.9454 70.488 71.0174 70.272C71.0974 70.056 71.1814 69.836 71.2694 69.612L73.7414 63.24C73.8054 63.08 73.9094 62.948 74.0534 62.844C74.2054 62.74 74.3734 62.688 74.5574 62.688H76.9334L70.2254 78.384ZM92.9429 75H91.6109C91.3309 75 91.1109 74.96 90.9509 74.88C90.7909 74.792 90.6709 74.62 90.5909 74.364L90.3269 73.488C90.0149 73.768 89.7069 74.016 89.4029 74.232C89.1069 74.44 88.7989 74.616 88.4789 74.76C88.1589 74.904 87.8189 75.012 87.4589 75.084C87.0989 75.156 86.6989 75.192 86.2589 75.192C85.7389 75.192 85.2589 75.124 84.8189 74.988C84.3789 74.844 83.9989 74.632 83.6789 74.352C83.3669 74.072 83.1229 73.724 82.9469 73.308C82.7709 72.892 82.6829 72.408 82.6829 71.856C82.6829 71.392 82.8029 70.936 83.0429 70.488C83.2909 70.032 83.6989 69.624 84.2669 69.264C84.8349 68.896 85.5909 68.592 86.5349 68.352C87.4789 68.112 88.6509 67.976 90.0509 67.944V67.224C90.0509 66.4 89.8749 65.792 89.5229 65.4C89.1789 65 88.6749 64.8 88.0109 64.8C87.5309 64.8 87.1309 64.856 86.8109 64.968C86.4909 65.08 86.2109 65.208 85.9709 65.352C85.7389 65.488 85.5229 65.612 85.3229 65.724C85.1229 65.836 84.9029 65.892 84.6629 65.892C84.4629 65.892 84.2909 65.84 84.1469 65.736C84.0029 65.632 83.8869 65.504 83.7989 65.352L83.2589 64.404C84.6749 63.108 86.3829 62.46 88.3829 62.46C89.1029 62.46 89.7429 62.58 90.3029 62.82C90.8709 63.052 91.3509 63.38 91.7429 63.804C92.1349 64.22 92.4309 64.72 92.6309 65.304C92.8389 65.888 92.9429 66.528 92.9429 67.224V75ZM87.1829 73.152C87.4869 73.152 87.7669 73.124 88.0229 73.068C88.2789 73.012 88.5189 72.928 88.7429 72.816C88.9749 72.704 89.1949 72.568 89.4029 72.408C89.6189 72.24 89.8349 72.044 90.0509 71.82V69.744C89.1869 69.784 88.4629 69.86 87.8789 69.972C87.3029 70.076 86.8389 70.212 86.4869 70.38C86.1349 70.548 85.8829 70.744 85.7309 70.968C85.5869 71.192 85.5149 71.436 85.5149 71.7C85.5149 72.22 85.6669 72.592 85.9709 72.816C86.2829 73.04 86.6869 73.152 87.1829 73.152ZM99.7901 73.368C99.7901 73.12 99.8341 72.884 99.9221 72.66C100.018 72.436 100.146 72.244 100.306 72.084C100.474 71.924 100.67 71.796 100.894 71.7C101.118 71.604 101.358 71.556 101.614 71.556C101.862 71.556 102.098 71.604 102.322 71.7C102.546 71.796 102.738 71.924 102.898 72.084C103.058 72.244 103.186 72.436 103.282 72.66C103.378 72.884 103.426 73.12 103.426 73.368C103.426 73.624 103.378 73.864 103.282 74.088C103.186 74.304 103.058 74.492 102.898 74.652C102.738 74.812 102.546 74.936 102.322 75.024C102.098 75.12 101.862 75.168 101.614 75.168C101.358 75.168 101.118 75.12 100.894 75.024C100.67 74.936 100.474 74.812 100.306 74.652C100.146 74.492 100.018 74.304 99.9221 74.088C99.8341 73.864 99.7901 73.624 99.7901 73.368ZM114.541 65.292C114.453 65.404 114.365 65.492 114.277 65.556C114.197 65.62 114.077 65.652 113.917 65.652C113.765 65.652 113.617 65.608 113.473 65.52C113.329 65.424 113.157 65.32 112.957 65.208C112.757 65.088 112.517 64.984 112.237 64.896C111.965 64.8 111.625 64.752 111.217 64.752C110.697 64.752 110.241 64.848 109.849 65.04C109.457 65.224 109.129 65.492 108.865 65.844C108.609 66.196 108.417 66.624 108.289 67.128C108.161 67.624 108.097 68.188 108.097 68.82C108.097 69.476 108.165 70.06 108.301 70.572C108.445 71.084 108.649 71.516 108.913 71.868C109.177 72.212 109.497 72.476 109.873 72.66C110.249 72.836 110.673 72.924 111.145 72.924C111.617 72.924 111.997 72.868 112.285 72.756C112.581 72.636 112.829 72.508 113.029 72.372C113.229 72.228 113.401 72.1 113.545 71.988C113.697 71.868 113.865 71.808 114.049 71.808C114.289 71.808 114.469 71.9 114.589 72.084L115.441 73.164C115.113 73.548 114.757 73.872 114.373 74.136C113.989 74.392 113.589 74.6 113.173 74.76C112.765 74.912 112.341 75.02 111.901 75.084C111.461 75.148 111.025 75.18 110.593 75.18C109.833 75.18 109.117 75.04 108.445 74.76C107.773 74.472 107.185 74.056 106.681 73.512C106.185 72.968 105.789 72.304 105.493 71.52C105.205 70.728 105.061 69.828 105.061 68.82C105.061 67.916 105.189 67.08 105.445 66.312C105.709 65.536 106.093 64.868 106.597 64.308C107.101 63.74 107.725 63.296 108.469 62.976C109.213 62.656 110.069 62.496 111.037 62.496C111.957 62.496 112.761 62.644 113.449 62.94C114.145 63.236 114.769 63.66 115.321 64.212L114.541 65.292ZM117.326 75V62.688H119.066C119.37 62.688 119.582 62.744 119.702 62.856C119.822 62.968 119.902 63.16 119.942 63.432L120.122 64.92C120.562 64.16 121.078 63.56 121.67 63.12C122.262 62.68 122.926 62.46 123.662 62.46C124.27 62.46 124.774 62.6 125.174 62.88L124.79 65.1C124.766 65.244 124.714 65.348 124.634 65.412C124.554 65.468 124.446 65.496 124.31 65.496C124.19 65.496 124.026 65.468 123.818 65.412C123.61 65.356 123.334 65.328 122.99 65.328C122.374 65.328 121.846 65.5 121.406 65.844C120.966 66.18 120.594 66.676 120.29 67.332V75H117.326ZM131.491 78.384C131.403 78.592 131.287 78.748 131.143 78.852C131.007 78.964 130.795 79.02 130.507 79.02H128.299L130.603 74.088L125.623 62.688H128.215C128.455 62.688 128.639 62.744 128.767 62.856C128.895 62.968 128.991 63.096 129.055 63.24L131.683 69.624C131.771 69.832 131.847 70.048 131.911 70.272C131.975 70.496 132.031 70.72 132.079 70.944C132.143 70.712 132.211 70.488 132.283 70.272C132.363 70.056 132.447 69.836 132.535 69.612L135.007 63.24C135.071 63.08 135.175 62.948 135.319 62.844C135.471 62.74 135.639 62.688 135.823 62.688H138.199L131.491 78.384ZM139.92 79.02V62.688H141.732C141.924 62.688 142.088 62.732 142.224 62.82C142.36 62.908 142.448 63.044 142.488 63.228L142.728 64.368C143.224 63.8 143.792 63.34 144.432 62.988C145.08 62.636 145.836 62.46 146.7 62.46C147.372 62.46 147.984 62.6 148.536 62.88C149.096 63.16 149.576 63.568 149.976 64.104C150.384 64.632 150.696 65.288 150.912 66.072C151.136 66.848 151.248 67.74 151.248 68.748C151.248 69.668 151.124 70.52 150.876 71.304C150.628 72.088 150.272 72.768 149.808 73.344C149.352 73.92 148.796 74.372 148.14 74.7C147.492 75.02 146.764 75.18 145.956 75.18C145.26 75.18 144.668 75.076 144.18 74.868C143.7 74.652 143.268 74.356 142.884 73.98V79.02H139.92ZM145.68 64.8C145.064 64.8 144.536 64.932 144.096 65.196C143.664 65.452 143.26 65.816 142.884 66.288V71.808C143.22 72.224 143.584 72.516 143.976 72.684C144.376 72.844 144.804 72.924 145.26 72.924C145.708 72.924 146.112 72.84 146.472 72.672C146.84 72.504 147.148 72.248 147.396 71.904C147.652 71.56 147.848 71.128 147.984 70.608C148.12 70.08 148.188 69.46 148.188 68.748C148.188 68.028 148.128 67.42 148.008 66.924C147.896 66.42 147.732 66.012 147.516 65.7C147.3 65.388 147.036 65.16 146.724 65.016C146.42 64.872 146.072 64.8 145.68 64.8ZM157.534 75.192C156.47 75.192 155.65 74.892 155.074 74.292C154.498 73.684 154.21 72.848 154.21 71.784V64.908H152.962C152.802 64.908 152.662 64.856 152.542 64.752C152.43 64.648 152.374 64.492 152.374 64.284V63.108L154.354 62.784L154.978 59.424C155.01 59.264 155.082 59.14 155.194 59.052C155.314 58.964 155.462 58.92 155.638 58.92H157.174V62.796H160.414V64.908H157.174V71.58C157.174 71.964 157.27 72.264 157.462 72.48C157.654 72.696 157.91 72.804 158.23 72.804C158.414 72.804 158.566 72.784 158.686 72.744C158.814 72.696 158.922 72.648 159.01 72.6C159.106 72.552 159.19 72.508 159.262 72.468C159.334 72.42 159.406 72.396 159.478 72.396C159.566 72.396 159.638 72.42 159.694 72.468C159.75 72.508 159.81 72.572 159.874 72.66L160.762 74.1C160.33 74.46 159.834 74.732 159.274 74.916C158.714 75.1 158.134 75.192 157.534 75.192ZM168.028 62.496C168.948 62.496 169.78 62.644 170.524 62.94C171.276 63.236 171.916 63.656 172.444 64.2C172.972 64.744 173.38 65.408 173.668 66.192C173.956 66.976 174.1 67.852 174.1 68.82C174.1 69.796 173.956 70.676 173.668 71.46C173.38 72.244 172.972 72.912 172.444 73.464C171.916 74.016 171.276 74.44 170.524 74.736C169.78 75.032 168.948 75.18 168.028 75.18C167.108 75.18 166.272 75.032 165.52 74.736C164.768 74.44 164.124 74.016 163.588 73.464C163.06 72.912 162.648 72.244 162.352 71.46C162.064 70.676 161.92 69.796 161.92 68.82C161.92 67.852 162.064 66.976 162.352 66.192C162.648 65.408 163.06 64.744 163.588 64.2C164.124 63.656 164.768 63.236 165.52 62.94C166.272 62.644 167.108 62.496 168.028 62.496ZM168.028 72.9C169.052 72.9 169.808 72.556 170.296 71.868C170.792 71.18 171.04 70.172 171.04 68.844C171.04 67.516 170.792 66.504 170.296 65.808C169.808 65.112 169.052 64.764 168.028 64.764C166.988 64.764 166.22 65.116 165.724 65.82C165.228 66.516 164.98 67.524 164.98 68.844C164.98 70.164 165.228 71.172 165.724 71.868C166.22 72.556 166.988 72.9 168.028 72.9Z" fill="#163150"/>
<path d="M41.872 102C41.6693 102 41.5413 101.901 41.488 101.704L41.36 100.72C41.0133 101.141 40.616 101.48 40.168 101.736C39.7253 101.987 39.216 102.112 38.64 102.112C38.176 102.112 37.7547 102.024 37.376 101.848C36.9973 101.667 36.6747 101.403 36.408 101.056C36.1413 100.709 35.936 100.277 35.792 99.76C35.648 99.2427 35.576 98.648 35.576 97.976C35.576 97.3787 35.656 96.824 35.816 96.312C35.976 95.7947 36.2053 95.3467 36.504 94.968C36.808 94.5893 37.176 94.2933 37.608 94.08C38.04 93.8613 38.5307 93.752 39.08 93.752C39.576 93.752 40 93.8373 40.352 94.008C40.704 94.1733 41.0187 94.408 41.296 94.712V90.216H42.72V102H41.872ZM39.112 100.96C39.576 100.96 39.9813 100.853 40.328 100.64C40.68 100.427 41.0027 100.125 41.296 99.736V95.816C41.0347 95.464 40.7467 95.2187 40.432 95.08C40.1227 94.936 39.7787 94.864 39.4 94.864C38.6427 94.864 38.0613 95.1333 37.656 95.672C37.2507 96.2107 37.048 96.9787 37.048 97.976C37.048 98.504 37.0933 98.9573 37.184 99.336C37.2747 99.7093 37.408 100.019 37.584 100.264C37.76 100.504 37.976 100.68 38.232 100.792C38.488 100.904 38.7813 100.96 39.112 100.96ZM48.3855 93.768C48.9775 93.768 49.5108 93.8667 49.9855 94.064C50.4655 94.2613 50.8708 94.5413 51.2015 94.904C51.5375 95.2667 51.7935 95.7067 51.9695 96.224C52.1508 96.736 52.2415 97.3093 52.2415 97.944C52.2415 98.584 52.1508 99.16 51.9695 99.672C51.7935 100.184 51.5375 100.621 51.2015 100.984C50.8708 101.347 50.4655 101.627 49.9855 101.824C49.5108 102.016 48.9775 102.112 48.3855 102.112C47.7935 102.112 47.2575 102.016 46.7775 101.824C46.3028 101.627 45.8975 101.347 45.5615 100.984C45.2255 100.621 44.9668 100.184 44.7855 99.672C44.6042 99.16 44.5135 98.584 44.5135 97.944C44.5135 97.3093 44.6042 96.736 44.7855 96.224C44.9668 95.7067 45.2255 95.2667 45.5615 94.904C45.8975 94.5413 46.3028 94.2613 46.7775 94.064C47.2575 93.8667 47.7935 93.768 48.3855 93.768ZM48.3855 101C49.1855 101 49.7828 100.733 50.1775 100.2C50.5722 99.6613 50.7695 98.912 50.7695 97.952C50.7695 96.9867 50.5722 96.2347 50.1775 95.696C49.7828 95.1573 49.1855 94.888 48.3855 94.888C47.9802 94.888 47.6282 94.9573 47.3295 95.096C47.0308 95.2347 46.7802 95.4347 46.5775 95.696C46.3802 95.9573 46.2308 96.28 46.1295 96.664C46.0335 97.0427 45.9855 97.472 45.9855 97.952C45.9855 98.432 46.0335 98.8613 46.1295 99.24C46.2308 99.6187 46.3802 99.9387 46.5775 100.2C46.7802 100.456 47.0308 100.653 47.3295 100.792C47.6282 100.931 47.9802 101 48.3855 101ZM53.9961 102V93.896H54.8441C55.0468 93.896 55.1748 93.9947 55.2281 94.192L55.3321 95.024C55.6308 94.656 55.9641 94.3547 56.3321 94.12C56.7055 93.8853 57.1375 93.768 57.6281 93.768C58.1775 93.768 58.6201 93.92 58.9561 94.224C59.2975 94.528 59.5428 94.9387 59.6921 95.456C59.8041 95.1627 59.9508 94.9093 60.1321 94.696C60.3188 94.4827 60.5268 94.3067 60.7561 94.168C60.9855 94.0293 61.2281 93.928 61.4841 93.864C61.7455 93.8 62.0095 93.768 62.2761 93.768C62.7028 93.768 63.0815 93.8373 63.4121 93.976C63.7481 94.1093 64.0308 94.3067 64.2601 94.568C64.4948 94.8293 64.6735 95.152 64.7961 95.536C64.9188 95.9147 64.9801 96.3493 64.9801 96.84V102H63.5561V96.84C63.5561 96.2053 63.4175 95.7253 63.1401 95.4C62.8628 95.0693 62.4601 94.904 61.9321 94.904C61.6975 94.904 61.4735 94.9467 61.2601 95.032C61.0521 95.112 60.8681 95.232 60.7081 95.392C60.5481 95.552 60.4201 95.7547 60.3241 96C60.2335 96.24 60.1881 96.52 60.1881 96.84V102H58.7641V96.84C58.7641 96.1893 58.6335 95.704 58.3721 95.384C58.1108 95.064 57.7295 94.904 57.2281 94.904C56.8761 94.904 56.5481 95 56.2441 95.192C55.9455 95.3787 55.6708 95.6347 55.4201 95.96V102H53.9961ZM73.0888 102H72.4568C72.3181 102 72.2061 101.979 72.1208 101.936C72.0354 101.893 71.9794 101.803 71.9528 101.664L71.7928 100.912C71.5794 101.104 71.3714 101.277 71.1688 101.432C70.9661 101.581 70.7528 101.709 70.5288 101.816C70.3048 101.917 70.0648 101.995 69.8088 102.048C69.5581 102.101 69.2781 102.128 68.9688 102.128C68.6541 102.128 68.3581 102.085 68.0807 102C67.8088 101.909 67.5714 101.776 67.3688 101.6C67.1661 101.424 67.0034 101.203 66.8808 100.936C66.7634 100.664 66.7048 100.344 66.7048 99.976C66.7048 99.656 66.7928 99.3493 66.9688 99.056C67.1448 98.7573 67.4274 98.4933 67.8168 98.264C68.2114 98.0347 68.7261 97.848 69.3608 97.704C69.9954 97.5547 70.7714 97.4693 71.6888 97.448V96.816C71.6888 96.1867 71.5528 95.712 71.2808 95.392C71.0141 95.0667 70.6168 94.904 70.0888 94.904C69.7421 94.904 69.4488 94.9493 69.2088 95.04C68.9741 95.1253 68.7688 95.224 68.5928 95.336C68.4221 95.4427 68.2728 95.5413 68.1448 95.632C68.0221 95.7173 67.8994 95.76 67.7768 95.76C67.6808 95.76 67.5954 95.736 67.5208 95.688C67.4514 95.6347 67.3954 95.5707 67.3528 95.496L67.0968 95.04C67.5448 94.608 68.0274 94.2853 68.5448 94.072C69.0621 93.8587 69.6354 93.752 70.2648 93.752C70.7181 93.752 71.1208 93.8267 71.4728 93.976C71.8248 94.1253 72.1208 94.3333 72.3608 94.6C72.6008 94.8667 72.7821 95.1893 72.9048 95.568C73.0274 95.9467 73.0888 96.3627 73.0888 96.816V102ZM69.3928 101.128C69.6434 101.128 69.8728 101.104 70.0807 101.056C70.2888 101.003 70.4834 100.931 70.6648 100.84C70.8514 100.744 71.0274 100.629 71.1928 100.496C71.3634 100.363 71.5288 100.211 71.6888 100.04V98.352C71.0328 98.3733 70.4754 98.4267 70.0168 98.512C69.5581 98.592 69.1848 98.6987 68.8968 98.832C68.6088 98.9653 68.3981 99.1227 68.2648 99.304C68.1368 99.4853 68.0728 99.688 68.0728 99.912C68.0728 100.125 68.1074 100.309 68.1768 100.464C68.2461 100.619 68.3394 100.747 68.4568 100.848C68.5741 100.944 68.7128 101.016 68.8728 101.064C69.0328 101.107 69.2061 101.128 69.3928 101.128ZM76.8301 93.896V102H75.4061V93.896H76.8301ZM77.1501 91.352C77.1501 91.4907 77.1208 91.6213 77.0621 91.744C77.0088 91.8613 76.9341 91.968 76.8381 92.064C76.7475 92.1547 76.6408 92.2267 76.5181 92.28C76.3955 92.3333 76.2648 92.36 76.1261 92.36C75.9875 92.36 75.8568 92.3333 75.7341 92.28C75.6168 92.2267 75.5101 92.1547 75.4141 92.064C75.3235 91.968 75.2515 91.8613 75.1981 91.744C75.1448 91.6213 75.1181 91.4907 75.1181 91.352C75.1181 91.2133 75.1448 91.0827 75.1981 90.96C75.2515 90.832 75.3235 90.7227 75.4141 90.632C75.5101 90.536 75.6168 90.4613 75.7341 90.408C75.8568 90.3547 75.9875 90.328 76.1261 90.328C76.2648 90.328 76.3955 90.3547 76.5181 90.408C76.6408 90.4613 76.7475 90.536 76.8381 90.632C76.9341 90.7227 77.0088 90.832 77.0621 90.96C77.1208 91.0827 77.1501 91.2133 77.1501 91.352ZM79.3399 102V93.896H80.1879C80.3905 93.896 80.5185 93.9947 80.5719 94.192L80.6839 95.072C81.0359 94.6827 81.4279 94.368 81.8599 94.128C82.2972 93.888 82.8012 93.768 83.3719 93.768C83.8145 93.768 84.2039 93.8427 84.5399 93.992C84.8812 94.136 85.1639 94.344 85.3879 94.616C85.6172 94.8827 85.7905 95.2053 85.9079 95.584C86.0252 95.9627 86.0839 96.3813 86.0839 96.84V102H84.6599V96.84C84.6599 96.2267 84.5185 95.752 84.2359 95.416C83.9585 95.0747 83.5319 94.904 82.9559 94.904C82.5345 94.904 82.1399 95.0053 81.7719 95.208C81.4092 95.4107 81.0732 95.6853 80.7639 96.032V102H79.3399ZM90.2683 93.896H91.3883C91.5056 93.896 91.6016 93.9253 91.6763 93.984C91.7509 94.0427 91.8016 94.112 91.8283 94.192L93.3803 99.408C93.4229 99.6 93.4629 99.7867 93.5003 99.968C93.5376 100.144 93.5696 100.323 93.5963 100.504C93.6389 100.323 93.6869 100.144 93.7403 99.968C93.7936 99.7867 93.8496 99.6 93.9083 99.408L95.6203 94.16C95.6469 94.08 95.6923 94.0133 95.7563 93.96C95.8256 93.9067 95.9109 93.88 96.0123 93.88H96.6283C96.7349 93.88 96.8229 93.9067 96.8923 93.96C96.9616 94.0133 97.0096 94.08 97.0363 94.16L98.7083 99.408C98.7669 99.5947 98.8176 99.7787 98.8603 99.96C98.9083 100.141 98.9536 100.32 98.9963 100.496C99.0229 100.32 99.0576 100.136 99.1003 99.944C99.1429 99.752 99.1883 99.5733 99.2363 99.408L100.82 94.192C100.847 94.1067 100.898 94.0373 100.972 93.984C101.047 93.9253 101.135 93.896 101.236 93.896H102.308L99.6843 102H98.5563C98.4176 102 98.3216 101.909 98.2683 101.728L96.4763 96.232C96.4336 96.1093 96.3989 95.9867 96.3723 95.864C96.3456 95.736 96.3189 95.6107 96.2923 95.488C96.2656 95.6107 96.2389 95.736 96.2123 95.864C96.1856 95.992 96.1509 96.1173 96.1083 96.24L94.2923 101.728C94.2336 101.909 94.1243 102 93.9643 102H92.8923L90.2683 93.896ZM105.158 93.896V102H103.734V93.896H105.158ZM105.478 91.352C105.478 91.4907 105.449 91.6213 105.39 91.744C105.337 91.8613 105.262 91.968 105.166 92.064C105.076 92.1547 104.969 92.2267 104.846 92.28C104.724 92.3333 104.593 92.36 104.454 92.36C104.316 92.36 104.185 92.3333 104.062 92.28C103.945 92.2267 103.838 92.1547 103.742 92.064C103.652 91.968 103.58 91.8613 103.526 91.744C103.473 91.6213 103.446 91.4907 103.446 91.352C103.446 91.2133 103.473 91.0827 103.526 90.96C103.58 90.832 103.652 90.7227 103.742 90.632C103.838 90.536 103.945 90.4613 104.062 90.408C104.185 90.3547 104.316 90.328 104.454 90.328C104.593 90.328 104.724 90.3547 104.846 90.408C104.969 90.4613 105.076 90.536 105.166 90.632C105.262 90.7227 105.337 90.832 105.39 90.96C105.449 91.0827 105.478 91.2133 105.478 91.352ZM110.124 102.128C109.484 102.128 108.991 101.949 108.644 101.592C108.303 101.235 108.132 100.72 108.132 100.048V95.088H107.156C107.071 95.088 106.999 95.064 106.94 95.016C106.881 94.9627 106.852 94.8827 106.852 94.776V94.208L108.18 94.04L108.508 91.536C108.519 91.456 108.553 91.392 108.612 91.344C108.671 91.2907 108.745 91.264 108.836 91.264H109.556V94.056H111.876V95.088H109.556V99.952C109.556 100.293 109.639 100.547 109.804 100.712C109.969 100.877 110.183 100.96 110.444 100.96C110.593 100.96 110.721 100.941 110.828 100.904C110.94 100.861 111.036 100.816 111.116 100.768C111.196 100.72 111.263 100.677 111.316 100.64C111.375 100.597 111.425 100.576 111.468 100.576C111.543 100.576 111.609 100.621 111.668 100.712L112.084 101.392C111.839 101.621 111.543 101.803 111.196 101.936C110.849 102.064 110.492 102.128 110.124 102.128ZM113.637 102V90.216H115.061V94.984C115.407 94.616 115.791 94.3227 116.213 94.104C116.634 93.88 117.119 93.768 117.669 93.768C118.111 93.768 118.501 93.8427 118.837 93.992C119.178 94.136 119.461 94.344 119.685 94.616C119.914 94.8827 120.087 95.2053 120.205 95.584C120.322 95.9627 120.381 96.3813 120.381 96.84V102H118.957V96.84C118.957 96.2267 118.815 95.752 118.533 95.416C118.255 95.0747 117.829 94.904 117.253 94.904C116.831 94.904 116.437 95.0053 116.069 95.208C115.706 95.4107 115.37 95.6853 115.061 96.032V102H113.637Z" fill="#282D32"/>
<g clip-path="url(#clip0)">
<path d="M239.977 75.7466C238.842 75.7466 237.96 75.4373 237.331 74.8189C236.701 74.2004 236.387 73.3236 236.387 72.1886V67.9539H238.548V72.1231C238.548 73.3455 239.032 73.9566 239.999 73.9566C240.96 73.9566 241.44 73.3455 241.44 72.1231V67.9539H243.568V72.1886C243.568 73.3236 243.253 74.2004 242.624 74.8189C241.995 75.4373 241.113 75.7466 239.977 75.7466ZM252.299 67.9539V75.5938H250.52L247.148 71.5228V75.5938H245.031V67.9539H246.81L250.182 72.0249V67.9539H252.299ZM256.512 75.7466C255.894 75.7466 255.294 75.6702 254.711 75.5174C254.129 75.3646 253.656 75.1608 253.293 74.9062L254.002 73.3127C254.344 73.5383 254.741 73.7202 255.192 73.8584C255.643 73.9967 256.087 74.0658 256.523 74.0658C257.353 74.0658 257.767 73.8584 257.767 73.4437C257.767 73.2254 257.649 73.0635 257.413 72.958C257.176 72.8525 256.796 72.7416 256.272 72.6251C255.697 72.5014 255.217 72.3687 254.831 72.2268C254.446 72.0849 254.115 71.8575 253.838 71.5446C253.562 71.2318 253.424 70.8098 253.424 70.2786C253.424 69.8129 253.551 69.3928 253.806 69.018C254.06 68.6433 254.44 68.3468 254.946 68.1285C255.452 67.9103 256.072 67.8011 256.807 67.8011C257.309 67.8011 257.804 67.8575 258.291 67.9703C258.779 68.0831 259.208 68.2486 259.579 68.4669L258.913 70.0712C258.186 69.6783 257.48 69.4819 256.796 69.4819C256.367 69.4819 256.054 69.5455 255.857 69.6729C255.661 69.8002 255.563 69.9657 255.563 70.1695C255.563 70.3732 255.679 70.526 255.912 70.6279C256.145 70.7297 256.52 70.8352 257.036 70.9444C257.618 71.0681 258.1 71.2008 258.482 71.3427C258.864 71.4846 259.195 71.7102 259.475 72.0194C259.756 72.3286 259.896 72.7488 259.896 73.28C259.896 73.7384 259.768 74.1531 259.514 74.5242C259.259 74.8953 258.877 75.1918 258.368 75.4137C257.858 75.6356 257.24 75.7466 256.512 75.7466ZM262.515 69.6674H260.168V67.9539H267.012V69.6674H264.676V75.5938H262.515V69.6674ZM271.672 75.7466C270.864 75.7466 270.138 75.5756 269.495 75.2336C268.851 74.8916 268.345 74.4187 267.977 73.8148C267.61 73.2109 267.426 72.5305 267.426 71.7738C267.426 71.0171 267.61 70.3368 267.977 69.7329C268.345 69.129 268.851 68.6561 269.495 68.3141C270.138 67.9721 270.864 67.8011 271.672 67.8011C272.48 67.8011 273.205 67.9721 273.849 68.3141C274.493 68.6561 274.999 69.129 275.366 69.7329C275.734 70.3368 275.917 71.0171 275.917 71.7738C275.917 72.5305 275.734 73.2109 275.366 73.8148C274.999 74.4187 274.493 74.8916 273.849 75.2336C273.205 75.5756 272.48 75.7466 271.672 75.7466ZM271.672 73.9566C272.058 73.9566 272.407 73.8657 272.72 73.6838C273.033 73.5019 273.28 73.2454 273.462 72.9144C273.644 72.5833 273.735 72.2031 273.735 71.7738C273.735 71.3445 273.644 70.9644 273.462 70.6333C273.28 70.3023 273.033 70.0458 272.72 69.8639C272.407 69.682 272.058 69.591 271.672 69.591C271.286 69.591 270.937 69.682 270.624 69.8639C270.311 70.0458 270.064 70.3023 269.882 70.6333C269.7 70.9644 269.609 71.3445 269.609 71.7738C269.609 72.2031 269.7 72.5833 269.882 72.9144C270.064 73.2454 270.311 73.5019 270.624 73.6838C270.937 73.8657 271.286 73.9566 271.672 73.9566ZM280.545 67.9539C281.236 67.9539 281.837 68.0685 282.346 68.2977C282.855 68.5269 283.248 68.8543 283.525 69.28C283.801 69.7056 283.939 70.2058 283.939 70.7807C283.939 71.3555 283.801 71.8539 283.525 72.2759C283.248 72.6979 282.855 73.0235 282.346 73.2527C281.837 73.4819 281.236 73.5965 280.545 73.5965H279.213V75.5938H277.053V67.9539H280.545ZM280.414 71.8939C280.858 71.8939 281.193 71.7975 281.418 71.6047C281.644 71.4119 281.756 71.1372 281.756 70.7807C281.756 70.4241 281.644 70.1476 281.418 69.9512C281.193 69.7547 280.858 69.6565 280.414 69.6565H279.213V71.8939H280.414ZM288.589 67.9539C289.28 67.9539 289.88 68.0685 290.39 68.2977C290.899 68.5269 291.292 68.8543 291.568 69.28C291.845 69.7056 291.983 70.2058 291.983 70.7807C291.983 71.3555 291.845 71.8539 291.568 72.2759C291.292 72.6979 290.899 73.0235 290.39 73.2527C289.88 73.4819 289.28 73.5965 288.589 73.5965H287.257V75.5938H285.096V67.9539H288.589ZM288.458 71.8939C288.902 71.8939 289.236 71.7975 289.462 71.6047C289.687 71.4119 289.8 71.1372 289.8 70.7807C289.8 70.4241 289.687 70.1476 289.462 69.9512C289.236 69.7547 288.902 69.6565 288.458 69.6565H287.257V71.8939H288.458ZM298.259 74.1094H295.028L294.428 75.5938H292.223L295.596 67.9539H297.724L301.107 75.5938H298.859L298.259 74.1094ZM297.626 72.516L296.643 70.0712L295.661 72.516H297.626ZM307.59 71.6101C308.027 71.7629 308.369 72.0012 308.616 72.325C308.863 72.6488 308.987 73.0399 308.987 73.4983C308.987 74.1677 308.718 74.6843 308.179 75.0481C307.641 75.4119 306.862 75.5938 305.844 75.5938H301.718V67.9539H305.626C306.601 67.9539 307.343 68.134 307.852 68.4942C308.361 68.8543 308.616 69.34 308.616 69.9512C308.616 70.315 308.527 70.6406 308.349 70.928C308.17 71.2154 307.917 71.4428 307.59 71.6101ZM303.857 69.5146V70.988H305.342C306.069 70.988 306.433 70.7406 306.433 70.2459C306.433 69.7584 306.069 69.5146 305.342 69.5146H303.857ZM305.669 74.033C306.426 74.033 306.804 73.7748 306.804 73.2581C306.804 72.7415 306.426 72.4833 305.669 72.4833H303.857V74.033H305.669ZM310.111 67.9539H312.272V73.8803H315.917V75.5938H310.111V67.9539ZM322.902 73.9239V75.5938H316.769V67.9539H322.761V69.6238H318.908V70.9116H322.302V72.5269H318.908V73.9239H322.902ZM236.452 79.8602H240.065C240.902 79.8602 241.644 80.0166 242.291 80.3295C242.939 80.6423 243.441 81.0862 243.797 81.661C244.154 82.2358 244.332 82.9088 244.332 83.6801C244.332 84.4514 244.154 85.1244 243.797 85.6992C243.441 86.274 242.939 86.7178 242.291 87.0307C241.644 87.3436 240.902 87.5 240.065 87.5H236.452V79.8602ZM239.977 85.7756C240.632 85.7756 241.158 85.5901 241.555 85.219C241.951 84.8479 242.149 84.3349 242.149 83.6801C242.149 83.0252 241.951 82.5123 241.555 82.1412C241.158 81.7701 240.632 81.5846 239.977 81.5846H238.613V85.7756H239.977ZM249.32 87.6528C248.512 87.6528 247.786 87.4818 247.143 87.1398C246.499 86.7979 245.993 86.3249 245.625 85.721C245.258 85.1171 245.074 84.4368 245.074 83.6801C245.074 82.9234 245.258 82.2431 245.625 81.6392C245.993 81.0352 246.499 80.5623 247.143 80.2203C247.786 79.8784 248.512 79.7074 249.32 79.7074C250.128 79.7074 250.853 79.8784 251.497 80.2203C252.141 80.5623 252.647 81.0352 253.014 81.6392C253.382 82.2431 253.565 82.9234 253.565 83.6801C253.565 84.4368 253.382 85.1171 253.014 85.721C252.647 86.3249 252.141 86.7979 251.497 87.1398C250.853 87.4818 250.128 87.6528 249.32 87.6528ZM249.32 85.8629C249.706 85.8629 250.055 85.772 250.368 85.59C250.681 85.4081 250.928 85.1517 251.11 84.8206C251.292 84.4895 251.383 84.1094 251.383 83.6801C251.383 83.2508 251.292 82.8706 251.11 82.5396C250.928 82.2085 250.681 81.952 250.368 81.7701C250.055 81.5882 249.706 81.4973 249.32 81.4973C248.934 81.4973 248.585 81.5882 248.272 81.7701C247.959 81.952 247.712 82.2085 247.53 82.5396C247.348 82.8706 247.257 83.2508 247.257 83.6801C247.257 84.1094 247.348 84.4895 247.53 84.8206C247.712 85.1517 247.959 85.4081 248.272 85.59C248.585 85.772 248.934 85.8629 249.32 85.8629ZM261.598 87.5L261.576 83.4509L259.612 86.7469H258.651L256.698 83.56V87.5H254.701V79.8602H256.48L259.164 84.2694L261.784 79.8602H263.563L263.585 87.5H261.598ZM270.231 86.0157H267.001L266.4 87.5H264.196L267.568 79.8602H269.696L273.08 87.5H270.832L270.231 86.0157ZM269.598 84.4222L268.616 81.9775L267.634 84.4222H269.598ZM273.691 79.8602H275.852V87.5H273.691V79.8602ZM284.66 79.8602V87.5H282.881L279.508 83.4291V87.5H277.391V79.8602H279.17L282.542 83.9311V79.8602H284.66ZM288.872 87.6528C288.254 87.6528 287.654 87.5764 287.072 87.4236C286.49 87.2708 286.017 87.0671 285.653 86.8124L286.362 85.219C286.704 85.4445 287.101 85.6264 287.552 85.7647C288.003 85.9029 288.447 85.972 288.883 85.972C289.713 85.972 290.128 85.7647 290.128 85.3499C290.128 85.1317 290.009 84.9698 289.773 84.8643C289.536 84.7588 289.156 84.6478 288.632 84.5314C288.058 84.4077 287.577 84.2749 287.192 84.133C286.806 83.9911 286.475 83.7638 286.198 83.4509C285.922 83.138 285.784 82.716 285.784 82.1849C285.784 81.7192 285.911 81.299 286.166 80.9243C286.42 80.5496 286.801 80.2531 287.306 80.0348C287.812 79.8165 288.432 79.7074 289.167 79.7074C289.669 79.7074 290.164 79.7638 290.651 79.8765C291.139 79.9893 291.568 80.1548 291.939 80.3731L291.274 81.9775C290.546 81.5846 289.84 81.3881 289.156 81.3881C288.727 81.3881 288.414 81.4518 288.218 81.5791C288.021 81.7065 287.923 81.872 287.923 82.0757C287.923 82.2795 288.039 82.4322 288.272 82.5341C288.505 82.636 288.88 82.7415 289.396 82.8506C289.978 82.9743 290.46 83.1071 290.842 83.249C291.224 83.3909 291.555 83.6164 291.836 83.9257C292.116 84.2349 292.256 84.6551 292.256 85.1862C292.256 85.6446 292.128 86.0594 291.874 86.4304C291.619 86.8015 291.237 87.098 290.728 87.3199C290.219 87.5418 289.6 87.6528 288.872 87.6528Z" fill="#010617"/>
<path fill-rule="evenodd" clip-rule="evenodd" d="M227.75 63.6875V74.6016L196 87.5L227.75 63.6875Z" fill="#2FE9FF"/>
<path fill-rule="evenodd" clip-rule="evenodd" d="M221.797 63.1914V82.043C221.797 87.5227 217.355 91.9648 211.875 91.9648C206.395 91.9648 201.953 87.5227 201.953 82.043V74.1055L207.906 70.8312V82.043C207.906 83.9609 209.461 85.5156 211.379 85.5156C213.297 85.5156 214.852 83.9609 214.852 82.043V67.0113L221.797 63.1914Z" fill="#4C47F7"/>
</g>
<defs>
<filter id="filter0_d" x="0" y="0" width="357" height="162" filterUnits="userSpaceOnUse" color-interpolation-filters="sRGB">
<feFlood flood-opacity="0" result="BackgroundImageFix"/>
<feColorMatrix in="SourceAlpha" type="matrix" values="0 0 0 0 0 0 0 0 0 0 0 0 0 0 0 0 0 0 127 0"/>
<feOffset dy="3"/>
<feGaussianBlur stdDeviation="3"/>
<feColorMatrix type="matrix" values="0 0 0 0 0 0 0 0 0 0 0 0 0 0 0 0 0 0 0.07 0"/>
<feBlend mode="normal" in2="BackgroundImageFix" result="effect1_dropShadow"/>
<feBlend mode="normal" in="SourceGraphic" in2="effect1_dropShadow" result="shape"/>
</filter>
<clipPath id="clip0">
<rect width="127" height="28.7734" fill="white" transform="translate(196 63.1914)"/>
</clipPath>
</defs>
</svg>
