<svg width="71" height="77" viewBox="0 0 71 77" fill="none" xmlns="http://www.w3.org/2000/svg">
<path d="M65.9461 52.3951L34.1622 75L2.78369 52.3951V2H65.9461V52.3951Z" fill="#C86B32" stroke="#FBAE28" stroke-width="2.03937" stroke-miterlimit="10" stroke-linecap="round" stroke-linejoin="round"/>
<path d="M6.35132 51.1798L36.8379 73.1365L65.9461 52.3951V2H6.35132V51.1798Z" fill="#FA863F"/>
<path opacity="0.4" d="M5.2973 59.2008L1 56.041" stroke="#B6BFC7" stroke-width="1.50457" stroke-miterlimit="10" stroke-linecap="round" stroke-linejoin="round"/>
<path opacity="0.4" d="M21.0273 70.5438L9.18945 61.9556" stroke="#B6BFC7" stroke-width="1.50457" stroke-miterlimit="10" stroke-linecap="round" stroke-linejoin="round"/>
<path opacity="0.4" d="M70 13.9099V31.1674" stroke="#B6BFC7" stroke-width="1.50457" stroke-miterlimit="10" stroke-linecap="round" stroke-linejoin="round"/>
<path opacity="0.4" d="M70 2V7.59045" stroke="#B6BFC7" stroke-width="1.50457" stroke-miterlimit="10" stroke-linecap="round" stroke-linejoin="round"/>
<path d="M65.9461 52.3951L34.1622 75L2.78369 52.3951V2H65.9461V52.3951Z" stroke="#153150" stroke-width="2.25685" stroke-miterlimit="10" stroke-linecap="round" stroke-linejoin="round"/>
<path opacity="0.2" d="M53.9331 37.2476C53.9551 25.1213 44.1353 15.273 31.9999 15.251C19.8646 15.229 10.009 25.0414 9.98696 37.1678C9.9649 49.2942 19.7847 59.1424 31.9201 59.1644C44.0555 59.1865 53.911 49.374 53.9331 37.2476Z" fill="black"/>
<path d="M55.8919 33.1016C55.9137 21.1095 46.2027 11.3703 34.2016 11.3485C22.2006 11.3267 12.4541 21.0306 12.4323 33.0227C12.4105 45.0148 22.1216 54.754 34.1226 54.7758C46.1237 54.7976 55.8701 45.0937 55.8919 33.1016Z" fill="white" stroke="#153150" stroke-width="1.50457" stroke-miterlimit="10" stroke-linecap="round" stroke-linejoin="round"/>
<path d="M56.1352 33.1021C56.1573 20.9757 46.3375 11.1275 34.2021 11.1055C22.0667 11.0834 12.2112 20.8959 12.1891 33.0223C12.1671 45.1486 21.9868 54.9969 34.1222 55.0189C46.2576 55.041 56.1131 45.2285 56.1352 33.1021Z" fill="white"/>
<path d="M55.8919 33.1016C55.9137 21.1095 46.2027 11.3703 34.2016 11.3485C22.2006 11.3267 12.4541 21.0306 12.4323 33.0227C12.4105 45.0148 22.1216 54.754 34.1226 54.7758C46.1237 54.7976 55.8701 45.0937 55.8919 33.1016Z" stroke="#153150" stroke-width="2.11843" stroke-miterlimit="10" stroke-linecap="round" stroke-linejoin="round"/>
<path d="M34.3242 27.4409L36.5134 30.6818L40.1621 31.9781" stroke="white" stroke-width="2.03937" stroke-miterlimit="10" stroke-linecap="round" stroke-linejoin="round"/>
<path d="M42.652 46.7251L34.2259 43.3984L25.7997 45.9859L25.8923 37.1145L20.4292 29.7218L28.9479 27.504L34.0407 20.3884L39.1334 27.966L47.7447 30.9231L42.3742 37.8538L42.652 46.7251Z" fill="#FA863F"/>
<path d="M42.652 47.6494C42.5594 47.6494 42.4668 47.6494 42.2816 47.557L34.1332 44.415L26.0775 46.9101C25.7997 47.0025 25.5219 46.9101 25.2441 46.7253C24.9663 46.5405 24.8737 46.2632 24.8737 45.986L24.9663 37.3919L19.6884 30.2764C19.5032 29.9992 19.4106 29.7219 19.5958 29.4447C19.6884 29.1675 19.9662 28.8902 20.244 28.8902L28.4849 26.7648L33.2999 19.9265C33.4851 19.6493 33.7629 19.5569 34.0406 19.5569C34.3184 19.5569 34.5962 19.7417 34.7814 19.9265L39.7815 27.2269L48.0225 30.0916C48.3003 30.184 48.4855 30.4612 48.5781 30.7384C48.6707 31.0157 48.5781 31.2929 48.3929 31.5701L43.2075 38.1312L43.4853 46.7253C43.4853 47.0025 43.3927 47.3721 43.115 47.4645C43.0224 47.6494 42.8372 47.6494 42.652 47.6494ZM34.2258 42.4744C34.3184 42.4744 34.411 42.4744 34.5962 42.5668L41.726 45.3391L41.4482 37.7616C41.4482 37.5767 41.5408 37.2995 41.6334 37.2071L46.1706 31.3853L38.8556 28.8902C38.6704 28.7978 38.4852 28.7054 38.3926 28.5206L33.948 22.0519L29.6887 28.0586C29.5961 28.2434 29.4109 28.3358 29.1331 28.4282L21.9107 30.2764L26.5404 36.5602C26.633 36.7451 26.7256 36.9299 26.7256 37.1147V44.7847L33.948 42.5668C34.0406 42.5668 34.1332 42.4744 34.2258 42.4744Z" fill="#C86B32"/>
<path d="M34.2899 30.4665C34.5705 30.4665 34.8425 30.5127 35.106 30.6051C35.3729 30.6975 35.6073 30.8378 35.8092 31.026C36.0111 31.2107 36.1736 31.4417 36.2968 31.7189C36.42 31.996 36.4816 32.3194 36.4816 32.689C36.4816 33.0346 36.4182 33.3596 36.2916 33.6642C36.165 33.9653 35.9871 34.2288 35.7578 34.4546C35.5286 34.6804 35.2514 34.8584 34.9263 34.9884C34.6047 35.1184 34.2488 35.1834 33.8588 35.1834C33.4618 35.1834 33.106 35.1201 32.7912 34.9935C32.4764 34.8669 32.2077 34.6907 31.9853 34.4649C31.7629 34.2356 31.5918 33.9619 31.4721 33.6436C31.3557 33.322 31.2975 32.9661 31.2975 32.576C31.2975 32.227 31.3677 31.8694 31.508 31.5033C31.6517 31.1338 31.8724 30.7505 32.1701 30.3536L33.9409 27.9772C34.0025 27.895 34.0914 27.8249 34.2078 27.7667C34.3275 27.7086 34.4644 27.6795 34.6184 27.6795H35.7476L33.5457 30.3741C33.4978 30.4323 33.4516 30.487 33.4071 30.5384C33.366 30.5897 33.325 30.6427 33.2839 30.6975C33.4276 30.6256 33.5816 30.5692 33.7458 30.5281C33.9135 30.487 34.0949 30.4665 34.2899 30.4665ZM32.514 32.7711C32.514 32.9764 32.5414 33.1646 32.5961 33.3357C32.6543 33.5033 32.7381 33.6471 32.8476 33.7668C32.9605 33.8866 33.0991 33.9807 33.2634 34.0491C33.4276 34.1141 33.6175 34.1466 33.8331 34.1466C34.035 34.1466 34.2198 34.1124 34.3874 34.044C34.5585 33.9756 34.7039 33.8797 34.8237 33.7566C34.9469 33.6334 35.0427 33.4897 35.1111 33.3254C35.1796 33.1577 35.2138 32.9764 35.2138 32.7813C35.2138 32.5692 35.1813 32.3793 35.1163 32.2116C35.0512 32.0405 34.9589 31.8968 34.8391 31.7805C34.7193 31.6607 34.5756 31.57 34.4079 31.5084C34.2403 31.4469 34.0555 31.4161 33.8536 31.4161C33.6517 31.4161 33.4687 31.4503 33.3044 31.5187C33.1402 31.5871 32.9982 31.683 32.8784 31.8061C32.7621 31.9259 32.6714 32.0696 32.6064 32.2373C32.5448 32.4015 32.514 32.5795 32.514 32.7711Z" fill="#153150"/>
<path d="M30.0833 39.3418V36.4694H30.506C30.5956 36.4694 30.6544 36.5114 30.6824 36.5953L30.7272 36.8081C30.7776 36.7521 30.8298 36.7008 30.884 36.6541C30.94 36.6075 30.9988 36.5674 31.0604 36.5338C31.1238 36.5002 31.191 36.474 31.2619 36.4554C31.3347 36.4348 31.414 36.4246 31.4999 36.4246C31.6809 36.4246 31.8293 36.474 31.945 36.573C32.0626 36.67 32.1503 36.7997 32.2082 36.9621C32.253 36.8669 32.309 36.7857 32.3762 36.7185C32.4434 36.6495 32.5171 36.5935 32.5974 36.5506C32.6776 36.5076 32.7625 36.4759 32.8521 36.4554C32.9436 36.4348 33.035 36.4246 33.1265 36.4246C33.2851 36.4246 33.426 36.4488 33.5492 36.4974C33.6724 36.5459 33.776 36.6168 33.86 36.7101C33.944 36.8035 34.0074 36.9173 34.0504 37.0517C34.0952 37.1861 34.1176 37.3401 34.1176 37.5136V39.3418H33.426V37.5136C33.426 37.3307 33.3859 37.1935 33.3057 37.1021C33.2254 37.0088 33.1078 36.9621 32.9529 36.9621C32.882 36.9621 32.8157 36.9742 32.7541 36.9985C32.6944 37.0228 32.6412 37.0582 32.5946 37.1049C32.5498 37.1497 32.5143 37.2066 32.4882 37.2757C32.462 37.3447 32.449 37.424 32.449 37.5136V39.3418H31.7547V37.5136C31.7547 37.3214 31.7155 37.1814 31.6371 37.0937C31.5606 37.006 31.4467 36.9621 31.2955 36.9621C31.1966 36.9621 31.1033 36.9873 31.0156 37.0377C30.9297 37.0862 30.8494 37.1534 30.7748 37.2393V39.3418H30.0833ZM36.023 36.4246C36.2376 36.4246 36.4317 36.4591 36.6053 36.5282C36.7808 36.5972 36.9301 36.6952 37.0532 36.8221C37.1764 36.949 37.2716 37.1039 37.3388 37.2869C37.406 37.4698 37.4396 37.6741 37.4396 37.9C37.4396 38.1277 37.406 38.333 37.3388 38.5159C37.2716 38.6988 37.1764 38.8547 37.0532 38.9834C36.9301 39.1122 36.7808 39.2111 36.6053 39.2802C36.4317 39.3493 36.2376 39.3838 36.023 39.3838C35.8083 39.3838 35.6133 39.3493 35.4379 39.2802C35.2624 39.2111 35.1122 39.1122 34.9871 38.9834C34.8639 38.8547 34.7678 38.6988 34.6987 38.5159C34.6316 38.333 34.598 38.1277 34.598 37.9C34.598 37.6741 34.6316 37.4698 34.6987 37.2869C34.7678 37.1039 34.8639 36.949 34.9871 36.8221C35.1122 36.6952 35.2624 36.5972 35.4379 36.5282C35.6133 36.4591 35.8083 36.4246 36.023 36.4246ZM36.023 38.8519C36.2619 38.8519 36.4383 38.7716 36.5521 38.6111C36.6678 38.4506 36.7257 38.2154 36.7257 37.9056C36.7257 37.5958 36.6678 37.3597 36.5521 37.1973C36.4383 37.0349 36.2619 36.9537 36.023 36.9537C35.7803 36.9537 35.6012 37.0358 35.4854 37.2001C35.3697 37.3624 35.3119 37.5976 35.3119 37.9056C35.3119 38.2135 35.3697 38.4487 35.4854 38.6111C35.6012 38.7716 35.7803 38.8519 36.023 38.8519ZM37.814 38.961C37.814 38.9032 37.8242 38.8481 37.8448 38.7959C37.8672 38.7436 37.897 38.6988 37.9343 38.6615C37.9735 38.6242 38.0193 38.5943 38.0715 38.5719C38.1238 38.5495 38.1798 38.5383 38.2395 38.5383C38.2974 38.5383 38.3524 38.5495 38.4047 38.5719C38.4569 38.5943 38.5017 38.6242 38.5391 38.6615C38.5764 38.6988 38.6063 38.7436 38.6287 38.7959C38.6511 38.8481 38.6623 38.9032 38.6623 38.961C38.6623 39.0208 38.6511 39.0768 38.6287 39.129C38.6063 39.1794 38.5764 39.2233 38.5391 39.2606C38.5017 39.2979 38.4569 39.3269 38.4047 39.3474C38.3524 39.3698 38.2974 39.381 38.2395 39.381C38.1798 39.381 38.1238 39.3698 38.0715 39.3474C38.0193 39.3269 37.9735 39.2979 37.9343 39.2606C37.897 39.2233 37.8672 39.1794 37.8448 39.129C37.8242 39.0768 37.814 39.0208 37.814 38.961Z" fill="#153150"/>
</svg>
