<svg width="72" height="78" viewBox="0 0 72 78" fill="none" xmlns="http://www.w3.org/2000/svg">
<path d="M66.7868 53.0855L34.5914 76L2.80676 53.0855V2H66.7868V53.0855Z" fill="#8FB16C" stroke="#FBAE28" stroke-width="2.30247" stroke-miterlimit="10" stroke-linecap="round" stroke-linejoin="round"/>
<path d="M6.42078 51.8535L37.302 74.111L66.787 53.0855V2H6.42078V51.8535Z" fill="#B3DD87"/>
<path opacity="0.4" d="M5.35293 59.9844L1 56.7812" stroke="#B6BFC7" stroke-width="1.69867" stroke-miterlimit="10" stroke-linecap="round" stroke-linejoin="round"/>
<path opacity="0.4" d="M21.2868 71.4827L9.29565 62.7769" stroke="#B6BFC7" stroke-width="1.69867" stroke-miterlimit="10" stroke-linecap="round" stroke-linejoin="round"/>
<path opacity="0.4" d="M70.8933 14.0732V31.5671" stroke="#B6BFC7" stroke-width="1.69867" stroke-miterlimit="10" stroke-linecap="round" stroke-linejoin="round"/>
<path opacity="0.4" d="M70.8933 2V7.66703" stroke="#B6BFC7" stroke-width="1.69867" stroke-miterlimit="10" stroke-linecap="round" stroke-linejoin="round"/>
<path d="M66.7868 53.0855L34.5914 76L2.80676 53.0855V2H66.7868V53.0855Z" stroke="#153150" stroke-width="2.54801" stroke-miterlimit="10" stroke-linecap="round" stroke-linejoin="round"/>
<path opacity="0.2" d="M54.6182 37.7304C54.6405 25.4379 44.6936 15.4548 32.4011 15.4325C20.1087 15.4101 10.1255 25.357 10.1032 37.6495C10.0809 49.942 20.0278 59.9251 32.3202 59.9474C44.6127 59.9698 54.5958 50.0229 54.6182 37.7304Z" fill="black"/>
<path d="M56.6024 33.5277C56.6245 21.3713 46.7877 11.4986 34.6313 11.4765C22.4749 11.4545 12.6023 21.2912 12.5802 33.4476C12.5581 45.604 22.3949 55.4767 34.5513 55.4987C46.7077 55.5208 56.5803 45.684 56.6024 33.5277Z" fill="white" stroke="#153150" stroke-width="1.69867" stroke-miterlimit="10" stroke-linecap="round" stroke-linejoin="round"/>
<path d="M56.849 33.528C56.8713 21.2355 46.9245 11.2524 34.632 11.2301C22.3395 11.2077 12.3564 21.1546 12.334 33.4471C12.3117 45.7396 22.2586 55.7227 34.5511 55.745C46.8435 55.7674 56.8267 45.8205 56.849 33.528Z" fill="white"/>
<path d="M56.6024 33.5277C56.6245 21.3713 46.7877 11.4986 34.6313 11.4765C22.4749 11.4545 12.6023 21.2912 12.5802 33.4476C12.5581 45.604 22.3949 55.4767 34.5513 55.4987C46.7077 55.5208 56.5803 45.684 56.6024 33.5277Z" stroke="#153150" stroke-width="2.39173" stroke-miterlimit="10" stroke-linecap="round" stroke-linejoin="round"/>
<path d="M34.7556 27.7893L36.9731 31.0745L40.669 32.3886" stroke="white" stroke-width="2.30247" stroke-miterlimit="10" stroke-linecap="round" stroke-linejoin="round"/>
</svg>
