<svg width="34" height="34" viewBox="0 0 34 34" fill="none" xmlns="http://www.w3.org/2000/svg">
<path d="M22.5263 3.25366H20.4014C20.003 3.25366 19.7374 3.51927 19.7374 3.91769C19.7374 5.64415 18.3429 7.0386 16.6165 7.0386C14.89 7.0386 13.4955 5.64415 13.4955 3.91769C13.4955 3.51927 13.2299 3.25366 12.8315 3.25366H10.6402C6.98811 3.25366 4 6.24177 4 9.8939V15.0069C4 15.4053 4.26561 15.6709 4.66402 15.6709H7.32012V26.4281C7.32012 28.221 8.78097 29.7482 10.6402 29.7482H22.5263C24.3191 29.7482 25.8464 28.2874 25.8464 26.4281V15.6045H28.3033H28.3697H28.4361C28.8345 15.6045 29.1001 15.3389 29.1001 14.9405V9.8275C29.1001 6.17537 26.1784 3.25366 22.5263 3.25366Z" fill="#25B9E6"/>
<path d="M25.116 12.9485V18.4599H25.78V15.6046H28.2369H28.3033H28.3697C28.7681 15.6046 29.0337 15.339 29.0337 14.9406V12.9485H25.116Z" fill="white"/>
<path opacity="0.4" d="M9.90956 32.9356H9.84316C6.85505 32.6036 4.46457 30.2795 4.06615 27.2914C3.99975 26.9594 4.26536 26.6274 4.59737 26.561C4.92938 26.4945 5.3278 26.7602 5.3278 27.1586C5.65981 29.5491 7.58548 31.4083 9.97597 31.6739C10.308 31.7403 10.5736 32.0724 10.5736 32.4044C10.5072 32.7364 10.2416 32.9356 9.90956 32.9356Z" fill="#B6BFC7"/>
<path opacity="0.4" d="M15.1556 33.0019H12.5659C12.1675 33.0019 11.9019 32.7363 11.9019 32.3379C11.9019 31.9394 12.1675 31.6738 12.5659 31.6738H15.1556C15.554 31.6738 15.8196 31.9394 15.8196 32.3379C15.8196 32.7363 15.554 33.0019 15.1556 33.0019Z" fill="#B6BFC7"/>
<path opacity="0.4" d="M31.2251 7.43691C30.9595 7.43691 30.6939 7.2377 30.6275 6.97209C30.0298 5.24563 28.8346 3.71837 27.2409 2.65593C26.9089 2.45673 26.8425 2.05831 27.0417 1.7263C27.2409 1.39429 27.6394 1.32789 27.9714 1.52709C29.7642 2.72234 31.1587 4.4488 31.8227 6.50728C31.9555 6.83929 31.7563 7.2377 31.4243 7.37051C31.4243 7.43691 31.2915 7.43691 31.2251 7.43691Z" fill="#B6BFC7"/>
<path opacity="0.4" d="M25.7799 1.85927C25.7135 1.85927 25.6471 1.85927 25.5143 1.79287C24.9166 1.59366 24.319 1.39445 23.655 1.32805C23.323 1.26165 23.0574 0.929634 23.0574 0.597622C23.0574 0.26561 23.4558 0 23.7878 0C24.5182 0.132805 25.2487 0.26561 25.9127 0.531219C26.2447 0.664024 26.4439 1.06244 26.3111 1.39445C26.3111 1.66006 26.0455 1.85927 25.7799 1.85927Z" fill="#B6BFC7"/>
<path d="M4 9.8275V14.9405C4 15.3389 4.26561 15.6045 4.66402 15.6045H4.73043H4.79683H7.32012V26.3617C7.32012 28.1546 8.78097 29.6818 10.6402 29.6818H22.5263C24.3191 29.6818 25.8464 28.221 25.8464 26.3617V15.6045H28.5025C28.9009 15.6045 29.1665 15.3389 29.1665 14.9405V9.8275C29.1665 6.17537 26.1784 3.18726 22.5263 3.18726H20.335C19.9366 3.18726 19.671 3.45287 19.671 3.85128C19.671 5.57774 18.2765 6.97219 16.5501 6.97219C14.8236 6.97219 13.4291 5.57774 13.4291 3.85128C13.4291 3.45287 13.1635 3.18726 12.7651 3.18726H10.6402C6.98811 3.25366 4 6.17537 4 9.8275Z" fill="#25B9E6"/>
<path d="M7.98415 12.9485V18.4599H7.32013V15.6046H4.86324H4.79683H4.73043C4.33202 15.6046 4.06641 15.339 4.06641 14.9406V12.9485H7.98415Z" fill="white"/>
<path d="M25.116 12.9485V18.4599H25.78V15.6046H28.2369H28.3033H28.3697C28.7681 15.6046 29.0337 15.339 29.0337 14.9406V12.9485H25.116Z" fill="white"/>
<path d="M20.4015 3.25366C20.0031 3.25366 19.7375 3.51927 19.7375 3.91769C19.7375 5.64415 18.3431 7.0386 16.6166 7.0386C14.8901 7.0386 13.4957 5.64415 13.4957 3.91769C13.4957 3.51927 13.2301 3.25366 12.8317 3.25366H10.6404C10.574 3.25366 10.574 3.25366 10.5076 3.25366C10.5076 3.32006 10.5076 3.45287 10.5076 3.51927C10.5076 6.9058 13.2301 9.6283 16.6166 9.6283C20.0031 9.6283 22.7256 6.9058 22.7256 3.51927C22.7256 3.45287 22.7256 3.32006 22.7256 3.25366C22.6592 3.25366 22.5928 3.25366 22.5264 3.25366H20.4015Z" fill="white"/>
<path d="M16.5499 23.772C19.8505 23.772 22.5262 21.0964 22.5262 17.7958C22.5262 14.4952 19.8505 11.8196 16.5499 11.8196C13.2494 11.8196 10.5737 14.4952 10.5737 17.7958C10.5737 21.0964 13.2494 23.772 16.5499 23.772Z" fill="#0E80C4"/>
<path d="M16.5498 18.128C16.3506 18.128 16.2178 18.0616 16.085 17.9288L14.5577 16.4015L13.2961 17.6632C13.0305 17.9288 12.6321 17.9288 12.3664 17.6632C12.1008 17.3976 12.1008 16.9991 12.3664 16.7335L14.0929 15.0071C14.2257 14.8743 14.3585 14.8079 14.5577 14.8079C14.7569 14.8079 14.8897 14.8743 15.0225 15.0071L16.5498 16.5343L18.0771 15.0071C18.3427 14.7415 18.7411 14.7415 19.0067 15.0071L20.7996 16.7999C21.0652 17.0655 21.0652 17.464 20.7996 17.7296C20.5339 17.9952 20.1355 17.9952 19.8699 17.7296L18.5419 16.4015L17.0146 17.9288C16.8818 18.0616 16.749 18.128 16.5498 18.128Z" fill="white"/>
<path d="M16.5498 21.7802C16.417 21.7802 16.2178 21.7138 16.085 21.581L14.1593 19.8546C13.8937 19.589 13.8937 19.1906 14.0929 18.9249C14.3585 18.6593 14.7569 18.6593 15.0226 18.8585L16.4834 20.1866L18.0107 18.8585C18.2763 18.5929 18.6747 18.6593 18.9403 18.9249C19.2059 19.1906 19.1395 19.589 18.8739 19.8546L16.8818 21.581C16.8818 21.7138 16.749 21.7802 16.5498 21.7802Z" fill="white"/>
<path d="M22.5263 29.6819H10.6402C8.84738 29.6819 7.32012 28.221 7.32012 26.3617V13.6125H4.66402C4.26561 13.6125 4 13.3469 4 12.9484C4 12.55 4.26561 12.2844 4.66402 12.2844H7.98415C8.38256 12.2844 8.64817 12.55 8.64817 12.9484V26.3617C8.64817 27.4242 9.5114 28.3538 10.6402 28.3538H22.5263C23.5887 28.3538 24.5184 27.4906 24.5184 26.3617V12.9484C24.5184 12.55 24.784 12.2844 25.1824 12.2844H28.5025C28.9009 12.2844 29.1665 12.55 29.1665 12.9484C29.1665 13.3469 28.9009 13.6125 28.5025 13.6125H25.8464V26.3617C25.78 28.221 24.3191 29.6819 22.5263 29.6819Z" fill="#153150"/>
<path d="M28.3032 15.6044H25.1823C24.7839 15.6044 24.5183 15.3388 24.5183 14.9404C24.5183 14.542 24.7839 14.2764 25.1823 14.2764H28.3032C28.7017 14.2764 28.9673 14.542 28.9673 14.9404C28.9673 15.3388 28.6353 15.6044 28.3032 15.6044Z" fill="#153150"/>
<path d="M7.98415 15.6044H4.66402C4.26561 15.6044 4 15.3388 4 14.9404C4 14.542 4.26561 14.2764 4.66402 14.2764H7.98415C8.38256 14.2764 8.64817 14.542 8.64817 14.9404C8.64817 15.3388 8.38256 15.6044 7.98415 15.6044Z" fill="#153150"/>
<path d="M28.4361 15.6045C28.0377 15.6045 27.7721 15.3389 27.7721 14.9405V9.8275C27.7721 6.90579 25.3816 4.5153 22.4599 4.5153H20.9326C20.6006 6.64018 18.7413 8.30024 16.5501 8.30024C14.3588 8.30024 12.4331 6.64018 12.1675 4.5153H10.6402C7.71854 4.5153 5.32805 6.90579 5.32805 9.8275V14.9405C5.32805 15.3389 5.06244 15.6045 4.66402 15.6045C4.26561 15.6045 4 15.3389 4 14.9405V9.8275C4 6.17537 6.98811 3.18726 10.6402 3.18726H12.8315C13.2299 3.18726 13.4955 3.45287 13.4955 3.85128C13.4955 5.57774 14.89 6.97219 16.6165 6.97219C18.3429 6.97219 19.7374 5.57774 19.7374 3.85128C19.7374 3.45287 20.003 3.18726 20.4014 3.18726H22.5263C26.1784 3.18726 29.1665 6.17537 29.1665 9.8275V14.9405C29.1001 15.3389 28.8345 15.6045 28.4361 15.6045Z" fill="#153150"/>
<path d="M16.6163 10.4915C12.9642 10.4915 10.0425 7.56982 10.0425 3.91769C10.0425 3.51927 10.3081 3.25366 10.7065 3.25366C11.1049 3.25366 11.3705 3.51927 11.3705 3.91769C11.3705 6.83939 13.761 9.16348 16.6163 9.16348C19.4716 9.16348 21.8621 6.77299 21.8621 3.91769C21.8621 3.51927 22.1277 3.25366 22.5261 3.25366C22.9246 3.25366 23.1902 3.51927 23.1902 3.91769C23.1902 7.50342 20.2021 10.4915 16.6163 10.4915Z" fill="#153150"/>
</svg>
