<svg width="34" height="34" viewBox="0 0 34 34" fill="none" xmlns="http://www.w3.org/2000/svg">
<g clip-path="url(#clip0)">
<path d="M20.9515 29.9004H13.1085C8.29264 29.9004 4.43994 26.0477 4.43994 21.2318V13.3888C4.43994 8.64171 8.29264 4.72021 13.1085 4.72021H20.9515C25.6986 4.72021 29.6201 8.57292 29.6201 13.3888V21.2318C29.6201 26.0477 25.6986 29.9004 20.9515 29.9004Z" fill="#25B9E6"/>
<path d="M20.9515 29.9004H13.1085C8.29264 29.9004 4.43994 26.0477 4.43994 21.2318V13.3888C4.43994 8.64171 8.29264 4.72021 13.1085 4.72021H20.9515C25.6986 4.72021 29.6201 8.57292 29.6201 13.3888V21.2318C29.6201 26.0477 25.6986 29.9004 20.9515 29.9004Z" fill="#E4EDFD"/>
<path d="M17.03 23.5023C20.4496 23.5023 23.2218 20.7302 23.2218 17.3105C23.2218 13.8908 20.4496 11.1187 17.03 11.1187C13.6103 11.1187 10.8381 13.8908 10.8381 17.3105C10.8381 20.7302 13.6103 23.5023 17.03 23.5023Z" fill="#0E80C4"/>
<path d="M17.0302 17.6543C16.8238 17.6543 16.6862 17.5855 16.5486 17.4479L14.9662 15.8655L13.6591 17.1727C13.3839 17.4479 12.9711 17.4479 12.6959 17.1727C12.4207 16.8975 12.4207 16.4847 12.6959 16.2095L14.4847 14.4208C14.6222 14.2832 14.7598 14.2144 14.9662 14.2144C15.1726 14.2144 15.3102 14.2832 15.4478 14.4208L17.0302 16.0031L18.6125 14.4208C18.8877 14.1456 19.3005 14.1456 19.5757 14.4208L21.4333 16.2783C21.7085 16.5535 21.7085 16.9663 21.4333 17.2415C21.1581 17.5167 20.7453 17.5167 20.4701 17.2415L19.0941 15.8655L17.5118 17.4479C17.3742 17.5855 17.2366 17.6543 17.0302 17.6543Z" fill="white"/>
<path d="M17.0298 21.507C16.8922 21.507 16.6858 21.4382 16.5482 21.3006L14.5531 19.5118C14.2779 19.2367 14.2779 18.8239 14.4843 18.5487C14.7595 18.2735 15.1723 18.2735 15.4475 18.4799L16.961 19.8558L18.5434 18.4799C18.8186 18.2047 19.2314 18.2735 19.5065 18.5487C19.7817 18.8239 19.7129 19.2367 19.4377 19.5118L17.3738 21.3006C17.3738 21.4382 17.1674 21.507 17.0298 21.507Z" fill="white"/>
<path d="M20.2637 29.9V23.5705C20.2637 22.057 21.502 20.8186 23.0156 20.8186H29.345H29.5514V21.2314C29.5514 25.9785 25.6987 29.9 20.8829 29.9H20.2637Z" fill="#55B6E2"/>
<path d="M20.3323 30.5882C19.9195 30.5882 19.6443 30.313 19.6443 29.9002V23.5708C19.6443 21.7132 21.1578 20.1309 23.0842 20.1309H29.4136C29.8264 20.1309 30.1016 20.4061 30.1016 20.8188C30.1016 21.2316 29.8264 21.5068 29.4136 21.5068H23.0842C21.9834 21.5068 21.0203 22.4012 21.0203 23.5708V29.9002C21.0203 30.313 20.7451 30.5882 20.3323 30.5882Z" fill="#153150"/>
<path opacity="0.4" d="M1.96313 24.5343C1.61913 24.5343 1.34394 24.3279 1.27514 23.9839C1.06875 23.0895 0.931152 22.1951 0.931152 21.232V20.6128C0.931152 20.2 1.20635 19.9248 1.61913 19.9248C2.03192 19.9248 2.30712 20.2 2.30712 20.6128V21.232C2.30712 22.0575 2.37591 22.8831 2.58231 23.6399C2.65111 23.9839 2.44471 24.3967 2.10072 24.4655C2.10072 24.5343 2.03192 24.5343 1.96313 24.5343Z" fill="#B6BFC7"/>
<path opacity="0.4" d="M7.53608 31.8951C7.39848 31.8951 7.32968 31.8951 7.19209 31.8264C4.92174 30.588 3.06419 28.5928 2.03222 26.1849C1.89462 25.8409 2.03222 25.4281 2.37621 25.2905C2.7202 25.1529 3.13299 25.2905 3.27059 25.6345C4.23376 27.6985 5.81612 29.4872 7.88007 30.6568C8.22406 30.8632 8.36166 31.276 8.15526 31.62C8.01766 31.7576 7.81127 31.8951 7.53608 31.8951Z" fill="#B6BFC7"/>
<path opacity="0.4" d="M32.3723 15.1776C31.9595 15.1776 31.6843 14.9024 31.6843 14.4896V13.3888C31.6843 12.7009 31.6155 11.9441 31.4779 11.2561C31.4091 10.9121 31.6155 10.4993 32.0283 10.4305C32.3723 10.3617 32.785 10.5681 32.8538 10.9809C32.9914 11.7377 33.0602 12.5633 33.0602 13.3888V14.4896C33.0602 14.9024 32.7162 15.1776 32.3723 15.1776Z" fill="#B6BFC7"/>
<path opacity="0.4" d="M31.4089 9.53606C31.1337 9.53606 30.8585 9.39846 30.7897 9.12327C29.8953 7.12812 28.4506 5.47696 26.593 4.3074C26.249 4.101 26.1802 3.68821 26.3866 3.34422C26.593 3.00023 27.0058 2.93143 27.3498 3.13783C29.4825 4.44499 31.1337 6.30254 32.0969 8.57289C32.2345 8.91688 32.0969 9.32967 31.7529 9.46726C31.6153 9.46726 31.4777 9.53606 31.4089 9.53606Z" fill="#B6BFC7"/>
<path d="M20.9518 30.5881H13.1088C7.94889 30.5881 3.7522 26.3914 3.7522 21.2315V13.3885C3.7522 8.22867 7.94889 4.03198 13.1088 4.03198H20.9518C26.1116 4.03198 30.3083 8.22867 30.3083 13.3885V21.2315C30.3083 26.3914 26.1116 30.5881 20.9518 30.5881ZM13.1088 5.40795C8.70567 5.40795 5.12816 8.98545 5.12816 13.3885V21.2315C5.12816 25.6346 8.70567 29.2121 13.1088 29.2121H20.9518C25.3548 29.2121 28.9323 25.6346 28.9323 21.2315V13.3885C28.9323 8.98545 25.3548 5.40795 20.9518 5.40795H13.1088Z" fill="#153150"/>
</g>
<defs>
<clipPath id="clip0">
<rect x="1" y="3" width="32.06" height="28.8953" fill="white"/>
</clipPath>
</defs>
</svg>
