<svg width="71" height="77" viewBox="0 0 71 77" fill="none" xmlns="http://www.w3.org/2000/svg">
<path d="M65.9461 52.3951L34.1622 75L2.78369 52.3951V2H65.9461V52.3951Z" fill="#806BC6" stroke="#FBAE28" stroke-width="2.03937" stroke-miterlimit="10" stroke-linecap="round" stroke-linejoin="round"/>
<path d="M6.35132 51.1798L36.8379 73.1365L65.9461 52.3951V2H6.35132V51.1798Z" fill="#A086F7"/>
<path opacity="0.4" d="M5.2973 59.2008L1 56.041" stroke="#B6BFC7" stroke-width="1.50457" stroke-miterlimit="10" stroke-linecap="round" stroke-linejoin="round"/>
<path opacity="0.4" d="M21.0273 70.5438L9.18945 61.9556" stroke="#B6BFC7" stroke-width="1.50457" stroke-miterlimit="10" stroke-linecap="round" stroke-linejoin="round"/>
<path opacity="0.4" d="M70 13.9099V31.1674" stroke="#B6BFC7" stroke-width="1.50457" stroke-miterlimit="10" stroke-linecap="round" stroke-linejoin="round"/>
<path opacity="0.4" d="M70 2V7.59045" stroke="#B6BFC7" stroke-width="1.50457" stroke-miterlimit="10" stroke-linecap="round" stroke-linejoin="round"/>
<path d="M65.9461 52.3951L34.1622 75L2.78369 52.3951V2H65.9461V52.3951Z" stroke="#153150" stroke-width="2.25685" stroke-miterlimit="10" stroke-linecap="round" stroke-linejoin="round"/>
<path opacity="0.2" d="M53.9331 37.2476C53.9551 25.1213 44.1353 15.273 31.9999 15.251C19.8646 15.229 10.009 25.0414 9.98696 37.1678C9.9649 49.2942 19.7847 59.1424 31.9201 59.1644C44.0555 59.1865 53.911 49.374 53.9331 37.2476Z" fill="black"/>
<path d="M55.8919 33.1016C55.9137 21.1095 46.2027 11.3703 34.2016 11.3485C22.2006 11.3267 12.4541 21.0306 12.4323 33.0227C12.4105 45.0148 22.1216 54.754 34.1226 54.7758C46.1237 54.7976 55.8701 45.0937 55.8919 33.1016Z" fill="white" stroke="#153150" stroke-width="1.50457" stroke-miterlimit="10" stroke-linecap="round" stroke-linejoin="round"/>
<path d="M56.1352 33.1021C56.1573 20.9757 46.3375 11.1275 34.2021 11.1055C22.0667 11.0834 12.2112 20.8959 12.1891 33.0223C12.1671 45.1486 21.9868 54.9969 34.1222 55.0189C46.2576 55.041 56.1131 45.2285 56.1352 33.1021Z" fill="white"/>
<path d="M55.8919 33.1016C55.9137 21.1095 46.2027 11.3703 34.2016 11.3485C22.2006 11.3267 12.4541 21.0306 12.4323 33.0227C12.4105 45.0148 22.1216 54.754 34.1226 54.7758C46.1237 54.7976 55.8701 45.0937 55.8919 33.1016Z" stroke="#153150" stroke-width="2.11843" stroke-miterlimit="10" stroke-linecap="round" stroke-linejoin="round"/>
<path d="M34.3242 27.4409L36.5134 30.6818L40.1621 31.9781" stroke="white" stroke-width="2.03937" stroke-miterlimit="10" stroke-linecap="round" stroke-linejoin="round"/>
<path d="M42.652 46.7251L34.2259 43.3984L25.7997 45.9859L25.8923 37.1145L20.4292 29.7218L28.9479 27.504L34.0407 20.3884L39.1334 27.966L47.7447 30.9231L42.3742 37.8538L42.652 46.7251Z" fill="#A086F7"/>
<path d="M42.652 47.6494C42.5594 47.6494 42.4668 47.6494 42.2816 47.557L34.1332 44.415L26.0775 46.9101C25.7997 47.0025 25.5219 46.9101 25.2441 46.7253C24.9663 46.5405 24.8737 46.2632 24.8737 45.986L24.9663 37.3919L19.6884 30.2764C19.5032 29.9992 19.4106 29.7219 19.5958 29.4447C19.6884 29.1675 19.9662 28.8902 20.244 28.8902L28.4849 26.7648L33.2999 19.9265C33.4851 19.6493 33.7629 19.5569 34.0406 19.5569C34.3184 19.5569 34.5962 19.7417 34.7814 19.9265L39.7815 27.2269L48.0225 30.0916C48.3003 30.184 48.4855 30.4612 48.5781 30.7384C48.6707 31.0157 48.5781 31.2929 48.3929 31.5701L43.2075 38.1312L43.4853 46.7253C43.4853 47.0025 43.3927 47.3721 43.115 47.4645C43.0224 47.6494 42.8372 47.6494 42.652 47.6494ZM34.2258 42.4744C34.3184 42.4744 34.411 42.4744 34.5962 42.5668L41.726 45.3391L41.4482 37.7616C41.4482 37.5767 41.5408 37.2995 41.6334 37.2071L46.1706 31.3853L38.8556 28.8902C38.6704 28.7978 38.4852 28.7054 38.3926 28.5206L33.948 22.0519L29.6887 28.0586C29.5961 28.2434 29.4109 28.3358 29.1331 28.4282L21.9107 30.2764L26.5404 36.5602C26.633 36.7451 26.7256 36.9299 26.7256 37.1147V44.7847L33.948 42.5668C34.0406 42.5668 34.1332 42.4744 34.2258 42.4744Z" fill="#806BC6"/>
<path d="M34.0587 27.5973C34.4009 27.5973 34.7088 27.647 34.9826 27.7462C35.2597 27.842 35.4958 27.9772 35.6909 28.1517C35.8859 28.3228 36.0348 28.5246 36.1374 28.7573C36.2435 28.99 36.2965 29.2415 36.2965 29.5118C36.2965 29.7479 36.2692 29.9567 36.2144 30.138C36.1631 30.316 36.0861 30.4716 35.9834 30.6051C35.8842 30.7385 35.761 30.8515 35.6139 30.9438C35.4702 31.0362 35.3059 31.1132 35.1211 31.1748C35.566 31.3151 35.8979 31.529 36.1169 31.8164C36.3359 32.1038 36.4454 32.4648 36.4454 32.8994C36.4454 33.269 36.3769 33.5957 36.2401 33.8797C36.1032 34.1637 35.9184 34.4033 35.6857 34.5983C35.4531 34.7899 35.1827 34.9354 34.8748 35.0346C34.5702 35.1338 34.2469 35.1834 33.9047 35.1834C33.5317 35.1834 33.2067 35.1407 32.9295 35.0551C32.6523 34.9696 32.4111 34.843 32.2058 34.6753C32.0005 34.5076 31.826 34.3023 31.6823 34.0594C31.5385 33.8164 31.4154 33.5359 31.3127 33.2176L31.8722 32.9867C31.968 32.9456 32.0655 32.9251 32.1647 32.9251C32.2537 32.9251 32.3324 32.9439 32.4008 32.9815C32.4727 33.0192 32.5274 33.0739 32.5651 33.1458C32.6267 33.2655 32.6934 33.3836 32.7652 33.4999C32.8405 33.6163 32.9295 33.7206 33.0321 33.813C33.1348 33.902 33.2546 33.9756 33.3914 34.0337C33.5317 34.0885 33.6977 34.1158 33.8893 34.1158C34.1049 34.1158 34.2931 34.0816 34.4539 34.0132C34.6147 33.9413 34.7482 33.8489 34.8542 33.736C34.9637 33.6231 35.0442 33.4982 35.0955 33.3613C35.1502 33.221 35.1776 33.0808 35.1776 32.9405C35.1776 32.7625 35.1588 32.6017 35.1211 32.458C35.0835 32.3109 35.0048 32.186 34.885 32.0833C34.7653 31.9807 34.5925 31.9002 34.3666 31.8421C34.1442 31.7839 33.8448 31.7548 33.4684 31.7548V30.8515C33.7798 30.848 34.0382 30.819 34.2435 30.7642C34.4488 30.7095 34.6113 30.6342 34.7311 30.5384C34.8542 30.4391 34.9398 30.3211 34.9877 30.1842C35.0356 30.0473 35.0596 29.8968 35.0596 29.7325C35.0596 29.3801 34.9637 29.1149 34.7721 28.937C34.5805 28.7556 34.3187 28.6649 33.9868 28.6649C33.6857 28.6649 33.4359 28.7454 33.2375 28.9062C33.039 29.0636 32.9004 29.2672 32.8217 29.517C32.7806 29.647 32.7242 29.7411 32.6523 29.7993C32.5805 29.854 32.4864 29.8814 32.37 29.8814C32.3153 29.8814 32.2571 29.8763 32.1955 29.866L31.5283 29.7479C31.5796 29.3921 31.6788 29.0807 31.826 28.8138C31.9731 28.5435 32.1562 28.3193 32.3752 28.1414C32.5976 27.9601 32.8508 27.8249 33.1348 27.7359C33.4222 27.6435 33.7302 27.5973 34.0587 27.5973Z" fill="#153150"/>
<path d="M30.0833 39.3416V36.4691H30.506C30.5956 36.4691 30.6544 36.5111 30.6824 36.5951L30.7272 36.8079C30.7776 36.7519 30.8298 36.7006 30.884 36.6539C30.94 36.6072 30.9988 36.5671 31.0604 36.5335C31.1238 36.4999 31.191 36.4738 31.2619 36.4551C31.3347 36.4346 31.414 36.4243 31.4999 36.4243C31.6809 36.4243 31.8293 36.4738 31.945 36.5727C32.0626 36.6698 32.1503 36.7995 32.2082 36.9619C32.253 36.8667 32.309 36.7855 32.3762 36.7183C32.4434 36.6492 32.5171 36.5932 32.5974 36.5503C32.6776 36.5074 32.7625 36.4757 32.8521 36.4551C32.9436 36.4346 33.035 36.4243 33.1265 36.4243C33.2851 36.4243 33.426 36.4486 33.5492 36.4971C33.6724 36.5456 33.776 36.6166 33.86 36.7099C33.944 36.8032 34.0074 36.9171 34.0504 37.0514C34.0952 37.1858 34.1176 37.3398 34.1176 37.5134V39.3416H33.426V37.5134C33.426 37.3305 33.3859 37.1933 33.3057 37.1018C33.2254 37.0085 33.1078 36.9619 32.9529 36.9619C32.882 36.9619 32.8157 36.974 32.7541 36.9983C32.6944 37.0225 32.6412 37.058 32.5946 37.1046C32.5498 37.1494 32.5143 37.2064 32.4882 37.2754C32.462 37.3445 32.449 37.4238 32.449 37.5134V39.3416H31.7547V37.5134C31.7547 37.3211 31.7155 37.1812 31.6371 37.0934C31.5606 37.0057 31.4467 36.9619 31.2955 36.9619C31.1966 36.9619 31.1033 36.9871 31.0156 37.0374C30.9297 37.086 30.8494 37.1532 30.7748 37.239V39.3416H30.0833ZM36.023 36.4243C36.2376 36.4243 36.4317 36.4589 36.6053 36.5279C36.7808 36.597 36.9301 36.695 37.0532 36.8219C37.1764 36.9488 37.2716 37.1037 37.3388 37.2866C37.406 37.4695 37.4396 37.6739 37.4396 37.8997C37.4396 38.1274 37.406 38.3327 37.3388 38.5157C37.2716 38.6986 37.1764 38.8544 37.0532 38.9832C36.9301 39.112 36.7808 39.2109 36.6053 39.28C36.4317 39.349 36.2376 39.3835 36.023 39.3835C35.8083 39.3835 35.6133 39.349 35.4379 39.28C35.2624 39.2109 35.1122 39.112 34.9871 38.9832C34.8639 38.8544 34.7678 38.6986 34.6987 38.5157C34.6316 38.3327 34.598 38.1274 34.598 37.8997C34.598 37.6739 34.6316 37.4695 34.6987 37.2866C34.7678 37.1037 34.8639 36.9488 34.9871 36.8219C35.1122 36.695 35.2624 36.597 35.4379 36.5279C35.6133 36.4589 35.8083 36.4243 36.023 36.4243ZM36.023 38.8516C36.2619 38.8516 36.4383 38.7714 36.5521 38.6108C36.6678 38.4503 36.7257 38.2152 36.7257 37.9053C36.7257 37.5955 36.6678 37.3594 36.5521 37.197C36.4383 37.0346 36.2619 36.9535 36.023 36.9535C35.7803 36.9535 35.6012 37.0356 35.4854 37.1998C35.3697 37.3622 35.3119 37.5974 35.3119 37.9053C35.3119 38.2133 35.3697 38.4485 35.4854 38.6108C35.6012 38.7714 35.7803 38.8516 36.023 38.8516ZM37.814 38.9608C37.814 38.9029 37.8242 38.8479 37.8448 38.7956C37.8672 38.7434 37.897 38.6986 37.9343 38.6612C37.9735 38.6239 38.0193 38.594 38.0715 38.5717C38.1238 38.5493 38.1798 38.5381 38.2395 38.5381C38.2974 38.5381 38.3524 38.5493 38.4047 38.5717C38.4569 38.594 38.5017 38.6239 38.5391 38.6612C38.5764 38.6986 38.6063 38.7434 38.6287 38.7956C38.6511 38.8479 38.6623 38.9029 38.6623 38.9608C38.6623 39.0205 38.6511 39.0765 38.6287 39.1288C38.6063 39.1792 38.5764 39.223 38.5391 39.2604C38.5017 39.2977 38.4569 39.3266 38.4047 39.3472C38.3524 39.3695 38.2974 39.3807 38.2395 39.3807C38.1798 39.3807 38.1238 39.3695 38.0715 39.3472C38.0193 39.3266 37.9735 39.2977 37.9343 39.2604C37.897 39.223 37.8672 39.1792 37.8448 39.1288C37.8242 39.0765 37.814 39.0205 37.814 38.9608Z" fill="#153150"/>
</svg>
