<svg width="71" height="77" viewBox="0 0 71 77" fill="none" xmlns="http://www.w3.org/2000/svg">
<path d="M65.9461 52.3951L34.1623 75L2.78394 52.3951V2H65.9461V52.3951Z" fill="#FFC936" stroke="#FBAE28" stroke-width="2.03937" stroke-miterlimit="10" stroke-linecap="round" stroke-linejoin="round"/>
<path d="M6.35132 51.1798L36.8378 73.1365L65.946 52.3951V2H6.35132V51.1798Z" fill="#FFD168"/>
<path opacity="0.4" d="M5.29729 59.2008L1 56.041" stroke="#B6BFC7" stroke-width="1.50457" stroke-miterlimit="10" stroke-linecap="round" stroke-linejoin="round"/>
<path opacity="0.4" d="M21.0273 70.5437L9.18945 61.9555" stroke="#B6BFC7" stroke-width="1.50457" stroke-miterlimit="10" stroke-linecap="round" stroke-linejoin="round"/>
<path opacity="0.4" d="M70 13.91V31.1675" stroke="#B6BFC7" stroke-width="1.50457" stroke-miterlimit="10" stroke-linecap="round" stroke-linejoin="round"/>
<path opacity="0.4" d="M70 2V7.59045" stroke="#B6BFC7" stroke-width="1.50457" stroke-miterlimit="10" stroke-linecap="round" stroke-linejoin="round"/>
<path d="M65.9461 52.3951L34.1623 75L2.78394 52.3951V2H65.9461V52.3951Z" stroke="#153150" stroke-width="2.25685" stroke-miterlimit="10" stroke-linecap="round" stroke-linejoin="round"/>
<path opacity="0.2" d="M53.9332 37.2475C53.9553 25.1212 44.1355 15.273 32.0001 15.2509C19.8648 15.2289 10.0093 25.0414 9.9872 37.1677C9.96515 49.2941 19.7849 59.1423 31.9203 59.1644C44.0556 59.1864 53.9111 49.3739 53.9332 37.2475Z" fill="black"/>
<path d="M55.8916 33.1016C55.9134 21.1095 46.2023 11.3703 34.2013 11.3485C22.2003 11.3267 12.4539 21.0306 12.4321 33.0227C12.4103 45.0148 22.1213 54.754 34.1223 54.7758C46.1233 54.7976 55.8698 45.0937 55.8916 33.1016Z" fill="white" stroke="#153150" stroke-width="1.50457" stroke-miterlimit="10" stroke-linecap="round" stroke-linejoin="round"/>
<path d="M56.1353 33.1021C56.1574 20.9757 46.3376 11.1275 34.2023 11.1055C22.0669 11.0834 12.2114 20.8959 12.1894 33.0223C12.1673 45.1486 21.9871 54.9969 34.1224 55.0189C46.2578 55.041 56.1133 45.2285 56.1353 33.1021Z" fill="white"/>
<path d="M55.8916 33.1016C55.9134 21.1095 46.2023 11.3703 34.2013 11.3485C22.2003 11.3267 12.4539 21.0306 12.4321 33.0227C12.4103 45.0148 22.1213 54.754 34.1223 54.7758C46.1233 54.7976 55.8698 45.0937 55.8916 33.1016Z" stroke="#153150" stroke-width="2.11843" stroke-miterlimit="10" stroke-linecap="round" stroke-linejoin="round"/>
<path d="M34.3242 27.4409L36.5134 30.6817L40.1621 31.978" stroke="white" stroke-width="2.03937" stroke-miterlimit="10" stroke-linecap="round" stroke-linejoin="round"/>
<path d="M43.5724 25.2703L43.573 25.271C45.809 27.5955 45.809 31.3819 43.573 33.7064L43.5727 33.7067L34.5001 43.1497L25.4275 33.7014L25.427 33.7009C23.191 31.3764 23.191 27.5899 25.427 25.2655L25.4276 25.2648C27.3655 23.2454 30.495 23.2445 32.4392 25.2655L33.9594 26.8464L34.4991 27.4077L35.0397 26.8474L36.56 25.2718L36.5614 25.2703C38.4996 23.2506 41.6342 23.2506 43.5724 25.2703Z" fill="#F170BE" stroke="#D1176F" stroke-width="1.5"/>
<path fill-rule="evenodd" clip-rule="evenodd" d="M35.2291 37.4238C33.3093 36.9329 32.0533 36.5677 31.228 35.7895C30.4027 35.0113 29.9482 33.6704 29.4338 31.5991C28.8716 33.814 28.3992 35.1909 27.3765 36.0529C26.5631 36.7174 25.3909 36.9628 23.6326 37.4118C27.6037 38.4235 28.4171 39.2436 29.4338 43.2185C30.4386 39.2556 31.2579 38.4354 35.2291 37.4238Z" fill="#FFD168"/>
<path d="M29.4219 43.8289C29.1421 43.8377 28.8937 43.6512 28.8238 43.3799C27.8609 39.6145 27.209 38.962 23.4412 37.9923C23.1808 37.9214 23 37.6847 23 37.4146C23 37.1444 23.1808 36.9078 23.4412 36.8369C27.2031 35.8731 27.855 35.2206 28.8238 31.4493C28.8937 31.178 29.1421 30.9914 29.4219 31.0003C29.7016 30.9914 29.9501 31.178 30.02 31.4493C30.9828 35.2146 31.6347 35.8671 35.4026 36.8369C35.663 36.9078 35.8438 37.1444 35.8438 37.4146C35.8438 37.6847 35.663 37.9214 35.4026 37.9923C31.6407 38.9561 30.9888 39.6086 30.02 43.3799C29.9501 43.6512 29.7016 43.8377 29.4219 43.8289ZM25.7139 37.4236C27.5062 37.9315 28.9087 39.3308 29.4219 41.1231C29.9326 39.3247 31.3384 37.9199 33.1359 37.4116C31.3369 36.9022 29.9309 35.4948 29.4219 33.6941C28.9176 35.4979 27.5135 36.9101 25.7139 37.4236Z" fill="#FFBD09"/>
<path fill-rule="evenodd" clip-rule="evenodd" d="M45.3177 26.4542C42.6802 25.7837 42.136 25.2569 41.4602 22.599C41.1372 23.8681 40.892 24.8019 40.3837 25.3527C39.8753 25.9034 38.9722 26.107 37.6086 26.4542C40.2461 27.1306 40.7904 27.6514 41.4602 30.3153C41.7772 29.0761 42.0104 28.1662 42.5008 27.6215C42.9912 27.0767 43.9182 26.8133 45.3177 26.4542Z" fill="#FFD168"/>
<path d="M41.4602 30.9139C41.1805 30.9227 40.932 30.7362 40.8622 30.4649C40.2641 28.0704 39.8634 27.6573 37.4412 27.0348C37.1808 26.9639 37 26.7272 37 26.4571C37 26.1869 37.1808 25.9503 37.4412 25.8794C39.8634 25.2808 40.2462 24.8737 40.8622 22.4493C40.932 22.178 41.1805 21.9914 41.4602 22.0003C41.74 21.9914 41.9885 22.178 42.0583 22.4493C42.6564 24.8737 43.063 25.2568 45.4852 25.8794C45.7457 25.9503 45.9264 26.1869 45.9264 26.4571C45.9264 26.7272 45.7457 26.9639 45.4852 27.0348C43.093 27.6334 42.6743 28.0405 42.0583 30.4649C41.9885 30.7362 41.74 30.9227 41.4602 30.9139ZM39.5285 26.4541C40.408 26.8125 41.1049 27.5122 41.4602 28.3936C41.8173 27.5134 42.5137 26.8142 43.392 26.4541C42.5129 26.0982 41.8158 25.4004 41.4602 24.5205C41.1065 25.4016 40.4087 26.1 39.5285 26.4541Z" fill="#FFBD09"/>
</svg>
