<svg width="71" height="77" viewBox="0 0 71 77" fill="none" xmlns="http://www.w3.org/2000/svg">
<path d="M65.946 52.3951L34.1622 75L2.78381 52.3951V2H65.946V52.3951Z" fill="#FFC936" stroke="#FBAE28" stroke-width="2.03937" stroke-miterlimit="10" stroke-linecap="round" stroke-linejoin="round"/>
<path d="M6.3512 51.1798L36.8377 73.1365L65.9458 52.3951V2H6.3512V51.1798Z" fill="#FFD168"/>
<path opacity="0.4" d="M5.29729 59.2008L1 56.041" stroke="#B6BFC7" stroke-width="1.50457" stroke-miterlimit="10" stroke-linecap="round" stroke-linejoin="round"/>
<path opacity="0.4" d="M21.0273 70.5438L9.18945 61.9556" stroke="#B6BFC7" stroke-width="1.50457" stroke-miterlimit="10" stroke-linecap="round" stroke-linejoin="round"/>
<path opacity="0.4" d="M70 13.9099V31.1674" stroke="#B6BFC7" stroke-width="1.50457" stroke-miterlimit="10" stroke-linecap="round" stroke-linejoin="round"/>
<path opacity="0.4" d="M70 2V7.59045" stroke="#B6BFC7" stroke-width="1.50457" stroke-miterlimit="10" stroke-linecap="round" stroke-linejoin="round"/>
<path d="M65.946 52.3951L34.1622 75L2.78381 52.3951V2H65.946V52.3951Z" stroke="#153150" stroke-width="2.25685" stroke-miterlimit="10" stroke-linecap="round" stroke-linejoin="round"/>
<path opacity="0.2" d="M53.9331 37.2476C53.9551 25.1213 44.1354 15.273 32 15.251C19.8647 15.229 10.0091 25.0414 9.98708 37.1678C9.96502 49.2942 19.7848 59.1424 31.9201 59.1644C44.0555 59.1865 53.911 49.374 53.9331 37.2476Z" fill="black"/>
<path d="M55.8917 33.1016C55.9135 21.1095 46.2024 11.3703 34.2014 11.3485C22.2004 11.3267 12.454 21.0306 12.4322 33.0227C12.4104 45.0148 22.1214 54.754 34.1224 54.7758C46.1235 54.7976 55.8699 45.0937 55.8917 33.1016Z" fill="white" stroke="#153150" stroke-width="1.50457" stroke-miterlimit="10" stroke-linecap="round" stroke-linejoin="round"/>
<path d="M56.1352 33.1021C56.1573 20.9757 46.3375 11.1275 34.2022 11.1055C22.0668 11.0834 12.2113 20.8959 12.1892 33.0223C12.1672 45.1486 21.9869 54.9969 34.1223 55.0189C46.2576 55.041 56.1131 45.2285 56.1352 33.1021Z" fill="white"/>
<path d="M55.8917 33.1016C55.9135 21.1095 46.2024 11.3703 34.2014 11.3485C22.2004 11.3267 12.454 21.0306 12.4322 33.0227C12.4104 45.0148 22.1214 54.754 34.1224 54.7758C46.1235 54.7976 55.8699 45.0937 55.8917 33.1016Z" stroke="#153150" stroke-width="2.11843" stroke-miterlimit="10" stroke-linecap="round" stroke-linejoin="round"/>
<path d="M34.3241 27.4409L36.5133 30.6818L40.1619 31.9781" stroke="white" stroke-width="2.03937" stroke-miterlimit="10" stroke-linecap="round" stroke-linejoin="round"/>
<path d="M43.5724 25.2703L43.573 25.271C45.809 27.5955 45.809 31.3819 43.573 33.7064L43.5727 33.7067L34.5001 43.1497L25.4275 33.7014L25.427 33.7009C23.191 31.3764 23.191 27.5899 25.427 25.2655L25.4276 25.2648C27.3655 23.2454 30.495 23.2445 32.4392 25.2655L33.9594 26.8464L34.4991 27.4077L35.0397 26.8474L36.56 25.2718L36.5614 25.2703C38.4996 23.2506 41.6342 23.2506 43.5724 25.2703Z" fill="#F170BE" stroke="#D1176F" stroke-width="1.5"/>
<path fill-rule="evenodd" clip-rule="evenodd" d="M35.2291 37.4238C33.3093 36.9329 32.0533 36.5677 31.228 35.7895C30.4027 35.0113 29.9482 33.6704 29.4338 31.5991C28.8716 33.814 28.3992 35.1909 27.3765 36.0529C26.5631 36.7174 25.3909 36.9628 23.6326 37.4118C27.6037 38.4235 28.4171 39.2436 29.4338 43.2185C30.4386 39.2556 31.2579 38.4354 35.2291 37.4238Z" fill="#FFD168"/>
<path d="M29.4219 43.8289C29.1421 43.8377 28.8937 43.6512 28.8238 43.3799C27.8609 39.6145 27.209 38.962 23.4412 37.9923C23.1808 37.9214 23 37.6847 23 37.4146C23 37.1444 23.1808 36.9078 23.4412 36.8369C27.2031 35.8731 27.855 35.2206 28.8238 31.4493C28.8937 31.178 29.1421 30.9914 29.4219 31.0003C29.7016 30.9914 29.9501 31.178 30.02 31.4493C30.9828 35.2146 31.6347 35.8671 35.4026 36.8369C35.663 36.9078 35.8438 37.1444 35.8438 37.4146C35.8438 37.6847 35.663 37.9214 35.4026 37.9923C31.6407 38.9561 30.9888 39.6086 30.02 43.3799C29.9501 43.6512 29.7016 43.8377 29.4219 43.8289ZM25.7139 37.4236C27.5062 37.9315 28.9087 39.3308 29.4219 41.1231C29.9326 39.3247 31.3384 37.9199 33.1359 37.4116C31.3369 36.9022 29.9309 35.4948 29.4219 33.6941C28.9176 35.4979 27.5135 36.9101 25.7139 37.4236Z" fill="#FFBD09"/>
<path fill-rule="evenodd" clip-rule="evenodd" d="M45.3178 26.4543C42.6804 25.7838 42.1361 25.257 41.4603 22.5991C41.1374 23.8682 40.8922 24.8021 40.3838 25.3528C39.8754 25.9035 38.9724 26.1071 37.6088 26.4543C40.2462 27.1307 40.7905 27.6515 41.4603 30.3154C41.7773 29.0763 42.0105 28.1664 42.5009 27.6216C42.9914 27.0769 43.9184 26.8135 45.3178 26.4543Z" fill="#FFD168"/>
<path d="M41.4602 30.9139C41.1805 30.9227 40.932 30.7362 40.8622 30.4649C40.2641 28.0704 39.8634 27.6573 37.4412 27.0348C37.1808 26.9639 37 26.7272 37 26.4571C37 26.1869 37.1808 25.9503 37.4412 25.8794C39.8634 25.2808 40.2462 24.8737 40.8622 22.4493C40.932 22.178 41.1805 21.9914 41.4602 22.0003C41.74 21.9914 41.9885 22.178 42.0583 22.4493C42.6564 24.8737 43.063 25.2568 45.4852 25.8794C45.7457 25.9503 45.9264 26.1869 45.9264 26.4571C45.9264 26.7272 45.7457 26.9639 45.4852 27.0348C43.093 27.6334 42.6743 28.0405 42.0583 30.4649C41.9885 30.7362 41.74 30.9227 41.4602 30.9139ZM39.5285 26.4541C40.408 26.8125 41.1049 27.5122 41.4602 28.3936C41.8173 27.5134 42.5137 26.8142 43.392 26.4541C42.5129 26.0982 41.8158 25.4004 41.4602 24.5205C41.1065 25.4016 40.4087 26.1 39.5285 26.4541Z" fill="#FFBD09"/>
</svg>
