<svg width="34" height="34" viewBox="0 0 34 34" fill="none" xmlns="http://www.w3.org/2000/svg">
<g clip-path="url(#clip0)">
<path d="M27.3597 4.98321V12.1839C27.3597 14.8651 27.2065 18.159 26.0575 21.453C25.9809 21.6062 25.9809 21.6828 25.9043 21.836C25.4446 23.0616 24.8318 24.2873 24.0658 25.5129C23.9126 25.7428 23.836 25.896 23.6828 26.1258C22.0741 28.5005 19.6994 30.722 16.2522 32.5605C15.8692 32.3306 15.4862 32.1008 15.1032 31.9476C9.35791 28.5005 6.9066 24.3639 5.91075 20.3805C5.75755 19.8443 5.68094 19.3081 5.52774 18.7718C5.14472 16.7035 5.06812 14.7119 5.06812 12.8734C5.06812 12.567 5.06812 12.3371 5.06812 12.1073V4.98321C10.5836 4.06397 13.9541 2.76171 15.4096 2.14889C15.9458 1.91908 16.2522 1.76587 16.2522 1.76587C16.2522 1.76587 17.9375 2.68511 21.3846 3.60435C22.9167 4.06397 24.985 4.6002 27.3597 4.98321Z" fill="#9282BD"/>
<path d="M17.8611 3.06812C17.8611 3.06812 17.6312 3.22132 17.095 3.45113C15.7928 3.98736 12.652 5.13641 7.59619 5.97905V12.6435C7.59619 12.8734 7.59619 13.1032 7.59619 13.4096C7.59619 15.0949 7.67279 16.9333 7.97921 18.8484C8.05581 19.308 8.20902 19.8443 8.28562 20.3039C9.28147 23.9809 11.503 27.811 16.712 30.8752C16.8652 30.9518 17.095 31.105 17.2482 31.1816C20.0826 29.4963 22.1508 27.5046 23.6063 25.3597C23.7595 25.1299 23.9127 24.9767 23.9893 24.7469C24.7554 23.5212 25.3682 22.2956 25.8278 21.0699C25.9044 20.9167 25.9044 20.8401 25.981 20.6869C27.1301 17.393 27.2833 14.099 27.2833 11.4179V5.90244C25.4448 5.59603 23.8361 5.21301 22.5339 4.82999C19.3931 3.91075 17.8611 3.06812 17.8611 3.06812Z" fill="#A494C7"/>
<path opacity="0.4" d="M4.5319 25.4365C4.22549 24.9003 3.99568 24.2874 3.76587 23.7512" stroke="#B6BFC7" stroke-width="1.53207" stroke-miterlimit="10" stroke-linecap="round" stroke-linejoin="round"/>
<path opacity="0.4" d="M10.7366 32.6371C8.89816 31.2582 7.4427 29.7262 6.21704 28.1941" stroke="#B6BFC7" stroke-width="1.53207" stroke-miterlimit="10" stroke-linecap="round" stroke-linejoin="round"/>
<path opacity="0.4" d="M30.4239 9.42627V12.1074C30.4239 13.4863 30.3473 14.9417 30.1941 16.5504" stroke="#B6BFC7" stroke-width="1.53207" stroke-miterlimit="10" stroke-linecap="round" stroke-linejoin="round"/>
<path opacity="0.4" d="M30.4241 3.83423V6.36214" stroke="#B6BFC7" stroke-width="1.53207" stroke-miterlimit="10" stroke-linecap="round" stroke-linejoin="round"/>
<path d="M27.3598 12.1073C27.3598 18.0824 26.5171 26.8918 16.2523 32.4072C5.22138 26.7386 5.14478 18.0824 5.14478 12.1073V4.90661C12.6519 3.68096 16.2523 1.76587 16.2523 1.76587C16.2523 1.76587 20.0058 3.75756 27.3598 4.98321V12.1073Z" stroke="#3E3266" stroke-width="1.53207" stroke-miterlimit="10" stroke-linecap="round" stroke-linejoin="round"/>
<path d="M20.5421 22.7551L16.2523 21.0698L11.8859 22.3721L11.9625 17.7759L9.12817 13.9457L13.4946 12.8733L16.0991 9.19629L18.7802 13.1031L23.2232 14.6351L20.4655 18.1589L20.5421 22.7551Z" stroke="white" stroke-width="1.53207" stroke-miterlimit="10" stroke-linecap="round" stroke-linejoin="round"/>
</g>
<defs>
<clipPath id="clip0">
<rect x="3" y="1" width="28.1901" height="32.4033" fill="white"/>
</clipPath>
</defs>
</svg>
