<svg width="300" height="274" viewBox="0 0 300 274" fill="none" xmlns="http://www.w3.org/2000/svg">
<path d="M70.0968 96.2072C70.0968 96.2072 45.1678 82.0373 49.6199 54.7549C54.072 27.4725 56.6335 14.8857 43.5179 13.9339C30.4023 12.982 27.4641 47.7907 34.1741 68.8788C40.8841 89.9669 53.1074 103.215 64.2266 108.966" fill="white"/>
<path d="M64.0783 111.015C63.6684 110.985 63.6684 110.985 63.2585 110.956C49.7396 104.206 38.4551 89.3783 32.0359 69.9594C27.0778 53.1187 26.9916 25.919 35.1426 15.7979C37.4298 12.6677 40.4179 11.2365 43.6968 11.4744C47.7954 11.7719 50.5752 13.2097 52.4758 15.4078C56.9777 21.5028 55.2954 33.3294 51.8183 52.8541L51.6993 54.4936C47.3662 80.1365 71.0954 93.8073 71.0954 93.8073C71.8854 94.2766 72.6159 95.5657 71.7069 96.7358C71.2376 97.5258 69.9485 98.2563 68.7784 97.3473C68.3685 97.3176 42.6792 82.2685 47.2206 53.7565L47.3396 52.117C50.2878 34.202 52.38 22.4052 48.6086 17.5992C47.8483 16.72 45.8288 16.1614 42.9597 15.9532C41.3203 15.8342 39.6213 16.535 38.243 18.4951C31.8802 26.6858 30.4757 51.7172 36.2535 68.6174C42.3223 87.1869 52.8466 101.135 65.1657 107.386C66.3655 107.885 66.6862 109.144 66.2168 109.934C65.7475 110.724 64.898 111.074 64.0783 111.015Z" fill="#153150"/>
<path d="M125.076 229.984C118.869 230.358 107.012 229.085 100.835 229.049C90.1186 229.095 93.9959 243.798 113.788 243.586C119.966 243.622 128.722 242.198 132.999 240.036C136.017 238.195 138.572 231.376 125.076 229.984Z" fill="white"/>
<path d="M110.361 245.396C101.754 244.771 96.6633 241.105 94.442 237.648C92.9811 235.07 92.7497 232.581 94.128 230.621C95.0369 229.451 96.8549 227.111 101.363 227.438C103.823 227.616 107.541 227.474 111.23 227.742C116.558 228.129 121.886 228.515 125.605 228.373L126.015 228.403C135.002 229.467 137.633 232.954 137.864 235.443C138.476 238.372 136.628 241.122 134.49 242.203C129.803 244.335 121.047 245.759 114.459 245.693C112.82 245.574 111.59 245.485 110.361 245.396ZM125.337 232.062C121.619 232.204 115.881 231.788 110.523 231.811C106.834 231.543 103.555 231.305 101.066 231.536C99.4265 231.417 98.1374 232.148 97.668 232.938C97.1987 233.728 97.5193 234.987 98.2795 235.866C100.121 238.884 105.241 242.14 114.347 241.565C120.525 241.601 128.871 240.147 132.708 238.365C133.148 237.985 134.057 236.815 134.116 235.995C133.006 234.266 130.665 232.449 125.337 232.062Z" fill="#153150"/>
<path d="M132.38 191.784C130.116 200.272 127.608 217.807 123.787 230.714C123.139 233.963 129.988 236.109 130.636 232.859C130.636 232.859 140.505 204.734 142.829 195.426C145.152 186.118 134.264 182.856 132.38 191.784Z" fill="#FFD168"/>
<path d="M127.908 236.37C126.269 236.251 124.659 235.723 123.519 234.404C122.379 233.085 121.648 231.796 122.177 230.186C124.411 222.108 126.355 212.36 127.799 203.813C129.006 198.544 129.713 194.475 130.39 190.816C131.627 185.137 135.874 183.385 139.503 184.473C143.133 185.56 146.554 189.517 145.288 195.605C142.964 204.913 133.594 231.839 133.095 233.039C133.005 234.268 131.686 235.408 130.427 235.729C129.138 236.46 128.318 236.4 127.908 236.37ZM134.4 192.343C133.752 195.592 132.605 200.041 131.838 204.93C129.984 213.448 128.45 223.225 125.806 231.274C125.806 231.274 125.777 231.683 126.186 231.713C127.386 232.212 128.206 232.272 128.616 232.301C128.646 231.892 138.485 204.176 140.809 194.868C141.487 191.209 139.996 189.041 138.386 188.512C137.157 188.423 135.048 189.094 134.4 192.343Z" fill="#153150"/>
<path d="M168.247 242.593C172.957 245.819 182.936 250.252 187.997 254.327C197.328 262.009 186.777 271.132 169.487 259.576C164.367 256.321 160.797 254.413 157.845 249.667C154.864 245.33 155.928 236.343 168.247 242.593Z" fill="white"/>
<path d="M182.976 266.737C178.877 266.439 173.638 264.823 168.168 260.718L165.798 259.31C161.878 256.553 158.308 254.646 155.737 250.339C153.895 247.321 153.373 243.163 156.041 240.472C157.829 238.542 161.666 236.761 169.216 240.605C169.216 240.605 169.216 240.605 169.626 240.634C171.586 242.013 174.746 243.89 177.935 245.358C182.295 247.734 186.655 250.111 189.375 252.368C194.436 256.444 194.109 260.952 192.7 263.322C190.443 266.042 187.485 267.064 182.976 266.737ZM161.66 242.528C160.43 242.439 159.581 242.79 159.141 243.17C158.232 244.34 158.463 246.829 159.194 248.118C161.415 251.575 164.165 253.423 168.115 255.77L170.485 257.178C180.315 263.659 187.372 262.935 189.19 260.595C190.099 259.425 189.018 257.287 186.678 255.469C183.958 253.211 179.978 251.274 176.028 248.927C172.868 247.05 169.269 245.553 167.338 243.765C164.909 243.176 162.889 242.618 161.66 242.528Z" fill="#153150"/>
<path d="M169.404 203.947C167.11 212.845 165.831 230.469 162.8 243.846C162.182 246.685 169.031 248.831 169.649 245.991C169.649 245.991 177.938 216.927 180.232 208.029C182.526 199.131 171.668 195.459 169.404 203.947Z" fill="#FFD168"/>
<path d="M166.922 249.501C165.283 249.382 163.263 248.823 162.123 247.505C160.982 246.186 160.662 244.926 160.751 243.697C162.486 236.818 163.521 228.241 164.466 220.893C165.352 214.365 166.208 208.247 167.355 203.798C168.003 200.549 170.23 198.238 172.749 197.597C175.268 196.956 177.697 197.544 179.627 199.332C181.938 201.56 182.93 204.928 181.842 208.557C179.519 217.865 171.669 246.549 171.229 246.929C171.14 248.159 169.821 249.299 168.562 249.62C168.152 249.59 167.742 249.56 166.922 249.501ZM164.82 244.404C164.82 244.404 165.2 244.844 165.99 245.313C166.78 245.782 167.629 245.432 167.629 245.432C167.629 245.432 175.889 216.778 177.803 207.44C178.391 205.011 178.1 203.342 176.55 201.993C175.79 201.114 174.56 201.025 173.711 201.375C172.452 201.696 171.543 202.866 170.984 204.885C169.867 208.924 169.011 215.043 168.125 221.571C167.619 228.538 166.585 237.116 164.82 244.404Z" fill="#153150"/>
<path d="M91.1153 22.331C92.9398 14.223 100.235 10.2201 108.782 11.6645C138.084 16.6752 240.412 43.0545 280.773 54.6361C288.032 56.811 293.704 63.815 291.38 73.1229C289.615 80.4112 284.38 101.456 284.38 101.456L284.41 101.047L273.112 148.845L70.6194 100.364L91.1153 22.331Z" fill="#0DBAEC"/>
<path d="M284.106 110.913L280.067 109.796L288.981 72.1248C290.835 63.6069 285.894 57.892 279.835 56.2162C242.283 45.6625 138.375 18.3445 108.224 13.6842C100.496 12.2993 94.4604 15.9815 92.7252 22.86C92.6359 24.0896 91.3469 24.8201 90.147 24.321C88.9174 24.2317 88.1869 22.9426 88.686 21.7428C90.9799 12.8448 99.1837 7.67184 108.521 9.58557C139.463 14.7152 243.37 42.0332 280.952 52.1771C289.03 54.4114 295.463 62.2946 293.02 73.242L284.106 110.913ZM276.024 86.0173C274.414 85.4885 274.064 84.639 274.153 83.4094L275.241 79.7801C276.447 74.5114 273.145 68.9154 267.496 67.2694C230.473 55.106 153.17 35.8991 111.691 28.3566C108.032 27.6791 104.605 29.4904 103.957 32.7396L102.661 39.2379C102.572 40.4675 101.283 41.198 100.083 40.6989C98.8534 40.6097 98.1229 39.3206 98.622 38.1208L100.328 31.6522C101.534 26.3834 107.13 23.0813 112.838 23.9076C154.317 31.4501 232.029 50.6867 269.053 62.8501C276.691 65.4646 281.104 72.7892 279.309 80.4874L278.222 84.1167C278.133 85.3463 277.254 86.1065 276.024 86.0173Z" fill="#153150"/>
<path opacity="0.1" d="M102.347 32.2121C102.347 32.2121 224.258 61.2487 276.916 73.7227C283.765 75.8678 288.855 79.5334 285.355 93.7002C285.355 93.7002 286.769 85.5624 266.894 81.2359C247.019 76.9093 102.192 40.0292 102.192 40.0292C84.6633 31.7528 89.803 17.705 107.302 26.3913C102.056 30.5429 102.347 32.2121 102.347 32.2121Z" fill="#153150"/>
<path d="M273.231 147.207C281.541 151.93 286.152 139.492 289.652 125.326C291.447 117.627 288.703 110.012 283.292 105.087L273.231 147.207Z" fill="#0D88CA"/>
<path d="M275.892 150.284C274.662 150.195 273.463 149.696 272.263 149.197C271.473 148.728 271.122 147.878 271.182 147.058L281.243 104.938C281.303 104.118 281.742 103.738 282.592 103.388C283.441 103.038 284.231 103.507 284.611 103.947C290.782 109.751 293.466 118.186 291.642 126.294C288.142 140.461 284.298 148.01 279.611 150.142C278.791 150.083 277.532 150.403 275.892 150.284ZM275.37 146.126C276.599 146.215 277.009 146.245 277.859 145.895C281.257 144.493 284.661 137.324 287.633 124.767C288.839 119.498 287.616 113.641 284.225 109.275L275.37 146.126Z" fill="#153150"/>
<path d="M239.002 227.126C176.739 216.427 126.6 203.312 67.0107 184.154C58.5523 181.481 55.4585 173.016 56.3442 166.487C63.305 121.67 73.8718 72.5823 91.1452 21.921C88.7919 31.6388 94.9035 38.2626 101.752 40.4078C159.88 56.987 216.547 70.988 273.743 83.3794C277.782 84.4965 280.913 86.7838 282.724 90.2115C284.565 93.2292 285.497 97.4171 284.38 101.456C284.38 101.456 264.079 188.156 256.639 216.869C254.464 224.128 247.549 228.57 239.002 227.126Z" fill="#0DBAEC"/>
<path d="M240.902 229.326C240.083 229.266 239.673 229.236 238.853 229.177C181.039 219.625 131.28 206.949 66.8619 186.205C57.2037 183.032 53.7594 173.718 54.7047 166.37C62.6107 114.205 73.8783 66.816 89.1553 20.9541C89.6544 19.7542 90.5039 19.4039 91.7335 19.4931C92.9333 19.9922 93.2837 20.8417 93.1945 22.0713C91.3402 30.5892 96.6916 36.3338 102.34 37.9799C160.469 54.5591 216.726 68.5304 273.922 80.9217C278.371 82.0687 281.881 84.7955 284.482 88.6925C286.674 92.5598 287.576 97.1575 286.459 101.197C286.4 102.016 266.128 188.306 258.718 216.61C256.454 225.098 249.509 229.95 240.902 229.326ZM89.5818 32.1097C75.8021 74.372 65.5624 118.951 58.3637 167.048C57.5375 172.756 59.9008 179.932 67.5395 182.546C131.548 203.26 181.336 215.526 239.15 225.078C246.468 226.433 252.504 222.751 254.649 215.903C262.06 187.599 281.921 101.279 282.39 100.489C283.038 97.2402 282.456 93.9018 281.025 90.9138C279.184 87.896 276.434 86.0483 273.214 84.9906C216.018 72.5993 159.761 58.628 101.223 42.019C96.3644 40.8423 91.684 37.2065 89.5818 32.1097Z" fill="#153150"/>
<path d="M239.388 221.8C238.568 221.74 238.159 221.71 237.339 221.651C236.109 221.562 235.379 220.273 235.878 219.073C235.967 217.843 237.256 217.113 238.456 217.612C240.476 218.17 242.555 217.909 244.283 216.799C246.012 215.688 247.361 214.138 247.509 212.088C247.599 210.859 248.888 210.128 250.088 210.627C251.317 210.717 252.048 212.006 251.549 213.206C250.901 216.455 249.083 218.795 246.505 220.256C243.956 221.307 241.847 221.978 239.388 221.8ZM275.974 103.732C275.564 103.702 275.564 103.702 275.974 103.732C274.365 103.203 274.014 102.354 274.103 101.124C275.221 97.0851 272.649 92.7782 268.58 92.0709C267.351 91.9817 266.62 90.6926 267.119 89.4927C267.208 88.2631 268.468 87.9425 269.697 88.0317C275.756 89.7075 279.848 95.7728 278.143 102.241C277.673 103.031 276.794 103.792 275.974 103.732Z" fill="#153150"/>
<path opacity="0.1" d="M271.06 177.127C265.795 198.582 192.839 193.288 202.252 154.417C212.813 111.096 265.242 143.743 280.503 137.846C280.503 137.846 273.912 166.209 271.06 177.127Z" fill="#153150"/>
<path d="M254.92 183.784L234.195 179.808C206.972 174.536 216.653 131.976 244.286 137.278L265.01 141.254C275.988 143.286 286.799 136.243 289.272 124.885L289.361 123.656L279.591 167.445C276.708 178.773 265.897 185.816 254.92 183.784Z" fill="#0DBAEC"/>
<path d="M257.23 186.012C256.41 185.953 255.591 185.893 254.361 185.804L233.636 181.828C218.62 178.678 214.184 165.995 216.217 155.018C218.749 142.841 228.979 132.459 244.405 135.639L265.13 139.615C274.877 141.558 284.839 134.865 287.222 124.737L287.312 123.508C287.401 122.278 288.69 121.548 289.89 122.047C291.119 122.136 291.85 123.425 291.351 124.625L280.791 167.945C278.728 179.332 268.296 186.815 257.23 186.012ZM241.298 138.71C230.232 137.906 222.639 146.008 220.726 155.345C218.812 164.683 222.606 174.847 234.783 177.379L255.508 181.355C265.255 183.299 275.218 176.605 277.601 166.478L284.691 136.914C279.386 141.886 272.21 144.249 264.921 142.484L244.197 138.508C242.937 138.828 242.118 138.769 241.298 138.71Z" fill="#153150"/>
<path d="M250.818 160.825C254.318 146.658 233.593 142.682 230.093 156.849C226.623 170.606 247.347 174.582 250.818 160.825Z" fill="#FFD168"/>
<path d="M238.918 171.499C236.049 171.291 233.24 170.263 230.929 168.035C227.858 164.928 226.516 160.71 227.663 156.261C228.84 151.402 231.977 147.922 236.604 146.609C241.232 145.297 246.091 146.474 249.161 149.581C252.232 152.688 253.574 156.906 252.427 161.355C251.25 166.213 248.114 169.694 243.486 171.006C242.227 171.327 240.558 171.618 238.918 171.499ZM241.314 149.835C240.085 149.746 239.265 149.687 238.006 150.007C235.048 151.029 232.82 153.339 232.172 156.588C231.055 160.627 232.516 163.206 234.066 164.554C236.376 166.782 239.626 167.43 242.584 166.408C245.542 165.387 247.77 163.077 248.418 159.827C249.535 155.788 248.074 153.21 246.524 151.862C245.354 150.953 243.364 149.984 241.314 149.835Z" fill="#153150"/>
<path d="M270.977 172.588C269.368 172.059 269.017 171.21 269.107 169.98L273.165 153.794C273.255 152.564 274.544 151.834 275.744 152.333C276.973 152.422 277.704 153.711 277.205 154.911L273.146 171.097C273.086 171.917 272.207 172.677 270.977 172.588Z" fill="#153150"/>
<path d="M134.706 102.957C134.297 102.927 133.477 102.867 133.097 102.428C132.336 101.548 132.426 100.319 133.305 99.5587C137.261 96.1376 142.709 94.8848 147.538 96.4714C148.738 96.9705 149.498 97.8497 148.999 99.0495C148.5 100.249 147.62 101.01 146.421 100.511C142.791 99.4231 139.013 100.385 135.966 102.636C135.966 102.636 135.116 102.986 134.706 102.957Z" fill="#153150"/>
<path d="M149.942 112.221C150.966 108.737 148.972 105.083 145.488 104.059C142.004 103.034 138.35 105.029 137.325 108.513C136.302 111.997 138.296 115.651 141.779 116.675C145.263 117.699 148.918 115.705 149.942 112.221Z" fill="#1E324D"/>
<path d="M143.033 118.806C142.623 118.776 141.804 118.716 141.394 118.687C139.374 118.128 137.414 116.75 136.333 114.611C135.252 112.473 134.991 110.394 135.579 107.964C136.138 105.945 137.516 103.984 139.655 102.904C141.793 101.823 143.873 101.562 146.302 102.15C148.322 102.709 150.282 104.087 151.363 106.225C152.443 108.364 152.705 110.443 152.116 112.872C150.589 116.882 146.722 119.073 143.033 118.806ZM143.955 106.1C143.135 106.04 142.286 106.391 141.437 106.741C140.587 107.091 139.678 108.262 139.179 109.461C138.68 110.661 139.03 111.511 139.351 112.77C139.701 113.62 140.871 114.529 142.071 115.028C144.501 115.616 146.639 114.535 147.228 112.106C147.727 110.906 147.376 110.056 147.056 108.797C146.735 107.538 145.535 107.039 144.335 106.539C144.365 106.13 143.955 106.1 143.955 106.1Z" fill="#153150"/>
<path d="M144.677 108.525C145.061 107.218 144.313 105.848 143.007 105.464C141.7 105.08 140.33 105.828 139.946 107.134C139.562 108.441 140.31 109.811 141.616 110.195C142.923 110.579 144.293 109.831 144.677 108.525Z" fill="white"/>
<path d="M209.282 125.674C208.463 125.614 207.673 125.145 207.352 123.885C206.39 120.107 204.139 117.06 200.51 115.973C199.31 115.473 198.989 114.214 199.049 113.394C199.548 112.194 200.807 111.874 201.627 111.933C206.427 113.93 210.257 117.916 211.13 122.924C211.451 124.183 210.542 125.353 209.312 125.264C209.692 125.703 209.282 125.674 209.282 125.674Z" fill="#153150"/>
<path d="M202.747 127.987C203.771 124.504 201.777 120.849 198.293 119.825C194.809 118.801 191.155 120.795 190.131 124.279C189.107 127.763 191.101 131.417 194.585 132.442C198.069 133.465 201.724 131.471 202.747 127.987Z" fill="#1E324D"/>
<path d="M195.863 134.588C195.453 134.558 194.633 134.498 194.223 134.469C192.204 133.91 190.244 132.532 189.163 130.393C188.082 128.255 187.821 126.176 188.409 123.746C189.556 119.297 194.273 116.755 199.132 117.932C201.151 118.491 203.111 119.869 204.192 122.007C205.273 124.146 205.534 126.225 204.946 128.654C204.387 130.674 203.009 132.634 200.87 133.715C199.171 134.416 197.502 134.707 195.863 134.588ZM196.785 121.882C194.736 121.733 193.007 122.844 192.448 124.863C191.949 126.063 192.3 126.913 192.62 128.172C192.941 129.431 194.141 129.93 195.34 130.43C196.54 130.929 197.39 130.578 198.649 130.258C199.908 129.937 200.408 128.737 200.907 127.537C201.406 126.337 201.055 125.488 200.735 124.229C199.975 123.349 199.214 122.47 198.014 121.971C197.605 121.941 197.195 121.912 196.785 121.882Z" fill="#153150"/>
<path d="M197.992 124.012C198.376 122.706 197.628 121.336 196.321 120.951C195.015 120.568 193.645 121.315 193.26 122.622C192.877 123.928 193.624 125.299 194.931 125.683C196.237 126.067 197.608 125.319 197.992 124.012Z" fill="white"/>
<path d="M187.95 141.43C187.92 141.84 182.81 155.478 169.866 157.835C166.938 158.446 163.659 158.208 160.41 157.56C160 157.531 159.59 157.501 159.18 157.471C155.931 156.823 153.561 155.415 151.191 154.007C138.201 145.648 141.41 129.812 141.41 129.812L187.95 141.43Z" fill="#1E324D"/>
<path d="M163.95 159.876C162.72 159.787 161.081 159.668 159.881 159.169C159.471 159.139 159.061 159.109 158.681 158.67C155.432 158.022 152.652 156.584 150.282 155.176C136.502 146.347 139.391 129.252 139.451 128.432C139.48 128.022 139.95 127.232 140.389 126.852C140.829 126.472 141.649 126.532 142.058 126.561L188.568 138.589C188.978 138.619 189.768 139.088 189.738 139.498C190.118 139.938 190.059 140.758 190.029 141.167C189.97 141.987 184.8 156.445 170.627 158.712C168.459 160.203 166.409 160.054 163.95 159.876ZM143.311 132.009C142.984 136.517 143.5 146.443 152.16 152.016C154.12 153.394 156.52 154.392 159.359 155.011C159.769 155.04 160.179 155.07 160.588 155.1C163.838 155.748 166.707 155.956 169.635 155.344C178.391 153.92 183.055 146.43 184.992 142.45L143.311 132.009Z" fill="#153150"/>
<path d="M173.152 152.304C172.183 154.294 171.245 155.874 169.866 157.834C166.938 158.446 163.659 158.208 160.41 157.56C160 157.53 159.59 157.501 159.18 157.471C155.931 156.823 153.561 155.415 151.191 154.007C153.859 151.316 156.146 148.186 158.053 144.616C160.43 140.257 165.467 138.974 169.447 140.911C173.836 142.878 175.528 147.945 173.152 152.304Z" fill="#5BBAE6"/>
<path d="M163.95 159.878C162.72 159.789 161.081 159.67 159.881 159.171C159.471 159.141 159.061 159.111 158.681 158.672C155.432 158.024 152.652 156.586 150.282 155.178C149.902 154.738 149.522 154.299 149.171 153.449C149.231 152.629 149.261 152.22 149.7 151.839C152.368 149.149 154.655 146.019 156.122 142.829C158.968 137.679 165.295 135.666 170.474 138.102C175.654 140.538 177.637 147.275 175.201 152.454C174.233 154.444 172.854 156.404 171.886 158.394C171.446 158.774 171.007 159.154 170.597 159.124C168.458 160.205 166.409 160.056 163.95 159.878ZM154.559 153.016C156.139 153.955 157.749 154.484 159.798 154.632C160.208 154.662 160.618 154.692 161.028 154.722C163.867 155.34 166.736 155.548 168.815 155.287C169.754 153.707 170.663 152.537 171.601 150.957C172.54 149.377 172.659 147.737 171.958 146.038C171.258 144.339 170.527 143.05 168.947 142.112C165.758 140.644 161.98 141.606 160.512 144.796C158.635 147.956 156.787 150.706 154.559 153.016Z" fill="#153150"/>
<path d="M160.291 159.2C159.881 159.17 159.471 159.141 159.091 158.701C158.331 157.822 158.01 156.562 158.889 155.802C160.268 153.842 161.236 151.852 162.204 149.862C162.704 148.663 163.963 148.342 165.163 148.841C166.363 149.34 166.683 150.6 166.184 151.799C165.156 154.609 163.778 156.569 161.96 158.909C161.96 158.909 161.11 159.26 160.291 159.2Z" fill="#153150"/>
<path d="M64.4247 38.1117C63.1951 38.0225 62.4646 36.7334 62.5539 35.5038C67.8489 13.6389 59.278 6.83654 59.3078 6.42667C58.5178 5.95732 58.6071 4.72773 59.0764 3.93775C59.9556 3.17751 61.215 2.85688 61.9752 3.7361C62.3553 4.17571 72.4764 12.3266 66.593 36.621C66.5038 37.8506 65.6543 38.201 64.4247 38.1117Z" fill="#153150"/>
<path d="M75.1769 31.8868C73.9474 31.7976 73.2169 30.5085 73.3061 29.2789C76.3073 16.312 73.6762 12.8248 73.6762 12.8248C72.9159 11.9456 73.0052 10.716 73.8844 9.9558C74.7636 9.19556 75.9932 9.2848 76.7534 10.164C77.5137 11.0432 80.905 15.4096 77.3452 30.3961C77.2858 31.2158 75.9967 31.9463 75.1769 31.8868Z" fill="#153150"/>
<path d="M18.6454 27.3728C17.4158 27.2836 16.6556 26.4043 16.7448 25.1747C18.2553 10.0395 23.0315 6.67795 23.8809 6.32758C24.7304 5.9772 25.96 6.06644 26.6905 7.35552C27.0706 7.79513 26.9814 9.02472 25.6923 9.75521C25.6923 9.75521 21.7656 12.7664 20.8435 25.4722C20.7542 26.7018 19.875 27.462 18.6454 27.3728Z" fill="#153150"/>
<path d="M116.846 166.594L96.8571 174.036L83.4817 157.654L90.6145 131.034L123.978 139.974L116.846 166.594Z" fill="#FFC936" stroke="#FBAE28" stroke-width="1.11525" stroke-miterlimit="10" stroke-linecap="round" stroke-linejoin="round"/>
<path d="M85.538 157.517L98.5341 173.43L116.845 166.594L123.978 139.974L92.4988 131.539L85.538 157.517Z" fill="#FFD168"/>
<path opacity="0.4" d="M83.8459 161.605L82.0232 159.327" stroke="#B6BFC7" stroke-width="0.822789" stroke-miterlimit="10" stroke-linecap="round" stroke-linejoin="round"/>
<path opacity="0.4" d="M90.5497 169.823L85.5122 163.611" stroke="#B6BFC7" stroke-width="0.822789" stroke-miterlimit="10" stroke-linecap="round" stroke-linejoin="round"/>
<path opacity="0.4" d="M124.434 146.839L121.991 155.955" stroke="#B6BFC7" stroke-width="0.822789" stroke-miterlimit="10" stroke-linecap="round" stroke-linejoin="round"/>
<path opacity="0.4" d="M126.12 140.548L125.328 143.501" stroke="#B6BFC7" stroke-width="0.822789" stroke-miterlimit="10" stroke-linecap="round" stroke-linejoin="round"/>
<path d="M116.846 166.594L96.8571 174.036L83.4817 157.654L90.6145 131.034L123.978 139.974L116.846 166.594Z" stroke="#153150" stroke-width="1.23418" stroke-miterlimit="10" stroke-linecap="round" stroke-linejoin="round"/>
<path opacity="0.2" d="M112.644 156.892C114.372 150.49 110.579 143.898 104.172 142.169C97.7646 140.439 91.1698 144.228 89.4418 150.63C87.7138 157.032 91.507 163.624 97.9141 165.354C104.321 167.083 110.916 163.294 112.644 156.892Z" fill="black"/>
<path d="M114.265 154.979C115.974 148.648 112.223 142.129 105.887 140.419C99.5506 138.709 93.0289 142.455 91.32 148.787C89.6111 155.118 93.3623 161.637 99.6985 163.347C106.035 165.057 112.556 161.311 114.265 154.979Z" fill="white" stroke="#153150" stroke-width="0.822789" stroke-miterlimit="10" stroke-linecap="round" stroke-linejoin="round"/>
<path d="M114.394 155.014C116.122 148.612 112.329 142.02 105.922 140.291C99.5146 138.562 92.9198 142.35 91.1918 148.752C89.4638 155.155 93.257 161.747 99.6641 163.476C106.071 165.205 112.666 161.417 114.394 155.014Z" fill="white"/>
<path d="M114.265 154.979C115.974 148.648 112.223 142.129 105.887 140.419C99.5506 138.709 93.0289 142.455 91.32 148.787C89.6111 155.118 93.3623 161.637 99.6985 163.347C106.035 165.057 112.556 161.311 114.265 154.979Z" stroke="#153150" stroke-width="1.15849" stroke-miterlimit="10" stroke-linecap="round" stroke-linejoin="round"/>
<path d="M103.674 148.937L104.372 150.959L106.116 152.16" stroke="white" stroke-width="1.11525" stroke-miterlimit="10" stroke-linecap="round" stroke-linejoin="round"/>
<path d="M108.866 149.099L108.867 149.1C109.719 150.644 109.183 152.644 107.673 153.556L107.672 153.556L101.544 157.26L98.0884 150.985L98.0882 150.984C97.2361 149.44 97.772 147.44 99.2822 146.528L99.2826 146.528C100.592 145.736 102.245 146.178 102.986 147.521C102.986 147.521 102.986 147.521 102.986 147.521L103.565 148.571L103.771 148.944L104.136 148.725L105.162 148.108L105.163 148.107C106.473 147.314 108.128 147.758 108.866 149.099Z" fill="#F170BE" stroke="#D1176F" stroke-width="0.82029"/>
<path fill-rule="evenodd" clip-rule="evenodd" d="M102.739 154.338C101.795 153.807 101.183 153.436 100.857 152.908C100.531 152.381 100.481 151.608 100.502 150.441C99.8919 151.531 99.4475 152.192 98.7852 152.502C98.2615 152.738 97.6076 152.702 96.6153 152.69C98.5698 153.787 98.8833 154.335 98.8578 156.579C99.9494 154.628 100.498 154.31 102.739 154.338Z" fill="#FFD168"/>
<path d="M98.7649 156.9C98.6159 156.865 98.511 156.731 98.5125 156.578C98.5369 154.453 98.2849 154.016 96.4319 152.97C96.3043 152.896 96.2423 152.745 96.2806 152.602C96.3188 152.46 96.4478 152.36 96.5954 152.36C98.7189 152.383 99.1556 152.131 100.201 150.276C100.276 150.142 100.434 150.079 100.581 150.123C100.73 150.158 100.835 150.292 100.833 150.445C100.809 152.57 101.061 153.007 102.914 154.053C103.041 154.127 103.103 154.278 103.065 154.42C103.027 154.563 102.898 154.662 102.75 154.663C100.627 154.64 100.19 154.892 99.1444 156.747C99.0691 156.881 98.9114 156.944 98.7649 156.9ZM97.7128 152.991C98.5877 153.513 99.1305 154.451 99.1479 155.47C99.6722 154.593 100.614 154.05 101.635 154.035C100.757 153.512 100.213 152.569 100.199 151.546C99.6777 152.428 98.7361 152.975 97.7128 152.991Z" fill="#FFBD09"/>
<path fill-rule="evenodd" clip-rule="evenodd" d="M109.621 149.972C108.322 149.244 108.11 148.889 108.129 147.389C107.779 148.014 107.517 148.472 107.17 148.691C106.824 148.91 106.318 148.89 105.549 148.88C106.846 149.611 107.06 149.963 107.037 151.465C107.379 150.855 107.631 150.408 107.968 150.189C108.304 149.971 108.831 149.963 109.621 149.972Z" fill="#FFD168"/>
<path d="M106.952 151.781C106.803 151.746 106.698 151.612 106.699 151.459C106.722 150.11 106.569 149.835 105.378 149.163C105.25 149.089 105.188 148.938 105.227 148.796C105.265 148.653 105.394 148.553 105.541 148.553C106.906 148.579 107.165 148.419 107.834 147.225C107.909 147.092 108.067 147.028 108.213 147.073C108.362 147.108 108.467 147.241 108.466 147.394C108.439 148.76 108.599 149.02 109.79 149.691C109.918 149.766 109.98 149.916 109.942 150.059C109.904 150.202 109.775 150.301 109.627 150.302C108.279 150.279 108 150.435 107.331 151.628C107.256 151.762 107.098 151.825 106.952 151.781ZM106.563 149.152C106.976 149.466 107.246 149.934 107.308 150.45C107.622 150.035 108.088 149.765 108.603 149.699C108.189 149.386 107.92 148.919 107.857 148.404C107.545 148.819 107.078 149.089 106.563 149.152Z" fill="#FFBD09"/>
</svg>
