<svg width="72" height="78" viewBox="0 0 72 78" fill="none" xmlns="http://www.w3.org/2000/svg">
<path d="M66.7869 53.0855L34.5916 76L2.80688 53.0855V2H66.7869V53.0855Z" fill="#4492B5" stroke="#FBAE28" stroke-width="2.30247" stroke-miterlimit="10" stroke-linecap="round" stroke-linejoin="round"/>
<path d="M6.4209 51.8535L37.3021 74.111L66.7872 53.0855V2H6.4209V51.8535Z" fill="#55B6E2"/>
<path opacity="0.4" d="M5.35293 59.9844L1 56.7812" stroke="#B6BFC7" stroke-width="1.69867" stroke-miterlimit="10" stroke-linecap="round" stroke-linejoin="round"/>
<path opacity="0.4" d="M21.2868 71.4827L9.29565 62.7769" stroke="#B6BFC7" stroke-width="1.69867" stroke-miterlimit="10" stroke-linecap="round" stroke-linejoin="round"/>
<path opacity="0.4" d="M70.8933 14.0732V31.5671" stroke="#B6BFC7" stroke-width="1.69867" stroke-miterlimit="10" stroke-linecap="round" stroke-linejoin="round"/>
<path opacity="0.4" d="M70.8933 2V7.66703" stroke="#B6BFC7" stroke-width="1.69867" stroke-miterlimit="10" stroke-linecap="round" stroke-linejoin="round"/>
<path d="M66.7869 53.0855L34.5916 76L2.80688 53.0855V2H66.7869V53.0855Z" stroke="#153150" stroke-width="2.54801" stroke-miterlimit="10" stroke-linecap="round" stroke-linejoin="round"/>
<path opacity="0.2" d="M54.6182 37.7304C54.6405 25.4379 44.6936 15.4548 32.4011 15.4325C20.1087 15.4101 10.1255 25.357 10.1032 37.6495C10.0809 49.942 20.0278 59.9251 32.3202 59.9474C44.6127 59.9698 54.5958 50.0229 54.6182 37.7304Z" fill="black"/>
<path d="M56.6025 33.5277C56.6246 21.3713 46.7878 11.4986 34.6314 11.4765C22.475 11.4545 12.6024 21.2912 12.5803 33.4476C12.5582 45.604 22.395 55.4767 34.5514 55.4987C46.7078 55.5208 56.5804 45.684 56.6025 33.5277Z" fill="white" stroke="#153150" stroke-width="1.69867" stroke-miterlimit="10" stroke-linecap="round" stroke-linejoin="round"/>
<path d="M56.8491 33.528C56.8715 21.2355 46.9246 11.2524 34.6321 11.2301C22.3396 11.2077 12.3565 21.1546 12.3342 33.4471C12.3118 45.7396 22.2587 55.7227 34.5512 55.745C46.8437 55.7674 56.8268 45.8205 56.8491 33.528Z" fill="white"/>
<path d="M56.6025 33.5277C56.6246 21.3713 46.7878 11.4986 34.6314 11.4765C22.475 11.4545 12.6024 21.2912 12.5803 33.4476C12.5582 45.604 22.395 55.4767 34.5514 55.4987C46.7078 55.5208 56.5804 45.684 56.6025 33.5277Z" stroke="#153150" stroke-width="2.39173" stroke-miterlimit="10" stroke-linecap="round" stroke-linejoin="round"/>
<path d="M34.7556 27.7893L36.9731 31.0745L40.669 32.3886" stroke="white" stroke-width="2.30247" stroke-miterlimit="10" stroke-linecap="round" stroke-linejoin="round"/>
</svg>
