<svg viewBox="0 0 24 22" xmlns="http://www.w3.org/2000/svg">
<path fill-rule="evenodd" clip-rule="evenodd" d="M6.55651e-07 3.99884C-0.00104272 1.79079 1.78867 0 3.997 0H15.9965C18.2056 0 19.9965 1.79086 19.9965 4V5C22.2054 5.00028 23.996 6.79103 23.996 9V15C23.996 17.2784 22.0956 19 19.8705 19C19.4265 20.7252 17.8604 22 15.9965 22H4C1.79086 22 0 20.2091 0 18V4.00771L6.55651e-07 3.99884ZM19.9965 7C21.1008 7.00028 21.996 7.8956 21.996 9C21.996 10.1044 21.1008 10.9997 19.9965 11V7ZM18.0041 11.1239C16.2747 11.5652 14.996 13.1332 14.996 15C14.996 16.7997 16.1844 18.3217 17.8194 18.8242C17.5053 19.5176 16.8073 20 15.9965 20H4C2.89543 20 2 19.1046 2 18V7.46656C2.58751 7.80606 3.26949 8.00036 3.99689 8.00036H15.9965C17.101 8.00036 17.9965 8.89579 17.9965 10.0004C17.9965 10.3695 18.0041 11.1239 18.0041 11.1239ZM2 3.999C1.99889 2.89531 2.8933 2 3.997 2H15.9965C17.101 2 17.9965 2.89543 17.9965 4V6.53549C17.4081 6.19515 16.725 6.00036 15.9965 6.00036H3.99689C2.89486 6.00036 2.00153 5.10773 2 4.00636V4L2 3.999ZM19.996 13C20.7245 13 21.4076 12.8052 21.996 12.4649V15C21.996 16.1046 21.1005 17 19.996 17H18.996C17.8914 17 16.996 16.1046 16.996 15C16.996 13.8954 17.8914 13 18.996 13H19.996ZM9.99595 11C9.99595 10.4477 9.54824 10 8.99595 10C8.44367 10 7.99595 10.4477 7.99595 11V13H5.99595C5.44367 13 4.99595 13.4477 4.99595 14C4.99595 14.5523 5.44367 15 5.99595 15H7.99595V17C7.99595 17.5523 8.44367 18 8.99595 18C9.54824 18 9.99595 17.5523 9.99595 17V15H11.996C12.5482 15 12.996 14.5523 12.996 14C12.996 13.4477 12.5482 13 11.996 13H9.99595V11Z"/>
</svg>
