<svg viewBox="0 0 24 24" xmlns="http://www.w3.org/2000/svg">
<path fill-rule="evenodd" clip-rule="evenodd" d="M22 12C22 17.5229 17.5229 22 12 22C6.47716 22 2 17.5229 2 12C2 6.47714 6.47715 2 12 2C17.5229 2 22 6.47713 22 12ZM12 24C18.6274 24 24 18.6275 24 12C24 5.37256 18.6274 0 12 0C5.3726 0 0 5.37256 0 12C0 18.6275 5.3726 24 12 24ZM15.5152 5.94665C14.184 5.17358 12.635 4.86092 11.1081 5.05706C9.58125 5.2532 8.1616 5.9472 7.06896 7.03164C5.97632 8.11607 5.27163 9.53044 5.06398 11.0558C4.85633 12.5812 5.15731 14.1325 5.92031 15.4695C6.17076 15.9084 6.70923 16.0914 7.17527 15.8962L10.6395 14.4448L11.005 18.0995C11.0561 18.6107 11.4863 19 12 19C13.5394 19 15.0359 18.4925 16.2578 17.5562C17.4798 16.6198 18.3589 15.3067 18.7592 13.8202C19.1595 12.3338 19.0586 10.7568 18.4722 9.33342C17.8858 7.91006 16.8465 6.71971 15.5152 5.94665ZM11.363 7.04076C12.4536 6.90066 13.56 7.12399 14.5109 7.67618C15.4618 8.22837 16.2041 9.07862 16.623 10.0953C17.0419 11.112 17.1139 12.2384 16.828 13.3002C16.5421 14.3619 15.9141 15.2998 15.0413 15.9687C14.4086 16.4536 13.6728 16.7774 12.8969 16.9189L12.495 12.9005C12.4635 12.585 12.2842 12.3031 12.0117 12.1408C11.7393 11.9786 11.406 11.9551 11.1136 12.0777L7.29049 13.6795C7.02313 12.9297 6.93719 12.1227 7.0457 11.3256C7.19402 10.236 7.69737 9.22577 8.47783 8.45117C9.25829 7.67658 10.2723 7.18086 11.363 7.04076Z"/>
</svg>
