<svg viewBox="0 0 9 15" fill="none" xmlns="http://www.w3.org/2000/svg">
<path fill-rule="evenodd" clip-rule="evenodd" d="M3.50259 3.84727V6.58429C3.5232 6.58683 3.53969 6.59098 3.5561 6.59058C3.92558 6.58166 4.29556 6.58521 4.6642 6.55885C4.97639 6.53655 5.28228 6.45719 5.56864 6.29431C6.15946 5.95842 6.35648 5.1275 5.9875 4.51612C5.8137 4.22816 5.56107 4.08393 5.28623 3.98998C4.70299 3.79071 4.10586 3.83683 3.50259 3.84727ZM3.50174 7.98836V11.0032C3.52193 11.006 3.5385 11.0108 3.5549 11.0103C4.05049 10.9937 4.54675 10.9911 5.04124 10.9543C5.37017 10.9296 5.69279 10.8366 5.99623 10.6713C6.29597 10.5079 6.54818 10.2792 6.64787 9.8817C6.7781 9.36225 6.67058 8.76232 6.18812 8.41244C5.83303 8.15489 5.43789 8.04715 5.03299 8.01877C4.55558 7.98532 4.07623 7.99181 3.59764 7.98167C3.5666 7.98106 3.53555 7.98593 3.50174 7.98836ZM0.0224609 12.6406C0.0224609 12.6129 0.0224609 12.5852 0.0224609 12.5576C0.027845 12.5461 0.0364258 12.5353 0.0381083 12.5231C0.0796665 12.2237 0.120383 11.9241 0.161689 11.6246C0.190124 11.4183 0.219315 11.2123 0.248675 11.0026C0.292252 11.0026 0.326407 11.0026 0.360478 11.0026C0.601415 11.0022 0.842435 11.008 1.08312 11C1.35922 10.9909 1.50652 10.7991 1.50652 10.4647C1.50661 8.45374 1.50644 6.44273 1.50619 4.43182C1.50619 4.11873 1.3461 3.86463 1.09448 3.78557C1.02575 3.76408 0.953397 3.7503 0.882479 3.74898C0.595862 3.74341 0.309162 3.74412 0.0224609 3.7425V2.26989H2.32625C2.32625 2.21293 2.32616 2.17198 2.32625 2.13103C2.32726 1.42377 2.32826 0.716399 2.32927 0.0090332H3.46556C3.46649 0.703324 3.46741 1.39762 3.46834 2.09191C3.46842 2.13235 3.46834 2.17289 3.46834 2.20968H4.37791V0.0090332H5.53135C5.53001 0.0297099 5.52757 0.0502852 5.52757 0.0708606C5.52748 0.779139 5.52757 1.48732 5.52799 2.19559C5.52799 2.2188 5.53194 2.24212 5.5343 2.26837C5.59756 2.27678 5.65712 2.28428 5.7166 2.29259C6.15574 2.35371 6.58924 2.44534 7.00314 2.64106C7.44076 2.84792 7.81495 3.1523 8.0579 3.6533C8.23129 4.01089 8.29842 4.40374 8.31087 4.81231C8.3383 5.71256 8.06455 6.42003 7.39609 6.87258C7.37792 6.88485 7.36134 6.90076 7.3377 6.92012C7.45405 6.9638 7.56089 6.99978 7.66546 7.04388C8.30557 7.31389 8.75447 7.80455 8.91178 8.62635C8.93736 8.76014 8.95376 8.89647 8.97445 9.03157V9.67458C8.95712 9.81394 8.94139 9.95361 8.9223 10.0926C8.7903 11.0564 8.36513 11.7531 7.62121 12.1563C7.09736 12.4401 6.53977 12.5525 5.97352 12.6182C5.82647 12.6352 5.67925 12.6487 5.52799 12.6642C5.52799 12.8203 5.52782 12.9649 5.52807 13.1096C5.52908 13.7207 5.53026 14.3318 5.53135 14.9429H4.37791V12.6931H3.46834C3.46834 12.7363 3.46842 12.7771 3.46834 12.8178C3.46741 13.5262 3.46649 14.2345 3.46556 14.9429H2.32927V12.6579C2.28435 12.6579 2.25331 12.658 2.22235 12.6579C1.52613 12.6547 0.829816 12.6514 0.133507 12.6477C0.0964916 12.6476 0.0594763 12.643 0.0224609 12.6406Z" fill="white"/>
</svg>
