<svg width="24" height="24" viewBox="0 0 24 24" fill="none" xmlns="http://www.w3.org/2000/svg">
<path fill-rule="evenodd" clip-rule="evenodd" d="M2.40002 1.2C2.40002 0.537258 2.93728 0 3.60002 0H20.4C21.0628 0 21.6 0.537258 21.6 1.2V22.8C21.6 23.4627 21.0628 24 20.4 24H3.60002C2.93728 24 2.40002 23.4627 2.40002 22.8V1.2ZM4.80002 2.4V21.6H19.2V2.4H4.80002ZM6.00002 7.2C6.00002 6.53726 6.53728 6 7.20002 6H13.2C13.8628 6 14.4 6.53726 14.4 7.2C14.4 7.86274 13.8628 8.4 13.2 8.4H7.20002C6.53728 8.4 6.00002 7.86274 6.00002 7.2ZM6.00002 12C6.00002 11.3373 6.53728 10.8 7.20002 10.8H16.8C17.4628 10.8 18 11.3373 18 12C18 12.6627 17.4628 13.2 16.8 13.2H7.20002C6.53728 13.2 6.00002 12.6627 6.00002 12ZM6.00002 16.8C6.00002 16.1373 6.53728 15.6 7.20002 15.6H16.8C17.4628 15.6 18 16.1373 18 16.8C18 17.4627 17.4628 18 16.8 18H7.20002C6.53728 18 6.00002 17.4627 6.00002 16.8Z" fill="#424242"/>
</svg>