<svg height='100px' width='100px'  fill="#000000" xmlns="http://www.w3.org/2000/svg" viewBox="0 0 64 64" x="0px" y="0px"><g><path d="M43.692,16.005A10.064,10.064,0,0,0,34,26.036a9.94,9.94,0,0,0,5,8.615V39a2,2,0,0,0,2,2v1a2,2,0,0,0,2,2h2a2,2,0,0,0,2-2V41a2,2,0,0,0,2-2V34.651a10,10,0,0,0-5.308-18.646ZM45,42H43V41h2Zm-4-3V38h6v1Zm6.554-5.842a1,1,0,0,0-.554.895V36H45V29h1a3,3,0,0,0,0-6v2a1,1,0,0,1,0,2H42a1,1,0,0,1,0-2V23a3,3,0,0,0,0,6h1v7H41V34.053a1,1,0,0,0-.555-.895A7.96,7.96,0,0,1,36,26.029,8.05,8.05,0,0,1,43.752,18c.084,0,.167,0,.25,0a7.994,7.994,0,0,1,3.552,15.158Z"></path><path d="M55,2H7A5.006,5.006,0,0,0,2,7V52a5.006,5.006,0,0,0,5,5H24v2a3,3,0,0,0,6,0V57H55a5.006,5.006,0,0,0,5-5V7A5.006,5.006,0,0,0,55,2ZM7,4H55a3,3,0,0,1,3,3v3H4V7A3,3,0,0,1,7,4ZM25.618,55l-1.584-3.168A.988.988,0,0,1,25,51a1,1,0,0,1,1,1,1,1,0,0,0,2,0,1,1,0,0,1,1-1,.988.988,0,0,1,.966.832L28.382,55ZM30,25H24V24h6Zm-6,2h6V49.184a2.846,2.846,0,0,0-2,0V29H26V49.179a2.846,2.846,0,0,0-2,0Zm6-5H24V21a3,3,0,0,1,6,0ZM27,60a1,1,0,0,1-1-1V57h2v2A1,1,0,0,1,27,60Zm28-5H30.618L31.9,52.447A1,1,0,0,0,32,52V21a5,5,0,0,0-10,0V52a1,1,0,0,0,.105.447L23.382,55H7a3,3,0,0,1-3-3V12H58V52A3,3,0,0,1,55,55Z"></path><rect x="8" y="6" width="2" height="2"></rect><rect x="12" y="6" width="2" height="2"></rect><rect x="16" y="6" width="2" height="2"></rect><rect x="43" y="46" width="2" height="2"></rect><rect x="43" y="50" width="2" height="2"></rect><rect x="39" y="50" width="2" height="2"></rect><rect x="35" y="50" width="2" height="2"></rect><rect x="8" y="22" width="10" height="2"></rect><rect x="8" y="28" width="10" height="2"></rect><rect x="8" y="34" width="10" height="2"></rect><rect x="8" y="40" width="10" height="2"></rect></g></svg>