<svg viewBox="0 0 24 20" fill="none" xmlns="http://www.w3.org/2000/svg">
<path fill-rule="evenodd" clip-rule="evenodd" d="M19.5704 0.189935C20.0178 -0.133836 20.643 -0.0335939 20.9668 0.413833C22.9519 3.15705 24.0165 6.54559 23.9992 10.0216C23.9819 13.4977 22.8836 16.8738 20.8709 19.5937C20.5424 20.0377 19.9162 20.1312 19.4722 19.8027C19.0283 19.4742 18.9347 18.848 19.2632 18.4041C21.014 16.0379 21.9839 13.0783 21.9992 10.0117C22.0145 6.94503 21.0741 3.97366 19.3465 1.58631C19.0227 1.13889 19.123 0.513706 19.5704 0.189935ZM16.9704 3.44019C17.4178 3.11641 18.043 3.21666 18.3667 3.66408C19.6768 5.47447 20.3769 7.70666 20.3655 9.99313C20.3541 12.2796 19.6318 14.5037 18.3035 16.2989C17.9749 16.7429 17.3487 16.8365 16.9048 16.508C16.4608 16.1795 16.3672 15.5532 16.6957 15.1093C17.7623 13.6679 18.3562 11.8602 18.3655 9.98318C18.3748 8.10611 17.799 6.29108 16.7465 4.83656C16.4227 4.38914 16.5229 3.76396 16.9704 3.44019ZM5.92611 3.37631L5.92611 5.79394H3.45328L5.92611 3.37631ZM2 7.79394H6.92611C7.47839 7.79394 7.92611 7.34623 7.92611 6.79394L7.92611 2.00011L13.1994 2.00008V4.94197C13.1994 5.49425 13.6472 5.94197 14.1994 5.94197C14.7517 5.94197 15.1994 5.49425 15.1994 4.94197V1.00007C15.1994 0.734855 15.0941 0.4805 14.9065 0.292964C14.719 0.105427 14.4646 7.09561e-05 14.1994 7.25058e-05L6.92611 0.000114348C6.6648 0.000115838 6.41387 0.102398 6.22703 0.285072L0.300919 6.0789C0.10848 6.26704 0 6.52481 0 6.79394V18.9989C0 19.5512 0.447715 19.9989 1 19.9989H14.1994C14.7517 19.9989 15.1994 19.5512 15.1994 18.9989V15.442C15.1994 14.8897 14.7517 14.442 14.1994 14.442C13.6472 14.442 13.1994 14.8897 13.1994 15.442V17.9989H2V7.79394ZM14.0904 10.2414L14.0909 10.2414L14.0866 10.2366L14.0864 10.2378C14.0862 10.2389 14.0858 10.24 14.0855 10.2409C14.0847 10.2426 14.0843 10.2428 14.0849 10.2422L14.0859 10.2414L14.0864 10.2414L14.0884 10.2413L14.0904 10.2414ZM14.0884 8.24131C12.9889 8.24131 12.0866 9.12859 12.0866 10.2366C12.0866 11.3447 12.9889 12.232 14.0884 12.232C15.1879 12.232 16.0902 11.3447 16.0902 10.2366C16.0902 9.12859 15.1879 8.24131 14.0884 8.24131Z" fill="#163150"/>
</svg>
