<svg viewBox="0 0 24 21" fill="none" xmlns="http://www.w3.org/2000/svg">
<path fill-rule="evenodd" clip-rule="evenodd" d="M20.967 0.413833C20.6432 -0.0335939 20.0181 -0.133836 19.5706 0.189935C19.1232 0.513706 19.023 1.13889 19.3467 1.58631C21.0743 3.97366 22.0147 6.94503 21.9994 10.0117C21.9841 13.0783 21.0142 16.0379 19.2634 18.4041C18.9349 18.848 19.0285 19.4742 19.4725 19.8027C19.9164 20.1312 20.5426 20.0377 20.8711 19.5937C22.8838 16.8738 23.9821 13.4977 23.9994 10.0216C24.0167 6.54559 22.9521 3.15705 20.967 0.413833ZM18.367 3.66408C18.0432 3.21666 17.418 3.11641 16.9706 3.44019C16.5232 3.76396 16.4229 4.38914 16.7467 4.83656C17.7992 6.29108 18.3751 8.10611 18.3657 9.98318C18.3564 11.8602 17.7625 13.6679 16.696 15.1093C16.3675 15.5532 16.461 16.1795 16.905 16.508C17.349 16.8365 17.9752 16.7429 18.3037 16.2989C19.6321 14.5037 20.3543 12.2796 20.3657 9.99313C20.3771 7.70666 19.677 5.47447 18.367 3.66408ZM1.00022 7.25058e-05C0.447939 7.25058e-05 0.000225723 0.447781 0.000219345 1.00006L0 20.0001C-4.05305e-06 20.3467 0.179526 20.6686 0.474449 20.8508C0.769371 21.033 1.13761 21.0495 1.4476 20.8943L3.00017 20.1172L4.55232 20.8943C4.83887 21.0377 5.17683 21.0352 5.46117 20.8874L6.94283 20.1173L8.56521 20.9006C8.84441 21.0354 9.17035 21.0331 9.4476 20.8943L11.0002 20.1172L12.5523 20.8943C12.8341 21.0353 13.1658 21.0353 13.4476 20.8943L14.4477 20.3937C14.7863 20.2242 15.0001 19.8781 15.0001 19.4995V15.0001C15.0001 14.4478 14.5524 14.0001 14.0001 14.0001C13.4478 14.0001 13.0001 14.4478 13.0001 15.0001V18.8817L13 18.8818L11.4479 18.1047C11.1661 17.9636 10.8344 17.9636 10.5526 18.1046L8.99204 18.8858L7.36112 18.0983C7.07709 17.9612 6.74501 17.9661 6.46516 18.1116L4.9915 18.8775L3.4479 18.1047C3.16614 17.9636 2.83438 17.9636 2.55262 18.1046L2.00002 18.3812L2.00021 2.00007H13.1997V4.94197C13.1997 5.49425 13.6474 5.94197 14.1997 5.94197C14.7519 5.94197 15.1997 5.49425 15.1997 4.94197V1.00007C15.1997 0.447788 14.7519 7.25058e-05 14.1997 7.25058e-05H1.00022ZM14.0911 10.2414L14.0906 10.2414L14.0886 10.2413L14.0866 10.2414L14.0861 10.2414L14.0851 10.2422C14.0845 10.2428 14.0849 10.2426 14.0857 10.2409C14.0859 10.2404 14.086 10.24 14.0862 10.2394C14.0864 10.2389 14.0865 10.2383 14.0866 10.2378L14.0868 10.2366L14.0911 10.2414ZM12.0868 10.2366C12.0868 9.12859 12.9891 8.24131 14.0886 8.24131C15.1881 8.24131 16.0904 9.12859 16.0904 10.2366C16.0904 11.3447 15.1881 12.232 14.0886 12.232C12.9891 12.232 12.0868 11.3447 12.0868 10.2366ZM5 5C4.44772 5 4 5.44772 4 6C4 6.55228 4.44772 7 5 7H10.0002C10.5525 7 11.0002 6.55228 11.0002 6C11.0002 5.44772 10.5525 5 10.0002 5H5ZM5 9.5C4.44772 9.5 4 9.94772 4 10.5C4 11.0523 4.44772 11.5 5 11.5H5.5C6.05228 11.5 6.5 11.0523 6.5 10.5C6.5 9.94772 6.05228 9.5 5.5 9.5H5ZM5 14C4.44772 14 4 14.4477 4 15C4 15.5523 4.44772 16 5 16H8C8.55228 16 9 15.5523 9 15C9 14.4477 8.55228 14 8 14H5Z" fill="#163150"/>
</svg>
