<svg viewBox="0 0 24 24" xmlns="http://www.w3.org/2000/svg">
<path fill-rule="evenodd" clip-rule="evenodd" d="M18.6208 10.9705C18.7614 9.76227 18.4984 8.54655 17.9245 7.50162L23.7071 1.70864C24.0973 1.31777 24.0973 0.684035 23.7071 0.293159C23.3169 -0.0977179 22.6843 -0.0977198 22.2942 0.293154L16.6709 5.92647C15.8158 5.16736 14.725 4.65578 13.4791 4.54696L15.6298 2.3924C16.02 2.00152 16.02 1.36779 15.6298 0.976912C15.2396 0.586037 14.607 0.586037 14.2169 0.976913L9.16818 6.0347C7.84208 7.2797 7.12306 9.13378 7.3369 10.9705H5.69891L3.62089 5.59589C3.47191 5.21056 3.10131 4.95651 2.68818 4.95651H1C0.447715 4.95651 0 5.40423 0 5.95651C0 6.5088 0.447715 6.95651 1 6.95651H2.00268C3.46953 10.7504 4.91013 14.5405 6.35494 18.34C6.5025 18.728 6.87448 18.9845 7.28964 18.9845H18.7244C19.1395 18.9845 19.5115 18.728 19.6591 18.34L21.946 12.3259C22.1907 11.6825 21.6997 10.9705 21.0113 10.9705H18.6208ZM9.35767 10.9705C8.95467 8.81094 10.6235 6.52528 12.9788 6.52528C15.3342 6.52528 17.003 8.81094 16.6 10.9705H9.35767ZM7.97923 16.9845L6.45282 12.9705H19.5612L18.0348 16.9845H7.97923ZM9.46476 19.9915C8.34962 19.9915 7.48599 20.9105 7.48599 21.9938C7.48599 23.0771 8.34962 23.9961 9.46476 23.9961C10.5799 23.9961 11.4435 23.0771 11.4435 21.9938C11.4435 20.9105 10.5799 19.9915 9.46476 19.9915ZM16.5492 19.9915C15.4341 19.9915 14.5704 20.9105 14.5704 21.9938C14.5704 23.0771 15.4341 23.9961 16.5492 23.9961C17.6644 23.9961 18.528 23.0771 18.528 21.9938C18.528 20.9105 17.6644 19.9915 16.5492 19.9915Z" />
</svg>
