<svg viewBox="0 0 16 16" xmlns="http://www.w3.org/2000/svg">
  <path
    fill-rule="evenodd"
    clip-rule="evenodd"
    d="M0.928978 0.928932C1.36289 0.495016 2.06641 0.495016 2.50033 0.928932L8.00002 6.42863L13.4997 0.928911C13.9337 0.494995 14.6372 0.494994 15.0711 0.928911C15.505 1.36283 15.505 2.06634 15.0711 2.50026L9.57137 7.99998L15.0711 13.4997C15.505 13.9336 15.505 14.6372 15.0711 15.0711C14.6372 15.505 13.9337 15.505 13.4998 15.0711L8.00002 9.57133L2.50031 15.071C2.06639 15.505 1.36287 15.505 0.928956 15.071C0.49504 14.6371 0.495041 13.9336 0.928957 13.4997L6.42868 7.99998L0.928978 2.50028C0.495062 2.06636 0.495062 1.36285 0.928978 0.928932Z"
  />
</svg>
