<svg viewBox="0 0 24 24" fill="none" xmlns="http://www.w3.org/2000/svg">
<path fill-rule="evenodd" clip-rule="evenodd" d="M4.99998 6.5C4.99998 8.98528 7.0147 11 9.49998 11C11.9853 11 14 8.98528 14 6.5C14 4.01472 11.9853 2 9.49998 2C7.0147 2 4.99998 4.01472 4.99998 6.5ZM9.49998 13C7.12296 13 5.04395 11.7241 3.91048 9.81973C3.40936 10.1723 2.98338 10.6251 2.66104 11.1521C2.21262 11.8854 1.98355 12.7317 2.00092 13.591C2.01829 14.4503 2.28138 15.2866 2.75907 16.0011C3.23677 16.7156 3.90908 17.2783 4.69651 17.6228C5.48393 17.9672 6.35353 18.079 7.20247 17.9448C8.0514 17.8107 8.84416 17.4362 9.48699 16.8657C10.1298 16.2952 10.5958 15.5526 10.8299 14.7256C11.0043 14.1095 11.0445 13.4658 10.951 12.8374C10.4844 12.9438 9.99876 13 9.49998 13ZM2.99998 6.5C2.99998 6.98976 3.05415 7.46687 3.15682 7.92567C2.25988 8.4636 1.50344 9.21165 0.95484 10.1087C0.307116 11.1677 -0.023765 12.3902 0.00132838 13.6314C0.0264218 14.8726 0.406439 16.0806 1.09644 17.1127C1.78644 18.1447 2.75756 18.9576 3.89495 19.4551C5.03235 19.9527 6.28844 20.1141 7.51468 19.9203C8.74091 19.7265 9.88601 19.1856 10.8145 18.3616C11.7431 17.5375 12.4162 16.4648 12.7543 15.2703C13.0496 14.2271 13.0785 13.1291 12.8421 12.0761C14.7341 10.9397 16 8.86769 16 6.5C16 2.91015 13.0898 0 9.49998 0C5.91013 0 2.99998 2.91015 2.99998 6.5ZM19.3716 8.50974C19.1945 8.19486 18.8613 8 18.5 8C18.1387 8 17.8056 8.19486 17.6284 8.50974L13.1284 16.5097C12.9341 16.8552 12.9622 17.2829 13.2 17.6L17.7 23.6C17.8889 23.8518 18.1853 24 18.5 24C18.8148 24 19.1112 23.8518 19.3 23.6L23.8 17.6C24.0378 17.2829 24.0659 16.8552 23.8716 16.5097L19.3716 8.50974ZM18.5 21.3333L16.7208 18.961L18.1838 19.4487C18.389 19.5171 18.611 19.5171 18.8162 19.4487L20.2793 18.961L18.5 21.3333ZM18.5 17.4459L21.5345 16.4344L18.5 11.0397L15.4655 16.4344L18.5 17.4459Z" fill="#424242"/>
</svg>
