<svg viewBox="0 0 21 24" fill="none" xmlns="http://www.w3.org/2000/svg">
<path fill-rule="evenodd" clip-rule="evenodd" d="M7.12905 6.76977L7.12905 3.29277L3.46749 6.76977H7.12905ZM8.12148 8.74221H1.98486V19.3865H9.17853V13.5128C9.17853 12.0156 10.7912 11.0643 12.1138 11.7812L15.8788 13.822V1.97244L9.11391 1.97248L9.11391 7.75599C9.11391 8.30067 8.66958 8.74221 8.12148 8.74221ZM17.8636 14.8979V0.986219C17.8636 0.446441 17.4091 0 16.8712 0L8.12147 4.89076e-05C7.86607 5.03184e-05 7.6205 0.0979018 7.43585 0.273248L0.306794 7.04297C0.110845 7.22904 0 7.48666 0 7.75599V20.3727C0 20.9174 0.444325 21.359 0.992428 21.359H9.17853V22.0248C9.17853 23.522 10.7912 24.4733 12.1138 23.7564L19.9656 19.5004C21.3448 18.7528 21.3448 16.7848 19.9656 16.0372L17.8636 14.8979ZM11.1634 22.0248L19.0151 17.7688L11.1634 13.5128V22.0248Z" fill="#163150"/>
</svg>
