<svg viewBox="0 0 21 18" fill="none" xmlns="http://www.w3.org/2000/svg">
<path d="M19.6125 0.670977C19.2845 0.34291 18.8902 0.178711 18.4293 0.178711H1.6754C1.21467 0.178711 0.82037 0.34291 0.492083 0.670977C0.163979 0.999155 0 1.39342 0 1.85418V13.247C0 13.7079 0.163979 14.1021 0.492083 14.4303C0.82037 14.7584 1.21467 14.9223 1.6754 14.9223H7.37185C7.37185 15.1875 7.31596 15.46 7.20424 15.739C7.0926 16.0183 6.98089 16.2625 6.86917 16.4719C6.7576 16.6815 6.70174 16.8349 6.70174 16.9325C6.70174 17.114 6.76802 17.2714 6.90067 17.4037C7.03326 17.5365 7.19034 17.603 7.37185 17.603H12.7331C12.9146 17.603 13.0718 17.5365 13.2043 17.4037C13.3371 17.2714 13.4034 17.114 13.4034 16.9325C13.4034 16.842 13.3474 16.6901 13.2357 16.4772C13.124 16.2644 13.0123 16.0163 12.9007 15.7339C12.789 15.4511 12.7332 15.1806 12.7332 14.9223H18.4296C18.8903 14.9223 19.2845 14.7584 19.6126 14.4303C19.9408 14.1021 20.1048 13.7079 20.1048 13.247V1.85418C20.1049 1.39342 19.9407 0.999155 19.6125 0.670977ZM18.7645 10.5663C18.7645 10.6571 18.7313 10.7355 18.665 10.8019C18.5987 10.8681 18.5201 10.9012 18.4293 10.9012H1.6754C1.5847 10.9012 1.50614 10.8681 1.43983 10.8019C1.37356 10.7353 1.34036 10.6571 1.34036 10.5663V1.85418C1.34036 1.76341 1.37345 1.68492 1.43983 1.61861C1.50618 1.55241 1.58474 1.51915 1.6754 1.51915H18.4296C18.5202 1.51915 18.5989 1.5523 18.665 1.61861C18.7313 1.68496 18.7645 1.76345 18.7645 1.85418V10.5663Z" fill="white"/>
</svg>
