<svg viewBox="0 0 21 24" fill="none" xmlns="http://www.w3.org/2000/svg">
<path d="M8.29268 10.0488C7.90244 10.1138 7.5935 10.2764 7.36585 10.5366C7.13821 10.7967 7.02439 11.0894 7.02439 11.4146C7.02439 11.7398 7.13821 12.0325 7.36585 12.2927C7.5935 12.5528 7.88618 12.6829 8.2439 12.6829C8.60163 12.6829 8.89431 12.5528 9.12195 12.2927C9.34959 12.0325 9.46341 11.7398 9.46341 11.4146C9.46341 11.0894 9.34959 10.7967 9.12195 10.5366C8.89431 10.2764 8.61789 10.1138 8.29268 10.0488ZM12.6829 10.0488C12.3577 10.0488 12.0813 10.1138 11.8537 10.2439C11.626 10.374 11.4472 10.5691 11.3171 10.8293C11.187 11.0894 11.1545 11.3496 11.2195 11.6098C11.2846 11.8699 11.3984 12.0976 11.561 12.2927C11.7236 12.4878 11.935 12.6179 12.1951 12.6829C12.4553 12.748 12.7154 12.7317 12.9756 12.6341C13.2358 12.5366 13.4472 12.374 13.6098 12.1463C13.7724 11.9187 13.8537 11.6423 13.8537 11.3171C13.8537 10.9919 13.7398 10.6992 13.5122 10.439C13.2846 10.1789 13.0081 10.0488 12.6829 10.0488ZM18.439 0H2.43902C1.72358 0.0650406 1.13821 0.341463 0.682927 0.829268C0.227642 1.31707 0 1.9187 0 2.63415V18.7317C0 19.4472 0.243902 20.0325 0.731707 20.4878C1.21951 20.9431 1.78862 21.1707 2.43902 21.1707H16L15.3171 18.9268L20.878 24V2.63415C20.878 1.9187 20.6504 1.31707 20.1951 0.829268C19.7398 0.341463 19.1545 0.0650406 18.439 0ZM13.8537 15.7073L13.0732 14.7317C13.9837 14.4715 14.6992 13.9837 15.2195 13.2683C14.7642 13.5285 14.2764 13.7724 13.7561 14C13.2358 14.2276 12.6829 14.4065 12.0976 14.5366C11.0569 14.6667 10.0163 14.6341 8.97561 14.439C8.39024 14.374 7.8374 14.2276 7.31707 14C6.79675 13.7724 6.30894 13.5285 5.85366 13.2683C6.37398 13.9837 7.08943 14.439 8 14.6341L7.21951 15.7073C6.37398 15.6423 5.65854 15.4472 5.07317 15.122C4.61789 14.9268 4.22764 14.6667 3.90244 14.3415L3.5122 13.8537C3.57724 11.3821 4.1626 9.04065 5.26829 6.82927C6.2439 6.04878 7.34959 5.65854 8.58537 5.65854L8.68293 5.7561C7.57724 6.01626 6.53659 6.53659 5.56098 7.31707L6.2439 6.92683C7.15447 6.53659 8.06504 6.30894 8.97561 6.2439H9.17073C10.0163 6.11382 10.8293 6.0813 11.6098 6.14634C12.9106 6.34146 14.1138 6.73171 15.2195 7.31707C14.3089 6.60163 13.3333 6.0813 12.2927 5.7561L12.3902 5.56098C13.6911 5.62602 14.8293 6.04878 15.8049 6.82927C16.9106 9.04065 17.4634 11.3821 17.4634 13.8537C17.3333 14.1138 17.0732 14.4065 16.6829 14.7317C15.9024 15.3171 14.9593 15.6423 13.8537 15.7073Z" fill="#55B6E2"/>
</svg>
