<svg viewBox="0 0 26 26" fill="none" xmlns="http://www.w3.org/2000/svg">
<path d="M4.09825 3.06166L13 1.0835L21.9018 3.06166C22.1423 3.11514 22.3575 3.24904 22.5117 3.44127C22.6659 3.63349 22.75 3.87256 22.75 4.119V14.9382C22.7499 16.0083 22.4857 17.0618 21.9807 18.0052C21.4757 18.9486 20.7457 19.7527 19.8553 20.3462L13 24.9168L6.14467 20.3462C5.25446 19.7528 4.5245 18.9489 4.01954 18.0056C3.51459 17.0624 3.25026 16.0092 3.25 14.9393V4.119C3.25004 3.87256 3.33411 3.63349 3.48832 3.44127C3.64254 3.24904 3.85768 3.11514 4.09825 3.06166ZM5.41667 4.98783V14.9382C5.41668 15.6516 5.59279 16.3539 5.92937 16.9828C6.26594 17.6117 6.75258 18.1479 7.34608 18.5436L13 22.3136L18.6539 18.5436C19.2473 18.148 19.7338 17.612 20.0704 16.9833C20.4069 16.3546 20.5831 15.6525 20.5833 14.9393V4.98783L13 3.30433L5.41667 4.98783ZM13 11.9168C12.2817 11.9168 11.5928 11.6315 11.0849 11.1236C10.577 10.6157 10.2917 9.92679 10.2917 9.2085C10.2917 8.4902 10.577 7.80133 11.0849 7.29341C11.5928 6.7855 12.2817 6.50016 13 6.50016C13.7183 6.50016 14.4072 6.7855 14.9151 7.29341C15.423 7.80133 15.7083 8.4902 15.7083 9.2085C15.7083 9.92679 15.423 10.6157 14.9151 11.1236C14.4072 11.6315 13.7183 11.9168 13 11.9168ZM8.15425 17.3335C8.28557 16.1401 8.85266 15.0371 9.74684 14.2359C10.641 13.4348 11.7994 12.9917 13 12.9917C14.2006 12.9917 15.359 13.4348 16.2532 14.2359C17.1473 15.0371 17.7144 16.1401 17.8457 17.3335H8.15425Z" fill="#424242"/>
</svg>
