<svg viewBox="0 0 23 22" fill="none" xmlns="http://www.w3.org/2000/svg">
<path fill-rule="evenodd" clip-rule="evenodd" d="M9.59038 0.69303C9.93496 0.945215 10.0814 1.38837 9.95491 1.79621L6.9142 11.6008L10.9088 20.0725C11.0946 20.4667 11.0038 20.9359 10.6843 21.2322C10.3647 21.5286 9.89005 21.5838 9.51096 21.3689L4.0467 18.27C1.54312 16.8503 0 14.1701 0 11.2714V10.2899C0 8.68866 0.540135 7.13379 1.53333 5.88507C2.44864 4.73429 3.66224 3.93912 4.72478 3.24294L4.72478 3.24294L4.7248 3.24292C4.84449 3.16451 4.96225 3.08735 5.07746 3.01108L8.42861 0.679171C8.77911 0.435278 9.2458 0.440845 9.59038 0.69303ZM3.20296 8.40987L4.81382 11.8027C4.82878 11.8562 4.84841 11.9092 4.8729 11.9611L7.7552 18.0739L5.0333 16.5303C3.16588 15.4713 2 13.4614 2 11.2714V10.2899C2 9.25953 2.31097 8.25868 2.88426 7.42043C2.94524 7.75653 3.05062 8.08902 3.20296 8.40987ZM5.7445 4.98347L6.16068 4.69388C6.28533 4.61075 6.41203 4.52549 6.54073 4.43749C6.57549 4.41373 6.60827 4.38817 6.63904 4.36101L7.18288 3.98258L5.6546 8.91045L5.00966 7.55208C4.59166 6.67166 4.88594 5.56852 5.7364 4.98905L5.73643 4.98909L5.7445 4.98347ZM12.4089 21.3067C12.0644 21.0544 11.9182 20.6112 12.0449 20.2034L15.0894 10.4023L11.0956 1.93135C10.9097 1.53716 11.0005 1.06799 11.3201 0.771658C11.6397 0.475321 12.1143 0.420061 12.4934 0.635063L17.9558 3.73315C20.4587 5.15268 22.0013 7.83231 22.0013 10.7303V11.7116C22.0013 13.3125 21.4613 14.867 20.4684 16.1155C19.5534 17.2661 18.3402 18.0611 17.278 18.7571C17.1684 18.8289 17.0605 18.8996 16.9546 18.9696L13.5706 21.3213C13.2199 21.5649 12.7533 21.5591 12.4089 21.3067ZM18.8007 13.5917L17.188 10.1952C17.1732 10.143 17.1539 10.0914 17.13 10.0407L14.249 3.93008L16.9692 5.47283C18.8358 6.53154 20.0013 8.54089 20.0013 10.7303V11.7116C20.0013 12.7408 19.691 13.7406 19.1188 14.5782C19.0578 14.2431 18.9526 13.9116 18.8007 13.5917ZM16.2599 17.0169L15.8783 17.2821C15.742 17.3728 15.6033 17.466 15.4622 17.5625C15.4264 17.587 15.3926 17.6134 15.361 17.6415L14.8177 18.0191L16.3487 13.0904L16.994 14.4496C17.4118 15.3296 17.1177 16.4324 16.2675 17.0117L16.2674 17.0116L16.2599 17.0169Z" fill="#163150"/>
</svg>
