<svg viewBox="0 0 10 16" fill="none" xmlns="http://www.w3.org/2000/svg">
<path fill-rule="evenodd" clip-rule="evenodd" d="M0.770404 8.03521C0.788623 8.09613 0.832124 8.1463 0.889853 8.17297L5.08566 10.2789C5.22812 10.3417 5.39045 10.3417 5.5329 10.2789L9.72871 8.16306C9.85595 8.09906 9.89481 7.95811 9.82319 7.84459L5.42395 0.843445C5.35385 0.730683 5.23728 0.729159 5.16642 0.843445L0.794615 7.85449C0.761002 7.90847 0.752185 7.97429 0.770404 8.03521ZM0.926425 9.63354C0.812901 9.5703 0.780901 9.60764 0.860139 9.72116L5.1969 15.9162C5.27462 16.0274 5.4049 16.029 5.4849 15.9162L9.86281 9.72573C9.94128 9.61449 9.91233 9.57335 9.79423 9.63811L5.53595 11.9833C5.40212 12.0478 5.24616 12.0478 5.11233 11.9833L0.926425 9.63354Z" fill="white"/>
</svg>
