<svg viewBox="0 0 24 24" fill="none" xmlns="http://www.w3.org/2000/svg">
<path d="M22.9688 0H1.03125C0.71875 0 0.46875 0.09375 0.28125 0.28125C0.09375 0.46875 0 0.71875 0 1.03125V22.9688C0 23.2812 0.09375 23.5312 0.28125 23.7188C0.46875 23.9062 0.71875 24 1.03125 24H12.8438V14.7188H9.65625V11.0625H12.8438V8.4375C12.8438 6.875 13.2656 5.6875 14.1094 4.875C14.9531 4.0625 16.0625 3.65625 17.4375 3.65625C18.625 3.65625 19.5625 3.6875 20.25 3.75V7.03125H18.375C17.6875 7.03125 17.2188 7.17188 16.9688 7.45312C16.7188 7.73438 16.5938 8.1875 16.5938 8.8125V11.0625H20.1562L19.6875 14.7188H16.5938V24H22.9688C23.2812 24 23.5312 23.9062 23.7188 23.7188C23.9062 23.5312 24 23.2812 24 22.9688V1.03125C24 0.71875 23.9062 0.46875 23.7188 0.28125C23.5312 0.09375 23.2812 0 22.9688 0Z" fill="#55B6E2"/>
</svg>
