<svg viewBox="0 0 25 25" fill="none" xmlns="http://www.w3.org/2000/svg">
<path fill-rule="evenodd" clip-rule="evenodd" d="M7.33203 0.496582C6.77975 0.496582 6.33203 0.944297 6.33203 1.49658C6.33203 2.04887 6.77975 2.49658 7.33203 2.49658H12.332V3.99658H11.332C9.67518 3.99658 8.33203 5.33973 8.33203 6.99658C3.91375 6.99658 0.332031 10.5783 0.332031 14.9966V15.4966C0.332031 16.0489 0.779746 16.4966 1.33203 16.4966H6.33203C6.88432 16.4966 7.33203 16.0489 7.33203 15.4966V15.3966C7.33203 14.6234 7.95883 13.9966 8.73203 13.9966H22.332V15.9966C22.332 16.5489 22.7797 16.9966 23.332 16.9966C23.8843 16.9966 24.332 16.5489 24.332 15.9966V12.9966V7.99658V6.49658C24.332 5.9443 23.8843 5.49658 23.332 5.49658C22.7797 5.49658 22.332 5.9443 22.332 6.49658V6.99658H18.332C18.332 5.33973 16.9889 3.99658 15.332 3.99658H14.332V2.49658H19.332C19.8843 2.49658 20.332 2.04887 20.332 1.49658C20.332 0.944297 19.8843 0.496582 19.332 0.496582H13.332H7.33203ZM22.332 8.99658V11.9966H8.73203C7.16583 11.9966 5.84696 13.0556 5.45242 14.4966H2.35257C2.60664 11.4168 5.1867 8.99658 8.33203 8.99658H9.33203C9.88432 8.99658 10.332 8.54887 10.332 7.99658V6.99658C10.332 6.4443 10.7797 5.99658 11.332 5.99658H13.332H15.332C15.8843 5.99658 16.332 6.4443 16.332 6.99658V7.99658C16.332 8.54887 16.7797 8.99658 17.332 8.99658H22.332ZM2.33203 20.9966C2.33203 20.1682 3.0036 19.4966 3.83203 19.4966C4.66046 19.4966 5.33203 20.1682 5.33203 20.9966C5.33203 21.825 4.66046 22.4966 3.83203 22.4966C3.0036 22.4966 2.33203 21.825 2.33203 20.9966ZM3.83203 17.4966C1.89903 17.4966 0.332031 19.0636 0.332031 20.9966C0.332031 22.9296 1.89903 24.4966 3.83203 24.4966C5.76503 24.4966 7.33203 22.9296 7.33203 20.9966C7.33203 19.0636 5.76503 17.4966 3.83203 17.4966Z" fill="#163150"/>
</svg>
