<svg viewBox="0 0 25 24" fill="none" xmlns="http://www.w3.org/2000/svg">
<path d="M12.2716 0C10.0346 0 7.97337 0.559254 6.08788 1.67776C4.2024 2.79627 2.71638 4.28229 1.62983 6.13582C0.543276 7.98935 0 10.0346 0 12.2716C0 14.0613 0.351531 15.739 1.05459 17.3049C1.75766 18.8708 2.74834 20.229 4.02663 21.3795C5.30493 22.53 6.74301 23.3928 8.34088 23.968C8.66045 24.032 8.88415 24 9.01198 23.8722C9.13981 23.7443 9.20373 23.5526 9.20373 23.2969V21.2836C8.43675 21.4115 7.78162 21.4274 7.23835 21.3316C6.69507 21.2357 6.26365 21.0599 5.94407 20.8043C5.6245 20.5486 5.4008 20.261 5.27297 19.9414L5.08122 19.5579C4.88948 19.1744 4.69774 18.8549 4.50599 18.5992C4.31425 18.3435 4.1225 18.1198 3.93076 17.9281L3.64314 17.8322C3.19574 17.5126 3.05193 17.3049 3.21172 17.2091C3.3715 17.1132 3.54727 17.0652 3.73901 17.0652C4.1225 17.0652 4.45806 17.1611 4.74567 17.3529C5.03329 17.5446 5.27297 17.7683 5.46471 18.024L5.65646 18.3116C6.10386 19.1425 6.74301 19.5899 7.5739 19.6538C8.08522 19.7177 8.66045 19.6218 9.2996 19.3662C9.36352 18.5992 9.61917 18.0559 10.0666 17.7364C8.40479 17.5446 7.1265 17.0652 6.23169 16.2983C5.01731 15.3395 4.41012 13.7736 4.41012 11.6005C4.41012 10.2583 4.85752 9.17177 5.75233 8.34088C5.36884 7.31824 5.4008 6.23169 5.8482 5.08122H6.13582C6.45539 5.08122 6.83888 5.1771 7.28628 5.36884C7.86152 5.56059 8.50067 5.88016 9.20373 6.32756C10.2264 6.0719 11.249 5.94407 12.2716 5.94407C13.2943 5.94407 14.3169 6.0719 15.3395 6.32756C16.2983 5.68842 17.1611 5.27297 17.9281 5.08122C18.3116 5.01731 18.5672 5.01731 18.6951 5.08122C19.0146 5.78429 19.1425 6.48735 19.0786 7.19041C19.0146 7.63782 18.9188 8.02131 18.7909 8.34088C19.6858 9.2996 20.1332 10.3862 20.1332 11.6005C20.1332 13.7736 19.526 15.3395 18.3116 16.2983C17.4168 17.0013 16.1385 17.4487 14.4767 17.6405C14.988 18.0879 15.2437 18.8549 15.2437 19.9414V23.2969C15.2437 23.4887 15.3236 23.6485 15.4834 23.7763C15.6431 23.9041 15.8828 23.9361 16.2024 23.8722C17.8003 23.3609 19.2383 22.53 20.5166 21.3795C21.7949 20.229 22.7856 18.8708 23.4887 17.3049C24.1917 15.739 24.5433 14.0613 24.5433 12.2716C24.5433 10.0346 24 7.98935 22.9134 6.13582C21.8269 4.28229 20.3409 2.79627 18.4554 1.67776C16.5699 0.559254 14.5087 0 12.2716 0Z" fill="#55B6E2"/>
</svg>
