<svg viewBox="0 0 24 24"  xmlns="http://www.w3.org/2000/svg">
<path fill-rule="evenodd" clip-rule="evenodd" d="M9.07532 3C9.07532 1.34315 10.4185 0 12.0753 0H21C22.6568 0 24 1.34315 24 3V14C24 14.7538 23.1583 15.2422 22.5038 14.8682L19.2344 13H17V18C17 19.6569 15.6569 21 14 21H6.58392L1.49111 23.8712C0.836666 24.2402 0 23.7514 0 23.0001V20V16.6251V7C0 5.34315 1.34315 4 3 4H9.07532V3ZM19.5 11H17V7C17 5.34315 15.6569 4 14 4H11.0753V3C11.0753 2.44771 11.523 2 12.0753 2H21C21.5523 2 22 2.44772 22 3V12.2768L19.9961 11.1318C19.845 11.0454 19.674 11 19.5 11ZM3 6H10.0753H14C14.5523 6 15 6.44772 15 7V12V18C15 18.5523 14.5523 19 14 19H6.32145C6.14938 19 5.98023 19.0444 5.83034 19.1289L2 21.2884V7C2 6.44772 2.44772 6 3 6ZM7.36046 10.786C6.70299 11.8955 4.98239 10.8759 5.63986 9.76642C6.32586 8.60874 7.58183 8.02109 8.74119 8.00054C10.6524 7.96667 12.2813 9.75044 11.7189 11.6547C11.3845 12.7871 10.2816 13.2146 9.70115 14.1604C9.02652 15.2596 7.32197 14.2134 7.9966 13.1142C8.4468 12.3807 10.0526 11.5164 9.75501 10.5786C9.41279 9.50036 7.77552 10.0856 7.36046 10.786ZM7.69622 16.2815C7.69622 15.7292 8.14393 15.2815 8.69622 15.2815H8.72356C9.27585 15.2815 9.72356 15.7292 9.72356 16.2815C9.72356 16.8338 9.27585 17.2815 8.72356 17.2815H8.69622C8.14393 17.2815 7.69622 16.8338 7.69622 16.2815Z" />
</svg>
