<svg viewBox="0 0 24 24" xmlns="http://www.w3.org/2000/svg">
<path fill-rule="evenodd" clip-rule="evenodd" d="M13.77 0.620869C12.7352 -0.206956 11.2649 -0.206956 10.2301 0.620869L1.06346 7.95416C-0.15844 8.93168 -0.35655 10.7147 0.620974 11.9366C1.21754 12.6823 2.11409 13.0467 3.00003 12.9953V23C3.00003 23.5523 3.44775 24 4.00003 24H9.00003C9.55232 24 10 23.5523 10 23V16C10 15.4477 10.4477 15 11 15H13C13.5523 15 14 15.4477 14 16V23C14 23.5523 14.4477 24 15 24H20C20.5523 24 21 23.5523 21 23V12.9953C21.886 13.0467 22.7825 12.6823 23.3791 11.9366C24.3566 10.7147 24.1585 8.93168 22.9366 7.95416L13.77 0.620869ZM19 12.0617L12 6.46174L5.00003 12.0618V22H8.00003V16C8.00003 14.3431 9.34318 13 11 13H13C14.6569 13 16 14.3431 16 16V22H19V12.0617ZM11.4795 2.18261C11.7838 1.93913 12.2163 1.93913 12.5206 2.18261L21.6872 9.51589C22.0466 9.8034 22.1049 10.3278 21.8174 10.6872C21.5299 11.0466 21.0055 11.1048 20.6461 10.8173L12.6247 4.40025C12.2595 4.10808 11.7406 4.10808 11.3753 4.40025L3.354 10.8173C2.99462 11.1048 2.47022 11.0466 2.18271 10.6872C1.89521 10.3278 1.95347 9.8034 2.31285 9.51589L11.4795 2.18261Z"/>
</svg>
