<svg width="24" height="24" viewBox="0 0 24 24" fill="none" xmlns="http://www.w3.org/2000/svg">
<path fill-rule="evenodd" clip-rule="evenodd" d="M1 0C0.447715 0 0 0.447716 0 1V23C0 23.5523 0.447716 24 1 24H23C23.5523 24 24 23.5523 24 23V1C24 0.447715 23.5523 0 23 0H1ZM15.6352 4.67344C14.6895 4.63125 14.4047 4.6207 12 4.6207C9.59531 4.6207 9.31055 4.63125 8.36484 4.67344C7.48945 4.71211 7.01133 4.85977 6.69492 4.98281C6.27656 5.14453 5.97773 5.33789 5.66133 5.6543C5.34844 5.96719 5.15156 6.26953 4.98984 6.68789C4.8668 7.0043 4.71914 7.47891 4.68047 8.35781C4.63828 9.30352 4.62773 9.58828 4.62773 11.993C4.62773 14.3941 4.63828 14.6789 4.68047 15.6281C4.71914 16.5035 4.8668 16.9816 4.98984 17.298C5.15156 17.7164 5.34492 18.0152 5.66133 18.3316C5.97422 18.6445 6.27656 18.8414 6.69492 19.0031C7.01133 19.1262 7.48594 19.2738 8.36484 19.3125C9.31055 19.3547 9.59531 19.3652 12 19.3652C14.4012 19.3652 14.6859 19.3547 15.6352 19.3125C16.5105 19.2738 16.9887 19.1262 17.3051 19.0031C17.7234 18.8414 18.0223 18.648 18.3387 18.3316C18.6516 18.0188 18.8484 17.7164 19.0102 17.298C19.1332 16.9816 19.2809 16.507 19.3195 15.6281C19.3617 14.6824 19.3723 14.3977 19.3723 11.993C19.3723 9.5918 19.3617 9.30703 19.3195 8.35781C19.2809 7.48242 19.1332 7.0043 19.0102 6.68789C18.8484 6.26953 18.6551 5.9707 18.3387 5.6543C18.0258 5.34141 17.7234 5.14453 17.3051 4.98281C16.9887 4.85977 16.5141 4.71211 15.6352 4.67344ZM8.29102 3.05273C9.25078 3.01055 9.55664 3 12 3C14.4434 3 14.7492 3.01055 15.7125 3.05625C16.6688 3.09844 17.3227 3.25312 17.8957 3.47461C18.4863 3.70312 18.9891 4.0125 19.4883 4.51172C19.991 5.01094 20.2969 5.51367 20.5184 6.11133C20.7398 6.68086 20.8945 7.33828 20.9367 8.29453C20.9789 9.2543 20.9895 9.56016 20.9895 12.0035C20.9895 14.4469 20.9789 14.7527 20.9367 15.7125C20.8945 16.6688 20.7398 17.3227 20.5184 17.8957C20.2898 18.4863 19.9805 18.9891 19.4813 19.4883C18.982 19.9875 18.4793 20.2969 17.8887 20.5254C17.3191 20.7469 16.6617 20.9016 15.7055 20.9438C14.7457 20.9859 14.4398 20.9965 11.9965 20.9965C9.55313 20.9965 9.24727 20.9859 8.2875 20.9438C7.33125 20.9016 6.67734 20.7469 6.1043 20.5254C5.51367 20.2969 5.01094 19.9875 4.51172 19.4883C4.00898 18.9891 3.70312 18.4863 3.47109 17.8922C3.24961 17.3227 3.09492 16.6652 3.05273 15.709C3.01055 14.7492 3 14.4434 3 12C3 9.55664 3.01055 9.25078 3.05273 8.2875C3.09492 7.33125 3.24961 6.67734 3.47109 6.1043C3.70312 5.51367 4.00898 5.01094 4.51172 4.51172C5.01094 4.00898 5.51367 3.70312 6.10781 3.47109C6.67734 3.24961 7.33477 3.09492 8.29102 3.05273ZM12 7.37695C9.44766 7.37695 7.37695 9.44766 7.37695 12C7.37695 14.5523 9.44766 16.623 12 16.623C14.5523 16.623 16.623 14.5523 16.623 12C16.623 9.44766 14.5523 7.37695 12 7.37695ZM12 14.9988C10.3441 14.9988 9.00117 13.6559 9.00117 12C9.00117 10.3441 10.3441 9.00117 12 9.00117C13.6559 9.00117 14.9988 10.3441 14.9988 12C14.9988 13.6559 13.6559 14.9988 12 14.9988ZM16.8059 8.27337C17.4 8.27337 17.8852 7.79172 17.8852 7.19407C17.8852 6.59993 17.4 6.11477 16.8059 6.11477C16.2117 6.11477 15.7266 6.59641 15.7266 7.19407C15.7266 7.78821 16.2082 8.27337 16.8059 8.27337Z" fill="#55B6E2"/>
</svg>