<svg viewBox="0 0 24 24" fill="none" xmlns="http://www.w3.org/2000/svg">
<path fill-rule="evenodd" clip-rule="evenodd" d="M9.88567 6.88065V3.3467L6.21444 6.88065H9.88567ZM10.8807 8.88539H4.72789L4.72786 15.4232L7.05898 14.2609C8.38171 13.6014 9.93188 14.5709 9.93188 16.0576V19.704H14.0681V16.0576C14.0681 14.5709 15.6183 13.6014 16.941 14.2609L18.6585 15.1173V2.00475L11.8758 2.00479L11.8758 7.88302C11.8758 8.43661 11.4303 8.88539 10.8807 8.88539ZM20.6486 16.1095V1.00237C20.6486 0.459512 20.1986 0 19.6535 0L10.8807 4.97086e-05C10.6246 5.11425e-05 10.3784 0.0995053 10.1933 0.277723L3.0454 7.15832C2.84894 7.34744 2.7378 7.60927 2.7378 7.88301L2.73776 16.4155L1.10729 17.2285C-0.369095 17.9646 -0.369101 20.0857 1.10729 20.8219L7.05898 23.7894C8.38171 24.4489 9.93188 23.4795 9.93188 21.9927V21.7088H14.0681V21.9927C14.0681 23.4795 15.6183 24.4489 16.941 23.7894L22.8927 20.8219C24.3691 20.0857 24.3691 17.9646 22.8927 17.2285L20.6486 16.1095ZM22.0099 19.0252L16.0582 21.9927V16.0576C18.0508 17.0511 20.0226 18.0343 22.0099 19.0252ZM7.94178 16.0576L1.99009 19.0252L7.94178 21.9927V16.0576Z" fill="#163150"/>
</svg>
