<svg viewBox="0 0 23 24" fill="none" xmlns="http://www.w3.org/2000/svg">
<path fill-rule="evenodd" clip-rule="evenodd" d="M16.1641 0.0343224C16.6976 -0.108619 17.2459 0.207963 17.3889 0.741429L21.9799 17.8755L21.9848 17.8944C22.2348 18.4333 22.3743 19.0338 22.3743 19.667C22.3743 21.996 20.4863 23.884 18.1573 23.884H1C0.447715 23.884 0 23.4363 0 22.884V16.45C0 15.8977 0.447715 15.45 1 15.45H12.1757L8.83717 3.03376C8.76827 2.77749 8.80405 2.50434 8.93663 2.27447C9.06921 2.0446 9.28773 1.87685 9.54405 1.80817L16.1641 0.0343224ZM15.7158 2.22499L19.3016 15.6071C18.9377 15.5047 18.5539 15.45 18.1573 15.45H14.2467L11.0285 3.48098L15.7158 2.22499ZM2 17.45V21.884H18.1573C19.3818 21.884 20.3743 20.8914 20.3743 19.667C20.3743 18.4426 19.3818 17.45 18.1573 17.45H2ZM18.0493 21.0459C18.8109 21.0459 19.4282 20.4285 19.4282 19.667C19.4282 18.9054 18.8109 18.2881 18.0493 18.2881C17.2878 18.2881 16.6704 18.9054 16.6704 19.667C16.6704 20.4285 17.2878 21.0459 18.0493 21.0459Z" fill="#424242"/>
<line x1="5.17346" y1="19.6504" x2="10.1735" y2="19.6504" stroke="#424242" stroke-width="2" stroke-miterlimit="10" stroke-linecap="round" stroke-linejoin="round"/>
</svg>
