<svg viewBox="0 0 24 24" fill="none" xmlns="http://www.w3.org/2000/svg">
<path d="M22.9688 0H1.03125C0.71875 0 0.46875 0.09375 0.28125 0.28125C0.09375 0.46875 0 0.71875 0 1.03125V22.9688C0 23.2812 0.09375 23.5312 0.28125 23.7188C0.46875 23.9062 0.71875 24 1.03125 24H22.9688C23.2812 24 23.5312 23.9062 23.7188 23.7188C23.9062 23.5312 24 23.2812 24 22.9688V1.03125C24 0.71875 23.9062 0.46875 23.7188 0.28125C23.5312 0.09375 23.2812 0 22.9688 0ZM7.125 20.4375H3.5625V9H7.125V20.4375ZM5.34375 7.40625C4.78125 7.40625 4.29688 7.21875 3.89062 6.84375C3.48438 6.46875 3.28125 5.98438 3.28125 5.39062C3.28125 4.79688 3.48438 4.3125 3.89062 3.9375C4.29688 3.5625 4.78125 3.375 5.34375 3.375C5.90625 3.375 6.39062 3.5625 6.79688 3.9375C7.20312 4.3125 7.40625 4.78125 7.40625 5.34375C7.40625 5.90625 7.20312 6.39062 6.79688 6.79688C6.39062 7.20312 5.90625 7.40625 5.34375 7.40625ZM20.4375 20.4375H16.875V14.9062C16.875 13.9688 16.8125 13.2812 16.6875 12.8438C16.4375 12.1562 15.8906 11.8125 15.0469 11.8125C14.2031 11.8125 13.625 12.125 13.3125 12.75C13.0625 13.1875 12.9375 13.875 12.9375 14.8125V20.4375H9.375V9H12.75V10.5938H12.8438C13.0938 10.0938 13.5156 9.65625 14.1094 9.28125C14.7031 8.90625 15.375 8.71875 16.125 8.71875C17.8125 8.71875 18.9688 9.21875 19.5938 10.2188C20.1562 11.0938 20.4375 12.4062 20.4375 14.1562V20.4375Z" fill="#55B6E2"/>
</svg>
