<svg viewBox="0 0 22 24" xmlns="http://www.w3.org/2000/svg">
<path fill-rule="evenodd" clip-rule="evenodd" d="M11 0C6.09569 0 2 3.72614 2 8.46552V11H1C0.447715 11 0 11.4477 0 12V23C0 23.5523 0.447715 24 1 24H21C21.5523 24 22 23.5523 22 23V12C22 11.4477 21.5523 11 21 11H20V8.46552C20 3.72614 15.9043 0 11 0ZM18 11V8.46552C18 4.95871 14.9322 2 11 2C7.06776 2 4 4.95871 4 8.46552V11H7V8.78335C7 6.62459 8.86276 4.99998 11 4.99998C13.1372 4.99998 15 6.62459 15 8.78335V11H18ZM11 6.99998C9.82353 6.99998 9 7.86768 9 8.78335V11H13V8.78335C13 7.86768 12.1765 6.99998 11 6.99998ZM2 13H8H14H20V22H2V13Z"/>
</svg>
