<svg viewBox="0 0 24 24" fill="none" xmlns="http://www.w3.org/2000/svg">
<path d="M22.9688 0H1.03125C0.71875 0 0.46875 0.09375 0.28125 0.28125C0.09375 0.46875 0 0.71875 0 1.03125V22.9688C0 23.2812 0.09375 23.5312 0.28125 23.7188C0.46875 23.9062 0.71875 24 1.03125 24H22.9688C23.2812 24 23.5312 23.9062 23.7188 23.7188C23.9062 23.5312 24 23.2812 24 22.9688V1.03125C24 0.71875 23.9062 0.46875 23.7188 0.28125C23.5312 0.09375 23.2812 0 22.9688 0ZM19.9688 5.71875L18.6562 6.9375C18.5312 7 18.4688 7.125 18.4688 7.3125V16.3125C18.4688 16.5 18.5312 16.625 18.6562 16.6875L19.875 17.9062V18.1875H13.5938V17.9062L14.9062 16.6875L15 16.5V9L11.4375 18.1875H10.875L6.65625 9V15.1875C6.65625 15.4375 6.75 15.6562 6.9375 15.8438L8.625 17.9062V18.1875H3.84375V17.9062L5.53125 15.8438C5.71875 15.6562 5.78125 15.4375 5.71875 15.1875V8.0625C5.71875 7.8125 5.65625 7.625 5.53125 7.5L4.03125 5.71875V5.4375H8.71875L12.2812 13.3125L15.4688 5.4375H19.9688V5.71875Z" fill="#55B6E2"/>
</svg>
