<svg viewBox="0 0 20 24" xmlns="http://www.w3.org/2000/svg">
<path fill-rule="evenodd" clip-rule="evenodd" d="M18.9758 19.2458C19.6082 18.8924 20 18.2245 20 17.5V2C20 0.89543 19.1046 0 18 0H2C1.46957 0 0.960859 0.210714 0.585786 0.585786C0.210714 0.960859 0 1.46957 0 2V17.5C0 18.2206 0.387618 18.8854 1.01468 19.2404L8.96333 23.7404C9.57123 24.0846 10.3146 24.0866 10.9244 23.7458L18.9758 19.2458ZM18 4V17.5L9.94865 22L2 17.5V4V2H4H16H18V4ZM10.8333 5.44713C10.648 5.16788 10.3351 5 10 5C9.66487 5 9.35201 5.16788 9.16673 5.44713L7.63877 7.75005L4.9764 8.49158C4.65356 8.5815 4.39722 8.82717 4.29366 9.1459C4.1901 9.46463 4.25308 9.81405 4.46142 10.0766L6.17945 12.2414L6.06198 15.0026C6.04773 15.3374 6.20216 15.6571 6.47329 15.8541C6.74442 16.0511 7.0962 16.0992 7.41024 15.9821L10 15.0172L12.5898 15.9821C12.9038 16.0992 13.2556 16.0511 13.5267 15.8541C13.7978 15.6571 13.9523 15.3374 13.938 15.0026L13.8205 12.2414L15.5386 10.0766C15.7469 9.81405 15.8099 9.46463 15.7063 9.1459C15.6028 8.82717 15.3464 8.5815 15.0236 8.49158L12.3612 7.75005L10.8333 5.44713ZM9.0993 9.16627L10 7.80875L10.9007 9.16627C11.0336 9.36653 11.2341 9.51225 11.4657 9.57673L13.0351 10.0139L12.0223 11.29C11.8729 11.4782 11.7963 11.714 11.8065 11.9541L11.8758 13.5818L10.3492 13.0129C10.124 12.929 9.87605 12.929 9.65084 13.0129L8.12423 13.5818L8.19348 11.9541C8.2037 11.714 8.12709 11.4782 7.97769 11.29L6.96494 10.0139L8.53435 9.57673C8.76587 9.51225 8.96643 9.36653 9.0993 9.16627Z" />
</svg>
