<svg width='4' viewBox="0 0 4 20" fill="none" xmlns="http://www.w3.org/2000/svg">
<path d="M2 4C3.10457 4 4 3.10457 4 2C4 0.895431 3.10457 0 2 0C0.89543 0 0 0.895431 0 2C0 3.10457 0.89543 4 2 4Z" fill="white"/>
<path d="M2 12C3.10457 12 4 11.1045 4 9.99997C4 8.8954 3.10457 7.99997 2 7.99997C0.89543 7.99997 0 8.8954 0 9.99997C0 11.1045 0.89543 12 2 12Z" fill="white"/>
<path d="M2 20C3.10457 20 4 19.1045 4 18C4 16.8954 3.10457 16 2 16C0.89543 16 0 16.8954 0 18C0 19.1045 0.89543 20 2 20Z" fill="white"/>
</svg>
