<svg viewBox="0 0 25 26" fill="none" xmlns="http://www.w3.org/2000/svg">
<path fill-rule="evenodd" clip-rule="evenodd" d="M6.71224 1.14321C6.325 1.36675 6.13321 1.82019 6.24252 2.25375C6.35184 2.68732 6.73569 2.99562 7.18262 3.00884C9.13383 3.06653 9.93204 3.78679 10.2623 4.47459C10.5074 4.9851 10.5639 5.6173 10.466 6.25395L8.759 5.52796C8.39401 5.37272 7.97177 5.44788 7.68275 5.71952C7.39374 5.99116 7.29259 6.40793 7.42492 6.78183L10.0458 14.1869C10.2292 14.705 10.7963 14.978 11.3157 14.7982L18.9903 12.1404C19.3755 12.007 19.6411 11.6532 19.6617 11.246C19.6824 10.8389 19.4538 10.4601 19.0841 10.2884L17.2088 9.41788C17.7848 6.48855 16.9381 3.65245 15.1269 1.85695C13.0884 -0.16373 9.96117 -0.732251 6.71224 1.14321ZM12.0652 3.60894C11.7577 2.96849 11.2999 2.42306 10.6906 1.99942C11.9066 2.0081 12.9403 2.50553 13.7188 3.27733C15.1296 4.67579 15.8347 7.1105 15.0838 9.70136C14.9463 10.1755 15.1754 10.6789 15.6232 10.8868L15.9972 11.0604L11.5998 12.5833L10.0691 8.25853L10.7252 8.53757C10.9714 8.64225 11.2492 8.64396 11.4966 8.54231C11.744 8.44066 11.9404 8.24412 12.0419 7.99662C12.5588 6.73554 12.76 5.05602 12.0652 3.60894ZM0.633464 7.86723C0.261297 8.01384 0.0123079 8.36814 0.000442642 8.76797C-0.0114227 9.1678 0.216119 9.53623 0.578937 9.70466L2.45419 10.5752C1.87818 13.5045 2.72488 16.3406 4.53617 18.1361C6.57461 20.1568 9.70186 20.7253 12.9508 18.8499C13.338 18.6263 13.5298 18.1729 13.4205 17.7393C13.3112 17.3058 12.9273 16.9975 12.4804 16.9842C11.1039 16.9435 10.3119 16.5677 9.86163 16.1468C9.41381 15.7282 9.18996 15.1587 9.15587 14.5001C9.12733 13.9485 8.65707 13.5245 8.10552 13.5531C7.55398 13.5816 7.13 14.0519 7.15855 14.6034C7.21332 15.6616 7.5915 16.7625 8.49588 17.6078C8.64399 17.7463 8.80312 17.875 8.97324 17.9937C7.75695 17.9852 6.72295 17.4877 5.94418 16.7157C4.53343 15.3173 3.82835 12.8826 4.57927 10.2917C4.71668 9.81761 4.48759 9.31416 4.03986 9.10631L3.53711 8.87292L5.94257 7.92527C6.45642 7.72284 6.70887 7.14218 6.50644 6.62833C6.304 6.11448 5.72334 5.86203 5.2095 6.06447L0.633464 7.86723ZM20.659 15.9353C20.4707 15.6576 20.1556 15.4928 19.8201 15.4966C19.4845 15.5004 19.1733 15.6723 18.9913 15.9542L16.9844 19.0627C16.6849 19.5267 16.8182 20.1457 17.2822 20.4452C17.7462 20.7448 18.3652 20.6115 18.6647 20.1475L19.8519 18.3085L21.112 20.1664C21.422 20.6235 22.0438 20.7427 22.5009 20.4327C22.958 20.1227 23.0772 19.5009 22.7672 19.0438L20.659 15.9353ZM16.9162 21.1616C16.4684 20.8383 15.8433 20.9392 15.52 21.387C15.1968 21.8348 15.2977 22.4598 15.7455 22.7831L19.246 25.3104C19.5955 25.5627 20.0673 25.5627 20.4167 25.3104L23.9173 22.7831C24.3651 22.4598 24.466 21.8348 24.1427 21.387C23.8195 20.9392 23.1944 20.8383 22.7466 21.1616L19.8314 23.2662L16.9162 21.1616Z" fill="#163150"/>
</svg>
