<svg width="24" height="24" viewBox="0 0 24 24" fill="none" xmlns="http://www.w3.org/2000/svg">
<path fill-rule="evenodd" clip-rule="evenodd" d="M7.86915 3.48023C7.74886 3.00315 7.9599 2.50419 8.38602 2.25821C11.9611 0.19449 15.4022 0.820078 17.6453 3.04359C19.6384 5.01933 20.5701 8.14012 19.9363 11.3635L21.9998 12.3214C22.4066 12.5103 22.6581 12.9272 22.6354 13.3752C22.6127 13.8232 22.3204 14.2125 21.8965 14.3593L13.4516 17.2839C12.8801 17.4818 12.256 17.1814 12.0542 16.6112L9.17024 8.46284C9.02462 8.05141 9.13593 7.5928 9.45396 7.29389C9.77198 6.99499 10.2366 6.91229 10.6382 7.0831L12.5166 7.88198C12.6243 7.18142 12.5621 6.48575 12.2924 5.924C11.929 5.16716 11.0507 4.37459 8.90362 4.31111C8.41182 4.29657 7.98944 3.95732 7.86915 3.48023ZM12.7638 3.20037C13.4342 3.66654 13.938 4.26671 14.2763 4.97145C15.0409 6.56379 14.8195 8.4119 14.2507 9.79957C14.139 10.0719 13.9229 10.2882 13.6507 10.4C13.3784 10.5119 13.0727 10.51 12.8018 10.3948L12.0799 10.0878L13.7642 14.8466L18.603 13.1709L18.1914 12.9798C17.6987 12.7511 17.4467 12.1971 17.5979 11.6754C18.4242 8.8245 17.6483 6.14539 16.0959 4.60656C15.2392 3.75728 14.1017 3.20992 12.7638 3.20037ZM1.00049 10.6483C1.01354 10.2084 1.28753 9.81852 1.69705 9.65719L6.73243 7.67347C7.29786 7.45071 7.9368 7.7285 8.15956 8.29393C8.38231 8.85936 8.10452 9.49831 7.53909 9.72106L4.89217 10.7638L5.44539 11.0207C5.93806 11.2494 6.19015 11.8034 6.03894 12.3251C5.21264 15.176 5.9885 17.8551 7.54086 19.3939C8.39781 20.2434 9.5356 20.7908 10.874 20.8001C10.6868 20.6696 10.5117 20.5279 10.3487 20.3756C9.35353 19.4453 8.93739 18.234 8.87713 17.0696C8.84572 16.4627 9.31225 15.9452 9.91916 15.9138C10.5261 15.8824 11.0435 16.3489 11.0749 16.9558C11.1125 17.6806 11.3588 18.3072 11.8515 18.7679C12.347 19.231 13.2185 19.6446 14.7332 19.6894C15.225 19.7039 15.6474 20.0432 15.7677 20.5203C15.8879 20.9973 15.6769 21.4963 15.2508 21.7423C11.6757 23.806 8.23457 23.1804 5.99151 20.9569C3.99841 18.9812 3.06671 15.8604 3.70054 12.637L1.63705 11.6791C1.23781 11.4937 0.987431 11.0883 1.00049 10.6483Z" fill="#163150"/>
</svg>
