<svg viewBox="0 0 25 27" fill="none" xmlns="http://www.w3.org/2000/svg">
<path fill-rule="evenodd" clip-rule="evenodd" d="M6.71322 1.14321C6.32597 1.36675 6.13418 1.82019 6.2435 2.25375C6.35282 2.68732 6.73666 2.99562 7.1836 3.00884C9.13481 3.06653 9.93302 3.78679 10.2633 4.47459C10.5084 4.9851 10.5649 5.6173 10.467 6.25395L8.75997 5.52796C8.39498 5.37272 7.97274 5.44788 7.68373 5.71952C7.39472 5.99116 7.29357 6.40793 7.4259 6.78183L10.0468 14.1869C10.2301 14.705 10.7973 14.978 11.3167 14.7982L18.9912 12.1404C19.3764 12.007 19.6421 11.6532 19.6627 11.246C19.6833 10.8389 19.4548 10.4601 19.0851 10.2884L17.2098 9.41788C17.7858 6.48855 16.9391 3.65245 15.1278 1.85695C13.0894 -0.16373 9.96214 -0.732251 6.71322 1.14321ZM12.0662 3.60894C11.7587 2.96849 11.3009 2.42306 10.6916 1.99942C11.9075 2.0081 12.9412 2.50553 13.7198 3.27733C15.1306 4.67579 15.8357 7.1105 15.0847 9.70136C14.9473 10.1755 15.1764 10.6789 15.6241 10.8868L15.9981 11.0604L11.6008 12.5833L10.0701 8.25853L10.7262 8.53757C10.9724 8.64225 11.2502 8.64396 11.4976 8.54231C11.745 8.44066 11.9414 8.24412 12.0429 7.99662C12.5598 6.73554 12.761 5.05602 12.0662 3.60894ZM0.634441 7.86723C0.262274 8.01384 0.0132845 8.36814 0.0014192 8.76797C-0.0104461 9.1678 0.217096 9.53623 0.579913 9.70466L2.45517 10.5752C1.87915 13.5045 2.72586 16.3406 4.53715 18.1361C6.57559 20.1568 9.70283 20.7253 12.9518 18.8499C13.339 18.6263 13.5308 18.1729 13.4215 17.7393C13.3122 17.3058 12.9283 16.9975 12.4814 16.9842C11.1049 16.9435 10.3129 16.5677 9.86261 16.1468C9.41478 15.7282 9.19094 15.1587 9.15685 14.5001C9.1283 13.9485 8.65805 13.5245 8.1065 13.5531C7.55495 13.5816 7.13098 14.0519 7.15952 14.6034C7.21429 15.6616 7.59247 16.7625 8.49685 17.6078C8.64497 17.7463 8.8041 17.875 8.97422 17.9937C7.75793 17.9852 6.72393 17.4877 5.94516 16.7157C4.53441 15.3173 3.82932 12.8826 4.58025 10.2917C4.71766 9.81761 4.48857 9.31416 4.04084 9.10631L3.53809 8.87292L5.94355 7.92527C6.4574 7.72284 6.70985 7.14218 6.50741 6.62833C6.30498 6.11448 5.72432 5.86203 5.21047 6.06447L0.634441 7.86723ZM24.1895 14.482C24.4737 14.9556 24.3201 15.5698 23.8465 15.854L23.2314 16.2231C23.297 16.4699 23.332 16.7291 23.332 16.9966C23.332 18.3028 22.4972 19.414 21.332 19.8259V20.6673C22.4972 21.0791 23.332 22.1904 23.332 23.4966C23.332 25.1534 21.9889 26.4966 20.332 26.4966C18.6752 26.4966 17.332 25.1534 17.332 23.4966C17.332 22.1904 18.1668 21.0791 19.332 20.6673V19.8259C18.1668 19.414 17.332 18.3028 17.332 16.9966C17.332 15.3397 18.6752 13.9966 20.332 13.9966C20.992 13.9966 21.6023 14.2097 22.0977 14.5709L22.8175 14.139C23.2911 13.8548 23.9054 14.0084 24.1895 14.482ZM20.332 15.9966C19.7797 15.9966 19.332 16.4443 19.332 16.9966C19.332 17.5489 19.7797 17.9966 20.332 17.9966C20.8843 17.9966 21.332 17.5489 21.332 16.9966C21.332 16.4443 20.8843 15.9966 20.332 15.9966ZM20.332 22.4966C19.7797 22.4966 19.332 22.9443 19.332 23.4966C19.332 24.0489 19.7797 24.4966 20.332 24.4966C20.8843 24.4966 21.332 24.0489 21.332 23.4966C21.332 22.9443 20.8843 22.4966 20.332 22.4966Z" fill="#163150"/>
</svg>
