<svg viewBox="0 0 25 26" fill="none" xmlns="http://www.w3.org/2000/svg">
<path fill-rule="evenodd" clip-rule="evenodd" d="M6.71322 1.14321C6.32597 1.36675 6.13418 1.82019 6.2435 2.25375C6.35282 2.68732 6.73666 2.99562 7.1836 3.00884C9.13481 3.06653 9.93302 3.78679 10.2633 4.47459C10.5084 4.9851 10.5649 5.6173 10.467 6.25395L8.75997 5.52796C8.39498 5.37272 7.97274 5.44788 7.68373 5.71952C7.39472 5.99116 7.29357 6.40793 7.4259 6.78183L10.0468 14.1869C10.2301 14.705 10.7973 14.978 11.3167 14.7982L18.9912 12.1404C19.3764 12.007 19.6421 11.6532 19.6627 11.246C19.6833 10.8389 19.4548 10.4601 19.0851 10.2884L17.2098 9.41788C17.7858 6.48855 16.9391 3.65245 15.1278 1.85695C13.0894 -0.16373 9.96214 -0.732251 6.71322 1.14321ZM12.0662 3.60894C11.7587 2.96849 11.3009 2.42306 10.6916 1.99942C11.9075 2.0081 12.9412 2.50553 13.7198 3.27733C15.1306 4.67579 15.8357 7.1105 15.0847 9.70136C14.9473 10.1755 15.1764 10.6789 15.6241 10.8868L15.9981 11.0604L11.6008 12.5833L10.0701 8.25853L10.7262 8.53757C10.9724 8.64225 11.2502 8.64396 11.4976 8.54231C11.745 8.44066 11.9414 8.24412 12.0429 7.99662C12.5598 6.73554 12.761 5.05602 12.0662 3.60894ZM0.634441 7.86723C0.262274 8.01384 0.0132845 8.36814 0.0014192 8.76797C-0.0104461 9.1678 0.217096 9.53623 0.579913 9.70466L2.45517 10.5752C1.87915 13.5045 2.72586 16.3406 4.53715 18.1361C6.57559 20.1568 9.70283 20.7253 12.9518 18.8499C13.339 18.6263 13.5308 18.1729 13.4215 17.7393C13.3122 17.3058 12.9283 16.9975 12.4814 16.9842C11.1049 16.9435 10.3129 16.5677 9.86261 16.1468C9.41478 15.7282 9.19094 15.1587 9.15685 14.5001C9.1283 13.9485 8.65805 13.5245 8.1065 13.5531C7.55495 13.5816 7.13098 14.0519 7.15952 14.6034C7.21429 15.6616 7.59247 16.7625 8.49685 17.6078C8.64497 17.7463 8.8041 17.875 8.97422 17.9937C7.75793 17.9852 6.72393 17.4877 5.94516 16.7157C4.53441 15.3173 3.82932 12.8826 4.58025 10.2917C4.71766 9.81761 4.48857 9.31416 4.04084 9.10631L3.53809 8.87292L5.94355 7.92527C6.4574 7.72284 6.70985 7.14218 6.50741 6.62833C6.30498 6.11448 5.72432 5.86203 5.21047 6.06447L0.634441 7.86723ZM17.4704 16.2642C17.5426 15.7734 17.9991 15.4341 18.4899 15.5064C19.744 15.6911 21.2553 16.1319 22.2001 16.9335C22.582 17.2574 22.8053 17.7045 22.9425 18.055C23.0458 18.3188 23.1222 18.5872 23.1797 18.8161C23.4708 19.1294 23.8709 19.6292 24.1132 20.248C24.4343 21.0681 24.4785 22.1256 23.6696 23.1215C23.4966 23.3345 23.2357 23.4567 22.9614 23.4534C22.687 23.45 22.4292 23.3214 22.2615 23.1042C22.1154 22.9151 21.9077 22.8225 21.7396 22.8148C21.5906 22.808 21.5074 22.8606 21.4527 22.9539C21.4174 23.0142 21.386 23.1236 21.4104 23.2266C21.4262 23.2934 21.5032 23.5276 22.0271 23.7948C22.469 24.0202 22.6446 24.5611 22.4192 25.003C22.1938 25.445 21.6529 25.6205 21.2109 25.3951C20.6893 25.1291 20.296 24.8033 20.0288 24.4336C19.0175 24.6392 17.6544 24.6248 16.398 23.871L16.3966 23.8701C15.0074 23.0331 14.3586 21.8428 14.2704 20.6435C14.234 20.1488 14.6055 19.7182 15.1003 19.6818C15.595 19.6454 16.0256 20.017 16.062 20.5117C16.1055 21.1034 16.411 21.7812 17.323 22.3309C18.0909 22.7913 18.973 22.8141 19.6572 22.6767C19.7131 22.4249 19.8069 22.2093 19.9026 22.0459C20.3385 21.3017 21.0979 20.9873 21.8213 21.0202C22.0566 21.0309 22.2908 21.0776 22.5157 21.1573C22.4998 21.0728 22.4738 20.9883 22.4403 20.903C22.2799 20.4931 21.9556 20.1237 21.7333 19.905C21.6114 19.7849 21.5262 19.6325 21.4879 19.4657C21.43 19.2133 21.3621 18.9462 21.2696 18.7098C21.1707 18.4569 21.0813 18.3402 21.0379 18.3034C20.4819 17.8316 19.3791 17.4532 18.2281 17.2837C17.7373 17.2114 17.3981 16.7549 17.4704 16.2642ZM18.8722 18.7762C19.1069 18.3391 19.6514 18.1751 20.0885 18.4098L20.1351 18.4348C20.5721 18.6695 20.7362 19.2141 20.5015 19.6511C20.2668 20.0882 19.7222 20.2522 19.2852 20.0175L19.2386 19.9925C18.8015 19.7578 18.6375 19.2132 18.8722 18.7762Z" fill="#163150"/>
</svg>
