<svg viewBox="0 0 24 24" fill="none" xmlns="http://www.w3.org/2000/svg">
<path d="M8.82843 10.9142H3M3 10.9142C1.89543 10.9142 1 10.0187 1 8.91416V6.91416C1 5.80959 1.89543 4.91416 3 4.91416H21C22.1046 4.91416 23 5.80959 23 6.91416V8.91416C23 10.0187 22.1046 10.9142 21 10.9142M3 10.9142L3 20.9142C3 22.0187 3.89543 22.9142 5 22.9142H19C20.1046 22.9142 21 22.0187 21 20.9142V10.9142M21 10.9142H15M12 22.9142V4.91416M12 4.91416L15.335 1.58582C16.116 0.804767 17.3823 0.804767 18.1634 1.58582C18.9444 2.36686 18.9444 3.63314 18.1634 4.41418L17.6569 4.91413M12 4.91416L8.82843 1.58579C8.04738 0.804738 6.78105 0.804738 6 1.58579C5.28514 2.30065 5.22456 3.42198 5.81826 4.20573C5.92938 4.35242 6.0524 4.4905 6.15654 4.64223L6.34315 4.91413" stroke="#424242" stroke-width="2" stroke-linecap="round" stroke-linejoin="round" fill="transparent"/>
</svg>
