<svg viewBox="0 0 24 24" fill="none" xmlns="http://www.w3.org/2000/svg">
<path fill-rule="evenodd" clip-rule="evenodd" d="M2 6C2 3.79086 3.79086 2 6 2H8.5C9.05229 2 9.5 1.55228 9.5 1C9.5 0.447715 9.05229 0 8.5 0H6C2.68629 0 0 2.68629 0 6V18C0 21.3137 2.68629 24 6 24H18C21.3137 24 24 21.3137 24 18V15.5C24 14.9477 23.5523 14.5 23 14.5C22.4477 14.5 22 14.9477 22 15.5V18C22 20.2091 20.2091 22 18 22H6C3.79086 22 2 20.2091 2 18V6ZM14.0212 0C12.3138 0 11.4165 2.06677 12.6547 3.29401L12.6551 3.29442L13.8522 4.48162L7.53204 10.7307C7.13931 11.119 7.13574 11.7522 7.52405 12.1449C7.91236 12.5376 8.54551 12.5412 8.93824 12.1529L15.9765 5.19379C16.1663 5.00612 16.2732 4.75037 16.2734 4.48345C16.2736 4.21654 16.1671 3.96062 15.9775 3.77267L14.1901 2H22V9.73619L20.2042 7.95525C19.8132 7.56751 19.1823 7.56882 18.7929 7.9582L13.9582 12.7929C13.5677 13.1834 13.5677 13.8166 13.9582 14.2071C14.3487 14.5976 14.9819 14.5976 15.3724 14.2071L19.5029 10.0766L20.6968 11.2606L20.6972 11.2609C21.9046 12.457 24 11.6294 24 9.8944V1.92787C24 0.854256 23.124 0 22.0633 0H14.0212Z" fill="#55B6E2"/>
</svg>
