<svg viewBox="0 0 24 24" fill="none" xmlns="http://www.w3.org/2000/svg">
<path fill-rule="evenodd" clip-rule="evenodd" d="M5.29289 0.292893C5.48043 0.105357 5.73478 0 6 0H20.5C21.0523 0 21.5 0.447715 21.5 1V5.66891C22.8386 6.44326 23.7849 7.82038 23.9678 9.42913C23.9888 9.50979 23.9999 9.59441 23.9999 9.68164C23.9999 9.71458 23.9983 9.74716 23.9952 9.77928C23.9984 9.85246 24 9.92604 24 10V16C24 18.5927 22.0267 20.7245 19.5 20.9753V22H20.75C21.3023 22 21.75 22.4477 21.75 23C21.75 23.5523 21.3023 24 20.75 24H18.5H16.25C15.6977 24 15.25 23.5523 15.25 23C15.25 22.4477 15.6977 22 16.25 22H17.5V21H3.5C1.567 21 0 19.433 0 17.5V4.17647C0 3.62419 0.447715 3.17647 1 3.17647H5V1C5 0.734784 5.10536 0.48043 5.29289 0.292893ZM18.5 19H19C20.6569 19 22 17.6569 22 16V14.0186H19.6249C19.0727 14.0186 18.6249 13.5709 18.6249 13.0186C18.6249 12.4663 19.0727 12.0186 19.6249 12.0186H22V10.6816H19.6249C19.0727 10.6816 18.6249 10.2339 18.6249 9.68164C18.6249 9.12936 19.0727 8.68164 19.6249 8.68164H21.6955C21.2075 7.68572 20.1838 7 19 7H18C16.3431 7 15 8.34315 15 10V16C15 17.6569 16.3431 19 18 19H18.5ZM19.5 2V5.02469C19.3355 5.00836 19.1687 5 19 5H18C15.2386 5 13 7.23858 13 10V16C13 17.1256 13.3719 18.1643 13.9996 19H6.66318C6.87915 18.5454 7 18.0368 7 17.5V4.17647V2H19.5ZM5 5.17647H2V17.5C2 18.3284 2.67157 19 3.5 19C4.32843 19 5 18.3284 5 17.5V5.17647Z" fill="#424242"/>
</svg>
