<svg viewBox="0 0 24 24" fill="none" xmlns="http://www.w3.org/2000/svg">
<path fill-rule="evenodd" clip-rule="evenodd" d="M7 0C3.13401 0 0 3.13401 0 7V17C0 20.866 3.13401 24 7 24H17C20.866 24 24 20.866 24 17V7C24 3.13401 20.866 0 17 0H7ZM2 7C2 4.23858 4.23858 2 7 2H17C19.7614 2 22 4.23858 22 7V17C22 19.7614 19.7614 22 17 22H7C4.23858 22 2 19.7614 2 17V7ZM10 9.5C10 8.39543 10.8954 7.5 12 7.5C13.1046 7.5 14 8.39543 14 9.5C14 10.2087 13.6321 10.8321 13.0722 11.1887C12.7625 11.386 12.5858 11.7372 12.612 12.1034L12.926 16.5H11.074L11.388 12.1034C11.4142 11.7372 11.2375 11.386 10.9278 11.1887C10.3679 10.8321 10 10.2087 10 9.5ZM12 5.5C9.79086 5.5 8 7.29086 8 9.5C8 10.6957 8.52516 11.7683 9.35458 12.5002L9.00254 17.4288C8.98276 17.7056 9.07897 17.9783 9.26814 18.1815C9.4573 18.3846 9.72241 18.5 10 18.5H14C14.2776 18.5 14.5427 18.3846 14.7319 18.1815C14.921 17.9783 15.0172 17.7056 14.9975 17.4288L14.6454 12.5002C15.4748 11.7683 16 10.6957 16 9.5C16 7.29086 14.2091 5.5 12 5.5Z" fill="#424242"/>
</svg>
