<svg viewBox="0 0 20 21" fill="none" xmlns="http://www.w3.org/2000/svg">
<path fill-rule="evenodd" clip-rule="evenodd" d="M14.81 3.6072C13.242 2.42764 11.2951 1.86535 9.33953 2.02732C7.38392 2.1893 5.55612 3.06423 4.2037 4.48564C2.85128 5.90704 2.06856 7.77577 2.0043 9.73644C1.94004 11.6971 2.59872 13.6131 3.85515 15.1199C5.11159 16.6268 6.87817 17.6195 8.81897 17.9091C10.3492 18.1375 11.9034 17.9162 13.2973 17.2858L13.1241 17.1127C12.7336 16.7222 12.7336 16.0891 13.1241 15.6986C13.5147 15.3081 14.1479 15.3081 14.5384 15.6986L18.1332 19.2927C18.5237 19.6832 18.5237 20.3163 18.1332 20.7068C17.7426 21.0973 17.1094 21.0973 16.7188 20.7068L14.788 18.7762C12.883 19.815 10.6842 20.2096 8.52377 19.8872C6.09788 19.5252 3.88966 18.2844 2.31906 16.4007C0.748466 14.5171 -0.074963 12.122 0.00536916 9.67093C0.0857014 7.21988 1.06419 4.88382 2.75476 3.10702C4.44533 1.33022 6.73005 0.236604 9.17445 0.0341473C11.6188 -0.16831 14.0524 0.534515 16.0123 2.00896C17.9723 3.48341 19.3219 5.62664 19.8045 8.03106C20.2369 10.185 19.9464 12.414 18.9903 14.3765L19.4161 14.8022C19.8066 15.1927 19.8066 15.8258 19.4161 16.2163C19.0255 16.6068 18.3923 16.6068 18.0018 16.2163L14.6108 12.8259C14.2202 12.4354 14.2202 11.8023 14.6108 11.4118C15.0014 11.0213 15.6346 11.0213 16.0251 11.4118L17.4713 12.8578C18.0091 11.4533 18.1431 9.91647 17.8436 8.42466C17.4576 6.50127 16.3779 4.78676 14.81 3.6072Z" fill="#424242"/>
</svg>
