<svg viewBox="0 0 24 24" xmlns="http://www.w3.org/2000/svg">
<path fill-rule="evenodd" clip-rule="evenodd" d="M13.7525 21.6021L23.7025 11.6328C24.0926 11.2418 24.0926 10.6081 23.7025 10.2172C23.3123 9.82627 22.6798 9.82627 22.2896 10.2172L16.0383 16.4807C16.1322 15.2208 15.9312 13.9449 15.434 12.7652L19.6414 11.7944C20.3928 11.6211 20.668 10.6567 20.1237 10.1115L18.945 8.93104L20.8777 6.99529C21.268 6.60445 21.268 5.9708 20.8777 5.57997C20.4875 5.18914 19.8549 5.18914 19.4646 5.57997L16.8253 8.22338C16.4351 8.61421 16.4351 9.24787 16.8253 9.6387L17.4352 10.2495L12.0358 11.4953L13.219 6.02671L13.809 6.61765C14.1992 7.00848 14.8319 7.00848 15.2221 6.61765L20.1237 1.70844C20.5139 1.31761 20.5139 0.683953 20.1237 0.293122C19.7334 -0.0977072 19.1008 -0.0977073 18.7106 0.293122L14.5156 4.49467L13.3369 3.31417C12.7878 2.76424 11.818 3.05111 11.6538 3.80989L10.6749 8.33421C9.64873 7.98626 8.56489 7.85357 7.49288 7.93536L9.28659 6.13816C9.67674 5.74725 9.67674 5.11348 9.28659 4.72257C8.89645 4.33167 8.2639 4.33167 7.87376 4.72257L2.38974 10.2172C0.319546 12.2915 -0.409849 15.2051 0.218071 17.8539C0.54356 19.2499 1.2479 20.5732 2.33354 21.6606C3.454 22.7828 4.82543 23.4982 6.26864 23.8096C8.87509 24.3814 11.7183 23.6403 13.7525 21.6021ZM10.2481 10.3072C8.09779 9.48459 5.55206 9.95025 3.7977 11.7074C2.23123 13.2763 1.69398 15.4734 2.1792 17.4579C2.43427 18.4794 2.95857 19.4438 3.7512 20.238C4.60649 21.095 5.65963 21.6389 6.76867 21.8686C8.68579 22.2564 10.7675 21.7002 12.2712 20.1941C14.1668 18.2955 14.5564 15.4725 13.4467 13.2237L10.9501 13.7998C10.2479 13.9618 9.59713 13.3158 9.74928 12.6126L10.2481 10.3072ZM7.04798 18.2974L7.04797 16.9603H5.7109C4.42121 16.9603 4.42121 14.9603 5.7109 14.9603H7.04797V13.6233C7.04797 12.3336 9.04797 12.3336 9.04797 13.6233L9.04797 14.9603H10.3851C11.6747 14.9603 11.6747 16.9603 10.3851 16.9603H9.04797V18.2974C9.04797 19.5871 7.04798 19.5871 7.04798 18.2974Z"/>
</svg>
