<svg viewBox="0 0 29 24" fill="none" xmlns="http://www.w3.org/2000/svg">
<path d="M28.6884 11.7209C28.6884 10.7535 28.3535 9.93488 27.6837 9.26512C27.014 8.59535 26.1953 8.26046 25.2279 8.26046C24.4837 8.26046 23.7767 8.52093 23.107 9.04186C21.0233 7.70233 18.493 6.95814 15.5163 6.8093L16.9674 2.0093L21.0977 3.01395C21.1721 3.75814 21.4698 4.3907 21.9907 4.91163C22.5116 5.43256 23.1628 5.69302 23.9442 5.69302C24.7256 5.69302 25.3953 5.41395 25.9535 4.85581C26.5116 4.29767 26.7907 3.62791 26.7907 2.84651C26.7907 2.06512 26.5116 1.39535 25.9535 0.837209C25.3953 0.27907 24.707 0 23.8884 0C23.3674 0 22.8837 0.130233 22.4372 0.390698C21.9907 0.651163 21.6186 1.04186 21.3209 1.56279L16.6326 0.446512C16.4093 0.372093 16.2047 0.372093 16.0186 0.446512C15.8326 0.52093 15.7023 0.669767 15.6279 0.893023L13.8419 6.8093C10.7163 6.8093 7.96279 7.55349 5.5814 9.04186C4.98605 8.52093 4.26047 8.26046 3.40465 8.26046C2.54884 8.26046 1.76744 8.61395 1.06047 9.32093C0.353488 10.0279 0 10.8279 0 11.7209C0 12.3163 0.148837 12.8558 0.446512 13.3395C0.744186 13.8233 1.11628 14.214 1.56279 14.5116C1.48837 14.7349 1.45116 15.0326 1.45116 15.4047C1.45116 16.5953 1.78605 17.7302 2.45581 18.8093C3.12558 19.8884 4.07442 20.8186 5.30233 21.6C6.53023 22.3814 7.90698 22.9767 9.43256 23.386C10.9581 23.7953 12.5767 24 14.2884 24C16 24 17.6186 23.7953 19.1442 23.386C20.6698 22.9767 22.0465 22.3814 23.2744 21.6C24.5023 20.8186 25.4512 19.8884 26.1209 18.8093C26.7907 17.7302 27.1256 16.5953 27.1256 15.4047C27.1256 15.107 27.0884 14.8465 27.014 14.6233C27.5349 14.3256 27.9442 13.9163 28.2419 13.3953C28.5395 12.8744 28.6884 12.3163 28.6884 11.7209ZM23.8884 1.45116C24.2605 1.45116 24.5767 1.5814 24.8372 1.84186C25.0977 2.10233 25.2279 2.4186 25.2279 2.7907C25.2279 3.16279 25.0977 3.47907 24.8372 3.73953C24.5767 4 24.2791 4.13023 23.9442 4.13023C23.6093 4.13023 23.3116 4 23.0512 3.73953C22.7907 3.47907 22.6605 3.16279 22.6605 2.7907C22.6605 2.4186 22.7907 2.10233 23.0512 1.84186C23.3116 1.5814 23.5907 1.45116 23.8884 1.45116ZM8.26046 13.8419C8.26046 13.2465 8.44651 12.7628 8.8186 12.3907C9.1907 12.0186 9.63721 11.8326 10.1581 11.8326C10.6791 11.8326 11.1256 12.0186 11.4977 12.3907C11.8698 12.7628 12.0558 13.2279 12.0558 13.786C12.0558 14.3442 11.8698 14.8093 11.4977 15.1814C11.1256 15.5535 10.6791 15.7395 10.1581 15.7395C9.63721 15.7395 9.1907 15.5535 8.8186 15.1814C8.44651 14.8093 8.26046 14.3628 8.26046 13.8419ZM19.0884 19.5349C18.1209 20.5023 16.5581 20.986 14.4 20.986C12.2419 20.986 10.6791 20.5023 9.71163 19.5349C9.56279 19.386 9.48837 19.2 9.48837 18.9767C9.48837 18.7535 9.56279 18.5674 9.71163 18.4186C9.86047 18.2698 10.0465 18.1953 10.2698 18.1953C10.493 18.1953 10.6791 18.2698 10.8279 18.4186C11.4977 19.0884 12.6884 19.4233 14.4 19.4233C16.1116 19.4233 17.3023 19.0884 17.9721 18.4186C18.1209 18.2698 18.307 18.1953 18.5302 18.1953C18.7535 18.1953 18.9395 18.2698 19.0884 18.4186C19.2372 18.5674 19.3116 18.7535 19.3116 18.9767C19.3116 19.2 19.2372 19.386 19.0884 19.5349ZM18.6419 15.7395C18.1209 15.7395 17.6558 15.5535 17.2465 15.1814C16.8372 14.8093 16.6326 14.3628 16.6326 13.8419C16.6326 13.3209 16.8372 12.8558 17.2465 12.4465C17.6558 12.0372 18.1209 11.8326 18.6419 11.8326C19.1628 11.8326 19.6093 12.0372 19.9814 12.4465C20.3535 12.8558 20.5395 13.3209 20.5395 13.8419C20.5395 14.3628 20.3535 14.8093 19.9814 15.1814C19.6093 15.5535 19.1628 15.7395 18.6419 15.7395Z" fill="#55B6E2"/>
</svg>
