<svg viewBox="0 0 24 24" xmlns="http://www.w3.org/2000/svg">
<path fill-rule="evenodd" clip-rule="evenodd" d="M10.2425 2.39439L0.292605 12.3638C-0.0975377 12.7547 -0.0975347 13.3885 0.292612 13.7794C0.682758 14.1703 1.31531 14.1703 1.70545 13.7794L7.95778 7.51481C7.8637 8.775 8.06461 10.0513 8.56189 11.2312L4.35373 12.2021C3.99969 12.2838 3.71782 12.5515 3.6176 12.9013C3.51737 13.251 3.61459 13.6277 3.87149 13.885L5.05014 15.0655L3.11741 17.0013C2.72719 17.3921 2.72719 18.0257 3.11741 18.4166C3.50763 18.8074 4.1403 18.8074 4.53051 18.4166L7.1698 15.7732C7.56002 15.3823 7.56002 14.7487 7.1698 14.3578L6.55996 13.7471L11.9593 12.5013L10.7761 17.9698L10.1861 17.3789C9.79591 16.9881 9.16324 16.9881 8.77302 17.3789L3.87149 22.2881C3.48127 22.6789 3.48127 23.3126 3.87149 23.7034C4.26171 24.0943 4.89438 24.0943 5.28459 23.7034L9.47957 19.5019L10.6582 20.6824C10.9168 20.9413 11.2959 21.0382 11.6467 20.9348C11.9975 20.8315 12.2639 20.5446 12.3413 20.1867L13.3203 15.6621C14.3464 16.0101 15.4302 16.1429 16.5021 16.0613L14.7085 17.8584C14.3183 18.2493 14.3183 18.883 14.7085 19.274C15.0986 19.6649 15.7312 19.6649 16.1213 19.274L21.6053 13.7793C23.617 11.7637 24.3626 8.95561 23.827 6.36804C23.5269 4.88934 22.8063 3.48166 21.6624 2.33596C20.5299 1.2016 19.1409 0.482884 17.6805 0.177016C15.0866 -0.376116 12.2649 0.36815 10.2425 2.39439ZM13.7471 13.689C15.8976 14.5121 18.4437 14.0465 20.1983 12.2892C21.7202 10.7648 22.2706 8.64754 21.8557 6.70831C21.6179 5.62413 21.0803 4.59652 20.2439 3.7585C19.3803 2.89329 18.3151 2.34719 17.1943 2.12135C15.2863 1.74656 13.2199 2.30495 11.7248 3.80241C9.82921 5.70095 9.43964 8.5239 10.5492 10.7726L13.045 10.1968C13.3783 10.1199 13.7278 10.2191 13.9712 10.4598C14.2147 10.7004 14.3183 11.0491 14.2459 11.384L13.7471 13.689ZM12.6084 8.03611C12.6084 7.48382 13.0561 7.03611 13.6084 7.03611H18.2825C18.8348 7.03611 19.2825 7.48382 19.2825 8.03611C19.2825 8.58839 18.8348 9.03611 18.2825 9.03611H13.6084C13.0561 9.03611 12.6084 8.58839 12.6084 8.03611Z"/>
</svg>
