<svg viewBox="0 0 16 24" fill="none" xmlns="http://www.w3.org/2000/svg">
<path fill-rule="evenodd" clip-rule="evenodd" d="M7.99919 2C5.96754 2 4.33306 3.63304 4.33306 5.63214C4.33306 7.63124 5.96754 9.26429 7.99919 9.26429C10.0308 9.26429 11.6653 7.63124 11.6653 5.63214C11.6653 3.63304 10.0308 2 7.99919 2ZM2.33306 5.63214C2.33306 2.51472 4.87677 0 7.99919 0C11.1216 0 13.6653 2.51472 13.6653 5.63214C13.6653 8.74957 11.1216 11.2643 7.99919 11.2643C4.87677 11.2643 2.33306 8.74957 2.33306 5.63214ZM0 19.5286C0 15.7716 3.06599 12.7384 6.83265 12.7384H9.16572C12.9324 12.7384 15.9984 15.7716 15.9984 19.5286V23.0027C15.9984 23.555 15.5507 24.0027 14.9984 24.0027H1C0.447715 24.0027 0 23.555 0 23.0027V19.5286ZM6.83265 14.7384C4.15675 14.7384 2 16.8899 2 19.5286V22.0027H13.9984V19.5286C13.9984 16.8899 11.8416 14.7384 9.16572 14.7384H6.83265Z"/>
</svg>
