<svg viewBox="0 0 24 25" fill="none" xmlns="http://www.w3.org/2000/svg">
<path fill-rule="evenodd" clip-rule="evenodd" d="M14.1643 0C15.1316 0 16.0168 0.693498 16.1507 1.69851L16.3979 3.37909C16.4254 3.56584 16.5434 3.75161 16.7779 3.88502C17.0235 4.02479 17.265 4.03193 17.4102 3.97515L19.0951 3.3162L19.0951 3.31612L19.1071 3.31162C20.001 2.97513 21.078 3.32253 21.5644 4.17613L23.7192 7.80709C24.2409 8.67178 24.014 9.77566 23.2276 10.3826L23.2276 10.3826L23.2225 10.3865L21.8075 11.4642C21.6936 11.5509 21.589 11.7318 21.589 12.0023C21.589 12.2733 21.6938 12.4546 21.8082 12.5416L23.2243 13.6198L23.2243 13.6198L23.2296 13.6239C24.02 14.2341 24.2163 15.3103 23.7355 16.1679C23.7315 16.175 23.7274 16.1821 23.7233 16.1892L21.5687 19.82C21.0948 20.6491 20.0872 21.0435 19.1179 20.6968C19.1087 20.6935 19.0996 20.6901 19.0905 20.6865L17.416 20.0318C17.2621 19.9716 17.0303 19.9789 16.7893 20.1157C16.5467 20.2534 16.4239 20.4487 16.3981 20.6242L16.1517 22.2967C16.0176 23.3061 15.1367 24.0045 14.1633 24.0045H9.83316C8.86715 24.0045 7.97985 23.3122 7.84577 22.306L7.59851 20.6257C7.57096 20.4385 7.45324 20.2533 7.21978 20.1204C6.97325 19.9801 6.73077 19.9729 6.5852 20.0298L4.90138 20.6883L4.9014 20.6884L4.89128 20.6922C4.66131 20.7793 4.41811 20.8249 4.16814 20.8249C3.46119 20.8249 2.78773 20.4532 2.43208 19.8292L0.268361 16.1796L0.256671 16.1594C-0.225087 15.3017 -0.0144643 14.2283 0.769197 13.6224L0.769181 13.6224L0.774915 13.6181L2.18921 12.5409C2.30352 12.4538 2.40847 12.2723 2.40847 12.0014C2.40847 11.7308 2.30331 11.5488 2.18924 11.462L0.773149 10.3838L0.768994 10.3807C-0.0222958 9.77165 -0.219848 8.69515 0.260524 7.83654C0.26467 7.82913 0.26891 7.82177 0.273244 7.81447L2.42763 4.18399C2.90305 3.35097 3.91745 2.96155 4.87992 3.3073C4.88866 3.31044 4.89735 3.3137 4.906 3.31708L6.58064 3.97187C6.73383 4.03177 6.96602 4.02461 7.20765 3.88748C7.45087 3.74944 7.57357 3.55423 7.59946 3.37844L7.84577 1.70581C7.98019 0.696955 8.86318 0 9.83409 0H14.1643ZM14.4192 3.67014L14.1737 2.00083C14.171 2.00033 14.1679 2 14.1643 2H9.83409C9.82994 2 9.82658 2.00041 9.82387 2.00098L9.57812 3.66981C9.44813 4.55259 8.88215 5.23679 8.19481 5.62688C7.53167 6.00323 6.66802 6.15349 5.85232 5.83455L4.19613 5.18697C4.17953 5.18178 4.16926 5.18123 4.16489 5.18124L4.16114 5.18141L4.15267 5.19608L2.00795 8.81028L3.40077 9.87072C4.10848 10.4095 4.40847 11.239 4.40847 12.0014C4.40847 12.7639 4.10883 13.5929 3.40101 14.132L2.00831 15.1927L4.1576 18.8179L4.16114 18.824C4.16313 18.8245 4.16551 18.8249 4.16814 18.8249C4.17118 18.8249 4.17306 18.8246 4.17445 18.8244C4.17561 18.8241 4.17766 18.8237 4.18084 18.8226L5.85676 18.1672C6.6776 17.8462 7.55374 18.0093 8.20907 18.3822C8.90648 18.7792 9.44882 19.462 9.5772 20.3345L9.82279 22.0035C9.82477 22.0039 9.827 22.0042 9.82948 22.0044C9.83065 22.0045 9.83188 22.0045 9.83316 22.0045H14.1633C14.1659 22.0045 14.1681 22.0044 14.1701 22.0041C14.1713 22.004 14.1723 22.0038 14.1733 22.0036L14.4194 20.3327C14.5493 19.4508 15.1149 18.7664 15.8019 18.3764C16.4658 17.9995 17.3291 17.8504 18.1443 18.1691L19.7997 18.8164C19.818 18.8221 19.8291 18.8226 19.8334 18.8226L19.8351 18.8226L19.8438 18.8075L21.9888 15.1929L20.5966 14.1329C19.8886 13.5938 19.589 12.765 19.589 12.0023C19.589 11.2403 19.8882 10.412 20.5957 9.87312L21.9896 8.81151L19.8403 5.18971L19.8368 5.18842C19.828 5.18533 19.8193 5.1841 19.8131 5.18409L19.8098 5.18421L18.1386 5.83778C17.3187 6.15841 16.4437 5.99601 15.7887 5.62331C15.0917 5.22665 14.5477 4.54377 14.4192 3.67014ZM15.4556 12.0009C15.4556 10.0964 13.9054 8.54617 12.0009 8.54617C10.0963 8.54617 8.54609 10.0964 8.54609 12.0009C8.54609 13.9055 10.0963 15.4557 12.0009 15.4557C13.9054 15.4557 15.4556 13.9055 15.4556 12.0009ZM12.0009 6.54617C15.0099 6.54617 17.4556 8.99186 17.4556 12.0009C17.4556 15.01 15.0099 17.4557 12.0009 17.4557C8.99178 17.4557 6.54609 15.01 6.54609 12.0009C6.54609 8.99186 8.99178 6.54617 12.0009 6.54617Z" />
</svg>