<svg viewBox="0 0 25 25" fill="none" xmlns="http://www.w3.org/2000/svg">
<path fill-rule="evenodd" clip-rule="evenodd" d="M8.71713 10.5387C8.5573 10.6984 8.45625 10.9075 8.43045 11.132L7.9978 14.8952C7.96295 15.1984 8.0684 15.5009 8.28414 15.7166C8.49988 15.9324 8.80232 16.0378 9.10543 16.003L12.8683 15.5703C13.0924 15.5445 13.3013 15.4437 13.4608 15.2843L15.4987 13.2481C15.5081 13.2394 15.5174 13.2305 15.5265 13.2214L16.5921 12.1557L21.7164 7.03091C21.8818 7.32189 21.9758 7.65813 21.9758 8.01646V16.0085C21.9758 17.1115 21.0818 18.0055 19.9791 18.0055H7.62026C6.796 18.0055 5.99191 18.2604 5.31813 18.7352L2 21.0734V8.01646C2 6.91345 2.89405 6.01946 3.9967 6.01946H13.2389L11.7815 7.477L8.71713 10.5387ZM15.2387 4.01946H3.9967C1.78929 4.01946 0 5.80907 0 8.01646V23.0015C0 23.3749 0.20808 23.7173 0.539585 23.8892C0.87109 24.0611 1.27078 24.034 1.57604 23.8189L6.4702 20.37C6.80681 20.1328 7.20851 20.0055 7.62026 20.0055H19.9791C22.1865 20.0055 23.9758 18.2159 23.9758 16.0085V8.01646C23.9758 7.10223 23.6684 6.25961 23.1526 5.5867C24.3281 4.26922 24.2837 2.24698 23.0196 0.982697C21.7094 -0.327565 19.5853 -0.327566 18.2752 0.982697L15.2387 4.01946ZM14.6003 11.3186L15.1783 10.7411L21.6054 4.31329C22.1345 3.78412 22.1345 2.92616 21.6054 2.39698C21.0763 1.86781 20.2184 1.86781 19.6893 2.39698L13.1955 8.89146L12.6655 9.42149C12.8913 9.89983 13.1471 10.2512 13.4428 10.5366C13.7421 10.8254 14.1123 11.0757 14.6003 11.3186ZM12.0542 11.9759C11.7213 11.6547 11.4366 11.2969 11.1904 10.8948L10.3774 11.7071L10.1285 13.8721L12.2938 13.6231L13.1268 12.7908C12.7378 12.5561 12.3796 12.2899 12.0542 11.9759Z" fill="#163150"/>
</svg>
