<svg viewBox="0 0 25 24" fill="none" xmlns="http://www.w3.org/2000/svg">
<path fill-rule="evenodd" clip-rule="evenodd" d="M6.14805 3.22443C7.66916 1.59185 10.1041 1.59186 11.6252 3.22444L12.666 4.34152C12.8552 4.54454 13.1202 4.65983 13.3977 4.65983C13.6751 4.65983 13.9401 4.54454 14.1293 4.34152L15.1701 3.22444C16.6912 1.59186 19.1262 1.59185 20.6473 3.22443C22.2031 4.89427 22.206 7.62689 20.656 9.30069L15.0929 14.9571C14.7274 14.7163 14.3008 14.5564 13.836 14.5056L10.5921 14.151L6.15306 9.31547L6.15308 9.31545L6.14804 9.31004C4.58931 7.63708 4.58932 4.89738 6.14805 3.22443ZM7.83224 14.1021L4.68211 10.6706C2.41041 8.22935 2.41129 4.30111 4.68477 1.86105C6.99676 -0.620354 10.7765 -0.620349 13.0885 1.86106L13.3977 2.19289L13.7068 1.86106C16.0188 -0.620349 19.7986 -0.620354 22.1106 1.86105C24.3849 4.30206 24.3849 8.2324 22.1106 10.6734C22.109 10.6751 22.1074 10.6768 22.1058 10.6785C22.1012 10.6834 22.0966 10.6882 22.0919 10.6929L17.4052 15.4583L20.964 13.949C22.3221 13.373 23.8974 13.9104 24.6225 15.1971C25.383 16.5466 24.9499 18.2543 23.6389 19.0757L17.2366 23.0868C16.125 23.7832 14.8153 24.0955 13.5082 23.9758L7.97001 23.4686L4.10483 23.9539C3.65246 24.0107 3.21858 23.7541 3.05001 23.33L1.06709 18.3421C0.877647 17.8656 1.07888 17.3234 1.53308 17.0866L6.1447 14.6822C6.67794 14.4042 7.247 14.2096 7.83224 14.1021ZM13.6749 20.1825C14.9121 20.1212 15.9465 19.272 16.2719 18.1126L21.7466 15.7907C22.1676 15.6121 22.656 15.7787 22.8808 16.1777C23.1166 16.596 22.9823 17.1255 22.5759 17.3801L16.1736 21.3911C15.4325 21.8554 14.5594 22.0636 13.688 21.9838L8.04173 21.4667C7.96991 21.4601 7.8976 21.4614 7.82606 21.4703L4.62171 21.8727L3.25859 18.4438L7.0708 16.4562C7.77187 16.0907 8.56584 15.9415 9.35229 16.0274L13.6213 16.494C14.087 16.5449 14.4238 16.9637 14.3735 17.4295C14.3288 17.844 13.9896 18.1641 13.5734 18.1847L11.5331 18.2858C10.9816 18.3132 10.5573 18.7826 10.5853 19.3342C10.6134 19.8859 11.0832 20.311 11.6347 20.2837L13.6749 20.1825Z" fill="white"/>
</svg>
