<svg viewBox="0 0 24 24" xmlns="http://www.w3.org/2000/svg">
<path fill-rule="evenodd" clip-rule="evenodd" d="M13.2399 10.971C13.3756 11.527 13.4429 12.1061 13.4338 12.6967L15.9016 12.3981C16.2972 12.3502 16.6834 12.5421 16.8844 12.8865C17.0854 13.2308 17.0628 13.6617 16.8268 13.983L15.6243 15.6203C18.3275 16.6356 21.4259 15.1585 21.9366 12.0344C22.366 9.4083 20.6133 6.94973 18.0528 6.52257C17.5029 6.43082 16.961 6.43957 16.4441 6.53513L16.8047 9.45014C16.8713 9.98876 16.4964 10.4827 15.9599 10.5632L13.2399 10.971ZM7.49094 7.86958C9.90718 8.27269 11.6032 10.4848 11.424 12.9398L7.57998 13.405C7.04175 13.4701 6.65358 13.9528 6.70515 14.4929L6.98177 17.3895C6.64198 17.4092 6.29449 17.3916 5.94369 17.3331C3.38447 16.9061 1.63321 14.4497 2.06239 11.8247C2.49156 9.19975 4.93171 7.44262 7.49094 7.86958ZM5.62099 19.3068C6.14412 19.3941 6.66387 19.4176 7.17211 19.3828L7.52648 23.0936C7.56535 23.5007 7.84796 23.843 8.24009 23.9581C8.63221 24.0731 9.05483 23.9377 9.3072 23.6161L10.7206 21.8149C13.2124 22.9286 15.8736 22.8701 18.0168 21.8716C20.2809 20.8168 21.949 18.7123 22.1595 15.9382C23.0343 15.0317 23.6684 13.8289 23.909 12.3573C24.5124 8.66678 22.0515 5.16208 18.3815 4.54979C17.6392 4.42595 16.9038 4.43052 16.1983 4.54782L15.7442 0.876126C15.694 0.470392 15.4021 0.136387 15.007 0.0327246C14.6119 -0.0709383 14.1933 0.076622 13.9499 0.405334L12.588 2.24484C10.0522 1.18991 7.35971 1.28506 5.21841 2.31802C2.86982 3.45098 1.20547 5.71364 1.22661 8.68852C0.660025 9.501 0.261704 10.4516 0.0909715 11.4958C-0.512598 15.1875 1.94974 18.6943 5.62099 19.3068ZM3.65122 6.55575C4.13452 5.47415 4.99831 4.64354 6.08442 4.1196C7.84828 3.26872 10.2183 3.22959 12.4446 4.38369C12.8801 4.60945 13.4153 4.48514 13.7076 4.09034L14.0676 3.60412L14.7015 8.72971L12.4557 9.06641C11.4756 7.43728 9.82631 6.2316 7.81364 5.89582C6.33242 5.6487 4.88757 5.91164 3.65122 6.55575ZM17.3869 8.74147C17.5638 8.21864 18.1309 7.93974 18.6533 8.11852C20.1226 8.6213 21.0312 10.1387 20.7738 11.7129C20.5978 12.7896 19.9155 13.6602 19.0098 14.1049C18.5151 14.3479 17.9162 14.1425 17.6723 13.6462C17.4283 13.1499 17.6316 12.5507 18.1264 12.3077C18.4683 12.1398 18.7332 11.8071 18.8024 11.384C18.9043 10.7605 18.5422 10.1931 18.0124 10.0119C17.4899 9.83307 17.2099 9.2643 17.3869 8.74147ZM19.7393 17.5075C17.7883 18.2257 15.4927 18.0412 13.5832 16.8221C13.3502 16.6733 13.1891 16.4345 13.1384 16.1625C13.0877 15.8906 13.1518 15.6098 13.3155 15.3868L13.8485 14.6611L8.78742 15.2734L9.27837 20.4145L9.65158 19.9389C9.95461 19.5528 10.493 19.4439 10.9221 19.6819C13.0876 20.8834 15.4102 20.8799 17.1732 20.0585C18.3148 19.5266 19.2296 18.6524 19.7393 17.5075ZM5.68663 10.3566C5.30551 9.95711 4.67295 9.94246 4.27377 10.3238C3.87459 10.7052 3.85994 11.3382 4.24106 11.7377L5.03019 12.5648L4.34856 13.2792C3.96744 13.6787 3.98209 14.3117 4.38127 14.6931C4.78045 15.0744 5.41301 15.0598 5.79413 14.6603L8.5799 11.7405C8.96102 11.341 8.94638 10.708 8.54719 10.3267C8.14801 9.94528 7.51545 9.95994 7.13433 10.3594L6.41183 11.1167L5.68663 10.3566Z"/>
</svg>
