<svg viewBox="0 0 24 24" fill="none" xmlns="http://www.w3.org/2000/svg">
<path fill-rule="evenodd" clip-rule="evenodd" d="M6.33178 2C4.91383 2 3.77726 3.13883 3.77726 4.52779C3.77726 5.45847 4.28555 6.27618 5.05243 6.71647C5.41354 6.9238 5.60839 7.3332 5.54156 7.7442C5.47473 8.15519 5.16021 8.48177 4.75202 8.564C3.17642 8.88143 2 10.2624 2 11.9052V13.5511H4C4.55228 13.5511 5 13.9988 5 14.5511C5 15.1034 4.55228 15.5511 4 15.5511H1C0.447715 15.5511 0 15.1034 0 14.5511V11.9052C0 9.91422 1.08036 8.17992 2.68521 7.24075C2.11591 6.48569 1.77726 5.54686 1.77726 4.52779C1.77726 2.02006 3.82352 0 6.33178 0C6.95928 0 7.55968 0.126715 8.10651 0.356896C8.61554 0.571161 8.85449 1.15751 8.64023 1.66653C8.42596 2.17556 7.83962 2.41451 7.33059 2.20025C7.02521 2.0717 6.6883 2 6.33178 2ZM17.5 6.21069C17.5 5.65841 17.9477 5.21069 18.5 5.21069C20.6924 5.21069 22.5 6.96138 22.5 9.15806C22.5 10.1294 22.1465 11.0136 21.5626 11.6977C23.0124 12.4959 24 14.0223 24 15.7896V18.0001C24 18.5524 23.5523 19.0001 23 19.0001H20.5C19.9477 19.0001 19.5 18.5524 19.5 18.0001C19.5 17.4479 19.9477 17.0001 20.5 17.0001H22V15.7896C22 14.3238 20.7855 13.1054 19.25 13.1054H18.5146L18.5 13.1054L18.4927 13.1054H17.75C17.1977 13.1054 16.75 12.6577 16.75 12.1054C16.75 11.5531 17.1977 11.1054 17.75 11.1054H18.5105C19.6268 11.0999 20.5 10.2137 20.5 9.15806C20.5 8.09917 19.6213 7.21069 18.5 7.21069C17.9477 7.21069 17.5 6.76298 17.5 6.21069ZM8.5 8.00012C8.5 6.34327 9.84315 5.00012 11.5 5.00012C13.1569 5.00012 14.5 6.34327 14.5 8.00012C14.5 9.65698 13.1569 11.0001 11.5 11.0001C9.84315 11.0001 8.5 9.65698 8.5 8.00012ZM11.5 3.00012C8.73858 3.00012 6.5 5.2387 6.5 8.00012C6.5 10.7615 8.73858 13.0001 11.5 13.0001C14.2614 13.0001 16.5 10.7615 16.5 8.00012C16.5 5.2387 14.2614 3.00012 11.5 3.00012ZM10.5 14.0001C7.18629 14.0001 4.5 16.6864 4.5 20.0001V23.0001C4.5 23.5524 4.94772 24.0001 5.5 24.0001H17.5C18.0523 24.0001 18.5 23.5524 18.5 23.0001V20.0001C18.5 16.6864 15.8137 14.0001 12.5 14.0001H10.5ZM6.5 20.0001C6.5 17.791 8.29086 16.0001 10.5 16.0001H12.5C14.7091 16.0001 16.5 17.791 16.5 20.0001V22.0001H6.5V20.0001Z" fill="#424242"/>
</svg>
