<svg viewBox="0 0 24 24" xmlns="http://www.w3.org/2000/svg">
<path fill-rule="evenodd" clip-rule="evenodd" d="M20.5663 2.23697L17.592 5.21121C17.2099 5.59334 17.2099 6.21306 17.592 6.59519C17.9739 6.97711 18.593 6.97711 18.9749 6.59519L21.877 3.69309C22.3726 3.19754 23.241 3.37034 23.5088 4.0181C23.8254 4.78403 23.9996 5.62273 23.9996 6.4996C23.9996 10.0889 21.0898 12.9992 17.4996 12.9992C17.0568 12.9992 16.6235 12.9548 16.2043 12.8699L12.8706 16.2037C12.9555 16.6231 13 17.0566 13 17.4997C13 21.089 10.0902 23.9993 6.5 23.9993C5.62291 23.9993 4.78401 23.8251 4.01793 23.5084C3.37049 23.2407 3.19735 22.3731 3.69281 21.8776L6.37605 19.1944C6.75819 18.8122 6.75818 18.1925 6.37605 17.8104C5.99413 17.4285 5.37506 17.4285 4.99314 17.8104L2.23782 20.5657C1.75738 21.0461 0.918972 20.9018 0.627134 20.2881C0.224705 19.4419 -4.21548e-08 18.4957 0 17.4997C-4.63703e-07 13.9105 2.90979 11.0001 6.5 11.0001C7.05136 11.0001 7.58776 11.069 8.10054 11.1989L11.1986 8.10084C11.0686 7.58785 10.9996 7.05121 10.9996 6.4996C10.9996 2.91033 13.9094 0 17.4996 0C18.4958 4.74062e-08 19.4423 0.224773 20.2886 0.627295C20.902 0.919006 21.0466 1.75665 20.5663 2.23697ZM17.9527 2.02208C14.7691 1.70456 12.1658 5.00968 13.2705 8.04069C13.4036 8.40581 13.3129 8.81493 13.0381 9.08976L9.09031 13.0375C8.81534 13.3125 8.40583 13.4032 8.04041 13.2701C5.04084 12.1771 1.7003 14.7143 2.02278 17.9523L3.57839 16.3967C4.74158 15.2335 6.62762 15.2335 7.7908 16.3967C8.95377 17.5597 8.95378 19.4451 7.7908 20.608L6.40022 21.9986C9.40544 22.0637 11.6669 19.0201 10.8058 16.1881C10.6984 15.835 10.7943 15.4515 11.0553 15.1905L15.1902 11.0556C15.4514 10.7944 15.8352 10.6984 16.1886 10.8059C19.0204 11.6667 22.0629 9.40496 21.9982 6.40038L20.3897 8.00887C19.2265 9.17205 17.3405 9.17204 16.1773 8.00887C15.0143 6.8459 15.0143 4.96051 16.1773 3.79754L17.9527 2.02208Z"/>
</svg>
