<svg viewBox="0 0 24 24" fill="none" xmlns="http://www.w3.org/2000/svg">
<path fill-rule="evenodd" clip-rule="evenodd" d="M20.1385 7.29289C19.748 6.90237 19.1148 6.90237 18.7243 7.29289L15.1888 10.8284C14.7982 11.219 14.7982 11.8521 15.1888 12.2426L18.7574 15.8112C19.1479 16.2018 19.781 16.2018 20.1716 15.8112L21.2843 14.6985L21.3787 14.7929C21.7692 15.1834 21.7692 15.8166 21.3787 16.2071L18.4571 19.1287C18.0666 19.5192 17.4334 19.5192 17.0429 19.1287L16.4438 18.5296C15.2306 17.3164 13.249 17.3659 12.0979 18.6382L9.27403 21.7593C9.13534 21.9125 8.93827 22 8.73156 22C8.32753 22 8 21.6725 8 21.2684L8 20.8666C8.50786 20.7098 8.97034 20.4192 9.33509 20.018L13.2198 15.7448C13.7218 15.1926 14 14.4731 14 13.7268L14 3C14 1.34315 12.6569 -4.95824e-07 11 -5.68248e-07L3.00001 -9.17939e-07C1.34315 -9.90362e-07 5.66334e-06 1.34314 5.59091e-06 3L5.12203e-06 13.7268C5.08941e-06 14.4731 0.278171 15.1926 0.780185 15.7448L4.66493 20.018C5.02967 20.4192 5.49215 20.7098 6 20.8666L6 21.2684C6 22.777 7.22296 24 8.73156 24C9.50342 24 10.2393 23.6734 10.7571 23.1011L13.5809 19.98C13.9646 19.5559 14.6252 19.5394 15.0296 19.9438L15.6287 20.5429C16.8003 21.7145 18.6998 21.7145 19.8713 20.5429L22.7929 17.6213C23.9645 16.4497 23.9645 14.5503 22.7929 13.3787L22.6985 13.2843L23.7071 12.2757C24.0976 11.8852 24.0976 11.252 23.7071 10.8615L20.1385 7.29289ZM7.11527 19L7 19L6.88474 19C6.603 19 6.33433 18.8811 6.14481 18.6727L2.26006 14.3995C2.09273 14.2154 2.00001 13.9756 2.00001 13.7268L2.00001 3C2.00001 2.44771 2.44772 2 3.00001 2L11 2C11.5523 2 12 2.44771 12 3L12 13.7268C12 13.9756 11.9073 14.2154 11.7399 14.3995L7.85521 18.6727C7.66568 18.8811 7.39701 19 7.11527 19ZM17.3101 11.5355L19.4314 9.41421L21.5858 11.5686L19.4645 13.6899L17.3101 11.5355ZM11 5C11 4.44771 10.5523 4 10 4L4.00001 4C3.44772 4 3.00001 4.44771 3.00001 5L3.00001 9C3.00001 9.55228 3.44772 10 4.00001 10L10 10C10.5523 10 11 9.55228 11 9L11 5ZM5.00001 6L9.00001 6L9.00001 8L5.00001 8L5.00001 6Z" fill="#424242"/>
</svg>
