<svg viewBox="0 0 30 24" fill="none" xmlns="http://www.w3.org/2000/svg">
<path d="M29.8252 2.79612C28.8155 3.26214 27.6505 3.57282 26.3301 3.72816C27.6505 2.95146 28.5437 1.82524 29.0097 0.349515C27.767 1.04854 26.4466 1.5534 25.0485 1.86408C24.5049 1.24272 23.8447 0.776699 23.068 0.466019C22.2913 0.15534 21.4757 0 20.6214 0C18.9126 0 17.4563 0.582524 16.2524 1.74757C15.0485 2.91262 14.4466 4.34951 14.4466 6.05825C14.4466 6.52427 14.5243 6.99029 14.6796 7.45631C12.1942 7.30097 9.84466 6.66019 7.63107 5.53398C5.41748 4.40777 3.57282 2.91262 2.09709 1.04854C1.5534 2.05825 1.28155 3.06796 1.28155 4.07767C1.28155 5.08738 1.51456 6.03884 1.98058 6.93204C2.4466 7.82524 3.1068 8.54369 3.96117 9.08738C2.95146 9.08738 2.01942 8.85437 1.16505 8.38835V8.50485C1.16505 9.98058 1.63107 11.2816 2.56311 12.4078C3.49515 13.534 4.66019 14.2136 6.05825 14.4466C5.59223 14.6019 5.04854 14.6796 4.42718 14.6796C4.19417 14.6796 3.80583 14.6408 3.26214 14.5631C3.72816 15.8058 4.46602 16.8155 5.47573 17.5922C6.48544 18.3689 7.65049 18.7573 8.97087 18.7573C6.71845 20.5437 4.19417 21.4369 1.39806 21.4369C0.776699 21.4369 0.31068 21.3981 0 21.3204C2.87379 23.1068 6.01942 24 9.43689 24C12.932 24 16.0777 23.1068 18.8738 21.3204C21.3592 19.6893 23.3398 17.5146 24.8155 14.7961C26.1359 12.1553 26.7961 9.43689 26.7961 6.64078V5.82524C28.0388 4.97087 29.0485 3.96117 29.8252 2.79612Z" fill="#55B6E2"/>
</svg>
