<svg viewBox="0 0 24 21" fill="none" xmlns="http://www.w3.org/2000/svg">
<path fill-rule="evenodd" clip-rule="evenodd" d="M0.000219345 0.999988C0.000225723 0.447708 0.447939 0 1.00022 0H14.1997C14.7519 0 15.1997 0.447715 15.1997 1V4.94189C15.1997 5.49418 14.7519 5.94189 14.1997 5.94189C13.6474 5.94189 13.1997 5.49418 13.1997 4.94189V2H2.00021L2.00002 18.3812L2.55262 18.1046C2.83438 17.9635 3.16614 17.9635 3.4479 18.1046L4.9915 18.8774L6.46516 18.1115C6.74501 17.966 7.07709 17.9611 7.36112 18.0983L8.99204 18.8857L10.5526 18.1046C10.8344 17.9635 11.1661 17.9635 11.4479 18.1046L13 18.8817L13.0001 18.8817V15C13.0001 14.4477 13.4478 14 14.0001 14C14.5524 14 15.0001 14.4477 15.0001 15V19.4994C15.0001 19.878 14.7863 20.2242 14.4477 20.3936L13.4476 20.8942C13.1658 21.0353 12.8341 21.0353 12.5523 20.8942L11.0002 20.1171L9.4476 20.8942C9.17035 21.033 8.84441 21.0353 8.56521 20.9005L6.94283 20.1172L5.46117 20.8873C5.17683 21.0351 4.83887 21.0377 4.55232 20.8942L3.00017 20.1171L1.4476 20.8942C1.13761 21.0494 0.769371 21.0329 0.474449 20.8508C0.179526 20.6686 -4.05312e-06 20.3466 0 20L0.000219345 0.999988ZM4 6C4 5.44772 4.44772 5 5 5H10.0002C10.5525 5 11.0002 5.44772 11.0002 6C11.0002 6.55228 10.5525 7 10.0002 7H5C4.44772 7 4 6.55228 4 6ZM4 10.5C4 9.94772 4.44772 9.5 5 9.5H5.5C6.05228 9.5 6.5 9.94772 6.5 10.5C6.5 11.0523 6.05228 11.5 5.5 11.5H5C4.44772 11.5 4 11.0523 4 10.5ZM4 15C4 14.4477 4.44772 14 5 14H8C8.55228 14 9 14.4477 9 15C9 15.5523 8.55228 16 8 16H5C4.44772 16 4 15.5523 4 15ZM19.6056 6.55279C19.7705 6.22293 20.1036 6.01062 20.4723 6.00038C20.8409 5.99015 21.1853 6.18366 21.3682 6.50386L23.3682 10.0039C23.6423 10.4834 23.4757 11.0942 22.9961 11.3682C22.5166 11.6423 21.9058 11.4757 21.6318 10.9961L20.5588 9.11847L17.8944 14.4472C17.7277 14.7806 17.3894 14.9936 17.0167 14.9999C16.644 15.0061 16.2987 14.8045 16.121 14.4768L14.4048 11.313H11C10.4477 11.313 10 10.8652 10 10.313C10 9.76068 10.4477 9.31296 11 9.31296H15C15.3668 9.31296 15.7041 9.51375 15.879 9.83615L16.9639 11.8362L19.6056 6.55279Z" fill="#163150"/>
</svg>
