<svg viewBox="0 0 24 24" fill="none" xmlns="http://www.w3.org/2000/svg">
<path fill-rule="evenodd" clip-rule="evenodd" d="M20.5001 1C20.5001 0.639728 20.3063 0.307306 19.9928 0.1298C19.6792 -0.0477054 19.2945 -0.0428512 18.9856 0.142507L13.9856 3.14251C13.6844 3.32323 13.5001 3.64874 13.5001 4V10.4807L10.5001 12.9352V7C10.5001 6.63973 10.3063 6.30731 9.99275 6.1298C9.67924 5.95229 9.29449 5.95715 8.98556 6.14251L3.98556 9.14251C3.68435 9.32323 3.50006 9.64874 3.50006 10V15.5C3.50006 16.4742 3.66393 17.41 3.96562 18.2816L0.366818 21.226C-0.0163426 21.5395 -0.112446 22.0862 0.140821 22.5116C0.394087 22.937 0.920481 23.113 1.37869 22.9255L5.66811 21.1708C7.2244 22.9074 9.48463 24 12.0001 24C16.6945 24 20.5001 20.1944 20.5001 15.5V15.1032L23.3787 13.9255C23.7545 13.7718 24.0001 13.4061 24.0001 13V4C24.0001 3.61361 23.7775 3.26179 23.4283 3.09633C23.0791 2.93087 22.6659 2.98137 22.3668 3.22604L20.5001 4.75339V1ZM18.5001 6.85648C18.5 6.86164 18.5 6.8668 18.5001 6.87196V14.4093C18.4997 14.4245 18.4997 14.4398 18.5001 14.4551V15.5C18.5001 19.0899 15.5899 22 12.0001 22C8.4102 22 5.50006 19.0899 5.50006 15.5V10.5662L8.50006 8.76619V15.0383C8.50002 15.0434 8.50002 15.0486 8.50006 15.0538V15.5C8.50006 17.433 10.0671 19 12.0001 19C13.9331 19 15.5001 17.433 15.5001 15.5V4.56619L18.5001 2.76619V6.85648ZM10.5002 15.5192C10.5105 16.3388 11.178 17 12.0001 17C12.8285 17 13.5001 16.3284 13.5001 15.5V13.0648L10.5002 15.5192ZM20.5001 12.9423V7.33752L22.0001 6.11024V12.3286L20.5001 12.9423Z" fill="#424242"/>
</svg>
