<svg viewBox="0 0 24 23" fill="none" xmlns="http://www.w3.org/2000/svg">
<path fill-rule="evenodd" clip-rule="evenodd" d="M4 2.06097H17.4365C18.457 1.30481 19.5821 0.530367 20.7766 0.0650592C21.6467 -0.273859 22.4199 0.784859 21.9443 1.54354C21.7903 1.7892 21.6382 2.03577 21.488 2.28295C22.9528 2.80861 24.0004 4.20956 24.0004 5.8552V14.0239C24.0004 16.233 22.2096 18.0239 20.0004 18.0239H14.1147C13.6881 19.2546 12.4206 20.0105 11.1528 20.006C9.73718 20.0009 8.73094 19.1984 8.06442 18.0239C7.49648 18.0239 6.96095 18.0465 6.47462 18.3882L1.57497 21.8314C1.26962 22.046 0.87019 22.0727 0.539006 21.9006C0.207821 21.7286 0 21.3865 0 21.0132V6.06097C0 3.85183 1.79086 2.06097 4 2.06097ZM14.8509 16.0239C15.852 13.4188 17.7837 8.76583 20.4374 4.07578C21.3191 4.18923 22.0004 4.94267 22.0004 5.85524V14.0239C22.0004 15.1285 21.105 16.0239 20.0004 16.0239H14.8509ZM3.94525 12.1914C5.03285 13.5533 6.00054 14.824 6.85862 16.0984C6.30986 16.2057 5.78673 16.4272 5.32468 16.7519L2 19.0883V6.06102C2 4.95645 2.89543 4.06102 4 4.06102H15.0776C13.6892 5.3996 12.2236 7.12655 10.9103 9.31287C10.3456 8.78562 9.54573 8.08671 8.55153 7.3421C7.12259 6.2719 5.27247 6.56365 4.15173 7.53652C2.71856 8.78058 2.83038 10.7642 3.9385 12.1829L3.94525 12.1914ZM18.1906 4.00037C16.2927 5.48463 13.9197 7.85761 12.016 11.4158C11.6894 12.0263 10.8476 12.1098 10.3856 11.6072C9.46914 10.624 8.42629 9.74704 7.35261 8.94291C5.96409 7.90298 4.47597 9.61769 5.51165 10.9478C7.26328 13.1414 8.77023 15.178 10.015 17.409C10.4156 18.1269 11.7995 18.2789 12.1899 17.4672L12.1904 17.466L12.1932 17.4592C12.1961 17.4517 12.2004 17.44 12.2078 17.4187C12.4714 16.6534 14.6344 10.4933 18.1906 4.00037Z" fill="#163150"/>
</svg>
