<svg width="45" height="45" viewBox="0 0 45 45" fill="none" xmlns="http://www.w3.org/2000/svg">
<path d="M45 11.25C45 5.0368 39.9632 0 33.75 0H11.25C5.0368 0 0 5.0368 0 11.25V33.75C0 39.9632 5.0368 45 11.25 45H33.75C39.9632 45 45 39.9632 45 33.75V11.25Z" fill="#B5BFC7"/>
<path d="M29.8228 15.5418C33.3716 16.4889 36.1419 19.6025 36.5273 23.5366C37.021 28.5772 33.4124 33.0562 28.4673 33.5406C23.8558 33.9923 19.7105 30.8108 18.7717 26.2919M28.0416 29.1944C30.6319 28.9407 32.5221 26.5946 32.2635 23.9542C32.1646 22.9442 31.7655 22.0374 31.1654 21.3169" stroke="white" stroke-width="2" stroke-linecap="round" stroke-linejoin="round"/>
<path d="M25.4688 16.5586C24.4039 12.8992 21.1486 10.1697 17.1967 10.0162C12.2316 9.82327 8.04725 13.7696 7.85063 18.8306C7.65401 23.8915 11.5196 28.1506 16.4847 28.3435C16.7883 28.3553 17.089 28.3516 17.386 28.3332" stroke="white" stroke-width="2" stroke-linecap="round" stroke-linejoin="round"/>
<path d="M18.7273 29.7293C17.378 27.0276 15.5995 23.7828 13.6494 21.0546C12.8121 19.8833 12.9887 18.2277 14.135 17.3565C15.1509 16.5845 16.5849 16.7 17.4174 17.667C19.167 19.6995 20.8534 21.9037 20.8534 21.9037C20.8534 21.9037 24.8905 14.4028 34.1576 7.36597C29.4792 14.3906 25.5891 23.6403 23.3499 29.5266C22.6064 31.4809 19.6615 31.6 18.7273 29.7293Z" fill="#B5BFC7" stroke="white" stroke-width="2" stroke-linecap="round" stroke-linejoin="round"/>
</svg>
