<svg width="45" height="45" viewBox="0 0 45 45" fill="none" xmlns="http://www.w3.org/2000/svg">
<path d="M0 11.25C0 5.0368 5.0368 0 11.25 0H33.75C39.9632 0 45 5.0368 45 11.25V33.75C45 39.9632 39.9632 45 33.75 45H11.25C5.0368 45 0 39.9632 0 33.75V11.25Z" fill="#B5BFC7"/>
<path d="M14 32.8312L30.7631 32.8312V12L20.1001 12L14 18L14 32.8312Z" fill="#B5BFC7"/>
<path d="M20.1001 12L30.7631 12V32.8312L14 32.8312L14 18M20.1001 12L14 18M20.1001 12V18H14" stroke="white" stroke-width="2" stroke-linecap="round" stroke-linejoin="round"/>
<path d="M24.4359 16H26.8873" stroke="white" stroke-width="2" stroke-linecap="round" stroke-linejoin="round"/>
<path d="M25.5243 28.8895H26.5243M19.5243 22.1555H24.5243M19.5243 25.5225H22.5243M19.5243 28.8895H22.5243" stroke="white" stroke-width="2" stroke-linecap="round" stroke-linejoin="round"/>
<path d="M26.2227 8.22267H30.7334L30.7334 3.96631L39.0288 10.4127L30.7334 17.3434L30.7334 13.9992" stroke="white" stroke-width="2" stroke-linecap="round" stroke-linejoin="round"/>
<path d="M18.1429 36.7861H13.972L13.972 41.0425L5.67651 34.5961L13.972 27.6653L13.972 31.0096" stroke="white" stroke-width="2" stroke-linecap="round" stroke-linejoin="round"/>
</svg>
