<svg width="45" height="45" viewBox="0 0 45 45" fill="none" xmlns="http://www.w3.org/2000/svg">
<path d="M0 11.25C0 5.0368 5.0368 0 11.25 0H33.75C39.9632 0 45 5.0368 45 11.25V33.75C45 39.9632 39.9632 45 33.75 45H11.25C5.0368 45 0 39.9632 0 33.75V11.25Z" fill="#B5BFC7"/>
<path d="M16 12L10 18H16V12Z" fill="#B5BFC7"/>
<path d="M10 18V34H28V24.2909M10 18L16 12M10 18H16V12M16 12H28V19.4047" stroke="white" stroke-width="2" stroke-linecap="round" stroke-linejoin="round"/>
<path d="M21.0966 16H22.0483M22.154 30H23M15.3863 22H21.0966M15.3863 26H21.0966M15.3863 30H19.1931" stroke="white" stroke-width="2" stroke-linecap="round" stroke-linejoin="round"/>
<path d="M25.2639 19.647H31.8911L31.8911 15.4246L40.1205 21.8196L31.8911 28.6952L31.8911 25.3775" stroke="white" stroke-width="2" stroke-linecap="round" stroke-linejoin="round"/>
</svg>
