<svg width="45" height="45" viewBox="0 0 45 45" fill="none" xmlns="http://www.w3.org/2000/svg">
<path d="M0 11.25C0 5.0368 5.0368 0 11.25 0H33.75C39.9632 0 45 5.0368 45 11.25V33.75C45 39.9632 39.9632 45 33.75 45H11.25C5.0368 45 0 39.9632 0 33.75V11.25Z" fill="#A682FF"/>
<path d="M21.2595 18.9796L21.5523 13.9898H28.0065L26.7207 18.9796H28.9994L23.5382 26.8897L23.7418 18.9796H21.2595Z" fill="#A682FF"/>
<path d="M25.1294 30.3297C31.0665 30.3297 35.8794 25.5168 35.8794 19.5798C35.8794 13.6427 31.0665 8.82983 25.1294 8.82983C19.1924 8.82983 14.3795 13.6427 14.3795 19.5798M6.5 34.6052L12.09 29.0153L9.07998 26.0053L19.3999 24.7153L18.5399 35.4652L16.1749 33.1002M21.5523 13.9898L21.2595 18.9796H23.7418L23.5382 26.8897L28.9994 18.9796H26.7207L28.0065 13.9898H21.5523Z" stroke="white" stroke-width="2" stroke-linecap="round" stroke-linejoin="round"/>
</svg>
