<svg width="45" height="45" viewBox="0 0 45 45" fill="none" xmlns="http://www.w3.org/2000/svg">
<path fill-rule="evenodd" clip-rule="evenodd" d="M0 12C0 5.37258 5.37258 0 12 0H33C39.6274 0 45 5.37258 45 12V33C45 39.6274 39.6274 45 33 45H12C5.37258 45 0 39.6274 0 33V12Z" fill="#B3DD87"/>
<path d="M19.5053 32.6211C17.7431 32.6153 16.0456 31.9573 14.74 30.7738C13.4345 29.5903 12.6134 27.9653 12.4353 26.2122C12.2571 24.4591 12.7344 22.7022 13.7752 21.2802C14.816 19.8583 16.3465 18.8722 18.0714 18.5121C18.2815 18.4701 18.4997 18.5132 18.678 18.6321C18.8562 18.7509 18.98 18.9357 19.022 19.1458C19.064 19.3559 19.0209 19.5741 18.902 19.7524C18.7832 19.9307 18.5984 20.0544 18.3883 20.0965C17.3593 20.3081 16.4116 20.8076 15.6556 21.5369C14.8995 22.2662 14.3661 23.1952 14.1175 24.2159C13.8689 25.2365 13.9154 26.3068 14.2514 27.3021C14.5874 28.2973 15.1993 29.1767 16.0157 29.8378C16.832 30.4989 17.8194 30.9144 18.8628 31.0362C19.9062 31.1579 20.9627 30.9807 21.9094 30.5253C22.856 30.0699 23.6538 29.355 24.21 28.4638C24.7661 27.5726 25.0576 26.5418 25.0506 25.4913C25.0506 25.2812 25.1341 25.0797 25.2827 24.9312C25.4312 24.7826 25.6327 24.6991 25.8428 24.6991C26.0529 24.6991 26.2544 24.7826 26.403 24.9312C26.5516 25.0797 26.635 25.2812 26.635 25.4913C26.635 27.3822 25.8839 29.1957 24.5468 30.5328C23.2097 31.8699 21.3962 32.6211 19.5053 32.6211ZM19.632 28.8027C19.4219 28.8027 19.2204 28.7192 19.0718 28.5707C18.9233 28.4221 18.8398 28.2206 18.8398 28.0105V26.3469H17.1683C16.9582 26.3469 16.7567 26.2634 16.6081 26.1149C16.4596 25.9663 16.3761 25.7648 16.3761 25.5547C16.3761 25.3446 16.4596 25.1431 16.6081 24.9945C16.7567 24.846 16.9582 24.7625 17.1683 24.7625H18.8398V23.1147C18.8398 22.9046 18.9233 22.7031 19.0718 22.5546C19.2204 22.406 19.4219 22.3225 19.632 22.3225C19.8421 22.3225 20.0436 22.406 20.1922 22.5546C20.3407 22.7031 20.4242 22.9046 20.4242 23.1147V24.7863H22.0878C22.2979 24.7863 22.4994 24.8697 22.648 25.0183C22.7965 25.1669 22.88 25.3684 22.88 25.5785C22.88 25.7886 22.7965 25.9901 22.648 26.1386C22.4994 26.2872 22.2979 26.3707 22.0878 26.3707H20.4242V28.0343C20.4201 28.2416 20.3348 28.4391 20.1867 28.5842C20.0385 28.7294 19.8394 28.8107 19.632 28.8106V28.8027ZM22.8008 22.8612C22.6892 22.8694 22.5772 22.8539 22.472 22.8157C22.3669 22.7774 22.2711 22.7174 22.1908 22.6394C22.1041 22.5521 22.0389 22.4458 22.0004 22.3289C21.9619 22.212 21.9511 22.0878 21.969 21.966L23.1731 13.5292C23.1931 13.3828 23.2536 13.2449 23.3478 13.131C23.442 13.0172 23.5661 12.932 23.7062 12.885C23.8463 12.8381 23.9967 12.8312 24.1405 12.8652C24.2843 12.8993 24.4157 12.9728 24.5199 13.0776L26.2231 14.7967L32.7191 8.27691C32.7901 8.19398 32.8775 8.12663 32.9758 8.07908C33.0741 8.03152 33.1811 8.0048 33.2902 8.00059C33.3993 7.99638 33.5081 8.01476 33.6098 8.05459C33.7114 8.09441 33.8038 8.15483 33.881 8.23203C33.9582 8.30923 34.0186 8.40156 34.0584 8.50322C34.0982 8.60488 34.1166 8.71367 34.1124 8.82277C34.1082 8.93187 34.0815 9.03892 34.0339 9.13721C33.9864 9.23549 33.919 9.32288 33.8361 9.3939L26.7776 16.4761C26.6292 16.6237 26.4284 16.7065 26.2191 16.7065C26.0098 16.7065 25.809 16.6237 25.6606 16.4761L24.5199 15.3274L23.7277 21.1422L29.479 20.35L28.4175 19.2726C28.3865 19.2456 28.3573 19.2164 28.3303 19.1854C28.2063 19.0331 28.1433 18.8401 28.1536 18.644C28.1638 18.4478 28.2466 18.2625 28.3858 18.1239L31.0792 15.4304C31.2277 15.2829 31.4284 15.2001 31.6377 15.2001C31.847 15.2001 32.0478 15.2829 32.1962 15.4304C32.2705 15.5041 32.3294 15.5917 32.3696 15.6882C32.4099 15.7848 32.4306 15.8883 32.4306 15.9929C32.4306 16.0975 32.4099 16.201 32.3696 16.2976C32.3294 16.3941 32.2705 16.4817 32.1962 16.5554L30.0652 18.6864L31.6972 20.342C31.7996 20.4465 31.8712 20.5773 31.9039 20.7199C31.9366 20.8625 31.9291 21.0114 31.8824 21.1501C31.8356 21.2887 31.7513 21.4117 31.639 21.5054C31.5266 21.5991 31.3904 21.6598 31.2456 21.6809L22.8879 22.8612H22.8008ZM26.944 32.93L29.9702 29.9038C30.0999 29.7523 30.1678 29.5574 30.1601 29.358C30.1524 29.1586 30.0697 28.9695 29.9286 28.8284C29.7875 28.6873 29.5984 28.6047 29.399 28.597C29.1997 28.5893 29.0047 28.6571 28.8532 28.7869L25.8349 31.8289C24.1541 33.5034 21.8769 34.4416 19.5043 34.4372C17.1317 34.4327 14.8581 33.4859 13.1835 31.8051C11.509 30.1243 10.5708 27.8471 10.5752 25.4745C10.5797 23.1019 11.5265 20.8283 13.2073 19.1538L22.7137 9.64741C22.8612 9.49898 22.944 9.29819 22.944 9.08891C22.944 8.87962 22.8612 8.67884 22.7137 8.53041C22.5652 8.38286 22.3644 8.30004 22.1552 8.30004C21.9459 8.30004 21.7451 8.38286 21.5967 8.53041L12.0903 18.0368C10.1153 20.0065 9.00372 22.6801 9.00001 25.4694C8.9963 28.2587 10.1008 30.9353 12.0705 32.9102C14.0402 34.8852 16.7138 35.9968 19.5031 36.0005C22.2925 36.0042 24.969 34.8998 26.944 32.93Z" fill="white"/>
</svg>
