<svg width="45" height="45" viewBox="0 0 45 45" fill="none" xmlns="http://www.w3.org/2000/svg">
<path d="M0 11.25C0 5.0368 5.0368 0 11.25 0H33.75C39.9632 0 45 5.0368 45 11.25V33.75C45 39.9632 39.9632 45 33.75 45H11.25C5.0368 45 0 39.9632 0 33.75V11.25Z" fill="#A682FF"/>
<path d="M13.8846 12.2175C13.329 12.3817 13 12.9137 13 13.493V27.222C13 28.1687 13.4469 29.0599 14.2055 29.6261L21.3037 34.9243C22.0133 35.4539 22.9867 35.4539 23.6963 34.9243L30.7945 29.6261C31.5531 29.0599 32 28.1687 32 27.222V13.5231C32 12.9284 31.6529 12.385 31.0812 12.2211C27.0055 11.0524 17.7345 11.0788 13.8846 12.2175Z" fill="#A682FF"/>
<path d="M17.8554 18.6726C16.7149 19.8132 16.7149 21.6624 17.8554 22.8029L22.502 27.4495L27.1487 22.8029C28.2892 21.6624 28.2892 19.8132 27.1487 18.6726C26.0081 17.5321 24.1589 17.5321 23.0184 18.6726L22.502 19.189L21.9857 18.6726C20.8451 17.5321 18.996 17.5321 17.8554 18.6726Z" fill="#A682FF"/>
<path d="M13.8846 12.2175C13.329 12.3817 13 12.9137 13 13.493V27.222C13 28.1687 13.4469 29.0599 14.2055 29.6261L21.3037 34.9243C22.0133 35.4539 22.9867 35.4539 23.6963 34.9243L30.7945 29.6261C31.5531 29.0599 32 28.1687 32 27.222V13.5231C32 12.9284 31.6529 12.385 31.0812 12.2211C27.0055 11.0524 17.7345 11.0788 13.8846 12.2175Z" stroke="white" stroke-width="2" stroke-linecap="round" stroke-linejoin="round"/>
<path d="M17.8554 18.6726C16.7149 19.8132 16.7149 21.6624 17.8554 22.8029L22.502 27.4495L27.1487 22.8029C28.2892 21.6624 28.2892 19.8132 27.1487 18.6726C26.0081 17.5321 24.1589 17.5321 23.0184 18.6726L22.502 19.189L21.9857 18.6726C20.8451 17.5321 18.996 17.5321 17.8554 18.6726Z" stroke="white" stroke-width="2" stroke-linecap="round" stroke-linejoin="round"/>
</svg>
