<svg width="45" height="45" viewBox="0 0 45 45" fill="none" xmlns="http://www.w3.org/2000/svg">
<path fill-rule="evenodd" clip-rule="evenodd" d="M0 12C0 5.37258 5.37258 0 12 0H33C39.6274 0 45 5.37258 45 12V33C45 39.6274 39.6274 45 33 45H12C5.37258 45 0 39.6274 0 33V12Z" fill="#FA873F"/>
<path d="M8.92213 35C8.8077 35.0006 8.69427 34.9787 8.58833 34.9354C8.4824 34.8922 8.38605 34.8284 8.3048 34.7478C8.15066 34.5861 8.06466 34.3713 8.06466 34.1479C8.06466 33.9245 8.15066 33.7097 8.3048 33.548L14.9302 26.9313L13.113 25.0967C13.0005 24.9821 12.922 24.8385 12.8861 24.682C12.8502 24.5254 12.8584 24.362 12.9097 24.2099C12.961 24.0577 13.0535 23.9227 13.1769 23.8199C13.3002 23.717 13.4497 23.6504 13.6086 23.6273L22.7815 22.3318C22.9152 22.3122 23.0515 22.324 23.1798 22.3662C23.3081 22.4085 23.4248 22.48 23.5206 22.5752C23.6145 22.6701 23.6853 22.7853 23.7275 22.912C23.7698 23.0386 23.7822 23.1733 23.764 23.3056L22.4772 32.5394C22.4551 32.6993 22.3888 32.8498 22.2859 32.9742C22.1831 33.0986 22.0476 33.1919 21.8947 33.2437C21.7444 33.2909 21.5842 33.2964 21.431 33.2597C21.2779 33.2229 21.1376 33.1452 21.0252 33.035L18.5472 30.5309C18.4667 30.4498 18.403 30.3537 18.3596 30.248C18.3163 30.1423 18.2942 30.0291 18.2946 29.9148C18.295 29.8006 18.3179 29.6876 18.362 29.5822C18.4061 29.4768 18.4705 29.3811 18.5515 29.3006C18.6326 29.2201 18.7287 29.1564 18.8344 29.113C18.9401 29.0697 19.0533 29.0476 19.1676 29.048C19.2818 29.0484 19.3949 29.0713 19.5003 29.1154C19.6057 29.1595 19.7013 29.2239 19.7818 29.3049L21.0252 30.557L21.8947 24.1751L15.5736 25.0445L16.7387 26.2444C16.9114 26.394 17.0182 26.6056 17.0361 26.8334C17.054 27.0612 16.9815 27.2869 16.8343 27.4617L16.7648 27.5399L9.53946 34.7478C9.45821 34.8284 9.36186 34.8922 9.25593 34.9354C9.14999 34.9787 9.03656 35.0006 8.92213 35ZM26.0247 27.8181C25.8212 27.8222 25.6228 27.7549 25.464 27.6278C25.3051 27.5007 25.1958 27.3219 25.1552 27.1226C25.1323 27.0107 25.1317 26.8954 25.1534 26.7832C25.1752 26.6711 25.2187 26.5644 25.2817 26.4691C25.3447 26.3738 25.4258 26.2919 25.5205 26.228C25.6151 26.164 25.7215 26.1194 25.8334 26.0966C26.9601 25.8632 27.9976 25.3151 28.8255 24.516C29.6534 23.7169 30.2379 22.6995 30.511 21.5817C30.7842 20.464 30.7349 19.2917 30.3689 18.2008C30.0029 17.1099 29.3351 16.1451 28.443 15.4183C27.551 14.6915 26.4711 14.2325 25.3288 14.0945C24.1864 13.9564 23.0284 14.1451 21.9889 14.6385C20.9494 15.1319 20.071 15.9099 19.4557 16.8822C18.8404 17.8545 18.5133 18.9813 18.5124 20.132C18.5124 20.3626 18.4208 20.5838 18.2577 20.7468C18.0947 20.9099 17.8735 21.0015 17.6429 21.0015C17.4123 21.0015 17.1912 20.9099 17.0281 20.7468C16.8651 20.5838 16.7735 20.3626 16.7735 20.132C16.7744 18.6523 17.1949 17.2033 17.9861 15.9529C18.7773 14.7025 19.9069 13.7021 21.2436 13.0677C22.5804 12.4333 24.0697 12.1908 25.5386 12.3686C27.0076 12.5463 28.3961 13.1369 29.543 14.0718C30.6899 15.0067 31.5482 16.2476 32.0184 17.6506C32.4886 19.0536 32.5513 20.5611 32.1994 21.9984C31.8475 23.4356 31.0953 24.7436 30.0301 25.7706C28.9648 26.7976 27.6303 27.5015 26.1812 27.8008C26.1299 27.8132 26.0774 27.8191 26.0247 27.8181ZM26.3203 20.9319H22.6598C22.4292 20.9319 22.208 20.8403 22.045 20.6773C21.8819 20.5142 21.7903 20.293 21.7903 20.0625C21.7903 19.8319 21.8819 19.6107 22.045 19.4476C22.208 19.2846 22.4292 19.193 22.6598 19.193H26.3203C26.5509 19.193 26.772 19.2846 26.9351 19.4476C27.0981 19.6107 27.1897 19.8319 27.1897 20.0625C27.1897 20.293 27.0981 20.5142 26.9351 20.6773C26.772 20.8403 26.5509 20.9319 26.3203 20.9319ZM27.694 33.6871L32.9109 28.4702C35.0693 26.2969 36.2759 23.3551 36.2653 20.292C36.2547 17.229 35.0278 14.2956 32.8544 12.1372C30.681 9.97881 27.7392 8.77219 24.6761 8.78278C21.6131 8.79338 18.6797 10.0203 16.5213 12.1937L8.25264 20.4537C8.09006 20.6174 7.99919 20.839 8.00001 21.0698C8.00082 21.3005 8.09326 21.5214 8.25698 21.684C8.42071 21.8466 8.64231 21.9375 8.87304 21.9366C9.10376 21.9358 9.32471 21.8434 9.48729 21.6797L17.7473 13.4197C19.5851 11.5818 22.0778 10.5493 24.677 10.5493C27.2761 10.5493 29.7688 11.5818 31.6067 13.4197C33.4445 15.2576 34.477 17.7502 34.477 20.3494C34.477 22.9485 33.4445 25.4412 31.6067 27.2791L26.3898 32.4959C26.2279 32.6588 26.137 32.8792 26.137 33.1089C26.137 33.3386 26.2279 33.559 26.3898 33.7219C26.5527 33.8838 26.7731 33.9747 27.0028 33.9747C27.2325 33.9747 27.4529 33.8838 27.6158 33.7219L27.694 33.6871Z" fill="white"/>
</svg>
