<svg width="45" height="45" viewBox="0 0 45 45" fill="none" xmlns="http://www.w3.org/2000/svg">
<path fill-rule="evenodd" clip-rule="evenodd" d="M0 12.2727C0 5.49468 5.49468 0 12.2727 0H32.7273C39.5053 0 45 5.49468 45 12.2727V32.7273C45 39.5053 39.5053 45 32.7273 45H12.2727C5.49468 45 0 39.5053 0 32.7273V12.2727Z" fill="#FFD166"/>
<path d="M23.5686 26.3219C23.6386 25.8862 23.6733 25.4452 23.672 25.0034C23.672 23.411 23.1998 21.8543 22.3151 20.5302C21.4304 19.2062 20.1729 18.1742 18.7017 17.5648C17.2305 16.9554 15.6116 16.7959 14.0497 17.1066C12.4879 17.4173 11.0532 18.1841 9.92721 19.3101C8.80119 20.4362 8.03435 21.8708 7.72368 23.4327C7.41301 24.9945 7.57246 26.6134 8.18186 28.0846C8.79126 29.5559 9.82325 30.8133 11.1473 31.698C12.3535 32.504 13.7526 32.9676 15.196 33.0438" stroke="white" stroke-width="1.7" stroke-linecap="round" stroke-linejoin="round"/>
<path d="M25.8496 13.1918V8.72039C25.8485 8.58445 25.8057 8.45213 25.7269 8.34135C25.6481 8.23057 25.5372 8.14667 25.4091 8.10102C25.2811 8.05537 25.1421 8.05016 25.011 8.08611C24.8799 8.12206 24.763 8.19742 24.6761 8.302L22.3086 11.0981C16.1055 7.93676 6.77763 12.7738 8.48123 21.3351" stroke="white" stroke-width="1.7" stroke-linecap="round" stroke-linejoin="round"/>
<path d="M14.7898 27.0606L15.5739 38.6201C15.5733 38.7554 15.6141 38.8877 15.6908 38.9992C15.7676 39.1106 15.8765 39.196 16.0031 39.2437C16.1298 39.2915 16.2679 39.2994 16.3992 39.2663C16.5304 39.2333 16.6484 39.1609 16.7373 39.0589L19.0946 36.2832C27.5876 39.3735 34.2944 33.5703 33.3812 27.9766" stroke="white" stroke-width="1.7" stroke-linecap="round" stroke-linejoin="round"/>
<path d="M11.8234 25.5718C11.2216 21.3614 17.1391 19.6493 19.0325 23.2285" stroke="white" stroke-width="1.7" stroke-linecap="round" stroke-linejoin="round"/>
<path d="M33.3251 21.4339L32.6783 17.0273C32.6528 16.8721 32.5872 16.7263 32.4881 16.6041C32.389 16.482 32.2598 16.3877 32.1132 16.3307C31.9666 16.2737 31.8076 16.2559 31.652 16.279C31.4965 16.3021 31.3496 16.3654 31.2259 16.4625L28.4819 18.6182L27.7286 19.21C27.6062 19.3074 27.5116 19.4353 27.4541 19.5807C27.3966 19.7262 27.3783 19.8842 27.4009 20.039C27.4236 20.1937 27.4865 20.3398 27.5833 20.4627C27.6801 20.5855 27.8075 20.6808 27.9526 20.7391L28.8724 21.1045L32.0828 22.3802C32.2288 22.4439 32.3891 22.4674 32.5471 22.4483C32.7052 22.4293 32.8553 22.3684 32.9819 22.2719C33.1086 22.1754 33.2072 22.0469 33.2675 21.8995C33.3278 21.7522 33.3477 21.5915 33.3251 21.4339Z" stroke="white" stroke-width="1.7" stroke-linecap="round" stroke-linejoin="round"/>
<circle cx="30.8426" cy="19.628" r="8.06921" stroke="white" stroke-width="1.7" stroke-linecap="round" stroke-linejoin="round"/>
</svg>
