<svg width="45" height="45" viewBox="0 0 45 45" fill="none" xmlns="http://www.w3.org/2000/svg">
<path d="M0 11.25C0 5.0368 5.0368 0 11.25 0H33.75C39.9632 0 45 5.0368 45 11.25V33.75C45 39.9632 39.9632 45 33.75 45H11.25C5.0368 45 0 39.9632 0 33.75V11.25Z" fill="#55B6E2"/>
<path d="M29.9305 22.0284H33.9008L33.9008 25.7749L41.2025 20.1008L33.9008 14.0003L33.9008 16.944" stroke="white" stroke-width="1.76041" stroke-linecap="round" stroke-linejoin="round"/>
<path d="M14.973 26.0143H11.3017L11.3017 22.2678L4.00004 27.942L11.3017 34.0424L11.3017 31.0988" stroke="white" stroke-width="1.76041" stroke-linecap="round" stroke-linejoin="round"/>
<path d="M21.7966 16.6493C22.4192 14.6032 25.6555 15.1858 25.7557 17.2195" stroke="white" stroke-width="0.854853" stroke-linecap="round" stroke-linejoin="round"/>
<path d="M20 14.9999C20.2998 14.1904 21.4594 13.3897 22.2122 13.1166C22.965 12.8435 23.7818 12.7997 24.5594 12.9908C25.337 13.1819 26.0405 13.5994 26.5809 14.1903C27.1213 14.7812 27.4743 15.5192 27.5953 16.3107C27.7163 17.1023 27.5999 17.912 27.2607 18.6374C27.1672 18.8389 27.0575 19.0324 26.9328 19.216" stroke="white" stroke-width="0.854853" stroke-linecap="round" stroke-linejoin="round"/>
<path d="M15.5 21.5C14.5 21.5 14.6146 21.338 14.3082 20.5981C14.0018 19.8583 13.9216 19.0443 14.0778 18.2589C14.234 17.4735 14.6196 16.7521 15.1859 16.1859C15.7521 15.6196 16.4735 15.234 17.2589 15.0778C18.0443 14.9216 18.8583 15.0018 19.5981 15.3082C20.338 15.6146 20.9703 16.1336 21.4152 16.7994C21.86 17.4652 22.0975 18.248 22.0975 19.0488C22.0981 19.2709 22.0807 19.4926 22.0455 19.7118" stroke="white" stroke-width="0.854853" stroke-linecap="round" stroke-linejoin="round"/>
<path d="M16.1394 19.3346C15.8368 17.2174 18.8124 16.3565 19.7645 18.1563" stroke="white" stroke-width="0.854853" stroke-linecap="round" stroke-linejoin="round"/>
<path d="M14.6179 24.2105C14.2962 22.5701 15.363 20.979 17.0007 20.6568L25.9131 19.0131C27.5508 18.6909 29.1392 19.7594 29.461 21.3998L30.6261 27.3402C30.9478 28.9806 29.881 30.5717 28.2432 30.8939L19.3309 32.5376C17.6932 32.8598 16.1048 31.7913 15.783 30.1509L14.6179 24.2105Z" fill="#55B6E2"/>
<path d="M25.5955 25.2453C25.4346 24.4251 25.968 23.6296 26.7869 23.4684L29.7522 22.8849L30.3348 25.8551L27.3694 26.4386C26.5506 26.5998 25.7563 26.0655 25.5955 25.2453Z" fill="#55B6E2"/>
<path d="M14.6179 24.2105C14.2962 22.5701 15.363 20.979 17.0007 20.6568L25.9131 19.0131C27.5508 18.6909 29.1392 19.7594 29.461 21.3998L30.6261 27.3402C30.9478 28.9806 29.881 30.5717 28.2432 30.8939L19.3309 32.5376C17.6932 32.8598 16.1048 31.7913 15.783 30.1509L14.6179 24.2105Z" stroke="white" stroke-width="1.49635" stroke-linecap="round" stroke-linejoin="round"/>
<path d="M25.5955 25.2453C25.4346 24.4251 25.968 23.6296 26.7869 23.4684L29.7522 22.8849L30.3348 25.8551L27.3694 26.4386C26.5506 26.5998 25.7563 26.0655 25.5955 25.2453Z" stroke="white" stroke-width="1.49635" stroke-linecap="round" stroke-linejoin="round"/>
</svg>
