<svg width="45" height="45" viewBox="0 0 45 45" fill="none" xmlns="http://www.w3.org/2000/svg">
<path d="M0 11.25C0 5.0368 5.0368 0 11.25 0H33.75C39.9632 0 45 5.0368 45 11.25V33.75C45 39.9632 39.9632 45 33.75 45H11.25C5.0368 45 0 39.9632 0 33.75V11.25Z" fill="#FFD166"/>
<path d="M34.0065 20.2936C34.0065 19.3911 34.7369 18.6595 35.6379 18.6595H38.9009V21.9277H35.6379C34.7369 21.9277 34.0065 21.1961 34.0065 20.2936Z" fill="#FFD166"/>
<path d="M28.0442 13.7571H35.6379C37.44 13.7571 38.9009 15.2203 38.9009 17.0253V23.5619C38.9009 25.3669 37.44 26.8301 35.6379 26.8301H33.2602M38.9009 18.6595H35.6379C34.7369 18.6595 34.0065 19.3911 34.0065 20.2936C34.0065 21.1961 34.7369 21.9277 35.6379 21.9277H38.9009V18.6595Z" stroke="white" stroke-width="1.7" stroke-linecap="round" stroke-linejoin="round"/>
<path d="M28.7902 19.559L26.9216 9.32797C26.9084 9.20721 26.8587 9.09338 26.7791 9.00173C26.6995 8.91009 26.5938 8.84502 26.4762 8.81526C26.3587 8.7855 26.2348 8.79248 26.1213 8.83525C26.0078 8.87802 25.9101 8.95455 25.8412 9.05455L24.0231 11.7694C16.1471 9.87431 10.7623 15.7306 12.1418 20.6274" stroke="white" stroke-width="1.7" stroke-linecap="round" stroke-linejoin="round"/>
<path d="M7.64031 21.8855C7.27479 20.0219 8.4868 18.2143 10.3474 17.8482L20.4727 15.9808C22.3333 15.6147 24.138 16.8287 24.5035 18.6924L25.8272 25.4413C26.1927 27.3049 24.9807 29.1125 23.12 29.4786L12.9948 31.346C11.1341 31.7121 9.3295 30.4981 8.96398 28.6344L7.64031 21.8855Z" fill="#FFD166"/>
<path d="M20.1119 23.0612C19.9291 22.1294 20.5352 21.2256 21.4655 21.0425L24.8344 20.3796L25.4962 23.7541L22.1273 24.417C21.197 24.6 20.2947 23.993 20.1119 23.0612Z" fill="#FFD166"/>
<path d="M7.64031 21.8855C7.27479 20.0219 8.4868 18.2143 10.3474 17.8482L20.4727 15.9808C22.3333 15.6147 24.138 16.8287 24.5035 18.6924L25.8272 25.4413C26.1927 27.3049 24.9807 29.1125 23.12 29.4786L12.9948 31.346C11.1341 31.7121 9.3295 30.4981 8.96398 28.6344L7.64031 21.8855Z" stroke="white" stroke-width="1.7" stroke-linecap="round" stroke-linejoin="round"/>
<path d="M20.1119 23.0612C19.9291 22.1294 20.5352 21.2256 21.4655 21.0425L24.8344 20.3796L25.4962 23.7541L22.1273 24.417C21.197 24.6 20.2947 23.993 20.1119 23.0612Z" stroke="white" stroke-width="1.7" stroke-linecap="round" stroke-linejoin="round"/>
<path fill-rule="evenodd" clip-rule="evenodd" d="M28.386 26.3298L18.3241 28.1721L20.196 38.2444C20.2773 38.6824 20.8466 38.8038 21.0988 38.437L22.9688 35.7166C30.7988 37.5494 36.217 31.7454 34.8425 26.8663C32.4448 30.7902 28.1292 30.3586 27.0163 29.8284L28.8878 27.1058C29.1399 26.739 28.8236 26.2496 28.386 26.3298Z" fill="#FFD166"/>
<path d="M18.3241 28.1721L18.171 27.336C17.9489 27.3766 17.7521 27.504 17.624 27.69C17.496 27.876 17.4472 28.1054 17.4884 28.3274L18.3241 28.1721ZM28.386 26.3298L28.5391 27.1659V27.1659L28.386 26.3298ZM20.196 38.2444L21.0316 38.0891L20.196 38.2444ZM21.0988 38.437L21.7992 38.9185H21.7992L21.0988 38.437ZM22.9688 35.7166L23.1625 34.889C22.8216 34.8092 22.4666 34.9466 22.2683 35.2351L22.9688 35.7166ZM34.8425 26.8663L35.6607 26.6358C35.569 26.3105 35.2934 26.0704 34.9586 26.0243C34.6237 25.9781 34.2934 26.1347 34.1172 26.4231L34.8425 26.8663ZM27.0163 29.8284L26.3158 29.3469C26.1749 29.5519 26.1309 29.8083 26.1953 30.0485C26.2597 30.2888 26.4261 30.4887 26.6507 30.5957L27.0163 29.8284ZM28.8878 27.1058L28.1873 26.6243L28.1873 26.6243L28.8878 27.1058ZM18.4772 29.0082L28.5391 27.1659L28.2329 25.4937L18.171 27.336L18.4772 29.0082ZM21.0316 38.0891L19.1598 28.0168L17.4884 28.3274L19.3603 38.3997L21.0316 38.0891ZM20.3983 37.9555C20.5765 37.6962 20.9752 37.7855 21.0316 38.0891L19.3603 38.3997C19.5795 39.5793 21.1167 39.9114 21.7992 38.9185L20.3983 37.9555ZM22.2683 35.2351L20.3983 37.9555L21.7992 38.9185L23.6692 36.1981L22.2683 35.2351ZM34.0243 27.0968C34.6031 29.1511 33.7713 31.496 31.8078 33.1599C29.8632 34.8079 26.8303 35.7475 23.1625 34.889L22.775 36.5442C26.9372 37.5185 30.5285 36.4724 32.9069 34.4568C35.2664 32.4572 36.4564 29.4606 35.6607 26.6358L34.0243 27.0968ZM26.6507 30.5957C27.4059 30.9556 28.9582 31.1963 30.621 30.8497C32.3327 30.493 34.2287 29.5009 35.5678 27.3095L34.1172 26.4231C33.0586 28.1556 31.5979 28.9096 30.2742 29.1855C28.9016 29.4716 27.7395 29.2314 27.3819 29.061L26.6507 30.5957ZM28.1873 26.6243L26.3158 29.3469L27.7168 30.3099L29.5882 27.5873L28.1873 26.6243ZM28.5391 27.1659C28.2299 27.2225 28.0125 26.8786 28.1873 26.6243L29.5882 27.5873C30.2673 26.5994 29.4172 25.2768 28.2329 25.4937L28.5391 27.1659Z" fill="white"/>
</svg>
