<svg width="520" height="250" viewBox="0 0 520 250" fill="none" xmlns="http://www.w3.org/2000/svg">
<path d="M469.662 230.746H50.2928C38.1299 230.746 29.7868 218.429 34.3102 207.118L73.6134 108.988C77.3327 99.6376 86.3795 93.5547 96.4315 93.5547H426.539C435.435 93.5547 443.477 98.3305 447.849 105.871C449.357 108.435 446.492 101.246 485.795 207.57C489.967 218.831 481.674 230.746 469.662 230.746Z" fill="#ADE1FB"/>
<path d="M470.516 230.394H50.4436C51.1975 213.754 50.4436 198.321 64.8682 186.256C79.2928 174.191 76.5285 161.221 78.0363 151.569C81.253 131.058 95.7781 124.925 113.62 126.634C176.747 132.868 162.272 110.245 220.272 123.517C239.572 127.941 255.504 129.65 272.894 123.517C350.295 96.27 341.7 144.631 387.085 126.634C401.962 120.752 417.643 120.249 426.589 133.471C438.4 150.965 424.076 151.669 450.312 180.475C468.757 198.019 472.527 214.71 470.516 230.394Z" fill="#1EB8E7"/>
<path d="M77.2825 198.773C84.0676 202.695 79.0416 209.28 69.7435 209.28C61.4003 209.28 56.123 203.801 60.948 199.678" stroke="#008FDA" stroke-width="2.64905" stroke-linecap="round" stroke-linejoin="round"/>
<path d="M84.9722 207.621C87.1837 203.901 85.9774 198.974 79.8457 195.857M58.5858 211.442C64.6672 215.111 74.1161 215.262 80.3986 211.743L58.5858 211.442Z" stroke="#008FDA" stroke-width="2.64905" stroke-linecap="round" stroke-linejoin="round"/>
<path d="M87.3345 166.498C91.4056 169.967 87.9376 174.29 81.9064 175.396" stroke="#008FDA" stroke-width="2.52249" stroke-linecap="round" stroke-linejoin="round"/>
<path fill-rule="evenodd" clip-rule="evenodd" d="M53.4593 121.656V125.929C53.4593 131.861 44.513 131.861 44.513 125.929V121.656C44.513 110.496 53.5598 101.447 64.6672 101.447C75.825 101.447 84.8215 110.496 84.8215 121.656V167.755C84.8215 173.687 75.8752 173.687 75.8752 167.755V121.656C75.8752 106.776 53.4593 106.776 53.4593 121.656Z" fill="#DAEBED"/>
<path opacity="0.1" fill-rule="evenodd" clip-rule="evenodd" d="M76.026 122.914C76.026 113.363 66.4263 107.079 58.7365 112.106C52.9064 115.776 53.3587 121.456 53.2582 125.83L49.3882 125.981V122.462C49.3882 113.312 56.2738 105.973 64.7175 105.973C73.2114 105.973 80.0468 113.363 80.0468 122.512V126.735C74.7695 126.785 76.026 139.001 76.026 122.914ZM75.9757 148.553C74.6689 170.069 77.4835 155.44 78.7903 158.406V150.362C82.7608 137.694 82.2079 140.911 82.3587 130.053L75.9757 148.553ZM79.9965 172.432C82.9618 172.432 82.2079 166.701 82.2079 161.472C82.2079 161.472 77.6845 172.432 79.9965 172.432Z" fill="#163050"/>
<path d="M53.4593 121.656V125.929C53.4593 131.861 44.513 131.861 44.513 125.929V121.656C44.513 110.496 53.5598 101.447 64.6673 101.447C75.825 101.447 84.8215 110.496 84.8215 121.656V167.755C84.8215 173.687 75.8752 173.687 75.8752 167.755V121.656C75.8752 106.776 53.4593 106.776 53.4593 121.656Z" stroke="#163050" stroke-width="2.32868" stroke-linecap="round" stroke-linejoin="round"/>
<path fill-rule="evenodd" clip-rule="evenodd" d="M82.3587 163.28L71.1507 196.359C69.5927 201.135 63.4107 198.169 64.9185 193.443L76.1265 160.365C77.6845 155.589 83.9168 158.555 82.3587 163.28Z" fill="#DAEBED"/>
<path fill-rule="evenodd" clip-rule="evenodd" d="M82.2079 131.962L70.9999 165.041C69.4419 169.817 63.2599 166.851 64.7677 162.125L75.9757 129.047C77.5337 124.321 83.7659 127.287 82.2079 131.962Z" fill="#DAEBED"/>
<path d="M82.0571 162.426L70.8492 195.505C69.2911 200.28 63.9133 197.918 65.4211 193.242L76.6291 160.164C78.0866 156.192 83.4644 158.756 82.0571 162.426Z" stroke="#163050" stroke-width="2.32868" stroke-linecap="round" stroke-linejoin="round"/>
<path d="M82.0572 131.561L70.8492 164.639C69.2912 169.415 63.5615 167.203 65.1196 162.478L76.3276 129.399C77.8354 124.623 83.565 126.835 82.0572 131.561Z" stroke="#163050" stroke-width="2.32868" stroke-linecap="round" stroke-linejoin="round"/>
<path fill-rule="evenodd" clip-rule="evenodd" d="M74.7695 147.898V203.246C72.558 205.961 66.6274 205.659 64.9185 203.246V147.898C64.9185 139.754 57.2287 134.324 50.1421 135.883C48.6343 136.184 46.8752 136.989 46.7244 137.139C34.8631 143.423 45.2166 157.55 35.3657 157.55C29.636 157.55 30.4402 151.266 30.4402 147.948C30.4402 135.732 40.3414 125.828 52.5546 125.828C64.8683 125.778 74.7695 135.682 74.7695 147.898Z" fill="#DBEBED"/>
<path opacity="0.1" fill-rule="evenodd" clip-rule="evenodd" d="M69.1906 147.747V205.157C67.3812 205.057 65.6724 204.353 64.9185 203.247V148.2C64.9185 138.648 54.5649 132.364 46.2721 137.391C35.3656 143.826 44.8145 156.142 36.1698 157.45V147.747C36.1698 138.598 43.558 131.258 52.7053 131.258C61.8024 131.208 69.1906 138.648 69.1906 147.747Z" fill="#163050"/>
<path d="M74.7695 147.898V203.246C72.558 205.961 66.6274 205.659 64.9185 203.246V147.898C64.9185 139.754 57.2287 134.324 50.1421 135.883C48.6343 136.184 46.8752 136.989 46.7244 137.139C34.8631 143.423 45.2166 157.55 35.3657 157.55C29.636 157.55 30.4402 151.266 30.4402 147.948C30.4402 135.732 40.3414 125.828 52.5546 125.828C64.8683 125.778 74.7695 135.682 74.7695 147.898Z" stroke="#163050" stroke-width="2.32868" stroke-linecap="round" stroke-linejoin="round"/>
<path d="M451.619 115.071L450.362 180.524C436.289 168.157 406.485 119.595 406.485 119.595L435.134 80.8359C451.418 112.909 448.402 106.424 451.619 115.071Z" fill="#8BD8FF"/>
<path d="M450.362 180.525C441.768 176.855 436.34 158.506 415.834 158.506C397.439 158.506 389.045 179.771 354.818 169.515C324.964 160.567 329.638 148.753 329.638 140.861C329.638 135.13 334.312 128.092 341.851 121.707C364.066 133.169 370.499 133.269 387.135 126.684C430.057 109.642 432.319 150.362 433.877 155.841C436.641 165.544 443.577 173.084 450.362 180.525Z" fill="#0DA3E0"/>
<path d="M367.986 211.643C367.986 203.499 373.364 191.887 376.078 191.887C384.672 191.887 386.281 223.809 379.998 223.809C378.993 223.759 367.986 221.647 367.986 211.643Z" fill="#0DA3E0"/>
<path d="M375.776 222.502C370.6 189.876 377.636 164.087 390.05 156.546C394.272 152.474 406.234 154.083 406.234 154.083C395.78 153.279 376.581 179.118 386.733 226.524L375.776 222.502Z" fill="#82D5EA"/>
<path d="M126.236 227.027C117.943 225.016 111.811 220.09 109.951 212.499C105.78 215.364 99.4974 216.42 93.9688 216.42C96.9341 213.856 100.101 211.694 102.211 208.326C105.378 203.249 106.232 197.166 111.962 194.25C114.525 198.221 112.816 205.41 124.527 218.833C127.04 221.698 128.799 223.508 126.236 227.027Z" fill="#0DA3E0"/>
<path d="M280.584 135.532C280.584 135.532 271.588 121.355 290.385 98.8839C309.182 76.4126 321.445 86.8187 325.114 89.4831C328.582 91.5945 310.74 113.463 301.341 116.931C291.943 120.4 286.213 139.956 286.213 139.956L280.584 135.532Z" fill="#82D5EA"/>
<path d="M181.974 103.559L186.749 96.6211C208.21 78.4228 248.468 103.709 242.135 127.186C242.185 127.186 179.36 130.906 181.974 103.559Z" fill="#A8E5EF"/>
<path d="M184.889 131.812C168.504 106.927 188.86 90.0361 210.572 96.7725C234.345 104.162 244.497 121.406 238.215 136.437C228.113 137.543 222.886 134.778 214.14 130.153C205.395 125.528 199.364 135.079 184.889 131.812Z" fill="#82D5EA"/>
<path d="M403.922 52.9859C417.492 45.8976 419.251 45.9479 429.052 45.9479C439.707 45.9479 447.196 33.6816 455.941 33.6816C458.102 33.6816 460.464 35.039 460.464 36.9995C460.464 43.1327 445.386 46.149 445.386 52.6843C445.386 57.0579 456.092 52.3826 461.721 48.7128C476.95 38.8093 480.769 45.4452 484.79 45.4452C487.856 45.4452 491.224 39.8148 495.697 39.8148C498.31 39.8148 500.17 42.1272 500.17 44.7916C500.17 52.2821 493.485 51.1761 492.128 63.1407C491.575 67.7657 489.615 72.089 485.996 74.7031C472.225 84.7072 480.92 93.9571 480.92 93.9571C387.135 156.243 391.256 156.394 375.173 158.305C356.376 159.159 343.258 149.306 336.574 142.62C331.799 137.844 329.135 127.036 328.582 117.183C327.477 97.3756 333.709 93.9068 343.509 88.0251C394.071 57.7617 399.7 55.1978 403.922 52.9859Z" fill="#FFC858"/>
<path d="M497.405 70.6308C490.671 76.3115 499.516 81.2884 489.163 88.4269C489.163 88.4269 485.293 91.1416 479.161 95.2638C396.383 150.764 395.026 153.78 384.471 156.042C395.378 146.742 387.135 133.118 403.168 121.606C410.757 116.177 488.007 65.5534 492.832 61.8333C497.707 58.1132 504.09 64.8999 497.405 70.6308Z" fill="#FFDA7F"/>
<path opacity="0.4" d="M489.163 88.4264C476.799 96.8721 482.73 92.5487 451.669 113.361C392.865 152.774 392.211 154.131 385.276 155.79C405.128 128.945 352.757 166.096 497.405 70.5801C490.671 76.311 499.516 81.2879 489.163 88.4264Z" fill="#FFC858"/>
<path d="M165.237 150.664C155.286 155.892 146.038 169.817 134.529 169.164C133.373 160.97 125.08 145.184 111.51 142.721C111.359 140.61 111.309 138.398 111.309 136.085C120.154 97.6277 164.333 94.5611 171.57 122.361C174.033 131.863 171.369 142.319 165.237 150.664Z" fill="#82D5EA"/>
<path opacity="0.8" d="M155.135 130.102C157.447 122.109 159.558 117.785 155.99 117.785C155.437 117.785 155.738 117.735 148.049 120.852C146.742 121.354 146.792 122.611 146.39 124.421C143.626 121.556 146.541 121.455 120.657 132.012C118.546 132.867 119.601 134.978 120.607 139.553C121.26 142.368 124.276 140.608 126.185 139.804C130.608 159.259 127.593 150.11 138.901 147.445C138.901 147.093 139.102 148.099 136.237 135.732C139.856 134.274 140.108 134.274 140.56 133.721C142.369 135.33 142.419 133.269 138.901 145.384C138.7 146.088 138.901 146.842 139.404 147.345C140.811 147.043 142.218 146.892 143.726 146.943C149.004 144.831 149.757 144.831 150.059 143.474C150.863 140.156 150.26 140.407 152.12 142.267C152.672 142.871 153.577 143.021 154.281 142.72C161.77 139.704 162.574 139.754 162.825 138.246C163.076 136.788 162.674 136.838 155.135 130.102Z" fill="white"/>
<path d="M93.2652 137.543C106.534 125.579 113.017 142.118 111.811 161.372C110.957 175.147 99.2964 208.376 91.8077 208.376C86.6812 208.376 100 186.81 100 183.089C100 177.911 93.3657 178.967 93.3657 172.382C93.3657 167.204 100.452 153.982 100.452 149.86C100.503 144.531 91.8579 143.375 93.2652 137.543Z" fill="#82D5EA"/>
<path d="M104.724 134.426L111.811 136.738C126.085 142.117 121.159 198.421 94.6222 217.726C94.6222 217.726 89.5962 215.715 90.7019 209.883C104.724 196.662 108.343 182.636 111.057 163.131C114.224 140.257 104.724 134.426 104.724 134.426Z" fill="#A8E5EF"/>
<path d="M164.835 151.67C164.835 151.67 181.27 129.6 166.293 112.91C175.34 119.496 179.964 134.879 170.967 151.217C168.002 150.664 166.645 150.312 164.835 151.67Z" fill="#A8E5EF"/>
<path d="M132.971 229.088C126.889 222.603 111.56 212.901 111.56 184.296C111.56 156.848 129.503 148.402 134.177 148.402C139.655 148.402 144.983 220.19 144.983 224.312C144.932 230.546 138.097 230.395 132.971 229.088Z" fill="#82D5EA"/>
<path opacity="0.4" d="M132.016 228.282C137.796 229.338 137.695 228.835 143.827 227.729C139.454 223.707 129.804 217.574 125.13 206.213C121.763 206.112 118.546 205.308 115.38 204.102C118.596 215.463 123.572 220.239 132.016 228.282Z" fill="#1EB8E7"/>
<path d="M144.932 227.73C130.256 218.832 119.049 197.467 119.049 184.748C119.049 166.349 125.783 146.24 144.329 146.24C153.376 146.24 169.861 157.099 174.938 174.091C164.936 206.013 170.716 211.493 157.548 221.647C154.13 224.262 149.305 228.384 144.932 227.73Z" fill="#A8E5EF"/>
<path d="M131.111 169.465C130.407 179.821 129.402 178.011 135.886 180.675L134.78 197.818C134.679 199.778 136.137 199.829 142.671 202.392C151.768 205.911 153.376 207.118 154.432 204.956C155.386 203.046 154.934 202.694 156.04 206.665C156.392 207.973 156.794 207.822 164.333 210.738C165.036 211.039 165.891 210.838 166.444 210.335C167.7 209.179 167.348 209.38 162.473 193.846C169.861 180.826 170.766 183.289 159.91 178.715C158.955 178.312 157.799 178.715 157.347 179.67C156.743 180.876 157.095 181.077 156.241 178.011C155.889 176.653 156.593 177.307 133.976 167.705C132.619 167.202 131.161 168.107 131.111 169.465ZM145.636 196.712C146.49 182.636 145.686 184.747 148.199 185.753C149.858 191.031 150.31 188.568 145.636 196.712Z" fill="white"/>
<path d="M331.045 99.839C330.844 88.5279 314.912 80.1829 296.114 101.95C284.052 115.976 279.428 132.264 286.716 141.263C291.49 128.192 292.295 119.344 304.86 121.657C317.425 123.969 327.778 117.082 327.778 117.082C329.135 106.927 331.045 99.839 331.045 99.839Z" fill="#A8E5EF"/>
<path opacity="0.7" d="M229.118 120.601C228.867 119.043 228.113 119.143 220.473 116.379C219.769 116.127 218.965 116.278 218.463 116.781C216.955 118.138 217.458 118.339 216.653 115.876C216.251 114.518 217.206 114.971 192.78 106.425C189.915 105.419 189.764 109.793 189.211 112.357C188.759 114.619 191.373 114.971 194.036 115.926C192.227 124.573 191.222 126.383 193.433 127.187C199.816 129.499 200.62 130.103 201.726 129.147C201.726 129.449 202.028 130.103 202.53 130.455C211.828 127.84 217.608 132.013 225.298 134.778L222.282 127.036C228.565 122.361 229.369 122.16 229.118 120.601ZM202.631 127.086L204.289 119.546C208.913 121.205 207.908 120.551 208.712 122.461L202.631 127.086Z" fill="white"/>
<path d="M292.546 142.319C303.754 131.813 317.123 127.54 330.291 130.707C364.619 139.001 364.92 164.942 358.437 174.946C336.222 157.552 334.01 189.675 300.085 169.567C299.683 164.389 299.281 163.182 299.281 163.182C303.251 157.702 301.492 143.325 292.546 142.319Z" fill="#82D5EA"/>
<path d="M283.499 216.519C294.657 178.212 274.402 142.569 251.584 136.688C251.584 136.688 269.276 137.592 277.87 146.189C282.695 151.015 294.355 169.314 295.562 183.239C296.768 197.164 294.657 212.547 294.657 212.547C294.657 212.547 290.184 216.669 283.499 216.519Z" fill="#77ECFF"/>
<path opacity="0.7" d="M324.21 103.71C324.21 102.252 322.702 101.297 321.345 101.9C315.414 104.565 315.263 104.414 314.861 105.269C314.007 106.978 314.56 106.425 313.605 105.972C313.052 105.721 312.499 105.771 311.997 105.972C293.099 114.368 293.099 113.764 292.898 115.373C292.295 120.099 291.842 121.104 293.099 122.009C295.411 123.769 296.265 119.697 295.813 123.517C298.426 121.707 301.693 121.506 304.91 121.657C305.563 116.881 304.809 117.937 307.875 116.63L305.161 121.707C311.997 122.059 314.61 123.266 322.049 119.998C322.199 119.093 322.049 119.144 319.284 113.463C324.461 103.71 324.21 104.414 324.21 103.71Z" fill="white"/>
<path d="M288.525 142.318C288.525 142.318 289.882 142.218 292.546 142.318C317.726 117.987 356.577 130.404 361.402 161.371C369.745 127.237 307.724 109.139 288.525 142.318Z" fill="#A8E5EF"/>
<path d="M386.733 226.574C377.485 187.312 391.056 164.489 399.449 157.3C412.969 145.737 427.997 166.801 428.298 187.865C415.331 189.323 414.477 208.527 412.718 214.961C410.958 221.346 400.002 234.064 386.733 226.574Z" fill="#A8E5EF"/>
<path d="M206.3 191.635C205.948 160.316 227.66 126.333 255.906 138.247C289.229 152.323 289.681 201.187 283.549 216.52C283.549 216.52 277.166 217.123 271.99 213.202C262.691 206.214 262.088 212.397 250.88 211.694C250.83 211.694 239.321 191.535 206.3 191.635Z" fill="#3ED8FF"/>
<path opacity="0.4" d="M283.951 209.984C273.196 205.359 273.095 202.494 254.951 204.354C236.808 206.214 209.567 191.032 207.003 185.1C204.44 191.786 208.009 204.354 208.009 204.354C250.981 221.898 259.676 205.309 269.075 211.392C273.95 214.559 279.227 216.972 283.499 216.519C284.856 212.749 283.951 209.984 283.951 209.984Z" fill="#1EB8E7"/>
<path opacity="0.9" d="M338.785 153.528C338.232 153.428 337.478 153.629 336.976 154.131C334.412 156.947 335.217 157.097 334.061 153.83C333.508 152.221 334.613 152.573 303.302 147.847C302.146 147.697 301.191 148.451 301.04 149.456C299.331 158.103 298.678 157.097 306.066 158.254C302.749 174.592 301.191 171.726 313.353 173.586C315.866 173.989 315.615 171.978 318.128 160.164C323.054 160.918 323.355 161.169 324.21 160.566L325.366 163.18L317.173 170.972C315.967 172.128 316.62 174.139 318.229 174.441C329.939 176.251 327.527 176.804 331.347 172.782L331.799 174.039C335.468 172.48 338.886 170.671 342.756 170.017L340.996 165.845C352.607 154.936 353.21 156.042 338.785 153.528Z" fill="white"/>
<path d="M163.277 228.785C163.277 228.785 162.373 219.485 169.61 210.939C176.847 202.393 188.96 187.211 224.343 193.796C242.788 199.276 254.047 209.833 257.766 228.987C249.875 228.785 230.274 208.978 206.953 209.431C183.683 209.833 163.277 228.785 163.277 228.785Z" fill="#A8E5EF"/>
<path d="M416.186 189.575C415.08 173.739 415.582 173.086 413.622 172.583C412.768 172.382 411.863 172.734 411.411 173.488C406.887 180.928 406.837 180.727 406.938 181.632C407.39 186.106 407.591 184.246 405.983 184.246C405.329 184.246 404.626 184.598 404.274 185.201C389.296 209.734 389.698 208.427 390.251 209.784C392.965 216.37 393.066 217.526 394.674 217.677C399.449 217.677 394.624 207.17 402.666 226.876C402.766 227.077 406.887 225.016 410.355 219.486C410.355 219.034 410.205 218.732 409.903 218.029C413.924 220.039 413.874 201.238 419.704 192.34L416.186 189.575ZM404.224 203.902C407.139 199.026 406.536 199.579 407.239 200.132C408.546 218.028 409.702 217.425 404.224 203.902Z" fill="white"/>
<path d="M163.277 228.785C180.466 193.896 236.808 194.148 255.203 228.584C246.307 230.293 240.326 223.657 234.546 223.657C228.917 223.657 225.399 229.589 211.929 229.589C188.709 229.589 195.795 225.919 179.36 226.623C172.877 226.874 164.282 229.84 163.277 228.785Z" fill="#82D5EA"/>
<path d="M216.503 227.428C203.988 216.268 204.742 216.67 204.038 216.871C203.335 217.072 203.636 216.871 199.917 226.674C199.565 227.629 200.57 228.031 202.028 229.187C217.508 230.444 223.288 228.433 230.023 225.116L216.503 227.428Z" fill="white"/>
<path d="M187.352 174.895C190.066 181.38 196.348 187.865 206.25 187.01C207.205 183.139 207.406 179.168 207.406 179.168C200.721 180.726 195.594 177.911 191.825 172.08C195.192 168.108 195.594 163.835 191.523 163.483C187.452 163.182 185.693 168.41 183.482 170.37C181.27 172.331 176.596 175.196 178.908 177.71C181.17 180.224 187.352 174.895 187.352 174.895Z" fill="white"/>
<path d="M216.854 148.753C215.749 158.656 274.704 180.122 284.756 178.765C288.726 178.212 296.868 175.447 295.562 170.922C294.255 166.398 288.827 153.378 285.66 152.171C284.454 151.618 283.097 151.668 283.097 151.668C283.399 153.579 284.253 153.981 281.288 155.087C278.322 156.193 277.016 157.047 271.889 155.891C266.763 154.735 245.1 147.345 233.792 141.463C231.681 140.508 231.229 139.201 234.546 137.844C228.917 136.436 226.354 138.397 222.936 141.262C219.518 144.128 217.106 146.138 216.854 148.753Z" fill="#BFB5F2"/>
<path d="M271.487 141.565C273.648 141.364 278.172 138.297 286.364 143.727C288.073 143.174 289.983 142.42 291.842 142.42C295.612 142.42 300.99 146.844 300.99 154.083C300.99 159.059 299.13 162.88 299.13 163.433C299.13 163.785 300.386 168.259 300.386 173.337C300.386 177.861 298.426 181.832 296.416 185.754C296.416 185.703 294.003 175.046 294.003 174.996C294.858 173.89 295.36 172.884 295.36 171.477C295.36 168.661 288.977 150.815 283.65 151.921C277.619 145.084 274.352 143.425 271.487 141.565Z" fill="#BFB5F2"/>
<path d="M291.742 200.684C291.742 206.767 304.256 208.024 307.674 208.024C315.866 208.024 315.615 206.566 318.882 210.487C320.742 212.749 322.802 213.553 324.662 216.268C325.215 217.123 326.17 219.385 328.381 219.385C330.341 219.385 330.693 217.374 331.196 216.52C334.061 221.496 338.433 219.938 338.433 216.268C338.433 212.045 337.227 213.101 338.886 213.101C340.293 213.101 341.6 211.844 341.6 209.934C341.6 206.063 336.574 204.605 332.905 203.097C337.328 198.573 334.161 195.908 332.302 195.908C329.839 195.908 325.366 200.935 323.054 200.935C322.4 200.935 321.747 200.583 320.038 200.583C317.927 200.583 314.107 200.835 312.047 200.785C303.503 200.533 298.527 196.813 295.762 197.014C294.003 196.964 291.742 198.422 291.742 200.684Z" fill="white"/>
<path d="M260.882 82.3943C260.882 85.863 267.064 87.7231 267.064 93.4037C267.064 105.569 240.577 111.3 235.903 90.488C233.641 80.4839 229.419 76.2611 223.79 75.7081C210.823 74.3508 209.567 85.1592 192.227 85.1592C173.53 85.1592 170.816 78.6742 160.915 80.0315C151.014 81.3889 145.787 90.7896 135.383 90.7896C126.135 90.7896 118.697 84.2543 118.697 74.6022C118.697 69.4745 121.964 62.9895 118.445 59.571C114.626 55.8509 100.704 58.8169 100.704 47.2545C100.704 39.8143 109.449 37.1499 113.821 27.4475C118.194 17.7452 129.151 7.28871 146.289 8.74658C166.142 10.4558 176.596 15.5835 197.253 15.5835C223.74 15.5835 226.002 3.01562 241.331 3.01562C260.53 3.01562 268.471 18.2981 282.092 22.6718C288.475 24.7329 294.657 25.3865 299.432 26.7438C309.986 29.7601 312.65 38.8592 303.955 46.048C301.14 48.4107 298.477 50.9746 297.823 54.192C296.215 62.336 300.286 80.7353 281.941 77.9201C277.769 76.5628 273.698 74.0995 269.225 74.0995C264.25 74.1498 260.882 76.7136 260.882 82.3943Z" fill="#BFB5F2"/>
<path d="M262.139 109.742C271.537 109.742 277.066 122.008 263.295 124.472C249.272 126.985 246.055 109.742 262.139 109.742Z" fill="white"/>
<path opacity="0.4" d="M166.645 222.551C180.215 217.021 202.38 228.282 213.889 226.02C228.867 223.054 230.626 214.558 254.951 226.422L255.203 228.533C246.156 229.086 238.165 223.657 234.546 223.607C230.927 223.556 218.815 231.65 195.594 228.081C176.244 225.115 171.821 227.98 163.73 229.338C164.634 225.165 166.645 222.551 166.645 222.551Z" fill="#1EB8E7"/>
<path opacity="0.4" d="M175.289 174.191C161.669 189.373 168.253 218.531 138.801 223.256C138.801 223.256 141.263 227.077 144.832 228.585C162.875 219.637 165.79 213.705 168.555 199.578C171.319 185.452 172.726 177.56 175.289 174.191Z" fill="#1EB8E7"/>
<path opacity="0.4" d="M285.308 209.431C285.308 209.431 290.485 206.264 291.742 200.684C291.742 200.684 290.988 204.353 295.863 206.012C295.26 209.129 294.707 212.648 294.707 212.648C290.586 215.564 283.549 216.569 283.549 216.569L285.308 209.431Z" fill="#1EB8E7"/>
<path d="M257.515 132.012C257.113 127.739 262.993 127.739 262.993 132.163C262.993 134.978 257.816 135.33 257.515 132.012Z" fill="white"/>
<path d="M291.742 200.684C303.402 205.259 311.997 205.259 318.128 204.103C318.279 208.225 321.998 208.979 324.109 211.945C326.22 214.911 326.622 216.821 328.532 216.671C330.392 216.52 330.945 215.162 330.945 215.162L326.019 208.577C326.019 208.577 329.236 207.772 332.201 212.699C335.217 217.626 338.031 216.52 337.679 214.157C337.378 212.347 330.14 206.315 330.14 206.315C331.146 205.058 333.608 206.114 336.021 208.225C338.433 210.336 341.549 211.493 340.896 208.577C344.263 212.046 338.584 214.66 338.081 213.001C340.695 219.586 334.262 222.251 331.296 216.52C330.995 219.134 328.783 221.094 326.069 217.777C319.284 209.482 316.821 209.633 316.47 207.521C308.126 208.527 290.787 208.275 291.742 200.684ZM333.809 202.946C333.809 202.946 335.669 201.489 335.971 199.126C336.423 195.808 332.854 194.702 331.899 196.713C334.312 196.713 334.061 198.573 332.704 199.679C331.347 200.785 330.693 202.042 330.693 202.042L333.809 202.946Z" fill="#DAEBED"/>
<path d="M191.523 172.23C189.01 168.46 191.976 167.957 191.674 164.539C193.182 164.438 193.936 165.695 193.936 167.153C193.936 169.063 192.579 170.672 191.523 172.23ZM187 175.297C192.378 185.955 201.475 187.01 206.652 187.01C206.652 187.01 207.104 185.452 207.204 182.385C204.34 183.139 199.816 183.491 195.846 181.732C185.14 177.006 188.206 170.873 183.381 174.442C181.12 176.101 178.757 176.202 178.757 175.046C177.25 176.705 179.36 181.581 187 175.297Z" fill="#DAEBED"/>
<path opacity="0.6" d="M296.315 184.597C296.265 178.765 294.607 178.464 294.607 176C294.607 174.341 295.662 173.185 295.662 170.822C295.662 167.907 290.234 158.657 290.234 156.696C290.234 155.691 290.737 155.389 291.34 150.412C296.466 155.037 295.109 160.114 296.014 165.644C297.12 172.381 300.135 173.235 295.763 179.821" fill="#A382E5"/>
<path opacity="0.6" d="M291.641 151.92C286.012 149.658 279.529 140.861 271.185 140.609C274.804 144.38 276.463 144.179 281.64 150.211C284.756 153.831 286.263 150.412 290.435 157.551C291.49 155.842 291.893 153.881 291.641 151.92Z" fill="#A382E5"/>
<path opacity="0.6" d="M300.286 159.863C300.286 161.271 299.532 162.679 299.18 163.986C296.567 160.266 294.858 154.987 291.44 152.323C291.44 152.323 291.088 146.542 285.459 143.123C293.601 142.671 300.286 155.44 300.286 159.863Z" fill="#A382E5"/>
<path d="M217.407 152.273C230.776 168.109 278.523 190.228 294.556 177.711L294.003 175.046C289.38 178.515 285.007 179.722 279.378 178.415C248.619 171.326 223.69 157.451 217.407 152.273Z" fill="#1EB8E7"/>
<path opacity="0.3" d="M297.421 137.844C306.166 144.178 307.875 156.796 307.172 164.337C326.069 173.637 336.976 159.762 360.899 169.464L358.487 174.994C341.298 159.812 330.392 184.646 308.428 173.436C304.206 171.274 300.135 169.615 300.135 169.615C299.532 166.398 299.331 163.231 299.331 163.231C301.945 155.992 302.397 145.183 292.596 142.368C293.802 140.458 297.421 137.844 297.421 137.844Z" fill="#1EB8E7"/>
<path opacity="0.4" d="M181.22 124.924C197.605 126.181 192.579 123.617 202.279 123.617C214.191 123.617 225.801 132.515 233.088 132.515C240.527 132.515 240.728 126.583 238.567 136.185C234.646 139.805 220.775 132.666 218.061 131.56C200.771 124.572 187.352 143.122 181.22 124.924Z" fill="#1EB8E7"/>
<path opacity="0.2" d="M279.529 117.886L284.856 122.963C291.943 115.272 297.27 114.166 306.971 115.422C316.671 116.679 325.014 114.618 328.281 111.25C328.281 114.87 327.778 117.081 327.778 117.081C312.901 129.197 297.22 113.361 291.139 129.85C287.52 139.653 286.716 141.262 286.716 141.262C281.79 136.888 274.905 132.113 279.529 117.886Z" fill="#1EB8E7"/>
<path opacity="0.4" d="M174.335 144.23L170.414 141.062C163.629 145.989 150.31 148.452 150.31 148.452C150.31 148.452 157.095 151.067 160.412 153.681C163.73 150.916 170.917 151.268 170.917 151.268L174.335 144.23Z" fill="#1EB8E7"/>
<path d="M172.123 150.562C178.958 134.978 174.686 129.599 173.932 121.103C175.39 120.802 176.797 120.5 178.205 120.299C182.326 124.119 182.527 135.732 172.123 150.562Z" fill="#0DA3E0"/>
<path opacity="0.4" d="M374.218 215.715L384.924 218.63C393.418 218.278 404.475 218.63 410.657 203.247C416.839 187.864 418.799 182.938 427.343 179.871C428.801 183.491 428.348 187.915 428.348 187.915C408.144 189.624 421.614 227.126 396.735 228.785C386.029 229.489 375.877 222.552 375.877 222.552L374.218 215.715Z" fill="#1EB8E7"/>
<path d="M104.574 172.28C102.312 166.498 102.362 165.744 100.955 165.443C100.553 165.342 100.603 165.644 101.005 164.136C101.206 163.382 101.256 163.532 98.6932 156.896C93.818 168.71 90.4003 175.246 97.7383 180.323C98.2911 178.111 105.73 175.246 104.574 172.28Z" fill="white"/>
<path opacity="0.4" d="M105.73 205.811L98.7435 201.84C105.026 191.836 104.775 181.53 99.6482 173.386C94.5217 165.242 106.886 150.915 102.915 144.178C98.9445 137.442 95.2253 135.582 95.2253 135.582C95.2253 135.582 89.1941 138.699 96.13 144.731C103.066 150.764 100.402 154.333 96.3813 162.427C92.3102 170.521 91.4055 176.754 97.7886 180.726C100.201 182.485 100.352 185.703 96.5321 192.188C82.1075 216.67 98.1404 224.261 102.563 215.111C103.267 212.196 105.73 205.811 105.73 205.811Z" fill="#1EB8E7"/>
<path d="M445.588 117.486C401.208 147.649 391.005 155.793 382.511 157.1C394.473 152.023 387.688 132.316 401.56 122.966L406.485 119.648" stroke="#163050" stroke-width="2.32868" stroke-linecap="round" stroke-linejoin="round"/>
<path d="M465.842 103.861L454.986 111.251" stroke="#163050" stroke-width="2.32868" stroke-linecap="round" stroke-linejoin="round"/>
<path d="M361.804 157.3C369.745 159.009 377.636 158.657 383.818 156.697" stroke="#163050" stroke-width="2.32868" stroke-linecap="round" stroke-linejoin="round"/>
<path d="M340.544 89.7852C329.889 97.1751 326.17 111.352 328.984 124.875" stroke="#163050" stroke-width="2.32868" stroke-linecap="round" stroke-linejoin="round"/>
<path d="M284.856 179.221C287.168 191.135 286.917 204.005 283.549 216.07" stroke="#163050" stroke-width="2.32868" stroke-linecap="round" stroke-linejoin="round"/>
<path d="M231.581 139.556C248.418 130.406 265.958 139.254 276.211 156.196" stroke="#163050" stroke-width="2.32868" stroke-linecap="round" stroke-linejoin="round"/>
<path d="M206.501 191.888C206.551 177.913 210.22 162.982 218.211 151.771" stroke="#163050" stroke-width="2.32868" stroke-linecap="round" stroke-linejoin="round"/>
<path d="M295.712 205.914C295.411 207.975 295.059 210.087 294.607 212.198" stroke="#163050" stroke-width="2.32868" stroke-linecap="round" stroke-linejoin="round"/>
<path d="M293.903 175.098C295.662 181.784 296.567 189.023 296.416 196.564" stroke="#163050" stroke-width="2.32868" stroke-linecap="round" stroke-linejoin="round"/>
<path d="M251.484 136.439C265.808 139.255 274.503 139.556 284.052 153.13" stroke="#163050" stroke-width="2.32868" stroke-linecap="round" stroke-linejoin="round"/>
<path d="M251.685 211.945C263.747 210.839 265.406 208.225 269.376 211.442C277.87 218.329 290.385 218.631 299.834 207.471" stroke="#163050" stroke-width="2.32868" stroke-linecap="round" stroke-linejoin="round"/>
<path d="M236.556 198.623C244.749 196.211 253.997 198.422 253.997 198.422" stroke="#163050" stroke-width="2.32868" stroke-linecap="round" stroke-linejoin="round"/>
<path d="M254.7 195.406L254.348 201.338" stroke="#163050" stroke-width="2.32868" stroke-linecap="round" stroke-linejoin="round"/>
<path d="M217.106 150.162C220.071 156.496 248.568 171.427 280.383 178.515C286.364 179.873 297.321 175.75 295.712 170.774C294.054 165.646 288.575 150.615 283.248 151.67C283.549 152.073 283.75 152.424 283.951 152.726C285.208 154.486 277.418 157.15 273.95 156.245C266.461 154.335 246.106 148.704 231.179 139.907C233.139 138.65 234.797 137.946 234.797 137.946C234.797 137.946 228.917 136.036 224.795 139.706C220.624 143.426 215.648 147.045 217.106 150.162Z" stroke="#163050" stroke-width="2.32868" stroke-linecap="round" stroke-linejoin="round"/>
<path d="M271.638 141.667C277.367 138.399 286.364 141.516 289.882 147.649C293.4 153.782 290.787 157.553 290.787 157.553" stroke="#163050" stroke-width="2.32868" stroke-linecap="round" stroke-linejoin="round"/>
<path d="M292.094 152.375C298.326 155.492 304.86 174.796 296.516 185.605" stroke="#163050" stroke-width="2.32868" stroke-linecap="round" stroke-linejoin="round"/>
<path d="M299.281 163.433C305.413 149.759 295.763 138.146 286.364 143.224" stroke="#163050" stroke-width="2.32868" stroke-linecap="round" stroke-linejoin="round"/>
<path d="M195.796 184.547C193.484 185.401 191.473 186.959 190.267 188.869" stroke="#008FDA" stroke-width="2.64905" stroke-linecap="round" stroke-linejoin="round"/>
<path d="M177.702 190.178C181.471 186.81 185.191 185.553 185.191 185.553" stroke="#008FDA" stroke-width="2.64905" stroke-linecap="round" stroke-linejoin="round"/>
<path d="M289.128 225.368C299.582 223.91 304.709 216.671 306.217 214.861" stroke="#008FDA" stroke-width="2.64905" stroke-linecap="round" stroke-linejoin="round"/>
<path d="M334.664 182.838C338.936 189.021 340.142 196.864 337.227 204.907" stroke="#008FDA" stroke-width="2.64905" stroke-linecap="round" stroke-linejoin="round"/>
<path d="M309.282 185.453C315.766 189.978 318.329 197.317 318.782 199.73" stroke="#008FDA" stroke-width="2.64905" stroke-linecap="round" stroke-linejoin="round"/>
<path d="M317.877 204.656C313.655 208.075 321.244 210.588 325.667 217.073C328.432 222.151 335.971 218.029 326.12 208.728M316.218 207.622C283.348 210.337 290.636 194.703 297.321 197.166C316.068 204.103 319.737 198.875 323.205 201.037L316.218 207.622ZM333.458 202.847L334.412 201.69C337.579 198.071 333.91 193.999 329.99 196.814C326.974 198.976 325.718 200.283 322.501 201.238L333.458 202.847ZM336.875 212.147C340.192 215.766 344.314 210.186 340.494 207.12C335.568 203.198 331.246 202.243 331.246 202.344L336.875 212.147ZM331.347 216.269C335.92 223.508 340.946 217.023 337.629 213.152C335.971 211.242 334.764 209.432 330.14 206.366L331.347 216.269Z" stroke="#163050" stroke-width="2.32868" stroke-linecap="round" stroke-linejoin="round"/>
<path d="M191.775 172.282C191.775 172.282 196.549 165.998 192.83 164.087C188.96 162.127 185.894 167.506 183.783 169.969C181.672 172.483 176.646 174.645 178.808 177.309C180.969 179.973 184.889 176.203 187.804 175.449M206.652 186.76C197.404 186.76 191.925 183.744 187.352 174.393L206.652 186.76ZM190.971 171.276C195.645 177.409 200.068 180.928 207.255 179.119L190.971 171.276Z" stroke="#163050" stroke-width="2.32868" stroke-linecap="round" stroke-linejoin="round"/>
<path d="M327.125 219.336C325.718 220.643 324.21 221.899 322.551 223.156" stroke="#008FDA" stroke-width="2.64905" stroke-linecap="round" stroke-linejoin="round"/>
<path d="M285.962 139.605C277.166 127.54 291.993 98.5837 311.393 90.3894C322.652 85.6639 330.543 90.2889 331.196 100.645" stroke="#163050" stroke-width="2.32868" stroke-linecap="round" stroke-linejoin="round"/>
<path d="M185.492 131.864C167.75 110.247 186.698 87.4235 214.744 97.327C232.737 103.712 245.804 122.312 238.215 136.438" stroke="#163050" stroke-width="2.32868" stroke-linecap="round" stroke-linejoin="round"/>
<path d="M361.754 157.602C362.608 163.282 361.503 169.013 358.839 173.94" stroke="#163050" stroke-width="2.32868" stroke-linecap="round" stroke-linejoin="round"/>
<path d="M111.258 136.137C120.154 97.5286 164.283 94.7134 171.52 122.413C173.983 131.814 171.319 142.321 165.187 150.666" stroke="#163050" stroke-width="2.32868" stroke-linecap="round" stroke-linejoin="round"/>
<path d="M93.617 137.745C117.842 115.072 118.144 189.524 90.702 209.834" stroke="#163050" stroke-width="2.32868" stroke-linecap="round" stroke-linejoin="round"/>
<path d="M387.135 226.976C380.802 207.17 383.165 179.369 393.116 163.886C406.385 143.274 424.529 156.194 428.449 186.659" stroke="#163050" stroke-width="2.32868" stroke-linecap="round" stroke-linejoin="round"/>
<path d="M144.581 228.435C105.127 204.305 116.385 132.417 153.426 149.258C162.976 153.631 170.464 162.831 175.088 173.589" stroke="#163050" stroke-width="2.32868" stroke-linecap="round" stroke-linejoin="round"/>
<path d="M128.95 224.966C114.626 211.644 107.891 187.061 113.671 168.612C118.646 152.776 128.196 151.067 136.991 148.051" stroke="#163050" stroke-width="2.32868" stroke-linecap="round" stroke-linejoin="round"/>
<path d="M112.464 192.139C108.393 206.717 94.8735 217.576 94.6222 217.727" stroke="#163050" stroke-width="2.32868" stroke-linecap="round" stroke-linejoin="round"/>
<path d="M103.367 133.875C111.258 136.238 119.903 136.59 119.501 157.452" stroke="#163050" stroke-width="2.32868" stroke-linecap="round" stroke-linejoin="round"/>
<path d="M165.74 111.705C169.309 115.526 171.872 117.788 173.882 122.865C177.451 131.864 175.792 142.019 170.967 150.364" stroke="#163050" stroke-width="2.32868" stroke-linecap="round" stroke-linejoin="round"/>
<path d="M181.17 105.069C184.236 99.8913 186.598 94.5123 195.846 91.7474C218.463 85.011 247.413 107.432 241.884 128.043C241.18 130.607 238.466 135.886 238.517 135.835" stroke="#163050" stroke-width="2.32868" stroke-linecap="round" stroke-linejoin="round"/>
<path d="M287.872 141.565C282.595 137.342 278.624 135.432 278.473 126.735C278.222 110.145 294.958 88.5288 310.79 85.2611C318.128 83.753 320.541 86.3671 326.371 90.5396" stroke="#163050" stroke-width="2.32868" stroke-linecap="round" stroke-linejoin="round"/>
<path d="M376.128 222.552C369.293 196.059 377.586 159.964 394.071 154.585C397.036 153.63 407.39 153.932 407.34 153.932" stroke="#163050" stroke-width="2.32868" stroke-linecap="round" stroke-linejoin="round"/>
<path d="M292.496 142.118C311.896 121.155 355.12 126.283 361.905 161.925C365.724 122.261 305.161 111.553 288.827 142.018" stroke="#163050" stroke-width="2.32868" stroke-linecap="round" stroke-linejoin="round"/>
<path d="M163.88 228.335C177.853 193.447 239.421 193.095 255.253 228.385" stroke="#163050" stroke-width="2.32868" stroke-linecap="round" stroke-linejoin="round"/>
<path d="M257.716 228.836C251.333 179.872 166.796 179.52 162.825 228.987" stroke="#163050" stroke-width="2.32868" stroke-linecap="round" stroke-linejoin="round"/>
<path d="M118.144 144.531C121.059 146.643 123.974 148.955 125.934 151.569" stroke="#163050" stroke-width="2.32868" stroke-linecap="round" stroke-linejoin="round"/>
<path d="M112.565 130.004C108.544 131.663 107.187 133.272 107.439 134.981" stroke="#163050" stroke-width="2.32868" stroke-linecap="round" stroke-linejoin="round"/>
<path d="M161.116 152.826C168.555 148.453 172.776 152.323 179.813 151.418" stroke="#163050" stroke-width="2.32868" stroke-linecap="round" stroke-linejoin="round"/>
<path d="M182.024 127.34C181.874 131.713 186.246 132.97 190.568 132.97C198.258 132.97 201.374 129.552 208.21 129.552C218.312 129.552 235.551 142.823 243.191 133.473" stroke="#163050" stroke-width="2.32868" stroke-linecap="round" stroke-linejoin="round"/>
<path d="M327.577 117.385C314.258 123.417 316.47 122.412 305.061 121.708C292.445 120.904 291.792 128.495 287.118 140.359" stroke="#163050" stroke-width="2.32868" stroke-linecap="round" stroke-linejoin="round"/>
<path d="M121.612 216.42C121.612 237.937 158.101 231.703 166.896 208.478C169.107 202.696 168.002 187.967 176.094 172.885C177.953 169.417 178.757 166.953 178.908 165.244" stroke="#163050" stroke-width="2.32868" stroke-linecap="round" stroke-linejoin="round"/>
<path d="M163.478 222.25C154.984 224.462 157.447 229.238 162.071 229.238C163.127 229.238 173.782 226.624 181.924 226.624C193.835 226.624 192.679 229.54 211.678 229.54C225.901 229.54 230.877 223.558 234.395 223.608C237.059 223.608 247.362 229.087 255.806 229.087C263.144 229.087 264.199 222.703 256.057 219.988" stroke="#163050" stroke-width="2.32868" stroke-linecap="round" stroke-linejoin="round"/>
<path d="M426.539 176.454C436.239 175.65 439.004 186.709 426.991 187.664C412.165 188.871 419 218.682 402.716 226.926C391.508 232.607 377.787 221.849 370.65 220.894C367.584 220.492 364.619 222.503 361.955 223.96" stroke="#163050" stroke-width="2.32868" stroke-linecap="round" stroke-linejoin="round"/>
<path d="M256.007 219.889C264.149 222.603 263.094 228.988 255.756 228.988C247.262 228.988 237.059 223.508 234.345 223.508C230.827 223.508 225.801 229.491 211.627 229.491C192.679 229.491 193.785 226.575 181.874 226.575C168.856 226.575 157.799 232.256 157.799 226.323C157.799 224.011 161.166 222.804 163.428 222.251" stroke="#163050" stroke-width="2.32868" stroke-linecap="round" stroke-linejoin="round"/>
<path d="M360.849 169.467C368.64 170.673 370.298 177.309 363.865 177.309C359.593 177.309 354.466 169.819 345.721 169.819C331.095 169.819 329.537 184.749 300.487 169.768" stroke="#163050" stroke-width="2.32868" stroke-linecap="round" stroke-linejoin="round"/>
<path d="M96.331 135.281C94.4714 135.885 93.1647 136.991 93.1647 138.951C93.1647 144.732 100.754 145.235 100.754 150.564C100.754 154.133 93.4662 166.6 93.4662 173.136C93.4662 181.229 99.8492 178.766 99.8492 184.246C99.8492 188.519 90.5511 197.718 90.5511 210.688C90.5511 216.118 93.7175 218.581 96.8336 218.581C107.64 218.581 100.704 197.165 115.48 205.008" stroke="#163050" stroke-width="2.32868" stroke-linecap="round" stroke-linejoin="round"/>
<path d="M115.48 204.957C100.653 197.115 107.64 218.53 96.8336 218.53C93.7175 218.53 90.5511 216.067 90.5511 210.638C90.5511 193.596 105.177 185.502 97.7383 180.324C87.033 172.934 100.754 156.696 100.754 150.513C100.754 145.184 93.1647 144.732 93.1647 138.9C93.1647 136.94 94.4714 135.834 96.331 135.23" stroke="#163050" stroke-width="2.32868" stroke-linecap="round" stroke-linejoin="round"/>
<path d="M299.281 163.433C305.413 149.759 295.763 138.146 286.364 143.224" stroke="#163050" stroke-width="2.32868" stroke-linecap="round" stroke-linejoin="round"/>
<path d="M134.931 29.6113V31.6724C134.076 31.7227 133.574 32.2255 133.574 33.0298H135.082V36.2975H131.513C131.513 33.2812 131.312 32.0746 132.468 30.8179C133.071 30.1141 133.875 29.7119 134.931 29.6113ZM139.354 29.6113V31.6724C138.549 31.7227 137.997 32.2255 137.997 33.0298H139.504V36.2975H135.936C135.936 33.2812 135.735 32.0746 136.891 30.8179C137.494 30.1141 138.298 29.7119 139.354 29.6113Z" fill="white"/>
<path d="M154.884 30.7168H159.407L155.537 43.2344H151.919L149.858 38.0062L147.848 43.2344H144.229L140.359 30.7168H144.832L146.491 36.85L149.104 30.7168H150.612L153.276 36.9002L154.884 30.7168Z" fill="white"/>
<path d="M168.404 42.1283C166.293 44.0386 162.373 44.0889 160.262 42.1283C158.151 40.218 158.151 36.5984 160.262 34.6378C162.373 32.7275 166.293 32.7275 168.404 34.6378C170.515 36.5984 170.515 40.218 168.404 42.1283ZM163.127 39.665C163.78 40.3185 164.886 40.3185 165.539 39.665C166.142 39.0114 166.192 37.8552 165.539 37.1514C164.886 36.4979 163.73 36.4979 163.127 37.1514C162.473 37.8049 162.473 39.0114 163.127 39.665Z" fill="white"/>
<path d="M181.572 33.582H185.794L182.778 43.2341H179.562L177.853 39.4135L176.244 43.2341H172.978L169.861 33.582H174.184L175.189 38.0059L177.3 33.582H178.355L180.567 38.1065L181.572 33.582Z" fill="white"/>
<path d="M186.749 43.2347V39.9671H190.317V43.2347H186.749ZM186.799 39.0622V30.3652H190.217V39.0622H186.799Z" fill="white"/>
<path d="M200.419 43.5867C197.454 43.5867 195.192 42.2293 195.192 39.2633C201.324 39.2633 198.962 39.0622 199.816 39.9168C200.118 40.2184 200.721 40.2184 201.023 39.9671C201.274 39.766 201.324 39.3136 201.123 39.0622C200.269 37.9562 195.393 38.7103 195.393 34.3367C195.393 31.5718 197.605 30.3652 200.369 30.3652C203.184 30.3652 205.295 31.622 205.295 34.4372C199.615 34.4372 201.575 34.588 200.922 33.8842C200.671 33.5826 200.118 33.6329 199.917 33.834C199.716 34.0351 199.666 34.387 199.867 34.6383C200.319 35.2416 202.229 35.3421 203.837 36.1465C206.802 37.6546 206.752 43.5867 200.419 43.5867Z" fill="white"/>
<path d="M215.397 42.3293C213.537 43.9882 210.019 43.9882 208.16 42.3293C206.451 40.7709 206.803 39.3633 206.803 33.582H210.823V39.0616C210.823 40.5195 212.783 40.5195 212.783 39.0616V33.582H216.804C216.804 39.1119 217.156 40.7709 215.397 42.3293Z" fill="white"/>
<path d="M223.439 43.5849C215.95 43.5849 215.95 33.2793 223.439 33.2793C226.454 33.2793 228.515 35.1896 228.766 37.854C223.137 37.854 225.75 38.0551 224.444 37.0497C223.79 36.5469 222.835 36.6474 222.283 37.2004C221.679 37.8037 221.679 39.1107 222.283 39.714C222.785 40.267 223.79 40.3676 224.494 39.8146C225.801 38.7589 223.187 38.9097 228.816 38.9097C228.465 41.7249 226.354 43.5849 223.439 43.5849Z" fill="white"/>
<path d="M239.974 37.5037V43.2346H235.953C235.953 37.6545 236.054 37.3529 235.702 36.9005C235.35 36.3977 234.546 36.4983 234.194 36.9507C233.792 37.4534 233.893 37.7048 233.893 43.2849H229.872V30.1641H233.893V34.035C236.406 32.2252 239.974 33.5825 239.974 37.5037Z" fill="white"/>
<path d="M252.74 33.582H255.756V43.2341H252.69L252.388 42.6308C250.579 44.0887 247.563 43.8374 245.905 42.1281C244.045 40.2178 244.045 36.548 245.905 34.6377C247.563 32.9787 250.529 32.6771 252.388 34.1852L252.74 33.582ZM248.518 38.408C248.518 40.8713 252.036 40.8713 252.036 38.408C252.036 35.995 248.518 35.995 248.518 38.408Z" fill="white"/>
<path d="M136.74 65.0029C129.251 65.0029 129.251 54.6973 136.74 54.6973C139.756 54.6973 141.816 56.6076 142.068 59.272C136.439 59.272 139.052 59.4731 137.745 58.4676C137.092 57.9649 136.137 58.0654 135.584 58.6184C134.981 59.2217 134.981 60.5287 135.584 61.132C136.087 61.685 137.092 61.7855 137.796 61.2326C139.102 60.1769 136.489 60.3276 142.118 60.3276C141.766 63.1428 139.655 65.0029 136.74 65.0029Z" fill="white"/>
<path d="M150.059 54.9475V58.5168C146.692 58.5168 147.244 58.2151 147.244 64.6499H143.224V54.9978H146.038L146.591 56.0032C147.647 54.847 148.953 54.9475 150.059 54.9475Z" fill="white"/>
<path d="M160.111 63.5951C158 65.5054 154.08 65.5556 151.969 63.5951C149.858 61.6847 149.858 58.0652 151.969 56.1046C154.08 54.1943 158 54.1943 160.111 56.1046C162.222 58.0149 162.222 61.6345 160.111 63.5951ZM154.884 61.0815C155.537 61.735 156.643 61.735 157.296 61.0815C157.9 60.428 157.95 59.2717 157.296 58.5679C156.643 57.9144 155.487 57.9144 154.884 58.5679C154.231 59.2214 154.231 60.428 154.884 61.0815Z" fill="white"/>
<path d="M173.279 54.998H177.501L174.485 64.6501H171.269L169.61 60.8295L167.952 64.6501H164.735L161.619 54.998H165.941L166.946 59.422L169.007 54.998H170.062L172.274 59.5225L173.279 54.998Z" fill="white"/>
<path d="M184.789 51.5293H188.709V64.6501H185.744L185.442 63.9464C183.582 65.5551 180.517 65.3037 178.858 63.5944C176.998 61.6841 176.998 58.0143 178.858 56.104C180.416 54.4953 183.08 54.244 184.789 55.2997V51.5293ZM181.974 61.1311C182.627 61.8349 183.834 61.8349 184.487 61.1311C185.191 60.4273 185.191 59.1706 184.487 58.4668C183.783 57.763 182.627 57.763 181.974 58.4668C181.27 59.2209 181.27 60.4273 181.974 61.1311Z" fill="white"/>
<path d="M200.922 60.6788H193.685C194.137 62.5891 196.399 62.3377 197.002 61.3323H200.771C200.068 63.6951 197.957 65.0021 195.394 65.0021C189.865 65.0021 188.307 58.9695 191.423 56.104C194.74 53.0375 201.777 54.8976 200.922 60.6788ZM195.394 57.5619C194.489 57.5619 193.936 57.9641 193.735 58.8187H197.153C196.901 57.9641 196.298 57.5619 195.394 57.5619Z" fill="white"/>
<path d="M209.014 51.5293H212.934V64.6501H209.969L209.667 63.9464C207.808 65.5551 204.742 65.3037 203.083 63.5944C201.224 61.6841 201.224 58.0143 203.083 56.104C204.641 54.4953 207.305 54.244 209.014 55.2997V51.5293ZM206.149 61.1311C206.802 61.8349 208.009 61.8349 208.662 61.1311C209.366 60.4273 209.366 59.1706 208.662 58.4668C207.958 57.763 206.802 57.763 206.149 58.4668C205.496 59.2209 205.496 60.4273 206.149 61.1311Z" fill="white"/>
<path d="M224.243 54.6964C230.977 54.6964 230.977 65.0021 224.243 65.0021C223.137 65.0021 222.132 64.6502 221.328 63.9464L221.026 64.6501H218.061V51.5293H221.981V55.2997C222.634 54.8975 223.438 54.6964 224.243 54.6964ZM223.539 61.6842C225.901 61.6842 225.901 58.0143 223.539 58.0143C221.177 58.0143 221.177 61.6842 223.539 61.6842Z" fill="white"/>
<path d="M234.496 51.5293H230.475V64.6501H234.496V51.5293Z" fill="white"/>
<path d="M245.352 63.5951C243.241 65.5054 239.321 65.5556 237.21 63.5951C235.099 61.6847 235.099 58.0652 237.21 56.1046C239.321 54.1943 243.241 54.1943 245.352 56.1046C247.463 58.0149 247.463 61.6345 245.352 63.5951ZM240.075 61.0815C240.728 61.735 241.834 61.735 242.487 61.0815C243.09 60.428 243.14 59.2717 242.487 58.5679C241.834 57.9144 240.678 57.9144 240.075 58.5679C239.421 59.2214 239.421 60.428 240.075 61.0815Z" fill="white"/>
<path d="M253.192 65.0029C245.704 65.0029 245.704 54.6973 253.192 54.6973C256.208 54.6973 258.269 56.6076 258.52 59.272C252.891 59.272 255.504 59.4731 254.198 58.4676C253.544 57.9649 252.589 58.0654 252.037 58.6184C251.433 59.2217 251.433 60.5287 252.037 61.132C252.539 61.685 253.544 61.7855 254.248 61.2326C255.555 60.1769 252.941 60.3276 258.57 60.3276C258.218 63.1428 256.108 65.0029 253.192 65.0029Z" fill="white"/>
<path d="M270.13 64.6501H265.506L263.697 61.1815V64.6501H259.676V51.5293H263.697V58.2154L265.506 54.998H269.929L267.064 59.623L270.13 64.6501Z" fill="white"/>
<path d="M270.834 64.6507V61.3831H274.402V64.6507H270.834ZM270.934 60.4782V51.7812H274.352V60.4782H270.934Z" fill="white"/>
<path d="M276.312 58.7686V56.7578C277.116 56.7075 277.669 56.2048 277.669 55.4005H276.161V52.1328H279.73C279.73 55.1491 279.931 56.3556 278.775 57.6124C278.172 58.2659 277.367 58.6681 276.312 58.7686ZM280.735 58.7686V56.7578C281.539 56.7075 282.092 56.2048 282.092 55.4005H280.584V52.1328H284.153C284.153 55.1491 284.354 56.3556 283.198 57.6124C282.594 58.2659 281.79 58.6681 280.735 58.7686Z" fill="white"/>
<path d="M238.919 179.167C240.627 171.324 230.977 168.207 229.269 176.05C227.56 183.892 237.21 187.009 238.919 179.167Z" fill="#163050"/>
<path d="M254.348 184.645C256.057 176.803 246.407 173.686 244.698 181.528C242.99 189.371 252.639 192.488 254.348 184.645Z" fill="#163050"/>
<path d="M236.607 176.453C237.159 173.436 233.792 172.23 233.189 175.196C232.636 178.212 236.003 179.469 236.607 176.453Z" fill="white"/>
<path d="M252.489 181.882C253.042 178.866 249.674 177.66 249.071 180.626C248.518 183.642 251.936 184.899 252.489 181.882Z" fill="white"/>
<path d="M249.724 164.94C249.222 164.688 249.172 164.387 249.071 163.432C248.166 164.487 247.865 164.085 246.458 163.482C243.392 162.074 243.442 162.376 247.563 158.103C248.166 157.449 245.704 152.422 247.965 152.372C248.166 152.372 248.217 152.372 249.423 152.875C251.484 153.679 251.584 153.528 251.685 154.685C252.539 153.729 252.841 154.232 255.856 155.338C258.369 156.293 253.042 159.41 253.192 160.265C254.449 167.805 254.449 167.051 249.724 164.94ZM241.08 160.968C240.828 160.968 240.929 161.019 238.466 159.862C237.461 159.41 237.813 159.008 239.471 153.729C237.863 153.126 237.712 152.875 238.366 151.065C239.27 148.501 238.919 148.803 243.191 150.462C247.161 151.97 246.659 151.718 246.055 153.78C245.503 155.69 245.352 156.193 243.643 155.439C243.191 155.237 242.537 160.918 241.08 160.968C241.08 160.315 241.08 160.315 241.08 160.968Z" fill="white"/>
<path d="M256.308 154.182C240.276 147.999 238.617 146.641 237.763 149.356C237.159 151.317 236.104 153.378 238.165 154.232C238.868 154.534 235.049 159.662 237.964 160.969C242.99 163.281 242.487 162.477 244.246 156.696C244.95 156.947 245.653 156.746 246.206 156.293C246.458 157.852 246.759 157.148 243.492 160.466C242.537 161.471 242.839 163.13 244.095 163.683C244.095 163.683 252.438 167.554 253.042 167.554C254.248 167.554 255.203 166.448 255.002 165.242C253.997 159.159 253.494 161.069 257.012 157.45C258.068 156.444 257.666 154.735 256.308 154.182ZM245.955 152.523C245 155.74 245.302 155.59 243.542 154.836C243.392 154.785 243.191 154.836 243.14 155.037C241.08 161.673 242.135 161.019 238.718 159.461C237.662 158.958 240.778 153.73 239.924 153.378C238.064 152.674 238.416 153.026 239.321 150.06C239.371 149.808 239.672 149.658 239.974 149.758C245.804 152.02 246.106 151.92 245.955 152.523ZM252.74 160.265C253.846 167.152 254.449 166.499 249.976 164.437C249.674 164.287 249.674 164.086 249.523 162.577C249.423 161.823 248.619 163.533 248.066 163.533C247.915 163.533 248.066 163.583 245.151 162.226C243.743 161.572 248.418 158.908 248.217 157.651C247.312 151.618 246.759 152.272 250.931 153.83C251.282 153.931 251.232 154.132 251.333 155.389C251.383 156.143 252.137 154.584 252.64 154.534C252.79 154.534 252.539 154.484 255.705 155.69C257.263 156.344 252.489 159.008 252.74 160.265Z" fill="#163050"/>
<path d="M346.726 109.289L355.522 104.212M378.792 90.7893L405.48 75.4062L378.792 90.7893ZM363.211 99.7879L360.648 101.246L363.211 99.7879Z" stroke="#FFDA7F" stroke-width="1.74651" stroke-miterlimit="10" stroke-linecap="round" stroke-linejoin="round"/>
</svg>
