<svg width="520" height="250" viewBox="0 0 520 250" fill="none" xmlns="http://www.w3.org/2000/svg">
<g clip-path="url(#clip0)">
<rect width="520" height="250" rx="7.92318" fill="white"/>
<path d="M520.911 220.777V244.885C520.911 249.209 517.567 252.777 513.373 252.993C512.949 252.993 11.2927 252.993 8.21403 252.993C3.86149 252.993 0.252075 249.371 0.252075 244.885V238.128C141.338 76.5064 152.962 63.155 153.228 62.8848H365.865L520.911 220.777Z" fill="#C5E8FA"/>
<path d="M365.918 80.3951C357.691 76.9897 370.27 78.0167 164.427 78.0167C160.553 78.0167 156.625 78.7194 153.068 80.0708V29.9626C161.667 28.4491 356.788 28.5032 365.387 29.9626L365.918 80.3951Z" fill="#B2E1F8"/>
<path d="M380.674 92.4494C365.918 74.6116 361.884 78.017 298.348 78.017L365.334 29.9629L380.674 92.4494Z" fill="#A4DEF6"/>
<path d="M520.911 106.341V244.936C520.911 249.26 517.567 252.828 513.373 253.044C365.918 74.5575 375.632 84.3954 365.918 80.3954L365.387 29.9629C378.657 32.2332 373.986 31.1521 520.911 106.341Z" fill="#93D8FA"/>
<path d="M153.175 79.5846C153.175 81.044 146.964 81.1521 140.011 89.5846L5.40076 252.504C-1.87116 249.693 0.305107 254.666 0.305107 104.882C148.344 29.1521 140.276 32.1791 153.068 29.9629C153.281 76.5035 153.122 57.2062 153.175 79.5846Z" fill="#CFEDFD"/>
<path d="M322.18 250.178C322.18 254.286 340.758 252.989 147.389 252.989C150.733 233.422 170.85 220.989 175.203 219.692C175.309 219.584 186.031 214.232 213.155 214.232C262.625 214.232 254.875 210.827 276.373 210.773C307.69 209.962 322.18 235.313 322.18 250.178Z" fill="#A4DEF6"/>
<path d="M167.878 151.908C155.882 151.908 159.066 142.773 144.523 142.773C139.48 142.773 125.945 146.287 125.945 137.043C125.945 133.097 130.722 127.908 138.153 127.908C144.523 127.908 150.414 130.719 156.89 130.719C162.251 130.719 168.143 129.097 173.663 129.097C195.267 129.097 187.199 151.908 167.878 151.908Z" fill="#A4DEF6"/>
<path d="M399.677 154.288C399.677 138.125 352.011 138.125 352.011 154.288C352.011 170.45 399.677 170.45 399.677 154.288Z" fill="#A4DEF6"/>
<path d="M153.865 242.073C148.822 242.073 147.018 238.667 141.444 238.397C136.614 239.154 131.89 235.154 135.605 230.613C135.658 230.613 140.329 224.775 152.644 224.775C168.356 224.829 166.71 242.073 153.865 242.073Z" fill="#A4DEF6"/>
<path d="M396.386 230.233C390.813 230.233 383.965 227.909 380.568 227.909C377.171 227.909 375.366 229.963 375.366 231.584C375.366 233.963 378.604 235.963 378.604 239.801C378.604 243.098 375.579 245.098 372.553 245.098C364.273 245.098 355.939 233.206 345.96 233.206C341.236 233.206 338.104 235.314 334.124 235.314C324.251 235.314 320.588 222.503 335.981 219.638C344.793 217.963 346.969 213.801 351.374 213.368C361.725 212.395 364.538 219.909 375.048 219.909C385.611 219.909 393.573 211.53 403.127 217.368C410.505 221.909 405.144 230.233 396.386 230.233Z" fill="#A4DEF6"/>
<path d="M365.546 202.123C363.529 202.123 361.406 201.799 359.336 201.799C355.621 201.799 353.816 203.15 350.896 203.15C346.225 203.15 343.996 199.583 345.058 196.88C346.332 193.691 350.684 194.556 353.763 195.096C360.928 196.394 359.973 191.15 364.379 191.15C372.712 191.15 376.481 202.123 365.546 202.123Z" fill="#A4DEF6"/>
<path d="M362.893 146.882C361.778 145.855 359.655 145.855 359.655 143.585C359.655 136.558 374.889 135.153 386.566 136.558C392.299 137.261 395.855 140.018 401.8 140.018C403.923 140.018 406.046 139.693 408.117 139.693C417.989 139.693 412.097 143.477 436.196 159.153C457.374 172.882 449.094 184.558 443.255 184.558C435.187 184.558 426.376 170.504 412.681 170.504C407.692 170.504 402.862 173.045 397.872 173.045C391.131 173.045 386.407 168.288 378.657 168.288C374.889 168.288 369.634 170.72 365.122 170.72C361.831 170.72 358.646 168.937 358.646 166.072C358.646 160.666 369.262 152.612 362.893 146.882Z" fill="#A4DEF6"/>
<path d="M369.74 111.096C369.74 114.61 360.716 115.583 358.434 115.583C352.701 115.583 351.64 110.069 353.657 107.853C356.735 104.502 369.74 106.015 369.74 111.096Z" fill="#A4DEF6"/>
<path d="M235.289 110.504C235.289 112.937 231.414 114.072 229.026 114.072C225.257 114.072 221.647 115.315 221.647 111.315C221.647 106.018 235.289 105.64 235.289 110.504Z" fill="#A4DEF6"/>
<path d="M260.343 100.45C260.343 104.666 255.353 107.585 251.266 107.585C246.011 107.585 244.419 103.099 236.138 102.666C234.811 102.612 224.673 104.18 226.372 98.5042C228.176 91.5853 260.343 89.4772 260.343 100.45Z" fill="#A4DEF6"/>
<path d="M73.2896 170.342L115.116 119.369" stroke="#1EB8E7" stroke-width="2.11285" stroke-linecap="round" stroke-linejoin="round"/>
<path d="M285.927 77.9102H306.999" stroke="#1EB8E7" stroke-width="2.11285" stroke-linecap="round" stroke-linejoin="round"/>
<path d="M386.513 99.0449L413.424 132.126" stroke="#1EB8E7" stroke-width="2.11285" stroke-linecap="round" stroke-linejoin="round"/>
<path d="M413.424 122.179V92.125" stroke="#1EB8E7" stroke-width="2.11285" stroke-linecap="round" stroke-linejoin="round"/>
<path d="M134.703 68.3432C143.673 63.9648 147.442 61.7486 154.342 60.127" stroke="#1EB8E7" stroke-width="2.11285" stroke-linecap="round" stroke-linejoin="round"/>
<path d="M151.901 60.3984V46.5605" stroke="#1EB8E7" stroke-width="2.11285" stroke-linecap="round" stroke-linejoin="round"/>
<path d="M82.4724 101.693V121.207" stroke="#1EB8E7" stroke-width="2.11285" stroke-linecap="round" stroke-linejoin="round"/>
<path d="M91.5491 130.127V147.316" stroke="#1EB8E7" stroke-width="2.11285" stroke-linecap="round" stroke-linejoin="round"/>
<path d="M44.5204 136.721V155.586" stroke="#1EB8E7" stroke-width="2.11285" stroke-linecap="round" stroke-linejoin="round"/>
<path d="M57.7372 144.289L15.645 181.316" stroke="#1EB8E7" stroke-width="2.11285" stroke-linecap="round" stroke-linejoin="round"/>
<path d="M70.7949 140.721V156.234" stroke="#1EB8E7" stroke-width="2.11285" stroke-linecap="round" stroke-linejoin="round"/>
<path d="M176.583 67.6953H195.373" stroke="#1EB8E7" stroke-width="2.11285" stroke-linecap="round" stroke-linejoin="round"/>
<path d="M438.425 86.8301V100.073L455.941 112.614V97.749" stroke="#1EB8E7" stroke-width="2.11285" stroke-linecap="round" stroke-linejoin="round"/>
<path d="M472.13 130.449L495.485 148.287" stroke="#1EB8E7" stroke-width="2.11285" stroke-linecap="round" stroke-linejoin="round"/>
<path d="M483.489 152.937V119.207" stroke="#1EB8E7" stroke-width="2.11285" stroke-linecap="round" stroke-linejoin="round"/>
<path d="M465.973 168.775L484.126 186.289" stroke="#1EB8E7" stroke-width="2.11285" stroke-linecap="round" stroke-linejoin="round"/>
<path d="M383.381 35.9638C374.57 31.4774 364.803 29.0449 354.771 29.0449" stroke="#1EB8E7" stroke-width="2.11285" stroke-linecap="round" stroke-linejoin="round"/>
<path d="M89.6912 188.02H117.133" stroke="#1EB8E7" stroke-width="2.11285" stroke-linecap="round" stroke-linejoin="round"/>
<path d="M64.5315 214.289H86.7719" stroke="#1EB8E7" stroke-width="2.11285" stroke-linecap="round" stroke-linejoin="round"/>
<path d="M256.362 78.0723V87.0452" stroke="#1EB8E7" stroke-width="2.11285" stroke-linecap="round" stroke-linejoin="round"/>
<path d="M232.263 87.3711L227.008 118.993" stroke="#1EB8E7" stroke-width="2.11285" stroke-linecap="round" stroke-linejoin="round"/>
<path d="M165.595 215.098L152.962 253.044" stroke="#1EB8E7" stroke-width="2.11285" stroke-linecap="round" stroke-linejoin="round"/>
<path d="M211.297 77.9102L207.793 88.3967" stroke="#1EB8E7" stroke-width="2.11285" stroke-linecap="round" stroke-linejoin="round"/>
<path d="M110.764 234.018L101.263 253.045" stroke="#1EB8E7" stroke-width="2.11285" stroke-linecap="round" stroke-linejoin="round"/>
<path d="M151.741 151.965L141.125 173.208" stroke="#1EB8E7" stroke-width="2.11285" stroke-linecap="round" stroke-linejoin="round"/>
<path d="M101.103 175.641L63.576 231.965" stroke="#1EB8E7" stroke-width="2.11285" stroke-linecap="round" stroke-linejoin="round"/>
<path d="M145.319 109.314L119.734 147.693" stroke="#1EB8E7" stroke-width="2.11285" stroke-linecap="round" stroke-linejoin="round"/>
<path d="M420.696 189.316L447.926 230.127" stroke="#1EB8E7" stroke-width="2.11285" stroke-linecap="round" stroke-linejoin="round"/>
<path d="M356.629 93.1523L372.34 116.72" stroke="#1EB8E7" stroke-width="2.11285" stroke-linecap="round" stroke-linejoin="round"/>
<path d="M380.833 191.693L389.114 208.234" stroke="#1EB8E7" stroke-width="2.11285" stroke-linecap="round" stroke-linejoin="round"/>
<path d="M342.563 201.422L355.568 240.395" stroke="#1EB8E7" stroke-width="2.11285" stroke-linecap="round" stroke-linejoin="round"/>
<path d="M301.426 77.9102L306.522 93.1534" stroke="#1EB8E7" stroke-width="2.11285" stroke-linecap="round" stroke-linejoin="round"/>
<path d="M280.566 88.0723L282.052 96.775" stroke="#1EB8E7" stroke-width="2.11285" stroke-linecap="round" stroke-linejoin="round"/>
<path opacity="0.7" d="M271.542 243.153C271.701 262.883 296.755 244.559 296.755 233.856C296.755 222.234 275.682 233.207 271.542 243.153Z" fill="#1EB8E7"/>
<path opacity="0.7" d="M203.282 228.665C189.428 236.719 204.927 250.125 216.393 250.125C233.166 250.125 214.694 226.503 203.282 228.665Z" fill="#1EB8E7"/>
<path d="M295.588 231.477C295.588 244.072 271.967 256.396 271.967 243.099C271.967 238.288 277.753 232.45 280.831 228.018C285.715 220.883 295.588 222.558 295.588 231.477Z" fill="white"/>
<path d="M287.095 242.56C280.035 244.993 284.388 233.858 279.027 234.128C276.266 234.29 274.674 239.425 274.674 242.56C274.674 249.317 284.865 246.939 287.095 242.56Z" fill="#DAEBED"/>
<path opacity="0.3" d="M265.65 31.4757H240.172C240.172 28.2324 241.499 29.0432 233.431 29.0432C233.431 79.0433 233.06 75.6919 234.28 76.9352C236.404 79.0433 240.172 77.6379 240.172 74.9352C240.172 73.1514 236.404 73.6919 265.65 73.6919C265.65 75.0433 265.491 75.9622 266.5 76.9892C268.304 78.773 271.542 78.1244 272.285 75.8C272.498 75.2054 272.392 78.1784 272.392 29.0973C264.324 29.0432 265.65 28.2324 265.65 31.4757ZM240.225 34.9892H265.704V44.3946H240.225V34.9892ZM240.225 47.854H265.704V57.2595H240.225V47.854ZM240.225 70.1243V60.7189H265.704V70.1243H240.225Z" fill="#1EB8E7"/>
<path d="M239.907 76.3973C235.395 76.3973 236.722 75.4244 236.722 14.4513C236.722 4.66752 243.994 3.09995 246.011 7.96483C246.754 9.74861 246.595 11.2081 246.595 19.0459C246.595 20.9919 244.95 22.4513 243.092 22.2892C243.092 74.3973 244.472 76.3973 239.907 76.3973Z" fill="#DAEBED"/>
<path d="M243.092 22.0705V11.4759C245.215 10.5029 244.737 19.2056 244.737 22.0705C244.79 22.0705 243.729 22.611 243.092 22.0705Z" fill="#C4E4E7"/>
<path d="M273.559 14.397C273.559 75.262 274.886 76.3971 270.375 76.3971C268.623 76.3971 267.19 74.9377 267.19 73.1539C267.19 18.2889 267.349 22.2889 266.871 22.2889C262.678 22.2889 263.687 17.1538 263.687 11.4781C263.687 2.23487 273.559 3.31595 273.559 14.397Z" fill="#DAEBED"/>
<path d="M267.19 38.2875C267.137 38.2875 267.19 38.774 267.19 29.1523H269.154C269.154 35.4226 269.79 38.2875 267.19 38.2875Z" fill="#C4E4E7"/>
<path d="M267.19 52.1781C267.137 52.1781 267.19 52.6646 267.19 43.043H269.154C269.154 49.3132 269.79 52.1781 267.19 52.1781Z" fill="#C4E4E7"/>
<path d="M267.19 65.9633C267.137 65.9633 267.19 66.4498 267.19 56.8281H269.154C269.154 63.0984 269.79 65.9633 267.19 65.9633Z" fill="#C4E4E7"/>
<path d="M269.154 70.6663V76.1258C267.986 75.6393 267.19 74.4501 267.19 73.0988C267.19 70.0177 266.659 70.6663 269.154 70.6663Z" fill="#C4E4E7"/>
<path d="M267.19 22.0705V11.4759C265.067 10.5029 265.544 19.2056 265.544 22.0705C265.491 22.0705 266.553 22.611 267.19 22.0705Z" fill="#C4E4E7"/>
<path d="M269.313 28.6673C269.313 31.316 267.402 30.5052 242.773 30.5052C240.331 30.5052 240.331 26.7754 242.773 26.7754C267.774 26.8295 269.313 26.0187 269.313 28.6673Z" fill="#DAEBED"/>
<path d="M269.313 42.4509C269.313 45.0996 267.402 44.2888 242.773 44.2888C240.331 44.2888 240.331 40.5591 242.773 40.5591C267.721 40.5591 269.313 39.8023 269.313 42.4509Z" fill="#DAEBED"/>
<path d="M269.313 56.181C269.313 58.8296 267.402 58.0188 242.773 58.0188C240.331 58.0188 240.331 54.2891 242.773 54.2891C267.721 54.3431 269.313 53.5323 269.313 56.181Z" fill="#DAEBED"/>
<path d="M267.455 71.7998C242.508 71.7998 240.969 72.6106 240.969 69.9079C240.969 68.8809 241.765 68.0701 242.773 68.0701C267.721 68.0701 269.26 67.2592 269.26 69.9079C269.313 70.989 268.517 71.7998 267.455 71.7998Z" fill="#DAEBED"/>
<path d="M269.154 29.4238C268.835 30.1265 268.198 30.559 267.455 30.559C241.287 30.559 241.765 31.0455 241.075 29.4238H269.154Z" fill="#C4E4E7"/>
<path d="M269.154 43.1504C268.888 43.799 268.251 44.2855 267.455 44.2855C241.234 44.2855 241.765 44.772 241.075 43.1504H269.154Z" fill="#C4E4E7"/>
<path d="M269.154 56.9375C268.888 57.5861 268.251 58.0726 267.455 58.0726C241.234 58.0726 241.765 58.5591 241.075 56.9375H269.154Z" fill="#C4E4E7"/>
<path d="M269.154 70.666C268.888 71.3147 268.251 71.8012 267.455 71.8012C241.234 71.8012 241.765 72.2876 241.075 70.666H269.154Z" fill="#C4E4E7"/>
<path d="M169.47 150.287C157.474 150.287 160.659 141.152 146.115 141.152C141.072 141.152 127.537 144.666 127.537 135.422C127.537 131.476 132.314 126.287 139.745 126.287C146.115 126.287 152.007 129.098 158.483 129.098C163.844 129.098 169.735 127.476 175.256 127.476C196.859 127.476 188.791 150.287 169.47 150.287Z" fill="#1EB8E7"/>
<path d="M155.457 240.452C150.415 240.452 148.61 237.046 143.037 236.776C138.206 237.533 133.482 233.533 137.198 228.992C137.251 228.992 141.922 223.154 154.236 223.154C169.948 223.208 168.302 240.452 155.457 240.452Z" fill="#1EB8E7"/>
<path d="M397.978 228.612C392.405 228.612 385.557 226.288 382.16 226.288C378.763 226.288 376.958 228.342 376.958 229.963C376.958 232.342 380.196 234.342 380.196 238.18C380.196 241.477 377.171 243.477 374.145 243.477C365.865 243.477 357.531 231.585 347.552 231.585C342.828 231.585 339.697 233.693 335.716 233.693C325.843 233.693 322.18 220.882 337.573 218.017C346.385 216.342 348.561 212.18 352.966 211.747C363.317 210.774 366.13 218.288 376.64 218.288C387.203 218.288 395.165 209.909 404.719 215.747C412.097 220.288 406.736 228.612 397.978 228.612Z" fill="#1EB8E7"/>
<path d="M367.139 200.504C365.122 200.504 362.999 200.18 360.929 200.18C357.213 200.18 355.408 201.531 352.489 201.531C347.818 201.531 345.589 197.964 346.65 195.261C347.924 192.072 352.277 192.937 355.355 193.477C362.521 194.775 361.566 189.531 365.971 189.531C374.305 189.531 378.073 200.504 367.139 200.504Z" fill="#1EB8E7"/>
<path d="M364.485 145.261C363.37 144.234 361.247 144.288 361.247 141.964C361.247 134.937 376.481 133.532 388.158 134.937C393.891 135.64 397.447 138.396 403.392 138.396C405.515 138.396 407.639 138.072 409.709 138.072C419.582 138.072 413.69 141.856 437.788 157.532C458.967 171.261 450.686 182.937 444.848 182.937C436.779 182.937 427.968 168.883 414.274 168.883C409.284 168.883 404.454 171.424 399.464 171.424C392.723 171.424 387.999 166.667 380.25 166.667C376.481 166.667 371.226 169.099 366.714 169.099C363.423 169.099 360.239 167.315 360.239 164.451C360.239 159.045 370.854 150.991 364.485 145.261Z" fill="#1EB8E7"/>
<g opacity="0.3">
<path opacity="0.3" d="M430.781 172.666C438.69 178.018 443.839 182.504 450.899 174.72C451.058 174.072 451.217 173.369 451.217 172.775C452.226 177.315 449.359 182.991 444.794 182.991C436.726 182.991 427.915 168.937 414.22 168.937C409.231 168.937 404.401 171.477 399.411 171.477C392.67 171.477 387.946 166.72 380.196 166.72C376.428 166.72 371.173 169.153 366.661 169.153C363.37 169.153 360.185 167.369 360.185 164.504C360.185 159.045 370.748 150.991 364.432 145.261C363.264 144.234 361.194 144.234 361.194 141.964C361.194 140.126 362.255 138.612 364.06 137.531C362.786 138.991 362.309 141.315 363.795 142.504C373.19 147.099 377.118 156.396 382.957 156.396C386.194 156.396 391.502 153.207 395.536 153.207C407.692 153.207 385.08 168.072 403.392 168.072C412.575 168.072 416.715 163.153 430.781 172.666Z" fill="#0087E8"/>
</g>
<path d="M399.677 153.315C399.677 138.45 355.143 138.45 355.143 153.315C355.143 168.18 399.677 168.18 399.677 153.315Z" fill="white"/>
<path d="M399.677 153.316C399.677 168.181 355.143 168.181 355.143 153.316C355.143 145.262 369.846 141.803 377.861 142.073C349.57 142.344 350.472 163.1 378.339 163.1C400.685 163.1 399.677 150.668 399.677 153.316Z" fill="#EAF5F6"/>
<path d="M393.36 153.317C393.36 143.046 363.105 144.722 363.105 153.317C363.105 161.911 393.36 163.587 393.36 153.317Z" fill="#EAF5F6"/>
<path d="M371.332 109.477C371.332 112.991 362.309 113.964 360.026 113.964C354.294 113.964 353.232 108.45 355.249 106.234C358.328 102.883 371.332 104.396 371.332 109.477Z" fill="#1EB8E7"/>
<path d="M391.715 153.317C391.715 161.48 364.75 162.128 363.158 153.912C361.353 144.669 391.715 144.615 391.715 153.317Z" fill="#DAEBED"/>
<path d="M366.502 53.37C356.735 47.6403 356.258 46.8295 355.515 48.1808C320.588 109.1 322.18 105.803 323.561 106.613C333.327 112.343 333.805 113.1 334.548 111.803C368.678 51.4781 367.829 54.1808 366.502 53.37ZM329.824 118.343C320.641 112.938 322.34 113.965 320.27 112.721C318.996 111.965 319.049 112.721 313.316 122.83C312.573 124.127 313.316 124.181 323.242 129.911C323.773 130.235 324.41 130.019 324.675 129.532C330.461 119.532 331.098 119.1 329.824 118.343Z" fill="#FFDA7F"/>
<path d="M236.881 108.883C236.881 111.316 233.007 112.451 230.618 112.451C226.849 112.451 223.24 113.694 223.24 109.694C223.24 104.397 236.881 104.018 236.881 108.883Z" fill="#1EB8E7"/>
<path d="M324.197 129.963C323.507 130.288 323.879 130.342 313.688 124.288C312.414 123.531 313.104 123.152 318.783 113.098C319.473 111.909 320.641 112.936 321.756 113.585C315.811 122.071 318.199 126.828 324.197 129.963ZM330.461 101.477C330.461 89.8551 359.177 64.3956 356.629 47.6389C355.514 47.3686 357.797 44.1253 323.189 105.152C322.446 106.45 323.242 106.45 333.115 112.234C334.336 112.936 334.919 111.261 335.663 109.963C333.699 107.909 330.461 105.585 330.461 101.477Z" fill="#FFC858"/>
<path d="M261.935 98.8291C261.935 103.045 256.945 105.964 252.858 105.964C247.603 105.964 246.011 101.478 237.731 101.045C236.404 100.991 226.265 102.559 227.964 96.8831C229.769 89.9642 261.935 87.8561 261.935 98.8291Z" fill="#1EB8E7"/>
<path d="M389.008 157.153C387.309 151.909 381.523 149.693 375.366 148.396C375.366 146.828 375.313 146.882 375.366 146.882C387.946 146.018 396.28 152.558 389.008 157.153Z" fill="#BBC3CC"/>
<path d="M297.445 47.5844C297.127 48.0709 297.233 48.7736 297.711 49.098C306.946 55.4763 307.159 56.0169 307.955 54.8818C319.314 38.9898 335.928 51.098 333.805 62.8818C331.522 75.2061 316.182 76.9358 304.505 87.2061C299.303 91.8007 292.084 102.449 295.004 103.476C305.619 107.044 305.938 107.53 306.416 106.287C311.936 91.3142 330.089 90.4494 340.387 78.0169C363.264 50.5574 320.906 14.0709 297.445 47.5844ZM303.443 114.341C292.031 110.612 292.774 110.774 292.296 110.936C291.553 111.152 291.872 110.936 288.262 122.287C287.838 123.693 288.581 123.53 299.409 127.098C300.683 127.53 300.895 125.963 301.32 124.558C304.186 115.585 304.823 114.774 303.443 114.341Z" fill="white"/>
<path d="M271.808 237.533C271.436 237.155 268.623 231.047 266.341 227.641C263.103 222.614 261.086 222.83 261.086 220.344C261.086 216.668 274.356 213.749 279.717 228.884C285.449 244.452 277.859 248.614 271.808 237.533Z" fill="white"/>
<path d="M222.815 243.694C222.815 253.207 199.991 244.991 199.991 233.694C199.991 230.018 203.176 228.072 206.838 228.072C216.392 228.072 222.815 239.099 222.815 243.694Z" fill="white"/>
<path d="M222.815 243.694C222.815 254.938 194.311 241.424 200.734 230.938C204.45 236.127 210.235 245.802 218.41 245.802C215.862 244.938 213.686 239.046 216.605 236.019C218.463 234.019 222.815 240.829 222.815 243.694Z" fill="#DAEBED"/>
<path d="M222.284 215.857C220.957 222.668 211.138 243.154 217.985 243.154C222.762 243.154 233.643 220.235 233.643 215.857C233.643 208.722 224.355 208.073 222.284 215.857Z" fill="white"/>
<path opacity="0.1" d="M330.832 196.395C329.983 184.287 307.796 177.585 307.424 177.585C306.734 177.314 307 176.882 306.893 181.152C306.893 181.206 306.734 191.585 305.779 192.774C315.227 206.72 275.099 211.206 253.814 210.125C233.803 209.098 190.012 200.125 202.751 186.72C200.787 170.558 206.838 170.666 196.328 173.801C195.479 173.801 178.122 178.882 175.15 188.612C158.43 240.99 334.336 247.855 330.832 196.395Z" fill="#163050"/>
<path d="M330.567 194.613C329.93 185.153 315.652 178.342 306.894 175.045C307 177.748 306.681 183.532 306.681 189.315C309.76 201.802 249.302 207.045 213.314 194.991C208.271 193.315 198.717 189.261 201.371 184.18C202.592 181.748 202.273 184.667 202.273 179.694C202.273 175.802 202.751 171.586 203.07 170.18C203.229 168.829 165.065 179.207 177.591 196.234C200.097 226.829 333.062 226.451 330.567 194.613Z" fill="white"/>
<path d="M177.857 205.856C183.218 204.505 188.26 212.342 191.127 217.37C175.521 229.207 167.241 216.505 167.241 199.207C167.241 177.045 179.237 163.153 204.98 162.396L177.857 205.856Z" fill="white"/>
<path d="M202.963 170.016C194.099 174.232 171.116 170.989 174.566 202.881C174.99 206.826 176.264 206.286 177.857 205.908L202.963 170.016Z" fill="white"/>
<path d="M204.98 162.451C206.838 162.397 206.838 161.964 206.838 164.289C206.838 167.1 205.458 168.829 202.963 170.019L204.98 162.451Z" fill="white"/>
<path d="M271.967 243.099C271.967 240.883 273.029 239.586 272.816 239.262C270.109 234.991 268.251 229.694 264.43 224.991C262.094 222.559 275.417 221.478 279.77 228.883C280.725 230.451 280.407 229.856 278.602 231.045C272.232 235.099 276.16 244.829 281.15 244.829C288.793 244.829 295.694 232.613 295.534 230.018C297.392 243.208 271.967 256.883 271.967 243.099Z" fill="#DAEBED"/>
<path d="M206.52 166.449C202.91 176.882 171.859 165.098 175.946 202.774C159.863 174.611 202.061 161.53 206.52 166.449Z" fill="#DAEBED"/>
<path d="M306.947 175.857C306.947 180.939 306.787 186.939 306.257 192.074C298.985 204.29 235.607 204.83 209.492 193.587C195.32 167.263 213.579 123.317 254.026 124.344C284.441 125.101 306.947 146.398 306.947 175.857Z" fill="#77ECFF"/>
<path d="M298.401 197.045C277.593 204.45 230.406 202.558 209.492 193.531C202.698 190.612 202.539 190.288 202.326 182.072C201.743 171.423 204.556 159.747 210.554 150.072C242.242 98.7204 317.297 137.693 298.401 197.045Z" fill="#3ED8FF"/>
<path d="M191.127 217.371C179.874 225.912 171.7 222.236 168.462 209.695C175.627 221.641 182.528 214.182 188.313 212.939C189.534 214.668 190.49 216.29 191.127 217.371Z" fill="#DAEBED"/>
<path opacity="0.3" d="M300.683 173.099C298.454 174.45 296.012 175.531 293.995 176.558C293.411 176.828 294.101 196.288 277.806 196.288C262.2 196.288 269.472 174.991 269.472 169.531C269.472 164.828 262.094 164.018 257.742 164.018C248.134 164.018 228.548 170.991 205.246 161.369C206.361 158.018 207.794 154.882 209.492 151.909C213.049 149.531 215.437 149.585 218.622 150.936C238.527 141.963 257.264 150.126 293.677 151.585C297.392 158.018 299.834 165.261 300.683 173.099Z" fill="#1EB8E7"/>
<path d="M330.832 196.395C329.983 184.287 307.796 177.585 307.424 177.585C306.734 177.314 307 176.882 306.893 181.152C306.893 181.206 306.734 191.585 305.779 192.774C315.227 206.72 275.099 211.206 253.814 210.125C233.909 209.098 190.065 200.125 202.751 186.72C200.787 170.558 206.838 170.666 196.328 173.801C195.479 173.801 178.122 178.882 175.15 188.612C158.43 240.99 334.336 247.855 330.832 196.395Z" fill="#FFC858"/>
<path d="M306.946 175.1C307.053 177.803 306.734 183.587 306.734 189.37C307.69 193.208 301.638 196.073 297.923 197.262C267.031 208.235 188.579 196.938 202.379 182.83C201.689 168.073 206.36 168.559 197.337 171.424C165.701 181.262 164.215 203.262 216.923 214.83C297.658 232.505 369.262 198.505 306.946 175.1Z" fill="#FFDA7F"/>
<path d="M193.09 172.88C196.116 171.745 199.513 170.718 203.176 169.799C201.689 178.123 202.804 182.231 202.008 183.258C200.681 176.988 200.203 174.393 193.09 172.88Z" fill="#FFC858"/>
<path d="M257.105 158.612C242.295 160.936 227.062 161.801 220.374 161.801C216.286 161.801 205.087 159.531 204.556 155.909C204.556 152.666 215.49 130.828 230.671 130.828C236.987 130.828 246.33 134.234 259.812 134.234C267.031 134.234 272.869 131.423 278.867 131.423C287.413 131.423 293.305 140.288 293.305 142.125C293.305 142.99 293.093 143.855 292.721 144.666C297.286 146.612 303.443 151.423 303.443 156.504C303.443 162.288 297.817 169.152 292.562 171.044C294.897 183.261 282.211 191.423 275.948 191.423C270.215 191.423 273.612 176.828 270.162 164.936C268.251 158.017 268.57 160.882 264.111 160.882C261.51 160.99 259.387 160.125 257.105 158.612Z" fill="#BFB5F2"/>
<path d="M266.447 156.991C266.394 156.938 266.341 156.938 266.447 156.991C266.394 156.938 266.447 156.991 266.447 156.991Z" fill="#B699F1"/>
<path d="M292.562 171.099C293.04 173.586 292.137 169.315 291.447 165.856C287.519 156.883 282.795 155.91 282.795 154.342C282.795 152.829 284.547 152.396 286.033 152.396C291.553 152.396 296.755 160.937 297.764 167.748C296.118 169.315 294.313 170.505 292.562 171.099Z" fill="#B699F1"/>
<path opacity="0.3" d="M301.638 173.477C301.638 188.45 307.69 185.856 307.69 180.072C307.69 173.261 303.018 171.369 301.638 173.477Z" fill="#1EB8E7"/>
<path d="M292.031 179.371C288.899 187.858 278.655 191.479 275.948 191.479C269.844 191.479 274.09 175.209 269.366 162.506C267.455 159.912 261.776 160.398 259.546 158.939C249.408 160.939 233.431 161.75 225.947 161.858C230.299 160.182 225.734 162.128 254.291 155.155C253.283 152.236 251.372 150.128 251.372 146.452C251.372 140.831 256.202 136.722 261.457 135.263C250.841 140.398 254.928 147.641 263.58 154.831C267.561 158.128 273.772 157.317 273.772 153.966C273.772 149.317 264.164 153.101 264.164 142.723C264.164 139.155 265.013 133.209 268.835 133.209C274.09 133.209 277.7 142.777 282.583 142.777C284.653 142.777 289.005 141.263 288.952 142.614C290.279 142.506 292.031 141.912 293.358 142.56C293.199 145.263 292.084 144.344 293.57 145.047C289.112 154.885 281.415 160.614 270.481 159.641C276.903 181.804 273.241 188.344 279.504 188.344C282.317 188.398 288.103 185.533 292.031 179.371Z" fill="#B699F1"/>
<path d="M323.136 153.478C323.136 160.181 313.528 179.586 306.309 179.586C304.345 179.586 302.912 178.721 302.328 177.046C298.507 166.613 317.828 167.37 316.607 153.154C315.492 138.937 297.127 142.775 286.245 143.748C286.829 162.451 276.956 155.532 276.956 151.802C276.956 148.937 277.169 148.018 277.169 145.478C270.534 152.613 265.703 147.1 265.703 139.694C265.703 126.127 279.823 125.316 288.05 135.424C304.08 130.505 323.136 135.856 323.136 153.478Z" fill="white"/>
<path d="M306.31 179.587C304.346 179.587 302.912 178.722 302.329 177.047C302.859 175.912 323.083 168.614 322.87 149.695C324.675 160.668 312.785 179.587 306.31 179.587Z" fill="#DAEBED"/>
<path d="M285.874 150.722C284.122 159.695 276.956 155.587 276.956 151.749C276.956 148.884 277.169 147.965 277.169 145.425C267.243 156.073 264.483 138.398 265.969 138.56C268.198 145.316 272.922 141.425 276.532 141.425C282.158 141.425 279.08 152.289 283.061 152.289C283.645 152.398 284.972 151.965 285.874 150.722Z" fill="#DAEBED"/>
<path d="M316.554 153.043C316.554 154.719 318.093 143.53 303.496 142.557C297.711 142.179 290.81 143.368 286.192 143.746C285.131 137.043 316.554 134.178 316.554 153.043Z" fill="#DAEBED"/>
<path opacity="0.3" d="M306.787 183.261C306.469 192.451 307.053 193.964 298.401 197.045C272.922 206.126 204.397 200.991 202.698 186.721C202.061 181.37 201.636 182.613 205.989 184.883C241.605 203.424 299.515 202.667 306.787 183.261Z" fill="#1EB8E7"/>
<path opacity="0.3" d="M214.057 195.261C211.085 195.153 207.741 193.694 205.033 191.207C207.263 192.666 210.288 194.018 214.057 195.261Z" fill="#1EB8E7"/>
<path d="M177.326 134.018C176.158 136.073 173.557 136.559 173.557 137.964C173.557 141.316 182.315 139.802 182.315 134.775C182.262 132.181 179.131 130.829 177.326 134.018Z" fill="white"/>
<path d="M256.839 94.9914C258.697 96.8293 257.954 98.9914 256.627 98.9914C253.973 98.9914 253.761 92.3968 256.839 94.9914Z" fill="white"/>
<path d="M231.149 106.991C231.733 105.964 233.909 107.045 233.909 107.802C233.909 109.64 230.193 108.613 231.149 106.991Z" fill="white"/>
<path d="M367.67 110.017C369.899 110.774 371.014 106.666 365.653 105.963C364.485 105.801 363.423 106.017 363.37 106.99C363.37 107.693 364.91 107.693 365.865 108.341C367.192 109.206 366.714 109.639 367.67 110.017Z" fill="white"/>
<path opacity="0.5" d="M360.08 113.964C354.347 113.964 353.285 108.451 355.302 106.234C355.302 106.288 350.897 112.613 362.893 112.613C370.324 112.613 370.695 110.126 371.279 108.937C372.235 112.559 363.477 113.964 360.08 113.964Z" fill="#0087E8"/>
<path d="M405.091 140.612C412.31 139.099 426.217 153.639 419.21 153.639C416.185 153.639 414.699 148.504 413.159 146.666C409.337 142.072 403.923 143.639 403.923 141.856C403.923 141.477 404.295 141.045 405.091 140.612Z" fill="white"/>
<path d="M430.198 158.179C429.401 158.612 428.499 159.098 427.597 159.098C426.429 159.098 424.465 158.071 424.465 156.936C424.465 154.99 430.357 154.071 430.675 157.368C430.622 157.368 430.835 157.584 430.198 158.179Z" fill="white"/>
<path d="M399.677 216.451C406.736 216.451 405.515 224.667 398.35 224.667C392.511 224.667 394.263 216.451 399.677 216.451Z" fill="white"/>
<path d="M162.145 229.533C162.198 234.074 154.555 237.641 154.555 233.695C154.555 232.398 156.519 231.641 156.519 230.182C156.519 228.452 153.865 226.344 155.139 225.371C156.837 224.182 162.092 225.749 162.145 229.533Z" fill="white"/>
<path d="M391.396 151.965V154.668C389.698 158.289 382.744 159.695 378.498 159.803V152.83L391.396 151.965Z" fill="#DAEBED"/>
<path opacity="0.4" d="M375.366 146.828C375.366 146.828 368.041 148.017 366.555 155.855C377.33 157.207 377.808 156.288 377.808 156.288L375.366 146.828Z" fill="#BBC3CC"/>
<path d="M381.895 159.531C379.666 159.855 376.419 159.963 374.349 159.801V146.828C374.614 147.261 381.895 159.477 381.895 159.531Z" fill="#BBC3CC"/>
<path d="M378.498 152.828C378.498 160.666 379.4 160.071 375.366 159.747C368.838 159.315 363.742 156.882 363.158 153.855L378.498 152.828Z" fill="#DAEBED"/>
<path opacity="0.4" d="M377.001 159.834C375.037 159.942 373.763 159.888 371.533 159.564L377.001 152.861V159.834Z" fill="#BBC3CC"/>
<path d="M376.958 160.352V152.998L380.242 159.75L376.958 160.352Z" fill="#BBC3CC"/>
<path opacity="0.4" d="M391.715 153.315C391.715 156.504 386.991 158.396 383.965 159.152C391.502 155.585 391.715 149.044 391.715 153.315Z" fill="#BBC3CC"/>
<path opacity="0.5" d="M378.285 233.099C378.816 234.342 379.294 235.532 379.294 236.559C379.294 238.829 376.587 239.694 374.835 239.694C366.82 239.694 359.018 227.64 349.994 227.64C345.801 227.64 338.953 231.315 334.866 230.991C329.93 230.883 326.904 226.342 328.55 223.045C329.134 221.856 330.089 220.991 329.346 221.694C323.826 226.937 329.452 234.667 337.149 233.586C341.501 233.586 346.119 228.342 357.213 234.775C361.565 237.315 366.661 241.478 370.801 242.883C376.852 244.883 383.328 240.883 378.285 233.099ZM405.834 216.559C407.745 219.478 409.231 225.586 396.863 226.991C391.768 227.586 386.99 224.342 382.744 224.342C379.453 224.342 375.95 226.018 377.012 229.748C377.595 222.829 389.804 228.613 398.031 228.613C406.312 228.613 411.513 221.099 405.834 216.559Z" fill="#0087E8"/>
<path opacity="0.5" d="M367.139 200.503C365.122 200.503 362.999 200.179 360.929 200.179C357.213 200.179 355.408 201.53 352.489 201.53C347.818 201.53 345.589 197.963 346.65 195.26C348.136 202.558 356.948 198.395 361.831 198.395C366.98 198.395 371.916 200.071 373.402 193.963C374.889 197.098 373.137 200.503 367.139 200.503Z" fill="#0087E8"/>
<path opacity="0.5" d="M155.457 240.45C150.415 240.45 148.61 237.045 143.037 236.775C138.206 237.531 133.482 233.531 137.198 228.991C136.826 229.91 136.667 230.612 136.667 231.207C136.667 233.477 153.122 238.234 153.493 238.234C161.721 238.234 162.464 230.558 164.056 227.207C168.515 233.099 162.676 240.45 155.457 240.45Z" fill="#0087E8"/>
<path opacity="0.5" d="M188.101 136.829C187.411 146.721 170.266 154.937 160.34 147.261C150.892 138.072 144.47 141.856 136.03 141.856C128.174 141.856 126.051 136.505 128.439 132.234C129.501 144.937 142.187 138.288 151.211 138.288C160.712 138.288 162.251 147.91 170.479 147.91C180.988 147.91 185.341 141.37 188.101 136.829Z" fill="#0087E8"/>
<path opacity="0.5" d="M260.82 102.126C259.122 104.504 255.725 105.964 252.858 105.964C247.603 105.964 246.011 101.477 237.731 101.045C235.13 100.883 227.858 102.612 227.858 97.5313C227.858 97.3691 227.964 96.5583 227.964 96.9907C227.964 102.072 235.979 99.261 241.446 99.261C246.86 99.261 248.506 104.612 253.495 104.612C256.149 104.612 258.697 103.964 260.82 102.126Z" fill="#0087E8"/>
<path opacity="0.5" d="M230.618 112.396C226.849 112.396 223.24 113.639 223.24 109.639C223.24 109.207 223.452 108.072 223.452 108.612C223.452 111.045 224.832 111.639 226.531 111.639C235.661 111.639 236.457 109.531 236.722 108.18C237.678 110.936 233.484 112.396 230.618 112.396Z" fill="#0087E8"/>
<path d="M203.494 190.072C188.844 179.91 175.415 187.208 175.415 196.937C175.415 198.451 175.999 201.099 175.893 202.018C174.035 197.208 174.141 191.64 175.097 188.559C175.946 178.072 193.091 172.235 203.123 169.748C202.433 173.748 202.114 178.343 202.38 182.775C202.645 188.829 203.229 185.316 201.689 188.072C202.167 188.829 202.91 189.64 203.494 190.072Z" fill="#FFC858"/>
<path d="M222.231 141.102H242.508C240.385 147.966 240.331 145.372 243.198 152.831L231.945 152.939C234.864 145.75 234.917 147.696 232.476 144.129C229.025 149.264 229.662 140.777 229.397 152.993L223.824 152.885C223.983 144.669 224.673 146.075 221.86 145.912L222.231 141.102Z" fill="white"/>
<path d="M244.1 150.83C241.181 145.587 241.34 147.533 243.357 142.884C244.896 139.316 240.809 140.289 223.505 139.911C220.427 139.857 220.745 142.884 220.639 144.992C220.586 146.181 221.541 147.1 222.868 147.1C223.824 147.1 220.851 154.397 224.885 154.397C231.573 154.343 230.565 153.803 230.671 147.046C231.52 146.992 232.21 146.505 232.582 145.857C233.325 147.262 233.431 146.451 231.043 151.208C230.3 152.668 231.202 154.235 232.794 154.235C232.794 154.235 242.508 154.235 243.092 153.911C244.206 153.316 244.684 151.857 244.1 150.83ZM241.924 152.019C241.818 152.073 242.03 152.019 238.792 152.127C238.208 152.127 237.784 149.749 237.518 150.56C236.775 152.56 237.465 152.181 233.537 152.235C232.21 152.235 234.334 149.424 235.13 147.046C235.289 146.505 235.448 146.938 233.166 142.451C232.635 141.424 234.44 141.749 236.457 141.803C237.041 141.803 237.306 143.803 237.625 143.046C238.208 141.478 237.625 141.803 241.128 141.857C242.508 141.857 239.535 145.857 239.96 146.83C240.756 149.208 242.879 151.424 241.924 152.019ZM229.185 145.37C228.654 145.37 228.813 146.073 228.813 147.803C228.76 153.154 229.45 152.289 225.204 152.289C223.824 152.289 225.735 145.37 224.62 145.37C222.178 145.37 222.709 145.641 222.815 142.181C222.815 141.911 223.081 141.641 223.452 141.641C230.724 141.695 231.043 141.533 231.043 142.181C231.096 145.749 231.361 145.424 229.185 145.37Z" fill="#163050"/>
<path d="M301.373 124.557C300.949 125.909 300.736 127.476 299.462 127.098C288.528 123.476 287.838 123.692 288.316 122.287C295.481 99.368 289.271 116.827 301.373 124.557ZM330.832 52.3409C333.646 55.7463 334.76 59.9625 333.486 64.2869C328.922 79.5301 302.966 78.0166 294.314 102.125C293.783 103.53 294.844 103.422 305.036 106.936C306.256 107.368 306.416 105.963 307.106 104.503C305.195 102.071 304.399 99.9085 304.399 97.9085C304.399 83.9626 335.663 84.341 335.663 62.3409C335.769 57.0436 333.699 53.7463 330.832 52.3409ZM321.543 34.3409C313.635 33.9625 304.664 37.3139 297.445 47.5841C296.596 48.7733 297.392 48.8814 306.522 55.1517C307.637 55.9085 308.061 54.5571 309.707 52.6652C300.524 43.8544 310.45 38.9895 321.543 34.3409Z" fill="#DAEBED"/>
<path d="M326.374 194.072C326.161 190.126 323.773 184.558 320.163 184.72C318.783 184.774 316.66 185.855 316.766 187.639C316.872 189.423 318.624 191.693 318.73 194.234C319.102 201.964 308.008 202.234 302.647 205.964C301.267 206.882 301.585 209.909 304.929 209.045C313.635 207.693 326.798 202.937 326.374 194.072ZM288.422 210.828C288.581 213.315 293.305 212.882 295.322 210.828C297.87 207.261 288.209 205.964 288.422 210.828Z" fill="white"/>
<path d="M76.1558 48.3418H20.2098" stroke="#DAEBED" stroke-width="2.11285" stroke-linecap="round" stroke-linejoin="round"/>
<path d="M113.949 32.7754H71.3257" stroke="#DAEBED" stroke-width="2.11285" stroke-linecap="round" stroke-linejoin="round"/>
<path d="M37.0893 18.3965H46.3782" stroke="#DAEBED" stroke-width="2.11285" stroke-linecap="round" stroke-linejoin="round"/>
<path d="M429.401 29.4766H466.823" stroke="#DAEBED" stroke-width="2.11285" stroke-linecap="round" stroke-linejoin="round"/>
<path d="M478.5 64.7207H511.091" stroke="#DAEBED" stroke-width="2.11285" stroke-linecap="round" stroke-linejoin="round"/>
<path d="M521.813 106.555L407.851 48.7715" stroke="#163050" stroke-width="2.11285" stroke-linecap="round" stroke-linejoin="round"/>
<path d="M236.35 29.043H190.914" stroke="#163050" stroke-width="2.11285" stroke-linecap="round" stroke-linejoin="round"/>
<path d="M298.878 29.043H273.931" stroke="#163050" stroke-width="2.11285" stroke-linecap="round" stroke-linejoin="round"/>
<path d="M25.2525 91.9638L81.7824 63.207" stroke="#163050" stroke-width="2.11285" stroke-linecap="round" stroke-linejoin="round"/>
<path d="M246.595 11.4748C246.595 16.9883 247.656 22.2857 243.41 22.2857C242.985 22.2857 243.091 21.5289 243.091 26.8262C240.225 26.8262 240.225 30.5559 243.091 30.5559C243.091 41.6911 243.251 40.5559 242.773 40.5559C240.331 40.5559 240.331 44.2857 242.773 44.2857C243.198 44.2857 243.091 43.2046 243.091 54.2857C240.225 54.2857 240.225 58.0154 243.091 58.0154C243.091 69.1506 243.251 68.0154 242.773 68.0154C240.491 68.0154 240.066 71.7452 243.091 71.7452V73.0965C243.091 74.8803 241.658 76.3398 239.907 76.3398C235.395 76.3398 236.722 75.3668 236.722 14.3937C236.722 3.20455 246.595 2.28563 246.595 11.4748Z" stroke="#163050" stroke-width="2.11285" stroke-linecap="round" stroke-linejoin="round"/>
<path d="M273.559 14.3927C273.559 75.2576 274.886 76.3927 270.375 76.3927C266.871 76.3927 266.765 71.7981 267.508 71.7981C269.791 71.7981 270.215 68.0684 267.19 68.0684C267.19 56.9332 267.031 58.0684 267.508 58.0684C269.95 58.0684 269.95 54.3386 267.508 54.3386C267.084 54.3386 267.19 55.4197 267.19 44.3386C270.056 44.3386 270.056 40.6089 267.19 40.6089C267.19 29.4737 267.031 30.6089 267.508 30.6089C269.95 30.6089 269.95 26.8792 267.508 26.8792C267.084 26.8792 267.19 27.5819 267.19 22.3386C265.332 22.5548 263.687 21.0413 263.687 19.0954C263.687 11.3656 263.527 9.79805 264.27 8.01427C266.287 2.98723 273.559 4.71697 273.559 14.3927Z" stroke="#163050" stroke-width="2.11285" stroke-linecap="round" stroke-linejoin="round"/>
<path d="M269.313 28.6654C269.313 31.314 267.402 30.5032 242.773 30.5032C240.331 30.5032 240.331 26.7735 242.773 26.7735C267.774 26.8275 269.313 26.0167 269.313 28.6654Z" stroke="#163050" stroke-width="2.11285" stroke-linecap="round" stroke-linejoin="round"/>
<path d="M269.313 42.449C269.313 45.0976 267.402 44.2868 242.773 44.2868C240.331 44.2868 240.331 40.5571 242.773 40.5571C267.721 40.5571 269.313 39.8003 269.313 42.449Z" stroke="#163050" stroke-width="2.11285" stroke-linecap="round" stroke-linejoin="round"/>
<path d="M269.313 56.179C269.313 58.8277 267.402 58.0169 242.773 58.0169C240.331 58.0169 240.331 54.2871 242.773 54.2871C267.721 54.3412 269.313 53.5304 269.313 56.179Z" stroke="#163050" stroke-width="2.11285" stroke-linecap="round" stroke-linejoin="round"/>
<path d="M267.455 71.7998C242.508 71.7998 240.968 72.6106 240.968 69.9079C240.968 68.8809 241.765 68.0701 242.773 68.0701C267.721 68.0701 269.26 67.2592 269.26 69.9079C269.313 70.989 268.517 71.7998 267.455 71.7998Z" stroke="#163050" stroke-width="2.11285" stroke-linecap="round" stroke-linejoin="round"/>
<path d="M243.038 22.9898C243.038 15.7466 242.773 12.7195 243.888 12.2871" stroke="#163050" stroke-width="2.11285" stroke-linecap="round" stroke-linejoin="round"/>
<path d="M267.19 22.9898C267.19 15.7466 267.455 12.7195 266.341 12.2871" stroke="#163050" stroke-width="2.11285" stroke-linecap="round" stroke-linejoin="round"/>
<path d="M138.578 91.0959C151.476 75.6364 155.563 78.1769 187.942 78.1769" stroke="#163050" stroke-width="2.11285" stroke-linecap="round" stroke-linejoin="round"/>
<path d="M336.247 82.1224C322.499 106.393 322.287 105.852 323.614 106.609C333.38 112.339 333.858 113.095 334.601 111.798C370.43 48.4467 368.201 54.3386 365.653 52.825C356.205 47.2575 356.895 47.6358 356.682 47.6358C355.568 47.3656 356.045 47.3115 346.597 63.9061L336.247 82.1224ZM329.824 118.339C320.641 112.933 322.34 113.96 320.27 112.717C318.996 111.96 319.049 112.717 313.316 122.825C312.573 124.122 313.316 124.176 323.242 129.906C323.773 130.231 324.41 130.014 324.675 129.528C330.461 119.528 331.098 119.095 329.824 118.339Z" stroke="#163050" stroke-width="2.11285" stroke-linecap="round" stroke-linejoin="round"/>
<path d="M297.445 47.5844C297.127 48.0709 297.233 48.7736 297.711 49.098C306.946 55.4764 307.159 56.0169 307.955 54.8818C319.314 38.9898 335.928 51.098 333.805 62.8818C331.522 75.2061 316.182 76.9358 304.505 87.2061C299.303 91.8007 292.084 102.449 295.003 103.476C305.619 107.044 305.938 107.53 306.416 106.287C311.936 91.3142 330.089 90.4494 340.387 78.0169C363.264 50.5574 320.906 14.0709 297.445 47.5844ZM303.443 114.341C292.031 110.612 292.774 110.774 292.296 110.936C291.553 111.152 291.872 110.936 288.262 122.287C287.838 123.693 288.581 123.53 299.409 127.098C300.683 127.53 300.895 125.963 301.32 124.558C304.186 115.585 304.823 114.774 303.443 114.341Z" stroke="#163050" stroke-width="2.11285" stroke-linecap="round" stroke-linejoin="round"/>
<path d="M169.47 150.287C157.474 150.287 160.659 141.152 146.115 141.152C141.072 141.152 127.537 144.666 127.537 135.422C127.537 131.476 132.314 126.287 139.745 126.287C146.115 126.287 152.007 129.098 158.483 129.098C163.844 129.098 169.735 127.476 175.256 127.476C196.859 127.476 188.791 150.287 169.47 150.287Z" stroke="#163050" stroke-width="2.11285" stroke-linecap="round" stroke-linejoin="round"/>
<path d="M155.457 240.45C150.414 240.45 148.61 237.044 143.036 236.774C138.206 237.531 133.482 233.531 137.198 228.99C137.251 228.99 141.922 223.152 154.236 223.152C169.948 223.206 168.302 240.45 155.457 240.45Z" stroke="#163050" stroke-width="2.11285" stroke-linecap="round" stroke-linejoin="round"/>
<path d="M397.978 228.612C392.405 228.612 385.557 226.288 382.16 226.288C378.763 226.288 376.958 228.342 376.958 229.963C376.958 232.342 380.196 234.342 380.196 238.18C380.196 241.477 377.171 243.477 374.145 243.477C365.865 243.477 357.531 231.585 347.552 231.585C342.828 231.585 339.697 233.693 335.716 233.693C325.843 233.693 322.18 220.882 337.573 218.017C346.385 216.342 348.561 212.18 352.966 211.747C363.317 210.774 366.13 218.288 376.64 218.288C387.203 218.288 395.165 209.909 404.719 215.747C412.097 220.288 406.736 228.612 397.978 228.612Z" stroke="#163050" stroke-width="2.11285" stroke-linecap="round" stroke-linejoin="round"/>
<path d="M367.139 200.504C365.122 200.504 362.999 200.18 360.929 200.18C357.213 200.18 355.408 201.531 352.489 201.531C347.818 201.531 345.589 197.964 346.65 195.261C347.924 192.072 352.277 192.937 355.355 193.477C362.521 194.775 361.566 189.531 365.971 189.531C374.305 189.531 378.073 200.504 367.139 200.504Z" stroke="#163050" stroke-width="2.11285" stroke-linecap="round" stroke-linejoin="round"/>
<path d="M362.999 144.393C358.222 142.447 361.884 131.744 388.158 134.933C393.891 135.636 397.447 138.393 403.392 138.393C405.516 138.393 407.639 138.068 409.709 138.068C419.582 138.068 413.69 141.852 437.788 157.528C458.967 171.257 450.686 182.933 444.848 182.933C436.779 182.933 427.968 168.879 414.274 168.879C409.284 168.879 404.454 171.42 399.464 171.42C392.723 171.42 387.999 166.663 380.25 166.663C376.481 166.663 371.226 169.095 366.714 169.095C362.256 169.095 358.699 166.447 361.141 161.257" stroke="#163050" stroke-width="2.11285" stroke-linecap="round" stroke-linejoin="round"/>
<path d="M371.332 109.475C371.332 112.989 362.309 113.962 360.026 113.962C354.294 113.962 353.232 108.448 355.249 106.232C358.328 102.881 371.332 104.394 371.332 109.475Z" stroke="#163050" stroke-width="2.11285" stroke-linecap="round" stroke-linejoin="round"/>
<path d="M236.881 108.881C236.881 111.314 233.006 112.449 230.618 112.449C226.849 112.449 223.24 113.692 223.24 109.692C223.24 104.395 236.881 104.016 236.881 108.881Z" stroke="#163050" stroke-width="2.11285" stroke-linecap="round" stroke-linejoin="round"/>
<path d="M261.935 98.8252C261.935 103.041 256.945 105.96 252.858 105.96C247.603 105.96 246.011 101.474 237.73 101.041C236.403 100.987 226.265 102.555 227.964 96.8792C229.768 89.9603 261.935 87.8522 261.935 98.8252Z" stroke="#163050" stroke-width="2.11285" stroke-linecap="round" stroke-linejoin="round"/>
<path d="M399.677 153.313C399.677 138.448 355.143 138.448 355.143 153.313C355.143 168.178 399.677 168.178 399.677 153.313Z" stroke="#163050" stroke-width="2.11285" stroke-linecap="round" stroke-linejoin="round"/>
<path d="M390.918 153.314C390.918 161.53 364.697 162.071 363.158 153.909C361.406 144.611 390.918 144.611 390.918 153.314Z" stroke="#163050" stroke-width="2.08401" stroke-linecap="round" stroke-linejoin="round"/>
<path d="M375.207 147.152L380.515 159.369" stroke="#163050" stroke-width="2.08401" stroke-linecap="round" stroke-linejoin="round"/>
<path d="M390.388 152.016L363.37 153.799" stroke="#163050" stroke-width="2.08401" stroke-linecap="round" stroke-linejoin="round"/>
<path d="M29.1274 224.126L62.3022 183.693" stroke="#163050" stroke-width="2.11285" stroke-linecap="round" stroke-linejoin="round"/>
<path d="M311.511 176.936C339.537 189.044 332.796 206.666 319.792 216.449C292.243 237.26 226.425 235.206 194.895 220.017C172.496 209.26 160.818 178.882 203.176 169.801" stroke="#163050" stroke-width="2.11285" stroke-linecap="round" stroke-linejoin="round"/>
<path d="M202.751 186.721C201.849 187.694 200.097 188.45 206.732 192.18C235.183 205.099 289.536 203.748 303.443 194.721" stroke="#163050" stroke-width="2.11285" stroke-linecap="round" stroke-linejoin="round"/>
<path d="M202.963 186.718C202.645 176.934 202.22 167.475 206.944 158.826" stroke="#163050" stroke-width="2.11285" stroke-linecap="round" stroke-linejoin="round"/>
<path d="M257.211 158.612C218.197 164.882 205.193 160.18 204.609 155.909C204.609 152.666 215.543 130.828 230.724 130.828C237.89 130.828 252.964 136.071 266.287 133.585" stroke="#163050" stroke-width="2.11285" stroke-linecap="round" stroke-linejoin="round"/>
<path d="M293.146 143.799C292.827 145.042 292.35 144.556 293.57 145.15C312.308 154.177 299.515 168.718 292.562 171.15C294.897 183.366 282.211 191.529 275.948 191.529C269.525 191.529 274.568 173.691 268.623 160.772" stroke="#163050" stroke-width="2.11285" stroke-linecap="round" stroke-linejoin="round"/>
<path d="M292.562 171.097C291.872 164.34 286.564 158.34 285.025 156.719" stroke="#163050" stroke-width="2.11285" stroke-linecap="round" stroke-linejoin="round"/>
<path d="M261.404 134.232C251.637 136.665 249.567 146.611 253.124 153.476C254.61 156.341 258.166 162.935 276.479 159.584C284.228 158.178 291.66 153.259 292.774 144.719" stroke="#163050" stroke-width="2.11285" stroke-linecap="round" stroke-linejoin="round"/>
<path d="M323.136 153.474C323.136 160.177 313.528 179.582 306.31 179.582C304.346 179.582 302.912 178.717 302.329 177.042C298.507 166.609 317.828 167.366 316.607 153.15C315.492 138.933 297.127 142.771 286.245 143.744C286.829 162.447 276.956 155.528 276.956 151.798C276.956 148.934 277.169 148.015 277.169 145.474C270.534 152.609 265.704 147.096 265.704 139.69C265.704 126.123 279.823 125.312 288.05 135.42C304.08 130.501 323.136 135.852 323.136 153.474Z" stroke="#163050" stroke-width="2.11285" stroke-linecap="round" stroke-linejoin="round"/>
<path d="M298.666 167.475C299.621 170.502 303.284 184.718 298.931 196.61" stroke="#163050" stroke-width="2.11285" stroke-linecap="round" stroke-linejoin="round"/>
<path d="M303.284 158.666C304.77 161.531 305.832 164.342 306.416 167.639" stroke="#163050" stroke-width="2.11285" stroke-linecap="round" stroke-linejoin="round"/>
<path d="M302.966 194.991C308.008 192.288 307.743 185.855 307.743 180.018" stroke="#163050" stroke-width="2.11285" stroke-linecap="round" stroke-linejoin="round"/>
<path d="M268.782 130.719C263.156 126.828 246.754 124.611 234.44 130.774" stroke="#163050" stroke-width="2.11285" stroke-linecap="round" stroke-linejoin="round"/>
<path d="M229.503 130.448C245.215 120.394 262.678 122.664 272.869 128.772" stroke="#163050" stroke-width="2.11285" stroke-linecap="round" stroke-linejoin="round"/>
<path d="M189.853 218.341C175.362 228.341 167.241 216.449 167.241 199.26C167.241 177.044 179.29 163.152 205.087 162.449" stroke="#163050" stroke-width="2.11285" stroke-linecap="round" stroke-linejoin="round"/>
<path d="M280.354 230.773C284.812 246.233 277.063 246.773 272.073 237.963C271.383 236.882 269.685 233.476 268.889 231.909" stroke="#163050" stroke-width="2.11285" stroke-linecap="round" stroke-linejoin="round"/>
<path d="M218.409 228.016C211.828 247.745 218.887 248.394 228.442 229.583" stroke="#163050" stroke-width="2.11285" stroke-linecap="round" stroke-linejoin="round"/>
<path d="M294.685 227.369C301.32 240.666 271.967 258.018 271.967 243.099C271.967 241.91 272.339 240.666 272.922 239.369" stroke="#163050" stroke-width="2.11285" stroke-linecap="round" stroke-linejoin="round"/>
<path d="M222.072 240.288C224.036 245.261 221.966 247.855 217.56 247.855C207.422 247.855 197.071 236.936 200.734 230.936C203.547 226.288 211.881 227.585 216.976 232.504" stroke="#163050" stroke-width="2.11285" stroke-linecap="round" stroke-linejoin="round"/>
</g>
<defs>
<clipPath id="clip0">
<rect width="520" height="250" rx="7.92318" fill="white"/>
</clipPath>
</defs>
</svg>
