<svg width="492" height="251" viewBox="0 0 492 251" fill="none" xmlns="http://www.w3.org/2000/svg">
<g clip-path="url(#clip0)">
<rect y="0.217773" width="492" height="250" rx="15" fill="#F0FAFF"/>
<path d="M491.79 207.086V243.71C491.79 247.885 488.419 251.256 484.244 251.256H132.999L318.431 185.403C354.099 172.726 370.701 181.329 491.79 207.086Z" fill="#ADE1FB"/>
<path opacity="0.3" fill-rule="evenodd" clip-rule="evenodd" d="M289.706 184.145L227.073 199.439C184.363 178.108 170.528 170.562 170.578 170.613C194.575 167.846 277.532 163.871 289.706 184.145Z" fill="#ADE1FB"/>
<path d="M491.79 207.085V243.708C491.79 247.884 488.419 251.254 484.244 251.254H347.609V179.718C364.613 178.963 361.293 179.315 491.79 207.085Z" fill="#8BD8FF"/>
<path d="M491.79 233.548V243.71C491.79 247.886 488.419 251.256 484.244 251.256C195.581 251.256 195.48 251.86 207.101 250.401C237.336 246.578 229.84 230.681 261.936 230.681C299.465 230.681 289.656 219.714 307.313 211.413C321.802 204.571 328.593 222.833 347.207 203.615C355.156 226.203 375.077 210.96 401.891 216.293C415.273 218.959 431.421 235.812 449.029 235.812C467.29 235.812 475.138 218.255 491.79 233.548Z" fill="#1EB8E7"/>
<path opacity="0.5" d="M419.096 230.48C416.581 244.767 404.608 235.41 395.804 235.41C388.861 235.41 388.962 241.195 385.139 244.012C382.171 246.226 378.448 245.119 375.782 247.886C371.405 252.414 378.901 251.257 353.948 251.257C357.52 235.762 372.461 239.938 377.14 236.969C381.768 234.001 380.158 227.663 387.302 227.663C392.031 227.663 395.804 231.939 400.533 231.939C406.268 231.939 405.01 226.053 409.84 226.053C412.003 226.053 417.637 227.763 419.096 230.48Z" fill="#0DA3E0"/>
<path opacity="0.3" d="M160.265 169.757C232.104 206.935 236.481 207.689 230.595 209.701C180.137 226.856 171.735 237.723 159.36 229.673C81.5346 178.913 118.812 187.717 52.8594 180.07L62.116 143.396L139.79 152.854L160.265 169.757Z" fill="#ADE1FB"/>
<path opacity="0.5" d="M462.511 244.013C461.857 247.685 460.65 249.949 459.09 251.257H446.061C441.131 249.899 435.094 247.987 431.22 251.257C414.468 251.257 416.078 251.257 416.178 251.207C421.36 247.987 419.498 240.894 427.397 240.894C432.629 240.894 436.754 245.673 442.036 245.673C449.834 245.673 445.91 235.762 457.279 240.29C459.392 241.145 461.354 241.85 462.511 244.013Z" fill="#0DA3E0"/>
<path d="M236.431 190.687C164.542 215.036 176.313 215.69 152.619 200.245C115.19 175.846 111.568 174.991 106.386 165.735L67.1467 79.9607L121.931 67.9876C125.403 67.233 128.924 68.9434 130.433 72.1128L171.333 156.226C235.726 186.713 242.719 188.524 236.431 190.687Z" fill="white"/>
<path d="M162.429 206.635L152.619 200.245C151.26 195.869 151.512 190.486 147.085 188.071C144.217 186.512 122.082 183.191 122.082 175.444C122.082 157.736 169.22 177.507 176.766 195.416C177.672 197.78 183.306 211.464 162.429 206.635Z" fill="#DAEBED"/>
<path d="M191.053 157.935C191.053 161.104 188.941 163.72 185.218 163.167C176.414 162.01 184.01 146.566 170.729 146.566C166.956 146.566 164.994 144.402 164.994 141.636C164.994 135.951 171.786 135.901 175.71 135.901C186.325 135.85 191.053 149.232 191.053 157.935Z" fill="white"/>
<path d="M137.174 178.31C119.215 180.021 100.4 159.093 96.2746 131.122C90.439 91.4297 120.321 80.4627 126.308 77.5449L156.14 171.016L137.174 178.31Z" fill="#82D5EA"/>
<path d="M171.434 152.553C158.404 191.692 115.291 172.978 108.248 126.494C104.273 100.234 114.939 77.6961 132.446 75.9856C159.712 73.3697 182.451 119.401 171.434 152.553Z" fill="#A8E5EF"/>
<path opacity="0.2" d="M171.434 152.554C162.076 167.596 145.727 164.376 145.727 153.61C145.727 149.435 149.147 144.907 149.147 140.128C149.147 135.802 144.62 130.368 144.67 127.149C145.073 124.533 147.135 125.388 152.568 125.388C153.977 125.388 168.566 122.923 173.697 125.338C174.905 135.449 173.999 144.807 171.434 152.554Z" fill="#1EB8E7"/>
<path d="M202.322 170.917C168.717 187.719 170.427 167.647 180.137 160.402L202.322 170.917Z" fill="#DAEBED"/>
<path d="M173.295 149.837C173.295 152.603 162.831 155.068 157.348 153.911C151.613 152.754 155.738 149.032 163.988 147.975C166.503 147.673 173.295 147.472 173.295 149.837Z" fill="#ADE1FB"/>
<path opacity="0.2" d="M166.805 112.107C166.805 117.188 153.876 122.47 144.117 112.711C142.608 111.202 140.092 112.007 139.639 114.069C137.879 122.722 135.112 141.889 121.076 141.889C112.172 141.889 108.399 125.942 108.399 120.961C108.399 117.641 155.889 97.3672 157.096 97.3672C167.459 97.3672 166.805 115.025 166.805 112.107Z" fill="#1EB8E7"/>
<path opacity="0.4" d="M168.113 147.776C168.063 148.027 163.284 149.234 163.284 152.102C163.284 153.46 164.189 153.963 163.938 154.014C148.644 155.875 153.977 147.222 168.113 147.776Z" fill="#1EB8E7"/>
<path d="M204.938 164.677C204.938 170.211 197.292 170.916 191.758 170.916C187.331 170.916 179.835 171.972 179.835 165.231C179.835 158.993 189.091 156.98 195.028 156.98C201.417 157.031 204.938 160.603 204.938 164.677Z" fill="white"/>
<path d="M161.171 92.4366C150.908 97.6685 114.939 117.288 100.098 115.93C93.3567 115.326 99.293 100.083 102.915 93.9458C104.978 90.4243 105.581 90.223 107.342 90.1224L106.286 91.2795C118.611 90.6255 137.074 88.915 143.312 77.5959C141.752 76.9922 140.495 76.7407 140.495 76.7407C140.746 76.0364 151.864 75.2315 162.076 89.4181C163.032 90.6758 161.171 92.4366 161.171 92.4366Z" fill="#BFB5F2"/>
<path d="M172.138 144.404C165.9 151.497 155.486 152.051 153.021 145.963C150.556 139.927 154.078 136.707 156.291 137.965C166.705 143.8 177.118 124.281 172.591 118.647L169.572 107.881C182.3 110.547 190.299 123.728 172.138 144.404Z" fill="white"/>
<path d="M175.156 124.231C167.962 135.701 171.283 131.022 173.043 126.142C173.999 123.577 173.094 123.627 175.156 124.231Z" fill="white"/>
<path opacity="0.6" d="M144.117 97.9192C143.664 101.793 138.985 103.755 137.828 104.308C137.828 104.308 110.511 116.835 100.098 115.879C93.3567 115.275 99.293 100.032 102.915 93.8946C104.978 90.3731 105.581 90.1719 107.342 90.0713L106.286 91.2283C113.48 90.8259 112.826 90.7253 112.725 90.9768C108.449 98.4223 104.978 111.804 113.53 109.842C116.347 109.188 117.655 106.17 123.34 104.208C132.295 101.089 134.76 103.805 144.117 97.9192Z" fill="#A382E5"/>
<path d="M168.667 107.73C168.667 122.47 147.186 114.572 142.809 106.473C134.81 109.391 150.154 108.435 133.653 131.576C130.936 135.399 118.41 142.493 112.423 122.521C108.65 122.521 97.3814 121.011 97.3814 117.44C97.3814 112.51 108.801 115.427 114.788 111.554C118.812 108.988 130.785 103.253 135.414 104.46C135.766 104.159 141.954 100.738 142.004 100.738C143.714 95.5057 153.072 90.8271 158.605 90.8271C165.648 90.8271 168.667 102.297 168.667 107.73Z" fill="#39587E"/>
<path d="M173.295 211.01C173.295 227.158 173.999 225.398 171.585 224.995C168.063 224.492 165.497 223.335 162.68 221.423C95.1175 175.493 113.782 195.817 67.0461 106.874L72.0265 102.899C113.832 176.298 110.964 173.078 117.504 177.354C169.421 211.261 167.107 210.808 173.295 211.01Z" fill="#C9DADF"/>
<path d="M107.242 142.292C106.739 149.335 93.1556 144.606 86.6659 141.94C80.78 139.525 84.4021 129.866 93.7593 132.381C104.173 135.198 107.694 137.211 107.242 142.292Z" fill="white"/>
<path d="M175.156 124.231C170.78 131.173 165.195 142.693 156.241 137.965C156.19 137.914 145.173 128.155 145.123 128.104C145.223 128.104 157.348 119.049 175.156 124.231Z" fill="#ADE1FB"/>
<path d="M175.508 123.174C175.508 128.909 149.6 133.186 145.224 128.155C144.771 127.954 143.966 126.394 146.33 124.533C153.524 119.049 175.508 117.892 175.508 123.174Z" fill="#ADE1FB"/>
<path opacity="0.4" d="M175.508 123.173C175.508 127.751 158.002 129.059 155.436 125.336C163.887 124.582 164.692 122.016 165.397 119.752C171.283 119.702 175.508 121.01 175.508 123.173Z" fill="#1EB8E7"/>
<path d="M172.842 126.242C167.359 129.562 155.838 131.272 149.097 129.864C145.676 125.437 165.497 122.418 172.842 126.242Z" fill="#BFB5F2"/>
<path d="M238.04 200.395C238.04 203.816 241.109 201.351 181.797 223.939C179.282 224.895 176.313 225.398 173.295 225.247V211.01C175.156 211.06 177.018 210.809 178.829 210.205C240.103 189.73 238.04 190.485 238.091 188.875V200.395H238.04Z" fill="#DAEBED"/>
<path d="M117.706 123.174L120.825 124.331L123.843 112.761L120.07 111.805L117.706 123.174Z" fill="white"/>
<path d="M127.012 119.3L130.886 120.155L133.703 111.905L128.672 110.396L127.012 119.3Z" fill="white"/>
<path d="M148.443 104.258L150.858 105.264L153.625 98.976L150.053 97.4668L148.443 104.258Z" fill="white"/>
<path d="M476.698 189.128C476.597 193.102 478.157 203.918 463.417 200.296L462.712 242.806C462.612 248.792 448.073 247.736 448.174 241.749C448.878 198.536 446.061 181.029 458.889 171.722C467.089 165.635 477.151 169.508 476.698 189.128Z" fill="#DAEBED"/>
<path d="M433.031 180.878C432.931 185.154 434.54 195.669 419.75 192.046L419.096 230.129C419.046 234.506 411.399 235.009 407.324 232.896C403.501 230.934 404.054 234.103 405.262 185.456C405.916 158.743 433.735 148.883 433.031 180.878Z" fill="#DAEBED"/>
<path d="M448.828 201.703L448.677 210.808L416.531 200.747C411.852 199.037 414.468 191.742 419.7 193.402L448.828 201.703Z" fill="#DAEBED"/>
<path d="M448.476 223.185L419.348 214.934C414.116 213.224 411.55 220.569 416.178 222.279L448.325 232.34L448.476 223.185Z" fill="#DAEBED"/>
<path d="M463.618 188.021L463.417 200.296C465.681 200.849 467.592 201 469.202 200.9L469.403 188.725C469.504 180.877 463.618 188.021 463.618 188.021Z" fill="#C9DADF"/>
<path d="M419.901 179.772L419.7 192.047C421.964 192.6 423.875 192.751 425.485 192.651L425.686 180.476C425.837 172.578 419.901 179.772 419.901 179.772Z" fill="#C9DADF"/>
<path d="M414.065 197.328C414.065 197.328 413.915 205.679 407.626 211.414L407.576 215.388C407.576 215.388 416.43 214.533 419.549 201.705L414.065 197.328Z" fill="#C9DADF"/>
<path d="M419.197 222.883C417.335 230.429 413.26 232.995 410.393 233.9C409.286 233.699 408.23 233.347 407.324 232.894L407.375 230.328C413.613 225.751 413.764 218.758 413.764 218.758L419.197 222.883Z" fill="#C9DADF"/>
<path d="M458.738 171.873C450.337 178.212 451.746 198.284 450.941 245.623C447.117 243.661 447.62 247.334 448.979 193.757C449.23 183.494 453.607 175.747 458.738 171.873Z" fill="#C9DADF"/>
<path d="M415.021 163.723C406.62 170.061 408.028 190.687 407.324 232.945C403.551 230.983 404.054 234.153 405.262 185.606C405.513 175.344 409.89 167.596 415.021 163.723Z" fill="#C9DADF"/>
<path d="M448.727 207.037L448.677 210.81L416.531 200.748C414.317 199.943 413.613 197.629 414.468 197.025L448.727 207.037Z" fill="#C9DADF"/>
<path d="M448.375 228.517L448.325 232.29L416.178 222.229C413.965 221.424 413.261 219.11 414.116 218.506L448.375 228.517Z" fill="#C9DADF"/>
<path d="M289.706 184.146L273.859 178.36V16.874H297.051L289.706 184.146Z" fill="#FFC858"/>
<path d="M309.074 1.07782L307.163 177.908L289.706 184.146V22.2572L73.8879 60.0882V239.366C73.8879 252.401 65.9656 248.336 63.7303 244.76C61.495 241.184 57.5735 237.086 52.0042 241.821L52.0042 30.5075C305.754 -3.65106 257.61 1.07782 309.074 1.07782Z" fill="#FFDA7F"/>
<path d="M52.0042 30.5083V241.638C45.6668 246.037 33.0384 247.151 33.0384 234.165V52.8447L13.3208 47.6747C-5.37886 42.7163 -1.38666 19.4957 13.3208 20.7332L52.0042 30.5083Z" fill="#FFC858"/>
<path d="M270.489 1.07871L52.0043 30.5084L16.8911 21.7468C21.0984 22.71 24.092 18.6054 20.4631 17.6711C16.8342 16.7368 17.2918 12.0693 27.8396 14.2428L51.954 18.9378C252.68 -2.4931 205.944 1.07871 270.489 1.07871Z" fill="#FFE4A0"/>
<path d="M289.138 22.5234V178.426C289.138 188.386 273.241 185.217 264.94 182.048C253.772 177.822 261.671 151.008 272.436 137.073C273.04 136.268 273.141 136.62 271.933 136.167C267.355 134.658 265.796 131.439 270.022 127.615C253.219 114.686 232.593 76.8552 230.43 32.8364L289.138 22.5234Z" fill="#BFB5F2"/>
<path opacity="0.6" d="M275.606 53.512C269.569 53.6629 269.669 73.484 273.292 84.9037C278.725 102.058 274.65 109.001 280.536 115.843C280.586 115.843 281.693 53.3611 275.606 53.512Z" fill="#A382E5"/>
<path opacity="0.6" d="M254.276 39.9297C262.073 57.4366 262.677 77.811 265.846 96.3241C261.872 85.8602 253.018 73.1325 253.018 62.5679C253.018 55.0219 257.344 47.3752 254.276 39.9297Z" fill="#A382E5"/>
<path opacity="0.6" d="M267.053 165.496C267.406 161.17 270.474 158.302 270.474 155.485C270.474 154.177 269.619 153.423 268.663 153.423C265.393 153.423 265.645 160.113 264.437 163.333C257.243 182.802 270.374 178.727 270.424 183.758C268.613 183.305 266.802 182.752 264.94 182.047C253.772 177.822 261.671 151.008 272.436 137.073C273.04 136.268 273.141 136.62 271.933 136.167C282.447 137.878 281.24 136.368 289.088 135.463V178.224C289.088 182.098 285.919 185.116 282.347 185.116C281.743 185.116 278.473 179.331 278.473 174.552C278.473 164.993 286.925 146.983 279.882 147.034C273.04 147.084 275.103 174.3 268.714 174.3C265.242 174.35 266.198 168.817 267.053 165.496Z" fill="#A382E5"/>
<path opacity="0.4" d="M86.6659 141.937C83.9493 140.83 83.245 138.215 84.2009 135.9C89.8353 137.309 96.4255 142.289 107.04 142.44C107.443 142.541 107.996 150.59 86.6659 141.937Z" fill="#DAEBED"/>
<path opacity="0.6" d="M289.138 22.5234V101.254C283.202 93.1045 288.836 91.6959 287.277 76.5534C286.623 47.0734 286.22 29.3149 281.139 29.4658C277.668 29.5664 278.423 37.7162 272.487 39.6782C266.55 41.6402 252.967 28.7112 243.862 40.5334C237.372 48.9347 246.578 106.637 275.656 127.917C270.072 130.684 269.72 133.501 271.531 136.017C269.116 135.01 264.739 132.394 270.022 127.615C256.388 117.101 232.844 81.5841 230.43 32.8364L289.138 22.5234Z" fill="#A382E5"/>
<path d="M80.7297 193.051C90.1874 199.993 88.7285 208.143 86.515 212.519C84.7543 215.991 84.6033 212.771 87.7727 219.713C102.713 252.439 73.8376 256.444 73.8376 236.721V59.3339L105.179 54.3535C105.229 89.1661 96.9286 145.963 80.7297 193.051Z" fill="#BFB5F2"/>
<path opacity="0.6" d="M105.229 54.3535C105.229 54.4541 105.229 58.2272 104.927 64.8677C104.575 64.6162 104.223 64.3144 103.921 63.9119C101.607 60.9941 97.0795 61.6481 95.5703 64.5659C93.8599 67.9365 92.8537 70.5021 89.5838 68.4395C87.7224 67.2825 85.1567 67.4334 83.4966 68.8923C74.4916 77.0421 75.4977 94.1968 73.8376 104.51V59.2333L105.229 54.3535Z" fill="#A382E5"/>
<path opacity="0.6" d="M81.9371 132.833C81.9371 132.782 81.434 86.7008 85.3077 84.3867C91.8979 80.4124 86.1629 102.849 86.1629 122.369C86.1629 124.632 87.5715 140.278 83.5469 140.278C80.126 140.228 81.9371 132.883 81.9371 132.833Z" fill="#A382E5"/>
<path opacity="0.4" d="M491.79 84.4369V182.586C338.856 170.16 248.605 79.1546 491.79 84.4369Z" fill="#DAEBED"/>
<path d="M491.79 45.0474V145.461C338.655 126.797 328.09 39.5136 363.406 8.625L491.79 45.0474Z" fill="white"/>
<path fill-rule="evenodd" clip-rule="evenodd" d="M491.79 55.6619V77.4075C491.79 85.1156 485.235 91.2052 477.608 90.085C436.386 84.0299 374.671 63.8879 350.527 28.9488C353.043 21.8052 356.665 15.7683 360.488 11.4922L491.79 55.6619Z" fill="#F3F8FB"/>
<path fill-rule="evenodd" clip-rule="evenodd" d="M390.22 113.817C385.944 111.15 382.02 108.434 378.448 105.667C373.467 85.6445 381.667 71.7094 396.357 59.4344C396.357 59.4344 401.74 59.0823 406.016 64.4651C384.837 80.0604 385.893 100.183 390.22 113.817Z" fill="#F3F8FB"/>
<path fill-rule="evenodd" clip-rule="evenodd" d="M434.44 133.638C415.977 141.436 386.245 128.708 386.748 96.9644C387.402 56.6683 429.107 43.035 449.633 69.6475C413.462 36.2435 361.595 114.32 434.44 133.638Z" fill="#D2EFFD"/>
<path d="M491.79 8.62323V79.0031C448.526 73.7711 353.395 43.9892 346.553 1.07715H484.244C488.419 1.07715 491.79 4.44773 491.79 8.62323Z" fill="white"/>
<path fill-rule="evenodd" clip-rule="evenodd" d="M394.697 49.0214C394.999 49.9772 395.301 50.2791 393.842 48.6189C381.265 34.0801 385.189 15.1646 391.125 1.12891H406.318C394.295 12.7499 390.27 34.0801 394.697 49.0214Z" fill="#F3F8FB"/>
<path fill-rule="evenodd" clip-rule="evenodd" d="M409.182 11.1934C400.36 23.1569 396.372 45.876 426.342 63.0361C384.046 59.6525 384.771 19.0481 398.375 4.36034C404.263 -2.97144 413.121 5.36216 409.182 11.1934Z" fill="#D2EFFD"/>
<path opacity="0.4" d="M169.17 133.688C165.849 138.115 161.171 140.429 156.241 137.964C141.4 124.784 145.425 129.16 149.097 129.865C151.814 130.418 155.587 130.519 159.762 130.066C158.957 136.606 164.24 136.455 169.17 133.688Z" fill="#1EB8E7"/>
<path opacity="0.4" d="M181.545 129.865C179.734 135.047 176.062 139.927 172.138 144.404C165.095 152.403 152.166 152.403 152.166 142.09C153.675 145.058 155.989 146.215 158.605 146.215C168.214 146.265 176.917 135.5 181.545 129.865Z" fill="#DAEBED"/>
<path d="M178.074 195.968C178.074 208.293 161.825 209.601 161.825 191.44C161.825 173.883 178.074 179.618 178.074 195.968Z" fill="white"/>
<path d="M171.182 185.205C171.383 187.67 166.554 192.549 160.919 186.915C157.448 183.444 155.285 178.011 148.594 178.011C138.13 178.011 124.447 182.639 124.447 171.571C124.396 159.548 169.321 163.472 171.182 185.205Z" fill="white"/>
<path opacity="0.6" d="M87.7727 219.714C85.2573 224.494 77.7112 230.681 73.8879 232.392V219.563C76.4032 219.664 84.6536 215.891 85.207 214.684C86.0119 216.193 86.8671 217.702 87.7727 219.714Z" fill="#A382E5"/>
<path d="M153.575 31.9166C157.499 33.4259 156.945 40.2676 150.808 41.2235L142.708 42.5315V25.3264C150.808 24.2699 152.468 23.6663 154.279 25.0246C156.341 26.5338 156.04 29.9547 153.575 31.9166ZM150.405 28.7473C149.952 28.3951 149.5 28.5461 147.739 28.7976C147.739 31.8663 147.236 31.313 149.449 31.0111C150.808 30.7596 151.059 29.3007 150.405 28.7473ZM149.6 37.2995C151.462 36.9977 151.462 34.432 149.6 34.7339C147.286 35.086 147.789 34.3314 147.789 37.6014L149.6 37.2995Z" fill="white"/>
<path d="M164.34 34.079L169.371 33.3244V38.2545L159.159 39.9146V23.1623L164.34 22.458V34.079Z" fill="white"/>
<path d="M179.433 37.0976C168.214 38.9087 168.264 21.4521 179.433 19.9932C190.299 18.5846 190.399 35.3369 179.433 37.0976ZM177.169 31.5135C178.376 32.7209 180.59 32.2681 181.696 30.8092C182.803 29.3503 182.904 26.7846 181.696 25.6276C180.489 24.4202 178.275 24.8227 177.169 26.2816C176.012 27.7405 175.961 30.3565 177.169 31.5135Z" fill="white"/>
<path d="M197.141 34.2303C190.701 35.2867 187.884 28.294 190.601 22.6093C193.77 15.9687 203.278 15.516 204.234 23.7663C197.291 24.7725 200.964 24.5713 198.75 22.8608C197.644 22.0056 196.084 22.4584 195.229 23.6657C192.915 27.0363 196.034 31.6646 198.801 28.4449C200.964 25.9799 197.191 26.8351 204.284 25.7786C203.882 30.0044 201.215 33.5763 197.141 34.2303Z" fill="white"/>
<path d="M218.722 30.3568L213.843 31.1617C210.271 24.4708 210.975 23.9175 210.975 31.6145L206.699 32.3188V16.9248L210.975 16.3714C210.975 23.7665 210.12 23.8672 213.591 16.0192L218.471 15.3652L214.547 23.3138L218.722 30.3568Z" fill="white"/>
<path d="M129.226 103.302C128.823 103.302 128.974 103.403 126.66 96.8629C122.233 98.8752 123.29 99.4789 122.082 94.096C121.931 93.442 121.428 93.7941 135.967 88.3107C136.068 88.2604 136.219 88.3107 136.319 88.361C138.03 89.518 137.577 89.7696 138.13 87.707C138.231 87.4051 138.181 87.5057 141.3 86.2984C142.306 85.8959 141.501 88.1597 140.746 91.1782C145.676 94.5991 145.626 93.6935 141.4 96.2089C141.3 96.2592 141.149 96.2592 141.048 96.2089C139.036 94.8003 139.69 94.4984 138.935 97.5169C138.885 97.8187 138.935 97.6678 135.464 99.7304C134.106 100.535 135.766 95.8567 136.47 93.1402C135.464 92.4862 136.118 92.8886 132.596 90.5745C134.458 94.1463 134.76 93.1905 130.785 95.0015C133.401 100.938 133.301 100.586 133.25 100.887C133.049 101.24 129.377 103.302 129.226 103.302Z" fill="#163050"/>
<path d="M129.88 101.542C129.779 101.592 129.578 101.542 129.528 101.391C127.214 94.7506 127.767 94.7506 125.252 96.0586C124.598 96.4107 123.944 96.5616 123.742 95.8573C123.591 95.2536 123.29 94.5996 123.843 94.3984C131.188 91.1788 131.439 91.0278 131.842 91.7321C132.395 92.688 132.546 92.8389 131.389 93.342C129.729 93.996 129.578 94.0463 129.477 94.3984C129.176 95.3039 131.288 98.8255 131.741 100.234C131.842 100.486 131.792 100.486 129.88 101.542ZM134.558 90.5248C134.005 90.1223 135.816 89.6192 135.866 89.6192C136.068 89.6192 137.325 90.6757 137.929 90.6757C138.533 90.6757 138.633 89.9714 138.985 88.6634C139.086 88.3112 140.495 87.5566 140.293 88.2609C139.388 91.7321 138.935 91.6315 141.752 93.342C143.01 94.1469 143.06 93.845 141.3 94.8512C141.199 94.9015 141.149 94.9015 141.048 94.8512C138.784 93.4426 138.835 92.5371 137.929 96.6119C137.828 96.9641 136.269 98.0708 136.47 97.2659C138.03 91.5812 138.181 93.1407 134.558 90.5248Z" fill="#F3F8FB"/>
<path opacity="0.5" d="M164.944 189.38C158.555 187.87 157.499 178.01 148.594 178.01C138.13 178.01 124.447 182.638 124.447 171.571C124.447 169.307 126.207 167.597 129.075 166.439C128.823 174.74 138.784 173.281 147.387 173.281C159.008 173.281 165.648 184.751 164.944 189.38Z" fill="#DAEBED"/>
<path opacity="0.5" d="M196.587 170.714C194.977 170.916 193.267 170.966 191.758 170.966C187.331 170.966 179.835 172.022 179.835 165.281C179.835 163.521 180.539 162.162 181.596 161.055C178.527 156.528 181.394 146.517 170.679 146.517C170.075 146.517 169.572 146.466 169.069 146.366C169.723 144.203 171.132 142.291 173.899 141.033C190.752 143.699 175.76 169.859 196.587 170.714Z" fill="#DAEBED"/>
<path d="M354.854 19.5918C354.619 20.0185 349.137 30.6874 347.88 45.6164M389.868 115.025C366.157 101.781 354.976 85.7047 350.378 70.5512M348.41 61.9156C348.496 62.4668 348.589 63.0204 348.691 63.576" stroke="#C9DADF" stroke-width="2.01229" stroke-linecap="round" stroke-linejoin="round"/>
<path d="M402.495 54.5561C380.059 42.5757 360.641 32.7834 350.22 10.8369" stroke="#C9DADF" stroke-width="2.01229" stroke-linecap="round" stroke-linejoin="round"/>
<path d="M427.95 63.5106C406.469 63.6615 389.767 47.1104 389.767 28.044C389.767 18.4479 392.749 12.3182 397.34 6.70898" stroke="#83D8F2" stroke-width="2.01229" stroke-linecap="round" stroke-linejoin="round"/>
<path d="M427.397 63.1582C441.662 70.2747 459.826 74.2985 475.385 76.4254" stroke="#C9DADF" stroke-width="2.01229" stroke-linecap="round" stroke-linejoin="round"/>
<path d="M427.397 63.1595C400.372 49.6839 398.888 28.9185 407.315 13.5391" stroke="#83D8F2" stroke-width="2.01229" stroke-linecap="round" stroke-linejoin="round"/>
<path d="M409.336 59.2852C394.194 66.4288 386.799 81.8228 386.598 95.6573C386.095 127.15 413.562 140.129 433.434 134.142" stroke="#83D8F2" stroke-width="2.01229" stroke-linecap="round" stroke-linejoin="round"/>
<path d="M433.182 133.689C442.103 136.855 453 139.397 463.518 141.247" stroke="#C9DADF" stroke-width="2.01229" stroke-linecap="round" stroke-linejoin="round"/>
<path d="M415.927 66.127C391.98 82.1247 384.585 116.434 433.182 133.69" stroke="#83D8F2" stroke-width="2.01229" stroke-linecap="round" stroke-linejoin="round"/>
<path d="M476.698 189.128C476.597 193.102 478.157 203.918 463.417 200.296L462.712 242.806C462.612 248.792 448.073 247.736 448.174 241.749C448.878 198.536 446.061 181.029 458.889 171.722C467.089 165.635 477.151 169.508 476.698 189.128Z" stroke="#163050" stroke-width="2.01229" stroke-linecap="round" stroke-linejoin="round"/>
<path d="M419.549 201.805L419.348 214.784" stroke="#163050" stroke-width="2.01229" stroke-linecap="round" stroke-linejoin="round"/>
<path d="M419.197 223.388L419.096 230.129C418.995 236.116 404.457 235.059 404.557 229.073L405.262 185.456C406.167 158.743 433.735 148.883 433.031 180.878C432.88 186.513 433.685 192.097 425.485 192.65C419.146 193.103 419.75 190.638 419.7 193.304" stroke="#163050" stroke-width="2.01229" stroke-linecap="round" stroke-linejoin="round"/>
<path d="M448.828 201.703L448.677 210.808L416.53 200.747C411.852 199.037 414.468 191.742 419.7 193.402L448.828 201.703Z" stroke="#163050" stroke-width="2.01229" stroke-linecap="round" stroke-linejoin="round"/>
<path d="M448.476 223.185L419.348 214.934C414.116 213.224 411.55 220.569 416.178 222.279L448.325 232.34L448.476 223.185Z" stroke="#163050" stroke-width="2.01229" stroke-linecap="round" stroke-linejoin="round"/>
<path d="M419.7 192.047V184.652C419.7 177.056 425.485 174.59 425.485 180.879" stroke="#163050" stroke-width="2.01229" stroke-linecap="round" stroke-linejoin="round"/>
<path d="M463.417 200.949V193.554C463.417 185.958 469.202 183.493 469.202 189.781" stroke="#163050" stroke-width="2.01229" stroke-linecap="round" stroke-linejoin="round"/>
<path d="M138.382 18.8886L253.419 3.80957" stroke="#163050" stroke-width="2.01229" stroke-linecap="round" stroke-linejoin="round"/>
<path d="M52.0042 95.7582V30.5097L113.631 22.209" stroke="#163050" stroke-width="2.01229" stroke-linecap="round" stroke-linejoin="round"/>
<path d="M52.0042 137.513V110.498" stroke="#163050" stroke-width="2.01229" stroke-linecap="round" stroke-linejoin="round"/>
<path d="M52.0042 243.569V146.367" stroke="#163050" stroke-width="2.01229" stroke-linecap="round" stroke-linejoin="round"/>
<path d="M309.651 8L307.162 177.909L289.706 184.147M289.706 184.147V22.2588L73.8879 60.0395V237.816M289.706 184.147L287.154 182.932" stroke="#163050" stroke-width="2.01229" stroke-linecap="round" stroke-linejoin="round"/>
<path d="M33.0384 226.037V52.846L18.2443 48.6875" stroke="#163050" stroke-width="2.01229" stroke-linecap="round" stroke-linejoin="round"/>
<path d="M52.0042 30.5097L13.8156 21.1317" stroke="#163050" stroke-width="2.01229" stroke-linecap="round" stroke-linejoin="round"/>
<path d="M38.05 16.4571L52.0042 18.9386L192.297 4.1582" stroke="#163050" stroke-width="2.01229" stroke-linecap="round" stroke-linejoin="round"/>
<path d="M230.43 32.8379C230.43 32.8379 234.153 96.1747 270.022 127.617C263.985 132.798 270.273 135.767 272.889 136.471C259.608 156.141 252.213 180.691 270.424 183.709C285.969 186.325 286.07 185.369 289.088 178.176" stroke="#163050" stroke-width="2.01229" stroke-linecap="round" stroke-linejoin="round"/>
<path d="M272.738 136.471C280.335 139.037 287.931 135.968 288.836 135.666" stroke="#163050" stroke-width="2.01229" stroke-linecap="round" stroke-linejoin="round"/>
<path d="M269.619 127.314C272.436 129.578 281.793 129.276 286.12 127.163" stroke="#163050" stroke-width="2.01229" stroke-linecap="round" stroke-linejoin="round"/>
<path d="M105.229 54.3545C103.418 104.511 88.2757 194.36 76.0511 196.825" stroke="#163050" stroke-width="2.01229" stroke-linecap="round" stroke-linejoin="round"/>
<path d="M80.7297 193.051C90.2377 199.641 92.6022 217.198 73.8879 219.563" stroke="#163050" stroke-width="2.01229" stroke-linecap="round" stroke-linejoin="round"/>
<path d="M85.4586 215.137C90.9809 223.625 93.616 234.053 91.3445 242.008" stroke="#163050" stroke-width="2.01229" stroke-linecap="round" stroke-linejoin="round"/>
<path d="M104.927 71.7108C125.704 67.1831 126.811 64.8187 132.043 75.5844" stroke="#163050" stroke-width="2.01229" stroke-linecap="round" stroke-linejoin="round"/>
<path d="M201.819 170.665C233.412 185.656 242.467 188.624 236.431 190.637C171.283 212.722 174.301 214.331 162.429 206.634C101.758 167.194 112.021 178.11 97.1298 145.662" stroke="#163050" stroke-width="2.01229" stroke-linecap="round" stroke-linejoin="round"/>
<path d="M238.04 188.876C238.04 197.73 239.097 202.258 234.921 203.817C181.143 223.94 175.207 229.273 163.435 221.173C104.022 180.324 105.431 184.6 92.4513 154.768" stroke="#163050" stroke-width="2.01229" stroke-linecap="round" stroke-linejoin="round"/>
<path d="M94.9163 144.807C97.7838 145.611 106.839 147.624 107.242 142.492C107.745 136.355 100.601 134.091 96.5261 133.186" stroke="#163050" stroke-width="2.01229" stroke-linecap="round" stroke-linejoin="round"/>
<path d="M124.396 171.57C124.396 182.587 137.979 178.009 148.544 178.009C155.184 178.009 157.398 183.442 160.869 186.914C166.554 192.598 171.333 187.618 171.132 185.203C169.27 163.37 124.396 159.547 124.396 171.57Z" stroke="#163050" stroke-width="2.01229" stroke-linecap="round" stroke-linejoin="round"/>
<path d="M170.226 180.879C178.326 183.445 182.803 205.127 170.075 205.127C163.888 205.127 160.919 194.915 162.127 188.123" stroke="#163050" stroke-width="2.01229" stroke-linecap="round" stroke-linejoin="round"/>
<path d="M172.993 146.72C183.457 148.531 176.364 163.221 186.274 163.221C188.991 163.221 191.003 161.007 191.003 157.888C191.003 157.284 189.997 138.168 177.923 136.055" stroke="#163050" stroke-width="2.01229" stroke-linecap="round" stroke-linejoin="round"/>
<path d="M181.596 161.056C180.539 162.112 179.835 163.521 179.835 165.282C179.835 171.972 187.381 170.966 191.758 170.966C197.292 170.966 204.938 170.262 204.938 164.728C204.938 158.49 198.348 156.327 191.355 157.383" stroke="#163050" stroke-width="2.01229" stroke-linecap="round" stroke-linejoin="round"/>
<path d="M175.156 124.23C170.78 131.173 165.195 142.693 156.241 137.964C156.19 137.914 156.492 138.166 145.676 128.607" stroke="#163050" stroke-width="2.01229" stroke-linecap="round" stroke-linejoin="round"/>
<path d="M175.508 123.175C175.508 128.91 149.6 133.187 145.224 128.156C144.771 127.955 143.966 126.395 146.33 124.534C153.524 119.05 175.508 117.893 175.508 123.175Z" stroke="#163050" stroke-width="2.01229" stroke-linecap="round" stroke-linejoin="round"/>
<path d="M148.795 128.809C149.248 124.784 166.302 122.822 172.893 126.243" stroke="#163050" stroke-width="2.01229" stroke-linecap="round" stroke-linejoin="round"/>
<path d="M157.146 149.79C150.808 152.808 158.002 155.173 164.089 153.965C173.798 152.758 177.219 147.979 167.661 147.777" stroke="#163050" stroke-width="2.01229" stroke-linecap="round" stroke-linejoin="round"/>
<path d="M155.486 137.261C151.512 138.72 150.154 147.725 157.549 149.888C173.094 154.466 197.895 112.56 169.572 107.882" stroke="#163050" stroke-width="2.01229" stroke-linecap="round" stroke-linejoin="round"/>
<path d="M113.027 90.6771C120.12 77.1445 132.144 73.2708 143.463 77.6476" stroke="#163050" stroke-width="2.01229" stroke-linecap="round" stroke-linejoin="round"/>
<path d="M128.974 166.49C116.599 156.277 109.304 138.619 107.795 122.37" stroke="#163050" stroke-width="2.01229" stroke-linecap="round" stroke-linejoin="round"/>
<path d="M171.735 151.697C169.522 158.74 165.598 165.632 159.511 169.858" stroke="#163050" stroke-width="2.01229" stroke-linecap="round" stroke-linejoin="round"/>
<path d="M169.27 107.479C170.83 111.504 172.037 115.83 172.893 120.358" stroke="#163050" stroke-width="2.01229" stroke-linecap="round" stroke-linejoin="round"/>
<path d="M106.537 90.9784C114.083 82.6274 123.239 79.0556 126.308 77.5967" stroke="#163050" stroke-width="2.01229" stroke-linecap="round" stroke-linejoin="round"/>
<path d="M125.654 176.452C115.14 172.075 105.531 160.806 100.098 146.016" stroke="#163050" stroke-width="2.01229" stroke-linecap="round" stroke-linejoin="round"/>
<path d="M102.06 95.5058C104.726 90.3745 105.581 90.2235 107.342 90.0726C106.084 91.4309 104.827 91.4812 112.775 90.8272C122.686 89.972 137.879 87.4063 143.312 77.5461C141.752 76.9424 140.495 76.6909 140.495 76.6909C140.746 75.9866 151.864 75.1817 162.076 89.3683C162.579 90.0726 162.278 90.8775 161.875 91.5315" stroke="#163050" stroke-width="2.01229" stroke-linecap="round" stroke-linejoin="round"/>
<path d="M99.5949 114.825C103.217 113.567 110.411 114.372 114.788 111.555C119.617 108.486 131.188 103.355 135.414 104.461C137.174 102.147 140.796 100.739 142.004 100.739C143.714 95.5067 153.071 90.8281 158.605 90.8281C165.648 90.8281 168.667 102.348 168.667 107.731C168.667 121.968 148.745 115.076 143.412 107.53C142.356 106.021 139.79 107.379 140.595 108.989C142.557 112.963 142.608 119.05 133.603 131.627C130.886 135.451 118.359 142.544 112.373 122.572C109.556 122.572 102.513 121.717 99.1421 119.805" stroke="#163050" stroke-width="2.01229" stroke-linecap="round" stroke-linejoin="round"/>
<path d="M181.948 161.711L170.629 155.725" stroke="#163050" stroke-width="2.01229" stroke-linecap="round" stroke-linejoin="round"/>
<path d="M136.722 143.549C136.722 143.549 143.362 150.793 153.574 147.674" stroke="#163050" stroke-width="2.01229" stroke-linecap="round" stroke-linejoin="round"/>
<path d="M135.162 145.612C135.162 145.612 136.319 142.392 137.577 141.135" stroke="#163050" stroke-width="2.01229" stroke-linecap="round" stroke-linejoin="round"/>
<path d="M255.432 42.6982C261.57 60.3058 262.878 78.2654 264.89 96.7282" stroke="#163050" stroke-width="2.01229" stroke-linecap="round" stroke-linejoin="round"/>
<path d="M279.932 113.934C279.328 95.4206 278.976 77.0585 277.568 58.5957" stroke="#163050" stroke-width="2.01229" stroke-linecap="round" stroke-linejoin="round"/>
<path d="M84.5027 87.9092C83.8487 104.36 80.9812 120.357 81.3334 136.908" stroke="#163050" stroke-width="2.01229" stroke-linecap="round" stroke-linejoin="round"/>
<path d="M270.036 243.56C277.129 236.467 284.323 238.027 293.932 239.838" stroke="#14AEE3" stroke-width="2.01229" stroke-linecap="round" stroke-linejoin="round"/>
<path d="M316.369 228.922C336.944 217.552 328.845 231.135 349.521 227.764" stroke="#14AEE3" stroke-width="2.01229" stroke-linecap="round" stroke-linejoin="round"/>
<path d="M414.971 245.371C408.682 244.868 403.149 239.385 397.011 239.385C387.956 239.385 384.887 248.893 374.071 244.667" stroke="#14AEE3" stroke-width="2.01229" stroke-linecap="round" stroke-linejoin="round"/>
</g>
<defs>
<clipPath id="clip0">
<rect y="0.217773" width="492" height="250" rx="15" fill="white"/>
</clipPath>
</defs>
</svg>
