<svg width="493" height="250" viewBox="0 0 493 250" fill="none" xmlns="http://www.w3.org/2000/svg">
<path d="M59.7591 95.7683C63.4783 86.4178 72.5251 80.335 82.5771 80.335H412.685C422.988 80.335 432.185 86.7697 435.754 96.4218L471.941 194.401C476.113 205.662 467.77 217.576 455.808 217.576H36.3882C24.2253 217.576 15.8822 205.26 20.4056 193.948L59.7591 95.7683Z" fill="#ADE1FB"/>
<path d="M456.662 217.123H36.5892C37.3431 200.483 36.5892 185.05 51.0138 172.985C65.4384 160.92 62.6741 147.949 64.1819 138.297C67.3986 117.787 81.9237 111.653 99.766 113.363C162.893 119.596 148.317 96.9239 206.418 110.246C225.717 114.67 241.65 116.379 259.04 110.246C276.43 104.113 297.891 98.4823 320.608 110.246C361.52 131.46 371.27 105.872 396.25 109.743C410.473 111.955 416.957 123.97 419.068 138.247C423.239 166.6 461.99 175.75 456.662 217.123Z" fill="#1EB8E7"/>
<path d="M63.4281 185.501C70.2132 189.422 65.1872 196.008 55.8891 196.008C47.5459 196.008 42.2687 190.528 47.0936 186.406" stroke="#008FDA" stroke-width="2.64905" stroke-linecap="round" stroke-linejoin="round"/>
<path d="M71.0677 194.349C73.2791 190.629 72.0729 185.703 65.9411 182.586M44.7314 198.22C50.8129 201.89 60.2618 202.041 66.5443 198.522L44.7314 198.22Z" stroke="#008FDA" stroke-width="2.64905" stroke-linecap="round" stroke-linejoin="round"/>
<path d="M73.4299 153.229C77.501 156.697 74.033 161.021 68.0018 162.127" stroke="#008FDA" stroke-width="2.52249" stroke-linecap="round" stroke-linejoin="round"/>
<path fill-rule="evenodd" clip-rule="evenodd" d="M39.6049 108.386V112.659C39.6049 118.591 30.6586 118.591 30.6586 112.659V108.386C30.6586 97.2256 39.7054 88.1768 50.8129 88.1768C61.9706 88.1768 70.9671 97.2256 70.9671 108.386V154.485C70.9671 160.417 62.0208 160.417 62.0208 154.485V108.386C61.9706 93.5558 39.6049 93.5055 39.6049 108.386Z" fill="#DAEBED"/>
<path opacity="0.1" fill-rule="evenodd" clip-rule="evenodd" d="M62.1214 117.937V109.643C62.1214 100.091 52.5217 93.8072 44.8319 98.8343C39.0018 102.504 39.4541 108.185 39.3536 112.558L35.4836 112.709V109.19C35.4836 100.041 42.3692 92.7012 50.8129 92.7012C59.3068 92.7012 66.1422 100.091 66.1422 109.24V113.463C63.9307 113.463 62.7747 115.223 62.1214 117.937ZM62.1214 135.281C62.1214 135.281 61.2167 149.96 62.7747 146.894C64.3328 143.827 64.9359 145.134 64.9359 145.134V137.091C68.9065 124.422 68.3536 127.64 68.5044 116.781L62.1214 135.281ZM66.0919 159.16C68.3536 159.16 68.3033 155.44 68.3033 155.44V148.201C68.3033 148.201 63.8302 159.16 66.0919 159.16Z" fill="#163050"/>
<path d="M39.6049 108.386V112.659C39.6049 118.591 30.6586 118.591 30.6586 112.659V108.386C30.6586 97.2256 39.7054 88.1768 50.8129 88.1768C61.9706 88.1768 70.9671 97.2256 70.9671 108.386V154.485C70.9671 160.417 62.0208 160.417 62.0208 154.485V108.386C61.9706 93.5558 39.6049 93.5055 39.6049 108.386Z" stroke="#163050" stroke-width="2.32868" stroke-linecap="round" stroke-linejoin="round"/>
<path fill-rule="evenodd" clip-rule="evenodd" d="M68.5044 150.011L57.2964 183.089C55.7384 187.865 49.5564 184.899 51.0642 180.174L62.2722 147.095C63.8302 142.319 70.0122 145.285 68.5044 150.011Z" fill="#DAEBED"/>
<path fill-rule="evenodd" clip-rule="evenodd" d="M68.3033 118.741L57.0953 151.82C55.5373 156.596 49.3553 153.63 50.8631 148.904L62.0711 115.825C63.6794 111.05 69.8614 114.016 68.3033 118.741Z" fill="#DAEBED"/>
<path d="M68.2028 149.156L56.9949 182.235C55.4368 187.011 50.059 184.648 51.5668 179.973L62.7748 146.894C64.2323 142.973 69.5598 145.537 68.2028 149.156Z" stroke="#163050" stroke-width="2.32868" stroke-linecap="round" stroke-linejoin="round"/>
<path d="M68.1526 118.289L56.9446 151.368C55.3866 156.144 49.6569 153.932 51.215 149.206L62.423 116.127C63.981 111.352 69.7107 113.564 68.1526 118.289Z" stroke="#163050" stroke-width="2.32868" stroke-linecap="round" stroke-linejoin="round"/>
<path fill-rule="evenodd" clip-rule="evenodd" d="M60.8649 134.628V189.977C58.6534 192.692 52.7228 192.39 51.0139 189.977V134.628C51.0139 126.484 43.3241 121.055 36.2375 122.613C34.7297 122.915 32.9706 123.719 32.8198 123.87C20.9585 130.154 31.312 144.28 21.4611 144.28C15.7314 144.28 16.5356 137.996 16.5356 134.678C16.5356 122.462 26.4368 112.559 38.65 112.559C50.9637 112.509 60.8649 122.412 60.8649 134.628Z" fill="#DBEBED"/>
<path opacity="0.1" fill-rule="evenodd" clip-rule="evenodd" d="M55.3363 134.476V191.886C53.5269 191.786 51.8181 191.082 51.0642 189.976V134.929C51.0642 125.377 40.7106 119.093 32.4177 124.12C21.5113 130.555 30.9602 142.872 22.3155 144.179V134.476C22.3155 125.327 29.7037 117.987 38.851 117.987C47.9481 117.987 55.3363 125.377 55.3363 134.476Z" fill="#163050"/>
<path d="M60.8649 134.628V189.977C58.6534 192.692 52.7228 192.39 51.0139 189.977V134.628C51.0139 126.484 43.3241 121.055 36.2375 122.613C34.7297 122.915 32.9706 123.719 32.8198 123.87C20.9585 130.154 31.312 144.28 21.4611 144.28C15.7314 144.28 16.5356 137.996 16.5356 134.678C16.5356 122.462 26.4368 112.559 38.65 112.559C50.9637 112.509 60.8649 122.412 60.8649 134.628Z" stroke="#163050" stroke-width="2.32868" stroke-linecap="round" stroke-linejoin="round"/>
<path d="M114.392 130.205C122.283 128.194 122.433 121.709 135.35 124.826" stroke="#008FDA" stroke-width="2.32868" stroke-linecap="round" stroke-linejoin="round"/>
<path d="M259.945 143.224C264.568 137.242 283.919 137.594 278.49 131.059" stroke="#008FDA" stroke-width="2.32868" stroke-linecap="round" stroke-linejoin="round"/>
<path d="M198.979 165.243C209.735 164.137 218.128 164.891 227.074 172.482" stroke="#008FDA" stroke-width="2.32868" stroke-linecap="round" stroke-linejoin="round"/>
<path d="M183.65 130.555C179.83 115.674 182.846 95.3648 190.988 83.3499C199.834 70.2793 211.343 71.8377 216.721 86.8689C221.043 98.9843 220.088 116.177 214.912 129.197C201.442 135.733 191.44 135.331 183.65 130.555Z" fill="#A8E5EF"/>
<path d="M209.886 105.52C206.217 113.061 207.071 112.609 204.357 111C205.061 115.424 205.111 115.323 204.96 115.675C202.146 121.456 202.246 121.507 201.693 121.607C201.291 121.708 200.839 121.406 200.789 121.004L199.08 110.045L195.763 108.486C197.069 110.899 197.27 111.05 197.019 111.553L195.411 115.172L200.386 124.322C200.638 124.774 200.638 124.623 198.225 129.5C198.074 129.801 197.773 129.952 197.522 129.952C196.868 130.003 197.12 130.103 192.395 121.808C191.39 124.02 191.34 124.573 190.686 124.573C190.033 124.623 190.133 124.473 187.771 120.401C187.47 119.898 187.068 121.205 195.964 100.393C196.215 99.8397 196.768 99.6888 197.22 99.9402L198.527 100.745L197.773 96.6726C197.672 96.2201 197.723 96.4212 200.587 89.5843C200.99 88.6794 202.146 88.7799 202.246 89.7351L203.854 101.599L209.483 104.364C209.936 104.565 210.087 105.068 209.886 105.52Z" fill="#C6F2F9"/>
<path opacity="0.1" d="M182.243 121.205C185.61 125.126 188.927 127.539 195.863 127.539C208.177 127.539 215.213 122.261 216.822 121.507L214.962 129.198C207.172 134.728 190.636 136.689 183.7 130.556C182.594 125.629 182.243 121.205 182.243 121.205Z" fill="#008FDA"/>
<path d="M438.367 169.365L442.036 100.744L415.248 84.4561L387.756 146.34L438.367 169.365Z" fill="#8BD8FF"/>
<path opacity="0.5" d="M283.667 187.06L309.702 196.612C313.17 197.868 313.471 200.684 310.154 201.186L292.262 203.951C287.236 204.705 281.104 202.192 279.847 198.824L276.48 189.523C275.575 187.01 279.697 185.602 283.667 187.06Z" fill="#008FDA"/>
<path d="M315.633 182.436L331.716 187.563C334.229 188.368 334.43 190.58 331.967 191.133L319.05 194.048C315.582 194.853 311.964 193.043 311.712 190.58L311.16 184.447C311.009 182.838 313.522 181.732 315.633 182.436Z" fill="#0DA3E0"/>
<path d="M279.847 172.23L304.776 181.782C308.094 183.039 308.395 187.664 305.229 189.323L288.09 198.321C283.265 200.835 277.385 198.12 276.229 192.791L273.012 178.112C272.158 174.141 276.028 170.772 279.847 172.23Z" fill="white"/>
<path d="M297.338 150.463L314.979 159.663C317.341 160.869 317.14 164.338 314.678 165.293L301.208 170.521C297.439 171.979 293.317 169.465 292.865 165.444L291.709 154.283C291.407 151.217 294.624 149.055 297.338 150.463Z" fill="white"/>
<path d="M279.847 172.23L304.776 181.782C308.094 183.039 308.395 187.664 305.229 189.323L288.09 198.321C283.265 200.835 277.385 198.12 276.229 192.791L273.012 178.112C272.158 174.141 276.028 170.772 279.847 172.23Z" stroke="#163050" stroke-width="2.32868" stroke-linecap="round" stroke-linejoin="round"/>
<path d="M217.274 128.796C227.678 126.987 230.643 130.958 240.042 130.958C249.44 130.958 244.665 118.742 225.516 115.273C219.787 121.055 217.274 128.796 217.274 128.796Z" fill="#0DA3E0"/>
<path d="M297.338 150.463L314.979 159.663C317.341 160.869 317.14 164.338 314.678 165.293L301.208 170.521C297.439 171.979 293.317 169.465 292.865 165.444L291.709 154.283C291.407 151.217 294.624 149.055 297.338 150.463Z" stroke="#163050" stroke-width="2.32868" stroke-linecap="round" stroke-linejoin="round"/>
<path d="M149.021 178.213C105.647 166.65 66.8458 179.419 92.78 199.277C114.492 215.967 149.021 178.213 149.021 178.213Z" fill="#0DA3E0"/>
<path d="M205.563 74.3018C205.563 74.3018 209.484 75.0558 214.208 76.1618C218.932 77.2678 231.698 93.7568 222.099 128.042C218.329 128.394 214.912 129.198 214.912 129.198C221.445 112.558 223.607 81.3398 205.563 74.3018Z" fill="#82D5EA"/>
<path d="M130.374 201.891C146.206 198.824 153.293 198.02 162.239 201.639C165.104 195.958 165.406 180.073 162.189 169.415C154.65 144.581 133.39 135.482 119.116 142.067C94.0365 153.68 96.1976 187.563 104.792 203.7C104.742 203.6 104.692 203.549 104.692 203.449C104.641 203.499 112.18 205.41 130.374 201.891Z" fill="#A8E5EF"/>
<path opacity="0.7" d="M127.962 202.846L131.681 200.131C132.083 199.829 132.184 199.327 131.983 198.874L124.343 181.882L128.364 178.967C128.615 178.866 128.867 178.414 128.716 177.861C128.716 177.81 128.867 178.162 126.756 173.537L134.345 179.67L135.099 195.757C135.149 196.562 136.004 197.014 136.607 196.562L143.291 191.685C143.894 191.233 143.744 191.333 143.09 184.446L147.061 187.965C147.463 188.317 148.066 188.267 148.418 187.865C155.705 182.536 155.002 183.089 155.052 182.988C155.354 182.536 155.253 181.933 154.851 181.581L143.995 172.984C143.09 157.4 143.341 158.004 142.638 157.652C142.336 157.501 141.984 157.551 141.683 157.702L135.3 162.277C134.697 162.679 134.898 162.679 135.501 168.661L132.083 165.544C131.782 165.243 131.279 165.243 130.927 165.494L109.215 181.179C108.863 181.43 108.712 181.933 108.913 182.385L111.979 189.524C112.08 189.775 112.331 189.976 112.582 190.077C113.186 190.278 113.135 190.077 117.156 187.211L124.092 203.097" fill="white"/>
<path opacity="0.1" d="M102.983 198.874C130.525 198.874 131.782 189.825 155.957 189.825C158.822 189.825 161.636 190.026 164.4 190.378C164.4 190.378 163.697 197.366 162.239 201.639C150.83 198.623 146.96 199.427 132.134 201.941C119.116 204.153 108.964 205.208 104.139 203.147C102.882 200.332 102.983 198.874 102.983 198.874Z" fill="#008FDA"/>
<path d="M93.9862 199.226C86.0954 179.017 93.7349 160.568 98.6101 153.982C104.893 145.486 113.085 143.526 123.439 140.761C111.678 145.738 107.707 149.759 103.385 158.657C99.0624 167.555 97.7557 178.816 99.6656 188.72C101.626 198.623 105.094 204.354 105.094 204.354C99.0122 203.851 95.2929 201.79 93.9862 199.226Z" fill="#82D5EA"/>
<path d="M438.367 169.365C428.517 167.404 420.073 172.783 402.884 180.626C384.539 189.021 375.744 179.419 360.565 179.821C291.86 181.631 363.179 132.868 363.38 132.717C376.146 123.517 390.721 119.194 405.799 118.188C408.262 118.591 410.574 119.244 412.685 120.25C415.7 124.724 417.912 130.706 419.017 138.297C420.927 150.965 429.723 159.813 438.367 169.365Z" fill="#0DA3E0"/>
<path opacity="0.3" d="M214.912 129.198C218.179 120.954 219.133 111.754 219.133 111.754L226.069 110.899C226.069 110.899 224.813 119.797 222.099 127.992C217.726 128.444 214.912 129.198 214.912 129.198Z" fill="#0DA3E0"/>
<path d="M204.96 74.5527L211.393 75.3068C225.114 76.9155 229.99 105.771 222.099 128.042" stroke="#163050" stroke-width="2.32868" stroke-linecap="round" stroke-linejoin="round"/>
<path d="M183.901 131.409C183.801 131.108 183.75 130.856 183.65 130.555M183.65 130.555C179.83 115.674 182.846 95.3648 190.988 83.3499C199.834 70.2793 211.343 71.8377 216.721 86.8689C221.043 98.9843 220.088 116.177 214.912 129.197L183.65 130.555Z" stroke="#163050" stroke-width="2.32868" stroke-linecap="round" stroke-linejoin="round"/>
<path d="M404.743 213.352C418.464 196.813 422.234 164.388 406.352 155.439C390.47 146.491 366.998 157.45 355.338 184.748C365.088 192.741 368.104 184.496 378.407 194.651C385.494 201.639 395.345 213.101 404.743 213.352Z" fill="#A8E5EF"/>
<path opacity="0.7" d="M369.21 188.819L371.22 184.144L367.149 182.988C366.546 182.837 366.244 182.184 366.496 181.631L369.913 173.788C370.114 173.336 370.617 173.084 371.12 173.235L395.496 180.022C395.948 180.173 396.25 180.575 396.25 181.078L395.848 185.904L399.466 181.731C400.019 181.078 399.919 181.279 407.709 183.44C408.413 183.641 408.714 184.546 408.161 185.099L397.406 196.461L397.054 210.135C392.43 208.677 390.068 204.856 390.068 204.856L390.319 201.287C390.369 200.332 389.213 199.829 388.56 200.533L386.7 202.594C386.7 202.594 383.333 199.929 382.227 197.919L386.751 193.143L387.002 182.938C385.142 187.211 385.192 187.663 384.288 187.663C384.087 187.663 384.439 187.713 379.664 186.406L376.9 192.741" fill="white"/>
<path opacity="0.1" d="M356.343 182.285C360.716 182.738 364.385 184.799 368.657 185.653C401.678 192.691 381.172 202.746 409.619 207.572C411.981 207.974 414.142 209.381 416.404 210.136L415.6 213.604C415.6 213.604 404.341 217.224 393.837 208.527C383.333 199.83 376.95 191.083 371.773 189.876C366.546 188.619 358.203 188.469 355.438 184.748C355.891 183.894 356.343 182.285 356.343 182.285Z" fill="#008FDA"/>
<path d="M416.806 213.403C429.874 209.733 444.6 191.937 423.139 181.48C416.655 208.878 416.806 213.403 416.806 213.403Z" fill="#0DA3E0"/>
<path d="M408.362 156.797C420.827 169.264 419.118 194.802 404.744 213.352C409.217 215.062 415.6 213.604 415.6 213.604C435.251 177.76 416.102 160.718 413.64 159.562L408.362 156.797Z" fill="#82D5EA"/>
<path opacity="0.3" d="M423.641 192.239C421.38 203.6 415.549 213.554 415.549 213.554C408.764 215.766 404.693 213.303 404.693 213.303C410.523 204.606 413.589 196.914 415.198 189.977L423.641 192.239Z" fill="#0DA3E0"/>
<path opacity="0.3" d="M90.669 184.145L99.1127 183.189C99.4142 193.344 104.692 203.499 104.692 203.499C99.6655 203.348 94.0364 199.226 94.0364 199.226C91.7747 194.45 90.669 184.145 90.669 184.145Z" fill="#0DA3E0"/>
<path d="M419.168 211.744C422.234 209.381 423.29 205.661 421.279 201.539" stroke="#163050" stroke-width="2.32868" stroke-linecap="round" stroke-linejoin="round"/>
<path d="M104.641 203.499C94.1369 182.838 98.2582 155.792 114.693 144.682C130.173 134.225 150.328 142.62 159.676 163.433C165.205 175.699 165.707 189.574 162.038 201.036" stroke="#163050" stroke-width="2.32868" stroke-linecap="round" stroke-linejoin="round"/>
<path d="M94.3882 199.778C86.5979 179.469 91.4228 150.613 111.879 144.279L121.126 141.413" stroke="#163050" stroke-width="2.32868" stroke-linecap="round" stroke-linejoin="round"/>
<path d="M355.74 183.491C365.541 162.277 385.444 148.653 400.773 152.926C420.575 158.456 421.681 189.273 405.146 212.649" stroke="#163050" stroke-width="2.32868" stroke-linecap="round" stroke-linejoin="round"/>
<path d="M405.347 212.296C419.771 191.685 421.179 163.834 405.196 154.735L412.986 159.21C428.718 168.158 427.009 194.098 415.549 213.101" stroke="#163050" stroke-width="2.32868" stroke-linecap="round" stroke-linejoin="round"/>
<path d="M223.858 122.813C234.463 125.126 231.347 129.851 226.522 128.494C213.806 126.383 209.835 134.024 197.321 134.024C190.485 134.024 183.248 131.762 177.619 128.343" stroke="#163050" stroke-width="2.32868" stroke-linecap="round" stroke-linejoin="round"/>
<path d="M173.598 205.811C165.355 202.091 161.033 199.326 147.714 199.527C138.667 199.678 99.565 211.794 91.1213 196.059C89.9151 193.796 90.87 191.082 91.7245 190.479" stroke="#163050" stroke-width="2.32868" stroke-linecap="round" stroke-linejoin="round"/>
<path d="M347.146 186.356C349.156 185.25 351.217 184.496 353.327 184.496C358.404 184.496 357.65 188.769 367.048 188.769C376.145 188.769 384.137 201.538 395.094 209.029C404.944 215.765 414.494 215.413 419.218 211.743" stroke="#163050" stroke-width="2.32868" stroke-linecap="round" stroke-linejoin="round"/>
<path d="M326.991 86.6683C320.86 90.4387 314.024 93.5052 312.416 104.766C310.808 115.977 313.421 135.231 320.156 141.967C335.787 157.601 360.515 163.031 380.82 148.552C389.012 142.671 464.402 92.6003 464.402 92.6003C464.402 92.6003 455.657 83.3504 469.478 73.3464C483.25 63.3424 473.901 28.655 445.253 47.356C416.605 66.0067 418.766 33.1795 383.986 53.4892L326.991 86.6683Z" fill="#FFC858"/>
<path d="M355.74 150.916C353.227 152.273 352.423 156.144 348.101 156.144C340.712 156.144 337.998 155.691 337.697 150.614C337.345 144.933 335.083 136.99 322.619 135.683C305.631 133.924 311.662 127.791 321.965 128.042C325.986 116.178 313.421 102.906 333.374 102.906C346.794 102.906 381.473 120.702 381.473 135.382C381.473 141.213 374.939 146.391 368.456 149.055C363.48 151.066 359.108 149.106 355.74 150.916Z" fill="#FFA965"/>
<path d="M333.324 64.6998C327.092 72.7935 310.858 116.63 339.154 139.906C344.683 143.978 359.912 147.095 372.024 128.645C376.095 122.411 384.338 102.403 380.619 84.8084C377.151 68.3194 371.471 55.4499 360.716 52.4336C349.96 49.367 341.064 54.6958 333.324 64.6998Z" fill="#4FD7ED"/>
<path d="M361.319 52.4833L360.716 52.3828C360.766 52.3828 360.967 52.3828 361.319 52.4833Z" fill="#00BBEA"/>
<path d="M389.816 104.665C387.555 122.059 379.262 135.331 369.26 140.861C363.48 144.078 356.192 143.324 353.629 142.922C372.024 134.778 379.614 120.752 381.222 100.241C382.026 84.456 379.161 69.7265 371.522 60.4765C366.244 54.092 362.676 52.6844 361.319 52.3828L368.607 53.3882C375.341 55.2483 388.459 64.0458 390.218 88.8296C390.62 94.4098 390.47 99.6883 389.816 104.665Z" fill="#00BBEA"/>
<path d="M389.816 104.665C387.555 122.059 379.262 135.331 369.26 140.86C363.48 144.078 356.192 143.324 353.629 142.922C354.735 142.419 355.891 141.866 357.097 141.263C359.309 140.509 361.168 139.352 362.726 137.894C370.768 132.264 378.307 122.863 380.719 105.017C382.328 103.961 384.187 103.308 386.499 103.308C387.806 103.358 388.861 103.861 389.816 104.665Z" fill="#0DA3E0"/>
<path d="M447.716 103.358L435.101 111.955L447.716 103.358Z" fill="#FFDA7F"/>
<path d="M332.721 66.2078C342.069 78.5746 364.988 86.8191 381.473 89.0813L380.669 84.8082C380.669 84.8082 347.347 75.4577 334.128 64.5488C333.324 65.6548 332.721 66.2078 332.721 66.2078Z" fill="#00BBEA"/>
<path d="M435.101 111.954C376.447 151.92 375.342 153.077 367.903 154.635C372.376 150.814 373.231 147.798 375.191 139.001C377.151 130.203 379.011 125.628 386.6 120.199C394.189 114.77 471.439 64.1463 476.264 60.4262C481.089 56.7061 487.522 63.543 480.837 69.2237C474.102 74.9044 482.948 79.8813 472.595 87.0198L435.101 111.954Z" fill="#FFDA7F"/>
<path d="M409.368 76.9153C407.86 80.1326 404.392 82.8473 404.392 82.8473C409.418 92.9016 399.667 100.442 390.42 100.291C391.073 92.6 390.118 85.1095 389.364 82.5959C383.685 88.7291 363.48 82.1435 353.981 77.6191C344.532 73.0444 331.465 66.0566 332.872 62.7387C334.279 59.4208 343.728 50.2211 346.543 52.1314C345.387 54.1423 347.246 55.4493 350.212 56.4045C353.177 57.3597 365.943 62.789 370.014 63.2414C374.035 63.6939 379.011 63.8447 380.317 59.4711C382.076 59.823 384.539 63.6939 384.539 63.6939C389.716 61.13 392.078 62.9398 393.184 64.2971C399.919 63.0906 414.092 66.5091 409.368 76.9153Z" fill="#BFB5F2"/>
<path d="M328.499 73.4472C327.343 78.1224 326.288 81.1387 326.288 81.1387C325.383 80.1835 323.724 78.1727 323.775 78.1224C320.005 73.0953 317.894 67.4146 316.99 62.8901C311.562 63.242 308.998 60.0247 305.832 55.3997C304.324 53.5899 303.369 51.0261 305.128 49.5179C305.329 49.3168 303.319 47.6076 304.274 45.5968C304.927 44.1892 306.787 43.4854 308.345 43.4854C307.591 39.6145 312.215 39.2626 313.572 41.6253C314.929 43.9378 317.643 50.272 317.643 50.272C319.704 47.7082 320.156 47.1552 321.664 46.6525C323.172 46.1497 326.941 48.412 324.679 52.5342C322.418 56.6565 319.603 58.7679 319.603 58.7679C321.413 64.9513 325.333 71.2855 328.499 73.4472Z" fill="white"/>
<path d="M358.002 75.4071C357.499 75.1558 357.449 74.8542 357.348 73.899C356.393 74.9044 356.142 74.5525 354.735 73.899C351.669 72.3909 351.77 72.6925 355.941 68.52C356.595 67.8664 354.182 62.789 356.444 62.789C356.645 62.789 356.695 62.789 357.901 63.2917C359.912 64.1463 360.012 63.9955 360.163 65.1518C361.017 64.1966 361.319 64.6993 364.284 65.9058C366.797 66.9113 361.419 69.9276 361.52 70.7319C362.676 78.3732 362.676 77.6191 358.002 75.4071ZM349.458 71.2849C349.206 71.2849 349.307 71.2849 346.894 70.1286C345.889 69.6259 346.241 69.274 348.05 63.9955C346.442 63.342 346.342 63.1409 346.995 61.2809C347.95 58.717 347.598 59.0689 351.82 60.7279C355.74 62.2863 355.238 62.0852 354.634 64.0961C354.031 65.9561 353.881 66.5091 352.172 65.7048C351.619 65.5539 350.915 71.2849 349.458 71.2849C349.407 70.5811 349.458 70.6314 349.458 71.2849Z" fill="white"/>
<path d="M353.78 138.7C352.725 145.436 350.714 150.011 347.548 154.535C345.236 157.752 341.517 161.372 338.4 159.009C335.234 156.697 337.244 151.82 338.199 149.357C339.858 145.034 338.149 130.556 345.437 128.997C349.558 128.092 355.187 129.399 353.78 138.7Z" fill="white"/>
<path d="M314.024 133.622C312.215 133.974 309.25 135.331 306.787 126.785C304.525 118.893 303.068 115.625 303.068 115.625C300.253 106.727 310.456 103.962 313.22 111.603C314.979 116.48 316.638 119.295 316.839 125.277C316.889 128.193 316.839 133.119 314.024 133.622Z" fill="white"/>
<path d="M431.683 106.274C431.331 107.933 429.874 109.592 425.099 110.497C424.496 110.497 425.601 110.648 426.305 111.754C426.959 112.055 427.411 115.675 421.933 116.027C416.806 116.328 411.931 115.977 409.87 115.273C407.809 114.569 406.452 113.312 406.804 112.256C402.934 113.362 394.239 114.82 386.7 113.161C384.288 112.91 383.232 109.944 383.685 107.531C385.042 100.593 393.787 107.38 405.699 105.168C407.307 104.867 408.965 104.615 408.965 104.615C408.965 104.615 410.725 100.593 411.277 96.5718C411.83 92.4998 416.153 90.9414 417.309 95.6669C417.711 97.2253 418.264 100.392 417.309 101.649C421.882 99.2362 422.134 99.3367 423.943 98.2307C427.059 96.3707 430.577 99.7389 426.707 103.409C428.165 103.107 430.075 103.057 431.18 104.112C431.733 104.615 431.884 105.47 431.683 106.274Z" fill="white"/>
<path d="M332.068 133.019C328.198 133.874 323.021 134.226 313.12 130.656C308.898 129.148 310.707 123.267 314.929 124.724C314.929 124.724 319.955 127.64 328.399 127.188L332.068 133.019Z" fill="white"/>
<path d="M316.035 131.761C315.532 132.918 314.828 133.471 313.974 133.622C312.165 133.973 309.199 135.331 306.737 126.785C304.475 118.892 303.017 115.624 303.017 115.624C301.459 110.647 303.922 107.581 306.938 107.179C306.133 108.787 305.128 109.692 305.128 112.658C305.128 114.066 307.742 127.689 312.567 130.052L316.035 131.761Z" fill="#DAEBED"/>
<path d="M353.478 140.207C352.222 146.944 349.91 151.116 347.497 154.535C345.185 157.752 341.466 161.371 338.35 159.009C335.184 156.696 337.194 151.82 338.149 149.357C339.355 146.24 338.853 140.961 340.059 136.085C340.461 137.191 340.411 139.604 340.411 145.787C340.411 149.256 339.154 154.032 343.326 154.032C347.548 154.032 350.211 148.1 353.478 140.207Z" fill="#DAEBED"/>
<path d="M417.56 100.895C416.504 101.096 415.298 101.096 414.595 101.549C414.896 97.2757 416.705 94.8627 413.891 93.2037C413.891 93.0529 413.941 92.9021 413.991 92.7513C417.51 91.8464 418.163 98.9347 417.56 100.895Z" fill="#DAEBED"/>
<path opacity="0.6" d="M394.541 89.8352C394.541 93.1028 395.546 96.5213 394.893 99.7889C393.686 100.091 392.43 100.241 391.224 100.292C389.816 95.5159 389.364 83.501 389.364 82.7469C389.465 77.1165 393.536 81.1885 395.697 74.3516C396.601 74.3516 397.305 74.4521 398.461 75.357C398.411 84.1545 394.541 83.2496 394.541 89.8352Z" fill="#A382E5"/>
<path d="M315.532 51.4278C313.622 55.1479 309.601 47.4564 308.043 43.5352C308.144 43.5352 308.194 43.5352 308.295 43.5352C307.893 41.5746 309.601 40.4183 310.858 40.167C310.657 40.6697 310.054 41.0216 310.054 41.5746C310.104 45.8477 314.225 49.2159 315.532 51.4278Z" fill="#DAEBED"/>
<path d="M310.456 54.4951C307.993 52.8361 304.123 49.8199 304.123 46.6528C304.123 43.4354 306.536 44.4911 306.887 44.1895C304.374 45.8987 307.34 48.8647 310.456 54.4951Z" fill="#DAEBED"/>
<path d="M328.147 76.4638C327.846 77.3687 326.64 79.5304 326.187 80.385C321.714 77.5195 317.593 68.5209 316.537 63.343C315.331 63.5943 314.175 63.0413 313.069 62.4883C311.411 61.5835 309.451 60.1256 308.998 59.6731C307.943 58.5672 306.033 56.305 304.877 54.5957C303.47 52.8865 304.173 51.3281 304.525 50.0713C305.48 52.6351 306.636 53.8416 309.049 56.4055C312.818 60.3769 314.326 59.824 315.331 59.824C319.955 59.824 317.794 69.2247 328.147 76.4638Z" fill="#DAEBED"/>
<path opacity="0.6" d="M406.302 80.9874C405.498 73.3964 393.586 64.1465 393.536 64.1465C394.139 67.1125 395.546 68.5201 396.149 74.2008C396.149 74.2008 401.075 77.2673 404.744 83.0988C405.246 82.3448 405.799 81.641 406.302 80.9874Z" fill="#A382E5"/>
<path d="M421.932 116.027C416.806 116.329 411.931 115.977 409.87 115.273C407.809 114.569 406.452 113.312 406.804 112.257C402.934 113.363 394.239 114.821 386.7 113.162C384.288 112.91 383.232 109.944 383.685 107.531C388.208 109.14 391.575 110.447 396.3 110.447C399.517 110.447 406.101 109.592 409.016 108.135C408.714 111.503 412.082 113.312 420.274 113.312C422.385 113.312 424.496 112.91 425.953 111.452C427.511 112.81 426.556 115.726 421.932 116.027Z" fill="#DAEBED"/>
<path d="M431.683 106.274C431.331 107.933 429.874 109.592 425.099 110.497C423.943 110.497 425.853 109.995 416.002 109.793C421.128 107.783 429.974 108.889 431.08 104.062C431.733 104.615 431.884 105.47 431.683 106.274Z" fill="#DAEBED"/>
<path d="M426.657 103.359C428.064 103.057 424.395 104.264 417.359 105.47C420.726 101.549 427.009 103.007 426.556 98.6334C426.456 98.6334 426.556 98.181 426.757 97.8291C428.466 98.5329 429.22 100.845 426.657 103.359Z" fill="#DAEBED"/>
<path opacity="0.6" d="M388.409 71.5874C391.978 71.3863 394.189 70.6825 394.893 67.0127C396.601 69.5765 396.4 78.7259 391.525 78.7259C390.369 78.7259 390.218 77.3183 389.816 76.2626C389.213 74.7042 388.811 73.1458 388.409 71.5874Z" fill="#A382E5"/>
<path d="M381.172 84.7575C381.172 84.7575 386.097 85.3607 389.364 82.7969C390.269 85.0088 390.47 86.9694 390.47 86.9694L381.423 89.0306L381.172 84.7575Z" fill="#0DA3E0"/>
<path d="M310.958 127.187C313.773 128.343 320.307 131.309 330.912 130.153L332.972 133.169C328.7 134.979 316.336 133.018 311.662 129.801C310.757 128.996 310.355 127.589 310.958 127.187Z" fill="#DAEBED"/>
<path d="M385.193 63.4926C392.179 60.4261 395.445 65.5035 395.445 72.9939C395.445 76.6638 394.189 78.2725 390.721 78.6746" stroke="#163050" stroke-width="2.32868" stroke-linecap="round" stroke-linejoin="round"/>
<path d="M393.134 64.2974C393.184 64.2974 410.272 62.6887 410.272 73.3463C410.272 77.1669 407.86 80.1832 405.045 82.6968" stroke="#163050" stroke-width="2.32868" stroke-linecap="round" stroke-linejoin="round"/>
<path d="M395.847 73.4463C411.931 84.0536 406.603 99.688 390.369 100.291" stroke="#163050" stroke-width="2.32868" stroke-linecap="round" stroke-linejoin="round"/>
<path d="M316.688 61.6836C319.201 74.1509 325.886 80.5857 325.886 80.5857" stroke="#163050" stroke-width="2.32868" stroke-linecap="round" stroke-linejoin="round"/>
<path d="M316.939 62.8904C313.069 63.6948 310.556 62.2369 305.38 55.1486C303.57 52.635 303.621 50.6745 304.978 49.8701" stroke="#163050" stroke-width="2.32868" stroke-linecap="round" stroke-linejoin="round"/>
<path d="M309.903 54.8452C307.39 52.03 305.732 50.5219 304.525 48.0083C303.319 45.4947 304.978 43.4839 307.692 43.5341" stroke="#163050" stroke-width="2.32868" stroke-linecap="round" stroke-linejoin="round"/>
<path d="M312.768 51.629C311.16 49.4673 309.149 46.3505 308.496 43.9877C307.34 39.9157 311.964 38.4076 314.225 43.0325C317.09 48.9143 317.04 49.1657 317.643 50.3219" stroke="#163050" stroke-width="2.32868" stroke-linecap="round" stroke-linejoin="round"/>
<path d="M316.085 51.2271C316.085 51.2271 317.844 50.6741 320.156 47.8589C322.77 44.6415 326.841 48.1102 324.73 52.0314C322.619 55.9526 319.553 58.8181 319.553 58.8181C322.971 69.2745 328.499 73.4471 328.499 73.4471" stroke="#163050" stroke-width="2.32868" stroke-linecap="round" stroke-linejoin="round"/>
<path d="M380.016 60.9296C373.281 53.0873 366.797 53.0873 357.499 51.6797" stroke="#163050" stroke-width="2.32868" stroke-linecap="round" stroke-linejoin="round"/>
<path d="M373.633 63.2418C367.099 53.1875 356.796 48.462 346.191 53.5394" stroke="#163050" stroke-width="2.32868" stroke-linecap="round" stroke-linejoin="round"/>
<path d="M353.227 142.922C364.938 140.811 375.794 127.64 379.865 108.637C381.524 100.946 381.875 93.2039 381.121 85.9648" stroke="#163050" stroke-width="2.32868" stroke-linecap="round" stroke-linejoin="round"/>
<path d="M333.073 65.6543C317.593 89.1311 320.91 127.84 339.154 139.855" stroke="#163050" stroke-width="2.32868" stroke-linecap="round" stroke-linejoin="round"/>
<path d="M389.816 104.716C390.872 97.3261 390.771 90.087 389.666 83.4512" stroke="#163050" stroke-width="2.32868" stroke-linecap="round" stroke-linejoin="round"/>
<path d="M385.293 121.205C386.298 118.842 387.153 116.379 387.907 113.765" stroke="#163050" stroke-width="2.32868" stroke-linecap="round" stroke-linejoin="round"/>
<path d="M408.915 104.565C405.397 105.52 398.109 106.324 387.806 104.313C382.679 103.308 381.674 112.005 386.7 113.111C391.676 114.217 398.964 113.915 406 112.306" stroke="#163050" stroke-width="2.32868" stroke-linecap="round" stroke-linejoin="round"/>
<path d="M408.714 105.771C409.669 101.85 410.423 100.392 411.227 95.8173C411.981 91.494 417.057 90.9913 417.409 96.4709C417.66 99.5877 417.66 100.895 417.66 100.895" stroke="#163050" stroke-width="2.32868" stroke-linecap="round" stroke-linejoin="round"/>
<path d="M414.997 102.001C414.997 102.001 419.922 100.191 423.893 98.1799C428.416 95.8674 430.828 102.001 425.903 103.358" stroke="#163050" stroke-width="2.32868" stroke-linecap="round" stroke-linejoin="round"/>
<path d="M424.948 110.497C425.702 110.295 426.456 110.044 427.461 109.793C434.397 107.832 431.834 101.749 427.16 103.056C424.697 103.76 422.636 104.414 417.459 105.721" stroke="#163050" stroke-width="2.32868" stroke-linecap="round" stroke-linejoin="round"/>
<path d="M353.076 143.325C362.224 143.526 367.953 143.928 375.744 136.035" stroke="#163050" stroke-width="2.32868" stroke-linecap="round" stroke-linejoin="round"/>
<path d="M407.206 110.999C405.849 113.111 407.206 114.971 410.725 115.473C415.901 116.227 418.867 115.926 422.636 115.876C427.562 115.825 427.511 110.145 422.988 110.295C420.726 110.346 417.861 110.295 416.153 110.245" stroke="#163050" stroke-width="2.32868" stroke-linecap="round" stroke-linejoin="round"/>
<path d="M331.967 133.22C327.595 133.723 321.01 133.472 313.17 130.656C308.948 129.148 310.757 123.267 314.979 124.724C314.979 124.724 320.809 127.892 328.7 127.238" stroke="#163050" stroke-width="2.05774" stroke-linecap="round" stroke-linejoin="round"/>
<path d="M316.185 131.812C315.281 134.376 309.451 136.488 307.189 128.344C306.485 125.83 305.53 122.462 303.771 118.038C299.851 108.084 306.335 107.431 307.39 107.431C313.321 107.431 315.633 115.977 316.789 125.227" stroke="#163050" stroke-width="2.05774" stroke-linecap="round" stroke-linejoin="round"/>
<path d="M336.541 154.133C335.536 158.356 340.109 162.177 345.035 157.652C350.111 152.977 354.082 141.867 354.182 135.835C354.333 128.043 345.487 125.881 341.517 132.265C339.707 135.181 339.406 138.449 339.154 142.37C338.903 147.146 337.445 150.564 336.541 154.133Z" stroke="#163050" stroke-width="2.32868" stroke-linecap="round" stroke-linejoin="round"/>
<path d="M346.14 53.0871C344.281 54.8466 359.66 60.3765 369.109 63.0408C373.482 64.2474 382.277 63.0408 379.463 59.5218C382.227 58.5164 388.409 67.8166 390.42 78.8261C392.782 91.7961 354.132 82.9986 333.827 65.4036C332.671 64.3982 332.52 62.7392 333.425 61.5327C340.913 51.5789 346.744 50.7746 349.005 51.9308" stroke="#163050" stroke-width="2.32868" stroke-linecap="round" stroke-linejoin="round"/>
<path d="M346.913 89.3927C347.269 86.0241 345.432 83.0684 342.809 82.7909C340.187 82.5135 337.772 85.0193 337.416 88.3879C337.06 91.7565 338.897 94.7122 341.519 94.9897C344.142 95.2672 346.556 92.7613 346.913 89.3927Z" fill="#163050"/>
<path d="M360.968 96.6847C361.324 93.3161 359.487 90.3604 356.865 90.0829C354.242 89.8055 351.827 92.3113 351.471 95.6799C351.115 99.0485 352.952 102.004 355.574 102.282C358.197 102.559 360.612 100.053 360.968 96.6847Z" fill="#163050"/>
<path d="M343.778 85.0588C341.717 83.9529 340.411 88.3767 342.471 89.4827C344.482 90.5384 345.788 86.1145 343.778 85.0588Z" fill="white"/>
<path d="M358.253 92.3489C356.192 91.2429 354.886 95.6668 356.946 96.7728C359.007 97.8285 360.314 93.4046 358.253 92.3489Z" fill="white"/>
<path d="M364.787 64.8006C356.393 61.3821 356.645 61.3319 355.79 61.5329C355.338 60.8794 355.338 61.0302 349.005 58.4161C347.95 57.9637 346.693 58.5166 346.341 59.6226L345.537 61.9854C345.185 62.9908 345.688 64.0465 346.643 64.499C346.744 64.5492 346.894 64.0465 345.286 68.772C344.984 69.7272 345.387 70.7829 346.291 71.2353C348.704 72.3916 348.804 72.5424 349.407 72.5424C350.312 72.5424 351.066 71.9391 351.317 71.1851L352.674 67.1131C353.378 67.3644 354.081 67.2136 354.634 66.7612C354.835 68.3196 355.137 67.6158 351.87 70.8834C350.865 71.8386 351.166 73.4975 352.423 74.1008C352.423 74.1008 360.666 78.1728 361.269 78.1728C362.475 78.1728 363.43 77.1171 363.279 75.8603L362.626 71.3359C362.525 70.7829 362.676 70.7829 365.44 68.0682C366.496 67.1131 366.144 65.3536 364.787 64.8006ZM354.484 62.9405C353.478 66.1579 353.78 66.0071 352.021 65.2028C351.87 65.1525 351.669 65.2028 351.619 65.3536C349.86 70.6823 349.96 70.7829 349.458 70.7829C349.307 70.7829 349.407 70.8332 347.095 69.6769C346.593 69.4256 346.794 69.2245 348.553 63.9962C348.603 63.8454 348.553 63.6946 348.402 63.6443C346.593 62.8903 346.894 63.2924 347.849 60.3264C347.95 60.0751 348.201 59.9242 348.503 60.0248C354.333 62.4378 354.634 62.3373 354.484 62.9405ZM364.284 67.1633C361.118 70.2802 360.967 70.2802 361.068 70.8332L361.771 75.8603C361.822 76.1619 361.57 76.4133 361.269 76.4133C361.118 76.4133 361.369 76.4636 358.153 74.9554C357.851 74.8046 357.851 74.6035 357.75 73.0954C357.75 72.9446 357.549 72.8943 357.449 72.9948C356.142 74.4527 356.846 74.3522 353.378 72.6429C353.076 72.4921 353.026 72.0899 353.227 71.8889C356.444 68.6715 356.595 68.7218 356.494 68.1688L355.941 63.8454C355.891 63.5438 356.142 63.2924 356.444 63.2924C356.544 63.2924 356.343 63.2422 359.309 64.4487C359.61 64.5995 359.61 64.8006 359.711 66.0071C359.711 66.1579 359.912 66.2082 360.012 66.1076C360.666 65.3536 360.766 65.2028 361.017 65.2028C361.168 65.2028 360.917 65.1525 364.083 66.4093C364.485 66.5098 364.536 66.912 364.284 67.1633Z" fill="#163050"/>
<path d="M404.794 132.616C384.539 146.39 373.934 154.484 365.993 155.691C371.371 153.428 373.18 148.552 376.196 134.778C378.257 125.327 384.338 122.059 389.967 118.238" stroke="#163050" stroke-width="2.32868" stroke-linecap="round" stroke-linejoin="round"/>
<path d="M449.324 102.454L438.468 109.844" stroke="#163050" stroke-width="2.32868" stroke-linecap="round" stroke-linejoin="round"/>
<path d="M346.693 156.244C353.931 157.55 361.269 157.249 367.3 155.339" stroke="#163050" stroke-width="2.32868" stroke-linecap="round" stroke-linejoin="round"/>
<path d="M315.281 133.421C319.151 142.922 327.293 149.558 336.541 153.328" stroke="#163050" stroke-width="2.32868" stroke-linecap="round" stroke-linejoin="round"/>
<path d="M323.976 88.4277C318.196 92.3992 312.315 95.2144 311.863 109.391" stroke="#163050" stroke-width="2.32868" stroke-linecap="round" stroke-linejoin="round"/>
<path d="M359.409 43.5358L386.097 25.5889" stroke="#E2E7E9" stroke-width="2.32868" stroke-linecap="round" stroke-linejoin="round"/>
<path d="M474.354 41.4229L480.787 37.1006" stroke="#F5F5F5" stroke-width="2.32868" stroke-linecap="round" stroke-linejoin="round"/>
<path d="M439.021 63.7947L458.421 50.7744" stroke="#FFDA7F" stroke-width="2.32868" stroke-linecap="round" stroke-linejoin="round"/>
<path d="M418.113 45.6971L462.995 15.5342" stroke="#E2E7E9" stroke-width="2.32868" stroke-linecap="round" stroke-linejoin="round"/>
<path d="M403.035 55.8519L410.423 50.875" stroke="#FFDA7F" stroke-width="2.32868" stroke-linecap="round" stroke-linejoin="round"/>
<path d="M375.995 40.419L382.73 35.8945" stroke="#E2E7E9" stroke-width="2.32868" stroke-linecap="round" stroke-linejoin="round"/>
<path d="M339.858 114.77C338.551 111.854 339.406 108.637 341.064 107.882C343.125 106.978 344.281 108.687 348.653 108.787C354.031 108.888 357.801 107.229 359.459 110.497C362.978 117.635 344.783 126.031 339.858 114.77Z" fill="#163050"/>
<path d="M357.549 116.729C351.066 122.561 342.17 120.097 339.858 114.769C340.21 114.417 344.18 108.937 347.799 113.059C347.799 113.009 353.328 109.289 357.549 116.729Z" fill="#FFA5C3"/>
<path d="M353.126 112.658C354.182 119.948 340.813 117.987 346.542 113.513C342.924 114.92 341.466 113.211 341.466 113.211C340.863 113.161 339.707 114.116 339.607 114.569C340.712 118.992 352.373 122.763 356.996 116.579C357.147 114.166 353.529 112.859 353.126 112.658Z" fill="#FA6D9C"/>
<path d="M341.064 107.882C343.125 106.978 344.281 108.687 348.653 108.787C354.031 108.888 357.801 107.229 359.459 110.497C361.419 114.418 354.685 121.757 346.14 119.596C337.697 117.535 338.35 109.089 341.064 107.882Z" stroke="#163050" stroke-width="3.0525" stroke-miterlimit="10" stroke-linecap="round" stroke-linejoin="round"/>
<path d="M345.236 114.97C346.04 114.115 346.995 113.512 347.95 112.909M357.65 116.378C353.177 109.289 348.101 112.859 347.799 113.009C344.08 109.038 340.31 114.266 340.009 114.568L357.65 116.378Z" stroke="#163050" stroke-width="3.0525" stroke-miterlimit="10" stroke-linecap="round" stroke-linejoin="round"/>
<path opacity="0.2" d="M408.312 207.923L416.203 212.045L415.549 213.604C415.549 213.604 410.172 214.86 404.693 213.352C407.055 210.185 408.312 207.923 408.312 207.923Z" fill="#163050"/>
<path d="M316.638 135.029L327.946 142.319C329.454 143.274 329.102 145.435 327.343 145.838L317.894 147.949C315.23 148.552 312.617 146.592 312.617 144.028V136.94C312.617 134.979 314.929 133.923 316.638 135.029Z" fill="white"/>
<path d="M316.638 135.029L327.946 142.319C329.454 143.274 329.102 145.435 327.343 145.838L317.894 147.949C315.23 148.552 312.617 146.592 312.617 144.028V136.94C312.617 134.979 314.929 133.923 316.638 135.029Z" stroke="#163050" stroke-width="2.32868" stroke-linecap="round" stroke-linejoin="round"/>
</svg>
