<svg width="26" height="26" viewBox="0 0 26 26" fill="none" xmlns="http://www.w3.org/2000/svg">
<path fill-rule="evenodd" clip-rule="evenodd" d="M13 1C6.37983 1 1 6.37983 1 13C1 19.6202 6.37983 25 13 25C19.6202 25 25 19.6202 25 13C25 6.37983 19.6202 1 13 1ZM13 2.04348C19.056 2.04348 23.9565 6.944 23.9565 13C23.9565 13.0199 23.9557 13.0397 23.955 13.0595L23.955 13.0597C23.9543 13.0768 23.9536 13.0939 23.9535 13.1111C23.6198 13.0803 23.2342 13.051 22.7439 13.0336C22.0506 13.009 21.1768 13.0162 20.1861 13.0652C20.2229 12.8094 20.2486 12.5499 20.2493 12.2836C20.2998 11.3066 19.9718 10.3926 19.4382 9.58526C19.5671 9.13984 19.7183 8.57316 19.7561 7.93037C19.7992 7.1977 19.736 6.38527 19.1478 5.83628L18.9969 5.69565H18.7911C17.3912 5.69565 16.4331 6.28167 15.8471 6.74626C15.0011 6.41879 14.0499 6.21739 13 6.21739C11.9442 6.21739 10.9838 6.42161 10.1029 6.7483C9.51735 6.28349 8.55832 5.69565 7.15693 5.69565H6.95211L6.80129 5.83526C6.22832 6.3673 6.17554 7.15744 6.21128 7.88655C6.2428 8.52948 6.38525 9.11416 6.51189 9.58118C5.9693 10.4043 5.64368 11.3419 5.64368 12.2694C5.64368 12.5363 5.66851 12.7966 5.70482 13.053C4.76269 13.0093 3.92283 13.0009 3.25611 13.0245C2.76583 13.0418 2.38023 13.0708 2.04654 13.1019C2.04639 13.0859 2.04571 13.07 2.04502 13.054C2.04425 13.0361 2.04348 13.0181 2.04348 13C2.04348 6.944 6.944 2.04348 13 2.04348ZM9.67901 7.70312C9.31235 7.3772 8.52038 6.90715 7.46773 6.8074C7.34759 7.01932 7.22922 7.33545 7.25374 7.8356C7.28321 8.43692 7.43141 9.10286 7.55231 9.51393L7.62568 9.76155L7.47283 9.96943C6.96312 10.6645 6.68716 11.5052 6.68716 12.2694C6.68716 13.5713 7.15498 14.6134 8.15353 15.3855C9.15208 16.1577 10.7295 16.6522 12.948 16.6522C15.1666 16.6522 16.743 16.1577 17.7415 15.3855C18.7401 14.6134 19.2089 13.5713 19.2089 12.2694V12.2551L19.2099 12.2408C19.2547 11.4353 18.9915 10.6734 18.4752 9.96943L18.3193 9.75645L18.3978 9.50476C18.5186 9.11808 18.6785 8.46699 18.7137 7.86923C18.743 7.36974 18.6214 7.03957 18.4813 6.8074C17.4281 6.9069 16.6348 7.37709 16.268 7.70312L16.0183 7.92527L15.7126 7.79076C14.9499 7.45708 14.0294 7.26087 13 7.26087C11.9706 7.26087 11.0503 7.45611 10.2252 7.79586L9.92357 7.91916L9.67901 7.70312ZM4.59205 13.5329C4.96076 13.5377 5.38337 13.5576 5.80673 13.5788C5.84718 13.7415 5.8933 13.9015 5.94939 14.0577C4.22381 14.0941 2.9329 14.2677 2.13723 14.4164C2.10359 14.1554 2.07679 13.8922 2.06182 13.6257C2.64985 13.5699 3.47878 13.5187 4.59205 13.5329ZM23.9372 13.6338C23.3491 13.5782 22.5204 13.527 21.4079 13.5411C21.0059 13.5462 20.5502 13.566 20.0832 13.591C20.0433 13.7504 19.9975 13.9077 19.9426 14.0608C21.7129 14.0887 23.0387 14.2622 23.8628 14.4134C23.8959 14.156 23.9222 13.8965 23.9372 13.6338ZM6.17154 14.5754C6.48288 15.1993 6.92775 15.7564 7.51562 16.2109C8.31939 16.8325 9.36432 17.2667 10.6399 17.499C10.4731 17.6705 10.3213 17.8587 10.1865 18.0574L10.1549 18.0299C10.1552 18.0295 10.1525 18.0307 10.1469 18.0332L10.1467 18.0333L10.1466 18.0333C10.0991 18.054 9.85287 18.1617 9.50374 18.1929C9.18501 18.2215 8.80573 18.2198 8.44478 18.2181H8.44474H8.44437H8.444H8.44363C8.36129 18.2178 8.2799 18.2174 8.20041 18.2174C7.56128 18.2174 7.27976 17.9154 6.82982 17.3655C6.58067 17.0297 6.27692 16.7577 5.982 16.5513C5.68001 16.3399 5.4224 16.1907 5.1036 16.1376L5.0608 16.1304H5.01698C4.77351 16.1304 4.5379 16.1481 4.31793 16.3995C4.20795 16.5252 4.13214 16.7579 4.18139 16.9548C4.23063 17.1518 4.35523 17.2728 4.46671 17.3471C4.95198 17.6707 5.16537 18.2098 5.39304 18.7849C5.49992 19.0549 5.60994 19.3329 5.75272 19.6002C6.17007 20.4318 7.07078 20.8261 7.99151 20.8261H9.34783V23.3319C5.67886 22.0368 2.91201 18.8459 2.21671 14.9321C3.01544 14.7816 4.35298 14.6008 6.17154 14.5754ZM23.7843 14.929C22.9553 14.776 21.5803 14.5954 19.7215 14.5795C19.4109 15.202 18.967 15.7573 18.3804 16.2109C17.6082 16.8081 16.6159 17.2349 15.4079 17.4735C15.5961 17.6694 15.7649 17.8877 15.9083 18.1185C16.3807 18.8788 16.6522 19.7905 16.6522 20.6172V23.3319C20.3221 22.0365 23.0899 18.8443 23.7843 14.929ZM12.3213 17.7476H13.7826C14.2067 17.7476 14.6594 18.0856 15.0217 18.6688C15.3841 19.252 15.6087 20.0352 15.6087 20.6172V23.6427C14.7726 23.8466 13.8994 23.9565 13 23.9565C12.1006 23.9565 11.2274 23.8466 10.3913 23.6427V20.6172C10.3913 20.0481 10.6354 19.2668 11.0221 18.681C11.4088 18.0953 11.8973 17.7476 12.3213 17.7476ZM8.20041 19.2609C7.37697 19.2609 6.83011 18.8327 6.3784 18.3641C6.38714 18.3882 6.39598 18.4127 6.40489 18.4373C6.49805 18.6947 6.59868 18.9728 6.67697 19.1182L6.68003 19.1243L6.6841 19.1315C6.89345 19.5501 7.34803 19.7826 7.99151 19.7826H9.45075C9.49065 19.5977 9.53804 19.4139 9.60156 19.2313C9.6004 19.2314 9.59926 19.2318 9.59811 19.2321C9.59757 19.2322 9.59702 19.2323 9.59647 19.2323C9.20837 19.2671 8.8039 19.2644 8.44885 19.262C8.36282 19.2614 8.2797 19.2609 8.20041 19.2609Z" fill="#163150"/>
<path d="M23.955 13.0595L24.2048 13.0697L24.2048 13.0693L23.955 13.0595ZM23.955 13.0597L23.7052 13.0495L23.7052 13.0499L23.955 13.0597ZM23.9535 13.1111L23.9305 13.36L24.2007 13.385L24.2035 13.1136L23.9535 13.1111ZM22.7439 13.0336L22.7527 12.7838L22.7439 13.0336ZM20.1861 13.0652L19.9387 13.0297L19.8956 13.3299L20.1985 13.3149L20.1861 13.0652ZM20.2493 12.2836L19.9994 12.2707L19.9993 12.283L20.2493 12.2836ZM19.4382 9.58526L19.198 9.51576L19.1659 9.62673L19.2296 9.7231L19.4382 9.58526ZM19.7561 7.93037L20.0057 7.94505V7.94505L19.7561 7.93037ZM19.1478 5.83628L19.3183 5.65351L19.3182 5.65343L19.1478 5.83628ZM18.9969 5.69565L19.1674 5.51281L19.0954 5.44565H18.9969V5.69565ZM15.8471 6.74626L15.7569 6.97941L15.8903 7.03106L16.0025 6.94215L15.8471 6.74626ZM10.1029 6.7483L9.94749 6.94411L10.0578 7.03168L10.1899 6.9827L10.1029 6.7483ZM6.95211 5.69565V5.44565H6.85416L6.78228 5.51219L6.95211 5.69565ZM6.80129 5.83526L6.63146 5.65179L6.63118 5.65206L6.80129 5.83526ZM6.21128 7.88655L5.96158 7.89879V7.89879L6.21128 7.88655ZM6.51189 9.58118L6.72062 9.71878L6.78269 9.62461L6.75318 9.51576L6.51189 9.58118ZM5.70482 13.053L5.69324 13.3027L5.99467 13.3167L5.95235 13.0179L5.70482 13.053ZM3.25611 13.0245L3.24728 12.7746L3.25611 13.0245ZM2.04654 13.1019L1.79655 13.1042L1.79903 13.376L2.06973 13.3508L2.04654 13.1019ZM2.04502 13.054L1.79525 13.0648H1.79525L2.04502 13.054ZM7.46773 6.8074L7.49131 6.55852L7.33011 6.54324L7.25025 6.68411L7.46773 6.8074ZM9.67901 7.70312L9.51292 7.88998L9.5135 7.89049L9.67901 7.70312ZM7.25374 7.8356L7.00404 7.84784L7.25374 7.8356ZM7.55231 9.51393L7.31247 9.58447L7.31261 9.58495L7.55231 9.51393ZM7.62568 9.76155L7.82709 9.90965L7.90066 9.8096L7.86538 9.69053L7.62568 9.76155ZM7.47283 9.96943L7.27141 9.82133L7.27122 9.82159L7.47283 9.96943ZM8.15353 15.3855L8.30646 15.1878V15.1878L8.15353 15.3855ZM17.7415 15.3855L17.5886 15.1878L17.5886 15.1878L17.7415 15.3855ZM19.2089 12.2551L18.9595 12.2373L18.9589 12.2462V12.2551H19.2089ZM19.2099 12.2408L19.4593 12.2586L19.4595 12.2547L19.2099 12.2408ZM18.4752 9.96943L18.2735 10.1171L18.2736 10.1173L18.4752 9.96943ZM18.3193 9.75645L18.0806 9.68205L18.0431 9.8024L18.1176 9.90413L18.3193 9.75645ZM18.3978 9.50476L18.1591 9.43019L18.1591 9.43035L18.3978 9.50476ZM18.7137 7.86923L18.4641 7.85454L18.7137 7.86923ZM18.4813 6.8074L18.6954 6.67828L18.6142 6.54374L18.4578 6.55851L18.4813 6.8074ZM16.268 7.70312L16.1019 7.51627L16.1018 7.51636L16.268 7.70312ZM16.0183 7.92527L15.9177 8.1541L16.0646 8.21875L16.1845 8.11204L16.0183 7.92527ZM15.7126 7.79076L15.8133 7.56193L15.8128 7.56172L15.7126 7.79076ZM10.2252 7.79586L10.3198 8.02727L10.3204 8.02703L10.2252 7.79586ZM9.92357 7.91916L9.75806 8.10653L9.87444 8.20932L10.0182 8.15057L9.92357 7.91916ZM5.80673 13.5788L6.04934 13.5185L6.00457 13.3384L5.81926 13.3291L5.80673 13.5788ZM4.59205 13.5329L4.59524 13.283H4.59524L4.59205 13.5329ZM5.94939 14.0577L5.95466 14.3077L6.30211 14.3004L6.18468 13.9733L5.94939 14.0577ZM2.13723 14.4164L1.88928 14.4484L1.9231 14.7108L2.18318 14.6622L2.13723 14.4164ZM2.06182 13.6257L2.0382 13.3768L1.79872 13.3995L1.81221 13.6397L2.06182 13.6257ZM21.4079 13.5411L21.4048 13.2911L21.4079 13.5411ZM23.9372 13.6338L24.1868 13.648L24.2004 13.4076L23.9607 13.3849L23.9372 13.6338ZM20.0832 13.591L20.0698 13.3414L19.8856 13.3513L19.8407 13.5303L20.0832 13.591ZM19.9426 14.0608L19.7073 13.9764L19.5893 14.3053L19.9387 14.3108L19.9426 14.0608ZM23.8628 14.4134L23.8177 14.6593L24.0771 14.7069L24.1107 14.4453L23.8628 14.4134ZM7.51562 16.2109L7.3627 16.4087V16.4087L7.51562 16.2109ZM6.17154 14.5754L6.39523 14.4638L6.3251 14.3232L6.16805 14.3254L6.17154 14.5754ZM10.6399 17.499L10.8191 17.6733L11.1464 17.3371L10.6847 17.253L10.6399 17.499ZM10.1865 18.0574L10.0223 18.2459L10.235 18.4312L10.3934 18.1978L10.1865 18.0574ZM10.1549 18.0299L9.96631 17.8658L9.80225 18.0543L9.9907 18.2184L10.1549 18.0299ZM10.1469 18.0332L10.2464 18.2625L10.2469 18.2623L10.1469 18.0332ZM10.1467 18.0333L10.0471 17.8039L10.0465 17.8042L10.1467 18.0333ZM10.1466 18.0333L10.2467 18.2624L10.2468 18.2623L10.1466 18.0333ZM9.50374 18.1929L9.48144 17.9439H9.48144L9.50374 18.1929ZM8.44478 18.2181L8.44591 17.9681H8.44478V18.2181ZM8.44363 18.2181L8.4425 18.4681H8.44363V18.2181ZM6.82982 17.3655L6.62883 17.5146L6.63633 17.5238L6.82982 17.3655ZM5.982 16.5513L5.83863 16.7561H5.83863L5.982 16.5513ZM5.1036 16.1376L5.0625 16.3842H5.0625L5.1036 16.1376ZM5.0608 16.1304L5.1019 15.8838L5.08149 15.8804H5.0608V16.1304ZM4.31793 16.3995L4.12979 16.2348L4.12979 16.2348L4.31793 16.3995ZM4.18139 16.9548L4.42392 16.8942L4.18139 16.9548ZM4.46671 17.3471L4.60539 17.1391H4.60539L4.46671 17.3471ZM5.39304 18.7849L5.62549 18.6929L5.39304 18.7849ZM5.75272 19.6002L5.97623 19.488L5.97324 19.4824L5.75272 19.6002ZM9.34783 20.8261H9.59783V20.5761H9.34783V20.8261ZM9.34783 23.3319L9.26461 23.5676L9.59783 23.6852V23.3319H9.34783ZM2.21671 14.9321L2.17044 14.6864L1.92729 14.7322L1.97057 14.9758L2.21671 14.9321ZM19.7215 14.5795L19.7236 14.3295L19.5675 14.3282L19.4978 14.4679L19.7215 14.5795ZM23.7843 14.929L24.0305 14.9727L24.0738 14.7282L23.8297 14.6832L23.7843 14.929ZM18.3804 16.2109L18.2275 16.0132L18.3804 16.2109ZM15.4079 17.4735L15.3595 17.2282L14.9108 17.3169L15.2277 17.6467L15.4079 17.4735ZM15.9083 18.1185L16.1206 17.9866V17.9866L15.9083 18.1185ZM16.6522 23.3319H16.4022V23.6852L16.7354 23.5676L16.6522 23.3319ZM15.6087 23.6427L15.6679 23.8855L15.8587 23.839V23.6427H15.6087ZM10.3913 23.6427H10.1413V23.839L10.3321 23.8855L10.3913 23.6427ZM6.3784 18.3641L6.55837 18.1906L6.14339 18.4494L6.3784 18.3641ZM6.40489 18.4373L6.63997 18.3522V18.3522L6.40489 18.4373ZM6.67697 19.1182L6.90068 19.0064L6.8971 18.9997L6.67697 19.1182ZM6.68003 19.1243L6.45608 19.2363L6.46297 19.2484L6.68003 19.1243ZM6.6841 19.1315L6.90805 19.0195L6.90116 19.0074L6.6841 19.1315ZM9.45075 19.7826V20.0326H9.65256L9.69512 19.8353L9.45075 19.7826ZM9.60156 19.2313L9.83768 19.3135L9.96498 18.9475L9.57909 18.9823L9.60156 19.2313ZM9.59811 19.2321L9.5411 18.9886L9.54109 18.9886L9.59811 19.2321ZM9.59647 19.2323L9.61877 19.4813L9.61883 19.4813L9.59647 19.2323ZM8.44885 19.262L8.45053 19.012H8.45052L8.44885 19.262ZM1.25 13C1.25 6.5179 6.5179 1.25 13 1.25V0.75C6.24176 0.75 0.75 6.24176 0.75 13H1.25ZM13 24.75C6.5179 24.75 1.25 19.4821 1.25 13H0.75C0.75 19.7582 6.24176 25.25 13 25.25V24.75ZM24.75 13C24.75 19.4821 19.4821 24.75 13 24.75V25.25C19.7582 25.25 25.25 19.7582 25.25 13H24.75ZM13 1.25C19.4821 1.25 24.75 6.5179 24.75 13H25.25C25.25 6.24176 19.7582 0.75 13 0.75V1.25ZM24.2065 13C24.2065 6.80593 19.1941 1.79348 13 1.79348V2.29348C18.9179 2.29348 23.7065 7.08207 23.7065 13H24.2065ZM24.2048 13.0693C24.2055 13.0503 24.2065 13.0256 24.2065 13H23.7065C23.7065 13.0143 23.706 13.0292 23.7052 13.0498L24.2048 13.0693ZM24.2048 13.0699L24.2048 13.0697L23.7052 13.0493L23.7052 13.0495L24.2048 13.0699ZM24.2035 13.1136C24.2036 13.1006 24.2041 13.0871 24.2048 13.0694L23.7052 13.0499C23.7045 13.0664 23.7037 13.0871 23.7035 13.1086L24.2035 13.1136ZM22.735 13.2835C23.2196 13.3007 23.6004 13.3295 23.9305 13.36L23.9764 12.8621C23.6391 12.831 23.2487 12.8014 22.7527 12.7838L22.735 13.2835ZM20.1985 13.3149C21.1836 13.2661 22.0502 13.2592 22.735 13.2835L22.7527 12.7838C22.0511 12.7589 21.17 12.7662 20.1738 12.8155L20.1985 13.3149ZM19.9993 12.283C19.9987 12.5338 19.9744 12.7809 19.9387 13.0297L20.4336 13.1008C20.4713 12.8379 20.4986 12.5661 20.4993 12.2843L19.9993 12.283ZM19.2296 9.7231C19.7418 10.4981 20.0467 11.36 19.9997 12.2707L20.499 12.2965C20.5529 11.2532 20.2017 10.2871 19.6467 9.44742L19.2296 9.7231ZM19.5065 7.91569C19.4704 8.52937 19.3259 9.07393 19.198 9.51576L19.6783 9.65476C19.8083 9.20574 19.9662 8.61694 20.0057 7.94505L19.5065 7.91569ZM18.9772 6.01904C19.4766 6.48512 19.5491 7.19191 19.5065 7.91569L20.0057 7.94505C20.0493 7.20349 19.9954 6.28541 19.3183 5.65351L18.9772 6.01904ZM18.8265 5.8785L18.9773 6.01912L19.3182 5.65343L19.1674 5.51281L18.8265 5.8785ZM18.7911 5.94565H18.9969V5.44565H18.7911V5.94565ZM16.0025 6.94215C16.5628 6.49783 17.4675 5.94565 18.7911 5.94565V5.44565C17.3149 5.44565 16.3033 6.06552 15.6918 6.55037L16.0025 6.94215ZM13 6.46739C14.0172 6.46739 14.938 6.66242 15.7569 6.97941L15.9374 6.51312C15.0643 6.17516 14.0825 5.96739 13 5.96739V6.46739ZM10.1899 6.9827C11.0464 6.66502 11.9774 6.46739 13 6.46739V5.96739C11.911 5.96739 10.9211 6.17819 10.016 6.5139L10.1899 6.9827ZM7.15693 5.94565C8.48188 5.94565 9.38739 6.49952 9.94749 6.94411L10.2583 6.55249C9.6473 6.06746 8.63476 5.44565 7.15693 5.44565V5.94565ZM6.95211 5.94565H7.15693V5.44565H6.95211V5.94565ZM6.97112 6.01872L7.12193 5.87912L6.78228 5.51219L6.63146 5.65179L6.97112 6.01872ZM6.46098 7.87431C6.42539 7.14824 6.48877 6.46661 6.9714 6.01846L6.63118 5.65206C5.96788 6.26798 5.92569 7.16664 5.96158 7.89879L6.46098 7.87431ZM6.75318 9.51576C6.62767 9.05291 6.49113 8.48941 6.46098 7.87431L5.96158 7.89879C5.99446 8.56955 6.14283 9.17541 6.2706 9.64661L6.75318 9.51576ZM5.89368 12.2694C5.89368 11.3997 6.19962 10.5091 6.72062 9.71878L6.30316 9.44359C5.73898 10.2994 5.39368 11.2841 5.39368 12.2694H5.89368ZM5.95235 13.0179C5.91708 12.7689 5.89368 12.5209 5.89368 12.2694H5.39368C5.39368 12.5516 5.41993 12.8242 5.45729 13.088L5.95235 13.0179ZM3.26495 13.2743C3.92309 13.251 4.75586 13.2592 5.69324 13.3027L5.71641 12.8033C4.76952 12.7593 3.92258 12.7507 3.24728 12.7746L3.26495 13.2743ZM2.06973 13.3508C2.39952 13.3201 2.78026 13.2914 3.26495 13.2743L3.24728 12.7746C2.75141 12.7922 2.36095 12.8215 2.02334 12.853L2.06973 13.3508ZM1.79525 13.0648C1.79597 13.0814 1.79644 13.0931 1.79655 13.1042L2.29653 13.0996C2.29633 13.0787 2.29545 13.0585 2.29479 13.0433L1.79525 13.0648ZM1.79348 13C1.79348 13.0244 1.79452 13.0477 1.79525 13.0648L2.29479 13.0433C2.29398 13.0245 2.29348 13.0119 2.29348 13H1.79348ZM13 1.79348C6.80593 1.79348 1.79348 6.80593 1.79348 13H2.29348C2.29348 7.08207 7.08207 2.29348 13 2.29348V1.79348ZM7.44415 7.05629C8.43838 7.1505 9.18159 7.59547 9.51292 7.88998L9.8451 7.51627C9.4431 7.15894 8.60239 6.6638 7.49131 6.55852L7.44415 7.05629ZM7.50344 7.82336C7.48139 7.3736 7.58688 7.10416 7.68521 6.9307L7.25025 6.68411C7.10831 6.93448 6.97705 7.2973 7.00404 7.84784L7.50344 7.82336ZM7.79215 9.44339C7.67469 9.04401 7.53163 8.39856 7.50344 7.82336L7.00404 7.84784C7.03479 8.47528 7.18813 9.16171 7.31247 9.58447L7.79215 9.44339ZM7.86538 9.69053L7.79201 9.4429L7.31261 9.58495L7.38598 9.83257L7.86538 9.69053ZM7.67424 10.1175L7.82709 9.90965L7.42427 9.61345L7.27141 9.82133L7.67424 10.1175ZM6.93716 12.2694C6.93716 11.5617 7.19414 10.7722 7.67443 10.1173L7.27122 9.82159C6.73209 10.5568 6.43716 11.4487 6.43716 12.2694H6.93716ZM8.30646 15.1878C7.37515 14.4676 6.93716 13.5019 6.93716 12.2694H6.43716C6.43716 13.6408 6.93482 14.7592 8.00061 15.5833L8.30646 15.1878ZM12.948 16.4022C10.7621 16.4022 9.24611 15.9143 8.30646 15.1878L8.00061 15.5833C9.05806 16.401 10.6968 16.9022 12.948 16.9022V16.4022ZM17.5886 15.1878C16.6489 15.9144 15.134 16.4022 12.948 16.4022V16.9022C15.1992 16.9022 16.837 16.401 17.8944 15.5833L17.5886 15.1878ZM18.9589 12.2694C18.9589 13.5017 18.52 14.4675 17.5886 15.1878L17.8944 15.5833C18.9601 14.7593 19.4589 13.641 19.4589 12.2694H18.9589ZM18.9589 12.2551V12.2694H19.4589V12.2551H18.9589ZM18.9606 12.223L18.9595 12.2373L19.4583 12.2729L19.4593 12.2586L18.9606 12.223ZM18.2736 10.1173C18.762 10.7832 19.0013 11.4891 18.9603 12.227L19.4595 12.2547C19.5081 11.3814 19.2209 10.5636 18.6768 9.82159L18.2736 10.1173ZM18.1176 9.90413L18.2735 10.1171L18.6769 9.82176L18.521 9.60878L18.1176 9.90413ZM18.1591 9.43035L18.0806 9.68205L18.558 9.83086L18.6364 9.57916L18.1591 9.43035ZM18.4641 7.85454C18.4305 8.42463 18.2766 9.05438 18.1591 9.43019L18.6364 9.57932C18.7606 9.18178 18.9264 8.50935 18.9632 7.88391L18.4641 7.85454ZM18.2672 6.93653C18.3825 7.12757 18.4904 7.40791 18.4641 7.85454L18.9632 7.88391C18.9957 7.33157 18.8602 6.95156 18.6954 6.67828L18.2672 6.93653ZM16.4341 7.88998C16.7655 7.59543 17.51 7.15028 18.5048 7.0563L18.4578 6.55851C17.3462 6.66352 16.5041 7.15875 16.1019 7.51627L16.4341 7.88998ZM16.1845 8.11204L16.4342 7.88989L16.1018 7.51636L15.8522 7.7385L16.1845 8.11204ZM15.612 8.01959L15.9177 8.1541L16.119 7.69644L15.8133 7.56193L15.612 8.01959ZM13 7.51087C13.998 7.51087 14.8841 7.70114 15.6124 8.0198L15.8128 7.56172C15.0158 7.21302 14.0608 7.01087 13 7.01087V7.51087ZM10.3204 8.02703C11.1152 7.69973 12.0032 7.51087 13 7.51087V7.01087C11.938 7.01087 10.9854 7.21248 10.13 7.56469L10.3204 8.02703ZM10.0182 8.15057L10.3198 8.02727L10.1306 7.56444L9.82898 7.68775L10.0182 8.15057ZM9.5135 7.89049L9.75806 8.10653L10.0891 7.73179L9.84452 7.51576L9.5135 7.89049ZM5.81926 13.3291C5.39635 13.3079 4.96929 13.2877 4.59524 13.283L4.58886 13.7829C4.95223 13.7876 5.37039 13.8072 5.7942 13.8285L5.81926 13.3291ZM6.18468 13.9733C6.13216 13.827 6.08835 13.6754 6.04934 13.5185L5.56411 13.6391C5.606 13.8076 5.65443 13.976 5.71409 14.1422L6.18468 13.9733ZM2.18318 14.6622C2.96574 14.5158 4.24305 14.3438 5.95466 14.3077L5.94412 13.8078C4.20457 13.8445 2.90006 14.0195 2.09128 14.1707L2.18318 14.6622ZM1.81221 13.6397C1.8276 13.9136 1.85507 14.183 1.88928 14.4484L2.38518 14.3845C2.3521 14.1278 2.32598 13.8708 2.31143 13.6117L1.81221 13.6397ZM4.59524 13.283C3.47241 13.2686 2.6345 13.3202 2.0382 13.3768L2.08544 13.8746C2.66519 13.8195 3.48516 13.7688 4.58886 13.7829L4.59524 13.283ZM21.4111 13.7911C22.514 13.7771 23.3337 13.8278 23.9136 13.8827L23.9607 13.3849C23.3644 13.3285 22.5269 13.2769 21.4048 13.2911L21.4111 13.7911ZM20.0966 13.8407C20.5625 13.8157 21.0141 13.7961 21.4111 13.7911L21.4048 13.2911C20.9976 13.2963 20.538 13.3163 20.0698 13.3414L20.0966 13.8407ZM20.1779 14.1452C20.2363 13.9825 20.2843 13.817 20.3257 13.6518L19.8407 13.5303C19.8023 13.6837 19.7588 13.8328 19.7073 13.9764L20.1779 14.1452ZM23.9079 14.1675C23.0706 14.0139 21.7311 13.839 19.9465 13.8108L19.9387 14.3108C21.6947 14.3385 23.0067 14.5105 23.8177 14.6593L23.9079 14.1675ZM23.6876 13.6196C23.673 13.8751 23.6473 14.1285 23.6148 14.3815L24.1107 14.4453C24.1444 14.1835 24.1714 13.918 24.1868 13.648L23.6876 13.6196ZM7.66855 16.0132C7.11135 15.5823 6.69028 15.055 6.39523 14.4638L5.94784 14.687C6.27547 15.3436 6.74415 15.9304 7.3627 16.4087L7.66855 16.0132ZM10.6847 17.253C9.43872 17.0261 8.43362 16.6048 7.66855 16.0132L7.3627 16.4087C8.20515 17.0601 9.28993 17.5073 10.5952 17.7449L10.6847 17.253ZM10.3934 18.1978C10.5205 18.0104 10.6631 17.8336 10.8191 17.6733L10.4608 17.3246C10.283 17.5073 10.1221 17.7071 9.97961 17.917L10.3934 18.1978ZM9.9907 18.2184L10.0223 18.2459L10.3507 17.8689L10.3191 17.8414L9.9907 18.2184ZM10.2469 18.2623C10.2508 18.2606 10.2504 18.2608 10.2492 18.2613C10.2487 18.2615 10.2473 18.2621 10.2454 18.2628C10.2441 18.2633 10.2397 18.2651 10.2338 18.267C10.231 18.268 10.2253 18.2698 10.218 18.2717C10.2139 18.2728 10.1952 18.2778 10.1706 18.2793C10.1598 18.28 10.1298 18.2814 10.0931 18.2721C10.0585 18.2632 9.97048 18.2315 9.92607 18.1305C9.8838 18.0344 9.91555 17.952 9.92774 17.9255C9.94206 17.8943 9.95949 17.8736 9.96631 17.8658L10.3435 18.194C10.3503 18.1862 10.3678 18.1654 10.3821 18.1342C10.3943 18.1077 10.426 18.0253 10.3838 17.9292C10.3393 17.8282 10.2513 17.7964 10.2167 17.7876C10.1799 17.7782 10.15 17.7796 10.1391 17.7803C10.1145 17.7819 10.0957 17.7869 10.0914 17.788C10.0841 17.7899 10.0783 17.7918 10.0753 17.7928C10.0654 17.7961 10.0573 17.7996 10.057 17.7997C10.0532 17.8013 10.0486 17.8033 10.0469 17.804L10.2469 18.2623ZM10.2462 18.2626L10.2464 18.2625L10.0474 17.8038L10.0471 17.8039L10.2462 18.2626ZM10.2468 18.2623L10.2469 18.2623L10.0465 17.8042L10.0464 17.8043L10.2468 18.2623ZM9.52604 18.4419C9.91414 18.4072 10.189 18.2876 10.2467 18.2624L10.0465 17.8042C10.0093 17.8205 9.79159 17.9162 9.48144 17.9439L9.52604 18.4419ZM8.44365 18.4681C8.80131 18.4697 9.19326 18.4717 9.52604 18.4419L9.48144 17.9439C9.17676 17.9712 8.81015 17.9698 8.44591 17.9681L8.44365 18.4681ZM8.44474 18.4681H8.44478V17.9681H8.44474V18.4681ZM8.44437 18.4681H8.44474V17.9681H8.44437V18.4681ZM8.444 18.4681H8.44437V17.9681H8.444V18.4681ZM8.44363 18.4681H8.444V17.9681H8.44363V18.4681ZM8.20041 18.4674C8.27923 18.4674 8.36004 18.4678 8.4425 18.4681L8.44477 17.9681C8.36253 17.9678 8.28057 17.9674 8.20041 17.9674V18.4674ZM6.63633 17.5238C6.85808 17.7948 7.06163 18.0354 7.30102 18.2026C7.55344 18.3789 7.83465 18.4674 8.20041 18.4674V17.9674C7.92703 17.9674 7.74792 17.9049 7.58732 17.7927C7.41368 17.6714 7.25151 17.4861 7.02331 17.2072L6.63633 17.5238ZM5.83863 16.7561C6.11601 16.9503 6.39886 17.2042 6.62905 17.5145L7.0306 17.2165C6.76248 16.8552 6.43783 16.5652 6.12536 16.3465L5.83863 16.7561ZM5.0625 16.3842C5.32409 16.4278 5.5438 16.5497 5.83863 16.7561L6.12536 16.3465C5.81622 16.1301 5.5207 15.9536 5.1447 15.891L5.0625 16.3842ZM5.0197 16.377L5.0625 16.3842L5.1447 15.891L5.1019 15.8838L5.0197 16.377ZM5.01698 16.3804H5.0608V15.8804H5.01698V16.3804ZM4.50608 16.5641C4.58601 16.4727 4.66038 16.4316 4.73195 16.4097C4.81042 16.3856 4.89785 16.3804 5.01698 16.3804V15.8804C4.89264 15.8804 4.74053 15.8841 4.58534 15.9317C4.42325 15.9814 4.26983 16.0748 4.12979 16.2348L4.50608 16.5641ZM4.42392 16.8942C4.39688 16.786 4.44336 16.6358 4.50608 16.5641L4.12979 16.2348C3.97254 16.4145 3.86741 16.7297 3.93885 17.0155L4.42392 16.8942ZM4.60539 17.1391C4.52645 17.0865 4.45329 17.0117 4.42392 16.8942L3.93885 17.0155C4.00797 17.2919 4.18401 17.4591 4.32804 17.5552L4.60539 17.1391ZM5.62549 18.6929C5.40423 18.1339 5.16697 17.5135 4.60539 17.1391L4.32804 17.5552C4.73699 17.8278 4.92652 18.2856 5.16059 18.8769L5.62549 18.6929ZM5.97324 19.4824C5.83824 19.2297 5.73316 18.9649 5.62549 18.6929L5.16059 18.8769C5.26668 19.1449 5.38165 19.4361 5.5322 19.718L5.97324 19.4824ZM7.99151 20.5761C7.13358 20.5761 6.33851 20.2101 5.97616 19.4881L5.52928 19.7123C6.00162 20.6535 7.00798 21.0761 7.99151 21.0761V20.5761ZM9.34783 20.5761H7.99151V21.0761H9.34783V20.5761ZM9.59783 23.3319V20.8261H9.09783V23.3319H9.59783ZM1.97057 14.9758C2.68183 18.9795 5.51186 22.243 9.26461 23.5676L9.43104 23.0961C5.84586 21.8306 3.14219 18.7123 2.46286 14.8883L1.97057 14.9758ZM6.16805 14.3254C4.33474 14.351 2.9829 14.5334 2.17044 14.6864L2.26299 15.1777C3.04799 15.0299 4.37121 14.8505 6.17502 14.8254L6.16805 14.3254ZM19.7193 14.8295C21.5631 14.8453 22.9237 15.0244 23.7389 15.1749L23.8297 14.6832C22.987 14.5277 21.5975 14.3455 19.7236 14.3295L19.7193 14.8295ZM18.5334 16.4087C19.1506 15.9314 19.6183 15.3463 19.9452 14.6911L19.4978 14.4679C19.2035 15.0576 18.7835 15.5832 18.2275 16.0132L18.5334 16.4087ZM15.4564 17.7188C16.694 17.4743 17.7243 17.0343 18.5334 16.4087L18.2275 16.0132C17.4921 16.5819 16.5378 16.9955 15.3595 17.2282L15.4564 17.7188ZM16.1206 17.9866C15.9682 17.7413 15.7888 17.5092 15.5882 17.3003L15.2277 17.6467C15.4034 17.8297 15.5615 18.0341 15.6959 18.2505L16.1206 17.9866ZM16.9022 20.6172C16.9022 19.74 16.6155 18.7831 16.1206 17.9866L15.6959 18.2505C16.1459 18.9746 16.4022 19.841 16.4022 20.6172H16.9022ZM16.9022 23.3319V20.6172H16.4022V23.3319H16.9022ZM23.5381 14.8854C22.8597 18.7107 20.1551 21.8303 16.569 23.0961L16.7354 23.5676C20.4891 22.2426 23.3201 18.9778 24.0305 14.9727L23.5381 14.8854ZM13.7826 17.4976H12.3213V17.9976H13.7826V17.4976ZM15.2341 18.5369C14.8558 17.9281 14.3375 17.4976 13.7826 17.4976V17.9976C14.0759 17.9976 14.4629 18.2431 14.8094 18.8008L15.2341 18.5369ZM15.8587 20.6172C15.8587 19.9849 15.6191 19.1565 15.2341 18.5369L14.8094 18.8008C15.1492 19.3476 15.3587 20.0855 15.3587 20.6172H15.8587ZM15.8587 23.6427V20.6172H15.3587V23.6427H15.8587ZM13 24.2065C13.9198 24.2065 14.8129 24.094 15.6679 23.8855L15.5495 23.3998C14.7322 23.5991 13.8789 23.7065 13 23.7065V24.2065ZM10.3321 23.8855C11.1871 24.094 12.0802 24.2065 13 24.2065V23.7065C12.1211 23.7065 11.2678 23.5991 10.4505 23.3998L10.3321 23.8855ZM10.1413 20.6172V23.6427H10.6413V20.6172H10.1413ZM10.8134 18.5433C10.4037 19.164 10.1413 19.9925 10.1413 20.6172H10.6413C10.6413 20.1037 10.8671 19.3695 11.2307 18.8188L10.8134 18.5433ZM12.3213 17.4976C11.7707 17.4976 11.2166 17.9327 10.8134 18.5433L11.2307 18.8188C11.601 18.258 12.0238 17.9976 12.3213 17.9976V17.4976ZM6.19842 18.5376C6.66666 19.0233 7.27497 19.5109 8.20041 19.5109V19.0109C7.47897 19.0109 6.99355 18.642 6.55837 18.1906L6.19842 18.5376ZM6.63997 18.3522C6.63107 18.3276 6.6222 18.3031 6.61341 18.2789L6.14339 18.4494C6.15209 18.4734 6.1609 18.4977 6.16981 18.5224L6.63997 18.3522ZM6.8971 18.9997C6.82982 18.8747 6.73657 18.6191 6.63997 18.3522L6.16981 18.5224C6.25954 18.7703 6.36754 19.0708 6.45684 19.2367L6.8971 18.9997ZM6.90363 19.0125L6.90058 19.0064L6.45336 19.23L6.45642 19.2361L6.90363 19.0125ZM6.90116 19.0074L6.89708 19.0003L6.46297 19.2484L6.46705 19.2555L6.90116 19.0074ZM7.99151 19.5326C7.4055 19.5326 7.06029 19.3248 6.90771 19.0196L6.4605 19.2433C6.7266 19.7755 7.29056 20.0326 7.99151 20.0326V19.5326ZM9.45075 19.5326H7.99151V20.0326H9.45075V19.5326ZM9.36544 19.1492C9.29754 19.3444 9.24764 19.5386 9.20637 19.7299L9.69512 19.8353C9.73366 19.6567 9.77854 19.4835 9.83768 19.3135L9.36544 19.1492ZM9.65512 19.4755C9.6582 19.4747 9.66078 19.4741 9.66089 19.4741C9.66175 19.4738 9.6599 19.4743 9.65781 19.4748C9.65366 19.4758 9.64088 19.4788 9.62403 19.4803L9.57909 18.9823C9.56108 18.984 9.54715 18.9872 9.54185 18.9884C9.54034 18.9888 9.53911 18.9891 9.53835 18.9893C9.53796 18.9894 9.53763 18.9895 9.53743 18.9895C9.53732 18.9896 9.53723 18.9896 9.53717 18.9896C9.53714 18.9896 9.53711 18.9896 9.5371 18.9896C9.53708 18.9896 9.53706 18.9896 9.53706 18.9896C9.53659 18.9897 9.5386 18.9892 9.5411 18.9886L9.65512 19.4755ZM9.61883 19.4813C9.63597 19.4798 9.64929 19.4768 9.65513 19.4755L9.54109 18.9886C9.54584 18.9875 9.55807 18.9848 9.5741 18.9833L9.61883 19.4813ZM8.44717 19.512C8.80025 19.5144 9.21673 19.5173 9.61877 19.4813L9.57417 18.9833C9.20002 19.0168 8.80755 19.0144 8.45053 19.012L8.44717 19.512ZM8.20041 19.5109C8.27871 19.5109 8.36097 19.5114 8.44718 19.512L8.45052 19.012C8.36467 19.0114 8.28068 19.0109 8.20041 19.0109V19.5109Z" fill="#163150"/>
</svg>
